<svg width="38" height="38" viewBox="0 0 38 38" fill="none" xmlns="http://www.w3.org/2000/svg">
<path d="M26.0714 17.1875H25.1071V14.2344C25.1071 10.7973 22.367 8 19 8C15.633 8 12.8929 10.7973 12.8929 14.2344V17.1875H11.9286C10.8638 17.1875 10 18.0693 10 19.1562V27.0312C10 28.1182 10.8638 29 11.9286 29H26.0714C27.1362 29 28 28.1182 28 27.0312V19.1562C28 18.0693 27.1362 17.1875 26.0714 17.1875ZM21.8929 17.1875H16.1071V14.2344C16.1071 12.6061 17.4049 11.2812 19 11.2812C20.5951 11.2812 21.8929 12.6061 21.8929 14.2344V17.1875Z" fill="black"/>
<circle cx="19" cy="19" r="18.5" stroke="#F2F0F0"/>
</svg>
