<svg width="136" height="137" viewBox="0 0 136 137" fill="none" xmlns="http://www.w3.org/2000/svg">
<path d="M82.6844 27.9849C75.1916 27.9849 69.0501 34.1265 69.0501 41.6193C69.0501 43.0714 69.2791 44.4987 69.7056 45.814L47.1886 58.3335C44.8426 56.4284 41.8708 55.2529 38.6343 55.2529C31.1415 55.2529 25 61.3944 25 68.8872C25 76.38 31.1415 82.5215 38.6343 82.5215C41.87 82.5215 44.8424 81.3788 47.1886 79.4739L69.7374 91.9941C69.3087 93.3124 69.0497 94.6994 69.0497 96.156C69.0497 103.649 75.1913 109.79 82.6841 109.79C90.1769 109.79 96.3184 103.649 96.3184 96.156C96.3184 88.6633 90.1769 82.5217 82.6841 82.5217C78.9208 82.5217 75.4906 84.0946 73.0156 86.5855L51.0886 74.3931C51.8377 72.709 52.2686 70.839 52.2686 68.8874C52.2686 66.9247 51.8458 65.0722 51.0886 63.3817L72.9819 51.1892C75.4591 53.6999 78.9032 55.253 82.6833 55.253C90.1761 55.253 96.3176 49.1115 96.3176 41.6187C96.3176 34.1259 90.1761 27.9844 82.6833 27.9844L82.6844 27.9849ZM82.6844 34.278C86.7762 34.278 90.0257 37.5277 90.0257 41.6193C90.0257 45.7108 86.776 48.9605 82.6844 48.9605C78.5927 48.9605 75.3432 45.7108 75.3432 41.6193C75.3432 37.5277 78.5929 34.278 82.6844 34.278V34.278ZM38.6356 61.5463C42.7274 61.5463 45.9769 64.796 45.9769 68.8876C45.9769 72.9791 42.7272 76.2288 38.6356 76.2288C34.5439 76.2288 31.2944 72.9791 31.2944 68.8876C31.2944 64.796 34.5441 61.5463 38.6356 61.5463ZM82.6844 88.8146C86.7762 88.8146 90.0257 92.0643 90.0257 96.1559C90.0257 100.248 86.776 103.497 82.6844 103.497C78.5929 103.497 75.3432 100.247 75.3432 96.1559C75.3432 92.0641 78.5929 88.8146 82.6844 88.8146Z" fill="black"/>
<path d="M135 68.9844C135 105.987 105.003 135.984 68 135.984C30.9969 135.984 1 105.987 1 68.9844C1 31.9813 30.9969 1.98438 68 1.98438C105.003 1.98438 135 31.9813 135 68.9844Z" stroke="#F2F0F0" stroke-width="2"/>
</svg>
