<svg width="65" height="73" viewBox="0 0 65 73" fill="none" xmlns="http://www.w3.org/2000/svg">
<path d="M50.4948 18.9097C50.4948 28.5155 42.6531 36.3194 32.9584 36.3194C23.2636 36.3194 15.4219 28.5155 15.4219 18.9097C15.4219 9.30387 23.2636 1.5 32.9584 1.5C42.6531 1.5 50.4948 9.30387 50.4948 18.9097Z" stroke="black" stroke-width="3"/>
<path d="M2.60513 65.1457C2.92435 65.3024 3.32535 65.4926 3.80508 65.7081C5.22303 66.3448 7.32732 67.2008 10.0392 68.0589C15.4637 69.7755 23.3106 71.4983 32.9554 71.4983C42.5984 71.4983 50.4442 69.7755 55.868 68.0589C58.5795 67.2008 60.6835 66.3448 62.1013 65.7081C62.581 65.4927 62.9819 65.3024 63.3011 65.1458C63.2838 65.0388 63.2652 64.9249 63.2454 64.8043C63.1015 63.9256 62.896 62.6994 62.6493 61.3101C62.1542 58.5215 61.5003 55.1133 60.8525 52.5377L2.60513 65.1457ZM2.60513 65.1457C2.62249 65.0388 2.64106 64.9248 2.6608 64.8043C2.8047 63.9256 3.01029 62.6994 3.25693 61.31C3.75202 58.5213 4.40597 55.113 5.05382 52.5375L2.60513 65.1457ZM48.0642 37.2012C48.399 37.3808 48.7278 37.5552 49.0507 37.7265C51.3564 38.9492 53.3671 40.0155 55.1971 41.7176C57.4335 43.7976 59.4295 46.8919 60.8523 52.537L48.0642 37.2012ZM48.0642 37.2012C43.9538 40.5639 38.6982 42.6019 32.952 42.6019C27.205 42.6019 21.9501 40.5639 17.8396 37.2011C17.5042 37.3809 17.1749 37.5555 16.8515 37.7271C14.5464 38.9493 12.5365 40.0151 10.7072 41.7165C8.4714 43.7961 6.47598 46.8905 5.05392 52.5371L48.0642 37.2012Z" stroke="black" stroke-width="3"/>
</svg>
