<svg width="63" height="62" viewBox="0 0 63 62" fill="none" xmlns="http://www.w3.org/2000/svg">
  <g filter="url(#filter0_d_7874_126425)">
    <rect x="4" width="55" height="54" rx="27" fill="#667799"/>
  </g>
  <path d="M43.9952 17.5611C44.0015 17.5134 44.0019 17.4661 43.9945 17.4194C43.9935 17.4124 43.9942 17.4057 43.9929 17.3987C43.9819 17.3444 43.9602 17.293 43.9319 17.2447C43.9289 17.2394 43.9285 17.2337 43.9255 17.2284C43.9205 17.2204 43.9125 17.2164 43.9072 17.2087C43.8959 17.1927 43.8872 17.1747 43.8735 17.16C43.8565 17.1414 43.8359 17.1277 43.8169 17.112C43.8065 17.1037 43.7975 17.094 43.7868 17.0867C43.7422 17.0557 43.6935 17.032 43.6415 17.017C43.6322 17.0143 43.6228 17.014 43.6135 17.012C43.5695 17.002 43.5245 16.9983 43.4788 17.0007C43.4635 17.0013 43.4491 17.0027 43.4338 17.0047C43.4208 17.0067 43.4075 17.0053 43.3945 17.008L14.391 23.4941C14.1873 23.5398 14.0333 23.7071 14.0047 23.9138C13.9763 24.1205 14.0793 24.3235 14.263 24.4222L22.1049 28.6431L24.5476 36.4306C24.5502 36.439 24.5559 36.445 24.5589 36.453C24.5659 36.4717 24.5762 36.4883 24.5856 36.5063C24.6052 36.5443 24.6279 36.579 24.6559 36.6103C24.6632 36.6187 24.6659 36.6293 24.6739 36.637C24.6812 36.644 24.6906 36.6463 24.6983 36.653C24.7313 36.6817 24.7673 36.7047 24.8066 36.724C24.8223 36.7317 24.8359 36.7417 24.8519 36.7474C24.9066 36.7677 24.964 36.7807 25.0243 36.7807C25.028 36.7807 25.0316 36.7807 25.0353 36.7807C25.095 36.7794 25.1516 36.766 25.205 36.745C25.2186 36.7397 25.23 36.7304 25.243 36.724C25.2853 36.703 25.3243 36.6777 25.3593 36.6457C25.366 36.6397 25.3747 36.6377 25.381 36.631L29.3845 32.5609L37.1121 36.7204C37.1857 36.76 37.2674 36.7804 37.3491 36.7804C37.4118 36.7804 37.4751 36.7687 37.5348 36.7447C37.6721 36.69 37.7781 36.5767 37.8245 36.436L43.9782 17.6521C43.9829 17.6374 43.9832 17.6221 43.9865 17.6071C43.9902 17.5917 43.9932 17.5767 43.9952 17.5611ZM39.8127 18.8339L22.5257 27.7346L15.9175 24.1775L39.8127 18.8339ZM38.7743 20.4938L26.2704 30.0852C26.2694 30.0859 26.2688 30.0872 26.2681 30.0879C26.2308 30.1169 26.1984 30.1526 26.1701 30.1926C26.1641 30.2009 26.1584 30.2092 26.1531 30.2179C26.1474 30.2272 26.1401 30.2352 26.1348 30.2449C26.1168 30.2783 26.1038 30.3129 26.0941 30.3479C26.0938 30.3496 26.0924 30.3509 26.0921 30.3526L24.986 34.4888L23.1237 28.5517L38.7743 20.4938ZM25.9967 34.5794L26.8945 31.2217L28.467 32.0681L25.9967 34.5794ZM37.0597 35.5579L27.4926 30.4083L42.5244 18.8776L37.0597 35.5579Z" fill="white"/>
  <defs>
    <filter id="filter0_d_7874_126425" x="0" y="0" width="63" height="62" filterUnits="userSpaceOnUse" color-interpolation-filters="sRGB">
      <feFlood flood-opacity="0" result="BackgroundImageFix"/>
      <feColorMatrix in="SourceAlpha" type="matrix" values="0 0 0 0 0 0 0 0 0 0 0 0 0 0 0 0 0 0 127 0" result="hardAlpha"/>
      <feOffset dy="4"/>
      <feGaussianBlur stdDeviation="2"/>
      <feComposite in2="hardAlpha" operator="out"/>
      <feColorMatrix type="matrix" values="0 0 0 0 0 0 0 0 0 0 0 0 0 0 0 0 0 0 0.25 0"/>
      <feBlend mode="normal" in2="BackgroundImageFix" result="effect1_dropShadow_7874_126425"/>
      <feBlend mode="normal" in="SourceGraphic" in2="effect1_dropShadow_7874_126425" result="shape"/>
    </filter>
  </defs>
</svg>
