<svg width="44" height="44" viewBox="0 0 44 44" fill="none" xmlns="http://www.w3.org/2000/svg">
  <path d="M35.3375 12.7875L25.7125 3.1625C25.4375 2.8875 25.1625 2.75 24.75 2.75H11C9.4875 2.75 8.25 3.9875 8.25 5.5V38.5C8.25 40.0125 9.4875 41.25 11 41.25H33C34.5125 41.25 35.75 40.0125 35.75 38.5V13.75C35.75 13.3375 35.6125 13.0625 35.3375 12.7875ZM24.75 6.05L32.45 13.75H24.75V6.05ZM33 38.5H11V5.5H22V13.75C22 15.2625 23.2375 16.5 24.75 16.5H33V38.5Z" fill="black"/>
  <path d="M13.75 30.25H30.25V33H13.75V30.25ZM13.75 22H30.25V24.75H13.75V22Z" fill="black"/>
</svg>
