<svg width="176" height="93" viewBox="0 0 176 93" fill="none" xmlns="http://www.w3.org/2000/svg">
<path d="M73.1 4.18V2H62.88V16H65.48V10.64H72.24V8.44H65.48V4.18H73.1ZM79.1223 5.2C77.4023 5.2 75.7423 5.64 74.6023 6.52L75.5823 8.34C76.3823 7.68 77.6223 7.28 78.8223 7.28C80.6023 7.28 81.4823 8.14 81.4823 9.6V9.76H78.7223C75.4823 9.76 74.2823 11.16 74.2823 12.94C74.2823 14.8 75.8223 16.14 78.2623 16.14C79.8623 16.14 81.0223 15.62 81.6223 14.7V16H83.9823V9.74C83.9823 6.66 82.2023 5.2 79.1223 5.2ZM78.7823 14.32C77.5023 14.32 76.7423 13.74 76.7423 12.84C76.7423 12.06 77.2023 11.42 78.9023 11.42H81.4823V12.66C81.0623 13.76 80.0023 14.32 78.7823 14.32ZM88.4508 3.56C89.3908 3.56 90.0508 2.88 90.0508 2C90.0508 1.18 89.3708 0.56 88.4508 0.56C87.5308 0.56 86.8508 1.22 86.8508 2.06C86.8508 2.9 87.5308 3.56 88.4508 3.56ZM87.1908 16H89.6908V5.32H87.1908V16ZM95.352 6.88V5.32H92.972V16H95.472V10.82C95.472 8.64 96.672 7.52 98.572 7.52C98.752 7.52 98.932 7.54 99.152 7.58V5.2C97.372 5.2 96.072 5.76 95.352 6.88Z" fill="black"/>
<rect x="1" y="66" width="174" height="26" rx="13" stroke="#41595F" stroke-width="2"/>
<path d="M5 79C5 74.0294 9.02944 70 14 70H47L41 88H14C9.02944 88 5 83.9706 5 79Z" fill="#41595F"/>
<path d="M5 79C5 74.0294 9.02944 70 14 70H47L41 88H14C9.02944 88 5 83.9706 5 79Z" stroke="#41595F"/>
<path d="M49 70H82L76 88H43L49 70Z" fill="#41595F"/>
<path d="M96 49.75C96 56.9195 86.5547 69.6836 82.4133 74.95C81.4203 76.2051 79.5797 76.2051 78.5867 74.95C74.3727 69.6836 65 56.9195 65 49.75C65 41.0514 71.9395 34 80.5 34C89.0573 34 96 41.0514 96 49.75Z" fill="#A3B5FF"/>
</svg>
