<svg width="73" height="29" viewBox="0 0 73 29" fill="none" xmlns="http://www.w3.org/2000/svg">
<g clip-path="url(#clip0_1041_30603)">
<path fill-rule="evenodd" clip-rule="evenodd" d="M5.96167 16.3414C3.99762 16.3414 1.72071 17.2791 0.486667 18.2516L1.61643 20.6132C2.60714 19.7102 4.20619 18.9462 5.64881 18.9462C7.0219 18.9462 7.76929 19.3977 7.76929 20.318C7.76929 20.9432 7.26524 21.2557 6.32667 21.3773C2.78095 21.8288 0 22.8013 0 25.5276C0 27.6809 1.5469 29.0007 3.94548 29.0007C5.66619 29.0007 7.19571 28.0456 7.92571 26.7953V28.6533H11.1238V20.8563C11.1238 17.6438 8.88167 16.3414 5.96167 16.3414ZM4.76238 26.5001C3.85857 26.5001 3.40667 26.0659 3.40667 25.3366C3.40667 23.9821 4.91881 23.5306 7.68238 23.2354C7.69976 25.0414 6.46571 26.5001 4.76238 26.5001ZM41.2798 18.703V16.6887H38.0817V28.6533H41.5057V22.8881C41.5057 20.1444 43.1569 19.3456 44.3214 19.3456C44.7733 19.3456 45.3817 19.4845 45.7814 19.7797L46.4071 16.6192C45.8857 16.3935 45.3295 16.3414 44.8776 16.3414C43.1221 16.3414 42.0098 17.1228 41.2798 18.703ZM62.2933 16.3414C60.4857 16.3414 59.13 17.418 58.4174 18.4426C57.7569 17.1054 56.3838 16.3414 54.7152 16.3414C52.9076 16.3414 51.6562 17.3486 51.0652 18.4947V16.6887H47.7629V28.6533H51.1869V22.4887C51.1869 20.2833 52.3514 19.224 53.429 19.224C54.4024 19.224 55.3062 19.8492 55.3062 21.4815V28.6533H58.7476V22.4887C58.7476 20.2486 59.8774 19.224 61.0071 19.224C61.9109 19.224 62.8669 19.8839 62.8669 21.4641V28.6533H66.2909V20.3875C66.2909 17.6959 64.4833 16.3414 62.2933 16.3414ZM23.221 15.803V16.6887H18.024V15.4731C18.024 13.8929 18.9279 13.4414 19.71 13.4414C20.1619 13.4414 20.7529 13.5456 21.2395 13.8234L22.2998 11.4096C21.674 11.045 20.6486 10.715 19.2755 10.715C17.0855 10.715 14.6 11.948 14.6 15.8204V16.706H12.6186V19.3456H14.6V28.6533H18.024V19.3282H23.221V28.6533H26.645V19.3282H29.7562V16.6887H26.645V15.4731C26.645 13.8929 27.5488 13.4414 28.3309 13.4414C29.2 13.4414 29.8605 13.8234 29.8605 13.8234L30.9207 11.4096C30.9207 11.4096 29.8431 10.715 27.8964 10.715C25.7238 10.6977 23.221 11.9306 23.221 15.803ZM31.7898 16.6887H35.2138V28.6533H31.7898V16.6887Z" fill="#060809"/>
<path fill-rule="evenodd" clip-rule="evenodd" d="M51.744 0C42.4973 0 34.2587 6.40778 31.9297 14.6563H35.2842C37.2309 8.50898 43.853 3.12575 51.744 3.12575C61.3383 3.12575 69.6116 10.4192 69.6116 21.776C69.6116 24.3287 69.2814 26.621 68.6556 28.6527H71.9059L71.9406 28.5485C72.4795 26.4473 72.7402 24.1725 72.7402 21.776C72.7402 9.11677 63.5109 0 51.744 0Z" fill="#4A4AEB"/>
</g>
<defs>
<clipPath id="clip0_1041_30603">
<rect width="73" height="29" fill="white"/>
</clipPath>
</defs>
</svg>
