<svg width="166" height="39" viewBox="0 0 166 31" fill="none" xmlns="http://www.w3.org/2000/svg">
<g clip-path="url(#clip0_1041_30613)">
<path d="M13.6622 15.1699C13.6622 12.3837 11.5666 10.4255 8.99245 10.4255C6.41829 10.4255 4.32268 12.4167 4.32268 15.1699C4.32268 17.8901 6.41829 19.9144 8.99245 19.9144C11.5692 19.9118 13.6622 17.9561 13.6622 15.1699ZM13.699 23.4626V21.3062C12.429 22.7997 10.5385 23.7267 8.27463 23.7267C3.57068 23.7267 0 20.0769 0 15.1699C0 10.2934 3.70741 6.58008 8.3798 6.58008C10.578 6.58008 12.4317 7.50967 13.7016 8.96755V6.87724H17.9244V23.4626H13.699Z" fill="black"/>
<path d="M38.4366 19.7806C36.9589 19.7806 36.5487 19.2497 36.5487 17.8579V10.4948H39.2622V6.8781H36.5487V2.83211H32.2208V6.8781H26.6465V5.86978C26.6465 4.4754 27.1961 3.94456 28.708 3.94456H29.6572V0.726562H27.5747C24.004 0.726562 22.3212 1.85426 22.3212 5.30339V6.87556H19.918V10.4923H22.3212V23.4608H26.6492V10.4923H32.2234V18.6198C32.2234 22.0029 33.5618 23.4634 37.0641 23.4634H39.2964V19.7806H38.4366Z" fill="black"/>
<path d="M53.959 13.6771C53.6513 11.5207 51.8292 10.2279 49.702 10.2279C47.5722 10.2279 45.8212 11.4877 45.3768 13.6771H53.959ZM45.34 16.2652C45.6503 18.7187 47.4698 20.1131 49.7705 20.1131C51.59 20.1131 52.9994 19.2825 53.8223 17.9567H58.2528C57.222 21.4719 53.959 23.7273 49.6679 23.7273C44.4827 23.7273 40.8438 20.2121 40.8438 15.2035C40.8438 10.1949 44.6906 6.57812 49.7731 6.57812C54.8899 6.57812 58.5973 10.228 58.5973 15.2035C58.5973 15.5693 58.5631 15.9325 58.4947 16.2652H45.34Z" fill="black"/>
<path d="M86.1108 15.1699C86.1108 12.4827 84.0152 10.4255 81.441 10.4255C78.8669 10.4255 76.7712 12.4167 76.7712 15.1699C76.7712 17.8901 78.8669 19.9144 81.441 19.9144C84.0152 19.9118 86.1108 17.8571 86.1108 15.1699ZM72.5117 6.87724H76.7344V9.03358C78.0044 7.50712 79.8923 6.58008 82.1588 6.58008C86.7944 6.58008 90.4335 10.2629 90.4335 15.1369C90.4335 20.0134 86.726 23.7292 82.0563 23.7292C79.8923 23.7292 78.107 22.8987 76.8712 21.5069V30.2872H72.5117V6.87724Z" fill="black"/>
<path d="M105.654 15.1699C105.654 12.3837 103.561 10.4255 100.984 10.4255C98.4104 10.4255 96.3148 12.4167 96.3148 15.1699C96.3148 17.8901 98.4104 19.9144 100.984 19.9144C103.561 19.9118 105.654 17.9561 105.654 15.1699ZM105.691 23.4626V21.3062C104.421 22.7997 102.53 23.7267 100.266 23.7267C95.5628 23.7267 91.9922 20.0769 91.9922 15.1699C91.9922 10.2934 95.6996 6.58008 100.369 6.58008C102.567 6.58008 104.421 7.50967 105.691 8.96755V6.87724H109.914V23.4626H105.691Z" fill="black"/>
<path d="M64.9024 8.50275C64.9024 8.50275 65.9779 6.58008 68.6098 6.58008C69.7352 6.58008 70.4636 6.95343 70.4636 6.95343V11.1849C70.4636 11.1849 68.8754 10.2375 67.4161 10.428C65.9568 10.6185 65.0339 11.9138 65.0392 13.646V23.4651H60.6797V6.87978H64.9024V8.50275Z" fill="black"/>
<path d="M129.64 6.87695L118.978 30.2335H114.482L118.668 21.2043L111.59 6.87695H116.686L120.827 16.4497L125.076 6.87695H129.64Z" fill="black"/>
<path d="M163.675 6.50128L153.105 0.608807C150.002 -1.12083 146.124 1.04059 146.124 4.50241V5.1069C146.124 5.65297 146.426 6.1584 146.915 6.43016L148.911 7.54262C149.497 7.87027 150.228 7.46135 150.228 6.80861V5.30501C150.228 4.55321 151.07 4.08334 151.743 4.45924L160.898 9.56435C161.572 9.94025 161.572 10.88 160.898 11.2534L151.743 16.3585C151.07 16.7344 150.228 16.2645 150.228 15.5127V14.7126C150.228 11.2508 146.35 9.08686 143.245 10.819L132.675 16.7115C129.572 18.4412 129.572 22.7691 132.675 24.4987L143.245 30.3912C146.347 32.1208 150.228 29.9594 150.228 26.4976V25.8931C150.228 25.347 149.926 24.8441 149.437 24.5698L147.441 23.4548C146.855 23.1272 146.124 23.5361 146.124 24.1889V25.6925C146.124 26.4443 145.283 26.9141 144.609 26.5382L135.454 21.4331C134.781 21.0572 134.781 20.1175 135.454 19.7416L144.609 14.6364C145.283 14.2605 146.124 14.7304 146.124 15.4822V16.2823C146.124 19.7441 150.002 21.9081 153.105 20.1759L163.675 14.2834C166.778 12.5588 166.778 8.23092 163.675 6.50128Z" fill="black"/>
</g>
<defs>
<clipPath id="clip0_1041_30613">
<rect width="166" height="31" fill="white"/>
</clipPath>
</defs>
</svg>
