<svg width="93" height="32" viewBox="0 0 93 26" fill="none" xmlns="http://www.w3.org/2000/svg">
<path d="M85.5628 18.8853C87.4948 18.8853 88.6576 18.196 88.6576 16.7279V16.6707C88.6576 15.3356 87.6648 14.5133 85.4203 14.5133H80.366V18.8782L85.5628 18.8853ZM84.3887 10.8902C86.3207 10.8902 87.5408 10.2676 87.5408 8.78991V8.73267C87.5408 7.42798 86.5187 6.68788 84.6737 6.68788H80.3541V10.8764L84.3887 10.8902ZM76.097 2.84895H85.3326C87.6051 2.84895 89.3946 3.47392 90.53 4.60853C91.434 5.49718 91.9271 6.72134 91.8919 7.98845V8.04326C91.8919 10.2878 90.6999 11.5377 89.2801 12.3325C91.5771 13.2127 92.9992 14.5478 92.9992 17.2175V17.2634C92.9992 20.8979 90.0469 22.7148 85.5603 22.7148H76.0947L76.097 2.84895ZM52.9545 2.84895H56.9891L66.3028 15.0875V2.8418H70.6176V22.7172H66.8955L57.2694 10.0815V22.7172H52.9521L52.9545 2.84895ZM41.2008 18.8919C43.1328 18.8919 44.2956 18.2026 44.2956 16.735V16.6772C44.2956 15.3426 43.3034 14.5198 41.0583 14.5198H36.004V18.8853L41.2008 18.8919ZM40.0362 10.883C41.9682 10.883 43.1882 10.2605 43.1882 8.78336V8.72611C43.1882 7.42079 42.1656 6.68069 40.3212 6.68069H36.0015V10.8764L40.0362 10.883ZM31.7447 2.8418H40.9736C43.2455 2.8418 45.0356 3.4667 46.1704 4.60202C47.0743 5.49003 47.5681 6.71479 47.5329 7.98133V8.03671C47.5329 10.2812 46.3403 11.5311 44.9205 12.326C47.2181 13.2062 48.6403 14.5407 48.6403 17.2103V17.2634C48.6403 20.8979 45.688 22.7148 41.2008 22.7148H31.7422L31.7447 2.8418Z" fill="#F0B90B"/>
<path d="M2.42773 12.6825L2.44111 17.5885L6.60972 20.0415V22.9138L0.00148721 19.038V11.2479L2.42773 12.6825ZM2.42773 7.77654V10.6354L0 9.19928V6.34042L2.42773 4.9043L4.86735 6.34042L2.42773 7.77654ZM8.35061 6.34042L10.7783 4.9043L13.218 6.34042L10.7783 7.77654L8.35061 6.34042Z" fill="#F0B90B"/>
<path d="M4.18359 16.5717V13.6994L6.61132 15.1355V17.9944L4.18359 16.5717ZM8.35221 21.0703L10.7799 22.5064L13.2196 21.0703V23.9292L10.7799 25.3653L8.35221 23.9292V21.0703ZM16.7013 6.34042L19.1291 4.9043L21.5687 6.34042V9.19928L19.1291 10.6354V7.77654L16.7013 6.34042ZM19.1291 17.5885L19.1424 12.6825L21.5702 11.2464V19.0366L14.9619 22.9123V20.0401L19.1291 17.5885Z" fill="#F0B90B"/>
<path d="M17.3887 16.5715L14.9609 17.9942V15.1353L17.3887 13.6992V16.5715Z" fill="#F0B90B"/>
<path d="M17.3882 8.79363L17.4015 11.6659L13.221 14.1189V19.0368L10.7933 20.4595L8.36559 19.0368V14.1189L4.18508 11.6659V8.79363L6.62321 7.35751L10.7784 9.8224L14.959 7.35751L17.3986 8.79363H17.3882ZM4.18359 3.88912L10.7799 0L17.3882 3.88912L14.9604 5.32524L10.7799 2.86035L6.61132 5.32524L4.18359 3.88912Z" fill="#F0B90B"/>
</svg>
