<svg width="81" height="24" viewBox="0 0 81 17" fill="none" xmlns="http://www.w3.org/2000/svg">
<path d="M16.6652 10.5014C15.5412 15.0341 10.9553 17.7973 6.42241 16.6732C1.88968 15.5493 -0.873461 10.9633 0.250592 6.43059C1.37464 1.89767 5.96046 -0.86566 10.4932 0.258392C10.5008 0.260294 10.5086 0.262197 10.5162 0.26429C15.037 1.39881 17.7874 5.9774 16.6652 10.5014Z" fill="#F7931A"/>
<path d="M10.3798 7.23394C10.1155 8.29102 8.50364 7.74916 7.98043 7.61978L8.44276 5.77008C8.95798 5.89698 10.6441 6.13994 10.3718 7.23394H10.3798ZM10.0917 10.2229C9.80635 11.3747 7.86684 10.7515 7.23784 10.5952L7.74774 8.55262C8.37674 8.71111 10.3903 9.02028 10.0917 10.2229ZM12.2057 7.24992C12.3722 6.12415 11.516 5.51913 10.356 5.11749L10.7365 3.59275L9.79855 3.36026L9.42868 4.84542C9.18553 4.78473 8.93458 4.72651 8.6861 4.67095L9.05596 3.17L8.12845 2.9375L7.74793 4.46224L7.15603 4.3302L5.87445 4.01037L5.62863 5.00143C5.62863 5.00143 6.31566 5.15992 6.30253 5.17057C6.5649 5.20235 6.7563 5.43541 6.73594 5.69911L6.30253 7.43523C6.33506 7.44265 6.36703 7.45311 6.39766 7.467L6.29987 7.44056L5.69465 9.87435C5.63795 10.0524 5.44769 10.1504 5.26942 10.0937H5.26923C5.26923 10.1069 4.59267 9.92725 4.59267 9.92725L4.13281 10.9843L5.34039 11.283L6.00097 11.4548L5.61779 12.9954L6.5453 13.2279L6.92582 11.7031C7.17582 11.7718 7.42183 11.8352 7.66307 11.8934L7.28788 13.4235L8.2154 13.6533L8.59858 12.1154C10.184 12.4143 11.3705 12.295 11.8726 10.8629C12.2769 9.71073 11.8514 9.04749 11.0191 8.61408C11.6267 8.47405 12.0761 8.08554 12.2055 7.25049L12.2057 7.24992Z" fill="white"/>
<path d="M22.0159 14.2693C22.5098 14.2708 22.9957 14.145 23.4271 13.9045C23.8709 13.6678 24.2614 13.3419 24.5739 12.9479C24.8997 12.5312 25.1558 12.0645 25.3323 11.5659C25.5186 11.0506 25.6131 10.5071 25.6124 9.95931C25.6421 9.40357 25.5233 8.84991 25.2688 8.35524C25.0416 7.97206 24.6187 7.77666 24.0056 7.77666C23.7385 7.78579 23.4729 7.82213 23.2128 7.88492C22.89 7.95703 22.5913 8.1119 22.346 8.33412L20.9455 14.1899L21.1702 14.2322C21.237 14.2485 21.3053 14.2592 21.3736 14.2639C21.4613 14.2748 21.5496 14.2792 21.6379 14.2771L22.0157 14.2691L22.0159 14.2693ZM24.7985 5.11569C25.4101 5.10161 26.0174 5.22642 26.5741 5.48042C27.0574 5.71082 27.4821 6.04777 27.8162 6.46615C28.1582 6.8988 28.4098 7.39557 28.5561 7.92735C28.7163 8.51372 28.7952 9.11913 28.7912 9.72701C28.7905 11.6182 28.0574 13.4354 26.7459 14.798C26.1101 15.4502 25.3536 15.9723 24.5184 16.3359C23.6426 16.7213 22.6953 16.9179 21.7385 16.912H21.062C20.6942 16.9 20.327 16.8684 19.9626 16.8168C19.5176 16.7523 19.0766 16.6642 18.6415 16.5526C18.1852 16.4443 17.7423 16.2866 17.3203 16.0822L21.033 0.52854L24.3494 0L23.0283 5.52018C23.3034 5.39575 23.589 5.29587 23.8818 5.22167C24.1835 5.14823 24.4935 5.1117 24.804 5.11341L24.7986 5.11607L24.7985 5.11569Z" fill="#4D4D4D"/>
<path d="M33.7624 3.98243C33.3301 3.98662 32.9087 3.84811 32.5626 3.58879C32.1958 3.29864 31.9975 2.84487 32.034 2.37855C32.0325 2.08764 32.0945 1.79978 32.2163 1.53551C32.3329 1.27809 32.4968 1.04502 32.7 0.84848C32.903 0.655557 33.1381 0.499925 33.395 0.388623C33.6621 0.273897 33.95 0.215487 34.2405 0.216819C34.6697 0.215487 35.0871 0.354757 35.4296 0.613129C35.7957 0.903846 35.9937 1.35723 35.9581 1.82337C35.9604 2.11504 35.8992 2.40366 35.7785 2.66888C35.6619 2.92497 35.4989 3.1569 35.2976 3.35324C35.0951 3.54693 34.86 3.70256 34.6025 3.8131C34.3354 3.92783 34.0476 3.98548 33.757 3.98224H33.7624V3.98243ZM32.2218 16.6111H29.0508L31.7302 5.35382H34.9197L32.2216 16.6111H32.2218Z" fill="#4D4D4D"/>
<path d="M37.6887 2.54967L41.0049 2.03711L40.1805 5.35352H43.7323L43.0924 7.96426H39.57L38.6293 11.891C38.5479 12.1916 38.4975 12.4999 38.4786 12.8109C38.4592 13.0624 38.4965 13.3151 38.5869 13.5505C38.6754 13.7617 38.8392 13.9323 39.0468 14.0288C39.3455 14.1608 39.6716 14.2209 39.9981 14.2032C40.3325 14.2044 40.6663 14.1715 40.9943 14.1054C41.3244 14.041 41.6495 13.9527 41.9667 13.8412L42.2045 16.2828C41.7492 16.4464 41.284 16.5817 40.8118 16.6871C40.2283 16.8109 39.6326 16.8686 39.0361 16.8589C38.0504 16.8589 37.2893 16.7109 36.745 16.4201C36.2359 16.1612 35.828 15.7388 35.5877 15.2204C35.3531 14.6703 35.2507 14.0729 35.2891 13.4763C35.3247 12.7763 35.4246 12.0811 35.5877 11.3992L37.6885 2.53901V2.54967H37.6887Z" fill="#4D4D4D"/>
<path d="M43.6136 12.1166C43.6069 11.1828 43.766 10.2547 44.0839 9.37646C44.3821 8.54598 44.84 7.78209 45.4315 7.12779C46.028 6.47881 46.7533 5.96226 47.5613 5.61066C48.4426 5.23014 49.3944 5.04007 50.3543 5.05339C50.9338 5.04654 51.5122 5.10761 52.0773 5.23547C52.5524 5.3481 53.0145 5.50925 53.4567 5.71644L52.3549 8.19248C52.0695 8.07623 51.7734 7.97615 51.4669 7.88331C51.1014 7.78152 50.723 7.73433 50.3438 7.74328C49.3857 7.70865 48.4641 8.11371 47.8414 8.84259C47.223 9.56996 46.9127 10.5477 46.9112 11.7758C46.8821 12.3987 47.0464 13.0152 47.3815 13.5412C47.6949 13.9904 48.2731 14.2148 49.1149 14.2148C49.5185 14.2151 49.9207 14.1718 50.3147 14.0854C50.6661 14.0104 51.0105 13.9035 51.3427 13.7656L51.5779 16.3131C51.1456 16.4767 50.7046 16.6162 50.2567 16.7304C49.688 16.8586 49.1062 16.9191 48.5232 16.9104C47.7495 16.9328 46.9793 16.8025 46.2559 16.527C45.681 16.2952 45.1633 15.941 44.7392 15.4887C44.3368 15.0504 44.0394 14.526 43.8699 13.9558C43.6905 13.3557 43.6014 12.7323 43.6056 12.1061L43.6136 12.1168V12.1166Z" fill="#4D4D4D"/>
<path d="M59.2641 7.75082C58.817 7.74454 58.38 7.88667 58.0221 8.15512C57.6593 8.43595 57.3548 8.78545 57.1263 9.18309C56.875 9.60642 56.6863 10.0642 56.5662 10.5417C56.45 10.9995 56.3895 11.4694 56.3866 11.9419C56.3581 12.5185 56.4755 13.0927 56.7276 13.612C56.9576 14.0109 57.3697 14.2118 57.9696 14.2118C58.4174 14.2194 58.855 14.0762 59.2116 13.8049C59.5752 13.5241 59.8802 13.1745 60.11 12.7773C60.3577 12.3534 60.5419 11.8958 60.6572 11.4186C60.7721 10.9599 60.8326 10.4888 60.8366 10.0155C60.8663 9.43918 60.7485 8.86441 60.4956 8.34538C60.2658 7.94907 59.8509 7.74816 59.2536 7.74816L59.2643 7.75082H59.2641ZM57.6787 16.9097C57.0053 16.9253 56.3358 16.8085 55.7074 16.5661C55.1787 16.3576 54.7064 16.0284 54.328 15.6042C53.9559 15.1768 53.6756 14.6778 53.5036 14.1376C53.3168 13.532 53.2274 12.9004 53.2393 12.2668C53.2414 11.3943 53.3813 10.5273 53.6545 9.69832C53.9195 8.86403 54.3333 8.08454 54.875 7.39675C55.4191 6.70915 56.0959 6.13761 56.8647 5.71619C57.6924 5.27117 58.6204 5.04629 59.5601 5.06341C60.2295 5.05123 60.8954 5.16805 61.521 5.40702C62.0503 5.61212 62.5251 5.93689 62.9081 6.35565C63.278 6.78412 63.5577 7.28297 63.7301 7.82217C63.9182 8.42834 64.0075 9.06095 63.9943 9.69565C63.9917 10.5674 63.8552 11.4339 63.59 12.2642C63.3296 13.0996 62.9234 13.8821 62.3902 14.5764C61.8541 15.2668 61.18 15.8384 60.411 16.2545C59.5706 16.7018 58.6305 16.9274 57.6787 16.9097Z" fill="#4D4D4D"/>
<path d="M69.0017 3.98249C68.5702 3.98705 68.1491 3.84854 67.8048 3.58884C67.4378 3.29869 67.2395 2.84492 67.2762 2.3786C67.2747 2.08769 67.3367 1.79983 67.4583 1.53556C67.5717 1.27947 67.731 1.04678 67.9286 0.848534C68.133 0.656182 68.3689 0.500549 68.6263 0.388677C68.8927 0.274141 69.1796 0.215731 69.4695 0.216873C69.9018 0.213067 70.324 0.352718 70.6693 0.613183C71.0354 0.903899 71.2332 1.35729 71.1979 1.82342C71.1984 2.11547 71.1353 2.40409 71.0125 2.66893C70.898 2.92521 70.7355 3.15752 70.5344 3.3533C70.332 3.54698 70.0968 3.70261 69.8394 3.81315C69.5746 3.92674 69.2896 3.98439 69.0015 3.9823L69.0017 3.98249ZM67.464 16.6111H64.293L66.9673 5.35388H70.1594L67.464 16.6111Z" fill="#4D4D4D"/>
<path d="M72.4401 5.86562C72.6806 5.79693 72.9475 5.71227 73.2329 5.61999C73.5183 5.52753 73.8513 5.44286 74.2183 5.35572C74.6211 5.2703 75.0277 5.20599 75.4367 5.1628C75.9449 5.10915 76.4557 5.08346 76.9668 5.08613C78.6369 5.08613 79.7889 5.57129 80.4232 6.54218C80.803 7.12361 80.9951 7.8329 80.9997 8.67023V8.73054C80.9969 9.27507 80.9156 9.87305 80.7562 10.5243L79.3001 16.602H76.1186L77.5322 10.6508C77.6167 10.2812 77.6856 9.92176 77.7358 9.57035C77.7908 9.26612 77.7908 8.95467 77.7358 8.65082C77.6833 8.39683 77.5429 8.16966 77.3395 8.0087C77.0575 7.82377 76.7219 7.73739 76.3855 7.76288C75.962 7.76364 75.5396 7.80702 75.1251 7.89245L73.048 16.6126H69.8477L72.4401 5.86562Z" fill="#4D4D4D"/>
</svg>
