<svg width="23" height="19" viewBox="0 0 23 19" fill="none" xmlns="http://www.w3.org/2000/svg">
<path d="M20.4375 3.09208H16.9844L16.1617 0.792715C16.1049 0.635376 16.0007 0.499373 15.8635 0.403286C15.7262 0.307198 15.5626 0.255712 15.3949 0.25586H7.60508C7.2623 0.25586 6.95508 0.471108 6.84082 0.792715L6.01562 3.09208H2.5625C1.44023 3.09208 0.53125 3.99865 0.53125 5.11794V16.6654C0.53125 17.7847 1.44023 18.6913 2.5625 18.6913H20.4375C21.5598 18.6913 22.4688 17.7847 22.4688 16.6654V5.11794C22.4688 3.99865 21.5598 3.09208 20.4375 3.09208ZM20.6406 16.6654C20.6406 16.7768 20.5492 16.868 20.4375 16.868H2.5625C2.45078 16.868 2.35938 16.7768 2.35938 16.6654V5.11794C2.35938 5.00652 2.45078 4.91536 2.5625 4.91536H7.30293L7.73711 3.7049L8.31855 2.07914H14.6789L15.2604 3.7049L15.6945 4.91536H20.4375C20.5492 4.91536 20.6406 5.00652 20.6406 5.11794V16.6654ZM11.5 6.53605C9.25547 6.53605 7.4375 8.34921 7.4375 10.5878C7.4375 12.8264 9.25547 14.6395 11.5 14.6395C13.7445 14.6395 15.5625 12.8264 15.5625 10.5878C15.5625 8.34921 13.7445 6.53605 11.5 6.53605ZM11.5 13.0188C10.1543 13.0188 9.0625 11.9299 9.0625 10.5878C9.0625 9.24565 10.1543 8.15675 11.5 8.15675C12.8457 8.15675 13.9375 9.24565 13.9375 10.5878C13.9375 11.9299 12.8457 13.0188 11.5 13.0188Z" fill="#999999"/>
</svg>
