<svg width="18" height="18" viewBox="0 0 18 18" fill="none" xmlns="http://www.w3.org/2000/svg">
<path d="M16.3125 0C17.2445 0 18 0.755508 18 1.6875V11.8125C18 12.7445 17.2445 13.5 16.3125 13.5H6.1875C5.25551 13.5 4.5 12.7445 4.5 11.8125V1.6875C4.5 0.755508 5.25551 0 6.1875 0H16.3125ZM6.1875 14.625C4.63669 14.625 3.375 13.3633 3.375 11.8125V4.5H1.6875C0.755508 4.5 0 5.25551 0 6.1875V16.3125C0 17.2445 0.755508 18 1.6875 18H11.8125C12.7445 18 13.5 17.2445 13.5 16.3125V14.625H6.1875Z" fill="black"/>
</svg>
