<svg width="174" height="122" viewBox="0 0 174 122" fill="none" xmlns="http://www.w3.org/2000/svg">
<path d="M19.4531 39.0243L138.175 6.17188" stroke="#E2E2E2" stroke-opacity="0.47" stroke-width="12" stroke-linecap="round"/>
<path d="M39.9219 115.877L157.474 82.4375" stroke="#E2E2E2" stroke-opacity="0.47" stroke-width="12" stroke-linecap="round"/>
<path d="M6 84.7835L168 37.8516" stroke="#E2E2E2" stroke-opacity="0.47" stroke-width="12" stroke-linecap="round"/>
<path d="M42.727 18.9325C45.4953 19.0691 46.6609 22.9136 47.0044 26.3122L47.2105 27.5386C47.2105 27.5386 37.8268 28.5782 34.748 27.5386C31.6692 26.4989 31.6966 19.5449 34.748 18.9326C37.7994 18.3202 39.9586 18.7959 42.727 18.9325Z" fill="#F2F2F2"/>
<path d="M64.3373 90.9907C60.5238 90.5822 58.8212 87.2978 58.2084 86.0684C57.6488 84.9456 51.6052 49.0223 50.186 40.5831L135.422 40.5831L126.844 83.6123C125.531 87.9095 124.178 89.3744 120.715 90.3752L64.3373 90.9907Z" fill="#F2F2F2"/>
<path d="M67.3398 100.631C67.3398 100.631 68.5654 96.945 71.0166 96.3281H121.572" stroke="black" stroke-width="2"/>
<path d="M31.7969 61.293H44.0528" stroke="black" stroke-width="2"/>
<path d="M39.1484 72.9727H47.7276" stroke="black" stroke-width="2"/>
<path d="M35.4727 82.8086H50.1798" stroke="black" stroke-width="2"/>
<line y1="-1" x2="36.9631" y2="-1" transform="matrix(0.0663145 0.997799 -0.997771 0.0667241 71.0156 45.9297)" stroke="black" stroke-width="2"/>
<line x1="92.0742" y1="82.8867" x2="92.0742" y2="45.9232" stroke="black" stroke-width="2"/>
<line y1="-1" x2="36.9631" y2="-1" transform="matrix(-0.0663145 0.997799 0.997771 0.0667241 113.91 45.9297)" stroke="black" stroke-width="2"/>
<line x1="57.5312" y1="57.2188" x2="124.939" y2="57.2188" stroke="black" stroke-width="2"/>
<line x1="61.207" y1="71.9727" x2="121.261" y2="71.9727" stroke="black" stroke-width="2"/>
<path d="M55.0665 40.4154L134.731 40.4155L126.153 83.4448C124.84 87.7419 123.487 89.2068 120.024 90.2076L63.6465 90.8231C59.8331 90.4146 58.1304 87.1302 57.5177 85.9008C56.9576 84.7773 48.7218 35.8994 47.3071 27.4871M47.3071 27.4871C47.1737 26.6942 47.101 26.2607 47.101 26.2607C46.7575 22.8621 45.5919 19.0176 42.8235 18.881C40.0552 18.7444 37.8959 18.2687 34.8446 18.8811C31.7932 19.4934 31.7657 26.4474 34.8446 27.4871C37.9234 28.5268 47.3071 27.4871 47.3071 27.4871Z" stroke="black" stroke-width="2"/>
<path d="M67.5645 109.854C67.5645 112.699 65.2657 115.001 62.4366 115.001C59.6074 115.001 57.3086 112.699 57.3086 109.854C57.3086 107.008 59.6074 104.707 62.4366 104.707C65.2657 104.707 67.5645 107.008 67.5645 109.854Z" fill="#F2F2F2" stroke="black" stroke-width="2"/>
<path d="M120.264 109.854C120.264 112.699 117.965 115.001 115.136 115.001C112.307 115.001 110.008 112.699 110.008 109.854C110.008 107.008 112.307 104.707 115.136 104.707C117.965 104.707 120.264 107.008 120.264 109.854Z" fill="#F2F2F2" stroke="black" stroke-width="2"/>
</svg>
