<svg width="169" height="119" viewBox="0 0 169 119" fill="none" xmlns="http://www.w3.org/2000/svg">
<path d="M19 38.0664L134 6.06641" stroke="#E2E2E2" stroke-opacity="0.47" stroke-width="12" stroke-linecap="round"/>
<path d="M39 112.066L153 80.0664" stroke="#E2E2E2" stroke-opacity="0.47" stroke-width="12" stroke-linecap="round"/>
<path d="M6 82.0664L163 37.0664" stroke="#E2E2E2" stroke-opacity="0.47" stroke-width="12" stroke-linecap="round"/>
<path d="M41.5929 18.5258C44.2757 18.6578 45.4054 22.3721 45.7383 25.6557L45.938 26.8405C45.938 26.8405 36.844 27.845 33.8602 26.8405C30.8763 25.8361 30.903 19.1175 33.8602 18.5259C36.8173 17.9343 38.91 18.3938 41.5929 18.5258Z" fill="#F2F2F2"/>
<path d="M62.535 88.1436C58.8393 87.7489 57.1892 84.5757 56.5953 83.3879C56.0529 82.3031 50.1959 47.5961 48.8205 39.4426L131.425 39.4426L123.113 81.015C121.84 85.1667 120.528 86.582 117.173 87.5489L62.535 88.1436Z" fill="#F2F2F2"/>
<path d="M65.4453 97.4619C65.4453 97.4619 66.6331 93.9007 69.0086 93.3047H118.004" stroke="black" stroke-width="2"/>
<path d="M31 59.4531H42.8777" stroke="black" stroke-width="2"/>
<path d="M38.125 70.7383H46.4394" stroke="black" stroke-width="2"/>
<path d="M34.5625 80.2383H48.8157" stroke="black" stroke-width="2"/>
<line x1="70.0056" y1="44.5429" x2="72.3811" y2="80.1758" stroke="black" stroke-width="2"/>
<line x1="89.3867" y1="80.3164" x2="89.3867" y2="44.6044" stroke="black" stroke-width="2"/>
<line y1="-1" x2="35.712" y2="-1" transform="matrix(-0.066519 0.997785 0.997785 0.066519 110.578 44.6094)" stroke="black" stroke-width="2"/>
<line x1="55.9414" y1="55.4844" x2="121.268" y2="55.4844" stroke="black" stroke-width="2"/>
<line x1="59.5039" y1="69.7383" x2="117.704" y2="69.7383" stroke="black" stroke-width="2"/>
<path d="M53.5538 39.2827L130.759 39.2828L122.447 80.8552C121.174 85.0069 119.862 86.4221 116.507 87.3891L61.869 87.9838C58.1733 87.589 56.5232 84.4159 55.9294 83.2281C55.3866 82.1426 47.405 34.9196 46.0339 26.7921M46.0339 26.7921C45.9047 26.026 45.8342 25.6073 45.8342 25.6073C45.5013 22.3238 44.3717 18.6094 41.6888 18.4774C39.0059 18.3455 36.9133 17.8859 33.9561 18.4775C30.9989 19.0691 30.9723 25.7877 33.9561 26.7921C36.9399 27.7966 46.0339 26.7921 46.0339 26.7921Z" stroke="black" stroke-width="2"/>
<circle cx="60.6927" cy="106.369" r="4.93883" fill="#F2F2F2" stroke="black" stroke-width="2"/>
<circle cx="111.767" cy="106.369" r="4.93883" fill="#F2F2F2" stroke="black" stroke-width="2"/>
</svg>
