<svg width="289" height="199" viewBox="0 0 289 199" fill="none" xmlns="http://www.w3.org/2000/svg">
<path d="M29 62L232 6" stroke="#E2E2E2" stroke-opacity="0.47" stroke-width="12" stroke-linecap="round"/>
<path d="M64 193L265 136" stroke="#E2E2E2" stroke-opacity="0.47" stroke-width="12" stroke-linecap="round"/>
<path d="M6 140L283 60" stroke="#E2E2E2" stroke-opacity="0.47" stroke-width="12" stroke-linecap="round"/>
<path d="M68.7996 27.7474C73.5331 27.9803 75.5262 34.5336 76.1135 40.3268C76.1135 40.3268 76.2379 41.0656 76.4659 42.4173C76.4659 42.4173 60.421 44.1895 55.1566 42.4173C49.8921 40.6451 49.9391 28.7913 55.1566 27.7475C60.374 26.7037 64.0661 27.5145 68.7996 27.7474Z" fill="#C5CDDD"/>
<path d="M105.747 150.577C99.2266 149.881 96.3153 144.283 95.2675 142.187C94.3105 140.273 83.9768 79.0383 81.5501 64.6528L227.293 64.6529L212.626 138C210.381 145.325 208.067 147.822 202.146 149.528L105.747 150.577Z" fill="#C5CDDD"/>
<path d="M110.883 167.014C110.883 167.014 112.978 160.731 117.17 159.68H203.614" stroke="black" stroke-width="2"/>
<path d="M50.1094 99.957H71.0655" stroke="black" stroke-width="2"/>
<path d="M62.6797 119.867H77.349" stroke="black" stroke-width="2"/>
<path d="M56.3945 136.629H81.5419" stroke="black" stroke-width="2"/>
<line x1="118.166" y1="73.6991" x2="122.357" y2="136.567" stroke="black" stroke-width="2"/>
<line x1="153.887" y1="136.766" x2="153.887" y2="73.7577" stroke="black" stroke-width="2"/>
<line y1="-1" x2="63.0079" y2="-1" transform="matrix(-0.066519 0.997785 0.997785 0.066519 190.512 73.7656)" stroke="black" stroke-width="2"/>
<line x1="94.1133" y1="93.7188" x2="209.372" y2="93.7188" stroke="black" stroke-width="2"/>
<line x1="100.398" y1="118.867" x2="203.083" y2="118.867" stroke="black" stroke-width="2"/>
<path d="M89.9001 64.3689L226.116 64.369L211.45 137.717C209.205 145.041 206.89 147.538 200.97 149.244L104.571 150.294C98.0503 149.597 95.1391 143.999 94.0913 141.903C93.1337 139.988 79.0514 56.671 76.6325 42.3314M76.6325 42.3314C76.4045 40.9797 76.2801 40.241 76.2801 40.241C75.6928 34.4477 73.6997 27.8944 68.9662 27.6615C64.2327 27.4286 60.5406 26.6178 55.3231 27.6616C50.1057 28.7054 50.0587 40.5592 55.3231 42.3314C60.5876 44.1036 76.6325 42.3314 76.6325 42.3314Z" stroke="black" stroke-width="2"/>
<circle cx="102.498" cy="182.732" r="9.47806" fill="#C5CDDD" stroke="black" stroke-width="2"/>
<circle cx="192.611" cy="182.732" r="9.47806" fill="#C5CDDD" stroke="black" stroke-width="2"/>
</svg>
