<svg width="121" height="20" viewBox="0 0 121 30" fill="none" xmlns="http://www.w3.org/2000/svg">
<g clip-path="url(#clip0_1049_44139)">
<path d="M34.3076 17.2616C34.3058 17.3659 34.2624 17.4653 34.1868 17.538C34.1112 17.6107 34.0096 17.6508 33.9042 17.6496H26.4762C26.6666 19.4678 28.0447 21.1308 29.9941 21.1308C31.3274 21.1308 32.3133 20.6319 33.0528 19.5787C33.0872 19.5234 33.1348 19.4772 33.1915 19.4444C33.2481 19.4115 33.3121 19.3929 33.3777 19.3902C33.4266 19.3888 33.4753 19.3974 33.5208 19.4153C33.5663 19.4332 33.6076 19.4601 33.6422 19.4943C33.6768 19.5286 33.704 19.5694 33.7221 19.6145C33.7402 19.6595 33.7488 19.7077 33.7474 19.7561C33.7476 19.823 33.7282 19.8885 33.6914 19.9445C32.9407 21.2306 31.4506 21.8625 29.9941 21.8625C27.4957 21.8625 25.7031 19.6452 25.7031 17.2838C25.7031 14.9224 27.4845 12.7051 29.9941 12.7051C32.5038 12.7051 34.2964 14.9002 34.3076 17.2616ZM33.5121 16.9179C33.3553 15.0998 31.9436 13.4368 29.9941 13.4368C28.0447 13.4368 26.6666 15.0998 26.4762 16.9179H33.5121Z" fill="#3B3B3B"/>
<path d="M43.3358 12.8823C43.433 12.8851 43.5254 12.9245 43.5941 12.9925C43.6629 13.0606 43.7027 13.152 43.7055 13.2482C43.7069 13.2966 43.6983 13.3448 43.6802 13.3898C43.6621 13.4348 43.635 13.4757 43.6003 13.5099C43.5657 13.5442 43.5244 13.5711 43.4789 13.589C43.4334 13.6069 43.3847 13.6154 43.3358 13.614H41.3416V21.3634C41.3407 21.4602 41.3014 21.5528 41.2323 21.6212C41.1631 21.6896 41.0696 21.7284 40.9718 21.7293C40.8747 21.7265 40.7823 21.6871 40.7135 21.6191C40.6448 21.551 40.6049 21.4596 40.6021 21.3634V13.614H38.6863C38.6373 13.6154 38.5886 13.6069 38.5432 13.589C38.4977 13.5711 38.4564 13.5442 38.4217 13.5099C38.3871 13.4757 38.3599 13.4348 38.3419 13.3898C38.3238 13.3448 38.3152 13.2966 38.3166 13.2482C38.3174 13.1514 38.3567 13.0588 38.4258 12.9904C38.495 12.922 38.5885 12.8832 38.6863 12.8823H40.6021V10.0552C40.6023 9.96157 40.6362 9.87103 40.6979 9.7999C40.7595 9.72878 40.8447 9.68173 40.9382 9.66722C40.9905 9.66035 41.0437 9.66473 41.0941 9.68006C41.1445 9.69538 41.191 9.7213 41.2303 9.75604C41.2697 9.79077 41.301 9.83351 41.3221 9.88132C41.3432 9.92913 41.3537 9.9809 41.3528 10.0331V12.8823H43.3358Z" fill="#3B3B3B"/>
<path d="M55.4929 16.6294V21.319C55.4901 21.4152 55.4502 21.5066 55.3815 21.5746C55.3127 21.6426 55.2203 21.6821 55.1232 21.6849C55.0742 21.6863 55.0255 21.6777 54.98 21.6598C54.9346 21.6419 54.8932 21.615 54.8586 21.5808C54.824 21.5465 54.7968 21.5057 54.7787 21.4606C54.7607 21.4156 54.7521 21.3674 54.7534 21.319V16.6294C54.7534 15.0441 53.8459 13.4698 52.0646 13.4698C49.779 13.4698 48.7931 15.4432 48.9275 17.472C48.9275 17.5274 48.9499 17.7603 48.9499 17.7935V21.3079C48.9497 21.4016 48.9158 21.4922 48.8542 21.5633C48.7926 21.6344 48.7073 21.6814 48.6138 21.696C48.5615 21.7028 48.5084 21.6985 48.458 21.6831C48.4076 21.6678 48.3611 21.6419 48.3217 21.6071C48.2824 21.5724 48.2511 21.5297 48.2299 21.4819C48.2088 21.434 48.1983 21.3823 48.1993 21.3301V5.90882C48.2002 5.81206 48.2394 5.71951 48.3085 5.65108C48.3777 5.58266 48.4712 5.54384 48.569 5.54297C48.6662 5.54576 48.7586 5.5852 48.8273 5.65321C48.896 5.72123 48.9359 5.81267 48.9387 5.90882V14.6228C49.5773 13.492 50.7201 12.727 52.0534 12.727C54.2493 12.727 55.4929 14.6228 55.4929 16.6294Z" fill="#3B3B3B"/>
<path d="M68.8349 17.2616C68.8331 17.3659 68.7897 17.4653 68.7141 17.538C68.6386 17.6107 68.537 17.6508 68.4316 17.6496H61.0035C61.194 19.4678 62.572 21.1308 64.5215 21.1308C65.8547 21.1308 66.8407 20.6319 67.5801 19.5787C67.6145 19.5234 67.6622 19.4772 67.7188 19.4444C67.7755 19.4115 67.8394 19.3929 67.905 19.3902C67.9539 19.3888 68.0026 19.3974 68.0481 19.4153C68.0936 19.4332 68.1349 19.4601 68.1695 19.4943C68.2042 19.5286 68.2313 19.5694 68.2494 19.6145C68.2675 19.6595 68.2761 19.7077 68.2747 19.7561C68.275 19.823 68.2555 19.8885 68.2187 19.9445C67.4681 21.2306 65.978 21.8625 64.5215 21.8625C62.0231 21.8625 60.2305 19.6452 60.2305 17.2838C60.2305 14.9224 62.0119 12.7051 64.5215 12.7051C67.0087 12.7051 68.8237 14.9002 68.8349 17.2616ZM68.0283 16.9179C67.8714 15.0998 66.4597 13.4368 64.5103 13.4368C62.5608 13.4368 61.1828 15.0998 60.9923 16.9179H68.0283Z" fill="#3B3B3B"/>
<path d="M77.9679 13.2265C77.975 13.3249 77.9425 13.4221 77.8774 13.4969C77.8123 13.5717 77.72 13.618 77.6206 13.6256C75.4359 13.9471 74.4499 15.7099 74.4499 17.7609V21.2753C74.4497 21.3689 74.4158 21.4595 74.3542 21.5306C74.2926 21.6017 74.2073 21.6488 74.1138 21.6633C74.0615 21.6702 74.0084 21.6658 73.958 21.6505C73.9076 21.6351 73.8611 21.6092 73.8217 21.5745C73.7824 21.5397 73.7511 21.497 73.7299 21.4492C73.7088 21.4014 73.6983 21.3496 73.6993 21.2974V13.2819C73.6995 13.1882 73.7334 13.0977 73.795 13.0266C73.8566 12.9555 73.9419 12.9084 74.0354 12.8939C74.0877 12.887 74.1408 12.8914 74.1912 12.9067C74.2416 12.9221 74.2881 12.948 74.3275 12.9827C74.3668 13.0175 74.3982 13.0602 74.4193 13.108C74.4404 13.1558 74.4509 13.2076 74.4499 13.2598V14.8895C75.0661 13.8584 76.2873 12.8828 77.5646 12.8828C77.755 12.8828 77.9679 13.0159 77.9679 13.2265Z" fill="#3B3B3B"/>
<path d="M90.1787 17.2616C90.1769 17.3659 90.1335 17.4653 90.0579 17.538C89.9823 17.6107 89.8807 17.6508 89.7753 17.6496H82.3473C82.5377 19.4678 83.9158 21.1308 85.8652 21.1308C87.1985 21.1308 88.1844 20.6319 88.9239 19.5787C88.9583 19.5234 89.0059 19.4772 89.0626 19.4444C89.1192 19.4115 89.1831 19.3929 89.2488 19.3902C89.2977 19.3888 89.3464 19.3974 89.3919 19.4153C89.4374 19.4332 89.4787 19.4601 89.5133 19.4943C89.5479 19.5286 89.5751 19.5694 89.5932 19.6145C89.6113 19.6595 89.6199 19.7077 89.6185 19.7561C89.6187 19.823 89.5993 19.8885 89.5625 19.9445C88.8118 21.2306 87.3217 21.8625 85.8652 21.8625C83.3668 21.8625 81.5742 19.6452 81.5742 17.2838C81.5742 14.9224 83.3556 12.7051 85.8652 12.7051C88.3749 12.7051 90.1675 14.9002 90.1787 17.2616ZM89.3832 16.9179C89.2263 15.0998 87.8147 13.4368 85.8652 13.4368C83.9158 13.4368 82.5377 15.0998 82.3473 16.9179H89.3832Z" fill="#3B3B3B"/>
<path d="M102.19 13.3142V21.363C102.187 21.4591 102.147 21.5506 102.078 21.6186C102.01 21.6866 101.917 21.7261 101.82 21.7289C101.771 21.7302 101.722 21.7217 101.677 21.7038C101.631 21.6859 101.59 21.659 101.555 21.6248C101.521 21.5905 101.494 21.5496 101.476 21.5046C101.457 21.4596 101.449 21.4114 101.45 21.363V19.8331C100.834 21.0415 99.7473 21.9173 98.358 21.9173C96.1509 21.9173 94.9297 20.0215 94.9297 18.0149V13.3031C94.9306 13.2064 94.9698 13.1138 95.0389 13.0454C95.1081 12.977 95.2016 12.9381 95.2994 12.9373C95.3966 12.9401 95.489 12.9795 95.5577 13.0475C95.6265 13.1155 95.6663 13.207 95.6691 13.3031V18.0149C95.6691 19.6002 96.5766 21.1745 98.358 21.1745C100.856 21.1745 101.45 18.8575 101.45 16.2965V13.292C101.451 13.2327 101.466 13.1745 101.494 13.1222C101.523 13.0698 101.563 13.025 101.613 12.9913C101.662 12.9577 101.719 12.9362 101.778 12.9287C101.838 12.9213 101.898 12.928 101.954 12.9484C102.025 12.9808 102.084 13.0324 102.126 13.0972C102.168 13.1621 102.19 13.2374 102.19 13.3142Z" fill="#3B3B3B"/>
<path d="M121.002 16.5957V21.3075C120.999 21.4036 120.959 21.4951 120.89 21.5631C120.822 21.6311 120.729 21.6706 120.632 21.6733C120.583 21.6747 120.534 21.6662 120.489 21.6483C120.443 21.6304 120.402 21.6035 120.367 21.5693C120.333 21.535 120.306 21.4941 120.288 21.4491C120.269 21.4041 120.261 21.3559 120.262 21.3075V16.5957C120.262 15.0104 119.355 13.4583 117.573 13.4583C115.333 13.4583 114.481 15.8308 114.481 17.6711V21.3075C114.478 21.4036 114.438 21.4951 114.37 21.5631C114.301 21.6311 114.209 21.6706 114.111 21.6733C114.063 21.6747 114.014 21.6662 113.968 21.6483C113.923 21.6304 113.882 21.6035 113.847 21.5693C113.812 21.535 113.785 21.4941 113.767 21.4491C113.749 21.4041 113.74 21.3559 113.742 21.3075V16.5957C113.742 15.0104 112.834 13.4583 111.053 13.4583C108.79 13.4583 107.86 15.221 107.938 17.5714C107.938 17.6268 107.961 17.7266 107.938 17.7598V21.2964C107.938 21.3901 107.904 21.4806 107.842 21.5517C107.781 21.6229 107.696 21.6699 107.602 21.6844C107.55 21.6913 107.497 21.6869 107.446 21.6716C107.396 21.6563 107.349 21.6303 107.31 21.5956C107.271 21.5609 107.239 21.5181 107.218 21.4703C107.197 21.4225 107.187 21.3708 107.188 21.3186V13.2809C107.188 13.1872 107.222 13.0967 107.283 13.0255C107.345 12.9544 107.43 12.9074 107.524 12.8929C107.576 12.886 107.629 12.8904 107.68 12.9057C107.73 12.921 107.776 12.9469 107.816 12.9817C107.855 13.0164 107.886 13.0591 107.908 13.107C107.929 13.1548 107.939 13.2065 107.938 13.2587V14.6002C108.577 13.4694 109.72 12.7266 111.053 12.7266C112.565 12.7266 113.742 13.68 114.223 15.0658C114.84 13.6911 116.038 12.7266 117.573 12.7266C119.758 12.7266 121.002 14.6002 121.002 16.5957Z" fill="#3B3B3B"/>
<path opacity="0.6" d="M9.29907 11.0977L0 15.2773L9.29907 20.7207L18.6094 15.2773L9.29907 11.0977Z" fill="black"/>
<path opacity="0.45" d="M0 15.2772L9.29907 20.7206V0L0 15.2772Z" fill="black"/>
<path opacity="0.8" d="M9.30078 0V20.7206L18.6111 15.2772L9.30078 0Z" fill="black"/>
<path opacity="0.45" d="M0 17.0293L9.29907 30.0005V22.4617L0 17.0293Z" fill="black"/>
<path opacity="0.8" d="M9.30078 22.4617V30.0005L18.6111 17.0293L9.30078 22.4617Z" fill="black"/>
</g>
<defs>
<clipPath id="clip0_1049_44139">
<rect width="121" height="30" fill="white"/>
</clipPath>
</defs>
</svg>
