<svg width="18" height="19" viewBox="0 0 18 19" fill="none" xmlns="http://www.w3.org/2000/svg">
<path fill-rule="evenodd" clip-rule="evenodd" d="M15.0002 6.05862C14.1479 6.05862 13.3802 5.69606 12.8431 5.11675L6.67809 8.6761C6.73491 8.92189 6.76493 9.17792 6.76493 9.44098C6.76493 9.73469 6.7275 10.0197 6.65713 10.2914L12.6242 13.7365C13.1592 13.0046 14.0242 12.5292 15.0002 12.5292C16.6246 12.5292 17.9414 13.846 17.9414 15.4704C17.9414 17.0948 16.6246 18.4116 15.0002 18.4116C13.6932 18.4116 12.5853 17.559 12.2023 16.3796L5.31546 12.4035L5.50559 12.0742C4.92515 12.5428 4.18663 12.8233 3.38258 12.8233C1.51456 12.8233 0.000228882 11.309 0.000228882 9.44098C0.000228882 7.57295 1.51456 6.05862 3.38258 6.05862C4.0706 6.05862 4.71064 6.26405 5.24471 6.61691L11.9718 2.73303L12.0671 2.89811C12.1793 1.37618 13.4496 0.17627 15.0002 0.17627C16.6246 0.17627 17.9414 1.49308 17.9414 3.11745C17.9414 4.74181 16.6246 6.05862 15.0002 6.05862Z" fill="black"/>
</svg>
