<svg width="96" height="22" viewBox="0 0 96 14" fill="none" xmlns="http://www.w3.org/2000/svg">
<path d="M41.8607 9.92046C40.8988 12.275 38.4868 13.8973 35.7447 13.6676C32.8159 13.4092 30.4614 10.9972 30.2748 8.06848C30.0595 4.57978 32.8303 1.66536 36.2759 1.66536C38.8027 1.66536 40.9705 3.23026 41.8606 5.4412C41.9612 5.68526 41.8319 5.95805 41.5734 6.04422L41.2289 6.15907C40.9992 6.23085 40.7695 6.11599 40.669 5.90068C39.9224 4.06293 38.0417 2.79963 35.9026 2.95751C33.6629 3.1298 31.811 4.91 31.5525 7.14969C31.2366 10.0067 33.4763 12.4329 36.2616 12.4329C38.2427 12.4329 39.9368 11.2127 40.6547 9.48984C40.7408 9.27453 40.9849 9.15967 41.2146 9.23144L41.5592 9.3463C41.832 9.40367 41.9612 9.67641 41.8607 9.92046ZM5.48075 10.6527L1.18806 2.13918C1.04452 1.86638 0.699951 1.76592 0.441553 1.93815L0.240525 2.06729C0.0108131 2.21089 -0.0609562 2.49803 0.0538438 2.74209L5.4807 13.4953C5.62424 13.7681 6.01189 13.7681 6.15543 13.4953L11.5823 2.74209C11.6971 2.49803 11.6253 2.21089 11.3956 2.06729L11.1946 1.93815C10.9362 1.78021 10.5916 1.86638 10.4481 2.13918L6.15538 10.6527C6.01195 10.9398 5.6243 10.9398 5.48075 10.6527ZM70.5885 3.99116C69.3969 2.455 67.4732 1.50742 65.334 1.6797C62.3765 1.90936 60.0076 4.29258 59.7779 7.23575C59.5051 10.7819 62.319 13.7537 65.8077 13.7537C67.7459 13.7537 69.4687 12.8349 70.5742 11.4136V13.323C70.5742 13.5384 70.7464 13.6963 70.9474 13.6963H71.4643C71.6796 13.6963 71.8375 13.524 71.8375 13.323V3.35945C71.8375 3.14414 71.6652 2.9862 71.4643 2.9862H70.9474C70.7321 2.9862 70.5742 3.15848 70.5742 3.35945V3.99116H70.5885ZM65.8221 12.4759C63.1948 12.4759 61.0557 10.3368 61.0557 7.70952C61.0557 5.08223 63.1948 2.94311 65.8221 2.94311C68.4494 2.94311 70.5885 5.08223 70.5885 7.70952C70.5885 10.3368 68.4494 12.4759 65.8221 12.4759ZM78.3411 13.6963H78.8581C79.0733 13.6963 79.2313 13.524 79.2313 13.3231V3.35951C79.2313 3.14419 79.059 2.98625 78.8581 2.98625H78.3411C78.1258 2.98625 77.9679 3.15854 77.9679 3.35951V13.3231C77.9679 13.5384 78.1402 13.6963 78.3411 13.6963ZM50.8624 2.15352C49.1395 2.11049 47.5891 2.88568 46.5697 4.10601V0.373253C46.5697 0.15794 46.3974 0 46.1965 0H45.6796C45.4643 0 45.3063 0.172283 45.3063 0.373253V13.323C45.3063 13.5384 45.4786 13.6963 45.6796 13.6963H46.1965C46.4118 13.6963 46.5697 13.524 46.5697 13.323V7.69518C46.5697 5.35503 48.4791 3.38814 50.8193 3.43122C53.0877 3.47425 54.9254 5.32628 54.9254 7.609V13.323C54.9254 13.5384 55.0976 13.6963 55.2986 13.6963H55.8154C56.0308 13.6963 56.1887 13.524 56.1887 13.323V7.70952C56.2031 4.72332 53.8486 2.21095 50.8624 2.15352ZM78.3411 1.62227H78.8581C79.0733 1.62227 79.2313 1.45004 79.2313 1.24902V0.387546C79.2313 0.172233 79.059 0.0142862 78.8581 0.0142862H78.3411C78.1258 0.0142862 77.9679 0.186576 77.9679 0.387546V1.24902C77.9679 1.45004 78.1402 1.62227 78.3411 1.62227ZM90.6736 2.16781C88.9508 2.12478 87.4003 2.90003 86.381 4.1203V3.3594C86.381 3.14409 86.2087 2.98614 86.0077 2.98614H85.4908C85.2755 2.98614 85.1176 3.15843 85.1176 3.3594V13.3229C85.1176 13.5383 85.2899 13.6962 85.4908 13.6962H86.0077C86.2231 13.6962 86.381 13.5239 86.381 13.3229V7.70946C86.381 5.36932 88.2904 3.40248 90.6305 3.44557C92.899 3.48859 94.7366 5.34063 94.7366 7.62335V13.3229C94.7366 13.5383 94.9088 13.6962 95.1098 13.6962H95.6267C95.842 13.6962 95.9999 13.5239 95.9999 13.3229V7.72386C96.0143 4.73767 93.6598 2.22529 90.6736 2.16781ZM26.4847 9.86304C26.5708 9.64772 26.4559 9.38927 26.2262 9.33184L25.7812 9.18824C25.5801 9.13087 25.3648 9.23133 25.2931 9.4323C24.5752 11.2413 22.8524 12.4329 20.8855 12.4329C18.2726 12.4329 16.1334 10.3081 16.1334 7.68089C16.1334 7.36501 16.1622 7.03484 16.2339 6.71902C16.679 4.52241 18.6459 2.92882 20.8856 2.92882C22.7232 2.92882 24.3743 4.00556 25.1638 5.5992C25.2787 5.84325 25.1495 6.13039 24.8911 6.17342L21.1009 6.96301C20.8856 7.0061 20.742 7.22147 20.785 7.43678L20.8856 7.8962C20.9286 8.11151 21.144 8.25511 21.3593 8.21203L26.5134 7.14964C26.7287 7.10661 26.8723 6.89118 26.8293 6.67587L26.7862 6.44616C26.2119 3.67539 23.7282 1.66541 20.8856 1.66541C18.0429 1.66541 15.5592 3.68968 14.9849 6.47496C14.8988 6.8769 14.8557 7.27889 14.8557 7.68089C14.8557 10.9973 17.5547 13.6963 20.8712 13.6963C23.398 13.6963 25.5945 12.1745 26.4847 9.86304Z" fill="#15BDFF"/>
<path d="M41.8607 9.92046C40.8988 12.275 38.4868 13.8973 35.7447 13.6676C32.8159 13.4092 30.4614 10.9972 30.2748 8.06848C30.0595 4.57978 32.8303 1.66536 36.2759 1.66536C38.8027 1.66536 40.9705 3.23026 41.8606 5.4412C41.9612 5.68526 41.8319 5.95805 41.5734 6.04422L41.2289 6.15907C40.9992 6.23085 40.7695 6.11599 40.669 5.90068C39.9224 4.06293 38.0417 2.79963 35.9026 2.95751C33.6629 3.1298 31.811 4.91 31.5525 7.14969C31.2366 10.0067 33.4763 12.4329 36.2616 12.4329C38.2427 12.4329 39.9368 11.2127 40.6547 9.48984C40.7408 9.27453 40.9849 9.15967 41.2146 9.23144L41.5592 9.3463C41.832 9.40367 41.9612 9.67641 41.8607 9.92046ZM5.48075 10.6527L1.18806 2.13918C1.04452 1.86638 0.699951 1.76592 0.441553 1.93815L0.240525 2.06729C0.0108131 2.21089 -0.0609562 2.49803 0.0538438 2.74209L5.4807 13.4953C5.62424 13.7681 6.01189 13.7681 6.15543 13.4953L11.5823 2.74209C11.6971 2.49803 11.6253 2.21089 11.3956 2.06729L11.1946 1.93815C10.9362 1.78021 10.5916 1.86638 10.4481 2.13918L6.15538 10.6527C6.01195 10.9398 5.6243 10.9398 5.48075 10.6527ZM70.5885 3.99116C69.3969 2.455 67.4732 1.50742 65.334 1.6797C62.3765 1.90936 60.0076 4.29258 59.7779 7.23575C59.5051 10.7819 62.319 13.7537 65.8077 13.7537C67.7459 13.7537 69.4687 12.8349 70.5742 11.4136V13.323C70.5742 13.5384 70.7464 13.6963 70.9474 13.6963H71.4643C71.6796 13.6963 71.8375 13.524 71.8375 13.323V3.35945C71.8375 3.14414 71.6652 2.9862 71.4643 2.9862H70.9474C70.7321 2.9862 70.5742 3.15848 70.5742 3.35945V3.99116H70.5885ZM65.8221 12.4759C63.1948 12.4759 61.0557 10.3368 61.0557 7.70952C61.0557 5.08223 63.1948 2.94311 65.8221 2.94311C68.4494 2.94311 70.5885 5.08223 70.5885 7.70952C70.5885 10.3368 68.4494 12.4759 65.8221 12.4759ZM78.3411 13.6963H78.8581C79.0733 13.6963 79.2313 13.524 79.2313 13.3231V3.35951C79.2313 3.14419 79.059 2.98625 78.8581 2.98625H78.3411C78.1258 2.98625 77.9679 3.15854 77.9679 3.35951V13.3231C77.9679 13.5384 78.1402 13.6963 78.3411 13.6963ZM50.8624 2.15352C49.1395 2.11049 47.5891 2.88568 46.5697 4.10601V0.373253C46.5697 0.15794 46.3974 0 46.1965 0H45.6796C45.4643 0 45.3063 0.172283 45.3063 0.373253V13.323C45.3063 13.5384 45.4786 13.6963 45.6796 13.6963H46.1965C46.4118 13.6963 46.5697 13.524 46.5697 13.323V7.69518C46.5697 5.35503 48.4791 3.38814 50.8193 3.43122C53.0877 3.47425 54.9254 5.32628 54.9254 7.609V13.323C54.9254 13.5384 55.0976 13.6963 55.2986 13.6963H55.8154C56.0308 13.6963 56.1887 13.524 56.1887 13.323V7.70952C56.2031 4.72332 53.8486 2.21095 50.8624 2.15352ZM78.3411 1.62227H78.8581C79.0733 1.62227 79.2313 1.45004 79.2313 1.24902V0.387546C79.2313 0.172233 79.059 0.0142862 78.8581 0.0142862H78.3411C78.1258 0.0142862 77.9679 0.186576 77.9679 0.387546V1.24902C77.9679 1.45004 78.1402 1.62227 78.3411 1.62227ZM90.6736 2.16781C88.9508 2.12478 87.4003 2.90003 86.381 4.1203V3.3594C86.381 3.14409 86.2087 2.98614 86.0077 2.98614H85.4908C85.2755 2.98614 85.1176 3.15843 85.1176 3.3594V13.3229C85.1176 13.5383 85.2899 13.6962 85.4908 13.6962H86.0077C86.2231 13.6962 86.381 13.5239 86.381 13.3229V7.70946C86.381 5.36932 88.2904 3.40248 90.6305 3.44557C92.899 3.48859 94.7366 5.34063 94.7366 7.62335V13.3229C94.7366 13.5383 94.9088 13.6962 95.1098 13.6962H95.6267C95.842 13.6962 95.9999 13.5239 95.9999 13.3229V7.72386C96.0143 4.73767 93.6598 2.22529 90.6736 2.16781ZM26.4847 9.86304C26.5708 9.64772 26.4559 9.38927 26.2262 9.33184L25.7812 9.18824C25.5801 9.13087 25.3648 9.23133 25.2931 9.4323C24.5752 11.2413 22.8524 12.4329 20.8855 12.4329C18.2726 12.4329 16.1334 10.3081 16.1334 7.68089C16.1334 7.36501 16.1622 7.03484 16.2339 6.71902C16.679 4.52241 18.6459 2.92882 20.8856 2.92882C22.7232 2.92882 24.3743 4.00556 25.1638 5.5992C25.2787 5.84325 25.1495 6.13039 24.8911 6.17342L21.1009 6.96301C20.8856 7.0061 20.742 7.22147 20.785 7.43678L20.8856 7.8962C20.9286 8.11151 21.144 8.25511 21.3593 8.21203L26.5134 7.14964C26.7287 7.10661 26.8723 6.89118 26.8293 6.67587L26.7862 6.44616C26.2119 3.67539 23.7282 1.66541 20.8856 1.66541C18.0429 1.66541 15.5592 3.68968 14.9849 6.47496C14.8988 6.8769 14.8557 7.27889 14.8557 7.68089C14.8557 10.9973 17.5547 13.6963 20.8712 13.6963C23.398 13.6963 25.5945 12.1745 26.4847 9.86304Z" fill="#15BDFF"/>
</svg>
