<svg width="155" height="90" viewBox="0 0 155 90" fill="none" xmlns="http://www.w3.org/2000/svg">
<path fill-rule="evenodd" clip-rule="evenodd" d="M106.54 90H48.7C22.0933 90 0.5 69.8403 0.5 45C0.5 20.1597 22.0933 0 48.7 0H106.54C133.147 0 154.74 20.1597 154.74 45C154.74 69.839 133.145 90 106.54 90ZM106.54 3.6H48.7C24.2141 3.6 4.356 22.14 4.356 45C4.356 67.8603 24.2144 86.4 48.7 86.4H106.54C131.026 86.4 150.884 67.86 150.884 45C150.884 22.1397 131.026 3.6 106.54 3.6ZM125.82 50.4C122.543 50.4 120.036 48.0596 120.036 44.9997C120.036 41.9397 122.542 39.5993 125.82 39.5993C129.098 39.5993 131.604 41.9397 131.604 44.9997C131.604 48.0596 129.098 50.4 125.82 50.4ZM110.396 64.799C107.118 64.799 104.611 62.4587 104.611 59.3987C104.611 56.3389 107.118 53.9984 110.396 53.9984C113.673 53.9984 116.18 56.3388 116.18 59.3987C116.18 62.4598 113.673 64.799 110.396 64.799ZM110.396 35.9997C107.118 35.9997 104.611 33.6593 104.611 30.5994C104.611 27.5394 107.118 25.199 110.396 25.199C113.673 25.199 116.18 27.5394 116.18 30.5994C116.18 33.6593 113.673 35.9997 110.396 35.9997ZM94.9713 50.4C91.6939 50.4 89.187 48.0596 89.187 44.9997C89.187 41.9397 91.6938 39.5993 94.9713 39.5993C98.2489 39.5993 100.756 41.9397 100.756 44.9997C100.756 48.0596 98.2489 50.4 94.9713 50.4ZM58.3393 48.5995H46.7706V59.4001C46.7706 61.3802 45.0357 62.9998 42.915 62.9998C40.7942 62.9998 39.0593 61.3801 39.0593 59.4001V48.5995H27.4906C25.3698 48.5995 23.635 46.9798 23.635 44.9998C23.635 43.0197 25.3699 41.4001 27.4906 41.4001H39.0593V30.5995C39.0593 28.6194 40.7942 26.9998 42.915 26.9998C45.0357 26.9998 46.7706 28.6195 46.7706 30.5995V41.4001H58.3393C60.4602 41.4001 62.195 43.0198 62.195 44.9998C62.195 46.9799 60.4601 48.5995 58.3393 48.5995Z" fill="#7C7C7C"/>
</svg>
