<svg width="18" height="19" viewBox="0 0 18 19" fill="none" xmlns="http://www.w3.org/2000/svg">
<path fill-rule="evenodd" clip-rule="evenodd" d="M15.0002 6.05813C14.1479 6.05813 13.3802 5.69557 12.8431 5.11626L6.67809 8.67561C6.73491 8.9214 6.76493 9.17743 6.76493 9.44049C6.76493 9.7342 6.7275 10.0192 6.65713 10.2909L12.6242 13.736C13.1592 13.0041 14.0242 12.5287 15.0002 12.5287C16.6246 12.5287 17.9414 13.8455 17.9414 15.4699C17.9414 17.0943 16.6246 18.4111 15.0002 18.4111C13.6932 18.4111 12.5853 17.5585 12.2023 16.3791L5.31546 12.403L5.50559 12.0737C4.92515 12.5423 4.18663 12.8228 3.38258 12.8228C1.51456 12.8228 0.000228882 11.3085 0.000228882 9.44049C0.000228882 7.57246 1.51456 6.05813 3.38258 6.05813C4.0706 6.05813 4.71064 6.26356 5.24471 6.61643L11.9718 2.73254L12.0671 2.89762C12.1793 1.37569 13.4496 0.175781 15.0002 0.175781C16.6246 0.175781 17.9414 1.49259 17.9414 3.11696C17.9414 4.74132 16.6246 6.05813 15.0002 6.05813Z" fill="black"/>
</svg>
