<svg width="32" height="30" viewBox="0 0 32 30" fill="none" xmlns="http://www.w3.org/2000/svg">
<path d="M11.1868 25.202V23.1828L17 26.5888L11.1849 30V28.4645C11.1849 27.7721 11.1849 27.7835 10.5098 27.6827C8.021 27.3126 5.59116 26.7152 3.3193 25.5696C2.42535 25.1191 1.58657 24.5804 0.908893 23.8216C0.25567 23.0909 -0.178768 22.258 0.0719899 21.2427C0.178799 20.8113 0.37716 20.4089 0.65312 20.0639C1.56964 18.9522 2.85916 18.4716 4.19695 18C4.19695 18.2055 4.18504 18.3638 4.19695 18.5201C4.2145 18.7071 4.13426 18.7914 3.97754 18.8858C3.39829 19.2419 2.81716 19.6 2.27176 20.0065C2.00094 20.2082 1.77714 20.4966 1.58594 20.7832C1.2098 21.3473 1.23989 21.9007 1.7295 22.371C2.10845 22.7344 2.53376 23.0441 2.99394 23.2919C4.16749 23.9199 5.43883 24.2735 6.739 24.5077C8.19528 24.7674 9.66346 24.9659 11.1868 25.202Z" fill="#999999"/>
<path d="M26.3931 18C27.9816 18.4029 29.5463 18.8485 30.8366 19.8622C32.2477 20.9702 32.3809 22.4662 31.2047 23.7958C30.4514 24.648 29.4737 25.2235 28.4341 25.7045C26.1833 26.7467 23.7807 27.3128 21.3175 27.6723C20.45 27.7964 19.5733 27.874 18.7006 27.9665C18.475 27.9901 18.2461 27.9888 18 28V25.3991C18.6894 25.3563 19.3754 25.3209 20.0602 25.2694C22.4957 25.0832 24.9187 24.8119 27.246 24.0776C28.058 23.8265 28.8369 23.4889 29.5674 23.0714C30.8808 22.3085 30.9343 21.4115 29.8082 20.4091C28.9387 19.6356 27.8806 19.1546 26.7915 18.7269C26.3014 18.5351 26.3 18.5369 26.3931 18Z" fill="#999999"/>
<path d="M7.28173 7.068L9.32173 4.644V3.6H3.59773V4.908H7.41373L5.50573 7.176V8.244H6.27373C7.54573 8.244 8.09773 8.736 8.09773 9.492C8.09773 10.272 7.43773 10.764 6.32173 10.764C5.37373 10.764 4.46173 10.44 3.86173 9.936L3.18973 11.148C3.96973 11.76 5.15773 12.12 6.34573 12.12C8.60173 12.12 9.66973 10.896 9.66973 9.48C9.66973 8.22 8.86573 7.272 7.28173 7.068ZM14.5061 6.816C13.5701 6.816 12.7661 7.104 12.2621 7.692V7.68C12.2621 5.772 13.2581 4.788 14.8421 4.788C15.4301 4.788 15.9821 4.896 16.4381 5.196L17.0141 4.02C16.4501 3.66 15.6461 3.48 14.8061 3.48C12.3701 3.48 10.6901 5.064 10.6901 7.944C10.6901 10.644 12.0341 12.12 14.3261 12.12C16.0421 12.12 17.3981 11.064 17.3981 9.396C17.3981 7.824 16.1621 6.816 14.5061 6.816ZM14.2421 10.896C13.1261 10.896 12.5021 10.272 12.5021 9.48C12.5021 8.652 13.1981 8.04 14.2061 8.04C15.2261 8.04 15.8861 8.592 15.8861 9.468C15.8861 10.344 15.2141 10.896 14.2421 10.896ZM21.7175 12.12C23.7215 12.12 25.2335 10.56 25.2335 7.8C25.2335 5.04 23.7215 3.48 21.7175 3.48C19.7255 3.48 18.2135 5.04 18.2135 7.8C18.2135 10.56 19.7255 12.12 21.7175 12.12ZM21.7175 10.764C20.5775 10.764 19.7855 9.828 19.7855 7.8C19.7855 5.772 20.5775 4.836 21.7175 4.836C22.8695 4.836 23.6615 5.772 23.6615 7.8C23.6615 9.828 22.8695 10.764 21.7175 10.764ZM28.3029 7.524C29.4429 7.524 30.3429 6.636 30.3429 5.52C30.3429 4.392 29.4429 3.504 28.3029 3.504C27.1629 3.504 26.2629 4.392 26.2629 5.52C26.2629 6.636 27.1629 7.524 28.3029 7.524ZM28.3029 6.732C27.6189 6.732 27.0909 6.216 27.0909 5.52C27.0909 4.812 27.6189 4.296 28.3029 4.296C28.9869 4.296 29.5029 4.824 29.5029 5.52C29.5029 6.204 28.9869 6.732 28.3029 6.732Z" fill="#999999"/>
</svg>
