<svg width="218" height="49" viewBox="0 0 218 49" fill="none" xmlns="http://www.w3.org/2000/svg">
  <rect width="218" height="49" rx="24.5" fill="#63646B" fill-opacity="0.8"/>
  <path d="M64.852 30.14C66.462 30.14 67.834 29.566 68.744 28.502L67.568 27.382C66.854 28.166 65.972 28.544 64.95 28.544C62.92 28.544 61.45 27.116 61.45 25.1C61.45 23.084 62.92 21.656 64.95 21.656C65.972 21.656 66.854 22.034 67.568 22.804L68.744 21.698C67.834 20.634 66.462 20.06 64.866 20.06C61.856 20.06 59.616 22.174 59.616 25.1C59.616 28.026 61.856 30.14 64.852 30.14ZM70.3199 30H72.0699V19.612H70.3199V30ZM75.2488 21.292C75.9068 21.292 76.3688 20.816 76.3688 20.2C76.3688 19.626 75.8928 19.192 75.2488 19.192C74.6048 19.192 74.1288 19.654 74.1288 20.242C74.1288 20.83 74.6048 21.292 75.2488 21.292ZM74.3668 30H76.1168V22.524H74.3668V30ZM81.8436 30.098C83.2996 30.098 84.4616 29.468 85.0356 28.348L83.6916 27.564C83.2436 28.278 82.5716 28.6 81.8296 28.6C80.5416 28.6 79.5616 27.718 79.5616 26.262C79.5616 24.82 80.5416 23.924 81.8296 23.924C82.5716 23.924 83.2436 24.246 83.6916 24.96L85.0356 24.176C84.4616 23.042 83.2996 22.44 81.8436 22.44C79.4776 22.44 77.7976 24.022 77.7976 26.262C77.7976 28.502 79.4776 30.098 81.8436 30.098ZM92.122 30H94.25L90.834 25.66L93.956 22.524H91.856L88.23 25.884V19.612H86.48V30H88.23V28.026L89.532 26.794L92.122 30ZM93.8124 31.4H95.3804L100 18.212H98.4324L93.8124 31.4ZM105.232 19.612V23.448C104.644 22.762 103.79 22.44 102.824 22.44C100.654 22.44 99.0437 23.938 99.0437 26.262C99.0437 28.586 100.654 30.098 102.824 30.098C103.846 30.098 104.714 29.748 105.302 29.034V30H106.982V19.612H105.232ZM103.034 28.6C101.774 28.6 100.808 27.69 100.808 26.262C100.808 24.834 101.774 23.924 103.034 23.924C104.294 23.924 105.26 24.834 105.26 26.262C105.26 27.69 104.294 28.6 103.034 28.6ZM110.937 23.616V22.524H109.271V30H111.021V26.374C111.021 24.848 111.861 24.064 113.191 24.064C113.317 24.064 113.443 24.078 113.597 24.106V22.44C112.351 22.44 111.441 22.832 110.937 23.616ZM117.897 22.44C116.693 22.44 115.531 22.748 114.733 23.364L115.419 24.638C115.979 24.176 116.847 23.896 117.687 23.896C118.933 23.896 119.549 24.498 119.549 25.52V25.632H117.617C115.349 25.632 114.509 26.612 114.509 27.858C114.509 29.16 115.587 30.098 117.295 30.098C118.415 30.098 119.227 29.734 119.647 29.09V30H121.299V25.618C121.299 23.462 120.053 22.44 117.897 22.44ZM117.659 28.824C116.763 28.824 116.231 28.418 116.231 27.788C116.231 27.242 116.553 26.794 117.743 26.794H119.549V27.662C119.255 28.432 118.513 28.824 117.659 28.824ZM129.367 22.524V23.518C128.751 22.776 127.827 22.44 126.777 22.44C124.635 22.44 122.997 23.868 122.997 26.038C122.997 28.208 124.635 29.664 126.777 29.664C127.785 29.664 128.667 29.342 129.283 28.67V29.062C129.283 30.574 128.555 31.33 126.903 31.33C125.867 31.33 124.803 30.98 124.145 30.434L123.361 31.75C124.215 32.45 125.601 32.814 127.001 32.814C129.619 32.814 131.033 31.582 131.033 28.866V22.524H129.367ZM127.043 28.18C125.713 28.18 124.761 27.312 124.761 26.038C124.761 24.778 125.713 23.924 127.043 23.924C128.359 23.924 129.311 24.778 129.311 26.038C129.311 27.312 128.359 28.18 127.043 28.18ZM141.207 28.348C140.941 28.558 140.591 28.656 140.227 28.656C139.555 28.656 139.191 28.264 139.191 27.536V23.98H141.193V22.58H139.191V20.872H137.441V22.58H136.209V23.98H137.441V27.578C137.441 29.23 138.379 30.098 140.017 30.098C140.647 30.098 141.277 29.93 141.697 29.594L141.207 28.348ZM146.25 30.098C148.574 30.098 150.24 28.502 150.24 26.262C150.24 24.022 148.574 22.44 146.25 22.44C143.954 22.44 142.274 24.022 142.274 26.262C142.274 28.502 143.954 30.098 146.25 30.098ZM146.25 28.6C144.99 28.6 144.038 27.69 144.038 26.262C144.038 24.834 144.99 23.924 146.25 23.924C147.524 23.924 148.476 24.834 148.476 26.262C148.476 27.69 147.524 28.6 146.25 28.6ZM157.449 23.616V22.524H155.783V30H157.533V26.374C157.533 24.848 158.373 24.064 159.703 24.064C159.829 24.064 159.955 24.078 160.109 24.106V22.44C158.863 22.44 157.953 22.832 157.449 23.616ZM164.885 30.098C167.209 30.098 168.875 28.502 168.875 26.262C168.875 24.022 167.209 22.44 164.885 22.44C162.589 22.44 160.909 24.022 160.909 26.262C160.909 28.502 162.589 30.098 164.885 30.098ZM164.885 28.6C163.625 28.6 162.673 27.69 162.673 26.262C162.673 24.834 163.625 23.924 164.885 23.924C166.159 23.924 167.111 24.834 167.111 26.262C167.111 27.69 166.159 28.6 164.885 28.6ZM174.552 28.348C174.286 28.558 173.936 28.656 173.572 28.656C172.9 28.656 172.536 28.264 172.536 27.536V23.98H174.538V22.58H172.536V20.872H170.786V22.58H169.554V23.98H170.786V27.578C170.786 29.23 171.724 30.098 173.362 30.098C173.992 30.098 174.622 29.93 175.042 29.594L174.552 28.348ZM179.338 22.44C178.134 22.44 176.972 22.748 176.174 23.364L176.86 24.638C177.42 24.176 178.288 23.896 179.128 23.896C180.374 23.896 180.99 24.498 180.99 25.52V25.632H179.058C176.79 25.632 175.95 26.612 175.95 27.858C175.95 29.16 177.028 30.098 178.736 30.098C179.856 30.098 180.668 29.734 181.088 29.09V30H182.74V25.618C182.74 23.462 181.494 22.44 179.338 22.44ZM179.1 28.824C178.204 28.824 177.672 28.418 177.672 27.788C177.672 27.242 177.994 26.794 179.184 26.794H180.99V27.662C180.696 28.432 179.954 28.824 179.1 28.824ZM188.99 28.348C188.724 28.558 188.374 28.656 188.01 28.656C187.338 28.656 186.974 28.264 186.974 27.536V23.98H188.976V22.58H186.974V20.872H185.224V22.58H183.992V23.98H185.224V27.578C185.224 29.23 186.162 30.098 187.8 30.098C188.43 30.098 189.06 29.93 189.48 29.594L188.99 28.348ZM197.701 26.304C197.701 23.966 196.105 22.44 193.921 22.44C191.695 22.44 190.057 24.036 190.057 26.262C190.057 28.488 191.681 30.098 194.187 30.098C195.475 30.098 196.525 29.678 197.197 28.88L196.259 27.802C195.727 28.348 195.069 28.614 194.229 28.614C192.927 28.614 192.017 27.914 191.807 26.822H197.673C197.687 26.654 197.701 26.444 197.701 26.304ZM193.921 23.84C195.069 23.84 195.895 24.582 196.035 25.66H191.793C191.961 24.568 192.787 23.84 193.921 23.84Z" fill="white"/>
  <path d="M33.5 17C26.6 17 21 19.7569 21 23.1538C21 25.9108 24.675 28.2369 29.75 29.0246V33L34.75 28.0769L29.75 23.1538V26.5138C25.8125 25.8246 23.5 24.1754 23.5 23.1538C23.5 21.8492 27.3 19.4615 33.5 19.4615C39.7 19.4615 43.5 21.8492 43.5 23.1538C43.5 24.0523 41.675 25.48 38.5 26.2677V28.7908C42.9125 27.8431 46 25.6769 46 23.1538C46 19.7569 40.4 17 33.5 17V17Z" fill="white"/>
</svg>
