<svg width="19" height="19" viewBox="0 0 19 19" fill="none" xmlns="http://www.w3.org/2000/svg">
<circle cx="9.5" cy="9.5" r="8.75" stroke="#667799" stroke-width="1.5"/>
<path fill-rule="evenodd" clip-rule="evenodd" d="M8.40514 13.97C8.40514 14.5223 8.85286 14.97 9.40514 14.97C9.95742 14.97 10.4051 14.5223 10.4051 13.97V10.3857H13.97C14.5223 10.3857 14.97 9.93803 14.97 9.38574C14.97 8.83346 14.5223 8.38574 13.97 8.38574H10.4051V5.31836C10.4051 4.76607 9.95742 4.31836 9.40514 4.31836C8.85286 4.31836 8.40514 4.76607 8.40514 5.31836V8.38574H5.31836C4.76607 8.38574 4.31836 8.83346 4.31836 9.38574C4.31836 9.93803 4.76607 10.3857 5.31836 10.3857H8.40514V13.97Z" fill="#667799"/>
</svg>
