<svg width="130" height="18" viewBox="0 0 130 18" fill="none" xmlns="http://www.w3.org/2000/svg">
<path d="M31.1777 13.6641H32.7842L33.6797 10.998H37.4463L38.3418 13.6641H39.9551L36.3936 3.7998H34.7393L31.1777 13.6641ZM35.5459 5.43359H35.5801L37.0361 9.76758H34.0898L35.5459 5.43359ZM43.3594 13.8076C44.3916 13.8076 45.1846 13.2881 45.6152 12.4473H45.6426V13.6641H47.126V3.7998H45.6426V7.69629H45.6152C45.1846 6.84863 44.3643 6.33594 43.3457 6.33594C41.541 6.33594 40.3516 7.77148 40.3516 10.0615V10.0684C40.3516 12.3584 41.5273 13.8076 43.3594 13.8076ZM43.749 12.5361C42.5801 12.5361 41.8623 11.5996 41.8623 10.0684V10.0615C41.8623 8.54395 42.5869 7.60059 43.749 7.60059C44.8564 7.60059 45.6494 8.57129 45.6494 10.0615V10.0684C45.6494 11.5654 44.8633 12.5361 43.749 12.5361ZM51.3301 13.8076C52.3623 13.8076 53.1553 13.2881 53.5859 12.4473H53.6133V13.6641H55.0967V3.7998H53.6133V7.69629H53.5859C53.1553 6.84863 52.335 6.33594 51.3164 6.33594C49.5117 6.33594 48.3223 7.77148 48.3223 10.0615V10.0684C48.3223 12.3584 49.498 13.8076 51.3301 13.8076ZM51.7197 12.5361C50.5508 12.5361 49.833 11.5996 49.833 10.0684V10.0615C49.833 8.54395 50.5576 7.60059 51.7197 7.60059C52.8271 7.60059 53.6201 8.57129 53.6201 10.0615V10.0684C53.6201 11.5654 52.834 12.5361 51.7197 12.5361ZM61.9805 13.8076C62.2812 13.8076 62.5615 13.7734 62.7324 13.7461V12.6045C62.623 12.6182 62.4932 12.6318 62.3359 12.6318C61.7139 12.6318 61.3857 12.4131 61.3857 11.6816V7.64844H62.7324V6.47266H61.3857V4.59961H59.875V6.47266H58.8428V7.64844H59.875V11.7705C59.875 13.2061 60.5586 13.8076 61.9805 13.8076ZM66.8682 13.8076C68.9258 13.8076 70.2793 12.3857 70.2793 10.0684V10.0547C70.2793 7.75098 68.9121 6.33594 66.8613 6.33594C64.8174 6.33594 63.457 7.75781 63.457 10.0547V10.0684C63.457 12.3789 64.8037 13.8076 66.8682 13.8076ZM66.875 12.5703C65.7197 12.5703 64.9678 11.6611 64.9678 10.0684V10.0547C64.9678 8.48242 65.7266 7.57324 66.8613 7.57324C68.0166 7.57324 68.7686 8.48242 68.7686 10.0547V10.0684C68.7686 11.6543 68.0303 12.5703 66.875 12.5703ZM76.4932 13.6641H77.9629L80.0889 6.22656H80.123L82.2422 13.6641H83.7119L86.3779 3.7998H84.7852L82.9463 11.5312H82.9121L80.8271 3.7998H79.3779L77.293 11.5312H77.2656L75.4268 3.7998H73.834L76.4932 13.6641ZM88.5859 13.7939C89.5361 13.7939 90.3701 13.3018 90.7871 12.5293H90.8145V13.6641H92.2979V8.70801C92.2979 7.26562 91.1836 6.33594 89.4268 6.33594C87.6562 6.33594 86.583 7.28613 86.4805 8.52344L86.4736 8.59863H87.8682L87.8818 8.53711C88.0049 7.96289 88.5312 7.55957 89.3857 7.55957C90.3018 7.55957 90.8145 8.03809 90.8145 8.83105V9.37109L88.8594 9.4873C87.1572 9.58984 86.1865 10.3555 86.1865 11.6064V11.6201C86.1865 12.9121 87.1504 13.7939 88.5859 13.7939ZM87.6768 11.5859V11.5723C87.6768 10.9639 88.1689 10.5742 89.0576 10.5195L90.8145 10.4102V10.9707C90.8145 11.9072 90.0283 12.6113 88.9893 12.6113C88.1963 12.6113 87.6768 12.2148 87.6768 11.5859ZM96.2559 13.8076C96.5566 13.8076 96.8369 13.7734 97.0078 13.7461V12.6045C96.8984 12.6182 96.7686 12.6318 96.6113 12.6318C95.9893 12.6318 95.6611 12.4131 95.6611 11.6816V7.64844H97.0078V6.47266H95.6611V4.59961H94.1504V6.47266H93.1182V7.64844H94.1504V11.7705C94.1504 13.2061 94.834 13.8076 96.2559 13.8076ZM101.144 13.8076C102.873 13.8076 104.076 12.7002 104.233 11.2578L104.24 11.21H102.818L102.812 11.2646C102.634 12.0439 102.053 12.5703 101.144 12.5703C100.002 12.5703 99.2432 11.6475 99.2432 10.0752V10.0684C99.2432 8.53027 99.9883 7.57324 101.137 7.57324C102.101 7.57324 102.647 8.16797 102.805 8.87207L102.818 8.92676H104.227L104.22 8.87891C104.097 7.52539 102.976 6.33594 101.123 6.33594C99.0723 6.33594 97.7324 7.77832 97.7324 10.0547V10.0615C97.7324 12.3652 99.0449 13.8076 101.144 13.8076ZM105.341 13.6641H106.817V9.50098C106.817 8.37988 107.494 7.60059 108.513 7.60059C109.552 7.60059 110.153 8.31152 110.153 9.50098V13.6641H111.63V9.2207C111.63 7.48438 110.618 6.33594 109.08 6.33594C108.007 6.33594 107.234 6.82129 106.852 7.65527H106.817V3.7998H105.341V13.6641ZM113.12 13.6641H114.597V3.7998H113.12V13.6641ZM116.914 5.36523C117.399 5.36523 117.775 4.98242 117.775 4.51758C117.775 4.0459 117.399 3.66309 116.914 3.66309C116.436 3.66309 116.053 4.0459 116.053 4.51758C116.053 4.98242 116.436 5.36523 116.914 5.36523ZM116.176 13.6641H117.652V6.47266H116.176V13.6641ZM121.87 13.8076C123.565 13.8076 124.796 12.9053 124.796 11.5928V11.5859C124.796 10.5537 124.235 9.97266 122.766 9.63086L121.597 9.36426C120.824 9.17969 120.53 8.87891 120.53 8.43457V8.42773C120.53 7.85352 121.029 7.47754 121.822 7.47754C122.656 7.47754 123.148 7.91504 123.237 8.54395L123.244 8.5918H124.632L124.625 8.50977C124.55 7.28613 123.524 6.33594 121.822 6.33594C120.168 6.33594 119.047 7.21777 119.047 8.50293V8.50977C119.047 9.55566 119.724 10.2119 121.091 10.5264L122.267 10.793C123.039 10.9775 123.299 11.2441 123.299 11.709V11.7158C123.299 12.2969 122.766 12.666 121.877 12.666C120.968 12.666 120.476 12.2764 120.339 11.6133L120.325 11.5449H118.862L118.869 11.6064C119.02 12.9189 120.072 13.8076 121.87 13.8076ZM128.467 13.8076C128.768 13.8076 129.048 13.7734 129.219 13.7461V12.6045C129.109 12.6182 128.979 12.6318 128.822 12.6318C128.2 12.6318 127.872 12.4131 127.872 11.6816V7.64844H129.219V6.47266H127.872V4.59961H126.361V6.47266H125.329V7.64844H126.361V11.7705C126.361 13.2061 127.045 13.8076 128.467 13.8076Z" fill="#6F88EA"/>
<path d="M18.5647 7.77435C18.971 8.30578 18.971 9.02321 18.5647 9.55378C17.285 11.2243 14.2147 14.6641 10.6302 14.6641C7.0456 14.6641 3.97531 11.2243 2.6956 9.55378C2.49793 9.29932 2.39063 8.98628 2.39062 8.66406C2.39063 8.34185 2.49793 8.02881 2.6956 7.77435C3.97531 6.10378 7.0456 2.66406 10.6302 2.66406C14.2147 2.66406 17.285 6.10378 18.5647 7.77435V7.77435Z" stroke="#6F88EA" stroke-width="1.5" stroke-linecap="round" stroke-linejoin="round"/>
<path d="M10.6261 11.2347C12.0463 11.2347 13.1975 10.0834 13.1975 8.66323C13.1975 7.24306 12.0463 6.0918 10.6261 6.0918C9.20596 6.0918 8.05469 7.24306 8.05469 8.66323C8.05469 10.0834 9.20596 11.2347 10.6261 11.2347Z" stroke="#6F88EA" stroke-linecap="round" stroke-linejoin="round"/>
</svg>
