<svg width="22" height="22" viewBox="0 0 22 22" fill="none" xmlns="http://www.w3.org/2000/svg">
<circle cx="10.9996" cy="11" r="10" stroke="#667799" stroke-width="2"/>
<path fill-rule="evenodd" clip-rule="evenodd" d="M10.0477 16.3335C10.0477 16.8858 10.4954 17.3335 11.0477 17.3335C11.6 17.3335 12.0477 16.8858 12.0477 16.3335V12.0252H16.3331C16.8854 12.0252 17.3331 11.5775 17.3331 11.0252C17.3331 10.4729 16.8854 10.0252 16.3331 10.0252H12.0477V6C12.0477 5.44771 11.6 5 11.0477 5C10.4954 5 10.0477 5.44771 10.0477 6V10.0252H5.99963C5.44735 10.0252 4.99963 10.4729 4.99963 11.0252C4.99963 11.5775 5.44735 12.0252 5.99963 12.0252H10.0477V16.3335Z" fill="#667799"/>
</svg>
