<svg xmlns="http://www.w3.org/2000/svg" viewBox="0 0 345.67 65.95"><title>Afterpay logo</title><path d="M680,492.85l-22-12.53a9.69,9.69,0,0,0-14.53,8.28v1.29a3.24,3.24,0,0,0,1.65,2.81l4.16,2.37a1.82,1.82,0,0,0,2.74-1.56v-3.2a2.1,2.1,0,0,1,3.16-1.8l19.06,10.86a2.06,2.06,0,0,1,0,3.59l-19.06,10.86A2.1,2.1,0,0,1,652,512v-1.7A9.69,9.69,0,0,0,637.45,502l-22,12.54a9.23,9.23,0,0,0-3.54,3.47,9.54,9.54,0,0,0,0,9.62,9.23,9.23,0,0,0,3.54,3.47l22,12.53A9.7,9.7,0,0,0,652,535.4v-1.29a3,3,0,0,0-1.65-2.81l-4.15-2.37a1.83,1.83,0,0,0-2.74,1.56v3.2a2.1,2.1,0,0,1-3.15,1.8l-19.07-10.86a2.07,2.07,0,0,1,0-3.6l19.07-10.86a2.1,2.1,0,0,1,3.15,1.8v1.7A9.69,9.69,0,0,0,658,521.95l22-12.54a9.22,9.22,0,0,0,3.54-3.47,9.54,9.54,0,0,0,0-9.62,9.22,9.22,0,0,0-3.54-3.47Zm-70.87.8-22.2,49.69h-9.36l8.72-19.21-14.74-30.48h10.61L590.77,514l8.85-20.37h9.51Zm-134.81,3.46A8.87,8.87,0,0,1,482,493a9,9,0,0,1,3.86.79v9s-3.31-2-6.35-1.61-5,3.16-5,6.85v20.89h-9.08V493.66h8.8Zm84.95,31.83v-4.59A14.4,14.4,0,0,1,548,529.5c-9.8,0-17.23-7.76-17.23-18.2S538.45,493,548.18,493a14.34,14.34,0,0,1,11.08,5.08v-4.45h8.79v35.29h-8.79Zm-.08-17.64a9.73,9.73,0,1,0-9.72,10.09,9.7,9.7,0,0,0,9.72-10.09Zm-69-17.64H499v4.59a14.21,14.21,0,0,1,11.3-5.22c9.65,0,17.23,7.84,17.23,18.2s-7.72,18.28-17.44,18.28a13.9,13.9,0,0,1-10.79-4.73v18.68h-9.08Zm28.32,17.64a9.73,9.73,0,1,0-9.72,10.09,9.83,9.83,0,0,0,9.72-10.09Zm-84.91,2.33a8.87,8.87,0,0,0,9.23,8.19,9.5,9.5,0,0,0,8.44-4.59h9.23c-2.15,7.48-8.94,12.28-17.88,12.28-10.79,0-18.37-7.48-18.37-18.13s8-18.35,18.59-18.35,18.37,7.76,18.37,18.35a11.52,11.52,0,0,1-.21,2.26Zm17.95-5.51c-.64-4.58-4.44-7.34-8.87-7.34a8.81,8.81,0,0,0-9,7.34h17.87Zm-32.32,13c-3.08,0-3.93-1.13-3.93-4.09V501.35h5.65v-7.7h-5.65V485h-9v8.61H394.65v-2.14c0-3,1.15-4.1,4.29-4.1h2v-6.84h-4.34c-7.44,0-10.94,2.4-10.94,9.74v3.34h-5v7.7h5v27.59h9V501.35h11.61v17.29c0,7.2,2.78,10.31,10.08,10.31H421v-7.84H419.2Zm-51.51,7.84v-4.59a14.4,14.4,0,0,1-11.3,5.15c-9.8,0-17.23-7.76-17.23-18.2S346.88,493,356.61,493a14.34,14.34,0,0,1,11.08,5.08v-4.45h8.8v35.29Zm-.08-17.64a9.73,9.73,0,1,0-9.72,10.09,9.7,9.7,0,0,0,9.72-10.09Z" transform="translate(-339.16 -479.02)"/></svg>