<svg width="30" height="30" viewBox="0 0 30 30" fill="none" xmlns="http://www.w3.org/2000/svg">
<path d="M10.7147 11.851C10.4085 11.9766 10.796 12.196 11.0103 12.1972C11.1079 12.2102 11.2071 12.1993 11.2995 12.1653C11.3918 12.1313 11.4745 12.0753 11.5404 12.0022C11.6063 11.9291 11.6533 11.841 11.6775 11.7456C11.7016 11.6502 11.7022 11.5504 11.6791 11.4547C11.4872 10.9141 10.581 10.6966 9.87471 10.8672C8.85659 11.1141 8.46409 11.9547 8.85096 12.6166C9.35846 13.4866 10.8816 13.8141 12.0791 13.4485C13.5691 12.9941 14.1203 11.7222 13.4541 10.7253C12.6541 9.5297 10.5103 9.09283 8.83596 9.65158C6.87971 10.3047 6.17034 12.006 7.11409 13.3303C8.19659 14.8478 10.9578 15.3941 13.0997 14.6435C15.5185 13.7966 16.3841 11.6685 15.1647 10.0228C13.8053 8.18595 10.4328 7.53158 7.82846 8.47158C4.95221 9.5097 3.93159 12.0597 5.42221 14.0253C7.05534 16.1778 11.0347 16.9391 14.0972 15.8116C17.4266 14.5847 18.6016 11.6153 16.841 9.33408C14.9366 6.86783 10.3547 5.99908 6.83909 7.31408C3.05784 8.72783 1.72971 12.1141 3.75909 14.7085C5.04971 16.3591 7.50534 17.4666 10.1941 17.651" stroke="black" stroke-linecap="round" stroke-linejoin="round"/>
<path d="M17.835 18.1456V12M10.3781 18.2162H27.3719V23.8681H10.3344C6.19813 23.8681 3 21.1119 3 17.51V12.565L10.3781 18.2162ZM6.17875 22.6669V21.2544V22.6669ZM8.29813 23.515V20.6888V23.515ZM10.4175 23.8681V22.4556V23.8681ZM12.5369 23.8681V21.0419V23.8681ZM14.6556 23.8681V22.4556V23.8681ZM16.7756 23.8681V21.0419V23.8681ZM18.8944 23.8681V22.4556V23.8681ZM23.1331 23.8681V22.4556V23.8681ZM21.0144 23.8681V21.0419V23.8681ZM25.2525 23.8681V21.0419V23.8681Z" stroke="black" stroke-linecap="round" stroke-linejoin="round"/>
</svg>
