<svg width="84" height="80" viewBox="0 0 84 80" fill="none" xmlns="http://www.w3.org/2000/svg">
<path d="M45.0967 47.3783C45.387 47.6573 45.3957 48.1187 45.1167 48.4092C44.8377 48.6995 44.3763 48.7082 44.0858 48.4292L36.2232 40.8418C35.9329 40.5628 35.9242 40.1015 36.2032 39.8109L44.0857 32.2037C44.376 31.9247 44.8376 31.9333 45.1166 32.2237C45.3956 32.514 45.3869 32.9756 45.0966 33.2546L37.7776 40.3171L45.0966 47.3796L45.0967 47.3783Z" fill="#999999"/>
<path d="M81.5 40C81.5 61.8037 63.3792 79.5 41 79.5C18.6208 79.5 0.5 61.8037 0.5 40C0.5 18.1963 18.6208 0.5 41 0.5C63.3792 0.5 81.5 18.1963 81.5 40Z" stroke="#FA3E3E"/>
</svg>
