<svg width="33" height="33" viewBox="0 0 33 33" fill="none" xmlns="http://www.w3.org/2000/svg">
<rect width="33" height="33" rx="8" fill="#F7F7F7"/>
<path d="M8.9 9.11111H12.7V7H8.9C7.85215 7 7 7.94683 7 9.11111V13.3333H8.9V9.11111ZM8.9 26H12.7V23.8889H8.9V19.6667H7V23.8889C7 25.0532 7.85215 26 8.9 26ZM24.1 7H20.3V9.11111H24.1V13.3333H26V9.11111C26 7.94683 25.1479 7 24.1 7ZM24.1 23.8889H20.3V26H24.1C25.1479 26 26 25.0532 26 23.8889V19.6667H24.1V23.8889Z" fill="#979797"/>
<line x1="12.5" y1="22" x2="12.5" y2="11" stroke="#979797"/>
<line x1="16.5" y1="22" x2="16.5" y2="11" stroke="#979797"/>
<line x1="20.5" y1="22" x2="20.5" y2="11" stroke="#979797"/>
</svg>
