<svg width="22" height="22" viewBox="0 0 22 22" fill="none" xmlns="http://www.w3.org/2000/svg">
  <path d="M6.6 3.66583V5.13144H20.5333V8.03268L18.9063 13.1923H6.13855L4.30522 0H0V1.46562H3.02812L4.86145 14.6579H19.9819L22 8.25811V3.66583H6.6ZM7.37843 16.1375C6.60074 16.1384 5.85515 16.4475 5.30523 16.9971C4.75532 17.5466 4.44599 18.2916 4.4451 19.0688C4.4451 19.8462 4.75415 20.5918 5.30425 21.1415C5.85436 21.6912 6.60046 22 7.37843 22C8.1564 22 8.90251 21.6912 9.45261 21.1415C10.0027 20.5918 10.3118 19.8462 10.3118 19.0688C10.3109 18.2916 10.0016 17.5466 9.45165 16.997C8.90173 16.4475 8.15613 16.1384 7.37843 16.1375V16.1375ZM7.37843 20.5344C7.08835 20.5344 6.80479 20.4484 6.5636 20.2874C6.3224 20.1263 6.13442 19.8974 6.02341 19.6296C5.9124 19.3618 5.88336 19.0671 5.93995 18.7828C5.99654 18.4985 6.13623 18.2374 6.34134 18.0324C6.54646 17.8275 6.8078 17.6879 7.0923 17.6313C7.37681 17.5748 7.6717 17.6038 7.9397 17.7147C8.2077 17.8256 8.43676 18.0135 8.59792 18.2545C8.75908 18.4955 8.8451 18.7789 8.8451 19.0688C8.84464 19.4573 8.68997 19.8298 8.41501 20.1046C8.14006 20.3794 7.76728 20.5339 7.37843 20.5344V20.5344ZM17.6451 16.1375C16.8674 16.1384 16.1218 16.4475 15.5719 16.9971C15.022 17.5466 14.7127 18.2916 14.7118 19.0688C14.7118 19.8462 15.0208 20.5918 15.5709 21.1415C16.121 21.6912 16.8671 22 17.6451 22C18.4231 22 19.1692 21.6912 19.7193 21.1415C20.2694 20.5918 20.5784 19.8462 20.5784 19.0688C20.5776 18.2916 20.2682 17.5466 19.7183 16.997C19.1684 16.4475 18.4228 16.1384 17.6451 16.1375V16.1375ZM17.6451 20.5344C17.355 20.5344 17.0715 20.4484 16.8303 20.2874C16.5891 20.1263 16.4011 19.8974 16.2901 19.6296C16.1791 19.3618 16.15 19.0671 16.2066 18.7828C16.2632 18.4985 16.4029 18.2374 16.608 18.0324C16.8131 17.8275 17.0745 17.6879 17.359 17.6313C17.6435 17.5748 17.9384 17.6038 18.2064 17.7147C18.4744 17.8256 18.7034 18.0135 18.8646 18.2545C19.0257 18.4955 19.1118 18.7789 19.1118 19.0688C19.1113 19.4573 18.9566 19.8298 18.6817 20.1046C18.4067 20.3794 18.0339 20.5339 17.6451 20.5344V20.5344Z" fill="#999999"/>
</svg>
