<svg width="63" height="40" viewBox="0 0 63 40" fill="none" xmlns="http://www.w3.org/2000/svg">
  <path d="M58.2772 23.8227C58.2687 23.8273 58.2596 23.8313 58.2511 23.8353L47.9266 28.7504C48.0373 29.3267 48.0849 29.9133 48.0696 30.4998C48.0532 31.1064 47.5606 31.589 46.9584 31.5896H46.9266L31.8152 31.1705C31.52 31.1625 31.2402 31.0367 31.0376 30.8206C30.8345 30.6045 30.7255 30.3163 30.7334 30.019C30.7504 29.4004 31.2618 28.9122 31.8764 28.9293L45.7691 29.3147H45.7685C45.546 27.998 44.8775 26.8002 43.8769 25.9249C42.8757 25.0496 41.6044 24.5505 40.2798 24.5133L31.0869 24.2583C29.2714 24.2057 27.4911 23.7426 25.8776 22.9033L24.9423 22.4151C22.687 21.2316 20.1564 20.6828 17.6172 20.8268C15.078 20.9709 12.6252 21.8021 10.5162 23.2337L10.1484 36.7065L11.7279 35.8546C13.2983 35.0039 15.1347 34.8015 16.8505 35.2897L32.4515 39.7018H32.4521C35.4589 40.3221 38.5837 39.9699 41.3811 38.6961L62.9957 24.6111C62.3947 23.9914 61.6138 23.5803 60.7652 23.4385C59.9168 23.2967 59.045 23.4317 58.2777 23.8227L58.2772 23.8227Z" fill="#494949"/>
  <path d="M0 39.0457L0.547666 19L8.40458 19.2178L7.85692 39.2636L0 39.0457Z" fill="#494949"/>
  <path d="M46.8203 24.6992H48.1445V22.7305C51.1328 22.5312 53.4766 20.8906 53.4766 18.0195V18.0078C53.4766 15.5117 51.8125 14.2344 48.707 13.5195L48.1445 13.3906V8.49219C49.6562 8.67969 50.6758 9.55859 50.8398 10.918L50.8516 11.0234H53.2891L53.2773 10.8359C53.0898 8.28125 51.0391 6.58203 48.1445 6.35938V4.39062H46.8203V6.35938C43.8555 6.58203 41.7578 8.32812 41.7578 10.9297V10.9414C41.7578 13.3203 43.3398 14.6797 46.3398 15.3711L46.8203 15.4766V20.5977C44.9219 20.3984 44.0781 19.3906 43.8555 18.1367L43.832 18.0078H41.4062L41.418 18.1719C41.6055 20.8438 43.8438 22.5078 46.8203 22.7305V24.6992ZM44.2422 10.7891V10.7656C44.2422 9.69922 45.1328 8.70312 46.8203 8.49219V13.0859C44.9336 12.6406 44.2422 11.8672 44.2422 10.7891ZM48.168 15.793C50.3711 16.3086 50.9922 17.0234 50.9922 18.207V18.2188C50.9922 19.4727 50.1719 20.457 48.1445 20.6211V15.7812L48.168 15.793Z" fill="#494949"/>
</svg>
