<svg width="18" height="20" viewBox="0 0 18 20" fill="none" xmlns="http://www.w3.org/2000/svg">
<path d="M1 8C1 7.44772 1.44772 7 2 7H16C16.5523 7 17 7.44772 17 8V16C17 17.6569 15.6569 19 14 19H4C2.34315 19 1 17.6569 1 16V8Z" fill="white"/>
<path d="M15.048 18.9979H2.94833C1.87431 18.9979 1 18.0948 1 16.9856V4.48895C1 3.3797 1.87435 2.47656 2.94833 2.47656H15.048C16.1237 2.47656 16.9965 3.37974 16.9965 4.48895V16.9856C16.998 18.0964 16.1237 18.9979 15.048 18.9979ZM2.94833 3.29899C2.31318 3.29899 1.79596 3.83308 1.79596 4.48902V16.9856C1.79596 17.6416 2.31318 18.1755 2.94833 18.1755H15.048C15.6832 18.1755 16.2016 17.6416 16.2016 16.9856V4.48902C16.2016 3.83304 15.6848 3.29899 15.048 3.29899H2.94833Z" fill="black" stroke="black" stroke-width="0.3"/>
<path d="M5.61606 4.61625C5.39587 4.61625 5.21875 4.43163 5.21875 4.20575V1.41035C5.21875 1.18293 5.3975 1 5.61606 1C5.83475 1 6.01513 1.18462 6.01513 1.41035V4.20575C6.01349 4.43162 5.83474 4.61625 5.61606 4.61625Z" fill="black" stroke="black" stroke-width="0.3"/>
<path d="M12.3206 4.6163C12.1004 4.6163 11.9219 4.43168 11.9219 4.20594V1.4105C11.9219 1.18308 12.1004 1 12.3206 1C12.5407 1 12.7178 1.18462 12.7178 1.4105V4.20594C12.7194 4.43167 12.5407 4.6163 12.3206 4.6163Z" fill="black" stroke="black" stroke-width="0.3"/>
<path d="M16.601 7.12552H1.39896C1.17877 7.12552 1 6.94091 1 6.71518C1 6.48932 1.17875 6.30469 1.39896 6.30469H16.601C16.8212 6.30469 17 6.4893 17 6.71518C17 6.9409 16.8212 7.12552 16.601 7.12552Z" fill="black" stroke="black" stroke-width="0.3"/>
</svg>
