<svg width="18" height="16" viewBox="0 0 18 16" fill="none" xmlns="http://www.w3.org/2000/svg">
  <path d="M14.2906 16H2.8561C2.09907 15.9985 1.37342 15.6971 0.838153 15.1618C0.302888 14.6266 0.0014812 13.9009 0 13.1439V5.50848C0.000807323 5.11235 0.138189 4.72858 0.389005 4.42194C0.639954 4.11542 0.988994 3.90483 1.37721 3.82584L2.98476 3.50439L3.52057 1.95577V1.95591C3.70963 1.38633 4.07347 0.890891 4.56017 0.539846C5.04686 0.188664 5.63177 -0.000137711 6.23189 7.53629e-08H10.9366C11.5366 -0.000134473 12.1216 0.18865 12.6083 0.539846C13.095 0.890891 13.4587 1.38633 13.6479 1.95591L14.1837 3.50452L15.7913 3.82598V3.82584C16.1754 3.90913 16.5195 4.1216 16.7663 4.42772C17.0129 4.73384 17.1472 5.11531 17.147 5.50848V13.1439C17.147 13.9014 16.846 14.6278 16.3104 15.1635C15.7748 15.699 15.0484 16 14.2909 16H14.2906ZM6.22084 1.14115C5.86414 1.14518 5.51751 1.26036 5.22943 1.47068C4.94134 1.68112 4.72593 1.97608 4.61329 2.31462L3.97038 4.17931C3.90565 4.37348 3.7423 4.51853 3.54169 4.5597L1.60731 4.94547C1.48163 4.9705 1.36807 5.03683 1.28451 5.13399C1.20108 5.23113 1.15237 5.35345 1.14645 5.48141V13.1437C1.14645 13.5985 1.32716 14.0346 1.64875 14.3562C1.97034 14.6778 2.40644 14.8583 2.86123 14.8583H14.2906C14.7454 14.8583 15.1815 14.6778 15.5031 14.3562C15.8247 14.0346 16.0052 13.5985 16.0052 13.1437V5.50828C15.9993 5.38032 15.9507 5.25801 15.8673 5.16085C15.7838 5.0637 15.6701 4.99737 15.5445 4.97234L13.6048 4.58657C13.4041 4.5454 13.2408 4.40048 13.1761 4.20618L12.5546 2.31472C12.4419 1.97618 12.2266 1.68121 11.9384 1.47078C11.6503 1.26047 11.3037 1.14529 10.947 1.14125L6.22084 1.14115Z" fill="#626262"/>
  <path d="M8.57296 13.144C7.51146 13.144 6.49326 12.7223 5.7427 11.9717C4.99201 11.221 4.57031 10.203 4.57031 9.14132C4.57031 8.07982 4.99201 7.06161 5.7427 6.31106C6.49326 5.56037 7.51146 5.13867 8.57296 5.13867C9.63447 5.13867 10.6527 5.56037 11.4032 6.31106C12.1539 7.06161 12.5756 8.07982 12.5756 9.14132C12.5743 10.2024 12.152 11.2198 11.4017 11.9701C10.6513 12.7204 9.63409 13.1426 8.57296 13.144V13.144ZM8.57296 6.28533C7.81555 6.28533 7.08908 6.5862 6.5534 7.12186C6.01786 7.6574 5.717 8.38388 5.717 9.14129C5.717 9.8987 6.01787 10.6252 6.5534 11.1609C7.08908 11.6964 7.81555 11.9973 8.57296 11.9973C9.33037 11.9973 10.0569 11.6964 10.5925 11.1609C11.1281 10.6252 11.4289 9.8987 11.4289 9.14129C11.4276 8.38426 11.1262 7.65861 10.5909 7.12334C10.0556 6.58808 9.32999 6.28667 8.57296 6.28533V6.28533Z" fill="#626262"/>
</svg>
