<?xml version="1.0" encoding="utf-8"?>
<!-- Generator: Adobe Illustrator 21.1.0, SVG Export Plug-In . SVG Version: 6.00 Build 0)  -->
<svg version="1.1" id="Layer_1" xmlns="http://www.w3.org/2000/svg" xmlns:xlink="http://www.w3.org/1999/xlink" x="0px" y="0px"
	 viewBox="0 0 34.4 32.5" style="enable-background:new 0 0 34.4 32.5;" xml:space="preserve">
<style type="text/css">
	.st0{fill:#FFFFFF;}
</style>
<path class="st0" d="M6.8,12.9c0,0.7,0.6,1.3,1.3,1.3c0.7,0,1.3-0.6,1.3-1.3v-2.6h2.6c0.7,0,1.3-0.6,1.3-1.3s-0.6-1.3-1.3-1.3H9.3
	V5.3C9.3,4.6,8.8,4,8.1,4C7.4,4,6.8,4.6,6.8,5.3v2.6H4.2C3.5,7.8,3,8.4,3,9.1s0.6,1.3,1.3,1.3h2.6V12.9z"/>
<path class="st0" d="M19.6,24.4c2.1,0,3.8-1.7,3.8-3.8c0-2.1-1.7-3.8-3.8-3.8c-2.1,0-3.8,1.7-3.8,3.8C15.7,22.7,17.4,24.4,19.6,24.4
	z"/>
<path class="st0" d="M29.8,10.4h-4l-1.6-1.7c-0.2-0.3-0.5-0.5-0.9-0.6c-0.3-0.1-0.7-0.2-1-0.2h-8.2c0.2,0.4,0.4,0.8,0.4,1.3
	c0,1.4-1.1,2.6-2.6,2.6h-1.3v1.3c0,1.4-1.1,2.6-2.6,2.6c-0.5,0-0.9-0.1-1.3-0.4v13.1c0,1.4,1.1,2.6,2.6,2.6h20.4
	c1.4,0,2.6-1.1,2.6-2.6V12.9C32.3,11.5,31.2,10.4,29.8,10.4z M19.6,27c-3.5,0-6.4-2.9-6.4-6.4s2.9-6.4,6.4-6.4s6.4,2.9,6.4,6.4
	S23.1,27,19.6,27z"/>
</svg>
