<svg width="18" height="16" viewBox="0 0 18 16" fill="none" xmlns="http://www.w3.org/2000/svg">
<path d="M16.8094 7.79112C15.1244 5.02224 12.1694 3.34668 8.89937 3.34668C5.62937 3.34668 2.66937 5.02224 0.999375 7.79112L0.859375 8.00001L0.989375 8.21335C2.67437 10.9822 5.62937 12.6578 8.89937 12.6578C12.1694 12.6578 15.1294 11.0045 16.8094 8.21335L16.9394 8.00001L16.8094 7.79112ZM8.89937 11.7467C6.08437 11.7467 3.49937 10.3511 1.99937 8.00001C3.49937 5.6489 6.08437 4.25335 8.89937 4.25335C11.7144 4.25335 14.2694 5.65335 15.7944 8.00001C14.2694 10.3511 11.7094 11.7467 8.89937 11.7467Z" fill="black"/>
<path d="M9.04559 4.96492C8.36765 4.96932 7.70638 5.1522 7.1453 5.49047C6.58423 5.82874 6.14851 6.30722 5.89318 6.86548C5.63785 7.42374 5.57436 8.03673 5.71074 8.62704C5.84712 9.21736 6.17724 9.7585 6.65941 10.1821C7.14159 10.6058 7.75418 10.8929 8.41982 11.0072C9.08547 11.1216 9.7743 11.058 10.3993 10.8246C11.0244 10.5911 11.5575 10.1983 11.9315 9.69563C12.3055 9.19299 12.5035 8.6031 12.5006 8.00048C12.4986 7.59934 12.4076 7.20249 12.2328 6.83267C12.058 6.46284 11.8028 6.12732 11.4818 5.84533C11.1609 5.56333 10.7805 5.34041 10.3624 5.18933C9.94436 5.03826 9.49687 4.962 9.04559 4.96492ZM9.04559 10.1738C8.56672 10.1694 8.09998 10.0394 7.704 9.79995C7.30802 9.56054 7.00045 9.22247 6.81992 8.82819C6.63938 8.43391 6.59394 8.001 6.6893 7.58383C6.78466 7.16667 7.01656 6.78386 7.35588 6.48346C7.6952 6.18307 8.12682 5.9785 8.59651 5.89544C9.0662 5.81238 9.55304 5.85454 9.99586 6.01662C10.4387 6.1787 10.8178 6.45348 11.0855 6.80644C11.3532 7.1594 11.4976 7.5748 11.5006 8.00048C11.5019 8.28697 11.4393 8.57084 11.3162 8.83564C11.1932 9.10044 11.0123 9.34089 10.7839 9.54306C10.5555 9.74522 10.2843 9.90508 9.98589 10.0134C9.6875 10.1216 9.36789 10.1762 9.04559 10.1738Z" fill="black"/>
</svg>
