<svg width="20" height="23" viewBox="0 0 20 23" fill="none" xmlns="http://www.w3.org/2000/svg">
  <path d="M7.95265 12.7379L12.3408 8.38044L11.5609 7.60602L7.17254 11.9637C6.55823 12.5739 6.23864 13.3671 6.23864 14.1491C6.23731 14.8356 6.49068 15.5231 7.00965 16.038L7.07299 16.1009L7.08855 16.1084C7.59728 16.5745 8.25447 16.8047 8.91191 16.8036C9.69913 16.8034 10.4979 16.4861 11.1127 15.8763L18.2936 8.7456C19.4199 7.62687 19.9998 6.17712 20 4.762C20.0013 3.59581 19.5957 2.44731 18.7807 1.54932V1.53167L18.6191 1.37122C17.6923 0.450239 16.4566 -0.00129667 15.2044 2.79668e-06C13.7794 0.00022348 12.3196 0.576231 11.193 1.69451L2.47875 10.349C0.840078 11.9764 2.20277e-06 14.082 2.20277e-06 16.131C-0.00133128 17.8562 0.602763 19.5496 1.82911 20.8544V20.863L1.99068 21.0235C3.32576 22.35 5.10462 23.0011 6.91757 23C8.98075 22.9998 11.101 22.1653 12.7404 20.5386L18.1786 15.1383L17.3988 14.3639L11.96 19.7637C10.5258 21.1881 8.68113 21.9047 6.91757 21.9045C5.36538 21.9032 3.88585 21.355 2.77079 20.2488L2.77057 20.2486C1.65642 19.1411 1.10413 17.6721 1.10299 16.1303C1.10277 14.3789 1.82444 12.5471 3.25908 11.1232L11.9739 2.46928C12.896 1.55339 14.0798 1.09524 15.2057 1.09547C16.1972 1.09679 17.1337 1.44505 17.8403 2.146C18.5459 2.84782 18.8968 3.77762 18.8982 4.76216C18.8984 5.88021 18.4373 7.05567 17.5147 7.97134L10.3332 15.1026C9.92341 15.5098 9.40065 15.7095 8.91214 15.709C8.48164 15.7077 8.08828 15.5594 7.78997 15.2639C7.4926 14.9677 7.34324 14.5771 7.34191 14.1496C7.34169 13.6647 7.54283 13.1456 7.95287 12.7386L7.95265 12.7379Z" fill="#4E4E4E"/>
</svg>
