<svg width="20" height="21" viewBox="0 0 20 21" fill="none" xmlns="http://www.w3.org/2000/svg">
<path d="M11.8 2.80616C11.8 2.17526 11.2888 1.66406 10.6579 1.66406H9.343C8.7112 1.66406 8.2 2.17526 8.2 2.80616C8.2 3.32636 7.8436 3.77276 7.3585 3.96356C7.282 3.99416 7.2055 4.02656 7.1308 4.05896C6.6529 4.26596 6.085 4.20296 5.716 3.83486C5.50184 3.62085 5.21146 3.50064 4.9087 3.50064C4.60594 3.50064 4.31556 3.62085 4.1014 3.83486L3.1708 4.76546C2.95679 4.97962 2.83657 5.27 2.83657 5.57276C2.83657 5.87553 2.95679 6.1659 3.1708 6.38006C3.5398 6.74906 3.6028 7.31606 3.394 7.79486C3.36119 7.87021 3.32969 7.94612 3.2995 8.02256C3.1087 8.50766 2.6623 8.86406 2.1421 8.86406C1.5112 8.86406 1 9.37526 1 10.0062V11.322C1 11.9529 1.5112 12.4641 2.1421 12.4641C2.6623 12.4641 3.1087 12.8205 3.2995 13.3056C3.3301 13.3821 3.3625 13.4586 3.394 13.5333C3.6019 14.0112 3.5389 14.5791 3.1708 14.9481C2.95679 15.1622 2.83657 15.4526 2.83657 15.7554C2.83657 16.0581 2.95679 16.3485 3.1708 16.5627L4.1014 17.4933C4.31556 17.7073 4.60594 17.8275 4.9087 17.8275C5.21146 17.8275 5.50184 17.7073 5.716 17.4933C6.085 17.1243 6.652 17.0613 7.1308 17.2692C7.2055 17.3025 7.282 17.334 7.3585 17.3646C7.8436 17.5554 8.2 18.0018 8.2 18.522C8.2 19.1529 8.7112 19.6641 9.3421 19.6641H10.6579C11.2888 19.6641 11.8 19.1529 11.8 18.522C11.8 18.0018 12.1564 17.5554 12.6415 17.3637C12.718 17.334 12.7945 17.3025 12.8692 17.2701C13.3471 17.0613 13.915 17.1252 14.2831 17.4933C14.3892 17.5994 14.5151 17.6835 14.6537 17.741C14.7923 17.7984 14.9408 17.8279 15.0908 17.8279C15.2409 17.8279 15.3894 17.7984 15.528 17.741C15.6666 17.6835 15.7925 17.5994 15.8986 17.4933L16.8292 16.5627C17.0432 16.3485 17.1634 16.0581 17.1634 15.7554C17.1634 15.4526 17.0432 15.1622 16.8292 14.9481C16.4602 14.5791 16.3972 14.0121 16.6051 13.5333C16.6384 13.4586 16.6699 13.3821 16.7005 13.3056C16.8913 12.8205 17.3377 12.4641 17.8579 12.4641C18.4888 12.4641 19 11.9529 19 11.322V10.0071C19 9.37616 18.4888 8.86496 17.8579 8.86496C17.3377 8.86496 16.8913 8.50856 16.6996 8.02346C16.6694 7.94701 16.6379 7.8711 16.6051 7.79576C16.3981 7.31786 16.4611 6.74996 16.8292 6.38096C17.0432 6.1668 17.1634 5.87643 17.1634 5.57366C17.1634 5.2709 17.0432 4.98052 16.8292 4.76636L15.8986 3.83576C15.6844 3.62175 15.3941 3.50154 15.0913 3.50154C14.7885 3.50154 14.4982 3.62175 14.284 3.83576C13.915 4.20476 13.348 4.26776 12.8692 4.05986C12.7939 4.02675 12.7179 3.99494 12.6415 3.96446C12.1564 3.77276 11.8 3.32636 11.8 2.80706V2.80616Z" stroke="#6F6F6F" stroke-width="2"/>
<path d="M13.5984 10.6645C13.5984 11.6192 13.2192 12.5349 12.544 13.21C11.8689 13.8852 10.9532 14.2645 9.99844 14.2645C9.04366 14.2645 8.12798 13.8852 7.45285 13.21C6.77772 12.5349 6.39844 11.6192 6.39844 10.6645C6.39844 9.70967 6.77772 8.794 7.45285 8.11887C8.12798 7.44374 9.04366 7.06445 9.99844 7.06445C10.9532 7.06445 11.8689 7.44374 12.544 8.11887C13.2192 8.794 13.5984 9.70967 13.5984 10.6645V10.6645Z" stroke="#6F6F6F" stroke-width="2"/>
</svg>
