<svg width="30" height="30" viewBox="0 0 30 30" fill="none" xmlns="http://www.w3.org/2000/svg">
<rect width="30" height="30" rx="4" fill="#FFDCDC"/>
<path d="M13 13.5C13.1326 13.5 13.2598 13.5527 13.3536 13.6464C13.4473 13.7402 13.5 13.8674 13.5 14V20C13.5 20.1326 13.4473 20.2598 13.3536 20.3536C13.2598 20.4473 13.1326 20.5 13 20.5C12.8674 20.5 12.7402 20.4473 12.6464 20.3536C12.5527 20.2598 12.5 20.1326 12.5 20V14C12.5 13.8674 12.5527 13.7402 12.6464 13.6464C12.7402 13.5527 12.8674 13.5 13 13.5V13.5ZM15.5 13.5C15.6326 13.5 15.7598 13.5527 15.8536 13.6464C15.9473 13.7402 16 13.8674 16 14V20C16 20.1326 15.9473 20.2598 15.8536 20.3536C15.7598 20.4473 15.6326 20.5 15.5 20.5C15.3674 20.5 15.2402 20.4473 15.1464 20.3536C15.0527 20.2598 15 20.1326 15 20V14C15 13.8674 15.0527 13.7402 15.1464 13.6464C15.2402 13.5527 15.3674 13.5 15.5 13.5V13.5ZM18.5 14C18.5 13.8674 18.4473 13.7402 18.3536 13.6464C18.2598 13.5527 18.1326 13.5 18 13.5C17.8674 13.5 17.7402 13.5527 17.6464 13.6464C17.5527 13.7402 17.5 13.8674 17.5 14V20C17.5 20.1326 17.5527 20.2598 17.6464 20.3536C17.7402 20.4473 17.8674 20.5 18 20.5C18.1326 20.5 18.2598 20.4473 18.3536 20.3536C18.4473 20.2598 18.5 20.1326 18.5 20V14Z" fill="#FF8181"/>
<path fill-rule="evenodd" clip-rule="evenodd" d="M22 11C22 11.2652 21.8946 11.5196 21.7071 11.7071C21.5196 11.8946 21.2652 12 21 12H20.5V21C20.5 21.5304 20.2893 22.0391 19.9142 22.4142C19.5391 22.7893 19.0304 23 18.5 23H12.5C11.9696 23 11.4609 22.7893 11.0858 22.4142C10.7107 22.0391 10.5 21.5304 10.5 21V12H10C9.73478 12 9.48043 11.8946 9.29289 11.7071C9.10536 11.5196 9 11.2652 9 11V10C9 9.73478 9.10536 9.48043 9.29289 9.29289C9.48043 9.10536 9.73478 9 10 9H13.5C13.5 8.73478 13.6054 8.48043 13.7929 8.29289C13.9804 8.10536 14.2348 8 14.5 8H16.5C16.7652 8 17.0196 8.10536 17.2071 8.29289C17.3946 8.48043 17.5 8.73478 17.5 9H21C21.2652 9 21.5196 9.10536 21.7071 9.29289C21.8946 9.48043 22 9.73478 22 10V11ZM11.618 12L11.5 12.059V21C11.5 21.2652 11.6054 21.5196 11.7929 21.7071C11.9804 21.8946 12.2348 22 12.5 22H18.5C18.7652 22 19.0196 21.8946 19.2071 21.7071C19.3946 21.5196 19.5 21.2652 19.5 21V12.059L19.382 12H11.618ZM10 11V10H21V11H10Z" fill="#FF8181"/>
</svg>
