<svg width="22" height="22" viewBox="0 0 22 22" fill="none" xmlns="http://www.w3.org/2000/svg">
<circle cx="11" cy="11" r="10.5" fill="white" stroke="#999999"/>
<path d="M9.16797 9.16699H10.0846V14.667H9.16797V9.16699Z" fill="#999999"/>
<path d="M11.918 9.16699H12.8346V14.667H11.918V9.16699Z" fill="#999999"/>
<path d="M5.5 6.41699V7.33366H6.41667V16.5003C6.41667 16.7434 6.51324 16.9766 6.68515 17.1485C6.85706 17.3204 7.09022 17.417 7.33333 17.417H14.6667C14.9098 17.417 15.1429 17.3204 15.3148 17.1485C15.4868 16.9766 15.5833 16.7434 15.5833 16.5003V7.33366H16.5V6.41699H5.5ZM7.33333 16.5003V7.33366H14.6667V16.5003H7.33333Z" fill="#999999"/>
<path d="M9.16797 4.58398H12.8346V5.50065H9.16797V4.58398Z" fill="#999999"/>
</svg>
