<svg width="10" height="7" viewBox="0 0 10 7" fill="none" xmlns="http://www.w3.org/2000/svg">
<path d="M4.65921 6.15636C4.69744 6.21187 4.74859 6.25727 4.80825 6.28862C4.86792 6.31998 4.93431 6.33637 5.00171 6.33637C5.06912 6.33637 5.13551 6.31998 5.19518 6.28862C5.25484 6.25727 5.30599 6.21187 5.34421 6.15636L9.09421 0.739688C9.13762 0.677211 9.16307 0.604034 9.16781 0.528107C9.17255 0.452179 9.15639 0.376406 9.12108 0.309018C9.08578 0.241631 9.03268 0.185208 8.96756 0.145878C8.90244 0.106549 8.82779 0.0858182 8.75171 0.085938H1.25171C1.17581 0.0862515 1.10144 0.107249 1.03658 0.146673C0.971723 0.186096 0.918839 0.242454 0.883617 0.309685C0.848394 0.376916 0.832165 0.452478 0.836675 0.528243C0.841185 0.604008 0.866264 0.67711 0.909213 0.739688L4.65921 6.15636Z" fill="#626262"/>
</svg>
