<svg width="30" height="30" viewBox="0 0 30 30" fill="none" xmlns="http://www.w3.org/2000/svg">
<rect width="30" height="30" rx="4" fill="#D5E6FC"/>
<g clip-path="url(#clip0_1951_145708)">
<path d="M22.1136 11.4662L19.6677 9.00791C19.5061 8.84711 19.2874 8.75684 19.0594 8.75684C18.8314 8.75684 18.6127 8.84711 18.4511 9.00791L9.78023 17.6662L8.98856 21.0829C8.96125 21.2078 8.96219 21.3372 8.9913 21.4617C9.02042 21.5862 9.07697 21.7026 9.15684 21.8025C9.2367 21.9023 9.33786 21.983 9.45293 22.0388C9.56799 22.0945 9.69405 22.1238 9.82189 22.1246C9.88147 22.1306 9.94149 22.1306 10.0011 22.1246L13.4552 21.3329L22.1136 12.6829C22.2744 12.5213 22.3646 12.3026 22.3646 12.0746C22.3646 11.8466 22.2744 11.6279 22.1136 11.4662ZM13.0386 20.5829L9.80106 21.2621L10.5386 18.0871L17.0261 11.6246L19.5261 14.1246L13.0386 20.5829ZM20.0844 13.5204L17.5844 11.0204L19.0344 9.57875L21.4927 12.0787L20.0844 13.5204Z" fill="#1874EC"/>
</g>
<defs>
<clipPath id="clip0_1951_145708">
<rect width="15" height="15" fill="white" transform="translate(8 8)"/>
</clipPath>
</defs>
</svg>
