<svg width="18" height="18" viewBox="0 0 18 18" fill="none" xmlns="http://www.w3.org/2000/svg">
<path d="M1.36261 17.9971C1.30838 17.9971 1.25635 17.9757 1.21781 17.9375L0.059402 16.7842C-0.0200458 16.7048 -0.0200458 16.5741 0.059402 16.4946L3.99595 12.5581L2.59406 11.1562C2.47617 11.0357 2.54537 10.8307 2.71452 10.8102L7.56344 10.2079C7.69671 10.1926 7.80691 10.3028 7.79153 10.436L7.18926 15.2824C7.18485 15.3204 7.16983 15.3564 7.14591 15.3862C7.12199 15.416 7.09015 15.4385 7.05404 15.4511C7.01792 15.4637 6.97899 15.4658 6.94172 15.4573C6.90444 15.4487 6.87032 15.4299 6.84328 15.4028L5.4414 14.001L1.50741 17.9375C1.46888 17.9757 1.41684 17.9971 1.36261 17.9971Z" fill="#626262"/>
<path d="M16.6374 0C16.6916 0 16.7437 0.0214038 16.7822 0.0595601L17.9406 1.21284C18.02 1.29229 18.02 1.423 17.9406 1.50245L14.0041 5.43899L15.4059 6.84087C15.5238 6.96133 15.4546 7.16636 15.2855 7.18686L10.4366 7.78913C10.3033 7.80451 10.1931 7.6943 10.2085 7.56103L10.8107 2.71468C10.8151 2.67669 10.8302 2.64072 10.8541 2.61088C10.878 2.58104 10.9098 2.55855 10.946 2.54597C10.9821 2.5334 11.021 2.53126 11.0583 2.53979C11.0956 2.54833 11.1297 2.56719 11.1567 2.59422L12.5586 3.99611L16.4926 0.0595601C16.5311 0.0214038 16.5832 0 16.6374 0Z" fill="#626262"/>
</svg>
