<svg width="377" height="157" viewBox="0 0 377 157" fill="none" xmlns="http://www.w3.org/2000/svg">
<path d="M115.88 108.72L117.065 113.142L95.7665 118.849L88.1572 90.451L108.888 84.8963L110.073 89.3183L94.616 93.4599L96.5944 100.843L110.307 97.1692L111.47 101.51L97.7576 105.184L99.8556 113.014L115.88 108.72ZM143.36 106.097L135.791 100.081L132.204 109.086L126.605 110.586L132.098 97.3308L121.165 88.8244L126.805 87.3135L134.021 92.989L137.434 84.4654L142.91 82.9979L137.634 95.7605L149.08 104.564L143.36 106.097ZM166.466 76.4253C168.576 75.86 170.579 75.8161 172.475 76.2936C174.398 76.7639 176.058 77.7106 177.454 79.1338C178.849 80.557 179.841 82.364 180.428 84.5547C181.015 86.7454 181.063 88.8196 180.573 90.7771C180.076 92.7076 179.112 94.3573 177.682 95.7261C176.278 97.0878 174.522 98.0512 172.412 98.6165C169.491 99.3991 166.918 99.0451 164.692 97.5543L167.508 108.062L162.437 109.42L154.523 79.8863L159.351 78.5928L160.112 81.4326C160.675 80.1802 161.496 79.134 162.575 78.294C163.682 77.4468 164.979 76.8239 166.466 76.4253ZM170.681 94.4278C172.547 93.9277 173.909 92.8962 174.765 91.3333C175.649 89.763 175.819 87.9637 175.276 85.9353C174.732 83.9068 173.685 82.4336 172.135 81.5156C170.611 80.5903 168.917 80.3777 167.05 80.8778C165.833 81.2039 164.814 81.7814 163.993 82.6102C163.164 83.412 162.603 84.4029 162.311 85.5828C162.018 86.7628 162.053 88.0289 162.415 89.3812C162.778 90.7335 163.381 91.8474 164.224 92.723C165.067 93.5985 166.052 94.1898 167.178 94.4969C168.296 94.7769 169.464 94.7539 170.681 94.4278ZM189.84 70.4231L194.911 69.0643L200.716 90.7281L195.645 92.0869L189.84 70.4231ZM191.439 66.1682C190.52 66.4146 189.673 66.3372 188.899 65.9359C188.117 65.5076 187.61 64.8607 187.379 63.9952C187.147 63.1297 187.266 62.3297 187.735 61.595C188.198 60.8333 188.889 60.3293 189.809 60.0829C190.728 59.8365 191.575 59.914 192.349 60.3152C193.116 60.6895 193.612 61.2958 193.837 62.1342C194.076 63.0268 193.968 63.8674 193.513 64.6561C193.077 65.4106 192.386 65.9146 191.439 66.1682ZM214.748 67.1407C215.6 64.4775 217.865 62.6531 221.543 61.6675L222.836 66.4952C222.382 66.53 221.979 66.5945 221.627 66.6888C219.653 67.2178 218.267 68.2123 217.47 69.6724C216.665 71.1055 216.553 72.9039 217.133 75.0675L219.948 85.5749L214.877 86.9337L209.072 65.2699L213.9 63.9763L214.748 67.1407ZM256.518 64.297C256.612 64.6486 256.719 65.1562 256.839 65.8198L239.84 70.3745C240.565 71.8904 241.677 72.9551 243.175 73.5683C244.692 74.1473 246.384 74.1867 248.25 73.6867C250.63 73.049 252.381 71.7392 253.502 69.7575L257.057 72.153C256.395 73.5768 255.4 74.7856 254.072 75.7792C252.744 76.7727 251.147 77.5196 249.281 78.0196C246.901 78.6573 244.678 78.7457 242.612 78.2846C240.546 77.8235 238.789 76.8887 237.339 75.4799C235.908 74.0369 234.907 72.2471 234.334 70.1105C233.769 68.0009 233.735 65.9809 234.233 64.0504C234.75 62.0856 235.733 60.4016 237.184 58.9985C238.634 57.5953 240.427 56.6075 242.564 56.035C244.673 55.4697 246.68 55.4393 248.583 55.9439C250.507 56.4141 252.156 57.378 253.532 58.8355C254.928 60.2587 255.923 62.0792 256.518 64.297ZM243.651 60.0918C242.028 60.5267 240.779 61.3831 239.904 62.6611C239.049 63.9048 238.713 65.3572 238.898 67.0181L251.19 63.7244C250.553 62.2137 249.55 61.1201 248.18 60.4435C246.81 59.767 245.301 59.6498 243.651 60.0918ZM284.916 35.9036L292.981 66.0057L288.113 67.3101L287.363 64.5109C286.8 65.7633 285.965 66.8131 284.859 67.6603C283.779 68.5003 282.496 69.1196 281.008 69.5182C278.926 70.0762 276.923 70.1201 275 69.6498C273.104 69.1723 271.458 68.222 270.062 66.7988C268.658 65.3485 267.663 63.528 267.076 61.3373C266.489 59.1466 266.445 57.086 266.942 55.1555C267.439 53.225 268.389 51.579 269.793 50.2173C271.223 48.8485 272.98 47.885 275.062 47.327C276.496 46.9429 277.873 46.8349 279.193 47.0028C280.514 47.1708 281.724 47.6293 282.823 48.3783L279.844 37.2624L284.916 35.9036ZM280.454 65.0143C281.671 64.6881 282.694 64.1242 283.523 63.3224C284.344 62.4935 284.901 61.4891 285.194 60.3092C285.486 59.1293 285.451 57.8632 285.089 56.5109C284.727 55.1586 284.124 54.0446 283.28 53.1691C282.437 52.2935 281.456 51.7157 280.338 51.4357C279.212 51.1286 278.04 51.1381 276.823 51.4642C275.606 51.7904 274.587 52.3678 273.765 53.1967C272.937 53.9985 272.376 54.9894 272.083 56.1693C271.791 57.3492 271.826 58.6154 272.188 59.9676C272.55 61.3199 273.153 62.4339 273.997 63.3094C274.84 64.185 275.825 64.7763 276.95 65.0834C278.069 65.3634 279.237 65.3404 280.454 65.0143Z" fill="#DE0100"/>
<rect x="0.612372" y="96.8868" width="371.974" height="61" transform="rotate(-15 0.612372 96.8868)" stroke="black"/>
</svg>
