<svg width="21" height="15" viewBox="0 0 21 15" fill="none" xmlns="http://www.w3.org/2000/svg">
<path d="M19.4589 6.53614C19.9149 7.11186 19.9149 7.88907 19.4589 8.46386C18.0229 10.2736 14.5774 14 10.5549 14C6.53233 14 3.08691 10.2736 1.65083 8.46386C1.42901 8.18819 1.30859 7.84907 1.30859 7.5C1.30859 7.15093 1.42901 6.81181 1.65083 6.53614C3.08691 4.72636 6.53233 1 10.5549 1C14.5774 1 18.0229 4.72636 19.4589 6.53614V6.53614Z" stroke="#6F88EA " stroke-linecap="round" stroke-linejoin="round"/>
<path d="M10.5536 10.2863C12.1473 10.2863 13.4392 9.03907 13.4392 7.50056C13.4392 5.96205 12.1473 4.71484 10.5536 4.71484C8.9599 4.71484 7.66797 5.96205 7.66797 7.50056C7.66797 9.03907 8.9599 10.2863 10.5536 10.2863Z" stroke="#6F88EA " stroke-linecap="round" stroke-linejoin="round"/>
</svg>
