<svg width="23" height="14" viewBox="0 0 23 14" fill="none" xmlns="http://www.w3.org/2000/svg">
  <path d="M21.6117 6.11029C22.1294 6.64171 22.1294 7.35914 21.6117 7.88971C19.9809 9.56029 16.0682 13 11.5002 13C6.93212 13 3.01947 9.56029 1.38865 7.88971C1.13674 7.63526 1 7.32222 1 7C1 6.67778 1.13674 6.36474 1.38865 6.11029C3.01947 4.43971 6.93212 1 11.5002 1C16.0682 1 19.9809 4.43971 21.6117 6.11029V6.11029Z" stroke="#FF8181" stroke-width="1.5" stroke-linecap="round" stroke-linejoin="round"/>
  <path d="M11.5035 9.57152C13.3133 9.57152 14.7804 8.42026 14.7804 7.00011C14.7804 5.57997 13.3133 4.42871 11.5035 4.42871C9.69369 4.42871 8.22656 5.57997 8.22656 7.00011C8.22656 8.42026 9.69369 9.57152 11.5035 9.57152Z" stroke="#FF8181" stroke-width="1.5" stroke-linecap="round" stroke-linejoin="round"/>
  <path d="M21.6117 6.11029C22.1294 6.64171 22.1294 7.35914 21.6117 7.88971C19.9809 9.56029 16.0682 13 11.5002 13C6.93212 13 3.01947 9.56029 1.38865 7.88971C1.13674 7.63526 1 7.32222 1 7C1 6.67778 1.13674 6.36474 1.38865 6.11029C3.01947 4.43971 6.93212 1 11.5002 1C16.0682 1 19.9809 4.43971 21.6117 6.11029V6.11029Z" stroke="#999999" stroke-width="1.5" stroke-linecap="round" stroke-linejoin="round"/>
  <path d="M11.5035 9.57152C13.3133 9.57152 14.7804 8.42026 14.7804 7.00011C14.7804 5.57997 13.3133 4.42871 11.5035 4.42871C9.69369 4.42871 8.22656 5.57997 8.22656 7.00011C8.22656 8.42026 9.69369 9.57152 11.5035 9.57152Z" stroke="#999999" stroke-width="1.5" stroke-linecap="round" stroke-linejoin="round"/>
</svg>
