<svg width="24" height="24" viewBox="0 0 24 24" fill="none" xmlns="http://www.w3.org/2000/svg">
<path d="M12 24C18.6274 24 24 18.6274 24 12C24 5.37258 18.6274 0 12 0C5.37258 0 0 5.37258 0 12C0 18.6274 5.37258 24 12 24Z" fill="#1977F3"/>
<path d="M16.6717 15.4708L17.2033 12.0012H13.8755V9.75008C13.8755 8.80169 14.3396 7.87524 15.8313 7.87524H17.345V4.92207C17.345 4.92207 15.9714 4.6875 14.6585 4.6875C11.918 4.6875 10.1258 6.34803 10.1258 9.35689V12.0012H7.07812V15.4708H10.1258V23.8561C10.7367 23.9523 11.3628 24.0012 12.0006 24.0012C12.6385 24.0012 13.2646 23.9506 13.8755 23.8561V15.4708H16.6717Z" fill="white"/>
</svg>
