<svg width="16" height="19" viewBox="0 0 16 19" fill="none" xmlns="http://www.w3.org/2000/svg">
  <path d="M15.9992 2.12113V17.7331C15.9989 18.0303 15.8814 18.3152 15.6729 18.5254C15.4643 18.7355 15.1815 18.8536 14.8865 18.8542H1.11268C0.81774 18.8536 0.534953 18.7355 0.326303 18.5254C0.11783 18.3152 0.000361981 18.0303 0 17.7331V6.6336H3.40699C4.02463 6.63214 4.61666 6.3843 5.05354 5.94432C5.49025 5.50415 5.73643 4.90763 5.73768 4.28521V1H14.8865C15.1815 1.00055 15.4643 1.11872 15.6729 1.32875C15.8814 1.53898 15.9989 1.82399 15.9992 2.12113ZM12.6531 14.1044C12.6531 13.7656 12.3805 13.4907 12.044 13.4907H3.95513C3.61867 13.4907 3.34603 13.7656 3.34603 14.1044C3.34603 14.4434 3.61867 14.718 3.95513 14.718H12.044C12.3805 14.718 12.6531 14.4434 12.6531 14.1044ZM12.6531 9.92732C12.6531 9.58834 12.3805 9.31364 12.044 9.31364H3.95513C3.61867 9.31364 3.34603 9.58834 3.34603 9.92732C3.34603 10.2663 3.61867 10.541 3.95513 10.541H12.044C12.3805 10.541 12.6531 10.2663 12.6531 9.92732ZM12.6531 5.75028C12.6531 5.41129 12.3805 5.1366 12.044 5.1366H9.55085C9.21439 5.1366 8.94175 5.41129 8.94175 5.75028C8.94175 6.08908 9.21439 6.36396 9.55085 6.36396H12.0442C12.3807 6.36396 12.6531 6.08908 12.6531 5.75028Z" fill="#626262"/>
  <path d="M0 0H5V3C5 4.10457 4.10457 5 3 5H0V0Z" fill="#626262"/>
</svg>
