<svg width="21" height="16" viewBox="0 0 21 16" fill="none" xmlns="http://www.w3.org/2000/svg">
  <path d="M18.2 6.44802e-08H2.8C2.05736 -0.000162261 1.345 0.306167 0.81984 0.851774C0.29468 1.39738 -0.000159935 2.1375 6.5086e-08 2.90906V13.0908C0.00156255 13.7924 0.24672 14.47 0.69032 14.9989C1.13392 15.5279 1.74624 15.8731 2.415 15.9708C2.54234 15.9916 2.67109 16.0013 2.8 15.9999H18.2C18.9426 16 19.655 15.6937 20.1802 15.1481C20.7053 14.6025 21.0002 13.8624 21 13.0908V2.90907C21.0002 2.13751 20.7053 1.3974 20.1802 0.851783C19.655 0.306168 18.9426 -0.000166168 18.2 6.44802e-08ZM3.85 5.09086C3.57156 5.09086 3.30436 4.97593 3.10752 4.77138C2.91068 4.56684 2.80002 4.28923 2.80002 3.99998C2.80002 3.71074 2.91064 3.43309 3.10752 3.22858C3.3044 3.02408 3.5716 2.90911 3.85 2.90911C4.1284 2.90911 4.39564 3.02404 4.59248 3.22858C4.78932 3.43313 4.89998 3.71074 4.89998 3.99998C4.8992 4.2891 4.78826 4.56605 4.59154 4.77043C4.39482 4.97481 4.12828 5.09005 3.85 5.09086ZM19.6 13.0908C19.5989 13.4762 19.4511 13.8455 19.1888 14.1181C18.9264 14.3906 18.571 14.5442 18.2 14.5453H4.6408L11.6128 7.30923C11.7897 7.12725 11.9928 6.97514 12.2148 6.85824C12.6825 6.61409 13.2116 6.52626 13.7292 6.60694C14.2468 6.68779 14.7278 6.93308 15.1058 7.30919L19.5998 11.9712L19.6 13.0908Z" fill="#626262"/>
</svg>
