<svg width="22" height="22" viewBox="0 0 22 22" fill="none" xmlns="http://www.w3.org/2000/svg">
<circle cx="11" cy="11" r="10" stroke="#667799" stroke-width="2"/>
<path fill-rule="evenodd" clip-rule="evenodd" d="M10.0479 16.334C10.0479 16.8863 10.4956 17.334 11.0479 17.334C11.6001 17.334 12.0479 16.8863 12.0479 16.334V12.0254H16.3335C16.8858 12.0254 17.3335 11.5777 17.3335 11.0254C17.3335 10.4731 16.8858 10.0254 16.3335 10.0254H12.0479V6.00049C12.0479 5.4482 11.6001 5.00049 11.0479 5.00049C10.4956 5.00049 10.0479 5.4482 10.0479 6.00049V10.0254H6C5.44772 10.0254 5 10.4731 5 11.0254C5 11.5777 5.44772 12.0254 6 12.0254H10.0479V16.334Z" fill="#667799"/>
</svg>
