<svg width="23" height="14" viewBox="0 0 23 14" fill="none" xmlns="http://www.w3.org/2000/svg">
<path d="M21.6117 5.997C22.1294 6.52843 22.1294 7.24586 21.6117 7.77643C19.9809 9.447 16.0682 12.8867 11.5002 12.8867C6.93212 12.8867 3.01947 9.447 1.38865 7.77643C1.13674 7.52197 1 7.20893 1 6.88672C1 6.5645 1.13674 6.25146 1.38865 5.997C3.01947 4.32643 6.93212 0.886719 11.5002 0.886719C16.0682 0.886719 19.9809 4.32643 21.6117 5.997V5.997Z" stroke="#999999" stroke-width="1.5" stroke-linecap="round" stroke-linejoin="round"/>
<path d="M11.5035 9.45824C13.3133 9.45824 14.7804 8.30698 14.7804 6.88683C14.7804 5.46669 13.3133 4.31543 11.5035 4.31543C9.69369 4.31543 8.22656 5.46669 8.22656 6.88683C8.22656 8.30698 9.69369 9.45824 11.5035 9.45824Z" stroke="#999999" stroke-width="1.5" stroke-linecap="round" stroke-linejoin="round"/>
</svg>
