<svg width="69" height="51" viewBox="0 0 69 51" fill="none" xmlns="http://www.w3.org/2000/svg">
<path d="M33.7921 12.9374C34.6057 11.099 36.7841 10.8361 38.0129 11.9984C38.2173 12.1976 38.393 12.4235 38.535 12.6698C41.1339 17.0671 43.7288 21.4667 46.3198 25.8685C46.3765 25.9645 46.4365 26.0585 46.5464 26.2362C46.6237 25.5553 46.6921 24.9541 46.7591 24.3556C46.8972 23.1612 47.0084 21.9635 47.1694 20.7726C47.3413 19.4946 48.4734 18.6196 49.7795 18.7108C51.0497 18.8 51.9724 19.8411 52.0346 21.1206C52.0843 22.148 52.2515 23.1715 52.3799 24.1949C52.7177 26.9416 53.0368 29.6905 53.4091 32.4338C53.6943 34.5344 53.4609 36.5499 52.5699 38.4803C51.6374 40.5019 50.1925 42.0782 48.26 43.2167C47.5492 43.6355 46.8289 44.0386 46.1112 44.4464C42.07 46.7465 37.0114 45.4296 34.654 41.4504C32.4844 37.7908 30.3227 34.1261 28.1692 30.4565C27.071 28.5949 25.9631 26.7387 24.8766 24.8696C23.9939 23.3505 24.8076 21.478 26.5191 21.0831C26.8278 21.0116 27.1566 21.0232 27.5261 20.9925C27.4571 20.8652 27.3818 20.7331 27.3058 20.6038C27.0703 20.2013 26.8285 19.8023 26.5985 19.3972C26.1019 18.5236 26.0881 17.6357 26.6054 16.7764C27.1165 15.9286 27.9053 15.5235 28.9075 15.5269H29.2073C28.806 13.7565 29.1479 12.7297 30.3372 12.0924C31.4865 11.4748 32.6269 11.7485 33.7921 12.9374ZM41.6659 44.6582C43.1226 44.6357 44.283 44.3797 45.3508 43.7975C46.257 43.3039 47.1707 42.817 48.0355 42.2587C50.8059 40.4692 52.3544 37.9335 52.5478 34.6686C52.6092 33.6377 52.4587 32.5877 52.3406 31.5534C52.0491 29.0293 51.7189 26.5106 51.4074 23.9885C51.2928 23.0543 51.1574 22.1208 51.1029 21.1825C51.0531 20.3355 50.4992 19.6729 49.6814 19.6246C48.8636 19.5763 48.1702 20.1836 48.0756 21.0348C47.8334 23.21 47.5914 25.3858 47.3496 27.5619C47.3192 27.8384 47.2647 28.0883 46.9352 28.1455C46.6251 28.2 46.4828 27.993 46.3502 27.7669C44.5912 24.7732 42.8298 21.7819 41.0657 18.7932C39.95 16.9012 38.8346 15.009 37.7193 13.1165C37.3484 12.4853 36.8007 12.1564 36.0617 12.2354C34.8108 12.3716 34.1837 13.6435 34.824 14.7357C36.5682 17.7103 38.3179 20.6823 40.0732 23.6515C40.2404 23.9361 40.4186 24.216 40.5698 24.5081C40.7004 24.7573 40.6292 24.9793 40.3882 25.1209C40.1471 25.2625 39.9427 25.1951 39.779 24.9908C39.7047 24.8899 39.6377 24.7838 39.5787 24.6735C37.4191 21.0062 35.2589 17.3388 33.0979 13.6714C32.9931 13.4827 32.8625 13.309 32.7098 13.1553C32.422 12.8887 32.0474 12.7317 31.653 12.7124C31.2586 12.693 30.8701 12.8126 30.5569 13.0498C29.8821 13.5659 29.7149 14.449 30.1666 15.2191C31.6641 17.7712 33.1652 20.3212 34.6699 22.8691C35.3862 24.0852 36.1086 25.2972 36.8062 26.5236C36.8912 26.6734 36.8884 26.9178 36.829 27.0846C36.7924 27.1902 36.5528 27.3161 36.4436 27.2855C36.254 27.2268 36.091 27.105 35.9823 26.941C35.2619 25.7535 34.5629 24.5537 33.8584 23.3567C32.6745 21.3466 31.4909 19.3361 30.3075 17.3252C29.8586 16.566 29.0249 16.2602 28.2396 16.5537C27.2512 16.9241 26.8776 18.0299 27.435 18.9811C28.9545 21.5727 30.4786 24.1619 32.0073 26.7489C32.3886 27.3958 32.7719 28.0427 33.1497 28.6909C33.2989 28.9476 33.2492 29.1757 33.0005 29.3425C32.7774 29.4923 32.5171 29.4229 32.3437 29.1777C32.2843 29.0947 32.2373 29.0028 32.1855 28.9142C30.9883 26.8842 29.7923 24.8544 28.5974 22.8249C28.0828 21.9554 27.0827 21.6782 26.2587 22.1623C25.4513 22.639 25.2227 23.6236 25.7276 24.4774C26.1134 25.1352 26.5004 25.7934 26.8886 26.4521C29.7384 31.2852 32.5898 36.1173 35.4428 40.9486C36.8822 43.374 39.0841 44.5452 41.6659 44.6561V44.6582Z" fill="black"/>
<path d="M38.403 6.20855C38.1095 6.23851 37.5942 6.2889 37.0804 6.34473C36.6929 6.38559 36.4477 6.24328 36.398 5.943C36.3462 5.62842 36.5458 5.39418 36.9381 5.33018C42.3849 4.43683 47.5892 8.00955 48.5893 13.3806C48.6515 13.7169 48.4954 13.975 48.2033 14.0329C47.8862 14.0955 47.6466 13.9273 47.5733 13.5651C47.1292 11.3657 46.0407 9.54772 44.2518 8.15663C42.6066 6.8772 40.7217 6.23987 38.403 6.20855Z" fill="black"/>
<path d="M15.0254 23.2027C15.0475 20.5839 15.839 18.4588 17.3841 16.6019C17.572 16.3766 17.7882 16.254 18.0748 16.3704C18.1856 16.409 18.2776 16.4874 18.3324 16.5898C18.3872 16.6923 18.4008 16.8114 18.3704 16.9233C18.3374 17.0425 18.2771 17.1527 18.1943 17.2454C15.0116 21.1879 15.4142 26.3696 19.1702 29.7612C19.4603 30.024 19.5121 30.3311 19.3049 30.5619C19.0977 30.7927 18.7738 30.7866 18.4816 30.5286C16.2058 28.5165 15.073 25.9944 15.0254 23.2027Z" fill="black"/>
<path d="M38.6324 8.41748C41.9029 8.45084 44.7153 10.7421 45.3321 13.9008C45.406 14.2794 45.2575 14.5463 44.9378 14.609C44.6394 14.6675 44.4094 14.483 44.3223 14.1167C43.6317 11.1976 41.2246 9.34147 38.2892 9.47289C38.0599 9.4831 37.8319 9.52396 37.6033 9.54098C37.2469 9.57094 37.0107 9.41093 36.9658 9.11677C36.923 8.83692 37.1184 8.58635 37.4631 8.5346C37.8526 8.47876 38.2436 8.45561 38.6324 8.41748Z" fill="black"/>
<path d="M20.3761 18.3428C20.5653 18.4967 20.7787 18.5859 20.8126 18.7193C20.8513 18.9201 20.8202 19.1279 20.7242 19.309C20.3995 19.917 19.9271 20.4699 19.7109 21.1093C18.9229 23.4332 19.454 25.4841 21.2222 27.2123C21.5951 27.5772 21.6766 27.8585 21.4411 28.107C21.2056 28.3555 20.8886 28.3113 20.5135 27.9674C17.8799 25.5597 17.5767 21.5281 19.8332 18.7929C19.9679 18.626 20.1647 18.5137 20.3761 18.3428Z" fill="black"/>
<path d="M41.666 44.6558C39.0842 44.5449 36.8822 43.3737 35.4428 40.9476C32.5802 36.1223 29.7288 31.2901 26.8886 26.4511C26.5009 25.7947 26.1139 25.1365 25.7276 24.4765C25.2248 23.6192 25.4513 22.6326 26.2587 22.1614C27.0827 21.6772 28.0828 21.9571 28.5974 22.8239C29.7974 24.8516 30.9934 26.8814 32.1855 28.9133C32.2373 29.0018 32.2843 29.0937 32.3437 29.1768C32.5198 29.4219 32.7775 29.4913 33.0006 29.3415C33.2492 29.1747 33.2989 28.9466 33.1498 28.6899C32.7719 28.0403 32.39 27.3962 32.0074 26.748C30.4823 24.1605 28.9582 21.5713 27.435 18.9802C26.8776 18.0269 27.2513 16.9232 28.2396 16.5527C29.0249 16.2593 29.8586 16.565 30.3076 17.3242C31.4937 19.3338 32.6773 21.3441 33.8584 23.355C34.5629 24.552 35.2619 25.7518 35.9823 26.9393C36.091 27.1033 36.254 27.2251 36.4437 27.2838C36.55 27.3145 36.7925 27.1885 36.8291 27.083C36.8885 26.9162 36.8912 26.6744 36.8063 26.5219C36.1087 25.2963 35.3862 24.0836 34.67 22.8675C33.1684 20.3172 31.6673 17.7672 30.1667 15.2175C29.7149 14.4474 29.8821 13.5642 30.5569 13.0481C30.8701 12.811 31.2586 12.6914 31.653 12.7107C32.0474 12.7301 32.422 12.8871 32.7098 13.1536C32.8625 13.3074 32.9931 13.481 33.0979 13.6698C35.2621 17.3358 37.4224 21.0031 39.5787 24.6719C39.6378 24.7822 39.7047 24.8882 39.779 24.9892C39.9427 25.1935 40.1554 25.2581 40.3882 25.1192C40.621 24.9803 40.7004 24.7536 40.5698 24.5064C40.4165 24.2143 40.2404 23.9345 40.0732 23.6498C38.3235 20.6784 36.5737 17.7064 34.824 14.734C34.1837 13.6446 34.8109 12.3679 36.0617 12.2337C36.798 12.1548 37.3457 12.4836 37.7194 13.1148C38.8318 15.0091 39.9473 16.9014 41.0658 18.7916C42.8275 21.783 44.5885 24.7745 46.3489 27.7659C46.4815 27.992 46.6251 28.199 46.9339 28.1445C47.2633 28.0873 47.3179 27.8374 47.3483 27.561C47.5873 25.3857 47.8292 23.21 48.0742 21.0338C48.1688 20.1827 48.8602 19.5746 49.68 19.6236C50.4999 19.6727 51.0518 20.3345 51.1015 21.1815C51.1561 22.1198 51.2914 23.0534 51.4061 23.9876C51.7155 26.5069 52.0477 29.0263 52.3392 31.5525C52.4587 32.5868 52.6093 33.6367 52.5464 34.6676C52.353 37.936 50.8045 40.4683 48.0341 42.2577C47.1694 42.816 46.2556 43.3029 45.3494 43.7965C44.283 44.3774 43.1226 44.6334 41.666 44.6558Z" fill="white"/>
</svg>
