<svg width="17" height="16" viewBox="0 0 17 16" fill="none" xmlns="http://www.w3.org/2000/svg">
<path d="M15.6441 3.24583C15.3959 2.64429 15.0379 2.09918 14.5903 1.64102C14.1424 1.18149 13.6142 0.816312 13.0346 0.565337C12.4336 0.304058 11.7889 0.170321 11.1381 0.171889C10.225 0.171889 9.33417 0.433542 8.56001 0.927775C8.3748 1.046 8.19885 1.17586 8.03217 1.31735C7.86548 1.17586 7.68953 1.046 7.50433 0.927775C6.73017 0.433542 5.83932 0.171889 4.92625 0.171889C4.26877 0.171889 3.63166 0.303684 3.02974 0.565337C2.44819 0.817299 1.92406 1.17974 1.47401 1.64102C1.0258 2.09867 0.667763 2.6439 0.420183 3.24583C0.162747 3.87186 0.03125 4.53665 0.03125 5.22082C0.03125 5.86623 0.15719 6.53878 0.407219 7.22295C0.616502 7.79471 0.916537 8.38779 1.29991 8.98669C1.90739 9.93445 2.74267 10.9229 3.77983 11.925C5.49854 13.586 7.20059 14.7334 7.27282 14.7799L7.71176 15.0745C7.90623 15.2043 8.15625 15.2043 8.35072 15.0745L8.78966 14.7799C8.86189 14.7314 10.5621 13.586 12.2827 11.925C13.3198 10.9229 14.1551 9.93445 14.7626 8.98669C15.1459 8.38779 15.4478 7.79471 15.6553 7.22295C15.9053 6.53878 16.0312 5.86623 16.0312 5.22082C16.0331 4.53665 15.9016 3.87186 15.6441 3.24583ZM8.03217 13.5414C8.03217 13.5414 1.43882 9.12042 1.43882 5.22082C1.43882 3.24583 3.00011 1.6449 4.92625 1.6449C6.28011 1.6449 7.45432 2.43567 8.03217 3.59082C8.61001 2.43567 9.78422 1.6449 11.1381 1.6449C13.0642 1.6449 14.6255 3.24583 14.6255 5.22082C14.6255 9.12042 8.03217 13.5414 8.03217 13.5414Z" fill="black"/>
</svg>
