<svg width="26" height="26" viewBox="0 0 26 26" fill="none" xmlns="http://www.w3.org/2000/svg">
<path d="M23.3994 7.02688C23.0592 6.23886 22.5685 5.52477 21.955 4.92458C21.3411 4.3226 20.6172 3.84421 19.8227 3.51544C18.9989 3.17316 18.1153 2.99796 17.2233 3.00002C15.9718 3.00002 14.7508 3.34278 13.6897 3.99023C13.4359 4.14511 13.1947 4.31522 12.9663 4.50057C12.7378 4.31522 12.4966 4.14511 12.2428 3.99023C11.1817 3.34278 9.96069 3.00002 8.70922 3.00002C7.80805 3.00002 6.93481 3.17267 6.10981 3.51544C5.31272 3.84551 4.59433 4.3203 3.97748 4.92458C3.36316 5.5241 2.87242 6.23836 2.53308 7.02688C2.18023 7.84697 2 8.71785 2 9.61412C2 10.4596 2.17262 11.3406 2.51531 12.2369C2.80216 12.9859 3.2134 13.7629 3.73886 14.5474C4.57149 15.789 5.71634 17.0839 7.13789 18.3965C9.49361 20.5725 11.8265 22.0756 11.9255 22.1365L12.5271 22.5224C12.7936 22.6925 13.1363 22.6925 13.4029 22.5224L14.0045 22.1365C14.1035 22.073 16.4338 20.5725 18.7921 18.3965C20.2136 17.0839 21.3585 15.789 22.1911 14.5474C22.7166 13.7629 23.1304 12.9859 23.4147 12.2369C23.7574 11.3406 23.93 10.4596 23.93 9.61412C23.9325 8.71785 23.7523 7.84697 23.3994 7.02688Z" fill="#999999"/>
</svg>
