<svg width="21" height="20" viewBox="0 0 21 20" fill="none" xmlns="http://www.w3.org/2000/svg">
<path d="M19.7386 4.11383C19.4254 3.35188 18.9738 2.66141 18.409 2.08107C17.8438 1.499 17.1774 1.03644 16.4461 0.718539C15.6878 0.387586 14.8744 0.218185 14.0532 0.220171C12.9012 0.220171 11.7772 0.551598 10.8004 1.17763C10.5668 1.32738 10.3448 1.49187 10.1345 1.67109C9.92415 1.49187 9.70215 1.32738 9.46847 1.17763C8.4917 0.551598 7.3677 0.220171 6.21567 0.220171C5.38611 0.220171 4.58226 0.387112 3.8228 0.718539C3.08905 1.03769 2.42774 1.49678 1.85991 2.08107C1.2944 2.66076 0.842652 3.35139 0.530275 4.11383C0.205462 4.9068 0.0395508 5.74887 0.0395508 6.61549C0.0395508 7.43301 0.198452 8.2849 0.513918 9.15152C0.777975 9.87575 1.15653 10.627 1.64025 11.3856C2.40671 12.5861 3.4606 13.8381 4.7692 15.1074C6.93774 17.2113 9.08524 18.6647 9.17638 18.7236L9.73019 19.0968C9.97556 19.2613 10.291 19.2613 10.5364 19.0968L11.0902 18.7236C11.1813 18.6622 13.3265 17.2113 15.4974 15.1074C16.806 13.8381 17.8599 12.5861 18.6263 11.3856C19.11 10.627 19.4909 9.87575 19.7527 9.15152C20.0681 8.2849 20.227 7.43301 20.227 6.61549C20.2294 5.74887 20.0635 4.9068 19.7386 4.11383V4.11383ZM10.1345 17.1549C10.1345 17.1549 1.81551 11.555 1.81551 6.61549C1.81551 4.11383 3.78541 2.08598 6.21567 2.08598C7.92386 2.08598 9.40538 3.08763 10.1345 4.55082C10.8635 3.08763 12.3451 2.08598 14.0532 2.08598C16.4835 2.08598 18.4534 4.11383 18.4534 6.61549C18.4534 11.555 10.1345 17.1549 10.1345 17.1549Z" fill="#999999"/>
</svg>
