<svg width="26" height="26" viewBox="0 0 26 26" fill="none" xmlns="http://www.w3.org/2000/svg">
<path d="M23.4355 7.20079C23.0952 6.41276 22.6045 5.69866 21.9908 5.09845C21.3767 4.49646 20.6526 4.01806 19.858 3.68927C19.034 3.34699 18.1503 3.17179 17.258 3.17385C16.0063 3.17385 14.785 3.51662 13.7236 4.16408C13.4697 4.31896 13.2285 4.48908 13 4.67443C12.7715 4.48908 12.5303 4.31896 12.2764 4.16408C11.215 3.51662 9.99375 3.17385 8.74199 3.17385C7.84062 3.17385 6.96719 3.3465 6.14199 3.68927C5.34473 4.01935 4.62617 4.49416 4.00918 5.09845C3.39472 5.69798 2.90387 6.41225 2.56445 7.20079C2.21152 8.02091 2.03125 8.89181 2.03125 9.78809C2.03125 10.6336 2.20391 11.5147 2.54668 12.4109C2.83359 13.16 3.24492 13.9369 3.77051 14.7215C4.60332 15.9631 5.74844 17.258 7.17031 18.5707C9.52656 20.7467 11.86 22.2498 11.959 22.3107L12.5607 22.6967C12.8273 22.8668 13.1701 22.8668 13.4367 22.6967L14.0385 22.3107C14.1375 22.2473 16.4684 20.7467 18.8271 18.5707C20.249 17.258 21.3941 15.9631 22.227 14.7215C22.7525 13.9369 23.1664 13.16 23.4508 12.4109C23.7936 11.5147 23.9662 10.6336 23.9662 9.78809C23.9688 8.89181 23.7885 8.02091 23.4355 7.20079ZM13 20.6883C13 20.6883 3.96094 14.8967 3.96094 9.78809C3.96094 7.20079 6.10137 5.10353 8.74199 5.10353C10.598 5.10353 12.2078 6.13947 13 7.65274C13.7922 6.13947 15.402 5.10353 17.258 5.10353C19.8986 5.10353 22.0391 7.20079 22.0391 9.78809C22.0391 14.8967 13 20.6883 13 20.6883Z" fill="black"/>
</svg>
