<svg width="16" height="16" viewBox="0 0 16 16" fill="none" xmlns="http://www.w3.org/2000/svg">
<path d="M15.6129 3.73801C15.3646 3.13648 15.0067 2.59137 14.5591 2.13321C14.1111 1.67368 13.583 1.3085 13.0033 1.05752C12.4023 0.796246 11.7577 0.662509 11.1068 0.664076C10.1938 0.664076 9.30292 0.925729 8.52875 1.41996C8.34355 1.53819 8.1676 1.66805 8.00092 1.80953C7.83423 1.66805 7.65828 1.53819 7.47308 1.41996C6.69892 0.925729 5.80807 0.664076 4.895 0.664076C4.23752 0.664076 3.60041 0.795872 2.99849 1.05752C2.41694 1.30949 1.89281 1.67192 1.44276 2.13321C0.994552 2.59085 0.636513 3.13609 0.388933 3.73801C0.131497 4.36404 0 5.02884 0 5.71301C0 6.35842 0.12594 7.03097 0.375969 7.71514C0.585252 8.2869 0.885287 8.87998 1.26866 9.47888C1.87614 10.4266 2.71142 11.4151 3.74858 12.4171C5.46729 14.0782 7.16934 15.2256 7.24157 15.2721L7.68051 15.5667C7.87498 15.6965 8.125 15.6965 8.31947 15.5667L8.75841 15.2721C8.83064 15.2236 10.5308 14.0782 12.2514 12.4171C13.2886 11.4151 14.1238 10.4266 14.7313 9.47888C15.1147 8.87998 15.4166 8.2869 15.624 7.71514C15.874 7.03097 16 6.35842 16 5.71301C16.0018 5.02884 15.8703 4.36404 15.6129 3.73801Z" fill="#FF8181"/>
</svg>
