<svg width="62" height="74" viewBox="0 0 62 74" fill="none" xmlns="http://www.w3.org/2000/svg">
<path d="M49.7805 38.0121L49.8105 37.9564L49.8332 37.8973C51.4672 33.6396 51.8764 29.1096 51.0562 24.7123C52.0809 25.8859 53.2906 27.3906 54.484 29.1526C57.5063 33.615 60.3439 39.6086 59.9673 46.0018C59.7462 49.4196 58.6903 52.7617 56.8643 55.8004C55.1243 58.6961 52.7222 61.2537 49.8022 63.3103C44.759 61.1854 40.0724 58.4673 35.8701 55.2334C41.616 50.2687 46.3281 44.44 49.7805 38.0121Z" stroke="black" stroke-width="2"/>
<path d="M40.7437 21.2531L40.758 21.2676L40.773 21.2815C42.5967 22.9797 43.9787 24.993 44.8357 27.1825C45.6845 29.3509 46.0012 31.648 45.769 33.9253C45.1457 36.457 43.0202 39.6818 40.2572 42.947C37.7103 45.9569 34.72 48.8888 32.1497 51.1731C24.7812 45.3258 19.8771 37.4791 18.2067 28.9057L18.2048 28.892C18.2016 28.8682 18.1966 28.8289 18.1907 28.7748C18.179 28.6666 18.1637 28.4991 18.1517 28.2775C18.1278 27.8342 18.1176 27.175 18.1765 26.3403C18.2944 24.6711 18.6888 22.3015 19.804 19.5505C21.8499 14.5035 26.3569 8.08726 36.2219 2.35201C34.7522 6.26944 34.6138 10.5134 35.8745 14.543L35.901 14.6278L35.9421 14.7066C37.1814 17.0843 38.7994 19.2884 40.7437 21.2531Z" stroke="black" stroke-width="2"/>
<path d="M12.8539 24.4778C12.7216 25.8527 12.6924 27.5997 12.9431 29.6558C13.5915 34.9735 16.1042 42.2919 23.4254 50.5418L23.4349 50.5526L23.4447 50.563C29.7946 57.3182 35.6961 61.5734 40.0267 64.1446C42.1916 65.43 43.9634 66.2943 45.2016 66.8396C45.3438 66.9022 45.4789 66.9606 45.6068 67.015C44.9283 67.5985 44.2213 68.1567 43.4878 68.6881C38.985 71.2697 33.7772 72.7602 28.394 72.9996C22.8046 72.7981 17.4149 71.1547 12.8944 68.2848L12.8879 68.2806L12.8813 68.2766C8.79671 65.7707 5.56541 62.3569 3.50833 58.4021C1.45434 54.4532 0.641538 50.1017 1.14494 45.7952C2.25092 38.2631 5.96547 31.1937 11.8101 25.5548L11.8223 25.543L11.8341 25.5308L12.8539 24.4778Z" stroke="black" stroke-width="2"/>
</svg>
