<svg width="18" height="15" viewBox="0 0 18 15" fill="none" xmlns="http://www.w3.org/2000/svg">
<path d="M4.73332 11.6673C3.19786 10.6029 1.9828 9.21844 1.29621 8.34419C1.10422 8.10286 1 7.80598 1 7.50041C1 7.19483 1.10422 6.89796 1.29621 6.65663C2.53873 5.07306 5.51978 1.8125 9.00016 1.8125C10.5614 1.8125 12.0211 2.46819 13.2695 3.33513" stroke="#999999" stroke-width="2" stroke-linecap="round" stroke-linejoin="round"/>
<path d="M10.7727 5.78316C10.5416 5.55376 10.2663 5.37131 9.96256 5.24633C9.65886 5.12134 9.33282 5.0563 9.00324 5.05495C8.67366 5.05361 8.34707 5.11598 8.04231 5.23847C7.73755 5.36097 7.46064 5.54116 7.22756 5.76866C6.99449 5.99615 6.80986 6.26645 6.68431 6.56396C6.55877 6.86147 6.49481 7.1803 6.49611 7.50207C6.49742 7.82383 6.56396 8.14216 6.69191 8.43869C6.81985 8.73523 7.00667 9.00409 7.24158 9.22978" stroke="#999999" stroke-width="2" stroke-linecap="round" stroke-linejoin="round"/>
<path d="M2.34375 14L15.6594 1" stroke="#999999" stroke-width="2" stroke-linecap="round" stroke-linejoin="round"/>
<path d="M7.33594 12.947C7.87622 13.104 8.43669 13.185 9.0004 13.1875C12.4808 13.1875 15.4618 9.92694 16.7043 8.34338C16.8963 8.10183 17.0004 7.80476 17.0002 7.49905C17.0001 7.19333 16.8957 6.89637 16.7035 6.655C16.2668 6.09884 15.7984 5.56716 15.3004 5.0625" stroke="#999999" stroke-width="2" stroke-linecap="round" stroke-linejoin="round"/>
</svg>
