<svg width="10" height="10" viewBox="0 0 10 10" fill="none" xmlns="http://www.w3.org/2000/svg">
<path d="M5 9.81577C6.32608 9.81577 7.59785 9.2987 8.53553 8.37829C9.47322 7.45788 10 6.20954 10 4.90789C10 3.60623 9.47322 2.35789 8.53553 1.43749C7.59785 0.51708 6.32608 0 5 0C3.67392 0 2.40215 0.51708 1.46447 1.43749C0.526784 2.35789 0 3.60623 0 4.90789C0 6.20954 0.526784 7.45788 1.46447 8.37829C2.40215 9.2987 3.67392 9.81577 5 9.81577ZM5.58125 4.04165L4.95625 6.9281C4.9125 7.13668 4.97438 7.25508 5.14625 7.25508C5.2675 7.25508 5.45062 7.21214 5.575 7.10417L5.52 7.35938C5.34062 7.57164 4.945 7.72624 4.60437 7.72624C4.165 7.72624 3.97813 7.46735 4.09937 6.91705L4.56063 4.78948C4.60063 4.60973 4.56437 4.5447 4.38125 4.50115L4.09937 4.45145L4.15062 4.21772L5.58187 4.04165H5.58125ZM5 3.37417C4.83424 3.37417 4.67527 3.30954 4.55806 3.19449C4.44085 3.07944 4.375 2.92339 4.375 2.76069C4.375 2.59798 4.44085 2.44194 4.55806 2.32689C4.67527 2.21184 4.83424 2.1472 5 2.1472C5.16576 2.1472 5.32473 2.21184 5.44194 2.32689C5.55915 2.44194 5.625 2.59798 5.625 2.76069C5.625 2.92339 5.55915 3.07944 5.44194 3.19449C5.32473 3.30954 5.16576 3.37417 5 3.37417Z" fill="#667799"/>
</svg>
