<svg width="11" height="10" viewBox="0 0 11 10" fill="none" xmlns="http://www.w3.org/2000/svg">
<path d="M5.45312 10C6.77921 10 8.05098 9.47322 8.98866 8.53553C9.92634 7.59785 10.4531 6.32608 10.4531 5C10.4531 3.67392 9.92634 2.40215 8.98866 1.46447C8.05098 0.526784 6.77921 0 5.45312 0C4.12704 0 2.85527 0.526784 1.91759 1.46447C0.979909 2.40215 0.453125 3.67392 0.453125 5C0.453125 6.32608 0.979909 7.59785 1.91759 8.53553C2.85527 9.47322 4.12704 10 5.45312 10ZM6.03438 4.1175L5.40937 7.05813C5.36562 7.27063 5.4275 7.39125 5.59938 7.39125C5.72062 7.39125 5.90375 7.3475 6.02812 7.2375L5.97312 7.4975C5.79375 7.71375 5.39813 7.87125 5.0575 7.87125C4.61812 7.87125 4.43125 7.6075 4.5525 7.04688L5.01375 4.87937C5.05375 4.69625 5.0175 4.63 4.83438 4.58562L4.5525 4.535L4.60375 4.29688L6.035 4.1175H6.03438ZM5.45312 3.4375C5.28736 3.4375 5.12839 3.37165 5.01118 3.25444C4.89397 3.13723 4.82812 2.97826 4.82812 2.8125C4.82812 2.64674 4.89397 2.48777 5.01118 2.37056C5.12839 2.25335 5.28736 2.1875 5.45312 2.1875C5.61889 2.1875 5.77786 2.25335 5.89507 2.37056C6.01228 2.48777 6.07812 2.64674 6.07812 2.8125C6.07812 2.97826 6.01228 3.13723 5.89507 3.25444C5.77786 3.37165 5.61889 3.4375 5.45312 3.4375Z" fill="#295FF6"/>
</svg>
