<svg width="24" height="24" viewBox="0 0 24 24" fill="none" xmlns="http://www.w3.org/2000/svg">
  <path d="M9.79688 14.0847H3.1775C1.97308 14.0847 0.996711 13.1083 0.996711 11.9039V11.9039C0.996711 10.6995 1.97308 9.72314 3.1775 9.72314H9.79688" stroke="black"/>
  <path d="M14.197 13.6484V20.6077C14.197 21.8227 13.212 22.8077 11.9969 22.8077V22.8077C10.7819 22.8077 9.79688 21.8227 9.79688 20.6077V13.6484" stroke="black"/>
  <path d="M14.197 10.1592V3.19995C14.197 1.9849 13.212 0.999908 11.9969 0.999908V0.999908C10.7819 0.999908 9.79688 1.9849 9.79688 3.19995V10.1592" stroke="black"/>
  <path d="M14.2031 14.0847H20.8226C22.027 14.0847 23.0033 13.1083 23.0033 11.9039V11.9039C23.0033 10.6995 22.027 9.72314 20.8226 9.72314H14.2031" stroke="black"/>
</svg>
