<svg width="229" height="125" viewBox="0 0 229 125" fill="none" xmlns="http://www.w3.org/2000/svg">
<path d="M110.573 30.418V0C82.7537 0.738398 56.2031 10.5305 35.9453 27.5233L47.6248 37.9258C60.8507 31.695 75.5911 28.4476 90.5541 28.4682C97.287 28.4672 104 29.121 110.573 30.418Z" fill="#FFED00"/>
<path d="M41.2557 41.2202L30.9115 32.0098C11.8411 50.03 0.844585 73.6458 0 98.3943C3.64273 74.3934 19.2071 53.7342 41.2557 41.2202Z" fill="#E30613"/>
<path d="M197.359 32.0098L164.898 60.9092C175.406 71.2627 181.577 84.5279 182.371 98.4641H228.271C227.443 73.6917 216.446 50.0486 197.359 32.0098Z" fill="#008D36"/>
<path d="M159.058 55.7886L159.863 56.4227L192.32 27.5234C172.063 10.5309 145.514 0.738874 117.695 0V32.0921C133.653 36.4821 147.957 44.677 159.058 55.7886Z" fill="#95C11F"/>
<path d="M134.651 0.397131L105.466 88.052C104.083 88.3617 102.777 89.0728 101.687 90.1102C100.596 91.1477 99.7622 92.4731 99.2721 93.9468C98.782 95.4204 98.6542 96.9876 98.902 98.4831C99.1498 99.9787 99.7641 101.347 100.68 102.444L95.0856 119.213C94.9016 119.753 95.1496 120 95.6252 119.774L99.2057 118.073C99.4521 117.967 99.7179 117.949 99.9641 118.021C100.21 118.093 100.424 118.253 100.573 118.475L102.656 121.847C102.933 122.297 103.273 122.217 103.413 121.67L107.774 104.779C109.233 104.425 110.595 103.626 111.702 102.475C112.809 101.324 113.615 99.8689 114.025 98.2805C114.435 96.6921 114.432 95.0363 114.017 93.507C113.602 91.9778 112.791 90.6386 111.68 89.6466L134.719 0.416855C134.862 -0.131487 134.833 -0.13769 134.651 0.397131ZM107.491 99.5985C106.912 99.8414 106.291 99.8937 105.708 99.7489C105.124 99.6041 104.603 99.2686 104.211 98.7849C103.82 98.3012 103.574 97.6911 103.507 97.0315C103.439 96.372 103.552 95.6927 103.831 95.0796C104.11 94.4665 104.543 93.9472 105.075 93.5872C105.607 93.2272 106.214 93.0427 106.82 93.0572C107.425 93.0717 108.002 93.2843 108.477 93.6684C108.952 94.0524 109.303 94.5905 109.488 95.2146C109.735 96.0516 109.663 96.9837 109.289 97.8058C108.914 98.6279 108.268 99.2728 107.491 99.5985Z" fill="#3C3C3B"/>
</svg>
