<svg width="17" height="17" viewBox="0 0 17 17" fill="none" xmlns="http://www.w3.org/2000/svg">
<path d="M3.77778 0C1.68492 0 0 1.68492 0 3.77778V17H13.2222C15.3151 17 17 15.3151 17 13.2222V3.77778C17 1.68492 15.3151 0 13.2222 0H3.77778ZM13.2522 4.23246C13.4818 4.23378 13.6984 4.31336 13.8602 4.47529C14.2301 4.84528 14.1706 5.50075 13.7267 5.94464L7.3156 12.3557C7.29096 12.3804 7.26553 12.4032 7.23958 12.4254C7.22139 12.4472 7.20255 12.4688 7.18213 12.4892C6.81214 12.8592 6.2162 12.8592 5.84625 12.4892L3.17485 9.81781C2.80487 9.44783 2.80487 8.85201 3.17485 8.48203C3.54484 8.11204 4.14078 8.11204 4.51073 8.48203L6.51437 10.4853L12.3908 4.60849C12.6405 4.35881 12.9571 4.23075 13.2523 4.2322L13.2522 4.23246Z" fill="white"/>
<rect x="2" y="4" width="14" height="10" fill="white"/>
<line x1="4" y1="9" x2="13" y2="9" stroke="#31343D" stroke-width="2" stroke-linecap="round"/>
</svg>
