<svg width="19" height="12" viewBox="0 0 19 12" fill="none" xmlns="http://www.w3.org/2000/svg">
<path d="M17.6105 0H1.90867C1.61121 0 1.32594 0.125323 1.11561 0.3484C0.905273 0.571477 0.787109 0.874034 0.787109 1.18951V10.7056C0.787109 11.0211 0.905273 11.3236 1.11561 11.5467C1.32594 11.7698 1.61121 11.8951 1.90867 11.8951H17.6105C17.9079 11.8951 18.1932 11.7698 18.4035 11.5467C18.6139 11.3236 18.732 11.0211 18.732 10.7056V1.18951C18.732 0.874034 18.6139 0.571477 18.4035 0.3484C18.1932 0.125323 17.9079 0 17.6105 0ZM17.6105 3.56854C17.0364 3.51918 16.4987 3.25103 16.0966 2.81369C15.6946 2.37634 15.4554 1.79939 15.4234 1.18951H17.6105V3.56854ZM17.6105 4.53204V7.40471C16.803 7.45614 16.0417 7.82109 15.4717 8.42994C14.9018 9.03878 14.5632 9.84887 14.5206 10.7056H4.98734C4.9463 9.84974 4.60988 9.03978 4.04215 8.42997C3.47443 7.82017 2.71506 7.45314 1.90867 7.39877V4.52015C2.72072 4.46807 3.48583 4.09891 4.05641 3.48388C4.62699 2.86884 4.96262 2.0515 4.99856 1.18951H14.5318C14.5675 2.04958 14.9015 2.86534 15.4698 3.48009C16.038 4.09485 16.8004 4.46525 17.6105 4.52015V4.53204ZM4.0957 1.18951C4.06371 1.79939 3.82457 2.37634 3.42252 2.81369C3.02047 3.25103 2.4827 3.51918 1.90867 3.56854V1.18951H4.0957ZM1.90867 8.36227C2.4773 8.41062 3.01072 8.67369 3.41203 9.10368C3.81334 9.53367 4.05592 10.1021 4.0957 10.7056H1.90867V8.36227ZM15.4234 10.7056C15.4632 10.1021 15.7058 9.53367 16.1071 9.10368C16.5084 8.67369 17.0418 8.41062 17.6105 8.36227V10.7056H15.4234Z" fill="currentColor"/>
<path d="M9.75921 1.19043C7.90596 1.19043 6.39453 3.32656 6.39453 5.94848C6.39453 8.5704 7.90596 10.7065 9.75921 10.7065C11.6124 10.7065 13.1239 8.5704 13.1239 5.94848C13.1239 3.32656 11.6124 1.19043 9.75921 1.19043ZM9.75921 9.63513C8.37595 9.63513 7.24905 7.97813 7.24905 5.94182C7.24905 3.90551 8.37595 2.24851 9.75921 2.24851C11.1425 2.24851 12.2694 3.90551 12.2694 5.94182C12.2694 7.97813 11.1425 9.64179 9.75921 9.64179V9.63513Z" fill="currentColor"/>
</svg>
