<svg width="42" height="42" viewBox="0 0 42 42" fill="none" xmlns="http://www.w3.org/2000/svg">
<path d="M21 0C16.8466 0 12.7865 1.23163 9.33303 3.53914C5.8796 5.84665 3.18798 9.1264 1.59854 12.9636C0.00909901 16.8009 -0.406771 21.0233 0.403518 25.0969C1.21381 29.1705 3.21386 32.9123 6.15076 35.8492C9.08767 38.7861 12.8295 40.7862 16.9031 41.5965C20.9767 42.4068 25.1991 41.9909 29.0364 40.4015C32.8736 38.812 36.1533 36.1204 38.4609 32.667C40.7684 29.2135 42 25.1534 42 21C42 18.2422 41.4568 15.5115 40.4015 12.9636C39.3461 10.4158 37.7993 8.10079 35.8492 6.15076C33.8992 4.20073 31.5842 2.65388 29.0364 1.59853C26.4885 0.543181 23.7578 0 21 0ZM21 37.8C17.6773 37.8 14.4292 36.8147 11.6664 34.9687C8.90368 33.1227 6.75038 30.4989 5.47883 27.4291C4.20728 24.3593 3.87458 20.9814 4.52282 17.7225C5.17105 14.4636 6.77109 11.4701 9.12061 9.1206C11.4701 6.77108 14.4636 5.17104 17.7225 4.52281C20.9814 3.87458 24.3593 4.20727 27.4291 5.47882C30.4989 6.75037 33.1227 8.90367 34.9687 11.6664C36.8147 14.4292 37.8 17.6773 37.8 21C37.8 25.4556 36.03 29.7288 32.8794 32.8794C29.7288 36.03 25.4556 37.8 21 37.8Z" fill="#667799"/>
<path d="M20.9984 8.39736C19.0491 8.39736 17.1796 9.17173 15.8012 10.5501C14.4228 11.9285 13.6484 13.798 13.6484 15.7474C13.6484 16.3043 13.8697 16.8385 14.2635 17.2323C14.6573 17.6261 15.1915 17.8474 15.7484 17.8474C16.3054 17.8474 16.8395 17.6261 17.2334 17.2323C17.6272 16.8385 17.8484 16.3043 17.8484 15.7474C17.8484 15.1243 18.0332 14.5153 18.3793 13.9973C18.7254 13.4793 19.2174 13.0756 19.793 12.8371C20.3686 12.5987 21.0019 12.5363 21.613 12.6579C22.224 12.7794 22.7853 13.0794 23.2258 13.52C23.6664 13.9605 23.9664 14.5218 24.0879 15.1328C24.2095 15.7439 24.1471 16.3772 23.9087 16.9528C23.6702 17.5284 23.2665 18.0204 22.7485 18.3665C22.2305 18.7126 21.6214 18.8974 20.9984 18.8974C20.4415 18.8974 19.9073 19.1186 19.5135 19.5124C19.1197 19.9063 18.8984 20.4404 18.8984 20.9974V25.1974C18.8984 25.7543 19.1197 26.2885 19.5135 26.6823C19.9073 27.0761 20.4415 27.2974 20.9984 27.2974C21.5554 27.2974 22.0895 27.0761 22.4834 26.6823C22.8772 26.2885 23.0984 25.7543 23.0984 25.1974V22.7614C24.7955 22.2658 26.2561 21.1735 27.2113 19.6858C28.1664 18.1981 28.5516 16.4153 28.2958 14.666C28.0401 12.9167 27.1606 11.3188 25.8196 10.1668C24.4786 9.01481 22.7663 8.38639 20.9984 8.39736Z" fill="#667799"/>
<path d="M20.9984 33.5972C22.1582 33.5972 23.0984 32.657 23.0984 31.4972C23.0984 30.3374 22.1582 29.3972 20.9984 29.3972C19.8386 29.3972 18.8984 30.3374 18.8984 31.4972C18.8984 32.657 19.8386 33.5972 20.9984 33.5972Z" fill="#667799"/>
</svg>
