<svg width="23" height="24" viewBox="0 0 23 24" fill="none" xmlns="http://www.w3.org/2000/svg">
<path d="M12.151 22.9922C11.9394 23.1888 11.6732 23.2971 11.3998 23.3043C11.119 23.308 10.8425 23.2048 10.622 23.0075C10.5483 22.9416 10.4825 22.8665 10.4259 22.7842H12.3302C12.278 22.8602 12.2179 22.93 12.151 22.9922Z" stroke="#999999"/>
<path d="M18.4644 17.9653C18.9406 18.7182 19.5131 19.4034 20.1667 20.0029V20.7576H2.65137V20.0025C3.2971 19.4002 3.86177 18.7137 4.3309 17.9611L4.34941 17.9314L4.36507 17.9001C4.89783 16.836 5.21683 15.6746 5.30387 14.484L5.30586 14.4567V14.4293L5.30586 11.2096L5.30586 11.2081C5.30285 9.68106 5.84187 8.20695 6.81953 7.0585C7.79686 5.91044 9.14556 5.16608 10.6142 4.95875L11.2593 4.86768V4.21612V3.3623C11.2593 3.32537 11.2738 3.29308 11.2948 3.27172C11.3151 3.25089 11.3394 3.24219 11.3612 3.24219C11.383 3.24219 11.4073 3.25089 11.4276 3.27172C11.4486 3.29308 11.4631 3.32537 11.4631 3.3623V4.20308V4.86157L12.116 4.94678C13.5979 5.14016 14.963 5.87998 15.9533 7.03186C16.9439 8.18414 17.4905 9.66898 17.4867 11.2078V11.2096V14.4293V14.4567L17.4887 14.484C17.5758 15.6746 17.8948 16.836 18.4275 17.9001L18.4443 17.9337L18.4644 17.9653Z" stroke="#999999" stroke-width="1.5"/>
</svg>
