<svg width="54" height="31" viewBox="0 0 54 31" fill="none" xmlns="http://www.w3.org/2000/svg">
<path d="M49.9553 17.2608C49.948 17.2647 49.9402 17.2681 49.9329 17.2715L41.0827 21.4459C41.1776 21.9353 41.2184 22.4335 41.2053 22.9317C41.1912 23.4469 40.7689 23.8567 40.2528 23.8572H40.2255L27.272 23.5013C27.019 23.4945 26.7791 23.3876 26.6055 23.2041C26.4313 23.0206 26.3379 22.7758 26.3447 22.5233C26.3593 21.9979 26.7976 21.5833 27.3245 21.5978L39.2333 21.9251H39.2328C39.0421 20.8069 38.469 19.7896 37.6113 19.0462C36.7531 18.3028 35.6633 17.8789 34.5279 17.8474L26.6477 17.6308C25.0915 17.5861 23.5653 17.1928 22.1823 16.48L21.3806 16.0653C19.4473 15.0602 17.278 14.5941 15.1014 14.7164C12.9248 14.8388 10.8223 15.5448 9.01446 16.7606L8.69922 28.203L10.0531 27.4795C11.3993 26.7569 12.9735 26.585 14.4442 26.9997L27.8175 30.7469H27.818C30.3953 31.2737 33.074 30.9746 35.4719 29.8928L54 17.9304C53.4848 17.4041 52.8154 17.055 52.088 16.9345C51.3607 16.8141 50.6134 16.9287 49.9557 17.2608L49.9553 17.2608Z" fill="#494949"/>
<path d="M0 30.1893L0.46946 13.1646L7.20442 13.3496L6.73496 30.3743L0 30.1893Z" fill="#494949"/>
<path d="M39.1943 21.4868H38.4443V22.2368H39.1943V21.4868ZM40.353 21.4868V22.2368H41.103V21.4868H40.353ZM40.353 19.7642L40.3031 19.0158L39.603 19.0625V19.7642H40.353ZM40.8452 11.7046L41.0135 10.9737L41.0127 10.9735L40.8452 11.7046ZM40.353 11.5918H39.603V12.1894L40.1855 12.3228L40.353 11.5918ZM40.353 7.30566L40.4453 6.56137L39.603 6.45689V7.30566H40.353ZM42.7114 9.42822L43.4569 9.3454L43.456 9.33836L42.7114 9.42822ZM42.7217 9.52051L41.9763 9.60333L42.0504 10.2705H42.7217V9.52051ZM44.8545 9.52051V10.2705H45.6528L45.603 9.47372L44.8545 9.52051ZM44.8442 9.35645L45.5928 9.30966L45.5922 9.30155L44.8442 9.35645ZM40.353 5.43945H39.603V6.13398L40.2955 6.18724L40.353 5.43945ZM40.353 3.7168H41.103V2.9668H40.353V3.7168ZM39.1943 3.7168V2.9668H38.4443V3.7168H39.1943ZM39.1943 5.43945L39.2505 6.18735L39.9443 6.13524V5.43945H39.1943ZM38.7739 13.3247L38.6055 14.0556L38.6131 14.0573L38.7739 13.3247ZM39.1943 13.417H39.9443V12.8138L39.3551 12.6844L39.1943 13.417ZM39.1943 17.8979L39.1161 18.6439L39.9443 18.7308V17.8979H39.1943ZM36.6001 15.7446L37.3386 15.6135L37.338 15.6105L36.6001 15.7446ZM36.5796 15.6318L37.3175 15.4977L37.2055 14.8818H36.5796V15.6318ZM34.457 15.6318V14.8818H33.6515L33.7089 15.6853L34.457 15.6318ZM34.4673 15.7754L35.2154 15.7229L35.2154 15.722L34.4673 15.7754ZM39.1943 19.7642H39.9443V19.0682L39.2503 19.0163L39.1943 19.7642ZM39.1943 7.30566H39.9443V6.45608L39.1013 6.56146L39.1943 7.30566ZM39.1943 11.3252L39.0221 12.0551L39.9443 12.2728V11.3252H39.1943ZM40.3735 13.6938L40.0381 14.3647L40.1169 14.404L40.2026 14.4241L40.3735 13.6938ZM40.353 17.9185H39.603V18.7316L40.4135 18.666L40.353 17.9185ZM40.353 13.6836L40.6884 13.0128L39.603 12.4701V13.6836H40.353ZM39.1943 22.2368H40.353V20.7368H39.1943V22.2368ZM41.103 21.4868V19.7642H39.603V21.4868H41.103ZM40.4029 20.5125C41.8246 20.4177 43.1543 19.977 44.1445 19.1577C45.1529 18.3232 45.7686 17.1259 45.7686 15.6421H44.2686C44.2686 16.6705 43.8588 17.4471 43.1882 18.002C42.4993 18.5721 41.4962 18.9363 40.3031 19.0158L40.4029 20.5125ZM45.7686 15.6421V15.6318H44.2686V15.6421H45.7686ZM45.7686 15.6318C45.7686 14.3475 45.3288 13.3115 44.4514 12.5252C43.609 11.7703 42.4206 11.2976 41.0135 10.9737L40.677 12.4355C41.9871 12.737 42.8854 13.136 43.4503 13.6423C43.9803 14.1172 44.2686 14.7321 44.2686 15.6318H45.7686ZM41.0127 10.9735L40.5206 10.8607L40.1855 12.3228L40.6777 12.4356L41.0127 10.9735ZM41.103 11.5918V7.30566H39.603V11.5918H41.103ZM40.2607 8.04996C40.8027 8.11718 41.2048 8.30163 41.4759 8.54278C41.7403 8.77794 41.9161 9.09778 41.9668 9.51809L43.456 9.33836C43.3632 8.56921 43.0212 7.9098 42.4729 7.42206C41.9314 6.94032 41.2261 6.65821 40.4453 6.56137L40.2607 8.04996ZM41.966 9.51105L41.9763 9.60333L43.4671 9.43768L43.4568 9.3454L41.966 9.51105ZM42.7217 10.2705H44.8545V8.77051H42.7217V10.2705ZM45.603 9.47372L45.5928 9.30966L44.0957 9.40323L44.106 9.56729L45.603 9.47372ZM45.5922 9.30155C45.3939 6.59955 43.2073 4.9068 40.4105 4.69166L40.2955 6.18724C42.5642 6.36176 43.9664 7.64264 44.0963 9.41134L45.5922 9.30155ZM41.103 5.43945V3.7168H39.603V5.43945H41.103ZM40.353 2.9668H39.1943V4.4668H40.353V2.9668ZM38.4443 3.7168V5.43945H39.9443V3.7168H38.4443ZM39.1382 4.69156C37.7136 4.79854 36.4404 5.27559 35.5105 6.09595C34.5691 6.92645 34.0146 8.08098 34.0146 9.43848H35.5146C35.5146 8.51961 35.878 7.77204 36.5028 7.22082C37.1391 6.65947 38.0808 6.27519 39.2505 6.18735L39.1382 4.69156ZM34.0146 9.43848V9.44873H35.5146V9.43848H34.0146ZM34.0146 9.44873C34.0146 10.6779 34.4332 11.6999 35.2715 12.4871C36.0825 13.2488 37.2307 13.7387 38.6055 14.0555L38.9424 12.5939C37.6921 12.3057 36.8357 11.8984 36.2984 11.3937C35.7882 10.9146 35.5146 10.3011 35.5146 9.44873H34.0146ZM38.6131 14.0573L39.0335 14.1496L39.3551 12.6844L38.9347 12.5921L38.6131 14.0573ZM38.4443 13.417V17.8979H39.9443V13.417H38.4443ZM39.2726 17.152C38.5618 17.0775 38.1246 16.8608 37.8524 16.6129C37.5815 16.3661 37.413 16.033 37.3385 15.6135L35.8616 15.8758C35.982 16.5534 36.2801 17.2098 36.8423 17.7218C37.4033 18.2327 38.1657 18.5441 39.1161 18.6439L39.2726 17.152ZM37.338 15.6105L37.3175 15.4977L35.8417 15.766L35.8622 15.8788L37.338 15.6105ZM36.5796 14.8818H34.457V16.3818H36.5796V14.8818ZM33.7089 15.6853L33.7192 15.8288L35.2154 15.722L35.2051 15.5784L33.7089 15.6853ZM33.7191 15.8279C33.9183 18.6662 36.3079 20.3003 39.1384 20.5121L39.2503 19.0163C36.8717 18.8383 35.3444 17.5603 35.2154 15.7229L33.7191 15.8279ZM38.4443 19.7642V21.4868H39.9443V19.7642H38.4443ZM37.6885 9.31543V9.29492H36.1885V9.31543H37.6885ZM37.6885 9.29492C37.6885 8.8559 38.0586 8.20347 39.2874 8.04987L39.1013 6.56146C37.377 6.777 36.1885 7.86773 36.1885 9.29492H37.6885ZM38.4443 7.30566V11.3252H39.9443V7.30566H38.4443ZM39.3666 10.5953C38.6 10.4143 38.1816 10.1887 37.9607 9.98123C37.7703 9.80242 37.6885 9.6034 37.6885 9.31543H36.1885C36.1885 9.97082 36.4091 10.5819 36.9339 11.0747C37.4282 11.5389 38.1378 11.8464 39.0221 12.0551L39.3666 10.5953ZM40.2026 14.4241C41.1326 14.6418 41.596 14.8756 41.8278 15.086C42.0096 15.2512 42.0947 15.4415 42.0947 15.8062H43.5947C43.5947 15.1352 43.4081 14.4949 42.8363 13.9756C42.3144 13.5016 41.5423 13.1971 40.5444 12.9636L40.2026 14.4241ZM42.0947 15.8062V15.8164H43.5947V15.8062H42.0947ZM42.0947 15.8164C42.0947 16.1916 41.9782 16.4682 41.7553 16.674C41.5176 16.8935 41.0765 17.1075 40.2925 17.1709L40.4135 18.666C41.4035 18.5859 42.2083 18.2974 42.7729 17.7761C43.3524 17.241 43.5947 16.5383 43.5947 15.8164H42.0947ZM41.103 17.9185V13.6836H39.603V17.9185H41.103ZM40.0176 14.3544L40.0381 14.3647L40.7089 13.023L40.6884 13.0128L40.0176 14.3544Z" fill="#494949"/>
</svg>
