<svg width="21" height="21" viewBox="0 0 21 21" fill="none" xmlns="http://www.w3.org/2000/svg">
<path d="M20.4773 5.24073L15.7629 0.526278C15.6258 0.389151 15.463 0.280375 15.2838 0.206161C15.1047 0.131947 14.9127 0.09375 14.7188 0.09375C14.5248 0.09375 14.3328 0.131947 14.1537 0.206161C13.9745 0.280375 13.8117 0.389151 13.6746 0.526278L1.01836 13.1825C0.744337 13.4614 0.589301 13.8357 0.585938 14.2267V18.9411C0.585938 19.3327 0.741504 19.7083 1.01841 19.9852C1.29532 20.2621 1.67089 20.4177 2.0625 20.4177H6.77695C7.16789 20.4143 7.54225 20.2593 7.82109 19.9853L20.4773 7.32901C20.7517 7.05075 20.9056 6.67566 20.9056 6.28487C20.9056 5.89408 20.7517 5.51899 20.4773 5.24073ZM6.92461 19.0888C6.88566 19.1285 6.83259 19.1513 6.77695 19.1521H2.0625C2.00656 19.1521 1.9529 19.1298 1.91334 19.0903C1.87379 19.0507 1.85156 18.9971 1.85156 18.9411V14.2267C1.85236 14.171 1.8751 14.118 1.91484 14.079L11.3438 4.65011L16.3535 9.65987L6.92461 19.0888ZM19.5809 6.43253L17.25 8.76339L12.2402 3.75362L14.5711 1.42276C14.5899 1.4023 14.6127 1.38597 14.6381 1.37479C14.6635 1.36362 14.691 1.35785 14.7188 1.35785C14.7465 1.35785 14.774 1.36362 14.7994 1.37479C14.8248 1.38597 14.8476 1.4023 14.8664 1.42276L19.5809 6.13722C19.6013 6.15599 19.6177 6.17881 19.6288 6.20422C19.64 6.22964 19.6458 6.25711 19.6458 6.28487C19.6458 6.31264 19.64 6.3401 19.6288 6.36552C19.6177 6.39094 19.6013 6.41376 19.5809 6.43253Z" fill="#667799"/>
</svg>
