<svg width="21" height="21" viewBox="0 0 21 21" fill="none" xmlns="http://www.w3.org/2000/svg">
<rect width="21" height="21" rx="4" fill="#D5E6FC"/>
<path d="M14.7521 7.32628L13.0401 5.60544C12.9269 5.49288 12.7738 5.42969 12.6142 5.42969C12.4546 5.42969 12.3015 5.49288 12.1884 5.60544L6.11882 11.6663L5.56465 14.0579C5.54553 14.1454 5.54619 14.236 5.56657 14.3231C5.58695 14.4103 5.62654 14.4917 5.68244 14.5616C5.73835 14.6315 5.80916 14.688 5.8897 14.727C5.97025 14.766 6.05849 14.7866 6.14798 14.7871C6.18968 14.7913 6.2317 14.7913 6.2734 14.7871L8.69132 14.2329L14.7521 8.17794C14.8647 8.06481 14.9279 7.9117 14.9279 7.75211C14.9279 7.59251 14.8647 7.43941 14.7521 7.32628ZM8.39965 13.7079L6.1334 14.1834L6.64965 11.9609L11.1909 7.43711L12.9409 9.18711L8.39965 13.7079ZM13.3317 8.76419L11.5817 7.01419L12.5967 6.00503L14.3176 7.75503L13.3317 8.76419Z" fill="#1874EC"/>
</svg>
