<svg width="22" height="22" viewBox="0 0 22 22" fill="none" xmlns="http://www.w3.org/2000/svg">
<circle cx="11" cy="11" r="10" stroke="#667799" stroke-width="2"/>
<path fill-rule="evenodd" clip-rule="evenodd" d="M10.0479 16.3335C10.0479 16.8858 10.4956 17.3335 11.0479 17.3335C11.6001 17.3335 12.0479 16.8858 12.0479 16.3335V12.0249H16.3335C16.8858 12.0249 17.3335 11.5772 17.3335 11.0249C17.3335 10.4726 16.8858 10.0249 16.3335 10.0249H12.0479V6C12.0479 5.44771 11.6001 5 11.0479 5C10.4956 5 10.0479 5.44771 10.0479 6V10.0249H6C5.44772 10.0249 5 10.4726 5 11.0249C5 11.5772 5.44772 12.0249 6 12.0249H10.0479V16.3335Z" fill="#667799"/>
</svg>
