<svg width="42" height="42" viewBox="0 0 42 42" fill="none" xmlns="http://www.w3.org/2000/svg">
<circle cx="21" cy="21" r="21" fill="#667799"/>
<path fill-rule="evenodd" clip-rule="evenodd" d="M19.8594 30C19.8594 30.5523 20.3071 31 20.8594 31C21.4117 31 21.8594 30.5523 21.8594 30V22.8262H29C29.5523 22.8262 30 22.3785 30 21.8262C30 21.2739 29.5523 20.8262 29 20.8262H21.8594V13C21.8594 12.4477 21.4117 12 20.8594 12C20.3071 12 19.8594 12.4477 19.8594 13V20.8262H12C11.4477 20.8262 11 21.2739 11 21.8262C11 22.3785 11.4477 22.8262 12 22.8262H19.8594V30Z" fill="white"/>
</svg>
