<svg width="18" height="19" viewBox="0 0 18 19" fill="none" xmlns="http://www.w3.org/2000/svg">
<circle cx="9" cy="9.75" r="9" fill="#667799"/>
<path fill-rule="evenodd" clip-rule="evenodd" d="M7.85781 14.75C7.85781 15.3023 8.30553 15.75 8.85781 15.75C9.4101 15.75 9.85781 15.3023 9.85781 14.75V10.5878H14C14.5523 10.5878 15 10.1401 15 9.58783C15 9.03555 14.5523 8.58783 14 8.58783H9.85781V4.75C9.85781 4.19771 9.4101 3.75 8.85781 3.75C8.30553 3.75 7.85781 4.19771 7.85781 4.75V8.58783H4C3.44772 8.58783 3 9.03555 3 9.58783C3 10.1401 3.44772 10.5878 4 10.5878H7.85781V14.75Z" fill="white"/>
</svg>
