<svg width="22" height="22" viewBox="0 0 22 22" fill="none" xmlns="http://www.w3.org/2000/svg">
  <circle cx="11" cy="11" r="10" stroke="#000" stroke-width="2"/>
  <path fill-rule="evenodd" clip-rule="evenodd" d="M10.048 16.3335C10.048 16.8858 10.4958 17.3335 11.048 17.3335C11.6003 17.3335 12.048 16.8858 12.048 16.3335V12.0252H16.3335C16.8858 12.0252 17.3335 11.5775 17.3335 11.0252C17.3335 10.4729 16.8858 10.0252 16.3335 10.0252H12.048V6C12.048 5.44771 11.6003 5 11.048 5C10.4958 5 10.048 5.44771 10.048 6V10.0252H6C5.44772 10.0252 5 10.4729 5 11.0252C5 11.5775 5.44772 12.0252 6 12.0252H10.048V16.3335Z" fill="#000"/>
</svg>
