<svg width="22" height="21" viewBox="0 0 22 21" fill="none" xmlns="http://www.w3.org/2000/svg">
<path d="M21.4865 2.87337L18.7894 14.089H5.20445L1.97142 0.952913H0V0H2.62231L5.85534 13.136H18.1345L20.3721 3.83156L7.40311 3.88241L7.39983 2.9295L21.4865 2.87337ZM17.7815 15.4989H5.44518V16.4518H17.7815V15.4989ZM8.23732 19.0198C8.23732 20.0106 7.51526 20.8163 6.62797 20.8163C5.7401 20.8163 5.01801 20.0102 5.01801 19.0198C5.01801 18.0287 5.74007 17.2226 6.62797 17.2226C7.51531 17.2229 8.23732 18.0286 8.23732 19.0198ZM7.38367 19.0198C7.38367 18.5544 7.04483 18.1755 6.62796 18.1755C6.2111 18.1755 5.87166 18.5544 5.87166 19.0198C5.87166 19.4851 6.2111 19.8634 6.62796 19.8634C7.04483 19.8637 7.38367 19.4851 7.38367 19.0198ZM17.9371 19.0198C17.9371 20.0106 17.215 20.8163 16.3272 20.8163C15.4393 20.8163 14.7172 20.0102 14.7172 19.0198C14.7172 18.0287 15.4393 17.2226 16.3272 17.2226C17.215 17.2229 17.9371 18.0286 17.9371 19.0198ZM17.0835 19.0198C17.0835 18.5544 16.744 18.1755 16.3272 18.1755C15.9103 18.1755 15.5709 18.5544 15.5709 19.0198C15.5709 19.4851 15.9103 19.8634 16.3272 19.8634C16.744 19.8637 17.0835 19.4851 17.0835 19.0198Z" fill="#999999"/>
</svg>
