<svg width="24" height="15" viewBox="0 0 24 15" fill="none" xmlns="http://www.w3.org/2000/svg">
<path d="M22.1479 6.66882C22.6791 7.2234 22.6791 7.97208 22.1479 8.52576C20.4746 10.2691 16.4602 13.8586 11.7733 13.8586C7.08645 13.8586 3.072 10.2691 1.39876 8.52576C1.1403 8.26022 1 7.93354 1 7.59729C1 7.26104 1.1403 6.93436 1.39876 6.66882C3.072 4.92548 7.08645 1.33594 11.7733 1.33594C16.4602 1.33594 20.4746 4.92548 22.1479 6.66882V6.66882Z" stroke="#FF8181" stroke-width="2" stroke-linecap="round" stroke-linejoin="round"/>
<path d="M11.7762 10.2809C13.6331 10.2809 15.1384 9.07948 15.1384 7.59747C15.1384 6.11547 13.6331 4.91406 11.7762 4.91406C9.91936 4.91406 8.41406 6.11547 8.41406 7.59747C8.41406 9.07948 9.91936 10.2809 11.7762 10.2809Z" stroke="#FF8181" stroke-width="2" stroke-linecap="round" stroke-linejoin="round"/>
</svg>
