<svg width="48" height="37" viewBox="0 0 48 37" fill="none" xmlns="http://www.w3.org/2000/svg">
<path d="M47 18.5C47 28.2001 39.4311 36 30.1715 36C20.9118 36 13.3429 28.2001 13.3429 18.5C13.3429 8.79985 20.9118 1 30.1715 1C39.4311 1 47 8.79985 47 18.5Z" stroke="#3E3E3E" stroke-width="2"/>
<path d="M32.3207 19.2778C32.7503 18.8482 32.7503 18.1518 32.3207 17.7222L25.3203 10.7218C24.8907 10.2922 24.1943 10.2922 23.7647 10.7218C23.3351 11.1514 23.3351 11.8479 23.7647 12.2775L29.9872 18.5L23.7647 24.7225C23.3351 25.1521 23.3351 25.8486 23.7647 26.2782C24.1943 26.7078 24.8907 26.7078 25.3203 26.2782L32.3207 19.2778ZM0 19.6H31.5429V17.4H0V19.6Z" fill="#3E3E3E"/>
</svg>
