<svg width="30" height="30" viewBox="0 0 30 30" fill="none" xmlns="http://www.w3.org/2000/svg">
  <rect width="30" height="30" rx="4" fill="#D5E6FC"/>
  <path d="M11.6896 21.0507V15.5918C11.6896 15.307 11.9137 15.1171 12.138 15.1171H18.8621C19.0862 15.1171 19.3104 15.3544 19.3104 15.5918V21.0507H20.5207C20.8793 21.0507 21.1035 20.671 21.1035 20.3387V11.557L18.0104 7.9495H17.6965V10.9875C17.6965 11.2249 17.4724 11.4623 17.2482 11.4623H12.1828C11.9138 11.4623 11.6897 11.225 11.6897 10.9875V7.9495H10.4793C10.1207 7.9495 9.89655 8.32922 9.89655 8.66152V20.3388C9.89655 20.6711 10.1207 21.0508 10.4793 21.0508H11.6897L11.6896 21.0507ZM18.4138 21.0507V16.0667H12.5861V21.0507H18.4138ZM10.4792 7H18.1896C18.3241 7 18.4586 7.0475 18.5482 7.18991L21.8655 11.0347C21.9551 11.1296 22 11.272 22 11.367V20.3387C22 21.1931 21.3724 22 20.5207 22H10.4793C9.62754 22 9 21.1931 9 20.3387V8.66141C9 7.807 9.62756 7.00008 10.4793 7.00008L10.4792 7ZM16.8001 7.94931H12.5864V10.5126H16.8001V7.94931Z" fill="#1874EC"/>
</svg>
