<svg width="19" height="19" viewBox="0 0 19 19" fill="none" xmlns="http://www.w3.org/2000/svg">
<path d="M13.6555 11.8741C13.2111 11.8764 12.7728 11.9784 12.3731 12.1726C11.9733 12.3668 11.6223 12.6483 11.3458 12.9963L7.00552 10.2829C7.1637 9.77237 7.1637 9.22592 7.00552 8.71539L11.3458 6.00196C11.7864 6.54744 12.4057 6.91941 13.0943 7.05195C13.7828 7.18449 14.496 7.06906 15.1075 6.72611C15.7191 6.38316 16.1895 5.83481 16.4355 5.17822C16.6815 4.52162 16.6872 3.79915 16.4515 3.1388C16.2158 2.47844 15.754 1.92281 15.1478 1.57034C14.5417 1.21788 13.8304 1.09132 13.1399 1.21309C12.4494 1.33486 11.8243 1.6971 11.3753 2.23563C10.9263 2.77417 10.6824 3.45425 10.6868 4.15539C10.6896 4.42091 10.7295 4.68472 10.8055 4.93914L6.46521 7.65258C6.08203 7.17021 5.55828 6.81899 4.96655 6.6476C4.37483 6.47621 3.74444 6.49315 3.16278 6.69606C2.58111 6.89897 2.07697 7.27781 1.72025 7.78006C1.36352 8.28231 1.17188 8.8831 1.17188 9.49914C1.17187 10.1152 1.36352 10.716 1.72025 11.2182C2.07697 11.7205 2.58111 12.0993 3.16278 12.3022C3.74444 12.5051 4.37483 12.5221 4.96655 12.3507C5.55828 12.1793 6.08203 11.8281 6.46521 11.3457L10.8055 14.0591C10.7295 14.3136 10.6896 14.5774 10.6868 14.8429C10.6868 15.4301 10.8609 16.004 11.1871 16.4922C11.5133 16.9805 11.977 17.361 12.5194 17.5857C13.0619 17.8104 13.6588 17.8692 14.2347 17.7546C14.8106 17.6401 15.3396 17.3573 15.7547 16.9421C16.1699 16.5269 16.4527 15.998 16.5672 15.4221C16.6818 14.8462 16.623 14.2493 16.3983 13.7068C16.1736 13.1643 15.7931 12.7007 15.3049 12.3745C14.8167 12.0483 14.2427 11.8741 13.6555 11.8741ZM13.6555 2.37414C14.0078 2.37414 14.3522 2.47861 14.6451 2.67434C14.9381 2.87007 15.1664 3.14826 15.3012 3.47374C15.436 3.79922 15.4713 4.15737 15.4025 4.5029C15.3338 4.84843 15.1642 5.16582 14.9151 5.41493C14.6659 5.66404 14.3486 5.83369 14.003 5.90242C13.6575 5.97115 13.2993 5.93587 12.9739 5.80105C12.6484 5.66624 12.3702 5.43793 12.1745 5.145C11.9787 4.85208 11.8743 4.50769 11.8743 4.15539C11.8743 3.68298 12.0619 3.22991 12.396 2.89586C12.73 2.56181 13.1831 2.37414 13.6555 2.37414ZM4.15552 11.2804C3.80322 11.2804 3.45884 11.1759 3.16591 10.9802C2.87299 10.7845 2.64468 10.5063 2.50986 10.1808C2.37504 9.85532 2.33977 9.49717 2.4085 9.15164C2.47723 8.80611 2.64687 8.48872 2.89599 8.23961C3.1451 7.9905 3.46249 7.82085 3.80802 7.75212C4.15354 7.68339 4.51169 7.71867 4.83717 7.85348C5.16266 7.9883 5.44085 8.21661 5.63658 8.50953C5.8323 8.80246 5.93677 9.14685 5.93677 9.49914C5.93677 9.97156 5.7491 10.4246 5.41505 10.7587C5.08101 11.0927 4.62794 11.2804 4.15552 11.2804ZM13.6555 16.6241C13.3032 16.6241 12.9588 16.5197 12.6659 16.3239C12.373 16.1282 12.1447 15.85 12.0099 15.5245C11.875 15.1991 11.8398 14.8409 11.9085 14.4954C11.9772 14.1499 12.1469 13.8325 12.396 13.5834C12.6451 13.3342 12.9625 13.1646 13.308 13.0959C13.6535 13.0271 14.0117 13.0624 14.3372 13.1972C14.6627 13.3321 14.9408 13.5604 15.1366 13.8533C15.3323 14.1462 15.4368 14.4906 15.4368 14.8429C15.4368 15.3153 15.2491 15.7684 14.9151 16.1024C14.581 16.4365 14.1279 16.6241 13.6555 16.6241Z" fill="black"/>
</svg>
