<svg width="17" height="18" viewBox="0 0 17 18" fill="none" xmlns="http://www.w3.org/2000/svg">
<path d="M5.788 9.50728C5.788 10.8628 4.67035 11.9799 3.269 11.9799C1.86765 11.9799 0.75 10.8628 0.75 9.50728C0.75 8.15176 1.86765 7.03467 3.269 7.03467C4.67035 7.03467 5.788 8.15176 5.788 9.50728Z" stroke="#999999" stroke-width="1.5"/>
<path d="M16.2489 14.6635C16.2489 16.019 15.1313 17.1361 13.7299 17.1361C12.3286 17.1361 11.2109 16.019 11.2109 14.6635C11.2109 13.308 12.3286 12.1909 13.7299 12.1909C15.1313 12.1909 16.2489 13.308 16.2489 14.6635Z" stroke="#999999" stroke-width="1.5"/>
<path d="M15.7568 4.10884C15.7568 5.46436 14.6391 6.58145 13.2378 6.58145C11.8364 6.58145 10.7188 5.46436 10.7188 4.10884C10.7188 2.75333 11.8364 1.63623 13.2378 1.63623C14.6391 1.63623 15.7568 2.75333 15.7568 4.10884Z" stroke="#999999" stroke-width="1.5"/>
<rect width="5.89394" height="1.35441" transform="matrix(0.89474 -0.446588 0.456913 0.889512 5.69141 7.83936)" fill="#999999"/>
<rect width="6.41552" height="1.35366" transform="matrix(0.868482 0.495721 -0.506501 0.862239 6.10156 9.75342)" fill="#999999"/>
</svg>
