<svg width="15" height="15" viewBox="0 0 15 15" fill="none" xmlns="http://www.w3.org/2000/svg">
<path fill-rule="evenodd" clip-rule="evenodd" d="M12.5 4C13.3284 4 14 3.32843 14 2.5C14 1.67157 13.3284 1 12.5 1C11.6716 1 11 1.67157 11 2.5C11 3.32843 11.6716 4 12.5 4ZM12.5 5C13.8807 5 15 3.88071 15 2.5C15 1.11929 13.8807 0 12.5 0C11.1193 0 10 1.11929 10 2.5C10 2.62428 10.0091 2.74644 10.0266 2.86585L5.00275 5.76636C4.47167 5.28985 3.76968 5 3 5C1.34315 5 0 6.34315 0 8C0 9.65685 1.34315 11 3 11C3.85202 11 4.62108 10.6448 5.16719 10.0744L10.0141 12.2324C10.0048 12.3203 10 12.4096 10 12.5C10 13.8807 11.1193 15 12.5 15C13.8807 15 15 13.8807 15 12.5C15 11.1193 13.8807 10 12.5 10C11.7478 10 11.0732 10.3322 10.6148 10.8579L5.90289 8.76004C5.96626 8.5173 6 8.26259 6 8C6 7.65595 5.94208 7.32542 5.83547 7.01764L10.6841 4.21829C11.1398 4.69969 11.7848 5 12.5 5ZM3 6C3.64386 6 4.21666 6.30425 4.58248 6.77683L4.85214 7.2439C4.94746 7.47716 5 7.73244 5 8C5 9.10457 4.10457 10 3 10C1.89543 10 1 9.10457 1 8C1 6.89543 1.89543 6 3 6ZM14 12.5C14 13.3284 13.3284 14 12.5 14C11.6716 14 11 13.3284 11 12.5C11 11.6716 11.6716 11 12.5 11C13.3284 11 14 11.6716 14 12.5Z" fill="black"/>
</svg>
