<svg width="172" height="145" viewBox="0 0 172 145" fill="none" xmlns="http://www.w3.org/2000/svg">
<g clip-path="url(#clip0_19825_395104)">
<path d="M4 4.5H32.5L63.5 113H146" stroke="#7C7C7C" stroke-width="6"/>
<path d="M39.5 24H166L151.5 87H57.5" stroke="#7C7C7C" stroke-width="6"/>
<path d="M47.5 56.5H159.5" stroke="#7C7C7C" stroke-width="6"/>
<path d="M73.5 24L81 87.5" stroke="#7C7C7C" stroke-width="6"/>
<path d="M136.5 25L129 88.5" stroke="#7C7C7C" stroke-width="6"/>
<path d="M105 22.5V86.5" stroke="#7C7C7C" stroke-width="6"/>
<path d="M136.261 141.368C134.369 141.325 132.567 140.555 131.227 139.217C129.881 137.872 129.109 136.059 129.07 134.158C129.082 132.24 129.852 130.404 131.212 129.05C131.889 128.377 132.692 127.843 133.575 127.48C134.458 127.117 135.403 126.931 136.358 126.934C137.313 126.936 138.258 127.126 139.139 127.494C140.02 127.861 140.82 128.399 141.494 129.075C142.167 129.752 142.701 130.555 143.064 131.438C143.42 132.303 143.605 133.228 143.61 134.163C143.517 136.067 142.709 137.867 141.347 139.203C139.984 140.54 138.167 141.312 136.261 141.368Z" stroke="#7C7C7C" stroke-width="6"/>
<path d="M64.758 133.893C64.773 131.999 65.5396 130.189 66.8891 128.86C68.2387 127.532 70.0608 126.794 71.9545 126.809C73.8481 126.824 75.6583 127.59 76.9867 128.94C78.3152 130.29 79.0532 132.112 79.0382 134.005C79.0233 135.899 78.2567 137.709 76.9071 139.038C75.5575 140.366 73.7355 141.104 71.8418 141.089C69.9481 141.074 68.1379 140.307 66.8095 138.958C65.481 137.608 64.7431 135.786 64.758 133.893Z" stroke="#7C7C7C" stroke-width="6"/>
</g>
<defs>
<clipPath id="clip0_19825_395104">
<rect width="171.75" height="144.38" fill="white"/>
</clipPath>
</defs>
</svg>
