<svg width="20" height="14" viewBox="0 0 20 14" fill="none" xmlns="http://www.w3.org/2000/svg">
<path d="M17.7131 6.13508C18.1081 6.65175 18.1081 7.34925 17.7131 7.86508C16.469 9.48925 13.484 12.8334 9.99895 12.8334C6.51395 12.8334 3.52895 9.48925 2.28478 7.86508C2.0926 7.61769 1.98828 7.31335 1.98828 7.00008C1.98828 6.68682 2.0926 6.38247 2.28478 6.13508C3.52895 4.51092 6.51395 1.16675 9.99895 1.16675C13.484 1.16675 16.469 4.51092 17.7131 6.13508V6.13508Z" stroke="#999999" stroke-width="2" stroke-linecap="round" stroke-linejoin="round"/>
<path d="M10 9.5C11.3807 9.5 12.5 8.38071 12.5 7C12.5 5.61929 11.3807 4.5 10 4.5C8.61929 4.5 7.5 5.61929 7.5 7C7.5 8.38071 8.61929 9.5 10 9.5Z" stroke="#999999" stroke-width="2" stroke-linecap="round" stroke-linejoin="round"/>
</svg>
