<svg width="57" height="57" viewBox="0 0 57 57" fill="none" xmlns="http://www.w3.org/2000/svg">
    <path d="M30.7665 1.88809C30.2855 2.31559 26.5449 9.73895 26.5449 9.73895L23.7617 20.9653L34.5917 19.9722C34.5917 19.9722 43.6004 3.21958 43.783 2.83215C44.108 2.12856 44.2817 1.83911 43.0393 1.83911C41.7969 1.83465 31.2162 1.48731 30.7665 1.88809Z"
          fill="#176CC7"/>
    <path d="M36.3731 19.2776C35.8343 18.9881 19.9634 18.7387 19.5893 19.2776C19.2509 19.7674 19.4424 22.3369 19.5715 22.6441C19.8031 23.1785 24.9286 25.5075 24.9286 25.5075L24.8306 26.5673C24.8306 26.5673 25.2492 26.6742 28.2284 26.6742C31.2075 26.6742 31.7953 26.5228 31.7953 26.5228L31.8042 25.5654C31.8042 25.5654 36.4177 23.321 36.6492 23.0093C36.8452 22.751 36.912 19.567 36.3731 19.2776ZM31.6484 23.3388C31.6484 23.3388 31.7953 22.6842 31.4881 22.5328C31.1808 22.3769 25.9083 22.4482 25.4897 22.4704C25.0711 22.4927 25.0711 23.2408 25.0711 23.2408L21.6867 21.2236V20.894L34.2891 20.9831L34.3113 21.3572L31.6484 23.3388Z"
          fill="#CECDD2"/>
    <path d="M26.389 22.7866C25.9704 22.7866 25.73 23.223 25.73 23.9756C25.73 24.6792 25.9704 25.2715 26.5004 25.2269C26.9368 25.1913 27.0882 24.5233 27.0481 23.9311C27.008 23.2275 26.919 22.7866 26.389 22.7866Z"
          fill="#FDFFFF"/>
    <path d="M12.9009 40.9197C12.9009 51.5894 22.72 56.1182 29.137 55.9267C36.6138 55.7041 44.5047 50.0308 43.9926 39.851C43.5072 30.2055 35.3268 25.9171 28.2998 25.9661C20.1328 26.0285 12.9009 31.5993 12.9009 40.9197Z"
          fill="#CECDD2"/>
    <path d="M28.7362 53.9407C28.6249 53.9407 28.5091 53.9407 28.3977 53.9363C25.0579 53.825 21.7581 52.4178 19.3445 50.0799C16.7617 47.5772 15.3456 44.1928 15.3634 40.5546C15.4035 31.6707 23.1698 27.5515 28.4378 27.5515H28.4824C35.6207 27.5827 41.481 33.1313 41.6458 40.6526C41.717 44.0014 40.3455 47.5149 37.6558 50.16C35.1442 52.6226 31.8133 53.9407 28.7362 53.9407ZM28.4289 29.03C23.7041 29.03 16.7172 32.8953 16.6994 40.5546C16.686 46.2814 21.1213 52.1684 28.5091 52.4178C31.3234 52.5068 34.2224 51.4292 36.5648 49.1269C38.9962 46.7356 40.3633 43.654 40.3143 40.6704C40.1985 34.2 34.9082 29.0522 28.4868 29.021C28.4779 29.021 28.4423 29.03 28.4289 29.03Z"
          fill="#9B9B9D"/>
    <path d="M25.8682 27.3734C25.561 26.9504 22.4126 27.0706 19.0238 29.9874C15.6572 32.8864 15.154 36.0926 15.7596 36.2618C16.4499 36.4533 17.2915 33.354 20.1994 30.7489C22.8713 28.3665 26.4783 28.215 25.8682 27.3734ZM39.1341 39.0629C38.0609 39.2143 39.1742 42.4294 36.6849 46.0275C34.5251 49.1492 32.0759 50.2803 32.3609 50.9661C32.7438 51.8834 36.667 49.5989 38.4839 45.8761C40.1271 42.5096 39.9312 38.9515 39.1341 39.0629Z"
          fill="#FEFFFA"/>
    <path d="M11.3599 1.65656C11.0794 1.91485 21.8069 21.0188 21.8069 21.0188C21.8069 21.0188 23.606 21.2503 27.6227 21.2859C31.6394 21.3216 33.63 21.0544 33.63 21.0544C33.63 21.0544 25.2893 1.84805 24.7905 1.65656C24.5456 1.5586 21.2414 1.52297 18.0129 1.48735C14.7799 1.44727 11.6271 1.40719 11.3599 1.65656Z"
          fill="#2E9DF4"/>
</svg>
