<svg width="23" height="14" viewBox="0 0 23 14" fill="none" xmlns="http://www.w3.org/2000/svg">
<path d="M21.6117 5.99135C22.1294 6.52224 22.1294 7.23895 21.6117 7.76898C19.9809 9.43787 16.0682 12.8741 11.5002 12.8741C6.93212 12.8741 3.01947 9.43787 1.38865 7.76898C1.13674 7.51478 1 7.20206 1 6.88017C1 6.55828 1.13674 6.24555 1.38865 5.99135C3.01947 4.32247 6.93212 0.88623 11.5002 0.88623C16.0682 0.88623 19.9809 4.32247 21.6117 5.99135V5.99135Z" stroke="#FF8181" stroke-width="1.5" stroke-linecap="round" stroke-linejoin="round"/>
<path d="M11.5035 9.44913C13.3133 9.44913 14.7804 8.29904 14.7804 6.88033C14.7804 5.46162 13.3133 4.31152 11.5035 4.31152C9.69369 4.31152 8.22656 5.46162 8.22656 6.88033C8.22656 8.29904 9.69369 9.44913 11.5035 9.44913Z" stroke="#FF8181" stroke-width="1.5" stroke-linecap="round" stroke-linejoin="round"/>
</svg>
