<svg width="25" height="13" viewBox="0 0 25 13" fill="none" xmlns="http://www.w3.org/2000/svg">
<path d="M8.375 12.0312C8.375 11.7909 8.48365 11.5604 8.67705 11.3904C8.87044 11.2205 9.13275 11.125 9.40625 11.125H15.5938C15.8673 11.125 16.1296 11.2205 16.323 11.3904C16.5164 11.5604 16.625 11.7909 16.625 12.0312C16.625 12.2716 16.5164 12.5021 16.323 12.6721C16.1296 12.842 15.8673 12.9375 15.5938 12.9375H9.40625C9.13275 12.9375 8.87044 12.842 8.67705 12.6721C8.48365 12.5021 8.375 12.2716 8.375 12.0312ZM4.25 6.59375C4.25 6.3534 4.35865 6.12289 4.55205 5.95293C4.74544 5.78298 5.00775 5.6875 5.28125 5.6875H19.7188C19.9923 5.6875 20.2546 5.78298 20.448 5.95293C20.6414 6.12289 20.75 6.3534 20.75 6.59375C20.75 6.8341 20.6414 7.06461 20.448 7.23457C20.2546 7.40452 19.9923 7.5 19.7188 7.5H5.28125C5.00775 7.5 4.74544 7.40452 4.55205 7.23457C4.35865 7.06461 4.25 6.8341 4.25 6.59375ZM0.125 1.15625C0.125 0.915898 0.233649 0.685389 0.427046 0.515435C0.620443 0.34548 0.882746 0.25 1.15625 0.25H23.8438C24.1173 0.25 24.3796 0.34548 24.573 0.515435C24.7664 0.685389 24.875 0.915898 24.875 1.15625C24.875 1.3966 24.7664 1.62711 24.573 1.79707C24.3796 1.96702 24.1173 2.0625 23.8438 2.0625H1.15625C0.882746 2.0625 0.620443 1.96702 0.427046 1.79707C0.233649 1.62711 0.125 1.3966 0.125 1.15625Z" fill="black"/>
</svg>
