<svg width="65" height="65" viewBox="0 0 65 65" fill="none" xmlns="http://www.w3.org/2000/svg">
<g filter="url(#filter0_d_19_84954)">
<rect x="4" width="57" height="57" rx="28.5" fill="#CE745F"/>
</g>
<path d="M28.4639 24.8848C28.6782 24.8848 28.8836 24.9699 29.0351 25.1213C29.1865 25.2728 29.2716 25.4782 29.2716 25.6925V35.3848C29.2716 35.599 29.1865 35.8044 29.0351 35.9559C28.8836 36.1074 28.6782 36.1925 28.4639 36.1925C28.2497 36.1925 28.0443 36.1074 27.8928 35.9559C27.7413 35.8044 27.6562 35.599 27.6562 35.3848V25.6925C27.6562 25.4782 27.7413 25.2728 27.8928 25.1213C28.0443 24.9699 28.2497 24.8848 28.4639 24.8848ZM32.5024 24.8848C32.7166 24.8848 32.9221 24.9699 33.0735 25.1213C33.225 25.2728 33.3101 25.4782 33.3101 25.6925V35.3848C33.3101 35.599 33.225 35.8044 33.0735 35.9559C32.9221 36.1074 32.7166 36.1925 32.5024 36.1925C32.2882 36.1925 32.0828 36.1074 31.9313 35.9559C31.7798 35.8044 31.6947 35.599 31.6947 35.3848V25.6925C31.6947 25.4782 31.7798 25.2728 31.9313 25.1213C32.0828 24.9699 32.2882 24.8848 32.5024 24.8848ZM37.3486 25.6925C37.3486 25.4782 37.2635 25.2728 37.112 25.1213C36.9605 24.9699 36.7551 24.8848 36.5409 24.8848C36.3267 24.8848 36.1212 24.9699 35.9697 25.1213C35.8183 25.2728 35.7332 25.4782 35.7332 25.6925V35.3848C35.7332 35.599 35.8183 35.8044 35.9697 35.9559C36.1212 36.1074 36.3267 36.1925 36.5409 36.1925C36.7551 36.1925 36.9605 36.1074 37.112 35.9559C37.2635 35.8044 37.3486 35.599 37.3486 35.3848V25.6925Z" fill="white"/>
<path fill-rule="evenodd" clip-rule="evenodd" d="M43 20.8462C43 21.2746 42.8298 21.6855 42.5269 21.9884C42.2239 22.2913 41.813 22.4615 41.3846 22.4615H40.5769V37C40.5769 37.8569 40.2365 38.6786 39.6307 39.2845C39.0248 39.8904 38.203 40.2308 37.3462 40.2308H27.6538C26.797 40.2308 25.9752 39.8904 25.3693 39.2845C24.7635 38.6786 24.4231 37.8569 24.4231 37V22.4615H23.6154C23.187 22.4615 22.7761 22.2913 22.4731 21.9884C22.1702 21.6855 22 21.2746 22 20.8462V19.2308C22 18.8023 22.1702 18.3915 22.4731 18.0885C22.7761 17.7856 23.187 17.6154 23.6154 17.6154H29.2692C29.2692 17.187 29.4394 16.7761 29.7424 16.4731C30.0453 16.1702 30.4562 16 30.8846 16H34.1154C34.5438 16 34.9547 16.1702 35.2576 16.4731C35.5606 16.7761 35.7308 17.187 35.7308 17.6154H41.3846C41.813 17.6154 42.2239 17.7856 42.5269 18.0885C42.8298 18.3915 43 18.8023 43 19.2308V20.8462ZM26.2291 22.4615L26.0385 22.5568V37C26.0385 37.4284 26.2087 37.8393 26.5116 38.1423C26.8145 38.4452 27.2254 38.6154 27.6538 38.6154H37.3462C37.7746 38.6154 38.1855 38.4452 38.4884 38.1423C38.7913 37.8393 38.9615 37.4284 38.9615 37V22.5568L38.7709 22.4615H26.2291ZM23.6154 20.8462V19.2308H41.3846V20.8462H23.6154Z" fill="white"/>
<defs>
<filter id="filter0_d_19_84954" x="0" y="0" width="65" height="65" filterUnits="userSpaceOnUse" color-interpolation-filters="sRGB">
<feFlood flood-opacity="0" result="BackgroundImageFix"/>
<feColorMatrix in="SourceAlpha" type="matrix" values="0 0 0 0 0 0 0 0 0 0 0 0 0 0 0 0 0 0 127 0" result="hardAlpha"/>
<feOffset dy="4"/>
<feGaussianBlur stdDeviation="2"/>
<feComposite in2="hardAlpha" operator="out"/>
<feColorMatrix type="matrix" values="0 0 0 0 0 0 0 0 0 0 0 0 0 0 0 0 0 0 0.25 0"/>
<feBlend mode="normal" in2="BackgroundImageFix" result="effect1_dropShadow_19_84954"/>
<feBlend mode="normal" in="SourceGraphic" in2="effect1_dropShadow_19_84954" result="shape"/>
</filter>
</defs>
</svg>
