<svg width="13" height="16" viewBox="0 0 13 16" fill="none" xmlns="http://www.w3.org/2000/svg">
<path d="M4 5.83594C4.13261 5.83594 4.25979 5.88862 4.35355 5.98238C4.44732 6.07615 4.5 6.20333 4.5 6.33594V12.3359C4.5 12.4685 4.44732 12.5957 4.35355 12.6895C4.25979 12.7833 4.13261 12.8359 4 12.8359C3.86739 12.8359 3.74021 12.7833 3.64645 12.6895C3.55268 12.5957 3.5 12.4685 3.5 12.3359V6.33594C3.5 6.20333 3.55268 6.07615 3.64645 5.98238C3.74021 5.88862 3.86739 5.83594 4 5.83594ZM6.5 5.83594C6.63261 5.83594 6.75979 5.88862 6.85355 5.98238C6.94732 6.07615 7 6.20333 7 6.33594V12.3359C7 12.4685 6.94732 12.5957 6.85355 12.6895C6.75979 12.7833 6.63261 12.8359 6.5 12.8359C6.36739 12.8359 6.24021 12.7833 6.14645 12.6895C6.05268 12.5957 6 12.4685 6 12.3359V6.33594C6 6.20333 6.05268 6.07615 6.14645 5.98238C6.24021 5.88862 6.36739 5.83594 6.5 5.83594ZM9.5 6.33594C9.5 6.20333 9.44732 6.07615 9.35355 5.98238C9.25979 5.88862 9.13261 5.83594 9 5.83594C8.86739 5.83594 8.74021 5.88862 8.64645 5.98238C8.55268 6.07615 8.5 6.20333 8.5 6.33594V12.3359C8.5 12.4685 8.55268 12.5957 8.64645 12.6895C8.74021 12.7833 8.86739 12.8359 9 12.8359C9.13261 12.8359 9.25979 12.7833 9.35355 12.6895C9.44732 12.5957 9.5 12.4685 9.5 12.3359V6.33594Z" fill="#ffffff"/>
<path fill-rule="evenodd" clip-rule="evenodd" d="M13 3.33594C13 3.60115 12.8946 3.85551 12.7071 4.04304C12.5196 4.23058 12.2652 4.33594 12 4.33594H11.5V13.3359C11.5 13.8664 11.2893 14.3751 10.9142 14.7502C10.5391 15.1252 10.0304 15.3359 9.5 15.3359H3.5C2.96957 15.3359 2.46086 15.1252 2.08579 14.7502C1.71071 14.3751 1.5 13.8664 1.5 13.3359V4.33594H1C0.734784 4.33594 0.48043 4.23058 0.292893 4.04304C0.105357 3.85551 0 3.60115 0 3.33594V2.33594C0 2.07072 0.105357 1.81637 0.292893 1.62883C0.48043 1.44129 0.734784 1.33594 1 1.33594H4.5C4.5 1.07072 4.60536 0.816367 4.79289 0.628831C4.98043 0.441294 5.23478 0.335938 5.5 0.335938L7.5 0.335938C7.76522 0.335938 8.01957 0.441294 8.20711 0.628831C8.39464 0.816367 8.5 1.07072 8.5 1.33594H12C12.2652 1.33594 12.5196 1.44129 12.7071 1.62883C12.8946 1.81637 13 2.07072 13 2.33594V3.33594ZM2.618 4.33594L2.5 4.39494V13.3359C2.5 13.6012 2.60536 13.8555 2.79289 14.043C2.98043 14.2306 3.23478 14.3359 3.5 14.3359H9.5C9.76522 14.3359 10.0196 14.2306 10.2071 14.043C10.3946 13.8555 10.5 13.6012 10.5 13.3359V4.39494L10.382 4.33594H2.618ZM1 3.33594V2.33594H12V3.33594H1Z" fill="#ffffff"/>
</svg>
