<svg width="13" height="10" viewBox="0 0 13 10" fill="none" xmlns="http://www.w3.org/2000/svg">
<path d="M7.01411 0.769373C6.95677 0.686098 6.88005 0.618009 6.79055 0.57097C6.70105 0.523932 6.60146 0.499354 6.50036 0.499354C6.39925 0.499354 6.29966 0.523932 6.21016 0.57097C6.12067 0.618009 6.04395 0.686098 5.98661 0.769373L0.361609 8.89437C0.2965 8.98809 0.258319 9.09786 0.251213 9.21175C0.244107 9.32564 0.26835 9.4393 0.321306 9.54038C0.374262 9.64146 0.453907 9.7261 0.551587 9.78509C0.649267 9.84408 0.761248 9.87518 0.87536 9.875L12.1254 9.875C12.2392 9.87453 12.3508 9.84303 12.4481 9.7839C12.5453 9.72476 12.6247 9.64023 12.6775 9.53938C12.7303 9.43853 12.7547 9.32519 12.7479 9.21154C12.7412 9.09789 12.7035 8.98824 12.6391 8.89437L7.01411 0.769373Z" fill="#36A60F"/>
</svg>
