<svg width="19" height="15" viewBox="0 0 19 15" fill="none" xmlns="http://www.w3.org/2000/svg">
<path d="M0.992188 1.78427C0.992188 1.31105 1.1695 0.857214 1.48511 0.522599C1.80072 0.187985 2.22878 0 2.67513 0H12.7728C13.2191 0 13.6472 0.187985 13.9628 0.522599C14.2784 0.857214 14.4557 1.31105 14.4557 1.78427V3.56853H15.6001C15.8522 3.56877 16.1011 3.62907 16.3283 3.74499C16.5555 3.86091 16.7553 4.02947 16.9128 4.23823L18.5744 6.43882C18.8135 6.75545 18.9437 7.14899 18.9435 7.55458V10.1108C18.9435 10.5841 18.7662 11.0379 18.4506 11.3725C18.135 11.7071 17.7069 11.8951 17.2606 11.8951H16.6996C16.6996 12.5261 16.4632 13.1312 16.0424 13.5773C15.6216 14.0235 15.0508 14.2741 14.4557 14.2741C13.8606 14.2741 13.2898 14.0235 12.869 13.5773C12.4482 13.1312 12.2118 12.5261 12.2118 11.8951H6.60198C6.60263 12.2122 6.54347 12.5262 6.42799 12.8188C6.31251 13.1113 6.14304 13.3764 5.92954 13.5984C5.71603 13.8205 5.46281 13.9951 5.18475 14.1119C4.90669 14.2288 4.6094 14.2855 4.31037 14.2787C4.01134 14.272 3.7166 14.2019 3.44348 14.0727C3.17035 13.9434 2.92435 13.7576 2.71995 13.5261C2.51554 13.2946 2.35684 13.0221 2.2532 12.7247C2.14955 12.4272 2.10303 12.1108 2.11639 11.794C1.78771 11.6713 1.50304 11.4436 1.30167 11.1421C1.10031 10.8406 0.992169 10.4803 0.992188 10.1108L0.992188 1.78427ZM2.444 10.6533C2.64685 10.3012 2.93263 10.0111 3.27324 9.81151C3.61385 9.61196 3.99758 9.5098 4.38671 9.51508C4.77583 9.52036 5.15697 9.63289 5.49265 9.84163C5.82833 10.0504 6.10701 10.3481 6.3013 10.7056H12.5125C12.7098 10.3443 12.993 10.0441 13.3337 9.83487V1.78427C13.3337 1.62653 13.2746 1.47525 13.1694 1.36371C13.0642 1.25217 12.9215 1.18951 12.7728 1.18951H2.67513C2.52635 1.18951 2.38366 1.25217 2.27845 1.36371C2.17325 1.47525 2.11415 1.62653 2.11415 1.78427V10.1108C2.11406 10.2253 2.14513 10.3374 2.20365 10.4336C2.26216 10.5298 2.34561 10.6061 2.444 10.6533ZM14.4557 9.51608C14.8496 9.51609 15.2365 9.62602 15.5776 9.83482C15.9187 10.0436 16.202 10.3439 16.3989 10.7056H17.2606C17.4094 10.7056 17.5521 10.6429 17.6573 10.5314C17.7625 10.4199 17.8216 10.2686 17.8216 10.1108V7.55339C17.8213 7.41842 17.7778 7.28754 17.6982 7.18226L16.0377 4.98167C15.9852 4.91201 15.9186 4.85575 15.8429 4.81704C15.7672 4.77833 15.6842 4.75817 15.6001 4.75804H14.4557V9.51608ZM4.35806 10.7056C4.0605 10.7056 3.77513 10.8309 3.56472 11.054C3.35431 11.2771 3.23611 11.5796 3.23611 11.8951C3.23611 12.2106 3.35431 12.5131 3.56472 12.7362C3.77513 12.9593 4.0605 13.0846 4.35806 13.0846C4.65563 13.0846 4.941 12.9593 5.15141 12.7362C5.36182 12.5131 5.48002 12.2106 5.48002 11.8951C5.48002 11.5796 5.36182 11.2771 5.15141 11.054C4.941 10.8309 4.65563 10.7056 4.35806 10.7056ZM14.4557 10.7056C14.1581 10.7056 13.8728 10.8309 13.6624 11.054C13.4519 11.2771 13.3337 11.5796 13.3337 11.8951C13.3337 12.2106 13.4519 12.5131 13.6624 12.7362C13.8728 12.9593 14.1581 13.0846 14.4557 13.0846C14.7533 13.0846 15.0386 12.9593 15.249 12.7362C15.4594 12.5131 15.5777 12.2106 15.5777 11.8951C15.5777 11.5796 15.4594 11.2771 15.249 11.054C15.0386 10.8309 14.7533 10.7056 14.4557 10.7056Z" fill="currentColor"/>
</svg>
