<svg width="17" height="18" viewBox="0 0 17 18" fill="none" xmlns="http://www.w3.org/2000/svg">
<path d="M3.77778 0C1.68492 0 0 1.68975 0 3.7886V17.0487H13.2222C15.3151 17.0487 17 15.359 17 13.2601V3.7886C17 1.68975 15.3151 0 13.2222 0H3.77778ZM13.2522 4.24459C13.4818 4.24591 13.6984 4.32572 13.8602 4.48811C14.2301 4.85916 14.1706 5.51652 13.7267 5.96168L7.3156 12.3911C7.29096 12.4158 7.26553 12.4387 7.23958 12.461C7.22139 12.4828 7.20255 12.5045 7.18213 12.525C6.81214 12.896 6.2162 12.896 5.84625 12.525L3.17485 9.84594C2.80487 9.4749 2.80487 8.87738 3.17485 8.50633C3.54484 8.13529 4.14078 8.13529 4.51073 8.50633L6.51437 10.5153L12.3908 4.6217C12.6405 4.3713 12.9571 4.24287 13.2523 4.24432L13.2522 4.24459Z" fill="#626262"/>
<path d="M4.33333 1.00293C2.4867 1.00293 1 2.49389 1 4.34581V16.0459H12.6667C14.5133 16.0459 16 14.555 16 12.703V4.34581C16 2.49389 14.5133 1.00293 12.6667 1.00293H4.33333ZM12.6932 4.74815C12.8957 4.74932 13.0868 4.81974 13.2296 4.96303C13.556 5.29042 13.5035 5.87044 13.1118 6.26323L7.45494 11.9363C7.4332 11.9581 7.41076 11.9783 7.38786 11.998C7.37182 12.0172 7.35519 12.0363 7.33717 12.0544C7.01071 12.3818 6.48488 12.3818 6.15845 12.0544L3.80134 9.69053C3.47488 9.36313 3.47488 8.83591 3.80134 8.50852C4.1278 8.18112 4.65363 8.18112 4.98006 8.50852L6.74798 10.2812L11.9331 5.0809C12.1534 4.85996 12.4327 4.74687 12.6932 4.74815Z" fill="#FFF8BB"/>
<rect x="1.89062" y="2.77148" width="12.3529" height="10.6186" fill="#FFF8BB"/>
<path d="M3.47043 12.9933C3.17796 13.2866 3.17796 13.7622 3.47043 14.0555C3.7629 14.3488 4.2371 14.3488 4.52957 14.0555L3.47043 12.9933ZM13.2342 5.01482C13.2342 4.60001 12.8989 4.26375 12.4853 4.26375L5.74495 4.26375C5.33132 4.26375 4.99602 4.60001 4.99602 5.01482C4.99602 5.42963 5.33132 5.76589 5.74495 5.76589H11.7364V11.7745C11.7364 12.1893 12.0717 12.5255 12.4853 12.5255C12.8989 12.5255 13.2342 12.1893 13.2342 11.7745L13.2342 5.01482ZM4.52957 14.0555L13.0149 5.54591L11.9557 4.48373L3.47043 12.9933L4.52957 14.0555Z" fill="#626262"/>
</svg>
