<svg width="13" height="15" viewBox="0 0 13 15" fill="none" xmlns="http://www.w3.org/2000/svg">
<path d="M6.82948 14.1859C5.74244 14.1859 4.28439 13.4361 3.02412 12.2274C1.63969 10.9015 0.845703 9.34686 0.845703 7.96013V2.4161C0.845703 2.14397 1.06225 1.9225 1.33364 1.91816L1.87933 1.90947H1.88077C1.91253 1.90802 3.03855 1.87618 4.18623 1.40863C5.40464 0.912124 6.20296 0.337456 6.21162 0.333113L6.53643 0.0957185C6.70967 -0.0316639 6.94642 -0.0316639 7.11965 0.094271L7.44591 0.333113C7.44735 0.333113 7.44735 0.33456 7.45024 0.33456C7.47334 0.351931 8.26011 0.913571 9.4713 1.40863C10.6219 1.87618 11.7464 1.90802 11.7796 1.90947L12.3224 1.91816C12.5938 1.9225 12.8104 2.14252 12.8104 2.4161L12.8133 7.96013C12.8133 9.34686 12.0193 10.903 10.6349 12.2274C9.37458 13.4361 7.91653 14.1859 6.82948 14.1859ZM1.83891 2.90537V7.96013C1.83891 9.07618 2.5203 10.3703 3.70983 11.508C4.76079 12.5141 6.01529 13.19 6.83093 13.19C7.64657 13.19 8.90107 12.5141 9.95202 11.508C11.1416 10.3703 11.8229 9.07762 11.8229 7.96013L11.8215 2.90537L11.7666 2.90392C11.654 2.90247 10.3967 2.8576 9.10029 2.3307C7.81836 1.80814 6.9724 1.21321 6.86702 1.13794L6.83093 1.11188L6.79628 1.13794C6.76019 1.16399 5.89402 1.78788 4.56301 2.3307C3.26809 2.8576 2.0107 2.90103 1.89665 2.90392L1.83891 2.90537Z" fill="currentColor"/>
<path d="M6.17005 9.23982C6.00403 9.23982 5.84379 9.17469 5.72541 9.05599L4.08836 7.4116C3.84294 7.16552 3.84294 6.76745 4.08836 6.52137C4.33377 6.27529 4.73221 6.27529 4.97618 6.52137L6.17005 7.71847L8.99953 4.87987C9.24494 4.63379 9.64338 4.63379 9.88735 4.87987C10.1328 5.12595 10.1328 5.52402 9.88735 5.7701L6.61323 9.05454C6.4963 9.17324 6.33606 9.23982 6.17005 9.23982Z" fill="currentColor"/>
</svg>
