<svg width="78" height="78" viewBox="0 0 78 78" fill="none" xmlns="http://www.w3.org/2000/svg">
<path d="M40.6009 54.3303V58.1069H37.2104V54.342V54.1209L36.991 54.0939C34.5218 53.7899 32.1372 52.9053 30.3757 51.49C28.6798 50.1273 27.5635 48.2762 27.4884 45.963H30.8831C30.9717 47.2885 31.7618 48.319 32.8434 49.073C33.9894 49.8718 35.4863 50.3797 36.9177 50.6279L37.2104 50.6786V50.3815V40.7138V40.4955L36.9941 40.4661C34.7556 40.1621 32.3679 39.3359 30.5463 37.9489C28.7303 36.5662 27.4844 34.6342 27.4844 32.0965C27.4844 29.4317 28.7733 27.4921 30.6082 26.1379C32.4504 24.7784 34.8382 24.0151 36.9933 23.729L37.2104 23.7002V23.4812V19.7026H40.6009V23.4812V23.7002L40.818 23.729C42.9731 24.0151 45.3609 24.7784 47.2031 26.1379C48.9802 27.4494 50.2451 29.3099 50.3231 31.8465H46.9285C46.8382 30.4429 45.99 29.4032 44.8772 28.6641C43.7029 27.8841 42.2075 27.4178 40.8951 27.182L40.6009 27.1291V27.428V37.0977V37.3167L40.818 37.3455C42.9731 37.6316 45.3609 38.3949 47.2031 39.7544C49.038 41.1086 50.327 43.0482 50.327 45.713C50.327 48.3779 49.038 50.318 47.2031 51.6726C45.3609 53.0326 42.9731 53.7964 40.818 54.0825L40.6009 54.1113V54.3303ZM37.2104 27.428V27.1291L36.9162 27.182C35.6039 27.4178 34.1084 27.8841 32.9341 28.6641C31.7563 29.4465 30.8748 30.5655 30.8748 32.0965C30.8748 33.5675 31.7366 34.6785 32.902 35.471C34.0655 36.2623 35.5606 36.759 36.9151 37.009L37.2104 37.0635V36.7631V27.428ZM40.6009 50.3815V50.6805L40.8951 50.6276C42.2075 50.3918 43.7029 49.9255 44.8772 49.1455C46.0551 48.3631 46.9365 47.2441 46.9365 45.713C46.9365 44.182 46.0551 43.063 44.8772 42.2806C43.7029 41.5006 42.2075 41.0343 40.8951 40.7985L40.6009 40.7456V41.0445V50.3815Z" fill="black" stroke="white" stroke-width="0.5"/>
<circle cx="38.9043" cy="38.9043" r="37.9043" stroke="black" stroke-width="2"/>
</svg>
