<svg width="86" height="100" viewBox="0 0 86 100" fill="none" xmlns="http://www.w3.org/2000/svg">
<path d="M58.2328 26.4168H59.2328V25.4168V22.3439C59.2328 18.0073 57.5293 13.8462 54.4936 10.7764C51.4576 7.7062 47.3374 5.97933 43.0389 5.97933C38.7404 5.97933 34.6202 7.7062 31.5842 10.7764C28.5485 13.8462 26.8451 18.0073 26.8451 22.3439V25.4168V26.4168H27.8451H58.2328ZM63.3103 25.4168V26.4168H64.3103H84.5817V86.8752C84.5817 89.8735 83.4038 92.7468 81.3105 94.8635C79.2177 96.9799 76.3815 98.1668 73.4267 98.1668H12.6512C9.6963 98.1668 6.86015 96.9799 4.76728 94.8635C2.67404 92.7468 1.49609 89.8735 1.49609 86.8752V26.4168H21.7675H22.7675V25.4168V22.3439C22.7675 16.9006 24.9059 11.6825 28.7088 7.8369C32.5113 3.99166 37.6662 1.8335 43.0389 1.8335C48.4116 1.8335 53.5665 3.99166 57.369 7.8369C61.1719 11.6825 63.3103 16.9006 63.3103 22.3439V25.4168Z" stroke="#313131" stroke-width="2"/>
<path d="M24.2579 65.7347V65.7347H24.2513C23.1771 65.7347 22.2632 65.3987 21.6335 64.8552C21.0178 64.3237 20.625 63.555 20.625 62.5522C20.625 60.511 22.2588 58.875 24.2513 58.875H38.4405H39.4405V57.875V43.8437C39.4405 41.8025 41.0743 40.1665 43.0668 40.1665C45.0593 40.1665 46.6931 41.8025 46.6931 43.8437V57.4738V58.4738H47.6931H61.5781C63.5706 58.4738 65.2044 60.1098 65.2044 62.151C65.2044 64.1922 63.5706 65.8282 61.5781 65.8282H47.3829H46.3829V66.8282V81.3509C46.3829 83.2844 44.8354 84.8332 42.9494 84.8332C41.0633 84.8332 39.5158 83.2844 39.5158 81.3509V66.8282V65.8347L38.5224 65.8282L24.2579 65.7347Z" stroke="#313131" stroke-width="2"/>
</svg>
