<svg width="65" height="68" viewBox="0 0 65 68" fill="none" xmlns="http://www.w3.org/2000/svg">
<path d="M15.8925 15.0636L15.8923 15.0637C15.2099 15.7771 14.6845 16.6429 14.357 17.6002C14.0295 18.5576 13.9088 19.5804 14.0045 20.5942C14.1003 21.608 14.4098 22.5847 14.9086 23.4541C15.4074 24.3233 16.0822 25.0621 16.8815 25.6198C16.8815 25.6198 16.8816 25.6198 16.8816 25.6198L17.4446 26.0118L37.859 4.66431L37.2589 3.79949L15.8925 15.0636ZM15.8925 15.0636L27.4392 2.98918L27.563 2.8597M15.8925 15.0636L27.563 2.8597M27.563 2.8597C28.2037 2.22479 28.9589 1.7347 29.7819 1.41732C30.6585 1.07929 31.593 0.944398 32.522 1.02074C33.451 1.09709 34.3553 1.38314 35.1728 1.86152C35.9901 2.3398 36.7024 2.99971 37.2583 3.79855L27.563 2.8597Z" stroke="#313131" stroke-width="2"/>
<path d="M23.3491 30.1229L42.0011 10.6182L46.6796 17.3475C46.68 17.348 46.6804 17.3485 46.6807 17.3491C46.8923 17.6549 47.1497 17.926 47.4445 18.1516L47.447 18.1535L53.7201 22.9224L35.3629 42.1219L31.928 36.4808C31.9279 36.4808 31.9279 36.4807 31.9279 36.4806C31.674 36.0636 31.3368 35.6929 30.9206 35.4055C30.9198 35.4049 30.919 35.4043 30.9181 35.4037L23.3491 30.1229Z" stroke="#313131" stroke-width="2"/>
<path d="M39.1955 48.4117L59.4232 27.256L60.4116 28.0099L60.4126 28.0107C61.1722 28.5884 61.8064 29.334 62.2689 30.1984C62.7315 31.0628 63.0106 32.0241 63.0851 33.016C63.1597 34.0079 63.0277 35.0042 62.6992 35.9357C62.3707 36.8671 61.8542 37.7097 61.1881 38.4067L49.7383 50.3835L49.7382 50.3836C49.0477 51.1061 48.214 51.6539 47.3002 51.99C46.3867 52.326 45.4143 52.4426 44.4538 52.3324C43.4933 52.2221 42.5661 51.8875 41.7409 51.3502C40.972 50.8498 40.3092 50.1848 39.7964 49.3965L39.6881 49.219L39.1955 48.4117Z" stroke="#313131" stroke-width="2"/>
<path d="M2.55636 57.1804L2.56474 57.1722L2.57293 57.1638L22.2183 37.0096L27.0081 40.3486L29.1318 43.8372L9.38508 64.4864L9.37703 64.4948L9.36918 64.5034C8.91768 64.9981 8.3784 65.3904 7.7846 65.6596C7.19093 65.9286 6.55349 66.0698 5.9096 66.076C5.26571 66.0822 4.62603 65.9535 4.02793 65.696C3.42971 65.4386 2.88384 65.0569 2.42391 64.5713C1.96387 64.0856 1.59935 63.5058 1.35409 62.8653C1.1088 62.2246 0.988368 61.5376 1.00088 60.8453C1.0134 60.1531 1.15857 59.4716 1.42666 58.8415C1.69472 58.2115 2.0796 57.6471 2.55636 57.1804Z" stroke="#313131" stroke-width="2"/>
</svg>
