<svg width="126" height="51" viewBox="0 0 126 51" fill="none" xmlns="http://www.w3.org/2000/svg">
<path fill-rule="evenodd" clip-rule="evenodd" d="M10.3269 28.3313C6.92473 28.3313 2.98065 29.9571 0.843011 31.6432L2.8 35.7378C4.51613 34.1722 7.28602 32.8475 9.78495 32.8475C12.1634 32.8475 13.4581 33.6302 13.4581 35.2259C13.4581 36.3098 12.5849 36.8518 10.9591 37.0625C4.8172 37.8453 0 39.5313 0 44.2582C0 47.9915 2.67957 50.2797 6.83441 50.2797C9.81505 50.2797 12.4645 48.6238 13.729 46.4561V49.6776H19.2688V36.1593C19.2688 30.5894 15.3849 28.3313 10.3269 28.3313ZM8.24946 45.9442C6.68387 45.9442 5.90108 45.1915 5.90108 43.927C5.90108 41.5786 8.52043 40.7958 13.3075 40.284C13.3376 43.4152 11.2 45.9442 8.24946 45.9442ZM71.5054 32.4259V28.9335H65.9656V49.6776H71.8968V39.6819C71.8968 34.9249 74.757 33.5399 76.7742 33.5399C77.557 33.5399 78.6108 33.7808 79.3032 34.2926L80.3871 28.813C79.4839 28.4216 78.5204 28.3313 77.7376 28.3313C74.6968 28.3313 72.7699 29.6862 71.5054 32.4259ZM107.905 28.3313C104.774 28.3313 102.426 30.198 101.191 31.9743C100.047 29.6561 97.6688 28.3313 94.7785 28.3313C91.6473 28.3313 89.4796 30.0776 88.4559 32.0647V28.9335H82.7355V49.6776H88.6667V38.9894C88.6667 35.1657 90.6839 33.3292 92.5505 33.3292C94.2366 33.3292 95.8022 34.413 95.8022 37.2432V49.6776H101.763V38.9894C101.763 35.1055 103.72 33.3292 105.677 33.3292C107.243 33.3292 108.899 34.4733 108.899 37.213V49.6776H114.83V35.3464C114.83 30.6797 111.699 28.3313 107.905 28.3313ZM40.2237 27.398V28.9335H31.2215V26.8259C31.2215 24.0862 32.7871 23.3034 34.1419 23.3034C34.9247 23.3034 35.9484 23.484 36.7914 23.9657L38.628 19.7808C37.5441 19.1485 35.7677 18.5765 33.3892 18.5765C29.5957 18.5765 25.2903 20.7141 25.2903 27.4281V28.9636H21.8581V33.5399H25.2903V49.6776H31.2215V33.5098H40.2237V49.6776H46.1548V33.5098H51.5441V28.9335H46.1548V26.8259C46.1548 24.0862 47.7204 23.3034 49.0753 23.3034C50.5806 23.3034 51.7247 23.9657 51.7247 23.9657L53.5613 19.7808C53.5613 19.7808 51.6946 18.5765 48.3226 18.5765C44.5591 18.5464 40.2237 20.684 40.2237 27.398ZM55.0667 28.9335H60.9979V49.6776H55.0667V28.9335Z" fill="black"/>
<path fill-rule="evenodd" clip-rule="evenodd" d="M89.6312 0C73.614 0 59.343 11.1097 55.3086 25.4108H61.1193C64.4914 14.7527 75.9624 5.41935 89.6312 5.41935C106.251 5.41935 120.582 18.0645 120.582 37.7548C120.582 42.1806 120.01 46.1548 118.926 49.6774H124.556L124.616 49.4968C125.549 45.8538 126.001 41.9097 126.001 37.7548C126.001 15.8065 110.014 0 89.6312 0Z" fill="#4A4AF4"/>
</svg>
