<svg width="88" height="88" viewBox="0 0 88 88" fill="none" xmlns="http://www.w3.org/2000/svg">
<path d="M37.6894 52.9185V50.9185H35.6894H8.74025C5.03476 50.9185 2 47.8823 2 44.0987C2 40.3151 5.03476 37.2789 8.74025 37.2789H35.5471H37.5471V35.2789V8.81981C37.5471 5.03621 40.5819 2 44.2874 2C47.9928 2 51.0276 5.03621 51.0276 8.81981V34.5224V36.5224H53.0276H79.2597C82.9652 36.5224 86 39.5586 86 43.3422C86 47.1258 82.9652 50.162 79.2597 50.162H52.4415H50.4415V52.162V79.5477C50.4415 83.1283 47.5698 86 44.0654 86C40.5611 86 37.6894 83.1283 37.6894 79.5477V52.9185Z" stroke="#41595F" stroke-width="4"/>
</svg>
