<svg width="101" height="101" viewBox="0 0 101 101" fill="none" xmlns="http://www.w3.org/2000/svg">
<path d="M95.4208 72.422L87.4504 74.4099C98.6935 64.7995 102.674 48.5187 96.088 34.4975C91.8135 25.3903 83.606 18.6452 73.9055 16.1693L79.7767 2.04564C79.9819 1.54697 79.9018 0.977376 79.5648 0.558772C79.23 0.134818 78.6925 -0.0695355 78.1618 0.0212127L65.5935 2.15084L53.0252 0.0212127C52.4991 -0.0695238 51.9569 0.137112 51.6222 0.558772C51.2875 0.980431 51.2028 1.55154 51.4125 2.04564L57.2952 16.2105C40.0742 20.5849 29.0499 37.7468 32.5459 55.3733C33.8483 61.93 37.0935 67.9125 41.7783 72.6057H41.2087C39.4054 72.6057 37.6402 73.1066 36.103 74.0498L25.9146 80.3259H17.9175C17.1001 80.3259 16.4375 80.9885 16.4375 81.8036V98.7036C16.4375 99.521 17.1001 100.184 17.9175 100.184H53.8303C56.3442 100.184 58.8682 99.6094 61.1334 98.5213L98.395 80.6583C100.579 79.6083 101.504 76.9739 100.458 74.7871C99.554 72.9128 97.4434 71.9178 95.4212 72.421L95.4208 72.422ZM65.3503 5.10949C65.5097 5.13923 65.6828 5.13923 65.8444 5.10949L76.0124 3.38319L70.8792 15.7448H60.3148L55.1793 3.38319L65.3503 5.10949ZM35.4536 54.7975C32.1673 38.2139 42.9483 22.0528 59.5061 18.7012H71.7189C81.1976 20.6303 89.2976 26.9948 93.4075 35.7536C100.593 51.0547 94.0198 69.3396 78.7531 76.5737L69.1448 78.9694C69.2089 78.6369 69.2424 78.293 69.2424 77.9423C69.2424 74.9975 66.8467 72.6018 63.902 72.6018H46.164C40.6489 68.0962 36.8417 61.7987 35.4525 54.796L35.4536 54.7975ZM97.1073 77.993L59.8477 95.8561C57.9803 96.7535 55.8988 97.2293 53.824 97.2293H19.3909V83.2901H26.3365C26.6117 83.2901 26.8786 83.2147 27.115 83.0713L37.6589 76.5741C38.7294 75.9161 39.9593 75.5676 41.2136 75.5676H63.9094C65.221 75.5676 66.2891 76.6359 66.2891 77.9473C66.2891 79.2565 65.2209 80.327 63.9094 80.327H52.5635C51.7461 80.327 51.0835 80.9896 51.0835 81.8047C51.0835 82.6198 51.7461 83.2824 52.5635 83.2824H63.9094C64.7428 83.2824 65.5328 83.091 66.2343 82.7494L96.1329 75.2959C96.7955 75.132 97.4856 75.4553 97.7814 76.0698C98.1246 76.7858 97.8196 77.649 97.1066 77.9929L97.1073 77.993Z" fill="#41595F"/>
<path d="M65.5981 62.6025C66.404 62.6025 67.0598 61.9536 67.0712 61.1476C68.2371 60.8945 69.326 60.3623 70.2432 59.551C71.6393 58.3096 72.4681 56.6017 72.5727 54.7366C72.7778 51.2565 70.3799 48.237 67.0751 47.5218V39.5827C68.6444 40.2064 69.7218 41.7687 69.6188 43.5454C69.5707 44.3582 70.1929 45.062 71.008 45.11C71.8437 45.1558 72.5246 44.5336 72.5727 43.7185C72.7778 40.2408 70.3798 37.2213 67.0751 36.5037C67.0705 35.6955 66.4079 35.0352 65.5974 35.0352C64.7823 35.0352 64.1197 35.6978 64.1197 36.5152V36.5174C61.1384 37.1778 58.8089 39.7054 58.6221 42.901C58.5107 44.7615 59.1345 46.5565 60.3758 47.9542C61.3732 49.0766 62.6823 49.8101 64.1219 50.1197V58.0589C63.5409 57.8286 63.0147 57.4847 62.5893 57.0066C61.8763 56.2007 61.5141 55.1644 61.5782 54.0938C61.6262 53.281 61.004 52.5772 60.1889 52.5269C59.3692 52.5132 58.6723 53.1011 58.6243 53.9185C58.513 55.7813 59.1367 57.5761 60.378 58.9716C61.3754 60.0963 62.6845 60.8275 64.1264 61.1371C64.1295 61.9492 64.7875 62.6027 65.5981 62.6027L65.5981 62.6025ZM69.6225 54.5657C69.5562 55.6431 69.0804 56.6245 68.2767 57.342C67.9191 57.663 67.5112 57.8979 67.0788 58.0687V50.6039C68.645 51.2269 69.7248 52.7915 69.6225 54.5659L69.6225 54.5657ZM62.5854 45.9846C61.8702 45.1809 61.5103 44.1447 61.5766 43.0741C61.6696 41.4615 62.7059 40.1409 64.1157 39.5781V47.0361C63.5393 46.8112 63.0132 46.4627 62.5854 45.9846L62.5854 45.9846Z" fill="#A3B5FF"/>
<path d="M10.5269 40.9272H21.9453C22.7627 40.9272 23.4253 40.2646 23.4253 39.4472C23.4253 38.6321 22.7627 37.9695 21.9453 37.9695L10.5269 37.9688C9.70949 37.9688 9.04689 38.6314 9.04689 39.4465C9.04384 40.2646 9.70721 40.9272 10.5269 40.9272V40.9272Z" fill="black"/>
<path d="M1.47772 50.8022H21.7316C22.5467 50.8022 23.2093 50.1396 23.2093 49.3245C23.2093 48.5071 22.5467 47.8445 21.7316 47.8445L1.47772 47.8438C0.662604 47.8438 6.5768e-07 48.5064 6.5768e-07 49.3238C-0.000761986 50.1373 0.661843 50.8022 1.47772 50.8022V50.8022Z" fill="black"/>
</svg>
