<svg width="100" height="100" viewBox="0 0 100 100" fill="none" xmlns="http://www.w3.org/2000/svg">
<path d="M38.6 51.496C43.4 51.496 46.664 47.848 46.664 42.28C46.664 36.712 43.4 33.064 38.6 33.064C33.8 33.064 30.584 36.76 30.584 42.28C30.584 47.8 33.8 51.496 38.6 51.496ZM35.816 67H40.52L63.464 33.4H58.76L35.816 67ZM38.6 48.136C36.104 48.136 34.472 45.976 34.472 42.28C34.472 38.584 36.104 36.424 38.6 36.424C41.192 36.424 42.728 38.536 42.728 42.28C42.728 46.024 41.192 48.136 38.6 48.136ZM60.632 67.336C65.432 67.336 68.696 63.64 68.696 58.12C68.696 52.6 65.432 48.904 60.632 48.904C55.832 48.904 52.616 52.6 52.616 58.12C52.616 63.64 55.832 67.336 60.632 67.336ZM60.632 63.976C58.088 63.976 56.504 61.864 56.504 58.12C56.504 54.376 58.088 52.264 60.632 52.264C63.176 52.264 64.76 54.424 64.76 58.12C64.76 61.816 63.176 63.976 60.632 63.976Z" fill="#A3B5FF"/>
<circle cx="50" cy="50" r="47.5" stroke="#41595F" stroke-width="5"/>
</svg>
