<svg width="107" height="118" viewBox="0 0 107 118" fill="none" xmlns="http://www.w3.org/2000/svg">
<path d="M72.4138 32.5H75.4138V29.5V25.8125C75.4138 20.1359 73.1799 14.6862 69.1947 10.6638C65.2086 6.64043 59.7963 4.375 54.147 4.375C48.4976 4.375 43.0854 6.64043 39.0993 10.6638C35.1141 14.6862 32.8802 20.1359 32.8802 25.8125V29.5V32.5H35.8802H72.4138ZM76.7205 29.5V32.5H79.7205H102.294V103.25C102.294 106.375 101.064 109.367 98.8826 111.568C96.7025 113.769 93.7516 115 90.6806 115H17.6134C14.5424 115 11.5915 113.769 9.41134 111.568C7.23027 109.367 6 106.375 6 103.25V32.5H28.5735H31.5735V29.5V25.8125C31.5735 19.7533 33.9585 13.9478 38.195 9.67174C42.4305 5.39661 48.1692 3 54.147 3C60.1248 3 65.8635 5.39661 70.099 9.67174C74.3355 13.9478 76.7205 19.7533 76.7205 25.8125V29.5Z" stroke="#41595F" stroke-width="6"/>
<path d="M50.7114 79.6754V77.6754H48.7114H31.562C29.6118 77.6754 28 76.0751 28 74.0628C28 72.0505 29.6118 70.4502 31.562 70.4502H48.6209H50.6209V68.4502V51.6126C50.6209 49.6003 52.2327 48 54.1829 48C56.133 48 57.7448 49.6003 57.7448 51.6126V67.9688V69.9688H59.7448H76.438C78.3882 69.9688 80 71.5691 80 73.5814C80 75.5937 78.3882 77.194 76.438 77.194H59.3719H57.3719V79.194V96.6213C57.3719 98.5044 55.8638 100 54.0416 100C52.2195 100 50.7114 98.5044 50.7114 96.6213V79.6754Z" stroke="#A3B5FF" stroke-width="4"/>
</svg>
