<svg width="126" height="106" viewBox="0 0 126 106" fill="none" xmlns="http://www.w3.org/2000/svg">
<path d="M2.93457 3.30371H23.8429L46.5852 82.9616H107.109" stroke="#7C7C7C" stroke-width="6"/>
<path d="M28.9785 17.6201H121.782L111.144 63.8731H42.1838" stroke="#7C7C7C" stroke-width="6"/>
<path d="M34.8467 41.481H117.013" stroke="#7C7C7C" stroke-width="6"/>
<path d="M53.9219 17.6201L59.4241 64.2401" stroke="#7C7C7C" stroke-width="6"/>
<path d="M100.14 18.3545L94.6375 64.9745" stroke="#7C7C7C" stroke-width="6"/>
<path d="M77.0303 16.519V63.5062" stroke="#7C7C7C" stroke-width="6"/>
<path d="M101.767 94.3388L102.909 91.6026L101.767 94.3388C102.317 94.5681 102.816 94.9035 103.236 95.326C103.656 95.7485 103.989 96.2498 104.216 96.8014C104.435 97.335 104.551 97.9055 104.557 98.4822C104.493 99.6725 103.986 100.796 103.135 101.631C102.284 102.467 101.151 102.951 99.9617 102.991C98.7878 102.959 97.6695 102.479 96.8371 101.646C95.9981 100.808 95.515 99.6768 95.4884 98.4902C95.4987 97.2955 95.9789 96.153 96.825 95.3104C97.2471 94.89 97.7478 94.557 98.2983 94.3303C98.8489 94.1037 99.4385 93.9878 100.034 93.9893C100.629 93.9907 101.218 94.1095 101.767 94.3388Z" stroke="#A2B5FF" stroke-width="6"/>
<path d="M48.3068 98.3076C48.3161 97.1281 48.7932 96.0011 49.6325 95.1743C50.4717 94.3476 51.6042 93.8888 52.7808 93.8981C53.9574 93.9074 55.0826 94.384 55.9087 95.2239C56.7349 96.0638 57.1942 97.1983 57.1849 98.3778C57.1756 99.5573 56.6984 100.684 55.8592 101.511C55.0199 102.338 53.8874 102.797 52.7108 102.787C51.5342 102.778 50.4091 102.301 49.583 101.462C48.7568 100.622 48.2975 99.4871 48.3068 98.3076Z" stroke="#A2B5FF" stroke-width="6"/>
</svg>
