<svg width="82" height="84" viewBox="0 0 82 84" fill="none" xmlns="http://www.w3.org/2000/svg">
  <path d="M19.5262 17.7203L19.5261 17.7204C18.5872 18.659 17.8682 19.7942 17.421 21.0442C16.9737 22.2943 16.8095 23.628 16.9399 24.9492C17.0704 26.2703 17.4924 27.5461 18.1755 28.6845C18.8585 29.8228 19.7855 30.7954 20.8898 31.5321L19.5262 17.7203ZM19.5262 17.7203L34.1162 3.13036L34.2626 2.98391V2.98311C35.1499 2.136 36.202 1.47928 37.3544 1.05431C38.5708 0.605702 39.87 0.426004 41.1626 0.527589C42.4551 0.629173 43.7103 1.00963 44.8417 1.64276C45.9732 2.2759 46.954 3.14668 47.7166 4.19517L48.8131 5.70618L22.1489 32.3704L20.8902 31.5324L19.5262 17.7203Z" stroke="black"/>
  <path d="M28.3611 36.5077L53.1718 11.6971L59.6228 20.5702C59.6229 20.5703 59.623 20.5705 59.6231 20.5706C59.8473 20.8808 60.1188 21.1538 60.4276 21.3798L60.4289 21.3808L69.0084 27.6179L44.5525 52.0779L39.6913 44.4435C39.6913 44.4434 39.6913 44.4434 39.6913 44.4433C39.42 44.0171 39.0642 43.6455 38.6323 43.3606C38.6319 43.3602 38.6314 43.3599 38.6309 43.3596L28.3611 36.5077Z" stroke="black"/>
  <path d="M48.577 58.4036L75.0019 31.9745L76.8037 33.2887L76.8042 33.2891C77.8527 34.0517 78.7235 35.0325 79.3566 36.164C79.9898 37.2954 80.3702 38.5506 80.4718 39.8431C80.5734 41.1357 80.3937 42.4349 79.9451 43.6513C79.4965 44.8678 78.7896 45.9725 77.8732 46.8896C77.8732 46.8896 77.8731 46.8897 77.8731 46.8897L63.4053 61.3617L63.4053 61.3617C62.455 62.3125 61.3033 63.0377 60.0352 63.4837C58.7671 63.9297 57.4151 64.0852 56.0788 63.9385C54.7426 63.7919 53.4564 63.3469 52.3152 62.6365C51.2494 61.973 50.3355 61.0938 49.6317 60.0565L49.4894 59.8335L48.577 58.4036Z" stroke="black"/>
  <path d="M2.68793 68.5948L2.68803 68.5949L2.69639 68.5867L27.978 43.7838L34.7022 48.2666L37.7566 53.0646L12.4183 78.4029L12.4182 78.4028L12.4101 78.4112C11.7723 79.0796 11.0068 79.6133 10.1591 79.9807C9.31141 80.3481 8.39863 80.5419 7.47475 80.5504C6.55088 80.559 5.63467 80.3822 4.7803 80.0305C3.92593 79.6788 3.15076 79.1594 2.50061 78.5029C1.85046 77.8465 1.33854 77.0663 0.995127 76.2086C0.651711 75.3509 0.48377 74.433 0.501235 73.5093C0.518699 72.5855 0.721216 71.6747 1.09681 70.8305C1.4724 69.9864 2.01344 69.2262 2.68793 68.5948Z" stroke="black"/>
  <path d="M69.6406 77.6847V78.1847H78.062C78.7669 78.1847 79.443 78.4647 79.9415 78.9632C80.4399 79.4616 80.72 80.1377 80.72 80.8427C80.72 81.5476 80.4399 82.2237 79.9415 82.7222C79.443 83.2206 78.7669 83.5007 78.062 83.5007H42.2713C41.5663 83.5007 40.8903 83.2206 40.3918 82.7222C39.8933 82.2237 39.6133 81.5476 39.6133 80.8427C39.6133 80.1377 39.8933 79.4616 40.3918 78.9632C40.8903 78.4647 41.5663 78.1847 42.2713 78.1847H50.6926V77.6847V77.1847C49.9877 77.1847 49.3116 76.9046 48.8131 76.4061C48.3147 75.9077 48.0346 75.2316 48.0346 74.5267C48.0346 73.8217 48.3147 73.1456 48.8131 72.6472C49.3116 72.1487 49.9877 71.8687 50.6926 71.8687H69.6406C70.3456 71.8687 71.0217 72.1487 71.5201 72.6472C72.0186 73.1456 72.2986 73.8217 72.2986 74.5267C72.2986 75.2316 72.0186 75.9077 71.5201 76.4061C71.0217 76.9046 70.3456 77.1847 69.6406 77.1847V77.6847Z" stroke="black"/>
</svg>
