<svg width="101" height="74" viewBox="0 0 101 74" fill="none" xmlns="http://www.w3.org/2000/svg">
<path d="M2.43055 73.9997C1.78593 73.9997 1.16771 73.7434 0.71189 73.2872C0.256073 72.831 0 72.2123 0 71.5671V3.63178C0 2.98662 0.256073 2.36789 0.71189 1.9117C1.16771 1.4555 1.78593 1.19922 2.43055 1.19922C3.07517 1.19922 3.69339 1.4555 4.14921 1.9117C4.60503 2.36789 4.8611 2.98662 4.8611 3.63178V71.5656C4.8613 71.8852 4.79859 72.2017 4.67654 72.497C4.55448 72.7923 4.37547 73.0606 4.14975 73.2866C3.92403 73.5127 3.65602 73.692 3.36103 73.8143C3.06605 73.9367 2.74986 73.9997 2.43055 73.9997Z" fill="#41595F"/>
<path d="M98.5649 73.9979H2.43055C1.78593 73.9979 1.16771 73.7416 0.71189 73.2855C0.256073 72.8293 0 72.2105 0 71.5654C0 70.9202 0.256073 70.3015 0.71189 69.8453C1.16771 69.3891 1.78593 69.1328 2.43055 69.1328H98.5649C99.2095 69.1328 99.8278 69.3891 100.284 69.8453C100.739 70.3015 100.995 70.9202 100.995 71.5654C100.995 72.2105 100.739 72.8293 100.284 73.2855C99.8278 73.7416 99.2095 73.9979 98.5649 73.9979Z" fill="#41595F"/>
<path d="M2.43551 60.6264C1.95388 60.6273 1.48284 60.4851 1.08214 60.2177C0.681428 59.9503 0.36913 59.5697 0.184885 59.1244C0.000639465 58.679 -0.0472531 58.1889 0.0472908 57.7163C0.141835 57.2436 0.374549 56.8098 0.7159 56.4697L24.4062 32.7523C24.8624 32.2956 25.4813 32.0391 26.1265 32.0391C26.7718 32.0391 27.3906 32.2956 27.8469 32.7523C28.3032 33.2089 28.5595 33.8283 28.5595 34.4741C28.5595 35.1199 28.3032 35.7392 27.8469 36.1958L4.14905 59.9133C3.69458 60.3684 3.07843 60.6248 2.43551 60.6264Z" fill="#41595F"/>
<path d="M63.6696 41.5633C63.1992 41.5627 62.7391 41.4255 62.3451 41.1684C61.9511 40.9112 61.6401 40.5452 61.4499 40.1147C61.2596 39.6841 61.1983 39.2076 61.2733 38.7428C61.3483 38.2781 61.5565 37.8451 61.8725 37.4964L82.5626 14.5528C82.9951 14.0736 83.6001 13.7859 84.2445 13.7531C84.8889 13.7204 85.5199 13.9451 85.9988 14.378C86.4776 14.8108 86.765 15.4163 86.7978 16.0613C86.8305 16.7062 86.606 17.3378 86.1735 17.817L65.4758 40.7606C65.2477 41.0135 64.9691 41.2157 64.6579 41.354C64.3468 41.4923 64.0101 41.5636 63.6696 41.5633Z" fill="#41595F"/>
<path d="M89.6567 20.6585C87.6154 20.6585 85.62 20.0527 83.9228 18.9177C82.2255 17.7827 80.9027 16.1695 80.1216 14.2821C79.3404 12.3947 79.136 10.3178 79.5343 8.31412C79.9325 6.31044 80.9154 4.46994 82.3588 3.02537C83.8022 1.5808 85.6412 0.597036 87.6432 0.19848C89.6452 -0.200077 91.7204 0.00447257 93.6062 0.78627C95.4921 1.56807 97.104 2.892 98.238 4.59063C99.3721 6.28927 99.9774 8.28633 99.9774 10.3293C99.975 13.068 98.8868 15.6939 96.9519 17.6305C95.0169 19.5671 92.3931 20.6561 89.6567 20.6585ZM89.6567 4.86969C88.5778 4.86969 87.5231 5.18988 86.626 5.78978C85.7289 6.38969 85.0297 7.24236 84.6168 8.23997C84.204 9.23757 84.0959 10.3353 84.3064 11.3944C84.5169 12.4534 85.0364 13.4262 85.7993 14.1898C86.5622 14.9533 87.5342 15.4733 88.5924 15.6839C89.6506 15.8946 90.7474 15.7865 91.7442 15.3733C92.741 14.96 93.593 14.2603 94.1924 13.3624C94.7918 12.4646 95.1117 11.4091 95.1117 10.3293C95.1081 8.8824 94.5322 7.49583 93.51 6.47275C92.4877 5.44966 91.1023 4.8733 89.6567 4.86969Z" fill="#A3B5FF"/>
<path d="M51.7658 43.1348C51.2974 43.1346 50.839 42.9989 50.4457 42.7441L38.5877 35.0648C38.046 34.714 37.6657 34.1622 37.5306 33.5308C37.3954 32.8994 37.5164 32.2401 37.8669 31.698C38.2174 31.1558 38.7687 30.7753 39.3996 30.64C40.0305 30.5047 40.6892 30.6258 41.2309 30.9766L53.0905 38.6589C53.533 38.9435 53.8714 39.3642 54.0547 39.8577C54.238 40.3512 54.2564 40.8909 54.107 41.3957C53.9577 41.9006 53.6488 42.3433 53.2267 42.6574C52.8045 42.9716 52.2919 43.1401 51.7658 43.1378V43.1348Z" fill="#41595F"/>
<path d="M32.4273 39.5265C30.1829 39.5268 27.9888 38.861 26.1225 37.6133C24.2562 36.3655 22.8015 34.5919 21.9423 32.5167C21.0832 30.4415 20.8583 28.158 21.296 25.9548C21.7337 23.7517 22.8143 21.7279 24.4012 20.1394C25.9882 18.551 28.0101 17.4692 30.2114 17.0308C32.4127 16.5925 34.6944 16.8173 36.768 17.6769C38.8416 18.5364 40.6139 19.9921 41.8609 21.8597C43.1078 23.7274 43.7734 25.9233 43.7734 28.1695C43.7702 31.1803 42.5738 34.0669 40.4467 36.1961C38.3197 38.3252 35.4356 39.5229 32.4273 39.5265ZM32.4273 21.6837C31.1456 21.6837 29.8926 22.0641 28.8269 22.7768C27.7612 23.4894 26.9306 24.5024 26.4401 25.6875C25.9496 26.8726 25.8213 28.1767 26.0713 29.4348C26.3214 30.693 26.9386 31.8486 27.8449 32.7557C28.7512 33.6627 29.9059 34.2804 31.163 34.5307C32.4201 34.781 33.7231 34.6525 34.9072 34.1616C36.0914 33.6707 37.1035 32.8394 37.8156 31.7728C38.5277 30.7063 38.9077 29.4523 38.9077 28.1695C38.9057 26.45 38.2223 24.8015 37.0074 23.5856C35.7925 22.3697 34.1454 21.6857 32.4273 21.6837Z" fill="#A3B5FF"/>
<path d="M58.385 55.3178C56.3437 55.3163 54.3487 54.7091 52.6521 53.573C50.9556 52.4368 49.6338 50.8228 48.8537 48.9348C48.0737 47.0469 47.8704 44.9699 48.2697 42.9664C48.669 40.9629 49.6528 39.1228 51.0969 37.6788C52.5409 36.2349 54.3803 35.2518 56.3825 34.854C58.3847 34.4562 60.4598 34.6614 62.3455 35.4438C64.2312 36.2262 65.8427 37.5505 66.9764 39.2494C68.1102 40.9484 68.7151 42.9456 68.7148 44.9885C68.7124 47.7289 67.623 50.3561 65.686 52.293C63.7491 54.2298 61.123 55.3178 58.385 55.3178ZM58.385 39.529C57.3061 39.529 56.2514 39.8492 55.3543 40.4491C54.4572 41.049 53.758 41.9016 53.3451 42.8993C52.9323 43.8969 52.8242 44.9946 53.0347 46.0536C53.2452 47.1127 53.7647 48.0855 54.5276 48.8491C55.2906 49.6126 56.2625 50.1326 57.3207 50.3432C58.3789 50.5539 59.4757 50.4458 60.4725 50.0325C61.4693 49.6193 62.3213 48.9196 62.9207 48.0217C63.5201 47.1239 63.84 46.0683 63.84 44.9885C63.8364 43.5417 63.2605 42.1551 62.2383 41.132C61.2161 40.1089 59.8306 39.5326 58.385 39.529Z" fill="#A3B5FF"/>
</svg>
