<svg width="20" height="24" viewBox="0 0 20 24" fill="none" xmlns="http://www.w3.org/2000/svg">
<circle cx="10" cy="10" r="9.5" stroke="#999999"/>
<line x1="10.1016" y1="19.5" x2="10.1016" y2="23.5" stroke="#999999" stroke-linecap="round"/>
<path d="M12.2458 6.90724L12.0489 7.19655C12.0569 7.20202 12.0667 7.21118 12.076 7.22549L12.3488 7.04819L12.076 7.22549C12.0853 7.23985 12.0934 7.25823 12.098 7.27989C12.1027 7.30155 12.1036 7.32452 12.1004 7.34697C12.0973 7.36942 12.0905 7.38931 12.0816 7.40554L12.0807 7.40734C12.0743 7.41927 12.0672 7.42844 12.0604 7.43518L12.0604 7.43514L12.0557 7.44003L11.347 8.17804C11.3297 8.19606 11.3098 8.20578 11.285 8.20907C11.2581 8.21264 11.2207 8.20868 11.179 8.18883L11.179 8.1888L11.1746 8.18676C10.9968 8.10524 10.8051 8.06245 10.6104 8.06211H10.6098H9.28182C8.88676 8.06211 8.59162 8.39352 8.59162 8.7664H8.59149L8.59175 8.77592C8.59575 8.92267 8.6424 9.06836 8.73043 9.18996C8.81762 9.31041 8.94323 9.40343 9.09319 9.44471L11.1127 10.0464C11.1128 10.0464 11.113 10.0465 11.1131 10.0465C11.8913 10.2804 12.5033 10.9458 12.6026 11.7649C12.7422 12.9295 11.942 13.9054 10.9115 14.0328L10.6044 14.0707V14.3801V15.1225C10.6044 15.3135 10.4561 15.4473 10.3061 15.4473H9.65819C9.50874 15.4473 9.36026 15.3137 9.36026 15.1225V14.3759V14.0644L9.05081 14.0283C8.65334 13.9819 8.26709 13.8371 7.91948 13.6013L7.91931 13.6012C7.91136 13.5958 7.9016 13.5867 7.89233 13.5725L7.59932 13.764L7.89232 13.5725C7.88302 13.5583 7.87501 13.54 7.87031 13.5185L7.52834 13.593L7.87031 13.5185C7.86561 13.4969 7.86467 13.474 7.86773 13.4517L7.52093 13.4044L7.86773 13.4517C7.87074 13.4296 7.87735 13.4099 7.88593 13.3938C7.89296 13.3811 7.90079 13.3711 7.90836 13.3636L7.90844 13.3637L7.91461 13.3572L8.62327 12.6192C8.64067 12.6011 8.66049 12.5915 8.68515 12.5882C8.71199 12.5847 8.74939 12.5886 8.79152 12.6086L8.79151 12.6086L8.79571 12.6105C8.97283 12.6918 9.16381 12.7345 9.35788 12.7352H9.35903H10.687C11.082 12.7352 11.3772 12.4038 11.3772 12.0309H11.3773L11.3771 12.0214C11.3731 11.8746 11.3264 11.7289 11.2384 11.6073C11.1512 11.4869 11.0256 11.3939 10.8756 11.3526L8.85629 10.751C8.85615 10.7509 8.85601 10.7509 8.85587 10.7508C8.0786 10.5169 7.46474 9.85109 7.36582 9.03251C7.2262 7.86813 8.02795 6.89189 9.05735 6.76449L9.36436 6.7265V6.41714V5.67483C9.36436 5.48347 9.51259 5.35 9.6623 5.35H10.3102C10.4599 5.35 10.6082 5.48347 10.6082 5.67483V6.4222V6.73375L10.9176 6.76985C11.3152 6.81622 11.7016 6.961 12.0494 7.19689L12.2458 6.90724ZM12.2458 6.90724C11.8532 6.64091 11.4136 6.47533 10.9582 6.4222L10.6098 8.41211C10.7534 8.41236 10.8956 8.44387 11.0287 8.5049C11.2238 8.59769 11.4494 8.5766 11.5994 8.42055L12.3081 7.68245C12.3398 7.6507 12.3671 7.61373 12.3891 7.57279C12.4186 7.51854 12.4383 7.45821 12.4471 7.3953C12.4558 7.33239 12.4535 7.26813 12.4402 7.20625C12.4269 7.14436 12.4028 7.08608 12.3695 7.03475C12.3361 6.98343 12.2941 6.94009 12.2458 6.90724Z" stroke="#999999" stroke-width="0.7"/>
</svg>
