<svg width="20" height="24" viewBox="0 0 20 24" fill="none" xmlns="http://www.w3.org/2000/svg">
<circle cx="10" cy="10" r="9.5" stroke="#999999"/>
<line x1="10.1016" y1="19.5" x2="10.1016" y2="23.5" stroke="#999999" stroke-linecap="round"/>
<path d="M12.5159 11.218C12.5159 9.967 11.4269 9.652 10.4279 9.409V7.591C10.9049 7.645 11.4089 7.798 11.8859 8.077L12.2549 7.168C11.7689 6.853 11.0939 6.655 10.4279 6.619V5.62H9.68992V6.637C8.28592 6.772 7.61992 7.573 7.61992 8.491C7.61992 9.742 8.69092 10.066 9.68992 10.309V12.109C9.00592 12.046 8.33092 11.785 7.88992 11.425L7.48492 12.334C7.95292 12.739 8.80792 13.027 9.68992 13.081V14.08H10.4279V13.072C11.8409 12.928 12.5159 12.136 12.5159 11.218ZM8.78092 8.437C8.78092 8.041 9.05092 7.717 9.68992 7.618V9.22C9.16792 9.067 8.78092 8.869 8.78092 8.437ZM10.4279 12.091V10.498C10.9679 10.651 11.3639 10.858 11.3639 11.299C11.3639 11.686 11.0849 11.992 10.4279 12.091Z" fill="#999999"/>
</svg>
