<svg width="22" height="21" viewBox="0 0 22 21" fill="none" xmlns="http://www.w3.org/2000/svg">
<path d="M21.4865 2.84531L18.7894 13.9514H5.20445L1.97142 0.943608H0V0H2.62231L5.85534 13.0078H18.1345L20.3721 3.79415L7.40311 3.84451L7.39983 2.9009L21.4865 2.84531ZM17.7815 15.3476H5.44518V16.2912H17.7815V15.3476ZM8.23732 18.8341C8.23732 19.8153 7.51526 20.613 6.62797 20.613C5.7401 20.613 5.01801 19.8149 5.01801 18.8341C5.01801 17.8526 5.74007 17.0545 6.62797 17.0545C7.51531 17.0548 8.23732 17.8526 8.23732 18.8341ZM7.38367 18.8341C7.38367 18.3733 7.04483 17.9981 6.62796 17.9981C6.2111 17.9981 5.87166 18.3733 5.87166 18.8341C5.87166 19.2949 6.2111 19.6694 6.62796 19.6694C7.04483 19.6697 7.38367 19.2949 7.38367 18.8341ZM17.9371 18.8341C17.9371 19.8153 17.215 20.613 16.3272 20.613C15.4393 20.613 14.7172 19.8149 14.7172 18.8341C14.7172 17.8526 15.4393 17.0545 16.3272 17.0545C17.215 17.0548 17.9371 17.8526 17.9371 18.8341ZM17.0835 18.8341C17.0835 18.3733 16.744 17.9981 16.3272 17.9981C15.9103 17.9981 15.5709 18.3733 15.5709 18.8341C15.5709 19.2949 15.9103 19.6694 16.3272 19.6694C16.744 19.6697 17.0835 19.2949 17.0835 18.8341Z" fill="#999999"/>
</svg>
