<svg width="22" height="22" viewBox="0 0 22 22" fill="none" xmlns="http://www.w3.org/2000/svg">
<path d="M13 2.2579C13 1.56303 12.432 1 11.731 1H10.27C9.568 1 9 1.56303 9 2.2579C9 2.83084 8.604 3.3225 8.065 3.53265C7.98 3.56635 7.895 3.60203 7.812 3.63772C7.281 3.86571 6.65 3.79632 6.24 3.3909C6.00204 3.15519 5.6794 3.02278 5.343 3.02278C5.0066 3.02278 4.68396 3.15519 4.446 3.3909L3.412 4.41585C3.17421 4.65173 3.04064 4.97154 3.04064 5.305C3.04064 5.63846 3.17421 5.95828 3.412 6.19415C3.822 6.60057 3.892 7.22505 3.66 7.7524C3.62355 7.83539 3.58854 7.919 3.555 8.00319C3.343 8.53747 2.847 8.93001 2.269 8.93001C1.568 8.93001 1 9.49304 1 10.1879V11.6371C1 12.332 1.568 12.895 2.269 12.895C2.847 12.895 3.343 13.2875 3.555 13.8218C3.589 13.9061 3.625 13.9903 3.66 14.0726C3.891 14.599 3.821 15.2244 3.412 15.6309C3.17421 15.8667 3.04064 16.1866 3.04064 16.52C3.04064 16.8535 3.17421 17.1733 3.412 17.4092L4.446 18.4341C4.68396 18.6698 5.0066 18.8022 5.343 18.8022C5.6794 18.8022 6.00204 18.6698 6.24 18.4341C6.65 18.0277 7.28 17.9583 7.812 18.1873C7.895 18.224 7.98 18.2587 8.065 18.2924C8.604 18.5025 9 18.9942 9 19.5671C9 20.262 9.568 20.825 10.269 20.825H11.731C12.432 20.825 13 20.262 13 19.5671C13 18.9942 13.396 18.5025 13.935 18.2914C14.02 18.2587 14.105 18.224 14.188 18.1883C14.719 17.9583 15.35 18.0287 15.759 18.4341C15.8768 18.551 16.0168 18.6437 16.1708 18.7069C16.3248 18.7702 16.4898 18.8027 16.6565 18.8027C16.8232 18.8027 16.9882 18.7702 17.1422 18.7069C17.2962 18.6437 17.4362 18.551 17.554 18.4341L18.588 17.4092C18.8258 17.1733 18.9594 16.8535 18.9594 16.52C18.9594 16.1866 18.8258 15.8667 18.588 15.6309C18.178 15.2244 18.108 14.6 18.339 14.0726C18.376 13.9903 18.411 13.9061 18.445 13.8218C18.657 13.2875 19.153 12.895 19.731 12.895C20.432 12.895 21 12.332 21 11.6371V10.1889C21 9.49403 20.432 8.931 19.731 8.931C19.153 8.931 18.657 8.53846 18.444 8.00418C18.4105 7.91998 18.3755 7.83637 18.339 7.75339C18.109 7.22704 18.179 6.60156 18.588 6.19514C18.8258 5.95927 18.9594 5.63945 18.9594 5.30599C18.9594 4.97253 18.8258 4.65272 18.588 4.41684L17.554 3.39189C17.316 3.15618 16.9934 3.02377 16.657 3.02377C16.3206 3.02377 15.998 3.15618 15.76 3.39189C15.35 3.7983 14.72 3.86769 14.188 3.63871C14.1043 3.60224 14.0199 3.56721 13.935 3.53364C13.396 3.3225 13 2.82985 13 2.2579Z" stroke="#999999"/>
<path d="M15 10.9123C15 11.9639 14.5786 12.9724 13.8284 13.716C13.0783 14.4596 12.0609 14.8773 11 14.8773C9.93913 14.8773 8.92172 14.4596 8.17157 13.716C7.42143 12.9724 7 11.9639 7 10.9123C7 9.8607 7.42143 8.85218 8.17157 8.10859C8.92172 7.36501 9.93913 6.94727 11 6.94727C12.0609 6.94727 13.0783 7.36501 13.8284 8.10859C14.5786 8.85218 15 9.8607 15 10.9123V10.9123Z" stroke="#999999"/>
</svg>
