<svg width="22" height="14" viewBox="0 0 22 14" fill="none" xmlns="http://www.w3.org/2000/svg">
<path d="M20.6302 6.11029C21.1233 6.64171 21.1233 7.35914 20.6302 7.88971C19.077 9.56029 15.3507 13 11.0002 13C6.64964 13 2.9233 9.56029 1.37014 7.88971C1.13023 7.63526 1 7.32222 1 7C1 6.67778 1.13023 6.36474 1.37014 6.11029C2.9233 4.43971 6.64964 1 11.0002 1C15.3507 1 19.077 4.43971 20.6302 6.11029V6.11029Z" stroke="#999999" stroke-width="1.5" stroke-linecap="round" stroke-linejoin="round"/>
<path d="M11.0037 9.57249C12.7273 9.57249 14.1246 8.42124 14.1246 7.00109C14.1246 5.58094 12.7273 4.42969 11.0037 4.42969C9.28008 4.42969 7.88281 5.58094 7.88281 7.00109C7.88281 8.42124 9.28008 9.57249 11.0037 9.57249Z" stroke="#999999" stroke-width="1.5" stroke-linecap="round" stroke-linejoin="round"/>
</svg>
