<svg width="22" height="23" viewBox="0 0 22 23" fill="none" xmlns="http://www.w3.org/2000/svg">
<path d="M17.0018 6.75995L15.9291 5.70703L12.3522 9.21726C12.0485 9.07189 11.7153 8.99554 11.3774 8.99387C10.9273 8.99387 10.4873 9.12489 10.113 9.37036C9.73876 9.61582 9.44706 9.96471 9.2748 10.3729C9.10255 10.7811 9.05748 11.2303 9.14529 11.6636C9.23311 12.0969 9.44986 12.495 9.76815 12.8074C10.0864 13.1198 10.492 13.3326 10.9334 13.4188C11.3749 13.505 11.8325 13.4607 12.2484 13.2917C12.6642 13.1226 13.0197 12.8363 13.2697 12.4689C13.5198 12.1015 13.6533 11.6696 13.6533 11.2278C13.6516 10.8961 13.5738 10.5691 13.4257 10.2709L17.0018 6.75995ZM11.3774 11.9724C11.2274 11.9724 11.0807 11.9288 10.956 11.8469C10.8312 11.7651 10.734 11.6488 10.6766 11.5128C10.6191 11.3767 10.6041 11.227 10.6334 11.0825C10.6627 10.9381 10.7349 10.8054 10.841 10.7013C10.9471 10.5971 11.0823 10.5262 11.2294 10.4975C11.3766 10.4687 11.5291 10.4835 11.6677 10.5398C11.8064 10.5962 11.9248 10.6916 12.0082 10.8141C12.0916 10.9365 12.136 11.0805 12.136 11.2278C12.1358 11.4252 12.0559 11.6145 11.9136 11.7541C11.7714 11.8937 11.5786 11.9722 11.3774 11.9724Z" fill="#999999"/>
<path d="M11 22.3973C8.82441 22.3973 6.69767 21.7641 4.88873 20.5776C3.07979 19.3912 1.66989 17.7049 0.83733 15.732C0.00476611 13.759 -0.213071 11.588 0.211367 9.49358C0.635804 7.39911 1.68345 5.47522 3.22183 3.96519C4.76021 2.45516 6.72022 1.42682 8.85401 1.01021C10.9878 0.59359 13.1995 0.807413 15.2095 1.62463C17.2195 2.44185 18.9375 3.82577 20.1462 5.60137C21.3549 7.37698 22 9.46452 22 11.6C21.9967 14.4626 20.8367 17.2071 18.7745 19.2312C16.7123 21.2554 13.9164 22.394 11 22.3973ZM11 2.34521C9.13521 2.34521 7.31229 2.88799 5.76177 3.90493C4.21125 4.92186 3.00277 6.36726 2.28914 8.05836C1.57551 9.74946 1.3888 11.6103 1.7526 13.4055C2.1164 15.2008 3.01439 16.8499 4.333 18.1442C5.65161 19.4385 7.33162 20.3199 9.16058 20.677C10.9895 21.0341 12.8853 20.8508 14.6082 20.1504C16.331 19.4499 17.8035 18.2637 18.8396 16.7417C19.8756 15.2198 20.4286 13.4305 20.4286 11.6C20.4257 9.14637 19.4314 6.79403 17.6638 5.05904C15.8962 3.32404 13.4997 2.34807 11 2.34521Z" fill="#999999"/>
<path d="M17.5387 8.62091C17.9674 9.5262 18.2068 10.5354 18.2068 11.5995C18.2068 15.5064 14.9801 18.6736 10.9999 18.6736C7.01961 18.6736 3.79297 15.5064 3.79297 11.5995C3.79297 7.69256 7.01961 4.52539 10.9999 4.52539C12.0839 4.52539 13.1121 4.76033 14.0344 5.18116" stroke="#999999" stroke-width="2"/>
</svg>
