<svg width="20" height="20" viewBox="0 0 20 20" fill="none" xmlns="http://www.w3.org/2000/svg">
<path d="M19.8279 4.43349C19.7127 3.92985 19.5348 3.44673 19.2994 2.99822C19.0733 2.53164 18.7843 2.10671 18.4423 1.73837C17.9466 1.1868 17.3596 0.748077 16.7139 0.446622C15.4142 -0.148874 13.9567 -0.148874 12.657 0.446622C12.0467 0.735013 11.486 1.13973 10.9999 1.64268L10.9285 1.73837L10 2.77495L9.07148 1.73837L9.00006 1.64268C8.51402 1.13973 7.95332 0.735013 7.34302 0.446622C6.04332 -0.148874 4.58583 -0.148874 3.28613 0.446622C2.64043 0.748077 2.05339 1.1868 1.55767 1.73837C0.879659 2.47487 0.399701 3.40842 0.172042 4.43349C0.0509284 4.95405 -0.0067308 5.49047 0.000624357 6.02824C0.000624357 6.53377 0.0577636 7.03771 0.172042 7.5273C0.291797 8.02174 0.464458 8.49828 0.686296 8.94663C0.925874 9.40752 1.21886 9.83112 1.55767 10.2065L10 19.6314L18.4423 10.2065C18.7809 9.8349 19.0709 9.4091 19.2994 8.94663C19.7634 8.06171 20.0052 7.05358 19.9994 6.02824C20.0068 5.49047 19.9491 4.95404 19.8279 4.43349ZM18.3995 7.03293C18.2284 7.7616 17.8884 8.42713 17.4138 8.96257L9.97143 17.2553L2.52904 8.96257C2.28651 8.6899 2.07538 8.38455 1.9005 8.05357C1.73595 7.72613 1.6065 7.37821 1.51481 7.01698C1.44162 6.6558 1.40331 6.2869 1.40054 5.91661C1.40247 5.53572 1.44078 5.15615 1.51481 4.78434C1.60381 4.42207 1.7334 4.07379 1.9005 3.74775C2.07192 3.41285 2.28334 3.10985 2.52904 2.83874C2.89601 2.43454 3.32712 2.11008 3.80039 1.88189C4.75406 1.45597 5.81795 1.45597 6.77163 1.88189C7.24303 2.10038 7.66871 2.42092 8.02869 2.8228L9.97143 5.0076L11.9142 2.8228C12.2739 2.42021 12.701 2.10051 13.1712 1.88189C14.1249 1.45597 15.1888 1.45597 16.1425 1.88189C16.6153 2.10994 17.0467 2.43527 17.4138 2.83874C17.6624 3.10188 17.8709 3.40807 18.0281 3.74775C18.3589 4.39915 18.5313 5.13588 18.528 5.88471C18.5475 6.27004 18.5186 6.65651 18.4423 7.03293H18.3995Z" fill="#999999"/>
</svg>
