<svg width="18" height="20" viewBox="0 0 18 20" fill="none" xmlns="http://www.w3.org/2000/svg">
<path d="M4.60936 4.87034L4.60942 4.87027L7.84283 1.48909L7.8754 1.45503C8.03317 1.29923 8.21828 1.17955 8.41903 1.10213C8.63374 1.01933 8.86224 0.98642 9.08916 1.00507C9.31611 1.02372 9.53758 1.09363 9.73839 1.21113C9.93928 1.32869 10.1153 1.49146 10.2531 1.68958L10.3186 1.78395L4.85624 7.49593L4.85328 7.49387C4.65656 7.35663 4.48958 7.17416 4.36573 6.95833C4.24185 6.74245 4.16465 6.49925 4.14076 6.24628C4.11687 5.99329 4.14702 5.73821 4.2286 5.49977C4.31016 5.26137 4.4407 5.04663 4.60936 4.87034Z" stroke="#999999"/>
<path d="M6.87497 8.90072L11.7347 3.81888L12.8908 5.48179C12.891 5.48201 12.8911 5.48223 12.8913 5.48244C12.9634 5.58667 13.0513 5.67934 13.1523 5.75662L13.1535 5.75759L14.7141 6.94392L9.9417 11.9353L9.12882 10.6003C9.1288 10.6002 9.12877 10.6002 9.12875 10.6002C9.04289 10.4591 8.92781 10.332 8.78423 10.2328L6.87497 8.90072Z" stroke="#999999"/>
<path d="M11.252 14.0863L16.6635 8.42658L16.7839 8.51837L16.7844 8.51877C16.9715 8.66107 17.1285 8.84538 17.2434 9.0601C17.3584 9.27488 17.428 9.5143 17.4466 9.76181C17.4652 10.0093 17.4322 10.2578 17.3504 10.4898C17.2686 10.7217 17.1403 10.9306 16.9757 11.1029L13.7695 14.4567L13.7694 14.4568C13.5988 14.6353 13.3936 14.7698 13.1698 14.8521C12.9461 14.9344 12.7084 14.9629 12.4737 14.9359C12.2391 14.909 12.0119 14.8272 11.809 14.6951C11.6207 14.5725 11.4575 14.4094 11.3305 14.215L11.3019 14.1681L11.252 14.0863Z" stroke="#999999"/>
<path d="M0.869731 16.6692L0.869828 16.6693L0.878012 16.6609L6.24905 11.1508L7.39923 11.9526L7.88199 12.7456L2.46911 18.4059L2.46901 18.4058L2.46116 18.4144C2.3545 18.5313 2.22775 18.6232 2.0891 18.6861C1.95052 18.7489 1.8022 18.7816 1.65273 18.7831C1.50326 18.7845 1.35446 18.7547 1.2149 18.6946C1.07529 18.6345 0.94707 18.5451 0.838472 18.4304L0.516214 18.7356L0.838472 18.4304C0.729826 18.3157 0.643134 18.1781 0.584612 18.0253C0.526077 17.8724 0.497214 17.7081 0.500212 17.5423C0.50321 17.3765 0.537988 17.2136 0.601915 17.0633C0.665829 16.9131 0.757268 16.7793 0.869731 16.6692Z" stroke="#999999"/>
<path d="M15.4334 18.5028V19.0028H17.2997C17.3453 19.0028 17.3939 19.0215 17.4332 19.0627C17.4733 19.1047 17.4996 19.1661 17.4996 19.2347C17.4996 19.3032 17.4733 19.3647 17.4332 19.4066C17.3939 19.4478 17.3453 19.4665 17.2997 19.4665H9.36784C9.32223 19.4665 9.2737 19.4478 9.23432 19.4066C9.19421 19.3647 9.16797 19.3032 9.16797 19.2347C9.16797 19.1661 9.19421 19.1047 9.23432 19.0627C9.2737 19.0215 9.32222 19.0028 9.36784 19.0028H11.2342V18.5028V18.0028C11.1885 18.0028 11.14 17.9841 11.1006 17.9429C11.0605 17.9009 11.0343 17.8395 11.0343 17.7709C11.0343 17.7024 11.0605 17.6409 11.1006 17.599C11.14 17.5578 11.1885 17.5391 11.2342 17.5391H15.4334C15.479 17.5391 15.5275 17.5578 15.5669 17.599C15.607 17.6409 15.6333 17.7024 15.6333 17.7709C15.6333 17.8395 15.607 17.9009 15.5669 17.9429C15.5275 17.9841 15.479 18.0028 15.4334 18.0028V18.5028Z" stroke="#999999"/>
</svg>
