<svg width="21" height="21" viewBox="0 0 21 21" fill="none" xmlns="http://www.w3.org/2000/svg">
<path d="M13.1038 12.4C13.1038 11.06 11.9138 10.74 10.7838 10.47V7.82C11.3638 7.85 12.0038 8.04 12.5638 8.4L12.8138 7.81C12.2838 7.44 11.5338 7.22 10.7838 7.19V6.05H10.2838V7.2C8.75383 7.32 8.06383 8.15 8.06383 9.11C8.06383 10.43 9.18383 10.77 10.2838 11.04V13.67C9.44383 13.62 8.64383 13.28 8.18383 12.83L7.89383 13.4C8.38383 13.9 9.30383 14.26 10.2838 14.31V15.45H10.7838V14.3C12.3738 14.21 13.1038 13.37 13.1038 12.4ZM8.79383 9.09C8.79383 8.46 9.25383 7.93 10.2838 7.84V10.34C9.46383 10.13 8.79383 9.85 8.79383 9.09ZM10.7838 13.67V11.17C11.6438 11.38 12.3738 11.65 12.3738 12.44C12.3738 13.08 11.8838 13.59 10.7838 13.67Z" fill="#313131"/>
<path d="M10.8001 0.850161L12.2213 1.9164C12.5305 2.14837 12.9173 2.25201 13.3011 2.20573L15.0651 1.99297C15.2857 1.96635 15.4975 2.08861 15.5848 2.29302L16.2825 3.92705C16.4343 4.28253 16.7175 4.5657 17.073 4.71749L18.707 5.41523C18.9114 5.50251 19.0336 5.71426 19.007 5.93493L18.7943 7.69891C18.748 8.08267 18.8516 8.46948 19.0836 8.77868L20.1498 10.1999C20.2832 10.3777 20.2832 10.6223 20.1498 10.8001L19.0836 12.2213C18.8516 12.5305 18.748 12.9173 18.7943 13.3011L19.007 15.0651C19.0336 15.2857 18.9114 15.4975 18.707 15.5848L17.073 16.2825C16.7175 16.4343 16.4343 16.7175 16.2825 17.073L15.5848 18.707C15.4975 18.9114 15.2857 19.0336 15.0651 19.007L13.3011 18.7943C12.9173 18.748 12.5305 18.8516 12.2213 19.0836L10.8001 20.1498C10.6223 20.2832 10.3777 20.2832 10.1999 20.1498L8.77868 19.0836C8.46948 18.8516 8.08267 18.748 7.69891 18.7943L5.93493 19.007C5.71426 19.0336 5.50251 18.9114 5.41523 18.707L4.71749 17.073C4.5657 16.7175 4.28253 16.4343 3.92705 16.2825L2.29302 15.5848C2.08861 15.4975 1.96635 15.2857 1.99297 15.0651L2.20573 13.3011C2.25201 12.9173 2.14837 12.5305 1.9164 12.2213L0.850162 10.8001C0.716776 10.6223 0.716776 10.3777 0.850161 10.1999L1.9164 8.77868C2.14837 8.46948 2.25201 8.08267 2.20573 7.69891L1.99297 5.93493C1.96635 5.71426 2.08861 5.50251 2.29302 5.41523L3.92704 4.71749C4.28253 4.5657 4.5657 4.28253 4.71749 3.92705L5.41523 2.29302C5.50251 2.08861 5.71426 1.96635 5.93493 1.99297L7.69891 2.20573C8.08266 2.25201 8.46948 2.14837 8.77868 1.9164L10.1999 0.850162C10.3777 0.716776 10.6223 0.716776 10.8001 0.850161Z" stroke="#999999"/>
</svg>
