<svg width="24" height="24" viewBox="0 0 24 24" fill="none" xmlns="http://www.w3.org/2000/svg">
<g clip-path="url(#clip0_101_7966)">
<path d="M21.9348 11.9999L22.0796 11.7496L23.4059 9.45742L21.9348 11.9999ZM21.9348 11.9999L22.0795 12.2502M21.9348 11.9999L22.0795 12.2502M22.0795 12.2502L23.4047 14.5426L23.4049 14.5429M22.0795 12.2502L23.4049 14.5429M23.4049 14.5429C23.4511 14.6227 23.4811 14.7108 23.4932 14.8021C23.5053 14.8935 23.4994 14.9864 23.4756 15.0754C23.4518 15.1645 23.4107 15.248 23.3546 15.3211C23.2986 15.3943 23.2287 15.4557 23.1488 15.5018L23.1488 15.5018M23.4049 14.5429L23.1488 15.5018M23.1488 15.5018L20.8541 16.8282L20.6043 16.9726M23.1488 15.5018L20.6043 16.9726M20.6043 16.9726V17.2611M20.6043 16.9726V17.2611M20.6043 17.2611V19.9031C20.6043 20.0891 20.5304 20.2675 20.3989 20.3991C20.2674 20.5306 20.089 20.6045 19.9029 20.6045H17.2611H16.9724M20.6043 17.2611L16.9724 20.6045M16.9724 20.6045L16.8281 20.8545M16.9724 20.6045L16.8281 20.8545M16.8281 20.8545L15.5034 23.1485M16.8281 20.8545L15.5034 23.1485M12 21.9338L12.2503 22.0785L14.5446 23.4047L12 21.9338ZM12 21.9338L11.7497 22.0786M12 21.9338L11.7497 22.0786M11.7497 22.0786L9.45763 23.4049L11.7497 22.0786ZM7.02766 20.6045L7.17204 20.8543L8.49708 23.1468C8.49728 23.1472 8.49748 23.1475 8.49768 23.1478C8.56018 23.2543 8.64925 23.3427 8.75616 23.4044L8.50615 23.8374L8.75616 23.4044C8.86302 23.4661 8.98404 23.4991 9.1074 23.5C9.22779 23.4997 9.34874 23.4678 9.4574 23.405L7.02766 20.6045ZM7.02766 20.6045H6.73915M7.02766 20.6045H6.73915M6.73915 20.6045H4.09606C3.91004 20.6045 3.73164 20.5306 3.6001 20.3991C3.46856 20.2675 3.39465 20.0891 3.39465 19.9031V17.2611V16.9726M6.73915 20.6045L3.39465 16.9726M3.39465 16.9726L3.14487 16.8282M3.39465 16.9726L3.14487 16.8282M3.14487 16.8282L0.852244 15.503C0.851956 15.5028 0.851668 15.5027 0.85138 15.5025C0.69089 15.4084 0.573992 15.2548 0.526114 15.075C0.478201 14.895 0.503292 14.7035 0.59591 14.5419C0.596008 14.5418 0.596106 14.5416 0.596204 14.5414L1.92179 12.2504L2.06667 12M3.14487 16.8282L2.06667 12M2.06667 12L1.92179 11.7496M2.06667 12L1.92179 11.7496M1.92179 11.7496L0.595439 9.45722L0.594832 9.45618M1.92179 11.7496L0.594832 9.45618M0.594832 9.45618C0.548518 9.37658 0.518389 9.28861 0.506176 9.19733C0.493962 9.10605 0.499904 9.01326 0.52366 8.92428C0.547417 8.83531 0.588519 8.7519 0.644606 8.67886C0.700693 8.60582 0.770658 8.54458 0.850482 8.49867L0.851392 8.49814M0.594832 9.45618L0.851392 8.49814M0.851392 8.49814L3.14608 7.17175L3.39585 7.02737M0.851392 8.49814L3.39585 7.02737M3.39585 7.02737V6.73886M3.39585 7.02737V6.73886M3.39585 6.73886V4.09689C3.39585 3.91085 3.46976 3.73243 3.6013 3.60089C3.73284 3.46934 3.91124 3.39545 4.09726 3.39545H6.73915H7.02766M3.39585 6.73886L7.02766 3.39545M7.02766 3.39545L7.17204 3.14565M7.02766 3.39545L7.17204 3.14565M7.17204 3.14565L8.49839 0.850897L8.49851 0.850697M7.17204 3.14565L8.49851 0.850697M8.49851 0.850697C8.59152 0.689594 8.74472 0.572044 8.9244 0.523901L8.79513 0.0414259M8.49851 0.850697L8.79513 0.0414259M8.79513 0.0414259L8.9244 0.523901C9.10399 0.47578 9.29534 0.500938 9.45639 0.59384C9.45646 0.593884 9.45654 0.593928 9.45662 0.593972L11.7509 1.92134L12.0012 2.06614M8.79513 0.0414259L12.0012 2.06614M12.0012 2.06614L12.2515 1.92144M12.0012 2.06614L12.2515 1.92144M12.2515 1.92144L14.5462 0.595049L14.5473 0.594388M12.2515 1.92144L14.5473 0.594388M14.5473 0.594388C14.6266 0.548283 14.7143 0.518374 14.8052 0.506394C14.8961 0.494415 14.9885 0.500602 15.077 0.524598L15.2079 0.0420175M14.5473 0.594388L16.9737 3.39545M16.9737 3.39545L16.8293 3.14558L15.5049 0.853228C15.5048 0.853077 15.5047 0.852925 15.5046 0.852773C15.4106 0.691408 15.2569 0.573493 15.0767 0.524512L15.2079 0.0420175M16.9737 3.39545H17.2623M16.9737 3.39545H17.2623M15.2079 0.0420175C15.0555 0.000706921 14.8964 -0.00994519 14.7399 0.0106785L15.9371 0.60189C15.7771 0.326659 15.5151 0.125524 15.2079 0.0420175ZM17.2623 3.39545H19.9041C20.0902 3.39545 20.2686 3.46934 20.4001 3.60089C20.5316 3.73243 20.6055 3.91085 20.6055 4.09689V6.74006V7.02857M17.2623 3.39545L20.6055 7.02857M20.6055 7.02857L20.8553 7.17295M20.6055 7.02857L20.8553 7.17295M20.8553 7.17295L23.1498 8.49924M20.8553 7.17295L23.1498 8.49924M15.5034 23.1485C15.5033 23.1486 15.5031 23.1488 15.503 23.149M15.5034 23.1485L15.503 23.149M15.503 23.149C15.4097 23.3097 15.2565 23.4268 15.0769 23.4748C14.8974 23.5228 14.7061 23.4977 14.545 23.4049L15.503 23.149ZM23.1498 8.49924C23.3108 8.59237 23.4282 8.74563 23.4762 8.92532C23.5242 9.10493 23.4989 9.29624 23.406 9.45722L23.1498 8.49924Z" stroke="#999999"/>
<path d="M14.346 13.218C14.346 11.967 13.257 11.652 12.258 11.409V9.591C12.735 9.645 13.239 9.798 13.716 10.077L14.085 9.168C13.599 8.853 12.924 8.655 12.258 8.619V7.62H11.52V8.637C10.116 8.772 9.45 9.573 9.45 10.491C9.45 11.742 10.521 12.066 11.52 12.309V14.109C10.836 14.046 10.161 13.785 9.72 13.425L9.315 14.334C9.783 14.739 10.638 15.027 11.52 15.081V16.08H12.258V15.072C13.671 14.928 14.346 14.136 14.346 13.218ZM10.611 10.437C10.611 10.041 10.881 9.717 11.52 9.618V11.22C10.998 11.067 10.611 10.869 10.611 10.437ZM12.258 14.091V12.498C12.798 12.651 13.194 12.858 13.194 13.299C13.194 13.686 12.915 13.992 12.258 14.091Z" fill="#999999"/>
</g>
<defs>
<clipPath id="clip0_101_7966">
<rect width="24" height="24" fill="white"/>
</clipPath>
</defs>
</svg>
