<svg width="24" height="24" viewBox="0 0 24 24" fill="none" xmlns="http://www.w3.org/2000/svg">
<path d="M14.4769 13.6477C14.4769 12.3967 13.3879 12.0817 12.3889 11.8387V10.0207C12.8659 10.0747 13.3699 10.2277 13.8469 10.5067L14.2159 9.59769C13.7299 9.28269 13.0549 9.08469 12.3889 9.04869V8.04969H11.6509V9.06669C10.2469 9.20169 9.58086 10.0027 9.58086 10.9207C9.58086 12.1717 10.6519 12.4957 11.6509 12.7387V14.5387C10.9669 14.4757 10.2919 14.2147 9.85086 13.8547L9.44586 14.7637C9.91386 15.1687 10.7689 15.4567 11.6509 15.5107V16.5097H12.3889V15.5017C13.8019 15.3577 14.4769 14.5657 14.4769 13.6477ZM10.7419 10.8667C10.7419 10.4707 11.0119 10.1467 11.6509 10.0477V11.6497C11.1289 11.4967 10.7419 11.2987 10.7419 10.8667ZM12.3889 14.5207V12.9277C12.9289 13.0807 13.3249 13.2877 13.3249 13.7287C13.3249 14.1157 13.0459 14.4217 12.3889 14.5207Z" fill="#999999"/>
<path d="M0.792482 9.29374L0.336858 9.49967L0.792481 9.29374C0.694496 9.07694 0.76284 8.82113 0.955893 8.68209L2.7821 7.36681C3.13063 7.11579 3.35483 6.7274 3.3979 6.30005L3.62272 4.06931C3.64656 3.83282 3.83358 3.6458 4.07006 3.62196L6.30069 3.39714C6.72804 3.35407 7.11643 3.12986 7.36745 2.78133L8.68233 0.95563C8.82133 0.762636 9.07704 0.694263 9.29381 0.792132L11.3436 1.71761C11.7359 1.89472 12.1854 1.89479 12.5777 1.7178L14.6277 0.792993C14.8445 0.695203 15.1002 0.763624 15.2391 0.956616L16.5527 2.78115C16.8038 3.12979 17.1922 3.35407 17.6196 3.39715L19.8501 3.62196C20.0866 3.6458 20.2737 3.83283 20.2975 4.06932L20.5224 6.30133C20.5654 6.7286 20.7895 7.11693 21.1379 7.36797L22.9631 8.68308C23.1561 8.82211 23.2244 9.07781 23.1265 9.29455L22.202 11.3418C22.0247 11.7342 22.0247 12.1838 22.2018 12.5762L22.6575 12.3706L22.2018 12.5762L23.1261 14.6242C23.2239 14.841 23.1556 15.0966 22.9627 15.2356L21.1367 16.5513C20.7883 16.8024 20.5642 17.1907 20.5211 17.6179L20.2963 19.8488C20.2725 20.0853 20.0855 20.2723 19.849 20.2961L17.6183 20.5209C17.191 20.564 16.8026 20.7882 16.5516 21.1368L15.2374 22.9615C15.0984 23.1544 14.8428 23.2228 14.626 23.125L12.6048 22.2131C12.1881 22.0251 11.7084 22.0374 11.3019 22.2465L9.55619 23.1443C9.34638 23.2522 9.08969 23.1988 8.94037 23.0161L7.34773 21.0677C7.09605 20.7598 6.7324 20.5645 6.33673 20.5246L4.06888 20.2961C3.83238 20.2723 3.64535 20.0852 3.62152 19.8488L3.39665 17.6175C3.35363 17.1906 3.12983 16.8026 2.78186 16.5515L0.957304 15.2351C0.764568 15.0961 0.696351 14.8405 0.794128 14.6239L1.71833 12.5764C1.89553 12.1838 1.89542 11.734 1.71802 11.3415L0.792482 9.29374Z" stroke="#999999"/>
</svg>
