<svg width="19" height="18" viewBox="0 0 19 18" fill="none" xmlns="http://www.w3.org/2000/svg">
<path fill-rule="evenodd" clip-rule="evenodd" d="M8.46098 7.95903V2.50503C8.46098 1.95968 8.90308 1.51758 9.44843 1.51758C9.99379 1.51758 10.4359 1.95968 10.4359 2.50503V7.95903H10.9363V7.96314H16.3903C16.9356 7.96314 17.3777 8.40524 17.3777 8.9506C17.3777 9.49595 16.9356 9.93805 16.3903 9.93805H10.9363V9.94227H10.4359V15.3963C10.4359 15.9416 9.99379 16.3837 9.44843 16.3837C8.90308 16.3837 8.46098 15.9416 8.46098 15.3963V9.94227H7.96098V9.93805H2.50698C1.96163 9.93805 1.51953 9.49595 1.51953 8.9506C1.51953 8.40524 1.96163 7.96314 2.50699 7.96314H7.96098V7.95903H8.46098ZM11.4359 10.9381V15.3963C11.4359 16.4939 10.5461 17.3837 9.44843 17.3837C8.35079 17.3837 7.46098 16.4939 7.46098 15.3963V10.9381H2.50698C1.40934 10.9381 0.519531 10.0482 0.519531 8.9506C0.519531 7.85296 1.40934 6.96314 2.50699 6.96314H7.46098V2.50503C7.46098 1.40739 8.35079 0.517578 9.44843 0.517578C10.5461 0.517578 11.4359 1.40739 11.4359 2.50503V6.96314H16.3903C17.4879 6.96314 18.3777 7.85296 18.3777 8.9506C18.3777 10.0482 17.4879 10.9381 16.3903 10.9381H11.4359Z" fill="#667799"/>
</svg>
