<svg width="22" height="21" viewBox="0 0 22 21" fill="none" xmlns="http://www.w3.org/2000/svg">
<path d="M0.5 20V16C0.5 15.7239 0.723858 15.5 1 15.5H2.79844C3.36612 15.5 3.91689 15.3068 4.36018 14.9522L5.76452 13.8287C6.03049 13.6159 6.36095 13.5 6.70156 13.5H12.5C13.0523 13.5 13.5 13.9477 13.5 14.5C13.5 15.0523 13.0523 15.5 12.5 15.5H10C9.44772 15.5 9 15.9477 9 16.5C9 17.0523 9.44772 17.5 10 17.5H14.2985C14.8661 17.5 15.4169 17.3068 15.8602 16.9522L19.1497 14.3206C19.5876 13.9703 20.2244 14.0302 20.5894 14.4559C20.9707 14.9008 20.9095 15.5728 20.4541 15.9415L15.2357 20.1659C14.9687 20.382 14.6355 20.5 14.2919 20.5H1C0.723858 20.5 0.5 20.2761 0.5 20Z" stroke="#999999"/>
<path d="M11.7269 8.64154C11.9733 8.64154 12.1657 8.43283 12.1657 8.1889L12.1657 8.18659C12.163 8.08773 12.1315 7.99148 12.0746 7.91285C12.0179 7.83452 11.9384 7.77723 11.8468 7.75265L9.75424 7.12901C8.85605 6.85874 8.13508 6.08643 8.01835 5.1195C7.85627 3.7677 8.78817 2.61663 10.0076 2.46567L10.0836 2.45625V2.38029V1.6122C10.0836 1.27156 10.3506 1 10.667 1H11.3372C11.6537 1 11.9206 1.27156 11.9206 1.6122V2.38552V2.46204L11.9973 2.47098C12.4539 2.52426 12.8953 2.69035 13.2902 2.95834C13.3301 2.98552 13.3656 3.02191 13.3942 3.06591C13.4228 3.10994 13.4438 3.16049 13.4555 3.21472C13.4671 3.26895 13.4692 3.32538 13.4615 3.38064C13.4538 3.43589 13.4365 3.48843 13.4111 3.53524L13.4108 3.53568C13.3919 3.57094 13.3687 3.60233 13.3421 3.62901L13.3409 3.63022L12.6078 4.39391C12.4832 4.52356 12.2922 4.54586 12.118 4.46295L12.1169 4.46244C11.9681 4.39416 11.8086 4.35873 11.6472 4.35846H10.2734C10.0271 4.35846 9.83466 4.56717 9.83466 4.81109L9.83469 4.81341C9.83738 4.91227 9.86884 5.00852 9.92573 5.08712C9.98244 5.16548 10.062 5.22277 10.1535 5.24735L12.2463 5.87106C13.1459 6.14131 13.8645 6.91349 13.9816 7.88049C14.1437 9.23237 13.2137 10.3834 11.9928 10.5343L11.9167 10.5437V10.6197V11.3878C11.9167 11.7284 11.6495 12 11.333 12H10.6628C10.3467 12 10.0794 11.7284 10.0794 11.3878V10.6153V10.5388L10.0027 10.5299C9.5462 10.4766 9.10487 10.3105 8.71002 10.0425C8.67015 10.0154 8.63464 9.9792 8.60601 9.93539C8.57737 9.89155 8.55635 9.84118 8.54457 9.78711C8.53278 9.73305 8.53056 9.67674 8.53808 9.6216C8.54558 9.5665 8.56259 9.51406 8.58779 9.46727C8.60757 9.43103 8.63183 9.39877 8.6595 9.37136L8.66102 9.36978L9.39414 8.60606C9.51866 8.47647 9.70927 8.45412 9.88398 8.53707L9.88502 8.53756C10.0333 8.60559 10.1922 8.64102 10.353 8.64154H10.3533H11.7269Z" stroke="#999999" stroke-width="0.7"/>
</svg>
