<svg width="21" height="21" viewBox="0 0 21 21" fill="none" xmlns="http://www.w3.org/2000/svg">
<path d="M13.86 4.99224L13.86 6.0975C13.0422 6.34066 12.4453 7.07017 12.4453 7.97652C12.4453 8.88288 13.0422 9.61235 13.86 9.85555L13.86 16.045C13.86 16.3545 14.1032 16.5977 14.4127 16.5977C14.7221 16.5977 14.9653 16.3545 14.9653 16.045L14.9653 9.85555C15.7832 9.61239 16.38 8.88288 16.38 7.97652C16.38 7.07017 15.7832 6.3407 14.9653 6.0975L14.9653 4.99224C14.9653 4.68277 14.7221 4.4396 14.4127 4.4396C14.1032 4.4396 13.86 4.68277 13.86 4.99224ZM15.2748 7.95446C15.2748 8.41875 14.899 8.81656 14.4127 8.81656C13.9484 8.81656 13.5506 8.44079 13.5506 7.95446C13.5506 7.46814 13.9263 7.09235 14.4127 7.09235C14.8768 7.09235 15.2748 7.49017 15.2748 7.95446Z" fill="#999999"/>
<path d="M9.94599 4.99223L9.94599 11.1817C9.12813 11.4249 8.53125 12.1544 8.53125 13.0607C8.53125 13.9449 9.12813 14.6966 9.94599 14.9398L9.94599 16.045C9.94599 16.3545 10.1892 16.5977 10.4986 16.5977C10.8081 16.5977 11.0512 16.3545 11.0512 16.045L11.0512 14.9398C11.8691 14.6966 12.466 13.9671 12.466 13.0607C12.466 12.1766 11.8691 11.4249 11.0512 11.1817L11.0512 4.99223C11.0512 4.68277 10.8081 4.4396 10.4986 4.4396C10.1892 4.41755 9.94599 4.68277 9.94599 4.99223ZM11.3607 13.0386C11.3607 13.5028 10.985 13.9007 10.4986 13.9007C10.0343 13.9007 9.63651 13.5249 9.63651 13.0386C9.63651 12.5743 10.0123 12.1764 10.4986 12.1764C10.9629 12.1986 11.3607 12.5744 11.3607 13.0386Z" fill="#999999"/>
<path d="M6.03583 4.99223L6.03583 6.0975C5.21798 6.34066 4.62109 7.07017 4.62109 7.97652C4.62109 8.88288 5.21798 9.61235 6.03583 9.85555L6.03583 16.045C6.03583 16.3545 6.279 16.5977 6.58846 16.5977C6.89793 16.5977 7.14109 16.3545 7.14109 16.045L7.14109 9.85555C7.95895 9.61239 8.55583 8.88288 8.55583 7.97652C8.55583 7.07017 7.95895 6.3407 7.14109 6.0975L7.14109 4.99223C7.14109 4.68277 6.89793 4.4396 6.58846 4.4396C6.279 4.41755 6.03583 4.68277 6.03583 4.99223ZM7.4285 7.95446C7.4285 8.41875 7.05273 8.81656 6.5664 8.81656C6.10211 8.81656 5.70429 8.44079 5.70429 7.95446C5.70429 7.46814 6.08006 7.09235 6.5664 7.09235C7.05271 7.09235 7.4285 7.49017 7.4285 7.95446Z" fill="#999999"/>
<path d="M-4.5897e-07 10.5C-2.05812e-07 16.2916 4.70842 21 10.5 21C16.2916 21 21 16.2916 21 10.5C21 4.70842 16.2916 -2.61948e-06 10.5 -2.36632e-06C4.70842 -2.11316e-06 -7.12128e-07 4.70842 -4.5897e-07 10.5ZM19.8947 10.5C19.8947 15.6726 15.6726 19.8947 10.5 19.8947C5.32737 19.8947 1.10526 15.6726 1.10526 10.5C1.10526 5.32737 5.32737 1.10526 10.5 1.10526C15.6726 1.10526 19.8947 5.32737 19.8947 10.5Z" fill="#999999"/>
</svg>
