<svg width="20" height="22" viewBox="0 0 20 22" fill="none" xmlns="http://www.w3.org/2000/svg">
<path d="M1.17642 4.08892V12.3202C1.17642 16.7329 5.34941 20.8989 10 20.8989C14.6506 20.8989 18.8235 16.7329 18.8235 12.3202V4.08892L9.99995 1.36297L1.17642 4.08892ZM9.94706 0L20 3.13375V12.3202C20 17.5594 15.5224 21.8076 10 21.8076C4.47765 21.8076 0 17.5594 0 12.3202V3.13375L9.94706 0ZM15.1459 7.0711C15.0691 7.00572 14.9789 6.95535 14.8806 6.92298C14.7824 6.89062 14.6781 6.87693 14.574 6.88273C14.4699 6.88853 14.3682 6.9137 14.2748 6.95674C14.1814 6.99979 14.0984 7.05982 14.0306 7.13325L8.95294 12.5513L5.67294 9.18752C5.60359 9.11552 5.51933 9.05718 5.42515 9.01597C5.33098 8.97477 5.22883 8.95154 5.12477 8.94768C5.02072 8.94381 4.91688 8.95938 4.81945 8.99347C4.72203 9.02756 4.63299 9.07946 4.55765 9.14609C4.40339 9.28274 4.31259 9.46967 4.30446 9.6673C4.29634 9.86492 4.37153 10.0577 4.51412 10.2048L8.38471 14.1738C8.45843 14.2506 8.54905 14.3119 8.65047 14.3535C8.75189 14.3952 8.86176 14.4162 8.97268 14.4151C9.08359 14.4141 9.19298 14.3911 9.29348 14.3476C9.39398 14.304 9.48325 14.2411 9.55529 14.1629L15.2106 8.12877C15.3502 7.97922 15.4214 7.7852 15.4094 7.58779C15.3973 7.39038 15.3028 7.20507 15.1459 7.0711Z" fill="#999999"/>
</svg>
