<svg width="26" height="26" viewBox="0 0 26 26" fill="none" xmlns="http://www.w3.org/2000/svg">
<path d="M24.7217 6.58203L19.7045 3.70781H19.6436L19.6029 3.6875H16.2514C16.1436 3.6875 16.0403 3.7303 15.9641 3.80649C15.8879 3.88267 15.8451 3.98601 15.8451 4.09375C15.8451 4.84796 15.5455 5.57128 15.0122 6.10459C14.4789 6.63789 13.7556 6.9375 13.0014 6.9375C12.2472 6.9375 11.5238 6.63789 10.9905 6.10459C10.4572 5.57128 10.1576 4.84796 10.1576 4.09375C10.1576 3.98601 10.1148 3.88267 10.0386 3.80649C9.96245 3.7303 9.85912 3.6875 9.75138 3.6875H6.39981L6.35919 3.70781H6.29825L1.28106 6.58203C1.01167 6.73802 0.811521 6.99044 0.721034 7.28829C0.630546 7.58614 0.656468 7.90724 0.793562 8.18672L2.66231 11.9242C2.76375 12.1255 2.91902 12.2947 3.11087 12.4131C3.30271 12.5314 3.52362 12.5942 3.74903 12.5945H6.09512V21.1258C6.09512 21.449 6.22353 21.759 6.45209 21.9876C6.68065 22.2161 6.99064 22.3445 7.31388 22.3445H18.6889C19.0121 22.3445 19.3221 22.2161 19.5507 21.9876C19.7792 21.759 19.9076 21.449 19.9076 21.1258V12.5945H22.2537C22.4791 12.5942 22.7 12.5314 22.8919 12.4131C23.0837 12.2947 23.239 12.1255 23.3404 11.9242L25.2092 8.18672C25.3463 7.90724 25.3722 7.58614 25.2817 7.28829C25.1912 6.99044 24.9911 6.73802 24.7217 6.58203ZM3.74903 11.782C3.67427 11.7844 3.60051 11.7644 3.53718 11.7246C3.47385 11.6848 3.42385 11.627 3.39356 11.5586L1.52481 7.82109C1.47726 7.72773 1.46761 7.6196 1.49789 7.5193C1.52817 7.41899 1.59604 7.33426 1.68731 7.28281L6.09512 4.76406V11.782H3.74903ZM19.0951 21.1258C19.0951 21.2335 19.0523 21.3369 18.9761 21.413C18.9 21.4892 18.7966 21.532 18.6889 21.532H7.31388C7.20613 21.532 7.1028 21.4892 7.02661 21.413C6.95043 21.3369 6.90762 21.2335 6.90762 21.1258V4.46953H9.36544C9.4605 5.36758 9.88454 6.19867 10.5559 6.80269C11.2272 7.40671 12.0983 7.74091 13.0014 7.74091C13.9044 7.74091 14.7756 7.40671 15.4469 6.80269C16.1182 6.19867 16.5423 5.36758 16.6373 4.46953H19.0951V21.1258ZM24.4779 7.82109L22.6092 11.5586C22.5789 11.627 22.5289 11.6848 22.4656 11.7246C22.4022 11.7644 22.3285 11.7844 22.2537 11.782H19.9076V4.76406L24.3154 7.28281C24.4067 7.33426 24.4746 7.41899 24.5049 7.5193C24.5351 7.6196 24.5255 7.72773 24.4779 7.82109Z" fill="#999999"/>
</svg>
