<svg width="32" height="19" viewBox="0 0 32 19" fill="none" xmlns="http://www.w3.org/2000/svg">
<path d="M6.59673 4C5.99956 3.02848 6.59948 3.02848 6.59948 3.02848C7.93249 2.85756 9.24863 2.57408 10.5338 2.18109C12.1529 1.65147 13.6056 0.728411 14.2412 1.07645C15.5955 1.83305 16.1629 5.44204 16.1629 5.44204C19.4315 8.11285 27.2925 10.3902 28.6166 10.5037C29.9407 10.6172 31.2874 13.0383 30.9469 14.2413C30.7502 14.9601 29.0857 15.3914 27.0202 15.7545" stroke="#999999" stroke-miterlimit="10"/>
<path d="M16.8906 8.71963C16.8906 8.71963 17.7683 7.43341 18.1617 6.82812" stroke="#999999" stroke-miterlimit="10" stroke-linecap="round"/>
<path d="M18.6016 9.64031C18.6016 9.64031 19.3582 8.42975 19.7516 7.83203" stroke="#999999" stroke-miterlimit="10" stroke-linecap="round"/>
<path d="M20.4844 10.5478C20.4844 10.5478 21.241 9.35993 21.5739 8.77734" stroke="#999999" stroke-miterlimit="10" stroke-linecap="round"/>
<path d="M22.4844 11.2153C22.4844 11.2153 23.241 10.0198 23.5966 9.42969" stroke="#999999" stroke-miterlimit="10" stroke-linecap="round"/>
<path d="M26 13.5C26 13.5 28.5 13.5 30.8169 12.9062" stroke="#999999" stroke-miterlimit="10"/>
<path d="M11.8424 7.29584C11.8424 7.29584 11.275 3.64901 9.89798 2.89241C9.25486 2.54438 7.80975 3.475 6.18306 3.99705C4.91131 4.39902 3.60783 4.69262 2.28656 4.87471C2.28656 4.87471 -0.23293 17.0409 1.77963 17.631C3.29284 18.0699 11.1464 18.1758 15.3985 18.206C17.8317 18.1661 20.2601 17.9741 22.6694 17.631C24.7349 17.2603 26.3995 16.829 26.5962 16.1178C26.9367 14.9073 25.5899 12.4861 24.2659 12.3802C22.9418 12.2743 15.1185 9.95908 11.8424 7.29584Z" stroke="#999999" stroke-miterlimit="10"/>
<path d="M12.5703 10.5636C12.5703 10.5636 13.448 9.3001 13.849 8.67969" stroke="#999999" stroke-miterlimit="10" stroke-linecap="round"/>
<path d="M14.2812 11.4882C14.2812 11.4882 15.0757 10.2776 15.4313 9.6875" stroke="#999999" stroke-miterlimit="10" stroke-linecap="round"/>
<path d="M16.1641 12.3954C16.1641 12.3954 16.9207 11.2151 17.2611 10.625" stroke="#999999" stroke-miterlimit="10" stroke-linecap="round"/>
<path d="M18.1641 13.0749C18.1641 13.0749 18.9207 11.887 19.2763 11.2969" stroke="#999999" stroke-miterlimit="10" stroke-linecap="round"/>
<path d="M1 14.6875C1 14.6875 13.5445 17.2751 26.4975 14.7556" stroke="#999999" stroke-miterlimit="10"/>
</svg>
