<svg width="32" height="19" viewBox="0 0 32 19" fill="none" xmlns="http://www.w3.org/2000/svg">
<path d="M16.1643 5.44204C16.1643 5.44204 15.5968 1.83305 14.2425 1.07645C13.6069 0.728411 12.1543 1.65147 10.5351 2.18109C9.24995 2.57408 7.93381 2.85756 6.6008 3.02848C6.6008 3.02848 4.08888 15.1946 6.10144 15.7545C7.61465 16.2009 15.4682 16.3069 19.7203 16.3296C22.164 16.2982 24.603 16.1061 27.0215 15.7545C29.087 15.3914 30.7515 14.9601 30.9483 14.2413C31.2887 13.0383 29.942 10.6172 28.6179 10.5037C27.2939 10.3902 19.4328 8.11285 16.1643 5.44204Z" stroke="#999999" stroke-miterlimit="10"/>
<path d="M16.8906 8.71768C16.8906 8.71768 17.7683 7.43145 18.1617 6.82617" stroke="#999999" stroke-miterlimit="10" stroke-linecap="round"/>
<path d="M18.5977 9.64031C18.5977 9.64031 19.3543 8.42975 19.7477 7.83203" stroke="#999999" stroke-miterlimit="10" stroke-linecap="round"/>
<path d="M20.4844 10.5497C20.4844 10.5497 21.241 9.36188 21.5739 8.7793" stroke="#999999" stroke-miterlimit="10" stroke-linecap="round"/>
<path d="M22.4805 11.2153C22.4805 11.2153 23.2371 10.0198 23.5927 9.42969" stroke="#999999" stroke-miterlimit="10" stroke-linecap="round"/>
<path d="M5.32031 12.8418C5.32031 12.8418 17.8648 15.4294 30.8178 12.9099" stroke="#999999" stroke-miterlimit="10"/>
<path d="M11.8424 7.29584C11.8424 7.29584 11.275 3.64901 9.89798 2.89241C9.25486 2.54438 7.80975 3.475 6.18306 3.99705C4.91131 4.39902 3.60783 4.69262 2.28656 4.87471C2.28656 4.87471 -0.23293 17.0409 1.77963 17.631C3.29284 18.0699 11.1464 18.1758 15.3985 18.206C17.8317 18.1661 20.2601 17.9741 22.6694 17.631C24.7349 17.2603 26.3995 16.829 26.5962 16.1178C26.9367 14.9073 25.5899 12.4861 24.2659 12.3802C22.9418 12.2743 15.1185 9.95908 11.8424 7.29584Z" fill="white" stroke="#999999" stroke-miterlimit="10"/>
<path d="M12.5703 10.5636C12.5703 10.5636 13.448 9.3001 13.849 8.67969" stroke="#999999" stroke-miterlimit="10" stroke-linecap="round"/>
<path d="M14.2773 11.4882C14.2773 11.4882 15.0718 10.2776 15.4274 9.6875" stroke="#999999" stroke-miterlimit="10" stroke-linecap="round"/>
<path d="M16.1641 12.3954C16.1641 12.3954 16.9207 11.2151 17.2611 10.625" stroke="#999999" stroke-miterlimit="10" stroke-linecap="round"/>
<path d="M18.1602 13.0768C18.1602 13.0768 18.9168 11.889 19.2724 11.2988" stroke="#999999" stroke-miterlimit="10" stroke-linecap="round"/>
<path d="M1 14.6875C1 14.6875 13.5445 17.2751 26.4975 14.7556" stroke="#999999" stroke-miterlimit="10"/>
</svg>
