<svg width="20" height="20" viewBox="0 0 20 20" fill="none" xmlns="http://www.w3.org/2000/svg">
<path d="M9.707 0.293001C9.61426 0.200002 9.50406 0.126244 9.38273 0.0759616C9.2614 0.0256795 9.13134 -0.000135141 9 5.32017e-07H4C3.86867 -0.000135141 3.7386 0.0256795 3.61727 0.0759616C3.49594 0.126244 3.38574 0.200002 3.293 0.293001L0.293001 3.293C0.199958 3.38571 0.126171 3.4959 0.0758854 3.61724C0.0256001 3.73857 -0.000189449 3.86866 1.04767e-06 4V9C1.04767e-06 9.266 0.105001 9.52 0.293001 9.707L10.293 19.707C10.3857 19.8002 10.4958 19.8741 10.6171 19.9246C10.7385 19.9751 10.8686 20.001 11 20.001C11.1314 20.001 11.2615 19.9751 11.3829 19.9246C11.5042 19.8741 11.6143 19.8002 11.707 19.707L19.707 11.707C19.7999 11.6142 19.8737 11.504 19.924 11.3827C19.9743 11.2614 20.0002 11.1313 20.0002 11C20.0002 10.8687 19.9743 10.7386 19.924 10.6173C19.8737 10.496 19.7999 10.3858 19.707 10.293L9.707 0.293001ZM11 18.5L1.5 9V4L4 1.5H9L18.5 11L11 18.5Z" fill="#999999"/>
<path d="M6.35403 8.00103C7.26364 8.00103 8.00103 7.26364 8.00103 6.35403C8.00103 5.44442 7.26364 4.70703 6.35403 4.70703C5.44442 4.70703 4.70703 5.44442 4.70703 6.35403C4.70703 7.26364 5.44442 8.00103 6.35403 8.00103Z" fill="#999999"/>
</svg>
