<svg width="22" height="22" viewBox="0 0 22 22" fill="none" xmlns="http://www.w3.org/2000/svg">
<path d="M10.78 21.3713C4.8356 21.3713 0 16.5781 0 10.6857C0 4.79329 4.8356 0 10.78 0C16.7244 0 21.56 4.79329 21.56 10.6857C21.56 16.5781 16.7244 21.3713 10.78 21.3713ZM10.78 1.25611C5.5352 1.25611 1.2672 5.48677 1.2672 10.6857C1.2672 15.8846 5.5352 20.1131 10.78 20.1131C16.0248 20.1131 20.2906 15.8846 20.2906 10.6857C20.2906 5.48677 16.0248 1.25611 10.78 1.25611ZM16.8432 9.80029H4.7168C4.3472 9.80029 4.0436 9.49934 4.0436 9.13298C4.0436 8.76443 4.3472 8.46349 4.7168 8.46349H14.5398L12.9778 7.49305C12.6852 7.30987 12.5906 6.91734 12.7688 6.61639L12.8194 6.52916C12.9976 6.22822 13.3826 6.13227 13.6774 6.31545L17.2172 8.51583C17.4174 8.64013 17.5142 8.86257 17.5076 9.08718C17.5098 9.10463 17.5164 9.11771 17.5164 9.13516C17.5186 9.49934 17.215 9.80029 16.8432 9.80029ZM4.0502 12.6571C4.0502 12.6527 4.0524 12.6483 4.0524 12.644C4.0678 12.4368 4.1778 12.2602 4.3406 12.149C4.3494 12.1424 4.3582 12.1381 4.367 12.1315C4.4154 12.101 4.4616 12.077 4.5166 12.0595C4.5606 12.0443 4.6024 12.0377 4.6486 12.0334C4.6706 12.0312 4.6926 12.0203 4.7146 12.0203H16.8432C17.2128 12.0203 17.5164 12.3212 17.5164 12.692C17.5164 13.0627 17.2128 13.3636 16.8432 13.3636H7.0158L8.536 14.321C8.8264 14.5042 8.9188 14.9011 8.7428 15.202L8.6922 15.2892C8.5162 15.5902 8.1334 15.6883 7.8452 15.5051L4.3384 13.2938C4.147 13.1739 4.0524 12.9602 4.0524 12.7421C4.0502 12.7247 4.0414 12.7094 4.0414 12.6898C4.0436 12.6789 4.048 12.6702 4.0502 12.6571Z" fill="#999999"/>
</svg>
