<svg width="16" height="19" viewBox="0 0 16 19" fill="none" xmlns="http://www.w3.org/2000/svg">
<path d="M12.1403 4.58185C12.1403 2.06997 10.0935 0 7.55841 0C5.02332 0 2.97656 2.04676 2.97656 4.58185C2.97656 7.11694 5.02332 9.16369 7.55841 9.16369C10.0935 9.16369 12.1403 7.11694 12.1403 4.58185ZM4.13947 4.58185C4.13947 2.69798 5.67455 1.16291 7.55841 1.16291C9.44228 1.16291 10.9774 2.69798 10.9774 4.58185C10.9774 6.46571 9.44228 8.00079 7.55841 8.00079C5.67455 8.00079 4.13947 6.46571 4.13947 4.58185Z" fill="#999999"/>
<path d="M0 17.6061C0 17.9317 0.255847 18.1875 0.581453 18.1875C0.907058 18.1875 1.16291 17.9317 1.16291 17.6061C1.16291 13.6988 3.90728 10.7449 7.55888 10.7449C11.2105 10.7449 13.9549 13.6988 13.9549 17.6061C13.9549 17.9317 14.2107 18.1875 14.5363 18.1875C14.8619 18.1875 15.1178 17.9317 15.1178 17.6061C15.1178 13.1173 11.7919 9.58203 7.55888 9.58203C3.32583 9.58203 0 13.094 0 17.6061Z" fill="#999999"/>
</svg>
