<svg width="19" height="23" viewBox="0 0 19 23" fill="none" xmlns="http://www.w3.org/2000/svg">
<path d="M14.686 6.0422C14.686 3.00384 12.2102 0.5 9.14376 0.5C6.07732 0.5 3.60156 2.97575 3.60156 6.0422C3.60156 9.10865 6.07732 11.5844 9.14376 11.5844C12.2102 11.5844 14.686 9.10865 14.686 6.0422ZM5.00821 6.0422C5.00821 3.76348 6.86504 1.90665 9.14376 1.90665C11.4225 1.90665 13.2793 3.76348 13.2793 6.0422C13.2793 8.32092 11.4225 10.1777 9.14376 10.1777C6.86504 10.1777 5.00821 8.32092 5.00821 6.0422Z" fill="#171717"/>
<path d="M0 21.7957C0 22.1896 0.309473 22.4991 0.703325 22.4991C1.09718 22.4991 1.40665 22.1896 1.40665 21.7957C1.40665 17.0695 4.72624 13.4965 9.14322 13.4965C13.5602 13.4965 16.8798 17.0694 16.8798 21.7957C16.8798 22.1896 17.1893 22.4991 17.5831 22.4991C17.977 22.4991 18.2864 22.1896 18.2864 21.7957C18.2864 16.3661 14.2635 12.0898 9.14322 12.0898C4.02292 12.0898 0 16.3379 0 21.7957Z" fill="#171717"/>
</svg>
