<svg width="23" height="22" viewBox="0 0 23 22" fill="none" xmlns="http://www.w3.org/2000/svg">
<path d="M1 21C5.11724 18.5 7.17647 16 7.17647 13.5C7.17647 9.75 5.94118 9.75 4.70588 9.75C3.47059 9.75 2.19576 11.1063 2.23529 13.5C2.27729 16.06 4.28341 17.0962 5.32353 18.5C7.17647 21 8.41176 21.625 9.64706 19.75C10.471 18.5 11.0886 17.4587 11.5 16.625C12.7353 19.5412 14.3819 21 16.4412 21H19.5294M17.0588 6H22M22 18.5V3.5C22 2.09875 20.9142 1 19.5294 1C18.1446 1 17.0588 2.09875 17.0588 3.5V18.5L19.5294 21L22 18.5Z" stroke="#999999" stroke-width="1.25" stroke-linecap="round" stroke-linejoin="round"/>
</svg>
