<svg width="24" height="24" viewBox="0 0 24 24" fill="none" xmlns="http://www.w3.org/2000/svg">
<path d="M8.01 18.3871L7.76566 18.6917L8.00192 19.0025C8.31655 19.4165 8.5 19.9305 8.5 20.5C8.5 21.8839 7.38386 23 6 23C4.61614 23 3.5 21.8839 3.5 20.5C3.5 19.1161 4.61614 18 6 18C6.36968 18 6.7101 18.0752 7.02582 18.2164L7.3796 18.3747L7.62108 18.0715L9.03108 16.3015L9.29381 15.9717L9.01307 15.6571C8.61932 15.2158 8.3282 14.6928 8.16066 14.1256C7.99312 13.5584 7.9533 12.9612 8.04408 12.3767L8.10883 11.9599L7.70882 11.8259L5.67882 11.1459L5.30937 11.0221L5.09908 11.3501C4.80768 11.8047 4.3768 12.1525 3.87105 12.3415C3.36529 12.5305 2.8119 12.5504 2.29384 12.3984C1.77578 12.2464 1.32095 11.9305 0.99754 11.4982C0.674129 11.0658 0.49956 10.5403 0.500001 10.0004V10C0.500001 8.61614 1.61614 7.5 3 7.5C4.38386 7.5 5.5 8.61614 5.5 10C5.5 10.0757 5.49918 10.1102 5.49503 10.1393L5.4361 10.5518L5.83119 10.6841L7.86119 11.3641L8.26368 11.4989L8.46205 11.1237C8.74776 10.5831 9.15451 10.1159 9.65056 9.75853C10.1466 9.40113 10.7185 9.16319 11.3217 9.06328L11.74 8.99399V8.57V6.41V6.02591L11.3689 5.9269C10.8337 5.78411 10.3605 5.46884 10.0227 5.02991C9.68491 4.59112 9.50121 4.05322 9.5 3.49949C9.50028 2.11587 10.6163 1 12 1C13.3839 1 14.5 2.11614 14.5 3.5C14.5 4.66451 13.7013 5.64221 12.6226 5.92651L12.25 6.02471V6.41V8.57V8.99456L12.6689 9.06339C13.9108 9.26741 14.9593 10.0485 15.528 11.1238L15.7264 11.4989L16.1288 11.3641L18.1588 10.6841L18.5 10.5698V10.21V10C18.5 8.61614 19.6161 7.5 21 7.5C22.3839 7.5 23.5 8.61614 23.5 10C23.5 11.3839 22.3839 12.5 21 12.5C20.1193 12.5 19.3514 12.0441 18.8976 11.355L18.686 11.0337L18.3212 11.1559L16.2912 11.8359L15.8906 11.9701L15.956 12.3875C16.0477 12.9717 16.0083 13.5689 15.8408 14.136C15.6733 14.7031 15.3818 15.2259 14.9874 15.6666L14.7058 15.9812L14.9689 16.3115L16.3789 18.0815L16.6259 18.3915L16.984 18.2219C17.294 18.075 17.6305 18 18 18C19.3839 18 20.5 19.1161 20.5 20.5C20.5 21.8839 19.3839 23 18 23C16.6161 23 15.5 21.8839 15.5 20.5C15.5 19.9305 15.6834 19.4165 15.9981 19.0025L16.2335 18.6928L15.9911 18.3885L14.5811 16.6185L14.3173 16.2873L13.9472 16.4929C12.7466 17.1599 11.2708 17.168 10.0639 16.4935L9.69468 16.2872L9.43 16.6171L8.01 18.3871Z" stroke="#999999"/>
</svg>
