<svg width="131" height="131" viewBox="0 0 131 131" fill="none" xmlns="http://www.w3.org/2000/svg">
<path d="M78.65 54.2875V54.3875H78.75H85.3H85.4V54.2875C85.4 49.6041 83.124 46.1942 79.929 43.8363C76.762 41.4991 72.6901 40.1935 69.025 39.6951V33V32.9H68.925H62.375H62.275V33V39.6951C58.6099 40.1935 54.538 41.4991 51.371 43.8363C48.176 46.1942 45.9 49.6041 45.9 54.2875C45.9 58.7563 48.103 62.151 51.2605 64.5552C54.392 66.9396 58.4652 68.3527 62.275 68.8829V84.9533C59.9498 84.5369 57.5586 83.7089 55.7414 82.4421C53.8946 81.1548 52.65 79.4224 52.65 77.2125V77.1125H52.55H46H45.9V77.2125C45.9 81.4872 47.9033 84.8867 50.9624 87.3447C53.9985 89.7842 58.0752 91.2978 62.275 91.8287V98.5V98.6H62.375H68.925H69.025V98.5V91.8082C72.6901 91.3098 76.762 90.0033 79.929 87.6653C83.124 85.3067 85.4 81.8959 85.4 77.2125C85.4 72.5291 83.124 69.1192 79.929 66.7613C76.762 64.4241 72.6901 63.1185 69.025 62.6201V46.5474C71.1656 46.9438 73.5535 47.7056 75.4156 48.9425C77.3104 50.2011 78.65 51.9432 78.65 54.2875ZM52.65 54.2875C52.65 51.9432 53.9896 50.2011 55.8844 48.9425C57.7465 47.7056 60.1344 46.9438 62.275 46.5474V62.0237C60.0709 61.6043 57.6817 60.7941 55.835 59.5381C53.9559 58.2603 52.65 56.5302 52.65 54.2875ZM78.65 77.2125C78.65 79.5568 77.3104 81.2989 75.4156 82.5575C73.5535 83.7944 71.1656 84.5562 69.025 84.9526V69.4724C71.1656 69.8688 73.5535 70.6306 75.4156 71.8675C77.3104 73.1261 78.65 74.8682 78.65 77.2125Z" fill="#7C7C7C" stroke="#7C7C7C" stroke-width="0.2"/>
<circle cx="65.5" cy="65.5" r="62.5" stroke="#7C7C7C" stroke-width="6"/>
</svg>
