<svg width="109" height="90" viewBox="0 0 109 90" fill="none" xmlns="http://www.w3.org/2000/svg">
<path d="M6.97288 66.612C8.63243 48.729 11.3127 39.7169 20.2594 26.7905V1.5H91.9968V26.7905C93.6628 29.6046 95.0961 32.1963 96.3302 34.6438C101.601 44.2223 103.501 53.0218 104.809 67.8138C108.246 78.1281 108.416 83.1292 98.4969 87.5H10.5002C1.67807 79.8595 -0.507284 75.0066 6.97288 66.612Z" fill="#41595F"/>
<path d="M6.86403 67.8138C8.51675 49.1264 11.1145 40.0032 20.2594 26.7905V1.5H91.9968V26.7905C101.352 42.5926 103.367 51.3823 103.997 67M91.414 26.7905C100.559 40.0032 103.157 49.1264 104.809 67.8138C108.246 78.1281 108.416 83.1292 98.4969 87.5H10.5002C1.29569 79.5283 -0.684257 74.5912 8.00025 65.5" stroke="#41595F" stroke-width="3"/>
<rect x="3" y="63.9531" width="104" height="23.6279" rx="11.814" stroke="#FAFAFA" stroke-width="4"/>
<rect x="27.2812" y="7.85938" width="58.7907" height="13.5814" rx="6.7907" fill="#FAFAFA" stroke="#41595F" stroke-width="4"/>
<mask id="path-5-inside-1_19825_395482" fill="white">
<rect x="18.5859" width="75.3488" height="29.3023" rx="2"/>
</mask>
<rect x="18.5859" width="75.3488" height="29.3023" rx="2" stroke="#41595F" stroke-width="8" mask="url(#path-5-inside-1_19825_395482)"/>
<rect x="26.9531" y="36" width="13.3953" height="7.53488" rx="3" fill="#FAFAFA"/>
<rect x="44.5391" y="36" width="13.3953" height="7.53488" rx="3" fill="#FAFAFA"/>
<rect x="63.7969" y="36" width="13.3953" height="7.53488" rx="3" fill="#FAFAFA"/>
<rect x="26.9531" y="50.2344" width="13.3953" height="7.53488" rx="3" fill="#FAFAFA"/>
<rect x="44.5391" y="50.2344" width="13.3953" height="7.53488" rx="3" fill="#FAFAFA"/>
<rect x="63.7969" y="50.2344" width="13.3953" height="7.53488" rx="3" fill="#FAFAFA"/>
<rect x="82.2109" y="35.1641" width="7.53488" height="24.2791" rx="3.76744" fill="#FAFAFA"/>
<circle cx="54.994" cy="75.7674" r="3.76744" fill="#FAFAFA"/>
</svg>
