<svg width="166" height="99" viewBox="0 0 166 99" fill="none" xmlns="http://www.w3.org/2000/svg">
<path d="M73 24.2745L118.5 3L132.5 10L143.373 15.1569L164 24.2745V75.9412L118.5 96L73 75.9412V24.2745Z" fill="#41595F"/>
<path d="M73 24.2745L118.5 3L132.5 10M73 24.2745V75.9412L118.5 96M73 24.2745L88.1667 31.366M164 24.2745L118.5 45.549M164 24.2745V75.9412L118.5 96M164 24.2745L143.373 15.1569M118.5 45.549V96M118.5 45.549L97.8733 35.9046M88.1667 31.366V52.2353L97.8733 56.4902V35.9046M88.1667 31.366L97.8733 35.9046M88.1667 31.366L132.5 10M97.8733 35.9046L143.373 15.1569M132.5 10L143.373 15.1569" stroke="white" stroke-width="4"/>
<rect x="9.21094" y="27" width="38.2649" height="7.08609" rx="3.54305" fill="#A3B5FF"/>
<rect x="9.21094" y="65.2656" width="38.2649" height="7.08609" rx="3.54305" fill="#A3B5FF"/>
<rect y="46.1328" width="40.3907" height="7.08609" rx="3.54305" fill="#A3B5FF"/>
</svg>
