<svg width="20" height="23" viewBox="0 0 20 23" fill="none" xmlns="http://www.w3.org/2000/svg">
<path d="M15.3534 5.79416C15.3534 2.61766 12.7651 0 9.55929 0C6.35344 0 3.76514 2.5883 3.76514 5.79416C3.76514 9.00001 6.35344 11.5883 9.55929 11.5883C12.7651 11.5883 15.3534 9.00001 15.3534 5.79416ZM5.23573 5.79416C5.23573 3.41184 7.17698 1.4706 9.55929 1.4706C11.9416 1.4706 13.8828 3.41184 13.8828 5.79416C13.8828 8.17647 11.9416 10.1177 9.55929 10.1177C7.17698 10.1177 5.23573 8.17647 5.23573 5.79416Z" fill="#ECECEC"/>
<path d="M0 22.2648C0 22.6766 0.323542 23.0001 0.735299 23.0001C1.14706 23.0001 1.4706 22.6766 1.4706 22.2648C1.4706 17.3237 4.9411 13.5883 9.55888 13.5883C14.1767 13.5883 17.6472 17.3236 17.6472 22.2648C17.6472 22.6766 17.9707 23.0001 18.3825 23.0001C18.7942 23.0001 19.1178 22.6766 19.1178 22.2648C19.1178 16.5883 14.912 12.1177 9.55888 12.1177C4.2058 12.1177 0 16.5588 0 22.2648Z" fill="#ECECEC"/>
</svg>
