<svg width="100" height="92" viewBox="0 0 100 92" fill="none" xmlns="http://www.w3.org/2000/svg">
<rect x="1" y="1" width="98" height="90" rx="7" stroke="#313131" stroke-width="2"/>
<path d="M25 26C23.3466 26 22 27.3454 22 29C22 30.6546 23.3465 32 25 32C26.6534 32 28 30.6546 28 29C28 27.346 26.6535 26 25 26ZM24.7997 29C24.7997 28.8895 24.8895 28.8002 24.9994 28.8002C25.1099 28.8002 25.1992 28.8901 25.1992 29C25.1998 29.2204 24.7997 29.2204 24.7997 29H24.7997Z" fill="#313131"/>
<path d="M25 43C23.3466 43 22 44.3454 22 46C22 47.6546 23.3465 49 25 49C26.6534 49 28 47.6546 28 46C28 44.346 26.6535 43 25 43ZM24.7997 46C24.7997 45.8895 24.8895 45.8002 24.9994 45.8002C25.1099 45.8002 25.1992 45.8901 25.1992 46C25.1998 46.2204 24.7997 46.2204 24.7997 46H24.7997Z" fill="#313131"/>
<path d="M25 60C23.3466 60 22 61.3454 22 63C22 64.6546 23.3465 66 25 66C26.6534 66 28 64.6546 28 63C28 61.346 26.6535 60 25 60ZM24.7997 63C24.7997 62.8895 24.8895 62.8002 24.9994 62.8002C25.1099 62.8002 25.1992 62.8901 25.1992 63C25.1998 63.2204 24.7997 63.2204 24.7997 63H24.7997Z" fill="#313131"/>
<rect x="31" y="28" width="44" height="2" rx="1" fill="#313131"/>
<rect x="31" y="45" width="44" height="2" rx="1" fill="#313131"/>
<rect x="31" y="62" width="44" height="2" rx="1" fill="#313131"/>
</svg>
