<svg width="189" height="101" viewBox="0 0 189 101" fill="none" xmlns="http://www.w3.org/2000/svg">
<path d="M74.6806 42.6483L74.6911 42.6512L74.7019 42.653L75.6399 42.8167L75.6427 42.8172L91.7475 46.0319L91.8141 46.0457C94.3019 46.5611 95.7438 47.8276 96.5291 49.2021C97.3199 50.5864 97.4528 52.095 97.2904 53.0895L97.2888 53.0996L97.288 53.1097C97.0637 55.8876 95.0081 58.2592 92.2551 60.1457C89.5112 62.026 86.1256 63.3879 83.3486 64.1595C77.579 65.5867 66.8346 66.6837 54.5711 66.8949C42.3092 67.1061 28.551 66.4314 16.762 64.3243L16.761 64.3241C14.9719 64.0116 13.5662 62.7962 12.9711 61.0193C12.3753 59.2402 12.586 56.8724 14.0978 54.2682L14.1296 54.2135L14.1315 54.1502C14.1799 52.5335 14.7487 48.4665 15.3706 44.2298C15.499 43.355 15.6296 42.4737 15.7581 41.6063C16.2496 38.2882 16.7107 35.1749 16.9043 33.4218C17.0772 32.2037 18.3808 31.2308 19.6978 31.5035L19.6978 31.5036L19.7069 31.5052C21.6632 31.8355 22.8218 32.3988 23.6172 33.0866C24.3909 33.7556 24.8406 34.5568 25.3458 35.4566C25.3635 35.4882 25.3814 35.52 25.3993 35.5519L25.401 35.5549C25.4436 35.6284 25.4872 35.7048 25.5321 35.7834C25.8792 36.3915 26.3029 37.1337 26.9457 37.7042C27.6885 38.3635 28.7123 38.7877 30.2191 38.6049C30.359 38.5892 30.5062 38.575 30.6627 38.5599C31.5073 38.4785 32.6221 38.3712 34.3266 37.845C36.3435 37.2224 39.1834 36.0155 43.414 33.5784L43.4358 33.5658L43.4547 33.5492C43.4577 33.5466 43.4609 33.5438 43.4642 33.5408C43.5119 33.499 43.596 33.4252 43.6468 33.3376C43.6778 33.2842 43.707 33.2091 43.7014 33.1187C43.6971 33.05 43.6738 32.9896 43.6405 32.9384L43.128 31.2605C42.7646 29.8857 43.0754 28.5289 43.7498 27.534C44.4273 26.5344 45.4498 25.927 46.4968 25.9924L46.4968 25.9927L46.5087 25.9929C47.5207 26.0077 48.478 26.5982 49.3547 27.4812C50.2279 28.3606 50.9887 29.4977 51.6073 30.5351L51.6193 30.555L51.6346 30.5725L52.4241 31.4671L52.4378 31.4826L52.4539 31.4957C53.1543 32.0648 53.7651 32.5302 54.5829 33.0076C54.6689 33.0871 54.7753 33.1294 54.8345 33.153C54.839 33.1548 54.8433 33.1565 54.8473 33.1581C54.8884 33.1747 54.9144 33.1855 54.9359 33.1969C54.9515 33.2052 54.9572 33.21 54.9579 33.2107L55.1592 33.4387L55.3438 33.1959L55.8041 32.5906L55.8179 32.5723L55.8283 32.5519C55.9657 32.2795 56.2449 32.1013 56.5737 32.0434C56.904 31.9851 57.2484 32.0556 57.4868 32.2369L57.5051 32.2508L57.5255 32.2611C57.798 32.3986 57.9761 32.6777 58.0341 33.0065C58.0923 33.3368 58.0218 33.6812 57.8405 33.9197L57.8403 33.9195L57.8335 33.9293L57.4848 34.4362L57.3261 34.6669L57.5734 34.7985C58.1329 35.0963 58.7174 35.4221 59.3044 35.7493L59.3063 35.7503C59.8931 36.0773 60.4825 36.4058 61.0475 36.7064L61.2601 36.8195L61.3811 36.6113L61.8549 35.7955L61.8585 35.7892L61.8619 35.7826C61.9993 35.5102 62.2785 35.332 62.6073 35.2741C62.9376 35.2158 63.282 35.2863 63.5204 35.4676L63.5387 35.4815L63.5591 35.4918C63.8315 35.6293 64.0097 35.9084 64.0676 36.2372C64.1259 36.5676 64.0554 36.9119 63.8741 37.1504L63.8647 37.1628L63.8568 37.1762L63.6201 37.5843L63.482 37.8223L63.7322 37.937C64.2102 38.1561 64.6663 38.376 65.1127 38.5914C65.8957 38.9691 66.6493 39.3326 67.4404 39.6521L67.6116 39.7213L67.728 39.578L68.3003 38.8738L68.3173 38.8529L68.3294 38.8288C68.4669 38.5564 68.7461 38.3782 69.0748 38.3203C69.4052 38.262 69.7496 38.3325 69.988 38.5138L70.0062 38.5277L70.0267 38.538C70.2991 38.6755 70.4773 38.9546 70.5352 39.2834C70.5919 39.6052 70.5265 39.9403 70.3555 40.1779L70.1517 40.3577L69.8574 40.6174L70.2172 40.7743C70.5739 40.9299 70.9155 41.0793 71.24 41.2213C71.9435 41.5291 72.5662 41.8015 73.0864 42.0241C73.8387 42.3459 74.3992 42.5735 74.6806 42.6483ZM19.8252 33.9753L19.3523 33.8774L19.5164 34.2538C19.4057 34.9488 19.2938 35.65 19.1815 36.3528C18.0652 43.3437 16.9231 50.4961 16.7437 53.3708L16.7291 53.6043L16.9611 53.6343C18.0261 53.7723 19.1488 53.9249 20.3378 54.0864C31.4379 55.5942 48.3153 57.8868 78.0129 56.4937C79.0957 56.4529 82.1239 56.0294 85.4622 55.2988C88.7998 54.5685 92.4876 53.5229 94.8728 52.2249L95.0076 52.1516L95.0032 51.9982C94.9856 51.3786 94.8108 50.5758 94.2869 49.8609C93.7591 49.1407 92.8918 48.5304 91.53 48.2798C91.5294 48.2797 91.5289 48.2796 91.5284 48.2795L74.2663 44.8857C74.2302 44.8601 74.1919 44.8415 74.1523 44.829C74.0924 44.8101 74.0354 44.8078 74.0138 44.8065C74.0132 44.8065 74.0126 44.8064 74.012 44.8064L73.9628 44.7506L73.8668 44.7445C73.8641 44.7439 73.8574 44.7425 73.8457 44.7393C73.8237 44.7335 73.7931 44.7244 73.7529 44.7113C73.6727 44.6852 73.5634 44.6465 73.4259 44.5954C73.1516 44.4934 72.7737 44.3451 72.3107 44.158C71.3852 43.7839 70.1253 43.2568 68.6853 42.6388L68.495 42.5571L68.3794 42.7289L66.3993 45.6699L66.3906 45.6829L66.3835 45.6969C66.246 45.9693 65.9669 46.1475 65.6381 46.2054C65.3078 46.2636 64.9634 46.1931 64.725 46.0118L64.7067 45.998L64.6863 45.9877C64.4138 45.8502 64.2357 45.571 64.1777 45.2423C64.1195 44.9119 64.19 44.5675 64.3713 44.3291L64.3768 44.3218L64.3818 44.3142L65.9015 41.98L66.067 41.7257L65.7857 41.6118C65.0101 41.298 64.2866 40.949 63.5189 40.5787C63.0672 40.3608 62.6003 40.1355 62.0984 39.9057L61.9096 39.8193L61.79 39.989L59.9347 42.6207L59.9241 42.6357L59.9158 42.6521C59.7784 42.9245 59.4992 43.1027 59.1704 43.1606C58.8401 43.2189 58.4957 43.1484 58.2573 42.9671L58.239 42.9532L58.2186 42.9429C57.9462 42.8054 57.768 42.5263 57.71 42.1975C57.6518 41.8671 57.7223 41.5228 57.9036 41.2843L57.9051 41.2824L59.6353 38.9595L59.8091 38.7262L59.5522 38.5895C58.9927 38.2917 58.4083 37.966 57.8213 37.6388L57.8193 37.6377C57.2325 37.3107 56.6432 36.9822 56.0781 36.6816L55.8834 36.578L55.7564 36.7583L53.9011 39.39L53.8905 39.405L53.8823 39.4214C53.7448 39.6938 53.4656 39.872 53.1369 39.9299C52.8065 39.9881 52.4621 39.9177 52.2237 39.7364L52.2055 39.7225L52.185 39.7122C51.9126 39.5747 51.7344 39.2956 51.6765 38.9668C51.6182 38.6364 51.6887 38.2921 51.87 38.0536L51.8702 38.0538L51.877 38.044L53.6203 35.5112L53.8711 35.1467L53.4295 35.1199C53.4016 35.1182 53.3798 35.1168 53.362 35.1156C53.3457 35.1144 53.3328 35.1134 53.3219 35.1122C53.3154 35.105 53.3062 35.0947 53.2925 35.0793L53.2788 35.0637L53.2627 35.0507C52.903 34.7583 52.5162 34.4921 52.139 34.2326L52.1348 34.2296C51.7533 33.9671 51.3817 33.7112 51.0387 33.4324L51.0388 33.4323L51.0324 33.4274C50.4544 32.988 49.9835 32.4548 49.6189 31.827C48.9953 30.6639 48.3725 29.8408 47.8447 29.3013C47.5808 29.0315 47.3378 28.8296 47.1274 28.6915C46.9257 28.5592 46.726 28.4668 46.5541 28.4561C46.3627 28.4442 46.1918 28.5291 46.0598 28.6456C45.9267 28.763 45.8166 28.9256 45.736 29.1122C45.5742 29.4866 45.5166 29.9899 45.6589 30.5263L45.6588 30.5264L45.6615 30.5353L46.1879 32.2587L46.1886 32.2607C46.5922 33.5442 46.0223 34.9706 44.8041 35.6789C42.9981 36.6758 40.4928 38.0445 37.9018 39.1439C35.3016 40.2471 32.6508 41.0632 30.5482 40.9834L30.5297 40.9827L30.5113 40.9847C28.14 41.2461 26.5685 40.4838 25.4927 39.5071C24.5583 38.6589 23.994 37.6485 23.605 36.9519C23.5406 36.8367 23.481 36.73 23.4254 36.6341L23.4254 36.6341L23.4231 36.6303C23.4118 36.6116 23.4006 36.5929 23.3894 36.5744C22.9802 35.8966 22.6521 35.3532 22.1506 34.933C21.6283 34.4954 20.9391 34.206 19.8252 33.9753ZM82.703 61.7427L82.9482 61.6806L82.9467 61.6752C84.103 61.3481 85.8574 60.7214 87.6579 59.8792C89.5855 58.9776 91.588 57.8189 92.9657 56.5013L92.7077 56.0856C90.2381 56.9811 87.1403 57.7352 84.3651 58.2737C81.5869 58.8129 79.1524 59.1322 78.0089 59.1645L78.0054 59.1646C47.7544 60.4426 30.3042 58.0032 19.9871 56.5609C18.6043 56.3676 17.3497 56.1922 16.2095 56.0461L16.0296 56.023L15.9519 56.1869C15.4523 57.24 15.1194 58.5599 15.2165 59.6795C15.2652 60.2412 15.4238 60.7699 15.7423 61.1867C16.0648 61.6087 16.5368 61.8967 17.1707 61.9949C29.3715 64.0796 42.98 64.7172 54.92 64.4842C66.8563 64.2514 77.1457 63.1482 82.703 61.7427Z" fill="#313131" stroke="white" stroke-width="0.5"/>
<path d="M27.0382 47.9211L27.0458 47.9221L27.0535 47.9225C27.7129 47.9637 28.1362 48.5682 28.0892 49.3219C28.0482 49.9791 27.4475 50.4019 26.6972 50.3581L21.5774 49.7225C21.2795 49.6582 20.9772 49.4619 20.7658 49.1981C20.5519 48.931 20.455 48.6267 20.5112 48.3556L20.5148 48.3382L20.5159 48.3205C20.5569 47.6632 21.1576 47.2405 21.9079 47.2843L27.0382 47.9211Z" fill="#313131" stroke="white" stroke-width="0.5"/>
<path d="M139.415 2.56432L139.447 2.86506C140.098 8.9654 144.46 12.6299 148.993 12.6821H149.014C153.543 12.6306 157.903 8.96677 158.561 2.87008L158.594 2.56975L158.883 2.65775L165.59 4.70016L139.415 2.56432ZM139.415 2.56432L139.125 2.65246M139.415 2.56432L139.125 2.65246M139.125 2.65246L132.417 4.69599L139.125 2.65246ZM186.343 20.8334L186.183 21.0206L177.799 30.8228L177.634 31.0154L177.444 30.848L171.979 26.0423L171.894 25.9677V25.8546V19.5558V19.5425L171.895 19.5425C171.913 19.1911 171.789 18.9473 171.608 18.7871C171.42 18.6214 171.154 18.5311 170.876 18.5311C170.599 18.5311 170.332 18.6214 170.144 18.7872C169.963 18.9473 169.839 19.1912 169.858 19.5426L169.858 19.5558H169.858V65.5808V65.8309L169.608 65.8308L128.396 65.8204L128.146 65.8204V65.5704V19.5558V19.5505H128.146C128.157 19.0174 127.699 18.5625 127.112 18.5743L127.109 18.5743C126.538 18.5781 126.096 19.027 126.107 19.5502L126.107 19.5558H126.107V25.8546V25.9677L126.022 26.0424L120.564 30.8388L120.374 31.006L120.209 30.8136L111.825 21.0177L111.664 20.8305L111.849 20.6675L123.544 10.3591L123.544 10.359C123.742 10.1847 123.935 10.0144 124.123 9.84813C126.864 7.4231 128.656 5.83834 132.417 4.69605L186.343 20.8334ZM186.343 20.8334L186.158 20.6705M186.343 20.8334L186.158 20.6705M186.158 20.6705L174.457 10.3588M186.158 20.6705L174.457 10.3588M148.966 1.28615C151.848 1.29076 154.371 1.06986 157.053 0.415087L157.086 0.406981L157.116 0.390262C157.283 0.296044 157.47 0.246587 157.656 0.250183C157.863 0.254921 158.061 0.31796 158.231 0.4328L158.263 0.453963L158.299 0.464934L166.208 2.8652C170.371 4.1288 172.574 6.06956 175.417 8.57328C175.56 8.6991 175.704 8.82635 175.851 8.955L188.424 20.0402C188.424 20.0402 188.424 20.0402 188.424 20.0402C188.817 20.3865 188.858 20.955 188.528 21.3474C188.528 21.3477 188.528 21.3479 188.528 21.3482L178.537 33.0229L178.537 33.0232C178.163 33.4615 177.479 33.5113 177.044 33.1274L177.043 33.1272L172.309 28.9611L171.894 28.5958L171.894 29.1488L171.894 66.788C171.894 67.3077 171.447 67.75 170.875 67.75L127.131 67.75L127.13 67.75C126.554 67.7538 126.104 67.3085 126.108 66.7852V66.7835V29.1516V28.5985L125.693 28.9639L120.964 33.126L120.963 33.1263C120.528 33.5107 119.841 33.4599 119.473 33.0232L119.471 33.0217L109.477 21.3454L109.476 21.3445C109.14 20.9553 109.183 20.3823 109.578 20.0346L109.578 20.0345L122.159 8.94841L122.16 8.94832C122.282 8.84004 122.404 8.73277 122.524 8.62653C125.394 6.09046 127.604 4.13776 131.8 2.86399L131.8 2.86397L139.871 0.411425L139.889 0.405737L139.907 0.397205C140.041 0.332333 140.196 0.296539 140.352 0.292743L140.354 0.292679C140.478 0.28867 140.606 0.31126 140.733 0.358703L140.747 0.363639L140.76 0.367055C143.518 1.05477 146.086 1.28614 148.966 1.28615ZM148.966 1.28615C148.966 1.28615 148.966 1.28615 148.967 1.28615V1.03615L148.966 1.28615C148.966 1.28615 148.966 1.28615 148.966 1.28615ZM174.457 10.3588C174.269 10.1927 174.086 10.0302 173.906 9.87145M174.457 10.3588L173.906 9.87145M173.906 9.87145C171.154 7.43334 169.362 5.84618 165.59 4.70021L173.906 9.87145ZM141.769 2.49478L141.434 2.4266L141.471 2.76667C142.043 8.05299 145.604 10.7097 148.999 10.7547V10.7548L149.005 10.7547C152.4 10.7097 155.96 8.05485 156.531 2.77704L156.568 2.43746L156.233 2.50506C153.837 2.98883 151.502 3.21553 149.013 3.19723L149.01 3.19725C146.515 3.21095 144.17 2.98307 141.769 2.49478Z" fill="black" stroke="white" stroke-width="0.5"/>
</svg>
