<svg width="100" height="93" viewBox="0 0 100 93" fill="none" xmlns="http://www.w3.org/2000/svg">
<path d="M9.99891 8.83362L9.99889 8.83363C4.69767 13.59 1.73778 20.0459 0.821622 27.0637L0.821617 27.0638C-0.982017 40.8716 4.89659 56.9181 16.0922 68.9489L16.22 69.0862L16.226 69.2736L16.79 87.0354L16.79 87.0355C16.8206 88.0058 17.6308 88.7669 18.601 88.737C19.5704 88.707 20.3316 87.897 20.3021 86.9269C20.3021 86.9266 20.3021 86.9263 20.3021 86.926L19.6673 68.3555L19.6671 68.3498C19.6574 67.9231 19.4924 67.514 19.2041 67.2004C8.33143 55.8478 2.65254 40.1571 4.30554 27.4992C5.13343 21.1599 7.73247 15.5926 12.3622 11.4382L12.3622 11.4382C16.9915 7.28449 23.6884 4.51406 33.0051 4.05171C42.7165 3.56888 51.4476 6.06999 57.3291 11.3688L56.9945 11.7403L57.3291 11.3688C63.2266 16.682 66.4694 24.7778 65.0678 36.2589L65.066 36.2735L65.0634 36.288C65.0428 36.4007 65.0336 36.5153 65.0356 36.6301C65.1878 38.4654 66.125 39.9751 67.2322 41.509C68.2011 42.8512 69.3283 44.1169 70.4082 45.3295C70.5502 45.4889 70.6913 45.6474 70.8312 45.805C72.019 47.1428 73.1237 48.4388 73.6675 49.329C73.6676 49.3292 73.6677 49.3294 73.6678 49.3295L73.2411 49.5901C73.3594 49.7833 73.3901 49.8855 73.4179 49.9783C73.4284 50.0132 73.4385 50.0468 73.4527 50.0834L9.99891 8.83362ZM9.99891 8.83362C15.3001 4.07669 22.91 1.03179 32.8425 0.53822M9.99891 8.83362L32.8425 0.53822M66.3538 68.3793L66.3538 68.3794C65.5432 71.0243 64.4225 73.4916 63.1711 75.1274M66.3538 68.3793L59.2786 80.9843L59.2767 80.9843C59.2635 80.9846 59.2639 80.9845 59.2658 80.9845L59.2658 80.9844L59.2528 80.9843C55.7036 80.9625 53.4449 80.4871 51.8299 79.9523L51.2963 79.7757L51.183 80.3261L50.2319 84.943L50.2283 84.9604L50.226 84.9779C50.1617 85.461 49.899 85.8962 49.5014 86.1776L49.501 86.1779C49.1029 86.4602 48.605 86.5643 48.1274 86.4651C47.6502 86.3651 47.2354 86.0716 46.9835 85.6546L46.9833 85.6543C46.731 85.2372 46.6632 84.7334 46.7971 84.2649L46.8025 84.246L46.8064 84.2268L48.321 76.7571C48.3211 76.7568 48.3212 76.7564 48.3213 76.7561C48.4569 76.1034 48.9506 75.5835 49.5961 75.4144C50.2425 75.2459 50.9283 75.458 51.366 75.9618L51.4009 76.0019L51.4434 76.0338C51.5708 76.1294 51.8749 76.3154 52.4076 76.523C53.4865 76.9433 55.6139 77.4576 59.3539 77.4735L59.3716 77.4736L59.3757 77.4733L59.3669 77.473L59.3582 77.4724C59.364 77.4728 59.3699 77.473 59.3757 77.4729C59.3802 77.4729 59.3847 77.4727 59.3892 77.4724L59.3761 77.4733C60.7166 77.5152 61.9291 76.7519 63.1711 75.1274M66.3538 68.3793C67.1658 65.7273 67.6786 62.8699 67.889 60.417M66.3538 68.3793L67.889 60.417M63.1711 75.1274L62.774 74.8236L63.1712 75.1272C63.1712 75.1273 63.1712 75.1273 63.1711 75.1274ZM66.3689 77.5722L65.9718 77.2683C67.629 75.1025 68.7987 72.3227 69.6966 69.391C70.592 66.4675 71.1703 63.4381 71.404 60.7195C71.5471 59.0532 71.5343 57.5765 71.4045 56.2288L71.3645 55.8138L71.7655 55.6999C73.3647 55.2454 75.312 54.3776 76.9337 52.2799L77.3293 52.5858L76.9337 52.2799C77.5109 51.5334 77.6788 50.4767 77.5413 49.6746C77.3997 48.8489 77.0679 48.1649 76.6554 47.489C75.8256 46.1301 74.6858 44.8457 73.4665 43.4731L73.4664 43.473C73.2588 43.2391 73.0483 43.0039 72.8374 42.7682C71.8306 41.643 70.8135 40.5065 70.0515 39.451C69.5882 38.8094 69.232 38.1974 68.9834 37.6727C68.7417 37.1627 68.5832 36.6968 68.5498 36.3542C68.5496 36.3521 68.5494 36.3501 68.5492 36.3483C68.549 36.3454 68.5488 36.3429 68.5486 36.3409C68.548 36.3336 68.5477 36.3273 68.5475 36.3229C68.5471 36.3143 68.547 36.3069 68.5469 36.3023C68.5468 36.293 68.5469 36.2844 68.547 36.2792L68.5472 36.2689L68.5472 36.2654L68.5472 36.241L68.5503 36.2133C69.9036 24.1168 66.3308 14.7468 59.6903 8.76283C53.3674 3.06625 44.484 0.391892 34.7978 0.503382L66.3689 77.5722ZM66.3689 77.5722L65.9718 77.2684C64.3291 79.4157 62.0282 81.041 59.3333 80.9844L66.3689 77.5722ZM32.8425 0.53822C33.3216 0.514752 33.8 0.511343 34.2861 0.507879M32.8425 0.53822L34.2861 0.507879M34.2861 0.507879C34.4555 0.506672 34.6259 0.505458 34.7975 0.503386L34.2861 0.507879ZM67.889 60.417C67.889 60.4171 67.889 60.4172 67.889 60.4172L67.3908 60.3743L67.889 60.417ZM93.078 51.4248L93.0794 51.4246C93.8043 51.3254 94.5147 51.6862 94.8626 52.3305L94.8661 52.3369L94.8698 52.3433C102.839 66.1156 98.1045 83.7781 84.3055 91.7281C83.4642 92.2074 82.3948 91.9174 81.9118 91.0794C81.4288 90.2413 81.7138 89.1706 82.5491 88.6835C94.7173 81.674 98.8469 66.2363 91.8231 54.0976L91.8233 54.0976L91.8162 54.086C91.5045 53.5795 91.4702 52.9501 91.7249 52.4132C91.9798 51.8759 92.4887 51.5038 93.078 51.4248ZM86.6964 54.7732L86.7004 54.7726C87.4254 54.6734 88.1354 55.0338 88.4832 55.678L88.4831 55.6781L88.4886 55.6877C94.1411 65.6237 90.7602 78.3706 80.9535 84.1185C80.1118 84.6049 79.0355 84.3202 78.5447 83.4814L78.5445 83.481C78.0533 82.6431 78.3319 81.5653 79.1681 81.0694C87.3328 76.2844 90.1343 65.7169 85.4105 57.4133L85.4106 57.4133L85.4067 57.4067C85.1073 56.8985 85.0828 56.2733 85.3424 55.7432C85.602 55.2129 86.1109 54.8485 86.6964 54.7732ZM80.1303 58.3695L80.1339 58.3691C80.8561 58.287 81.5538 58.6576 81.8891 59.3014L81.8891 59.3014L81.8933 59.3091C85.2567 65.4985 83.276 73.3565 77.3844 76.97L77.3772 76.9744L77.3702 76.979C76.9734 77.2411 76.4872 77.3311 76.0233 77.2283L76.0232 77.2282C75.5584 77.1254 75.1563 76.8389 74.907 76.4335C74.6577 76.028 74.5838 75.5396 74.7019 75.0796L74.702 75.0788C74.8195 74.6181 75.1194 74.225 75.5322 73.9892L75.539 73.9853L75.5457 73.9812C79.7732 71.3879 81.2672 65.5399 78.7901 60.9815L78.7867 60.9756C78.4975 60.4602 78.486 59.8351 78.7565 59.3106L78.3122 59.0814L78.7565 59.3106C79.0273 58.7857 79.5434 58.4319 80.1303 58.3695ZM68.5473 36.2627V36.2628V36.2627Z" fill="#313131" stroke="white"/>
</svg>
