<svg width="84" height="84" viewBox="0 0 84 84" fill="none" xmlns="http://www.w3.org/2000/svg">
<path d="M22.4566 35.4V43.932L15.5086 35.4H13.5826V48H15.9046V39.468L22.8526 48H24.7786V35.4H22.4566ZM37.3529 37.362V35.4H28.1549V48H30.4949V43.176H36.5789V41.196H30.4949V37.362H37.3529ZM45.3072 48.18C47.3772 48.18 49.1412 47.442 50.3112 46.074L48.7992 44.634C47.8812 45.642 46.7472 46.128 45.4332 46.128C42.8232 46.128 40.9332 44.292 40.9332 41.7C40.9332 39.108 42.8232 37.272 45.4332 37.272C46.7472 37.272 47.8812 37.758 48.7992 38.748L50.3112 37.326C49.1412 35.958 47.3772 35.22 45.3252 35.22C41.4552 35.22 38.5752 37.938 38.5752 41.7C38.5752 45.462 41.4552 48.18 45.3072 48.18Z" fill="#41595F"/>
<circle cx="42" cy="42" r="40.5" stroke="#41595F" stroke-width="3"/>
<path d="M62.7522 27.7365C62.258 27.9076 61.8839 28.3072 61.757 28.7975C61.6302 29.2879 61.7682 29.8031 62.1239 30.1666C68.3369 36.8766 67.6531 47.1959 60.5769 53.2899C59.9409 53.8429 59.8797 54.781 60.4403 55.3885C61.0009 55.9962 61.9722 56.0442 62.6138 55.4964C70.9414 48.3239 71.7604 36.0681 64.4443 28.1669C64.0337 27.6958 63.3596 27.5244 62.7522 27.7365ZM58.9246 30.7848C58.4334 30.9522 58.0579 31.3451 57.9257 31.8308C57.7935 32.3165 57.9223 32.8298 58.2678 33.197C62.4278 37.7577 61.978 44.7546 57.287 48.8549C56.6523 49.4144 56.5975 50.3564 57.1648 50.9621C57.7318 51.5684 58.7074 51.6108 59.3476 51.057C65.2928 45.8601 65.8609 36.9647 60.6164 31.2151C60.2058 30.7439 59.532 30.5727 58.9246 30.7848ZM55.012 34.0171C54.517 34.1741 54.1334 34.5597 53.9907 35.0428C53.8481 35.5259 53.9658 36.0416 54.3035 36.4162C56.4655 38.8829 56.2488 42.6612 53.9026 44.7954C53.5877 45.0646 53.397 45.4439 53.3753 45.8468C53.3528 46.2494 53.5009 46.6407 53.7854 46.9318C54.0699 47.2228 54.4658 47.388 54.8839 47.3899C55.3014 47.3918 55.7046 47.2301 56.0012 46.942C59.6055 43.6639 59.8816 38.1222 56.6847 34.4747C56.2847 34.0013 55.6197 33.8197 55.012 34.0171Z" fill="#41595F"/>
</svg>
