<svg width="81" height="145" viewBox="0 0 81 145" fill="none" xmlns="http://www.w3.org/2000/svg">
<rect width="80.3387" height="144.677" rx="12" fill="#41595F"/>
<rect x="6.31836" y="8.73438" width="67.9789" height="127.937" fill="white"/>
<line x1="20.957" y1="74.5977" x2="60.2532" y2="74.5977" stroke="#41595F"/>
<path d="M25.959 8.37109H55.6225V9.1538C55.6225 11.3629 53.8317 13.1538 51.6225 13.1538H29.959C27.7498 13.1538 25.959 11.3629 25.959 9.1538V8.37109Z" fill="#41595F"/>
<line x1="23.4824" y1="130.523" x2="56.8539" y2="130.523" stroke="#FAFAFA" stroke-width="2"/>
<path d="M58.2347 50.0105L50.7469 48.5159L50.3114 48.4399C50.0709 48.3759 49.3096 48.0351 48.2622 47.5783L48.3657 47.487C48.5787 47.2069 48.5118 46.7135 48.18 46.5461C47.8998 46.3331 47.4065 46.4001 47.239 46.7319L46.9742 47.0577C46.4017 46.8265 45.8809 46.5493 45.2629 46.2661L45.3724 46.0772C45.5855 45.7971 45.5185 45.3037 45.1867 45.1363C44.9065 44.9233 44.4132 44.9902 44.2458 45.322L44.0265 45.6996C43.5059 45.4226 42.9395 45.0938 42.4187 44.8166L42.58 44.582C42.793 44.3019 42.7261 43.8085 42.3943 43.6411C42.1141 43.4281 41.6208 43.495 41.4534 43.8268L41.2403 44.107C41.1946 44.0552 41.0972 44.0493 41.0515 43.9974C40.674 43.7782 40.3938 43.5652 40.0679 43.3003L39.7025 42.8863C39.1269 41.921 38.2712 40.7428 37.2452 40.7277C36.1735 40.6608 35.2112 41.9702 35.5675 43.313L35.8112 44.1107C35.8569 44.1625 35.8051 44.2082 35.7535 44.2538C31.8469 46.5043 30.5286 46.4709 29.691 46.5655C28.3604 46.727 27.9279 45.8195 27.5747 45.2107C27.0905 44.3491 26.6977 43.5909 24.8586 43.2804C24.1826 43.1405 23.5158 43.6368 23.4274 44.2672C23.2023 46.3075 22.1886 52.3578 22.1433 53.8714C20.7185 56.3258 21.7143 58.3932 23.456 58.6974C34.3876 60.6514 48.9576 59.9469 54.3227 58.6192C56.9107 57.9004 60.6438 56.0793 60.86 53.4026C61.018 52.4345 60.6008 50.5009 58.2348 50.0107L58.2347 50.0105ZM24.8706 44.651C25.8846 44.8611 26.0611 45.1655 26.4602 45.8263C26.8136 46.4353 27.5869 48.1465 29.8524 47.8968C31.8529 47.9727 34.8399 46.3496 36.5115 45.4269C37.1205 45.0735 37.4097 44.3581 37.2057 43.7095L36.962 42.9118C36.8432 42.4642 37.0625 42.0867 37.2572 42.0989C37.452 42.111 38.0125 42.5372 38.5819 43.5999C38.7584 43.9043 38.9869 44.1633 39.267 44.3763C39.5929 44.6411 39.9704 44.8604 40.2963 45.1252C40.3421 45.177 40.3421 45.177 40.4394 45.1829L39.6326 46.3552C39.4196 46.6353 39.4866 47.1287 39.8184 47.2961C40.0985 47.5091 40.5919 47.4422 40.7593 47.1104L41.6179 45.8924C42.1386 46.1694 42.705 46.4982 43.2258 46.7754L42.425 47.8504C42.212 48.1306 42.279 48.6239 42.6108 48.7913C42.8909 49.0043 43.3843 48.9374 43.5517 48.6056L44.4104 47.3876C45.0286 47.6707 45.5492 47.9477 46.1217 48.1793L45.4184 49.2595C45.2053 49.5397 45.2723 50.033 45.6041 50.2005C45.8843 50.4135 46.3776 50.3465 46.545 50.0147L47.4614 48.6536C48.7952 49.226 49.797 49.6308 49.8944 49.6371C49.9401 49.6889 49.9919 49.6432 50.0375 49.6948L58.0581 51.2716C59.2669 51.4938 59.5563 52.3433 59.5716 52.8822C57.3946 54.0668 52.8 54.807 51.8192 54.8439C36.6131 55.5573 28.6776 54.1815 23.5834 53.5214C23.6746 52.0598 24.3078 48.1865 24.8707 44.6514L24.8706 44.651ZM53.9662 57.2766C48.8478 58.5711 34.9595 59.3181 23.6841 57.3913C22.6183 57.227 22.7553 55.8172 23.206 54.8671C27.67 55.4392 35.9373 56.9824 51.8254 56.3112C52.9033 56.2807 56.3624 55.7141 58.6643 54.8794C57.4159 56.0732 55.0105 56.9989 53.9661 57.2763L53.9662 57.2766Z" fill="#A3B5FF"/>
<path d="M25.6867 51.9423L28.0647 52.2374C28.4546 52.2618 28.8107 52.0394 28.835 51.6498C28.8594 51.26 28.6369 50.9038 28.2474 50.8795L25.8694 50.5843C25.4795 50.56 25.1234 50.7824 25.0991 51.1719C25.029 51.51 25.3488 51.8724 25.6867 51.9423Z" fill="#A3B5FF"/>
<line x1="21" y1="78.5" x2="60" y2="78.5" stroke="#41595F"/>
<line x1="21" y1="84.5" x2="60" y2="84.5" stroke="#41595F"/>
<line x1="21" y1="89.5" x2="60" y2="89.5" stroke="#41595F"/>
</svg>
