<svg width="130" height="117" viewBox="0 0 130 117" fill="none" xmlns="http://www.w3.org/2000/svg">
<path d="M84.9274 110.57L63.3151 67.4479L49.0183 72.7972L54.5222 116.256L58.1608 114.419L62.1235 114.834L65.4603 112.643L69.7248 113.413L72.8233 111.623L77.3261 111.992L80.1502 110.172L84.9274 110.57Z" fill="#41595F"/>
<path d="M1.66604 110.572L23.2786 67.4479L37.5755 72.7973L32.0712 116.257L28.4327 114.42L24.4699 114.836L21.1332 112.645L16.8686 113.414L13.7701 111.624L9.26734 111.993L6.4433 110.174L1.66604 110.572Z" fill="#41595F"/>
<circle cx="41" cy="41" r="41" fill="#FAFAFA"/>
<path d="M52.0766 6.2422C50.7644 4.89934 49.197 3.8323 47.4666 3.10379C45.7361 2.37528 43.8775 2 42 2C40.1224 2 38.2638 2.37528 36.5334 3.10379C34.8029 3.8323 33.2356 4.89934 31.9234 6.2422L28.8911 9.35245L24.5524 9.29883C22.6743 9.2766 20.8107 9.63012 19.0712 10.3386C17.3317 11.0471 15.7515 12.0962 14.4234 13.4243C13.0953 14.7524 12.0461 16.3327 11.3376 18.0722C10.6292 19.8117 10.2756 21.6752 10.2979 23.5533L10.3466 27.8921L7.24611 30.9243C5.90324 32.2365 4.8362 33.8039 4.1077 35.5344C3.37919 37.2648 3.00391 39.1234 3.00391 41.001C3.00391 42.8785 3.37919 44.7371 4.1077 46.4675C4.8362 48.198 5.90324 49.7654 7.24611 51.0776L10.3515 54.1098L10.2979 58.4486C10.2756 60.3267 10.6292 62.1903 11.3376 63.9297C12.0461 65.6692 13.0953 67.2495 14.4234 68.5776C15.7515 69.9057 17.3317 70.9548 19.0712 71.6633C20.8107 72.3718 22.6743 72.7253 24.5524 72.7031L28.8911 72.6543L31.9234 75.7548C33.2356 77.0977 34.8029 78.1647 36.5334 78.8932C38.2638 79.6217 40.1224 79.997 42 79.997C43.8775 79.997 45.7361 79.6217 47.4666 78.8932C49.197 78.1647 50.7644 77.0977 52.0766 75.7548L55.1089 72.6495L59.4476 72.7031C61.3257 72.7253 63.1893 72.3718 64.9288 71.6633C66.6682 70.9548 68.2485 69.9057 69.5766 68.5776C70.9047 67.2495 71.9538 65.6692 72.6623 63.9297C73.3708 62.1903 73.7243 60.3267 73.7021 58.4486L73.6534 54.1098L76.7539 51.0776C78.0967 49.7654 79.1638 48.198 79.8923 46.4675C80.6208 44.7371 80.9961 42.8785 80.9961 41.001C80.9961 39.1234 80.6208 37.2648 79.8923 35.5344C79.1638 33.8039 78.0967 32.2365 76.7539 30.9243L73.6485 27.8921L73.7021 23.5533C73.7243 21.6752 73.3708 19.8117 72.6623 18.0722C71.9538 16.3327 70.9047 14.7524 69.5766 13.4243C68.2485 12.0962 66.6682 11.0471 64.9288 10.3386C63.1893 9.63012 61.3257 9.2766 59.4476 9.29883L55.1089 9.34758L52.0766 6.24708V6.2422ZM53.4757 35.4142L38.8507 50.0392C38.6243 50.2662 38.3553 50.4463 38.0592 50.5692C37.7631 50.6921 37.4456 50.7553 37.125 50.7553C36.8044 50.7553 36.4869 50.6921 36.1908 50.5692C35.8946 50.4463 35.6257 50.2662 35.3992 50.0392L28.0867 42.7267C27.8601 42.5001 27.6803 42.231 27.5577 41.9349C27.435 41.6388 27.3719 41.3215 27.3719 41.001C27.3719 40.6805 27.435 40.3631 27.5577 40.067C27.6803 39.7709 27.8601 39.5018 28.0867 39.2752C28.3134 39.0486 28.5824 38.8688 28.8785 38.7462C29.1746 38.6235 29.492 38.5604 29.8125 38.5604C30.133 38.5604 30.4503 38.6235 30.7465 38.7462C31.0426 38.8688 31.3116 39.0486 31.5382 39.2752L37.125 44.8668L50.0242 31.9627C50.4819 31.505 51.1027 31.2479 51.75 31.2479C52.3973 31.2479 53.018 31.505 53.4757 31.9627C53.9334 32.4204 54.1906 33.0412 54.1906 33.6885C54.1906 34.3357 53.9334 34.9565 53.4757 35.4142Z" fill="#A3B5FF"/>
<rect x="53" y="46" width="77" height="36" rx="10" fill="#FAFAFA"/>
<path d="M61.168 56.2V59.32H64.528V73H68.416V56.2H61.168ZM78.0544 73.288C82.2064 73.288 85.2544 70.144 85.2544 64.6C85.2544 59.056 82.2064 55.912 78.0544 55.912C73.9264 55.912 70.8544 59.056 70.8544 64.6C70.8544 70.144 73.9264 73.288 78.0544 73.288ZM78.0544 70C76.1344 70 74.7904 68.416 74.7904 64.6C74.7904 60.784 76.1344 59.2 78.0544 59.2C79.9984 59.2 81.3424 60.784 81.3424 64.6C81.3424 68.416 79.9984 70 78.0544 70ZM93.8635 73.288C98.0155 73.288 101.064 70.144 101.064 64.6C101.064 59.056 98.0155 55.912 93.8635 55.912C89.7355 55.912 86.6635 59.056 86.6635 64.6C86.6635 70.144 89.7355 73.288 93.8635 73.288ZM93.8635 70C91.9435 70 90.5995 68.416 90.5995 64.6C90.5995 60.784 91.9435 59.2 93.8635 59.2C95.8075 59.2 97.1515 60.784 97.1515 64.6C97.1515 68.416 95.8075 70 93.8635 70ZM106.361 65.272C108.809 65.272 110.513 63.496 110.513 60.64C110.513 57.784 108.809 56.008 106.361 56.008C103.913 56.008 102.185 57.808 102.185 60.64C102.185 63.472 103.913 65.272 106.361 65.272ZM104.897 73H107.753L119.225 56.2H116.369L104.897 73ZM106.361 63.304C105.329 63.304 104.609 62.416 104.609 60.64C104.609 58.864 105.329 57.976 106.361 57.976C107.417 57.976 108.113 58.84 108.113 60.64C108.113 62.44 107.417 63.304 106.361 63.304ZM117.761 73.192C120.209 73.192 121.937 71.392 121.937 68.56C121.937 65.728 120.209 63.928 117.761 63.928C115.337 63.928 113.609 65.728 113.609 68.56C113.609 71.392 115.337 73.192 117.761 73.192ZM117.761 71.224C116.729 71.224 116.009 70.36 116.009 68.56C116.009 66.76 116.729 65.896 117.761 65.896C118.817 65.896 119.513 66.784 119.513 68.56C119.513 70.336 118.817 71.224 117.761 71.224Z" fill="#A6A9B3"/>
</svg>
