
<svg width="81" height="81" viewBox="0 0 81 81" fill="none" xmlns="http://www.w3.org/2000/svg">
<path d="M24.885 70.8975V70.7625L25.605 67.635H9V9H54V32.0625L58.5 27.81V6.75C58.5 6.15326 58.2629 5.58097 57.841 5.15901C57.419 4.73705 56.8467 4.5 56.25 4.5H6.75C6.15326 4.5 5.58097 4.73705 5.15901 5.15901C4.73705 5.58097 4.5 6.15326 4.5 6.75V69.75C4.5 70.3467 4.73705 70.919 5.15901 71.341C5.58097 71.7629 6.15326 72 6.75 72H24.75C24.7685 71.6297 24.8137 71.2613 24.885 70.8975Z" fill="#41595F"/>
<path d="M49.4972 43.1328L47.7422 44.9103C48.1776 44.8206 48.5767 44.6038 48.889 44.2875C49.2014 43.9711 49.413 43.5693 49.4972 43.1328Z" fill="#41595F"/>
<path d="M75.3552 37.5064L67.7727 29.9239C67.4362 29.5865 67.0364 29.3187 66.5963 29.1361C66.1561 28.9534 65.6842 28.8594 65.2077 28.8594C64.7312 28.8594 64.2593 28.9534 63.8191 29.1361C63.379 29.3187 62.9792 29.5865 62.6427 29.9239L31.7952 60.9514L29.2527 71.7739C29.1575 72.2408 29.1554 72.7219 29.2464 73.1896C29.3374 73.6573 29.5199 74.1025 29.7832 74.4996C30.0466 74.8967 30.3857 75.238 30.7811 75.5038C31.1766 75.7697 31.6206 75.9549 32.0877 76.0489C32.3196 76.0722 32.5533 76.0722 32.7852 76.0489C33.0609 76.0938 33.342 76.0938 33.6177 76.0489L44.5302 73.6414L75.3552 42.7489C75.692 42.4143 75.9592 42.0164 76.1416 41.5781C76.3239 41.1399 76.4178 40.6698 76.4178 40.1951C76.4178 39.7204 76.3239 39.2504 76.1416 38.8121C75.9592 38.3739 75.692 37.976 75.3552 37.6414V37.5064ZM42.2352 69.5464L34.0002 71.3689L36.0027 63.2014L59.1327 39.8239L65.4777 46.1689L42.2352 69.5464ZM68.0202 43.6264L61.6752 37.2814L65.2527 33.7489L71.6427 40.1389L68.0202 43.6264Z" fill="#41595F"/>
<circle cx="17" cy="19" r="3" fill="#C4C4C4"/>
<line x1="25" y1="19" x2="48" y2="19" stroke="#C4C4C4" stroke-width="2"/>
<circle cx="17" cy="32" r="3" fill="#C4C4C4"/>
<line x1="25" y1="32" x2="48" y2="32" stroke="#C4C4C4" stroke-width="2"/>
<circle cx="17" cy="44" r="3" fill="#C4C4C4"/>
<circle cx="17" cy="57" r="3" fill="#C4C4C4"/>
<line x1="25" y1="44" x2="44" y2="44" stroke="#C4C4C4" stroke-width="2"/>
<line x1="25" y1="56" x2="32" y2="56" stroke="#C4C4C4" stroke-width="2"/>
</svg>
