<svg width="85" height="68" viewBox="0 0 85 68" fill="none" xmlns="http://www.w3.org/2000/svg">
<path d="M77.9255 22.3624H30.5009V20.5323C30.5034 18.8356 31.1792 17.2087 32.38 16.0096C33.5802 14.81 35.2078 14.136 36.9044 14.1347H57.8335C60.2801 14.1329 62.6266 13.1606 64.3578 11.4306C66.0883 9.70107 67.0626 7.35584 67.0667 4.90881V0H64.3511V4.90881C64.3481 6.6358 63.6601 8.29126 62.4387 9.51144C61.2166 10.7323 59.5605 11.4184 57.8335 11.4191H36.9044C34.4877 11.4209 32.1702 12.3817 30.4603 14.0899C28.7508 15.7987 27.7888 18.1154 27.7853 20.5323V22.3624H6.26182C4.60217 22.3642 3.01034 23.0243 1.83609 24.1984C0.661936 25.372 0.00186216 26.9638 0 28.6242V61.3097C0.00181855 62.97 0.661936 64.5618 1.83609 65.7355C3.01024 66.9096 4.60202 67.5697 6.26182 67.5715H77.9239C79.5836 67.5697 81.1754 66.9096 82.3496 65.7355C83.5232 64.5613 84.1833 62.9702 84.1851 61.3097V28.6242C84.1833 26.9639 83.5232 25.3727 82.349 24.1984C81.1755 23.0243 79.5837 22.3642 77.9239 22.3624H77.9255ZM81.471 61.3094C81.4698 62.2496 81.0958 63.1509 80.4314 63.8153C79.7665 64.4802 78.8657 64.8542 77.9256 64.8555H6.2635C5.32332 64.8542 4.42198 64.4802 3.75765 63.8159C3.09267 63.1509 2.71868 62.2495 2.71746 61.3094V28.6239C2.71868 27.6837 3.09269 26.7823 3.75765 26.1174C4.42201 25.453 5.32342 25.079 6.2635 25.0778H77.9256C78.8658 25.079 79.7665 25.453 80.4314 26.118C81.0958 26.7823 81.4698 27.6838 81.471 28.6238V61.3094Z" fill="#41595F"/>
<path d="M14.3112 27.4844H8.93143C8.24705 27.485 7.59179 27.7572 7.10806 28.2409C6.62434 28.7246 6.35217 29.3805 6.35156 30.0642V35.4373C6.35217 36.1217 6.62434 36.777 7.10806 37.2607C7.59179 37.7444 8.24767 38.0166 8.93143 38.0172H14.3112C14.995 38.0166 15.6508 37.7444 16.1346 37.2607C16.6183 36.777 16.8905 36.1217 16.8911 35.4373V30.0642C16.8905 29.3805 16.6183 28.7246 16.1346 28.2409C15.6508 27.7572 14.995 27.485 14.3112 27.4844ZM14.1754 35.3009L9.06721 35.3015V30.2H14.1754V35.3009Z" fill="#41595F"/>
<path d="M21.1267 38.0166H26.5065H26.5059C27.1897 38.016 27.8455 37.7438 28.3293 37.2601C28.8124 36.7764 29.0846 36.1211 29.0852 35.4367V30.0642C29.0846 29.3805 28.8124 28.7246 28.3293 28.2409C27.8455 27.7578 27.1897 27.4856 26.5059 27.4844H21.1268C20.4424 27.485 19.7865 27.7572 19.3028 28.2409C18.819 28.7246 18.5475 29.3805 18.5469 30.0642V35.4373C18.5475 36.1211 18.8196 36.777 19.3028 37.2607C19.7865 37.7444 20.4424 38.016 21.1268 38.0166L21.1267 38.0166ZM21.2625 30.2H26.3695V35.3009H21.2625V30.2Z" fill="#41595F"/>
<path d="M33.3064 38.0166H38.6862C39.37 38.016 40.0258 37.7444 40.5096 37.2607C40.9933 36.777 41.2655 36.1211 41.2661 35.4367V30.0642C41.2655 29.3805 40.9933 28.7246 40.5096 28.2409C40.0258 27.7572 39.37 27.485 38.6862 27.4844H33.3064C32.6227 27.485 31.9668 27.7572 31.4831 28.2409C30.9993 28.7246 30.7272 29.3805 30.7266 30.0642V35.4373C30.7272 36.1211 30.9993 36.777 31.4831 37.2607C31.9668 37.7444 32.6227 38.016 33.3064 38.0166ZM33.4422 30.2H38.5498V35.301H33.4422V30.2Z" fill="#41595F"/>
<path d="M45.5005 38.0166H50.8803C51.564 38.016 52.2199 37.7438 52.7037 37.2601C53.1874 36.777 53.4596 36.1211 53.4602 35.4367V30.0642C53.4596 29.3805 53.1874 28.7246 52.7037 28.2409C52.2199 27.7572 51.564 27.4856 50.8803 27.4844H45.5005C44.8168 27.4856 44.1615 27.7578 43.6778 28.2415C43.194 28.7252 42.9225 29.3805 42.9219 30.0642V35.4373C42.9225 36.1211 43.1946 36.777 43.6778 37.2601C44.1615 37.7438 44.8168 38.016 45.5005 38.0166V38.0166ZM45.6369 30.2H50.7445V35.3009H45.6375L45.6369 30.2Z" fill="#41595F"/>
<path d="M63.0678 27.4844H57.6886C57.0049 27.4856 56.349 27.7578 55.8653 28.2415C55.3822 28.7252 55.11 29.3805 55.1094 30.0642V35.4373C55.11 36.1211 55.3822 36.777 55.8659 37.2607C56.349 37.7444 57.0049 38.0166 57.6886 38.0172H63.0684H63.0678C63.7522 38.0166 64.408 37.7444 64.8912 37.2607C65.3749 36.777 65.6471 36.1211 65.6477 35.4373V30.0642C65.6471 29.3805 65.3749 28.7246 64.8918 28.2409C64.408 27.7572 63.7522 27.4856 63.0678 27.4844L63.0678 27.4844ZM62.932 35.301L57.825 35.3016V30.2H62.9326L62.932 35.301Z" fill="#41595F"/>
<path d="M75.2565 27.4844H69.8767C69.193 27.4856 68.5371 27.7572 68.0534 28.2409C67.5697 28.7246 67.2981 29.3805 67.2969 30.0642V35.4373C67.2981 36.1211 67.5697 36.777 68.0534 37.2607C68.5371 37.7444 69.193 38.0166 69.8767 38.0172H75.2565C75.9403 38.0166 76.5962 37.7444 77.0793 37.2607C77.563 36.777 77.8352 36.1211 77.8358 35.4373V30.0642C77.8352 29.3805 77.563 28.7252 77.0793 28.2415C76.5961 27.7578 75.9403 27.4856 75.2565 27.4844V27.4844ZM75.1201 35.3009L70.0138 35.3015V30.2H75.1201V35.3009Z" fill="#41595F"/>
<path d="M14.3112 39.6992H8.93143C8.24767 39.6998 7.59179 39.972 7.10806 40.4557C6.62434 40.9389 6.35217 41.5947 6.35156 42.2785V47.6522C6.35217 48.336 6.62434 48.9918 7.10806 49.4749C7.59179 49.9587 8.24767 50.2308 8.93143 50.2315H14.3112C14.995 50.2308 15.6508 49.9587 16.1346 49.4756C16.6177 48.9918 16.8899 48.3359 16.8911 47.6522V42.2785C16.8899 41.5947 16.6177 40.9388 16.1346 40.4557C15.6508 39.972 14.995 39.6998 14.3112 39.6992V39.6992ZM14.1754 47.5152L9.06721 47.5158V42.4149H14.1754V47.5152Z" fill="#41595F"/>
<path d="M21.1267 50.2314H26.5065H26.5059C27.1897 50.2302 27.8455 49.9587 28.3286 49.4749C28.8124 48.9918 29.0845 48.3359 29.0851 47.6522V42.2785C29.0845 41.5947 28.8124 40.9394 28.3286 40.4557C27.8455 39.972 27.1897 39.7004 26.5059 39.6992H21.1267C20.4424 39.6998 19.7865 39.972 19.3034 40.4557C18.8197 40.9388 18.5475 41.5947 18.5469 42.2785V47.6522C18.5475 48.3359 18.8197 48.9918 19.3034 49.4756C19.7871 49.9587 20.4424 50.2309 21.1267 50.2315L21.1267 50.2314ZM21.2625 42.4155L26.3695 42.4149V47.5152L21.2625 47.5158V42.4155Z" fill="#41595F"/>
<path d="M33.3064 50.2314H38.6862C39.37 50.2308 40.0258 49.9587 40.5096 49.4749C40.9927 48.9918 41.2649 48.3359 41.2661 47.6522V42.2785C41.2649 41.5947 40.9927 40.9388 40.5096 40.4557C40.0258 39.972 39.37 39.6998 38.6862 39.6992H33.3064C32.6227 39.6998 31.9668 39.972 31.4831 40.4557C30.9993 40.9388 30.7272 41.5947 30.7266 42.2785V47.6522C30.7272 48.3359 30.9993 48.9918 31.4831 49.4756C31.9668 49.9587 32.6227 50.2309 33.3064 50.2315V50.2314ZM33.4422 42.4155H38.5498V47.5158H33.4422V42.4155Z" fill="#41595F"/>
<path d="M45.5005 50.2314H50.8803C51.564 50.2302 52.2199 49.9587 52.7037 49.4749C53.1874 48.9918 53.4596 48.3359 53.4602 47.6522V42.2785C53.4596 41.5947 53.1874 40.9394 52.7037 40.4557C52.2199 39.972 51.564 39.7004 50.8803 39.6992H45.5005C44.8168 39.7004 44.1615 39.9726 43.6778 40.4557C43.1946 40.9394 42.9225 41.5947 42.9219 42.2785V47.6522C42.9225 48.3359 43.1946 48.9912 43.6778 49.4749C44.1615 49.9581 44.8168 50.2302 45.5005 50.2314ZM45.6369 42.4155H50.7445V47.5158H45.6375L45.6369 42.4155Z" fill="#41595F"/>
<path d="M63.0678 39.6992H57.6886C57.0049 39.7004 56.349 39.9726 55.8659 40.4557C55.3822 40.9394 55.1106 41.5947 55.1094 42.2785V47.6522C55.1106 48.3359 55.3822 48.9912 55.8659 49.4749C56.3496 49.9581 57.0049 50.2302 57.6886 50.2314H63.0684H63.0678C63.7522 50.2302 64.4074 49.9587 64.8912 49.4749C65.3749 48.9918 65.6471 48.3359 65.6477 47.6522V42.2785C65.6471 41.5947 65.3749 40.9394 64.8912 40.4557C64.4074 39.972 63.7522 39.7004 63.0678 39.6992H63.0678ZM62.932 47.5152L57.825 47.5158V42.4149H62.9326L62.932 47.5152Z" fill="#41595F"/>
<path d="M75.2565 39.6992H69.8767C69.193 39.7004 68.5377 39.972 68.054 40.4557C67.5703 40.9388 67.2981 41.5947 67.2969 42.2785V47.6522C67.2981 48.3359 67.5703 48.9918 68.054 49.4749C68.5377 49.9587 69.193 50.2308 69.8767 50.2314H75.2565C75.9403 50.2302 76.5955 49.9581 77.0792 49.4749C77.5624 48.9912 77.8345 48.3359 77.8357 47.6522V42.2785C77.8345 41.5947 77.563 40.9394 77.0792 40.4557C76.5955 39.9726 75.9403 39.7004 75.2565 39.6992ZM75.1201 47.5152L70.0138 47.5158V42.4149H75.1201V47.5152Z" fill="#41595F"/>
<path d="M14.3112 51.918H8.93143C8.24767 51.9186 7.59179 52.1901 7.10806 52.6739C6.62434 53.1576 6.35217 53.8135 6.35156 54.4978V59.871C6.35217 60.5553 6.62434 61.2112 7.10806 61.6949C7.59179 62.1787 8.24767 62.4502 8.93143 62.4508H14.3112C14.995 62.4502 15.6508 62.1787 16.1346 61.6949C16.6183 61.2112 16.8905 60.5553 16.8911 59.871V54.4972C16.8905 53.8135 16.6183 53.1576 16.1346 52.6739C15.6508 52.1901 14.995 51.9186 14.3112 51.918ZM14.1754 59.7345H9.06721V54.6336H14.1754V59.7345Z" fill="#41595F"/>
<path d="M51.8213 51.918H21.1268C20.4424 51.9186 19.7865 52.1907 19.3028 52.6745C18.8197 53.1576 18.5475 53.8135 18.5469 54.4978V59.8709C18.5475 60.5553 18.8197 61.2112 19.3028 61.6943C19.7865 62.178 20.4424 62.4502 21.1268 62.4508H51.8213C52.5051 62.4502 53.161 62.178 53.6441 61.6943C54.1278 61.2106 54.3994 60.5553 54.4006 59.8709V54.4972C54.3994 53.8135 54.1278 53.1582 53.6441 52.6745C53.1604 52.1907 52.5051 51.9186 51.8213 51.918ZM51.685 59.7345H21.2619V54.6336H51.685V59.7345Z" fill="#41595F"/>
<path d="M63.0678 51.918H57.6886C57.0049 51.9186 56.349 52.1907 55.8659 52.6745C55.3822 53.1582 55.11 53.8135 55.1094 54.4978V59.8709C55.11 60.5553 55.3822 61.2106 55.8659 61.6943C56.349 62.178 57.0049 62.4502 57.6886 62.4508H63.0684H63.0678C63.7522 62.4502 64.408 62.178 64.8912 61.6943C65.3749 61.2112 65.6471 60.5553 65.6477 59.8709V54.4972C65.6471 53.8135 65.3749 53.1576 64.8912 52.6745C64.408 52.1907 63.7522 51.9186 63.0678 51.918H63.0678ZM62.932 59.7345H57.825V54.6336H62.9326L62.932 59.7345Z" fill="#41595F"/>
<path d="M75.2565 51.918H69.8767C69.193 51.9186 68.5371 52.1907 68.0534 52.6739C67.5697 53.1576 67.2981 53.8135 67.2969 54.4978V59.871C67.2981 60.5553 67.5697 61.2112 68.0534 61.6949C68.5371 62.1781 69.193 62.4502 69.8767 62.4508H75.2565C75.9403 62.4502 76.5962 62.1781 77.0793 61.6943C77.563 61.2106 77.8352 60.5553 77.8358 59.871V54.4972C77.8346 53.8135 77.563 53.1582 77.0793 52.6745C76.5961 52.1908 75.9403 51.9186 75.2565 51.918V51.918ZM75.1201 59.7345H70.0138V54.6336H75.1201V59.7345Z" fill="#41595F"/>
</svg>
