<svg width="196" height="136" viewBox="0 0 196 136" fill="none" xmlns="http://www.w3.org/2000/svg">
<g clip-path="url(#clip0_0_1)">
<path d="M139.996 113.451C139.996 117.006 139.996 120.561 139.996 124.117C139.996 126.646 139.426 127.377 137.007 127.899C124.668 130.562 112.328 133.216 99.9861 135.862C99.7715 135.934 99.5483 135.977 99.3225 135.99C96.8482 135.79 94.3944 135.586 91.9452 135.038C80.8418 132.558 69.7132 130.21 58.5915 127.805C56.8721 127.435 56.083 126.593 56.0283 124.834C55.9759 123.499 56.0124 122.16 56.0124 120.822C56.0124 114.743 55.9895 108.664 56.0397 102.585C56.0319 101.72 56.2514 100.869 56.676 100.118C56.9975 99.6004 57.8025 99.1981 58.4433 99.1038C62.7761 98.4807 67.1409 97.9542 71.492 97.3932C76.3676 96.7563 81.2386 96.0964 86.1142 95.4503C89.8267 94.9583 93.5324 94.3766 97.261 94.0294C98.8116 93.8869 100.417 94.1858 101.984 94.3858C108.175 95.179 114.36 96.009 120.549 96.8276C125.949 97.5426 131.351 98.2462 136.74 98.9888C139.433 99.359 139.987 100.044 139.99 102.778C139.997 106.337 139.999 109.895 139.996 113.451ZM137.597 101.509C137.075 101.58 136.706 101.608 136.345 101.686C124.35 104.275 112.355 106.86 100.36 109.441C99.4479 109.637 99.1423 109.991 99.1492 110.954C99.1925 118.056 99.1697 125.161 99.1765 132.263C99.1765 132.663 99.2267 133.061 99.2609 133.544C99.945 133.404 100.501 133.303 101.046 133.185C112.857 130.633 124.665 128.065 136.482 125.554C137.394 125.359 137.622 125.002 137.622 124.131C137.593 116.987 137.606 109.844 137.606 102.698L137.597 101.509ZM96.6749 133.549C96.7467 133.276 96.7962 132.997 96.8231 132.716C96.8231 125.345 96.8231 117.974 96.8459 110.6C96.8459 109.827 96.4674 109.623 95.8562 109.496C94.155 109.147 92.4568 108.787 90.7617 108.418C81.421 106.399 72.0819 104.38 62.7442 102.36C61.3577 102.061 59.9621 101.799 58.5186 101.509C58.4709 101.75 58.4374 101.993 58.4182 102.238C58.4182 109.65 58.4182 117.063 58.4 124.476C58.4 125.166 58.6873 125.379 59.3121 125.51C71.7109 128.166 84.1119 130.842 96.6749 133.549ZM129.513 100.683L129.614 100.509C127.372 100.203 125.13 99.8878 122.889 99.5889C116.663 98.7635 110.437 97.9795 104.216 97.1173C100.652 96.6298 97.1332 96.2459 93.5096 96.8483C88.0366 97.768 82.4951 98.3704 76.9856 99.1084L66.5753 100.509C66.8589 100.72 67.1877 100.862 67.5354 100.922C76.2855 102.815 85.0309 104.739 93.7947 106.56C95.7285 106.963 97.5825 107.675 99.7238 107.183C109.635 104.923 119.582 102.84 129.513 100.683Z" fill="black"/>
</g>
<path d="M35.4183 51.4766C35.4183 51.4766 35.1282 67.0887 47.6282 67.0887C60.1282 67.0887 58.5 84.2432 58.5 84.2432" stroke="black" stroke-width="2"/>
<path d="M64.8554 77.7429C64.1783 78.6494 60.6238 83.4081 58.9312 85.6742L51 79.75" stroke="black" stroke-width="2" stroke-linecap="round"/>
<path d="M157.994 50.4897C157.994 50.4897 160.729 65.578 148.229 65.578C135.729 65.578 137.357 82.7325 137.357 82.7325" stroke="black" stroke-width="2"/>
<path d="M131.004 76.2312C131.681 77.1377 135.236 81.8964 136.928 84.1624L144.859 78.2383" stroke="black" stroke-width="2" stroke-linecap="round"/>
<path d="M105 80C104.2 80.8 100 85 98 87L91 80" stroke="black" stroke-width="2" stroke-linecap="round"/>
<line x1="98" y1="53" x2="98" y2="86" stroke="black" stroke-width="2"/>
<path d="M53.9345 29.8604L44.4357 27.9644L43.8833 27.868C43.5782 27.7868 42.6124 27.3545 41.2838 26.775L41.415 26.6592C41.6852 26.3038 41.6003 25.678 41.1794 25.4656C40.824 25.1953 40.1982 25.2803 39.9858 25.7012L39.6498 26.1146C38.9236 25.8212 38.2629 25.4696 37.4789 25.1103L37.6178 24.8707C37.8881 24.5153 37.8031 23.8895 37.3822 23.6771C37.0268 23.4069 36.401 23.4918 36.1886 23.9127L35.9104 24.3917C35.2499 24.0403 34.5315 23.6232 33.8708 23.2715L34.0755 22.974C34.3457 22.6186 34.2608 21.9927 33.8398 21.7803C33.4844 21.5101 32.8586 21.5951 32.6462 22.016L32.376 22.3714C32.318 22.3056 32.1944 22.2981 32.1364 22.2324C31.6575 21.9542 31.3021 21.684 30.8887 21.3481L30.4252 20.8228C29.695 19.5983 28.6094 18.1036 27.3078 18.0845C25.9483 17.9996 24.7276 19.6607 25.1796 21.3641L25.4887 22.376C25.5467 22.4418 25.481 22.4998 25.4155 22.5576C20.4597 25.4125 18.7873 25.3702 17.7248 25.4901C16.0368 25.6951 15.4882 24.5438 15.0401 23.7715C14.4259 22.6785 13.9275 21.7167 11.5945 21.3228C10.737 21.1453 9.89107 21.7749 9.77904 22.5745C9.49344 25.1628 8.20753 32.8382 8.14999 34.7582C6.34253 37.8718 7.60577 40.4944 9.81528 40.8804C23.6828 43.3591 42.1659 42.4655 48.9719 40.7812C52.255 39.8693 56.9907 37.5591 57.2649 34.1636C57.4654 32.9355 56.9361 30.4825 53.9346 29.8607L53.9345 29.8604ZM11.6098 23.0615C12.8961 23.328 13.12 23.7142 13.6263 24.5525C14.0746 25.325 15.0556 27.4958 17.9295 27.179C20.4673 27.2753 24.2566 25.2163 26.3772 24.0457C27.1497 23.5975 27.5165 22.6899 27.2577 21.8671L26.9486 20.8552C26.7979 20.2874 27.0761 19.8085 27.3231 19.8239C27.5702 19.8393 28.2812 20.38 29.0035 21.728C29.2274 22.1143 29.5173 22.4428 29.8727 22.713C30.2861 23.0489 30.765 23.3271 31.1784 23.663C31.2364 23.7288 31.2364 23.7288 31.36 23.7363L30.3365 25.2234C30.0663 25.5788 30.1512 26.2046 30.5721 26.417C30.9275 26.6872 31.5534 26.6023 31.7658 26.1814L32.855 24.6363C33.5155 24.9877 34.234 25.4048 34.8947 25.7564L33.8789 27.1201C33.6086 27.4755 33.6936 28.1014 34.1145 28.3138C34.4699 28.584 35.0957 28.499 35.3081 28.0781L36.3974 26.533C37.1816 26.8922 37.8421 27.2435 38.5683 27.5373L37.6761 28.9078C37.4059 29.2632 37.4908 29.889 37.9117 30.1014C38.2671 30.3716 38.893 30.2867 39.1054 29.8657L40.2678 28.1391C41.9598 28.8652 43.2307 29.3787 43.3543 29.3867C43.4123 29.4524 43.478 29.3944 43.5358 29.4599L53.7106 31.4602C55.2439 31.7421 55.611 32.8197 55.6305 33.5033C52.8689 35.0062 47.0402 35.9451 45.796 35.9919C26.506 36.8969 16.4393 35.1516 9.97685 34.3142C10.0926 32.4601 10.8958 27.5465 11.61 23.062L11.6098 23.0615ZM48.5196 39.0779C42.0266 40.7201 24.4083 41.6677 10.1046 39.2235C8.7526 39.0151 8.92636 37.2267 9.4981 36.0213C15.1611 36.7471 25.6487 38.7048 45.8038 37.8533C47.1713 37.8146 51.5594 37.0958 54.4795 36.0369C52.8959 37.5514 49.8444 38.7257 48.5195 39.0776L48.5196 39.0779Z" fill="#A3B5FF"/>
<path d="M12.6459 32.3101L15.6626 32.6845C16.1572 32.7154 16.609 32.4332 16.6398 31.9391C16.6707 31.4445 16.3885 30.9927 15.8944 30.9619L12.8777 30.5874C12.3831 30.5566 11.9314 30.8387 11.9005 31.3329C11.8116 31.7617 12.2173 32.2214 12.6459 32.3101Z" fill="#A3B5FF"/>
<path d="M119.411 26.8838L109.912 24.9878L109.36 24.8914C109.055 24.8102 108.089 24.3779 106.76 23.7984L106.892 23.6826C107.162 23.3272 107.077 22.7014 106.656 22.489C106.301 22.2188 105.675 22.3037 105.462 22.7246L105.126 23.138C104.4 22.8447 103.739 22.4931 102.955 22.1337L103.094 21.8942C103.365 21.5388 103.28 20.913 102.859 20.7005C102.503 20.4303 101.878 20.5153 101.665 20.9362L101.387 21.4151C100.727 21.0637 100.008 20.6466 99.3473 20.295L99.552 19.9974C99.8223 19.642 99.7373 19.0162 99.3164 18.8038C98.961 18.5335 98.3352 18.6185 98.1228 19.0394L97.8525 19.3948C97.7945 19.3291 97.671 19.3216 97.613 19.2558C97.134 18.9777 96.7786 18.7075 96.3652 18.3715L95.9017 17.8463C95.1715 16.6218 94.0859 15.127 92.7844 15.1079C91.4248 15.023 90.2041 16.6842 90.6562 18.3876L90.9653 19.3995C91.0233 19.4652 90.9576 19.5232 90.892 19.581C85.9362 22.4359 84.2639 22.3936 83.2014 22.5135C81.5134 22.7185 80.9647 21.5673 80.5167 20.795C79.9025 19.7019 79.4041 18.7402 77.0711 18.3463C76.2136 18.1687 75.3676 18.7983 75.2556 19.598C74.97 22.1862 73.6841 29.8616 73.6266 31.7817C71.8191 34.8952 73.0823 37.5179 75.2918 37.9038C89.1594 40.3825 107.642 39.4889 114.448 37.8046C117.732 36.8928 122.467 34.5825 122.741 31.187C122.942 29.9589 122.413 27.5059 119.411 26.8841L119.411 26.8838ZM77.0863 20.085C78.3726 20.3514 78.5966 20.7376 79.1028 21.5759C79.5511 22.3484 80.5322 24.5193 83.4061 24.2024C85.9439 24.2987 89.7332 22.2397 91.8537 21.0692C92.6263 20.6209 92.9931 19.7133 92.7343 18.8905L92.4252 17.8787C92.2745 17.3109 92.5526 16.8319 92.7997 16.8474C93.0468 16.8628 93.7578 17.4035 94.4801 18.7515C94.704 19.1377 94.9939 19.4662 95.3493 19.7364C95.7627 20.0724 96.2416 20.3505 96.655 20.6865C96.713 20.7522 96.713 20.7522 96.8366 20.7597L95.8131 22.2468C95.5428 22.6022 95.6278 23.228 96.0487 23.4404C96.4041 23.7107 97.0299 23.6257 97.2423 23.2048L98.3316 21.6597C98.9921 22.0111 99.7105 22.4282 100.371 22.7798L99.3554 24.1436C99.0852 24.499 99.1702 25.1248 99.5911 25.3372C99.9465 25.6074 100.572 25.5225 100.785 25.1016L101.874 23.5565C102.658 23.9156 103.319 24.267 104.045 24.5608L103.153 25.9312C102.882 26.2866 102.967 26.9124 103.388 27.1248C103.744 27.395 104.37 27.3101 104.582 26.8892L105.744 25.1625C107.436 25.8887 108.707 26.4022 108.831 26.4101C108.889 26.4758 108.955 26.4178 109.012 26.4833L119.187 28.4837C120.72 28.7655 121.088 29.8432 121.107 30.5268C118.345 32.0296 112.517 32.9686 111.273 33.0153C91.9826 33.9203 81.9158 32.175 75.4534 31.3377C75.5692 29.4835 76.3724 24.57 77.0865 20.0854L77.0863 20.085ZM113.996 36.1014C107.503 37.7435 89.8849 38.6911 75.5812 36.2469C74.2292 36.0385 74.4029 34.2501 74.9747 33.0448C80.6376 33.7706 91.1253 35.7282 111.28 34.8767C112.648 34.8381 117.036 34.1192 119.956 33.0604C118.372 34.5748 115.321 35.7492 113.996 36.1011L113.996 36.1014Z" fill="#A3B5FF"/>
<path d="M78.1225 29.3335L81.1392 29.708C81.6338 29.7388 82.0855 29.4567 82.1164 28.9625C82.1473 28.468 81.8651 28.0162 81.371 27.9853L78.3543 27.6109C77.8597 27.58 77.4079 27.8622 77.3771 28.3563C77.2882 28.7851 77.6939 29.2449 78.1225 29.3335Z" fill="#A3B5FF"/>
<path d="M190.856 26.8838L181.358 24.9878L180.805 24.8914C180.5 24.8102 179.534 24.3779 178.206 23.7984L178.337 23.6826C178.607 23.3272 178.522 22.7014 178.101 22.489C177.746 22.2188 177.12 22.3037 176.908 22.7246L176.572 23.138C175.845 22.8447 175.185 22.4931 174.401 22.1337L174.54 21.8942C174.81 21.5388 174.725 20.913 174.304 20.7005C173.949 20.4303 173.323 20.5153 173.11 20.9362L172.832 21.4151C172.172 21.0637 171.453 20.6466 170.793 20.295L170.997 19.9974C171.268 19.642 171.183 19.0162 170.762 18.8038C170.406 18.5335 169.78 18.6185 169.568 19.0394L169.298 19.3948C169.24 19.3291 169.116 19.3216 169.058 19.2558C168.579 18.9777 168.224 18.7075 167.811 18.3715L167.347 17.8463C166.617 16.6218 165.531 15.127 164.23 15.1079C162.87 15.023 161.649 16.6842 162.101 18.3876L162.411 19.3995C162.469 19.4652 162.403 19.5232 162.337 19.581C157.382 22.4359 155.709 22.3936 154.647 22.5135C152.959 22.7185 152.41 21.5673 151.962 20.795C151.348 19.7019 150.849 18.7402 148.516 18.3463C147.659 18.1687 146.813 18.7983 146.701 19.598C146.415 22.1862 145.129 29.8616 145.072 31.7817C143.264 34.8952 144.528 37.5179 146.737 37.9038C160.605 40.3825 179.088 39.4889 185.894 37.8046C189.177 36.8928 193.913 34.5825 194.187 31.187C194.387 29.9589 193.858 27.5059 190.857 26.8841L190.856 26.8838ZM148.532 20.085C149.818 20.3514 150.042 20.7376 150.548 21.5759C150.996 22.3484 151.978 24.5193 154.851 24.2024C157.389 24.2987 161.178 22.2397 163.299 21.0692C164.072 20.6209 164.438 19.7133 164.18 18.8905L163.87 17.8787C163.72 17.3109 163.998 16.8319 164.245 16.8474C164.492 16.8628 165.203 17.4035 165.925 18.7515C166.149 19.1377 166.439 19.4662 166.795 19.7364C167.208 20.0724 167.687 20.3505 168.1 20.6865C168.158 20.7522 168.158 20.7522 168.282 20.7597L167.258 22.2468C166.988 22.6022 167.073 23.228 167.494 23.4404C167.849 23.7107 168.475 23.6257 168.688 23.2048L169.777 21.6597C170.437 22.0111 171.156 22.4282 171.817 22.7798L170.801 24.1436C170.531 24.499 170.615 25.1248 171.036 25.3372C171.392 25.6074 172.018 25.5225 172.23 25.1016L173.319 23.5565C174.103 23.9156 174.764 24.267 175.49 24.5608L174.598 25.9312C174.328 26.2866 174.413 26.9124 174.834 27.1248C175.189 27.395 175.815 27.3101 176.027 26.8892L177.19 25.1625C178.882 25.8887 180.153 26.4022 180.276 26.4101C180.334 26.4758 180.4 26.4178 180.458 26.4833L190.632 28.4837C192.166 28.7655 192.533 29.8432 192.552 30.5268C189.791 32.0296 183.962 32.9686 182.718 33.0153C163.428 33.9203 153.361 32.175 146.899 31.3377C147.014 29.4835 147.818 24.57 148.532 20.0854L148.532 20.085ZM185.441 36.1014C178.949 37.7435 161.33 38.6911 147.027 36.2469C145.674 36.0385 145.848 34.2501 146.42 33.0448C152.083 33.7706 162.571 35.7282 182.726 34.8767C184.093 34.8381 188.481 34.1192 191.401 33.0604C189.818 34.5748 186.766 35.7492 185.441 36.1011L185.441 36.1014Z" fill="#A3B5FF"/>
<path d="M149.568 29.3335L152.584 29.708C153.079 29.7388 153.531 29.4567 153.562 28.9625C153.593 28.468 153.31 28.0162 152.816 27.9853L149.8 27.6109C149.305 27.58 148.853 27.8622 148.822 28.3563C148.733 28.7851 149.139 29.2449 149.568 29.3335Z" fill="#A3B5FF"/>
<defs>
<clipPath id="clip0_0_1">
<rect width="84" height="42" fill="white" transform="translate(56 94)"/>
</clipPath>
</defs>
</svg>
