<svg width="84" height="114" viewBox="0 0 84 114" fill="none" xmlns="http://www.w3.org/2000/svg">
<path d="M83.9964 91.4588C83.9964 95.0134 83.9964 98.5688 83.9964 102.125C83.9964 104.654 83.4263 105.385 81.0067 105.907C68.668 108.57 56.3278 111.224 43.9861 113.869C43.7715 113.942 43.5483 113.985 43.3225 113.998C40.8482 113.798 38.3944 113.593 35.9452 113.046C24.8418 110.565 13.7132 108.218 2.59153 105.813C0.872077 105.443 0.0830449 104.601 0.0283144 102.842C-0.0241357 101.506 0.0123514 100.168 0.0123514 98.8301C0.0123514 92.751 -0.0104542 86.6718 0.0397155 80.5926C0.0318668 79.7281 0.251401 78.8768 0.67596 78.1256C0.997502 77.6083 1.8025 77.2059 2.4433 77.1116C6.77614 76.4885 11.1409 75.962 15.492 75.401C20.3676 74.7641 25.2386 74.1042 30.1142 73.4581C33.8267 72.9661 37.5324 72.3844 41.261 72.0372C42.8116 71.8947 44.4171 72.1936 45.9837 72.3936C52.1751 73.1868 58.3597 74.0169 64.5488 74.8354C69.9489 75.5504 75.3512 76.254 80.7399 76.9967C83.4331 77.3668 83.9873 78.052 83.9896 80.7858C83.9972 84.345 83.9994 87.9027 83.9964 91.4588ZM81.5974 79.5166C81.0751 79.5879 80.7057 79.6155 80.3454 79.6937C68.3503 82.2826 56.3552 84.8677 44.3601 87.4489C43.4479 87.6444 43.1423 87.9985 43.1492 88.9618C43.1925 96.0642 43.1697 103.169 43.1765 110.271C43.1765 110.671 43.2267 111.069 43.2609 111.552C43.945 111.412 44.5015 111.31 45.0465 111.193C56.8569 108.641 68.665 106.073 80.4822 103.562C81.3944 103.367 81.6225 103.01 81.6225 102.139C81.5928 94.995 81.6065 87.8513 81.6065 80.7053L81.5974 79.5166ZM40.6749 111.556C40.7467 111.283 40.7962 111.005 40.8231 110.724C40.8231 103.353 40.8231 95.9814 40.8459 88.6078C40.8459 87.8352 40.4674 87.6306 39.8562 87.5041C38.155 87.1546 36.4568 86.7952 34.7617 86.4258C25.421 84.4071 16.0819 82.3876 6.74421 80.3673C5.3577 80.0684 3.96207 79.8063 2.51855 79.5166C2.47087 79.7574 2.43737 80.0007 2.41822 80.2455C2.41822 87.6582 2.41822 95.0709 2.39997 102.484C2.39997 103.173 2.68731 103.387 3.31215 103.518C15.7109 106.174 28.1119 108.85 40.6749 111.556ZM73.5132 78.6912L73.6135 78.5164C71.3719 78.2106 69.1302 77.8957 66.8885 77.5968C60.6629 76.7713 54.4373 75.9873 48.2163 75.1251C44.652 74.6376 41.1332 74.2537 37.5096 74.8561C32.0366 75.7758 26.4951 76.3782 20.9856 77.1162L10.5753 78.5164C10.8589 78.7281 11.1877 78.8699 11.5354 78.9303C20.2855 80.8226 29.0309 82.747 37.7947 84.568C39.7285 84.9704 41.5825 85.6831 43.7238 85.1911C53.6346 82.931 63.5819 80.8479 73.5132 78.6912Z" fill="black"/>
<path d="M41.9366 31.8261C41.8847 31.7598 41.8184 31.7062 41.7428 31.6693C41.6671 31.6324 41.584 31.6133 41.4998 31.6133C41.4156 31.6133 41.3325 31.6324 41.2569 31.6693C41.1812 31.7062 41.1149 31.7598 41.063 31.8261L33.2974 41.651C33.2333 41.7328 33.1936 41.8309 33.1827 41.9341C33.1719 42.0374 33.1902 42.1417 33.2358 42.235C33.2814 42.3283 33.3523 42.4069 33.4404 42.4618C33.5285 42.5167 33.6303 42.5457 33.7342 42.5454H38.8581V59.3525C38.8581 59.6576 39.1077 59.9072 39.4128 59.9072H43.573C43.878 59.9072 44.1276 59.6576 44.1276 59.3525V42.5524H49.2654C49.73 42.5524 49.9865 42.0185 49.7022 41.6579L41.9366 31.8261Z" fill="#A3B5FF"/>
<path d="M62.2592 25.4255C59.0836 17.0497 50.9921 11.0938 41.5139 11.0938C32.0356 11.0938 23.9441 17.0428 20.7686 25.4186C14.8265 26.9786 10.4375 32.3937 10.4375 38.8281C10.4375 46.4897 16.6431 52.6953 24.2978 52.6953H27.0781C27.3832 52.6953 27.6328 52.4457 27.6328 52.1406V47.9805C27.6328 47.6754 27.3832 47.4258 27.0781 47.4258H24.2978C21.9611 47.4258 19.7632 46.4967 18.1269 44.8118C16.4975 43.1339 15.6308 40.8735 15.707 38.53C15.7694 36.6995 16.3935 34.98 17.5236 33.5309C18.6815 32.054 20.304 30.9793 22.1067 30.5009L24.7346 29.8145L25.6983 27.2768C26.2946 25.6959 27.1267 24.219 28.1736 22.8809C29.2072 21.5545 30.4316 20.3886 31.8068 19.421C34.6565 17.4172 38.0124 16.3563 41.5139 16.3563C45.0153 16.3563 48.3712 17.4172 51.2209 19.421C52.6007 20.3917 53.821 21.5565 54.8541 22.8809C55.9011 24.219 56.7331 25.7028 57.3294 27.2768L58.2862 29.8075L60.9071 30.5009C64.6651 31.5132 67.293 34.9314 67.293 38.8281C67.293 41.1231 66.3985 43.2864 64.7761 44.9089C63.9804 45.7092 63.0339 46.3438 61.9913 46.7758C60.9487 47.2078 59.8308 47.4287 58.7022 47.4258H55.9219C55.6168 47.4258 55.3672 47.6754 55.3672 47.9805V52.1406C55.3672 52.4457 55.6168 52.6953 55.9219 52.6953H58.7022C66.3569 52.6953 72.5625 46.4897 72.5625 38.8281C72.5625 32.4007 68.1874 26.9925 62.2592 25.4255Z" fill="#A3B5FF"/>
</svg>
