<svg width="18" height="19" viewBox="0 0 18 19" fill="none" xmlns="http://www.w3.org/2000/svg">
    <path d="M16.3125 0.628906C17.2445 0.628906 18 1.38626 18 2.32054V12.4703C18 13.4046 17.2445 14.162 16.3125 14.162H6.1875C5.25551 14.162 4.5 13.4046 4.5 12.4703V2.32054C4.5 1.38626 5.25551 0.628906 6.1875 0.628906H16.3125ZM6.1875 15.2897C4.63669 15.2897 3.375 14.0249 3.375 12.4703V5.13992H1.6875C0.755508 5.13992 0 5.89728 0 6.83155V16.9813C0 17.9156 0.755508 18.673 1.6875 18.673H11.8125C12.7445 18.673 13.5 17.9156 13.5 16.9813V15.2897H6.1875Z"
          fill="black"/>
</svg>
