<svg width="96" height="93" viewBox="0 0 96 93" fill="none" xmlns="http://www.w3.org/2000/svg">
<path d="M69.9206 19.7793C69.9206 22.7305 67.4856 25.1718 64.4213 25.1718C61.3569 25.1718 58.9219 22.7305 58.9219 19.7793C58.9219 16.828 61.3569 14.3867 64.4213 14.3867C67.4856 14.3867 69.9206 16.828 69.9206 19.7793Z" stroke="#A3B5FF" stroke-width="4"/>
<path d="M93.9284 31.6035C93.9284 34.5547 91.4934 36.996 88.4291 36.996C85.3647 36.996 82.9297 34.5547 82.9297 31.6035C82.9297 28.6522 85.3647 26.2109 88.4291 26.2109C91.4934 26.2109 93.9284 28.6522 93.9284 31.6035Z" stroke="#A3B5FF" stroke-width="4"/>
<path d="M92.7878 7.39254C92.7878 10.3438 90.3528 12.7851 87.2884 12.7851C84.2241 12.7851 81.7891 10.3438 81.7891 7.39254C81.7891 4.44128 84.2241 2 87.2884 2C90.3528 2 92.7878 4.44128 92.7878 7.39254Z" stroke="#A3B5FF" stroke-width="4"/>
<rect width="13.5211" height="3.107" transform="matrix(0.89475 -0.446568 0.456933 0.889501 69.9844 15.9453)" fill="#A3B5FF"/>
<rect width="14.7176" height="3.10527" transform="matrix(0.868494 0.4957 -0.506522 0.862227 70.9219 20.3359)" fill="#A3B5FF"/>
<path d="M4.32292 65.7461C4.32292 65.7461 0.15625 65.7461 0.15625 61.5794C0.15625 57.4128 4.32292 44.9128 25.1562 44.9128C45.9896 44.9128 50.1562 57.4128 50.1562 61.5794C50.1562 65.7461 45.9896 65.7461 45.9896 65.7461H4.32292ZM25.1562 40.7461C28.4715 40.7461 31.6509 39.4291 33.9951 37.0849C36.3393 34.7407 37.6562 31.5613 37.6562 28.2461C37.6562 24.9309 36.3393 21.7515 33.9951 19.4073C31.6509 17.0631 28.4715 15.7461 25.1562 15.7461C21.841 15.7461 18.6616 17.0631 16.3174 19.4073C13.9732 21.7515 12.6562 24.9309 12.6562 28.2461C12.6562 31.5613 13.9732 34.7407 16.3174 37.0849C18.6616 39.4291 21.841 40.7461 25.1562 40.7461Z" fill="#41595F"/>
<path d="M44.0885 92.4922C44.0885 92.4922 39.9219 92.4922 39.9219 88.3255C39.9219 84.1589 44.0885 71.6589 64.9219 71.6589C85.7552 71.6589 89.9219 84.1589 89.9219 88.3255C89.9219 92.4922 85.7552 92.4922 85.7552 92.4922H44.0885ZM64.9219 67.4922C68.2371 67.4922 71.4165 66.1752 73.7607 63.831C76.1049 61.4868 77.4219 58.3074 77.4219 54.9922C77.4219 51.677 76.1049 48.4976 73.7607 46.1534C71.4165 43.8091 68.2371 42.4922 64.9219 42.4922C61.6067 42.4922 58.4272 43.8091 56.083 46.1534C53.7388 48.4976 52.4219 51.677 52.4219 54.9922C52.4219 58.3074 53.7388 61.4868 56.083 63.831C58.4272 66.1752 61.6067 67.4922 64.9219 67.4922Z" fill="#41595F"/>
</svg>
