<svg width="84" height="84" viewBox="0 0 84 84" fill="none" xmlns="http://www.w3.org/2000/svg">
<circle cx="41.9963" cy="42.0002" r="36.5588" stroke="#41595F"/>
<circle cx="42" cy="42" r="40.5" stroke="#41595F" stroke-width="3"/>
<path d="M40.9131 16.1814C41.4878 14.2899 44.1657 14.2899 44.7404 16.1814L49.0519 30.3724C49.3079 31.215 50.0849 31.791 50.9656 31.791H65.1891C67.0939 31.791 67.9203 34.2016 66.4162 35.3703L54.6832 44.4869C54.0288 44.9953 53.7557 45.8547 53.9967 46.6476L58.423 61.2164C58.9901 63.083 56.8227 64.574 55.2822 63.3771L44.0539 54.6527C43.3319 54.0918 42.3216 54.0918 41.5996 54.6527L30.3713 63.3771C28.8308 64.574 26.6634 63.083 27.2305 61.2164L31.6568 46.6476C31.8977 45.8547 31.6247 44.9953 30.9703 44.4869L19.2373 35.3703C17.7332 34.2016 18.5596 31.791 20.4644 31.791H34.6879C35.5686 31.791 36.3456 31.215 36.6016 30.3724L40.9131 16.1814Z" fill="#A3B5FF"/>
</svg>
