<svg width="142" height="158" viewBox="0 0 142 158" fill="none" xmlns="http://www.w3.org/2000/svg">
<rect x="1" y="5" width="111" height="142" fill="white" stroke="black" stroke-width="2"/>
<line x1="11.7031" y1="101.855" x2="99.4573" y2="101.855" stroke="#41595F"/>
<path d="M20.0159 35.0164L20.4881 35.1142C21.6388 35.3525 22.3495 35.6512 22.8878 36.1022C23.4051 36.5356 23.7435 37.0961 24.1667 37.7972C24.1782 37.8161 24.1897 37.8352 24.2012 37.8543L24.2035 37.8581L24.2035 37.8581C24.2609 37.9571 24.3224 38.0673 24.3889 38.1863C24.791 38.9062 25.3749 39.9518 26.3417 40.8294C27.4553 41.8404 29.0818 42.6292 31.5352 42.3587L31.5535 42.3566L31.572 42.3573C33.7471 42.4399 36.4882 41.5959 39.1758 40.4555C41.8541 39.3191 44.4438 37.9043 46.3103 36.874C47.5727 36.1401 48.1635 34.6618 47.7451 33.3314L47.7444 33.3294L47.2003 31.5481L47.1976 31.5393L47.1978 31.5392C47.0511 30.9866 47.1105 30.4683 47.277 30.0832C47.36 29.8912 47.4731 29.7242 47.6095 29.6038C47.7448 29.4844 47.9195 29.3979 48.1143 29.4101C48.2898 29.4211 48.4946 29.5155 48.7027 29.6521C48.9196 29.7943 49.1703 30.0026 49.4428 30.2811C49.9876 30.8381 50.6309 31.6882 51.2751 32.8897C51.6525 33.5395 52.1399 34.0916 52.7382 34.5464L52.7446 34.5513L52.7445 34.5514C53.0994 34.8398 53.4837 35.1044 53.8779 35.3757L53.8822 35.3787C54.272 35.647 54.6715 35.9219 55.0431 36.2239L55.0592 36.2369L55.0729 36.2525C55.0885 36.2701 55.0985 36.2814 55.1055 36.2889C55.1056 36.2889 55.1058 36.289 55.106 36.289C55.1301 36.2917 55.1632 36.2938 55.2202 36.2973L55.6619 36.3241L55.411 36.6886L53.6093 39.3064L53.6026 39.3161L53.6023 39.3159C53.4133 39.5645 53.3402 39.9229 53.4007 40.2662C53.4609 40.608 53.6463 40.8991 53.9308 41.0427L53.9512 41.053L53.9694 41.0668C54.218 41.2559 54.5764 41.329 54.9198 41.2685C55.2615 41.2083 55.5526 41.0229 55.6962 40.7384L55.7044 40.722L55.715 40.707L57.6325 37.9871L57.7596 37.8068L57.9542 37.9104C58.5381 38.221 59.1472 38.5605 59.7537 38.8985L59.7553 38.8994C60.3621 39.2376 60.9663 39.5744 61.5448 39.8822L61.8017 40.0189L61.6279 40.2523L59.8397 42.653L59.8382 42.655C59.6492 42.9035 59.5761 43.2619 59.6366 43.6053C59.6968 43.947 59.8822 44.2381 60.1666 44.3817L60.1871 44.392L60.2053 44.4059C60.4539 44.5949 60.8123 44.668 61.1556 44.6075C61.4974 44.5473 61.7885 44.3619 61.932 44.0774L61.9403 44.061L61.9509 44.046L63.8684 41.3261L63.988 41.1564L64.1768 41.2428C64.6951 41.4802 65.1776 41.7129 65.6444 41.9381C66.438 42.321 67.1862 42.6819 67.9881 43.0063L68.2694 43.1201L68.1038 43.3744L66.5332 45.7869L66.5282 45.7945L66.5227 45.8018C66.3337 46.0504 66.2606 46.4088 66.3211 46.7521C66.3813 47.0939 66.5667 47.385 66.8512 47.5285L66.8716 47.5388L66.8898 47.5527C67.1384 47.7417 67.4968 47.8148 67.8401 47.7544C68.1819 47.6941 68.473 47.5087 68.6166 47.2243L68.6236 47.2103L68.6324 47.1973L70.6788 44.1577L70.7944 43.9859L70.9847 44.0676C72.473 44.7063 73.7752 45.2512 74.7318 45.6378C75.2104 45.8312 75.601 45.9845 75.8847 46.09C76.0267 46.1428 76.1399 46.1829 76.2229 46.2099C76.251 46.219 76.2745 46.2263 76.2939 46.2319C76.3033 46.2346 76.3118 46.237 76.3192 46.239C76.3323 46.2424 76.3395 46.244 76.3421 46.2445L20.0159 35.0164ZM20.0159 35.0164L20.1794 35.3925C20.0649 36.1117 19.949 36.8371 19.8329 37.5643C18.6792 44.7898 17.4988 52.1816 17.3134 55.1523L17.2988 55.3857L17.5308 55.4158C18.6315 55.5584 19.7919 55.716 21.0207 55.883C32.4929 57.4413 49.9354 59.8107 80.628 58.371C81.7463 58.3288 84.8755 57.8912 88.3256 57.1362C91.775 56.3814 95.5854 55.3009 98.0495 53.96L98.1843 53.8867L98.1799 53.7333C98.1617 53.0942 97.9814 52.2663 97.4412 51.5291C96.897 50.7866 96.0026 50.157 94.597 49.8982C94.5965 49.8981 94.5959 49.898 94.5954 49.8979L76.7527 46.39L20.0159 35.0164ZM77.1864 44.0617L77.197 44.0645L77.2077 44.0664L78.1773 44.2355L78.1801 44.236L94.8248 47.5585L94.894 47.5728C97.4674 48.1059 98.9598 49.4163 99.7725 50.8391C100.591 52.2716 100.728 53.8328 100.56 54.8623L100.559 54.8724L100.558 54.8825C100.326 57.7574 98.1988 60.2105 95.3528 62.1607C92.5159 64.1047 89.0158 65.5125 86.145 66.3102C80.1812 67.7855 69.0757 68.9193 56.4008 69.1376C43.7274 69.3559 29.5074 68.6586 17.3225 66.4806L17.3215 66.4805C15.4693 66.1569 14.014 64.8987 13.398 63.0593C12.7813 61.2178 12.9998 58.7681 14.5632 56.075L14.595 56.0203L14.5969 55.957C14.6469 54.2854 15.2349 50.0815 15.8776 45.703C16.0103 44.7989 16.1453 43.8879 16.2781 42.9913C16.7861 39.562 17.2627 36.3445 17.4628 34.5329C17.6421 33.2691 18.9939 32.2602 20.3599 32.543L20.3598 32.5432L20.3689 32.5447C22.3919 32.8863 23.5909 33.469 24.4145 34.1811C25.2152 34.8736 25.6807 35.7028 26.2026 36.6324C26.221 36.6653 26.2395 36.6982 26.2581 36.7313L26.2598 36.7343C26.3039 36.8103 26.349 36.8893 26.3954 36.9706C26.7542 37.5991 27.1914 38.365 27.8546 38.9536C28.6205 39.6334 29.6762 40.0711 31.2312 39.8825C31.376 39.8662 31.5282 39.8515 31.6899 39.8359C32.5628 39.7518 33.7142 39.6409 35.475 39.0974C37.5587 38.4542 40.4932 37.2071 44.8653 34.6885L44.8871 34.6759L44.906 34.6593C44.909 34.6566 44.9123 34.6537 44.9158 34.6507C44.9652 34.6073 45.051 34.532 45.1028 34.4427C45.1343 34.3885 45.1638 34.3125 45.1582 34.2211C45.1538 34.1514 45.13 34.09 45.096 34.0379L44.5658 32.3024C44.1895 30.879 44.5113 29.4742 45.2096 28.444C45.911 27.4092 46.9703 26.7793 48.0562 26.8471L48.0562 26.8473L48.0681 26.8475C49.1172 26.8629 50.1086 27.475 51.0153 28.3882C51.9185 29.2979 52.7053 30.4738 53.3447 31.5461L53.3566 31.5661L53.372 31.5835L54.1879 32.5081L54.2016 32.5236L54.2177 32.5367C54.9416 33.125 55.5728 33.6057 56.4178 34.099C56.5055 34.1804 56.6146 34.2239 56.676 34.2483C56.6807 34.2502 56.6851 34.2519 56.6892 34.2536C56.7316 34.2707 56.759 34.282 56.7816 34.294C56.8007 34.3042 56.8064 34.3098 56.8064 34.3098L57.008 34.5382L57.1926 34.2954L57.6683 33.6697L57.6821 33.6515L57.6925 33.6311C57.836 33.3466 58.1271 33.1612 58.4689 33.101C58.8122 33.0405 59.1706 33.1136 59.4192 33.3026L59.4374 33.3165L59.4579 33.3268C59.7423 33.4704 59.9277 33.7615 59.9879 34.1032C60.0484 34.4466 59.9753 34.8049 59.7863 35.0535L59.7861 35.0534L59.7793 35.0632L59.419 35.587L59.2602 35.8178L59.5075 35.9494C60.086 36.2573 60.6903 36.5941 61.2972 36.9323L61.2986 36.9331C61.9051 37.2712 62.5142 37.6106 63.0981 37.9212L63.3107 38.0344L63.4317 37.8261L63.9213 36.983L63.925 36.9766L63.9283 36.9701C64.0719 36.6856 64.363 36.5002 64.7047 36.44C65.0481 36.3795 65.4065 36.4526 65.6551 36.6416L65.6733 36.6555L65.6937 36.6658C65.9782 36.8094 66.1636 37.1005 66.2238 37.4422C66.2843 37.7856 66.2112 38.144 66.0222 38.3925L66.0127 38.4049L66.0049 38.4184L65.7603 38.8402L65.6222 39.0782L65.8724 39.1929C66.3667 39.4194 66.8382 39.6468 67.2997 39.8694C68.1087 40.2597 68.8871 40.6351 69.7045 40.9653L69.8757 41.0345L69.9922 40.8912L70.5836 40.1634L70.6006 40.1425L70.6127 40.1184C70.7563 39.8339 71.0474 39.6485 71.3892 39.5883C71.7325 39.5278 72.0909 39.6009 72.3395 39.79L72.3577 39.8038L72.3782 39.8142C72.6626 39.9577 72.848 40.2488 72.9082 40.5906C72.9672 40.9254 72.8992 41.2745 72.7205 41.5221L72.5091 41.7086L72.2148 41.9683L72.5746 42.1252C72.9434 42.2861 73.2967 42.4406 73.6322 42.5874C74.3591 42.9054 75.0025 43.1869 75.54 43.4169C76.3177 43.7496 76.8963 43.9845 77.1864 44.0617ZM85.4736 63.7961L85.7188 63.7341L85.7174 63.7287C86.9119 63.3914 88.7285 62.7429 90.5931 61.8707C92.5851 60.939 94.6537 59.742 96.0767 58.3811L95.8187 57.9654C93.2657 58.8912 90.0636 59.6706 87.1951 60.2272C84.3236 60.7845 81.807 61.1146 80.6245 61.148L80.621 61.1481C49.355 62.469 31.3192 59.9477 20.6561 58.4571C19.227 58.2573 17.9303 58.076 16.7519 57.925L16.572 57.9019L16.4943 58.0658C15.9784 59.1534 15.6348 60.516 15.735 61.6712C15.7852 62.2507 15.9489 62.7955 16.2768 63.2245C16.6086 63.6589 17.0945 63.9555 17.7477 64.0567C30.3569 66.2112 44.4211 66.8701 56.7611 66.6294C69.0973 66.3887 79.7309 65.2485 85.4736 63.7961Z" fill="black" stroke="white" stroke-width="0.5"/>
<path d="M27.9427 49.5124L27.9503 49.5133L27.958 49.5138C28.6456 49.5567 29.0851 50.187 29.0363 50.9689C28.9935 51.6544 28.367 52.0933 27.5885 52.0477L22.2964 51.3908C21.9863 51.3239 21.672 51.1198 21.4524 50.8457C21.2303 50.5684 21.1289 50.2514 21.1876 49.9681L21.1912 49.9507L21.1924 49.9329C21.2351 49.2475 21.8616 48.8086 22.6401 48.8542L27.9427 49.5124Z" fill="black" stroke="white" stroke-width="0.5"/>
<line x1="11.7031" y1="112.606" x2="99.4573" y2="112.606" stroke="#41595F"/>
<line x1="11.7031" y1="124.306" x2="99.4573" y2="124.306" stroke="#41595F"/>
<line x1="11.7031" y1="136.007" x2="99.4573" y2="136.007" stroke="#41595F"/>
<path d="M139.964 138.627C141.345 140.045 141.345 141.958 139.964 143.373C135.616 147.827 125.182 157 113 157C100.819 157 90.3852 147.827 86.0364 143.373C85.3646 142.694 85 141.859 85 141C85 140.141 85.3646 139.306 86.0364 138.627C90.3852 134.173 100.819 125 113 125C125.182 125 135.616 134.173 139.964 138.627Z" fill="white" stroke="black" stroke-width="2" stroke-linecap="round" stroke-linejoin="round"/>
<path d="M113.012 147.857C117.838 147.857 121.75 144.787 121.75 141C121.75 137.213 117.838 134.143 113.012 134.143C108.186 134.143 104.273 137.213 104.273 141C104.273 144.787 108.186 147.857 113.012 147.857Z" fill="white" stroke="black" stroke-width="2" stroke-linecap="round" stroke-linejoin="round"/>
</svg>
