<svg width="82" height="80" viewBox="0 0 82 80" fill="none" xmlns="http://www.w3.org/2000/svg">
<path d="M30.5361 39.5883C30.5361 47.6074 23.9378 54.1326 15.7681 54.1326C7.59837 54.1326 1 47.6074 1 39.5883C1 31.5691 7.59837 25.0439 15.7681 25.0439C23.9378 25.0439 30.5361 31.5691 30.5361 39.5883Z" stroke="black" stroke-width="2"/>
<path d="M80.9971 64.4549C80.9971 72.4741 74.3987 78.9992 66.229 78.9992C58.0593 78.9992 51.4609 72.4741 51.4609 64.4549C51.4609 56.4358 58.0593 49.9106 66.229 49.9106C74.3987 49.9106 80.9971 56.4358 80.9971 64.4549Z" stroke="black" stroke-width="2"/>
<path d="M80.5361 15.5443C80.5361 23.5635 73.9378 30.0886 65.7681 30.0886C57.5984 30.0886 51 23.5635 51 15.5443C51 7.52513 57.5984 1 65.7681 1C73.9378 1 80.5361 7.52513 80.5361 15.5443Z" stroke="black" stroke-width="2"/>
<path d="M28 47L53 58.5" stroke="black" stroke-width="2"/>
<path d="M29 32.5L52.5 22" stroke="black" stroke-width="2"/>
</svg>
