<svg width="129" height="63" viewBox="0 0 129 63" fill="none" xmlns="http://www.w3.org/2000/svg">
<path d="M17.804 7.61256C18.2727 4.92156 20.8142 3.10467 23.5121 3.53197L121.973 19.1266C124.7 19.5586 126.561 22.1198 126.129 24.8472L121.071 56.782C120.639 59.5094 118.078 61.3702 115.35 60.9383L16.8914 45.3439C14.193 44.9165 12.3372 42.4023 12.7239 39.6977L13.2904 35.7356C13.75 32.5214 11.5827 29.5203 8.38709 28.9457C6.31443 28.5731 4.87782 26.6679 5.08957 24.5726L5.33927 22.102L6.2016 18.1761C6.65475 16.113 8.59083 14.7238 10.6904 14.9552C13.9086 15.31 16.8481 13.1017 17.4036 9.91205L17.804 7.61256Z" stroke="black" stroke-width="2"/>
<g clip-path="url(#clip0_1538_33701)">
<path d="M35.4403 31.6825C34.804 32.2864 34.1674 32.8919 33.5306 33.4989C31.6895 33.5137 29.8476 33.5533 28.0049 33.6177L28.363 31.3567L29.1524 31.3306L30.5901 22.2529L29.8008 22.279L30.1589 20.018C32.0001 19.9533 33.842 19.9137 35.6846 19.8992C36.1311 20.4985 36.5766 21.0992 37.0212 21.7013L35.4403 31.6825ZM33.4832 31.2415L34.921 22.1638C34.153 22.1715 33.385 22.1836 32.6172 22.2001L31.1796 31.2767C31.9472 31.2617 32.7151 31.25 33.4832 31.2415Z" fill="#231F20"/>
<path d="M44.3653 33.6934C41.9828 33.589 39.5998 33.5251 37.2163 33.5015L37.5744 31.2405L38.3645 31.2466L39.8016 22.1735L39.0115 22.1674L39.3703 19.9018C41.7539 19.9246 44.1369 19.9885 46.5192 20.0936C46.3625 21.083 46.2059 22.0721 46.0493 23.0607C45.373 23.0329 44.6974 23.0053 44.0226 22.9778L44.1344 22.2717C43.3663 22.2453 42.5987 22.2233 41.8316 22.2058L41.2837 25.6652C42.006 25.6844 42.7253 25.7047 43.4418 25.7261L43.0835 27.9883C42.3643 27.9641 41.645 27.9434 40.9256 27.9262L40.3938 31.2835C41.1611 31.3003 41.9287 31.3223 42.6967 31.3495L42.8341 30.482C43.5102 30.5057 44.1858 30.5334 44.8608 30.5649C44.6948 31.6076 44.5297 32.6504 44.3653 33.6934Z" fill="#231F20"/>
<path d="M53.9393 34.3349C52.7394 34.2243 51.5382 34.1265 50.3357 34.0416L50.6938 31.7805L51.558 31.8448L51.4881 30.5076C50.8061 30.4567 50.1243 30.4087 49.4429 30.3634L48.9626 31.6623L49.8197 31.7195L49.4616 33.9805C48.2589 33.8971 47.0574 33.8259 45.8571 33.7667L46.2156 31.5034L46.8813 31.5386C48.2605 27.8009 49.6399 24.0684 51.0198 20.3411C51.7167 20.3872 52.4103 20.4364 53.1008 20.4886C53.2831 24.3268 53.4648 28.1696 53.6456 32.0171L54.302 32.0747L53.9393 34.3349ZM51.3873 28.2168C51.3432 27.3003 51.2997 26.3843 51.2569 25.4689L50.2603 28.1371L51.3873 28.2168Z" fill="#231F20"/>
<path d="M63.1671 33.5248C62.5347 34.0595 61.9023 34.5942 61.2699 35.1289C59.4408 34.8996 57.6092 34.694 55.775 34.5122L56.1339 32.2465L56.9206 32.3259L58.3582 23.2493L57.5715 23.17L57.9296 20.909C59.7639 21.09 61.5955 21.2956 63.4244 21.5257C63.866 22.1956 64.3072 22.8679 64.7481 23.5424L63.1671 33.5248ZM61.2269 32.8139L62.6647 23.7362C61.9018 23.6424 61.1391 23.5525 60.3765 23.4666L58.9389 32.5432C59.7014 32.6298 60.464 32.7201 61.2269 32.8139Z" fill="#231F20"/>
<path d="M67.0919 37.2095L67.2887 35.9669L66.7449 35.8808C66.3056 35.1962 65.8659 34.5139 65.4259 33.8339L65.6283 32.5565C66.2984 32.6531 66.9672 32.7531 67.6347 32.8564L67.5041 33.6809C68.2628 33.8011 69.0215 33.9213 69.7802 34.0414L70.3265 30.5924C69.4351 30.4457 68.5428 30.3044 67.6496 30.1685C67.2102 29.4846 66.7706 28.8023 66.3307 28.1216L67.0062 23.8562L68.8981 22.2857L69.442 22.3718L69.639 21.1281C70.3076 21.234 70.9759 21.3398 71.6438 21.4456L71.4471 22.687L71.9761 22.7708C72.4143 23.4624 72.852 24.1567 73.2893 24.8537L73.087 26.1311C72.4217 26.0138 71.7551 25.8999 71.0872 25.7894L71.2178 24.9649C70.4598 24.8401 69.7011 24.7199 68.9417 24.6044L68.4083 27.9721C69.3013 28.1135 70.1932 28.2572 71.084 28.403C71.5221 29.0954 71.9598 29.7897 72.3973 30.4859L71.7068 34.8453C71.0783 35.3553 70.4496 35.8668 69.8206 36.3798L69.2917 36.2961L69.0967 37.527C68.4281 37.4211 67.7598 37.3153 67.0919 37.2095Z" fill="#231F20"/>
<path d="M82.6481 27.9747C81.9883 27.8274 81.3277 27.6831 80.6662 27.5418L80.7862 26.7847L79.9321 26.6042L78.4942 35.683L79.0541 35.8015L78.6963 38.0602C77.6622 37.8408 76.6257 37.6294 75.5868 37.426L75.9456 35.1603L76.5079 35.2708L77.9448 26.1989L77.0878 26.0299L76.9679 26.787C76.3044 26.6581 75.6401 26.5323 74.9749 26.4095L75.4531 23.3901C78.0205 23.8634 80.5782 24.3852 83.1263 24.9554L82.6481 27.9747Z" fill="#231F20"/>
<path d="M89.3435 38.7218C88.7224 39.1853 88.1037 39.6511 87.4873 40.1193C86.4812 39.8616 85.4737 39.6104 84.4647 39.3656C84.0327 38.6353 83.6003 37.9074 83.1675 37.1817L84.7484 27.2005C85.3721 26.7208 85.9955 26.2429 86.6185 25.7671C87.6283 26.0064 88.6358 26.2576 89.6411 26.5208C90.0719 27.2588 90.4997 27.9984 90.9246 28.7394L89.3435 38.7218ZM87.4528 37.7581L88.8904 28.6815C88.146 28.4906 87.4008 28.3047 86.6549 28.1239L85.2173 37.2004C85.9633 37.3813 86.7084 37.5672 87.4528 37.7581Z" fill="#231F20"/>
<path d="M97.6465 41.1118C97.0341 41.5545 96.4215 41.9991 95.8085 42.4456C94.8139 42.1452 93.8176 41.8525 92.8198 41.5675C92.3912 40.8155 91.9658 40.0657 91.5435 39.3179L93.1253 29.3309C93.7455 28.8736 94.3622 28.4157 94.9754 27.9573C95.974 28.2425 96.9703 28.5352 97.9642 28.8354C98.3861 29.5951 98.8078 30.3563 99.2292 31.119L98.8747 33.3568C98.2297 33.1562 97.583 32.9586 96.9347 32.7638L97.2156 30.9905C96.4807 30.7694 95.7439 30.5527 95.0052 30.3405L93.5675 39.4182C94.3054 39.6303 95.0422 39.8466 95.778 40.0671L96.0607 38.2822C96.7084 38.4761 97.3551 38.6733 98.0009 38.874L97.6465 41.1118Z" fill="#231F20"/>
<path d="M108.566 34.7548L107.886 34.5055C106.819 35.7213 105.747 36.9403 104.671 38.1627C105.266 39.964 105.859 41.7709 106.45 43.5834L107.061 43.8064L106.703 46.0674C105.569 45.6554 104.433 45.2536 103.294 44.8621L103.652 42.6022L104.152 42.7742C103.836 41.8052 103.515 40.837 103.191 39.8698L102.619 40.5172L102.358 42.1616L103.113 42.4169L102.755 44.6779C101.614 44.2893 100.47 43.9097 99.3231 43.5391L99.6809 41.2804L100.433 41.5186L101.87 32.4467L101.118 32.2085L101.477 29.9429C102.623 30.3118 103.767 30.6914 104.909 31.0817L104.551 33.3427L103.796 33.0862L103.279 36.3494C104.05 35.463 104.821 34.58 105.591 33.7004L105.161 33.5512L105.519 31.2879C106.658 31.6802 107.794 32.0823 108.927 32.4942L108.566 34.7548Z" fill="#231F20"/>
<path d="M108.452 43.7026C108.578 43.5074 108.742 43.34 108.933 43.2109C109.124 43.0855 109.337 42.998 109.561 42.9531C110.022 42.8564 110.502 42.9324 110.912 43.1671C111.11 43.279 111.285 43.428 111.429 43.6062C111.576 43.7963 111.682 44.0159 111.74 44.2506C111.798 44.4854 111.806 44.7301 111.765 44.9688C111.731 45.21 111.647 45.4415 111.519 45.6483C111.392 45.8551 111.222 46.0325 111.023 46.1691C110.832 46.2956 110.619 46.3831 110.395 46.4268C109.933 46.5204 109.455 46.4445 109.044 46.2128C108.845 46.1023 108.669 45.9532 108.527 45.7738C108.385 45.5907 108.282 45.3804 108.222 45.1553C108.162 44.91 108.152 44.6547 108.191 44.4046C108.231 44.1546 108.32 43.915 108.453 43.7003L108.452 43.7026ZM108.679 45.048C108.718 45.2217 108.789 45.3862 108.889 45.5324C108.987 45.6755 109.113 45.7968 109.259 45.8885C109.41 45.9824 109.578 46.045 109.753 46.0727C109.928 46.1005 110.107 46.0929 110.28 46.0503C110.447 46.0075 110.604 45.9312 110.742 45.8258C110.882 45.7174 111.001 45.5831 111.092 45.4301C111.289 45.0964 111.352 44.6992 111.268 44.3211C111.228 44.1488 111.156 43.9859 111.056 43.8411C110.957 43.6994 110.831 43.5791 110.686 43.4873C110.535 43.3935 110.367 43.3309 110.192 43.3031C110.016 43.2753 109.837 43.283 109.665 43.3256C109.498 43.3675 109.341 43.443 109.203 43.5477C109.064 43.6542 108.945 43.7871 108.855 43.939C108.663 44.2743 108.6 44.6696 108.679 45.048ZM110.173 43.7013C110.372 43.7206 110.56 43.7972 110.717 43.922C110.777 43.9846 110.821 44.0621 110.843 44.147C110.865 44.2318 110.864 44.3211 110.842 44.406C110.831 44.4856 110.806 44.5624 110.766 44.6321C110.731 44.6887 110.684 44.7362 110.627 44.7708C110.573 44.805 110.512 44.8282 110.45 44.8391C110.381 44.8517 110.312 44.8555 110.242 44.8503L110.627 45.7945L110.223 45.7305L109.887 44.8214L109.644 44.7829L109.51 45.626L109.125 45.5649L109.437 43.5907L110.173 43.7013ZM110.043 44.5258C110.136 44.5438 110.231 44.5424 110.324 44.5216C110.401 44.5016 110.448 44.4318 110.467 44.3122C110.477 44.2672 110.471 44.2202 110.45 44.1796C110.429 44.1436 110.401 44.1132 110.366 44.0914C110.328 44.0669 110.286 44.0478 110.242 44.0349C110.198 44.0219 110.152 44.0115 110.107 44.0038L109.776 43.9514L109.693 44.4705L110.043 44.5258Z" fill="#231F20"/>
</g>
<defs>
<clipPath id="clip0_1538_33701">
<rect width="84.4986" height="18.8497" fill="white" transform="translate(30.9531 15) rotate(9)"/>
</clipPath>
</defs>
</svg>
