<svg width="24" height="22" viewBox="0 0 24 22" fill="none" xmlns="http://www.w3.org/2000/svg">
    <path d="M12 19.4736C16.6318 19.4736 20.4668 15.6304 20.4668 11.0068C20.4668 6.375 16.6235 2.54004 11.9917 2.54004C7.36816 2.54004 3.5332 6.375 3.5332 11.0068C3.5332 15.6304 7.37646 19.4736 12 19.4736ZM9.21094 14.4932C8.8291 14.4932 8.53027 14.186 8.53027 13.8042C8.53027 13.6216 8.59668 13.4473 8.72949 13.3228L11.0288 11.0151L8.72949 8.71582C8.59668 8.58301 8.53027 8.41699 8.53027 8.23438C8.53027 7.84424 8.8291 7.55371 9.21094 7.55371C9.40186 7.55371 9.55127 7.62012 9.68408 7.74463L12 10.0522L14.3325 7.73633C14.4736 7.59521 14.623 7.53711 14.8057 7.53711C15.1875 7.53711 15.4946 7.83594 15.4946 8.21777C15.4946 8.40869 15.4365 8.55811 15.2871 8.70752L12.9795 11.0151L15.2788 13.3145C15.4199 13.439 15.4863 13.6133 15.4863 13.8042C15.4863 14.186 15.1792 14.4932 14.7891 14.4932C14.5981 14.4932 14.4238 14.4268 14.2993 14.2939L12 11.9863L9.70898 14.2939C9.57617 14.4268 9.40186 14.4932 9.21094 14.4932Z"
          fill="#3C3C43" fill-opacity="0.6"/>
</svg>