<svg width="19" height="19" viewBox="0 0 19 19" fill="none" xmlns="http://www.w3.org/2000/svg">
    <path d="M11.2004 15.0989H8.76512V17.7234C8.76512 18.3589 9.22851 18.9277 9.86109 18.9893C10.0304 19.0061 10.2013 18.9872 10.3629 18.934C10.5244 18.8807 10.6731 18.7943 10.7992 18.6801C10.9254 18.566 11.0262 18.4268 11.0953 18.2713C11.1644 18.1159 11.2002 17.9477 11.2004 17.7776V15.0989Z" fill="#1E87C1"/>
    <path d="M8.76734 9.25338V15.099H1.46104C0.655204 15.099 0 14.4453 0 13.1668V9.36023C0 6.98577 1.84095 4.96191 4.21542 4.87101C4.27144 4.86841 4.32672 4.86841 4.38089 4.86841H4.38348C4.95947 4.86769 5.52988 4.98127 6.06166 5.20258C6.59343 5.42388 7.07601 5.74852 7.48142 6.15767C7.58118 6.2546 7.67544 6.35704 7.76376 6.4645C8.41342 7.24857 8.76843 8.23514 8.76734 9.25338Z" fill="#50B9FF"/>
    <path d="M6.0829 10.2286H2.67368C2.60908 10.2286 2.54713 10.2029 2.50145 10.1573C2.45578 10.1116 2.43011 10.0496 2.43011 9.98502C2.43011 9.92043 2.45578 9.85847 2.50145 9.81279C2.54713 9.76712 2.60908 9.74146 2.67368 9.74146H6.08327C6.14786 9.74146 6.20982 9.76712 6.25549 9.81279C6.30117 9.85847 6.32683 9.92043 6.32683 9.98502C6.32683 10.0496 6.30117 10.1116 6.25549 10.1573C6.20982 10.2029 6.14786 10.2286 6.08327 10.2286H6.0829Z" fill="#1E87C1"/>
    <path d="M6.0829 12.1763H2.67368C2.60908 12.1763 2.54713 12.1507 2.50145 12.105C2.45578 12.0593 2.43011 11.9974 2.43011 11.9328C2.43011 11.8682 2.45578 11.8062 2.50145 11.7605C2.54713 11.7149 2.60908 11.6892 2.67368 11.6892H6.08327C6.14786 11.6892 6.20982 11.7149 6.25549 11.7605C6.30117 11.8062 6.32683 11.8682 6.32683 11.9328C6.32683 11.9974 6.30117 12.0593 6.25549 12.105C6.20982 12.1507 6.14786 12.1763 6.08327 12.1763H6.0829Z" fill="#1E87C1"/>
    <path d="M18.9965 9.25409V13.6376C18.9964 14.0251 18.8424 14.3968 18.5685 14.671C18.2945 14.9451 17.923 15.0993 17.5354 15.0997H8.76808V9.25409C8.76961 8.2362 8.41526 7.24981 7.76635 6.46558C7.67803 6.35812 7.58377 6.25568 7.48401 6.15875C7.07448 5.7481 6.58726 5.42312 6.05078 5.20278C5.5143 4.98245 4.93931 4.87116 4.35937 4.87543C4.36901 4.87543 4.37384 4.87061 4.38385 4.87061H14.613C15.7755 4.8707 16.8904 5.33257 17.7125 6.15461C18.5345 6.97665 18.9964 8.09155 18.9965 9.25409Z" fill="#38A7E5"/>
    <path d="M10.9656 8.27957C10.901 8.27957 10.8391 8.25393 10.7935 8.20829C10.7478 8.16265 10.7222 8.10074 10.7222 8.03619V3.1652C10.7222 3.1006 10.7479 3.03865 10.7935 2.99297C10.8392 2.94729 10.9012 2.92163 10.9658 2.92163C11.0304 2.92163 11.0923 2.94729 11.138 2.99297C11.1837 3.03865 11.2093 3.1006 11.2093 3.1652V8.03619C11.2093 8.06818 11.203 8.09986 11.1908 8.12942C11.1785 8.15897 11.1606 8.18582 11.1379 8.20842C11.1153 8.23103 11.0884 8.24894 11.0588 8.26115C11.0293 8.27336 10.9976 8.27962 10.9656 8.27957Z" fill="#1E87C1"/>
    <path d="M14.6189 0H11.6965C11.4382 0.000294586 11.1905 0.103035 11.0079 0.285683C10.8252 0.468331 10.7225 0.71597 10.7222 0.974273V3.40958H14.6178C14.8762 3.40949 15.1241 3.30683 15.3069 3.12416C15.4897 2.94149 15.5925 2.69374 15.5928 2.43531V0.974273C15.5925 0.716034 15.4898 0.468451 15.3073 0.285814C15.1247 0.103177 14.8772 0.00039274 14.6189 0V0Z" fill="#F7818F"/>
    <g opacity="0.06">
        <path opacity="0.06" d="M18.9957 10.9587V13.6378C18.9956 14.0254 18.8417 14.397 18.5678 14.6712C18.2938 14.9454 17.9222 15.0996 17.5347 15.1H1.46104C0.655204 15.1 0 14.4462 0 13.1677V10.9587H18.9957Z" fill="black"/>
    </g>
</svg>