<svg width="32" height="20" viewBox="0 0 32 20" fill="none" xmlns="http://www.w3.org/2000/svg">
    <path d="M28 2.37512L21.9793 3.37967L24.9793 11.3797L29 8.37427L28 2.37512Z" fill="#F7B685"/>
    <path d="M23.03 13.2009C18.2688 18.0051 14.6285 18.862 14.6285 18.862L10.3359 13.5906L16.683 6.8728C16.683 6.8728 25.0233 9.06976 23.03 13.2009Z" fill="#E09D6A"/>
    <path d="M11.581 17.8139L7.79377 15.7672L5.98438 11.1542L8.59006 3.93272C8.59006 3.93272 11.7213 3.42818 13.0959 3.54182C14.4705 3.65545 16.5745 4.50851 16.5745 4.50851L14.3863 7.89181C14.3863 7.89181 15.4804 8.00554 16.9953 8.37511C18.5101 8.74468 21.3368 11.5909 22.7958 13.4437C22.9796 13.6529 23.2617 13.8685 23.355 14.0254C23.698 14.6046 23.2742 15.3167 22.6431 15.5328L22.6314 15.5368C22.2408 15.6673 21.7797 15.5131 21.1893 15.1678C20.0201 14.4147 18.6525 12.877 18.5786 12.9304C18.4974 12.9891 20.908 15.2295 21.1173 15.4911C21.7338 16.1647 21.8768 16.4283 21.2316 17.0254C20.5864 17.6224 19.8694 17.2052 18.9898 16.6313C17.719 15.8023 16.7909 14.7106 16.7343 14.7737C16.6502 14.8675 18.6601 16.4547 19.3377 17.1955C19.686 17.5761 19.4728 18.027 19.0851 18.3661C18.863 18.5603 18.5464 18.6731 18.1796 18.6447C17.0795 18.5104 14.6992 16.4775 14.6108 16.5905C14.5224 16.7036 16.7241 17.9767 16.9066 18.6269C17.3971 18.8994 16.8068 19.4247 16.1737 19.6243C15.9246 19.7019 15.6601 19.7134 15.4053 19.6578C13.8913 19.333 11.581 17.8139 11.581 17.8139Z" fill="#D49464"/>
    <path d="M11.7328 17.664L7.94558 15.6173L5 11.267L8.0859 3.74554C8.0859 3.74554 11.873 3.27788 13.2476 3.39161C14.6223 3.50533 16.7263 4.3583 16.7263 4.3583L14.5385 7.7416C14.5385 7.7416 15.6326 7.85533 17.1475 8.2249C18.6623 8.59447 21.4889 11.4406 22.948 13.2935C23.1317 13.5026 23.2649 13.6781 23.3581 13.8354C23.7011 14.4142 23.4264 15.1665 22.7953 15.3826L22.7836 15.3865C22.393 15.5171 21.9757 15.3038 21.3853 14.9586C20.2161 14.2055 18.8047 12.7267 18.7308 12.7801C18.6496 12.8389 20.6837 14.6377 20.8927 14.8993C21.5092 15.5729 22.029 16.278 21.3838 16.8752C20.7386 17.4723 20.0801 17.0007 19.2002 16.4272C17.9294 15.5981 16.9425 14.5604 16.8864 14.6235C16.8024 14.7172 18.6271 16.1558 19.3048 16.8966C19.653 17.2772 19.625 17.8768 19.2372 18.2159C19.0151 18.4101 18.6986 18.5229 18.3322 18.4945C17.2319 18.3602 14.8517 16.3273 14.7633 16.4403C14.6749 16.5534 16.8766 17.8265 17.0591 18.4766C17.3705 19.1548 16.5656 19.574 15.8284 19.5535C14.337 19.3763 11.7328 17.664 11.7328 17.664Z" fill="#F7B685"/>
    <path d="M17.0461 8.20156C16.1118 7.98917 14.5381 7.74163 14.5381 7.74163L16.7263 4.35833C16.7263 4.35833 14.6223 3.50556 13.2476 3.39163C11.873 3.27771 7.94558 3.39214 7.94558 3.39214L5 11.3738C5 11.3738 6.59087 14.3807 7.94558 15.617C9.30029 16.8534 9.7162 16.5741 9.7162 16.5741C9.7162 16.5741 13.7641 18.2578 13.0339 15.5788C13.0274 15.555 13.0267 15.5299 13.0318 15.5057C13.0369 15.4816 13.0477 15.459 13.0632 15.44C13.0788 15.4209 13.0987 15.406 13.1212 15.3964C13.1436 15.3868 13.1681 15.3829 13.1924 15.3849C15.5644 15.5853 15.1218 13.8744 14.8698 13.2204C14.8603 13.1959 14.8572 13.1694 14.8608 13.1434C14.8644 13.1173 14.8745 13.0926 14.8902 13.0717C14.9059 13.0507 14.9266 13.0342 14.9503 13.0237C14.9741 13.0132 15.0002 13.0091 15.026 13.0117C15.6295 13.0722 17.0328 13.0359 16.6657 11.3081C16.6607 11.2845 16.6612 11.2601 16.6672 11.2368C16.6733 11.2135 16.6846 11.1919 16.7004 11.1739C16.7162 11.1559 16.7359 11.1418 16.758 11.133C16.7801 11.1241 16.804 11.1207 16.8277 11.1229C18.5715 11.2857 19.5435 10.0576 18.6481 9.05028C18.3861 8.75553 17.8393 8.47681 17.2467 8.26065C17.1811 8.23674 17.1141 8.21701 17.0461 8.20156Z" fill="#FFC394"/>
    <path d="M8.69027 14.9004C9.22373 13.9053 8.55004 12.8107 6.89487 13.3364C5.99713 13.6633 5.66057 14.7579 5.66057 14.7579C5.66057 14.7579 5.52025 16.1794 6.83877 16.0373C8.15728 15.8952 8.69027 14.9004 8.69027 14.9004Z" fill="#E09D6A"/>
    <path d="M8.5262 15.0342C9.05967 14.0391 8.38598 12.9445 6.73081 13.4701C5.83307 13.7971 5.49651 14.8917 5.49651 14.8917C5.49651 14.8917 5.35619 16.3133 6.6747 16.1711C7.99322 16.0289 8.5262 15.0342 8.5262 15.0342Z" fill="#F7B685"/>
    <path opacity="0.63" d="M6.95099 13.9545C6.77247 13.9762 6.60481 14.1637 6.48326 14.3426C6.21795 14.7331 6.36894 15.2733 6.79762 15.4625C6.84756 15.4844 6.89886 15.5029 6.95118 15.5181C6.95118 15.5181 7.48464 15.646 7.84883 15.1911C8.21301 14.7362 7.30165 13.9119 6.95099 13.9545Z" fill="#FFE0C7"/>
    <path d="M8.99104 15.1066C8.57704 15.2686 8.16084 15.5746 7.91621 15.7728C7.83423 15.839 7.76688 15.9219 7.71854 16.0162C7.6702 16.1104 7.64193 16.2139 7.63557 16.32C7.61061 16.7423 7.73788 17.395 8.7386 17.4735C8.7386 17.4735 9.86411 17.5694 10.4322 16.8978C11.3264 15.6823 9.6353 14.8544 8.99104 15.1066Z" fill="#E09D6A"/>
    <path d="M8.80354 15.2345C8.38954 15.3965 7.97334 15.7025 7.72871 15.9007C7.64675 15.9669 7.57943 16.0499 7.53109 16.1441C7.48275 16.2384 7.45446 16.3419 7.44807 16.4479C7.42311 16.8703 7.55038 17.5229 8.5511 17.6015C8.5511 17.6015 9.67661 17.6975 10.2447 17.0258C11.1391 15.8102 9.4478 14.9824 8.80354 15.2345Z" fill="#F7B685"/>
    <path opacity="0.63" d="M8.40601 16.0759C8.16405 16.0438 7.94314 16.0566 7.87998 16.3967C7.83321 16.6489 8.12451 16.9918 8.39639 17.1853C8.47007 17.2377 8.55477 17.272 8.64378 17.2854C8.73279 17.2988 8.82366 17.291 8.90918 17.2626C9.04141 17.2188 9.19344 17.1473 9.27908 17.0353C9.46846 16.5986 8.64788 16.1082 8.40601 16.0759Z" fill="#FFE0C7"/>
    <path d="M12.021 18.1664C12.5891 17.3882 11.1202 16.5672 10.6535 16.8125C10.1867 17.0577 9.82239 17.3338 9.73828 17.5366C9.65416 17.7393 9.58052 18.7739 10.685 18.8592C10.685 18.8594 11.453 18.9447 12.021 18.1664Z" fill="#E09D6A"/>
    <path d="M11.9194 18.2943C12.4874 17.5161 11.0186 16.6952 10.5519 16.9404C10.0852 17.1856 9.72084 17.4617 9.63673 17.6645C9.55261 17.8672 9.47888 18.9018 10.5834 18.9871C10.5834 18.9873 11.3513 19.0727 11.9194 18.2943Z" fill="#F7B685"/>
    <path opacity="0.63" d="M10.9908 18.4543C11.2011 18.2304 10.4859 17.644 10.2438 17.6654C10.1531 17.6734 10.0906 17.7308 10.0477 17.7996C9.96434 17.9332 9.96453 18.1031 10.0409 18.241C10.1106 18.3665 10.226 18.5191 10.3911 18.5609C10.6857 18.6355 10.7803 18.6782 10.9908 18.4543Z" fill="#FFE0C7"/>
    <path d="M12.3906 17.8776C12.366 17.8918 11.7098 18.312 11.8066 18.692C11.9242 19.1538 12.4181 19.6901 13.0179 19.6543C13.5221 19.6243 13.8604 19.2175 13.9139 18.8989C14.0714 17.9107 12.7871 17.6493 12.3906 17.8776Z" fill="#E09D6A"/>
    <path d="M12.289 17.986C12.2644 18.0002 11.6083 18.4204 11.705 18.8005C11.8226 19.2622 12.3165 19.7985 12.9163 19.7628C13.4205 19.7326 13.7589 19.3259 13.8123 19.0073C13.9698 18.0193 12.6857 17.7576 12.289 17.986Z" fill="#F7B685"/>
    <path d="M25 11.3748C24.6774 10.4931 22 3.37476 22 3.37476C22 3.37476 14.4792 3.76052 13.2447 4.77289C12.7426 5.18803 12.1239 6.44832 11.8995 7.85564C11.6985 8.39866 11.4636 8.92821 11.1965 9.44109C11.1615 9.50783 11.1489 9.58425 11.1604 9.65889C11.1719 9.73353 11.2071 9.80236 11.2605 9.85507C11.7039 10.2926 12.8785 11.2273 13.9087 10.0848C14.8511 9.0693 14.8172 7.95257 14.8172 7.95257C14.8172 7.95257 16.2399 8.68544 17.403 7.49968C17.5326 7.77898 17.2709 8.04573 17.8922 8.54438C19.6278 9.38924 19.8527 10.585 21.171 10.4428C21.0653 10.6187 21.0673 10.835 21.1392 11.0694C21.8555 11.7508 22.5269 12.4873 23.0316 13.2004C23.2191 12.8534 24.0649 12.0632 25 11.3748Z" fill="#F7B685"/>
    <path opacity="0.63" d="M11.9389 18.7888C11.9389 18.7888 11.8986 19.0854 12.2438 19.3681C12.5889 19.6508 12.9487 19.5444 12.9487 19.5444C12.2439 19.3681 11.9389 18.7888 11.9389 18.7888Z" fill="#FFE0C7"/>
    <path opacity="0.63" d="M12.2507 8.18783C12.2718 8.01019 11.9008 7.8562 11.9008 7.8562C11.6246 8.65221 10.9719 9.65443 11.1578 9.66863C11.3454 9.64613 11.7071 9.66496 11.8722 9.48152C12.2287 9.08511 12.2368 8.30938 12.2507 8.18783Z" fill="#FFE0C7"/>
    <path d="M29 8.37476C28.6774 7.49311 28.5 7.37476 28.5 7.37476C25.7862 8.85352 18.4151 7.64507 17.7205 6.93982C17.6984 6.91727 17.6719 6.89969 17.6426 6.88819C17.6134 6.87669 17.582 6.87154 17.5507 6.87307C17.5194 6.87459 17.4887 6.88277 17.4607 6.89706C17.4326 6.91135 17.4079 6.93145 17.388 6.95604C16.5081 8.05172 15.2647 7.69451 14.6927 7.44426C14.6626 7.43093 14.6297 7.42533 14.597 7.42794C14.5642 7.43056 14.5326 7.44131 14.5049 7.45925C14.4772 7.4772 14.4543 7.50177 14.4382 7.53082C14.4222 7.55986 14.4134 7.59247 14.4127 7.62577C14.4062 7.98935 14.2956 8.62558 13.7522 9.43385C12.8826 10.7275 11.2578 9.85536 11.2578 9.85536C11.7013 10.2929 12.8758 11.2276 13.9061 10.0851C14.8484 9.06958 14.8146 7.95286 14.8146 7.95286C14.8146 7.95286 16.2372 8.68572 17.4004 7.49997C17.5105 7.73747 17.3378 7.96589 17.6657 8.33556C17.768 8.44953 17.8901 8.54363 18.0258 8.61322C19.6378 9.45258 19.8855 10.5815 21.1686 10.4431C21.0629 10.619 21.0649 10.8353 21.1368 11.0697C21.8532 11.7512 22.4685 12.6108 22.9732 13.3239C23.1604 12.9771 28.0649 9.06321 29 8.37476Z" fill="#E09D6A"/>
    <path d="M0 7.37427L5 11.3743L8 3.37427L3.5 2.37427L0 7.37427Z" fill="#FFC394"/>
</svg>