<svg width="16" height="18" viewBox="0 0 16 18" fill="none" xmlns="http://www.w3.org/2000/svg">
    <rect y="1.80957" width="16" height="16.1902" rx="4" fill="white"/>
    <path d="M0 5.80957C0 3.60043 1.79086 1.80957 4 1.80957H12C14.2091 1.80957 16 3.60043 16 5.80957V7.47615H0V5.80957Z" fill="#F54337"/>
    <ellipse cx="5.0514" cy="3.42859" rx="1.68421" ry="1.61902" fill="#C12B2C"/>
    <ellipse cx="10.942" cy="3.42859" rx="1.68421" ry="1.61902" fill="#C12B2C"/>
    <path d="M5.05469 1C5.05469 2.51109 5.05469 3.24864 5.05469 3.42854" stroke="#424242" stroke-width="2" stroke-linecap="round"/>
    <path d="M10.9453 1C10.9453 2.51109 10.9453 3.24864 10.9453 3.42854" stroke="#424242" stroke-width="2" stroke-linecap="round"/>
    <rect x="6.74219" y="8.2854" width="2.52632" height="2.42854" fill="#D9D9D9"/>
    <rect x="2.53125" y="8.2854" width="2.52632" height="2.42854" fill="#D9D9D9"/>
    <rect x="10.9453" y="8.2854" width="2.52632" height="2.42854" fill="#D9D9D9"/>
    <rect x="6.74219" y="13.1438" width="2.52632" height="2.42854" fill="#D9D9D9"/>
    <rect x="2.53125" y="13.1438" width="2.52632" height="2.42854" fill="#D9D9D9"/>
    <rect x="10.9453" y="13.1438" width="2.52632" height="2.42854" fill="#D9D9D9"/>
</svg>