<svg width="14" height="19" viewBox="0 0 14 19" fill="none" xmlns="http://www.w3.org/2000/svg">
    <line x1="1.5" y1="1.5" x2="12.5" y2="1.5" stroke="#1E87C1" stroke-width="3" stroke-linecap="round"/>
    <path d="M11.6667 16.7307C8.16667 16.7307 8.994 16.7307 6.41667 16.7307C3.83934 16.7307 7 16.7307 2.33334 16.7307C2.33334 13.21 4.42267 9.86548 7 9.86548C9.57733 9.86548 11.6667 13.21 11.6667 16.7307Z" fill="#DADADA"/>
    <path d="M2.33333 3.00023C5.83333 3.00023 5.006 3.00023 7.58333 3.00023C10.1607 3.00023 7 3.00023 11.6667 3.00023C11.6667 6.7918 9.57733 9.86548 7 9.86548C4.42267 9.86548 2.33333 6.7918 2.33333 3.00023Z" fill="#DADADA"/>
    <path d="M5 5.28788C8 5.28788 3.29086 5.28788 5.5 5.28788C7.70914 5.28788 4 5.28788 8 5.28788C10 5.28777 8.5 5.28788 10.5 5.28788C9.80838 7.57765 8.48444 8.72046 7.00388 8.72046C5.52331 8.72046 3.96099 6.9624 3.5 5.28788C5 5.28788 5.5 5.28788 5 5.28788Z" fill="white"/>
    <path d="M7 11.0105C6.44332 13.1705 5.9962 14.24 4.66666 15.5873H9.33333C7.78266 14.2304 7.47627 13.1364 7 11.0105Z" fill="white"/>
    <line x1="1.5" y1="17.25" x2="12.5" y2="17.25" stroke="#1E87C1" stroke-width="3" stroke-linecap="round"/>
</svg>