<svg width="33" height="22" viewBox="0 0 33 22" fill="none" xmlns="http://www.w3.org/2000/svg">
    <rect x="2.04672" y="6.72144" width="8.48532" height="1.57136" rx="0.785678" fill="#F7818F"/>
    <rect x="2.04672" y="15.207" width="8.48532" height="1.57136" rx="0.785678" fill="#F7818F"/>
    <rect y="10.9648" width="8.95673" height="1.57136" rx="0.785678" fill="#F7818F"/>
    <path d="M23.5714 9.48113L14.1429 4.76685V16.8911L23.5714 21.6036V9.48113Z" fill="#FFC350"/>
    <path d="M23.5714 9.48113L33 4.76685V16.8911L23.5714 21.6036V9.48113Z" fill="#FFD164"/>
    <path d="M28.9592 14.3572L32.3265 12.8486V16.7284L28.9592 18.2364V14.3572Z" fill="#FFD164" stroke="#E1E1E1" stroke-width="0.5"/>
    <path d="M23.5714 9.48118L14.1429 4.81179L23.5714 0.726074L33 4.81179L23.5714 9.48118Z" fill="#FFE17D"/>
    <path d="M19.9843 2.18155L29.6269 6.45034L28.28 7.12381L18.8569 2.74632L19.9843 2.18155Z" fill="#D9D9D9"/>
</svg>