<svg width="17" height="17" viewBox="0 0 17 17" fill="none" xmlns="http://www.w3.org/2000/svg">
    <rect width="17" height="17" rx="3" fill="url(#paint0_linear_21_48931)"/>
    <path d="M2.92816 7.98489C3.01267 7.06417 3.32754 6.15174 3.88909 5.33595C5.63662 2.79727 9.11128 2.15591 11.65 3.90343C12.301 4.35155 12.8272 4.91325 13.2204 5.54361C13.3323 5.72307 13.4335 5.90809 13.5237 6.09765M3.19117 10.2643C3.56071 11.3761 4.28211 12.3813 5.32162 13.0968C7.8603 14.8443 11.335 14.203 13.0825 11.6643C13.5437 10.9943 13.8385 10.2592 13.9759 9.50781" stroke="white" stroke-width="2"/>
    <path d="M3.03083 9.14575L1.11051 6.92836L4.95115 6.92836L3.03083 9.14575Z" fill="white"/>
    <path d="M14.0217 7.39282L15.942 9.61021H12.1014L14.0217 7.39282Z" fill="white"/>
    <defs>
        <linearGradient id="paint0_linear_21_48931" x1="8.5" y1="0" x2="8.5" y2="17" gradientUnits="userSpaceOnUse">
            <stop stop-color="#50B9FF"/>
            <stop offset="1" stop-color="#1E87C1"/>
        </linearGradient>
    </defs>
</svg>