<svg width="14" height="14" viewBox="0 0 14 14" fill="none" xmlns="http://www.w3.org/2000/svg">
    <path d="M6.7685 1.22963C6.8531 1.02218 7.14687 1.02218 7.23147 1.22963L8.69509 4.81842C8.80408 5.08567 9.05676 5.26667 9.34487 5.28387L13.2939 5.51958C13.5225 5.53323 13.614 5.82161 13.435 5.96451L10.4091 8.38018C10.1763 8.56597 10.0756 8.87187 10.1523 9.15961L11.1373 12.8522C11.1955 13.0705 10.9571 13.248 10.7647 13.1295L7.39314 11.0541C7.15205 10.9057 6.84792 10.9057 6.60683 11.0541L3.23529 13.1295C3.04283 13.248 2.80444 13.0705 2.86268 12.8522L3.84765 9.15961C3.9244 8.87187 3.82364 8.56597 3.59091 8.38018L0.565008 5.96451C0.386 5.82161 0.477437 5.53323 0.706087 5.51958L4.6551 5.28387C4.94321 5.26667 5.19589 5.08567 5.30488 4.81842L6.7685 1.22963Z" stroke="#313131" stroke-width="0.5"/>
</svg>