<svg width="27" height="25" viewBox="0 0 27 25" fill="none" xmlns="http://www.w3.org/2000/svg">
    <path d="M18.1027 21.5083C17.9194 22.4538 17.1191 23.1498 16.3152 23.0629C15.5113 22.9759 15.0082 22.1389 15.1915 21.1934C15.3748 20.2479 16.1751 19.5519 16.979 19.6389C17.7829 19.7259 18.286 20.5628 18.1027 21.5083Z" fill="#A0A0A0"/>
    <path d="M18.1027 21.5083C17.9194 22.4538 17.1191 23.1498 16.3152 23.0629C15.5113 22.9759 15.0082 22.1389 15.1915 21.1934C15.3748 20.2479 16.1751 19.5519 16.979 19.6389C17.7829 19.7259 18.286 20.5628 18.1027 21.5083Z" stroke="black"/>
    <path d="M24.179 18.5583C23.9903 19.5314 23.1857 20.2498 22.3818 20.1628C21.5779 20.0759 21.0791 19.2165 21.2678 18.2434C21.4564 17.2703 22.2611 16.5519 23.065 16.6389C23.8689 16.7259 24.3676 17.5852 24.179 18.5583Z" fill="#A0A0A0"/>
    <path d="M24.179 18.5583C23.9903 19.5314 23.1857 20.2498 22.3818 20.1628C21.5779 20.0759 21.0791 19.2165 21.2678 18.2434C21.4564 17.2703 22.2611 16.5519 23.065 16.6389C23.8689 16.7259 24.3676 17.5852 24.179 18.5583Z" stroke="black"/>
    <path d="M0 21.3332L0.154785 13.9302V13.6206L9.44186 15.6748V24.0493L0 21.3332Z" fill="#FFD164"/>
    <path d="M13.1562 14.241L9.44135 16.0984V24.0649L13.1562 22.2898V14.241Z" fill="#FFD164"/>
    <path d="M13.1562 14.241L9.44135 16.0984V24.0649L13.1562 22.2898V14.241Z" fill="black" fill-opacity="0.2"/>
    <path d="M13.1562 14.241L9.44135 16.0984V24.0649L13.1562 22.2898V14.241Z" stroke="black"/>
    <path d="M3.17563 11.7638L13.0431 14.2403V7.89416L3.17563 5.84326V11.7638Z" fill="#38A6E4"/>
    <path d="M16.7218 0L3.10078 5.89708L13.007 7.9784L25.9953 2.17188L16.7218 0Z" fill="#50B9FF"/>
    <ellipse cx="3.05496" cy="19.7832" rx="1.0448" ry="1.05296" fill="#F7818F"/>
    <ellipse cx="6.3482" cy="20.6133" rx="1.0448" ry="1.05296" fill="#F7818F"/>
    <path d="M13.1623 14.2407L9.44746 16.0981L0.160385 13.6216L3.87521 11.7642L13.1623 14.2407Z" fill="#FFC438"/>
    <path d="M13.0019 22.29V7.95304L26.0038 2.16797L25.6942 16.4081L13.0019 22.29Z" fill="#1E87C1"/>
</svg>