<svg width="14" height="14" viewBox="0 0 14 14" fill="none" xmlns="http://www.w3.org/2000/svg">
    <path d="M6.53701 1.13522C6.70622 0.720312 7.29375 0.720313 7.46296 1.13522L8.92658 4.72402C8.99924 4.90218 9.16769 5.02285 9.35976 5.03431L13.3088 5.27003C13.7661 5.29732 13.949 5.87407 13.5909 6.15989L10.565 8.57555C10.4099 8.69942 10.3427 8.90335 10.3939 9.09517L11.3788 12.7877C11.4953 13.2245 11.0185 13.5793 10.6336 13.3424L7.26209 11.267C7.10136 11.168 6.89861 11.168 6.73788 11.267L3.36634 13.3424C2.98142 13.5793 2.50463 13.2245 2.62113 12.7877L3.60609 9.09517C3.65726 8.90335 3.59009 8.69942 3.43493 8.57555L0.409033 6.15989C0.0510154 5.87407 0.233892 5.29732 0.691191 5.27003L4.64021 5.03431C4.83228 5.02285 5.00073 4.90218 5.07339 4.72401L6.53701 1.13522Z" fill="#EFDB25"/>
    <path d="M6.53701 1.13522C6.70622 0.720312 7.29375 0.720313 7.46296 1.13522L8.92658 4.72402C8.99924 4.90218 9.16769 5.02285 9.35976 5.03431L13.3088 5.27003C13.7661 5.29732 13.949 5.87407 13.5909 6.15989L10.565 8.57555C10.4099 8.69942 10.3427 8.90335 10.3939 9.09517L11.3788 12.7877C11.4953 13.2245 11.0185 13.5793 10.6336 13.3424L7.26209 11.267C7.10136 11.168 6.89861 11.168 6.73788 11.267L3.36634 13.3424C2.98142 13.5793 2.50463 13.2245 2.62113 12.7877L3.60609 9.09517C3.65726 8.90335 3.59009 8.69942 3.43493 8.57555L0.409033 6.15989C0.0510154 5.87407 0.233892 5.29732 0.691191 5.27003L4.64021 5.03431C4.83228 5.02285 5.00073 4.90218 5.07339 4.72401L6.53701 1.13522Z"
          stroke="#EFDB25"/>
</svg>