<svg width="22" height="14" viewBox="0 0 22 14" fill="none" xmlns="http://www.w3.org/2000/svg">
  <path d="M20.6302 6.11029C21.1233 6.64171 21.1233 7.35914 20.6302 7.88971C19.077 9.56029 15.3507 13 11.0002 13C6.64964 13 2.9233 9.56029 1.37014 7.88971C1.13023 7.63526 1 7.32222 1 7C1 6.67778 1.13023 6.36474 1.37014 6.11029C2.9233 4.43971 6.64964 1 11.0002 1C15.3507 1 19.077 4.43971 20.6302 6.11029V6.11029Z" stroke="#000" stroke-width="1.5" stroke-linecap="round" stroke-linejoin="round"/>
  <path d="M11.0027 9.57152C12.7263 9.57152 14.1236 8.42026 14.1236 7.00011C14.1236 5.57997 12.7263 4.42871 11.0027 4.42871C9.2791 4.42871 7.88184 5.57997 7.88184 7.00011C7.88184 8.42026 9.2791 9.57152 11.0027 9.57152Z" stroke="#000" stroke-width="1.5" stroke-linecap="round" stroke-linejoin="round"/>
</svg>
