<svg width="126" height="71" viewBox="0 0 126 71" fill="none" xmlns="http://www.w3.org/2000/svg">
<path d="M2.46031 57.154C2.01953 20.5066 10.0051 3.12352 44.8086 3.12352C77.9083 1.6633 91.5355 12.8587 91.5355 52.2864M1 56.6673C36.3667 60.1863 58.6387 58.9048 92.7545 50.8261" stroke="black" stroke-width="2"/>
<path d="M41.2649 2.64648C28.0505 4.88647 28.6009 59.3542 28.6009 59.3542" stroke="black" stroke-width="2"/>
<path d="M46.1987 2.30769C46.1987 2.32564 46.1436 2.6524 45.3274 3.03329C44.5924 3.37629 43.5068 3.61538 42.2536 3.61538C41.0005 3.61538 39.9148 3.37629 39.1799 3.03329C38.3637 2.6524 38.3086 2.32564 38.3086 2.30769C38.3086 2.28974 38.3637 1.96298 39.1799 1.58209C39.9148 1.23909 41.0005 1 42.2536 1C43.5068 1 44.5924 1.23909 45.3274 1.58209C46.1436 1.96298 46.1987 2.28974 46.1987 2.30769Z" stroke="black" stroke-width="2"/>
<path d="M100.439 67.5179C72.2929 72.9813 56.5274 68.5817 30 58.5C57 58.5 66.5 57.5 91.5 51C118.469 53.466 130.279 59.8207 120.94 62.643L100.439 67.5179Z" stroke="black" stroke-width="2"/>
</svg>
