<svg width="130" height="130" viewBox="0 0 130 130" fill="none" xmlns="http://www.w3.org/2000/svg">
<path d="M119.816 46.0461C117.621 47.051 115.301 47.7556 112.918 48.1408C116.729 58.991 116.741 70.8141 112.952 81.6722C109.164 92.5303 101.799 101.779 92.0652 107.904C82.3314 114.028 70.8059 116.664 59.3777 115.38C47.9496 114.095 37.2966 108.967 29.1648 100.835C21.033 92.7034 15.9047 82.0504 14.6205 70.6223C13.3362 59.1941 15.9722 47.6686 22.0964 37.9348C28.2206 28.201 37.4697 20.8363 48.3278 17.0476C59.1859 13.259 71.009 13.2712 81.8592 17.0823C82.244 14.6992 82.9486 12.379 83.9539 10.1844C71.5532 5.89654 58.065 5.94013 45.6923 10.308C33.3196 14.676 22.7935 23.1101 15.8332 34.2329C8.87287 45.3557 5.88967 58.5099 7.3708 71.5471C8.85194 84.5843 14.7099 96.7341 23.9879 106.012C33.2659 115.29 45.4157 121.148 58.4529 122.629C71.4901 124.11 84.6443 121.127 95.7671 114.167C106.89 107.207 115.324 96.6804 119.692 84.3077C124.06 71.935 124.103 58.4468 119.816 46.0461Z" fill="#A3B5FF"/>
<path d="M73.1991 20.6184C79.5083 27.4912 84.2707 35.6706 87.1572 44.5918H67.8167V20H62.4344V44.6281H43.094C45.9863 35.6909 50.7614 27.4983 57.088 20.6184C53.9618 21.1921 50.9061 22.1069 47.9739 23.3468C43.3504 29.8026 39.8214 36.9951 37.5323 44.6281H25.44C24.4876 46.5429 23.6721 48.5245 23 50.5578H36.0252C35.0144 55.3408 34.4973 60.2176 34.4823 65.1091C34.4922 70.4596 35.094 75.792 36.2764 81.0065H23.5741C24.3164 83.0456 25.2039 85.0274 26.2294 86.9361H37.8193C40.016 93.9055 43.2727 100.484 47.4716 106.435C50.4784 107.742 53.6195 108.706 56.8368 109.309C50.9806 102.833 46.4768 95.2225 43.5963 86.9361H62.4703V110H67.8526V86.9361H86.6548C83.7646 95.2259 79.2484 102.836 73.3785 109.309C76.6109 108.686 79.7642 107.697 82.7796 106.362C86.9718 100.434 90.2283 93.8801 92.4319 86.9361H103.914C104.935 85.0626 105.822 83.1175 106.569 81.1156H93.8313C95.0137 75.9012 95.6155 70.5687 95.6254 65.2183C95.6104 60.3267 95.0933 55.45 94.0824 50.6669H107C106.785 50.0485 106.569 49.4665 106.318 48.8844C101.902 48.6038 97.6239 47.2164 93.8671 44.8464H92.5754C92.5754 44.4462 92.2883 44.0825 92.1807 43.6823C88.9729 41.3101 86.3241 38.2458 84.4254 34.7105C82.5267 31.1751 81.4254 27.2567 81.2008 23.2377C78.621 22.1107 75.9418 21.2337 73.1991 20.6184ZM62.4344 80.9701H41.8381C39.3119 70.9582 39.2011 60.4768 41.5152 50.4123H62.4344V80.9701ZM90.2431 65.1091C90.2253 70.4699 89.5625 75.8084 88.2695 81.0065H67.8167V50.5578H88.736C89.7668 55.3369 90.2722 60.2172 90.2431 65.1091Z" fill="#A3B5FF"/>
<path d="M108 40C117.941 40 126 31.9411 126 22C126 12.0589 117.941 4 108 4C98.0589 4 90 12.0589 90 22C90 31.9411 98.0589 40 108 40Z" fill="#41595F"/>
<path d="M107.989 35.5673C108.795 35.5673 109.45 34.9184 109.462 34.1125C110.628 33.8593 111.717 33.3271 112.634 32.5158C114.03 31.2744 114.859 29.5665 114.963 27.7014C115.168 24.2214 112.77 21.2019 109.466 20.4866V12.5475C111.035 13.1712 112.112 14.7335 112.009 16.5102C111.961 17.3231 112.584 18.0268 113.399 18.0749C114.234 18.1206 114.915 17.4984 114.963 16.6833C115.168 13.2057 112.77 10.1861 109.466 9.46856C109.461 8.66032 108.799 8 107.988 8C107.173 8 106.51 8.6626 106.51 9.48V9.48229C103.529 10.1426 101.2 12.6703 101.013 15.8659C100.901 17.7264 101.525 19.5214 102.766 20.919C103.764 22.0414 105.073 22.7749 106.513 23.0845V31.0237C105.931 30.7934 105.405 30.4495 104.98 29.9715C104.267 29.1655 103.905 28.1293 103.969 27.0587C104.017 26.2459 103.395 25.5421 102.58 25.4918C101.76 25.478 101.063 26.0659 101.015 26.8833C100.904 28.7461 101.527 30.541 102.769 31.9364C103.766 33.0611 105.075 33.7924 106.517 34.102C106.52 34.9141 107.178 35.5673 107.989 35.5673ZM112.013 27.5306C111.947 28.608 111.471 29.5893 110.667 30.3069C110.31 30.6279 109.902 30.8628 109.469 31.0336V23.5687C111.036 24.1917 112.115 25.7562 112.013 27.5306ZM104.976 18.9494C104.261 18.1457 103.901 17.1095 103.967 16.039C104.06 14.4263 105.096 13.1057 106.506 12.543V20.0009C105.93 19.776 105.404 19.4275 104.976 18.9494Z" fill="white"/>
</svg>
