<svg width="190" height="84" viewBox="0 0 190 84" fill="none" xmlns="http://www.w3.org/2000/svg">
<path d="M95.0032 83.9994C97.7713 83.9994 100.023 82.0222 100.063 79.5664C104.067 78.795 107.807 77.1733 110.957 74.7012C115.752 70.9188 118.599 65.7146 118.958 60.0315C119.662 49.4276 111.426 40.2269 100.076 38.0476V13.8565C105.466 15.757 109.166 20.5175 108.812 25.9313C108.647 28.408 110.784 30.5524 113.584 30.6988C116.454 30.8382 118.793 28.9424 118.958 26.4586C119.662 15.862 111.426 6.66124 100.076 4.47481C100.06 2.01204 97.7845 0 95.0007 0C92.2012 0 89.9254 2.019 89.9254 4.50966V4.51663C79.686 6.52867 71.6852 14.2307 71.0436 23.9679C70.6613 29.6369 72.8035 35.1064 77.067 39.3651C80.4924 42.7851 84.9887 45.0202 89.9331 45.9636V70.1547C87.9375 69.453 86.1305 68.4052 84.6692 66.9485C82.2206 64.4926 80.9766 61.3352 81.1966 58.0731C81.3616 55.5963 79.2246 53.4519 76.425 53.2986C73.6098 53.2567 71.2162 55.0481 71.0512 57.5387C70.6688 63.2148 72.811 68.6838 77.0745 72.9359C80.5 76.3629 84.9963 78.591 89.9487 79.5345C89.9592 82.0089 92.2193 83.9994 95.0032 83.9994ZM108.825 59.5109C108.597 62.7938 106.963 65.7841 104.203 67.9705C102.975 68.9486 101.574 69.6643 100.089 70.1847V47.439C105.468 49.3372 109.177 54.1043 108.825 59.5109ZM84.6558 33.3636C82.1993 30.9147 80.9633 27.7572 81.1911 24.4953C81.5106 19.5814 85.0696 15.5575 89.912 13.8427V36.5677C87.9321 35.8823 86.125 34.8203 84.6558 33.3636Z" fill="#A3B5FF"/>
<path d="M58 59.1275C52.4569 70.9192 39.6455 70.4419 37.1213 60.7438C26.6692 60.5847 24.9568 59.0103 26.4219 50.6271C12.101 48.1565 4.49667 35.9963 0.418594 18.8615C0.159157 17.9588 0.0176156 17.0045 1.99011e-06 16.0392C-0.000407479 15.6567 0.0623745 15.2787 0.183962 14.9316C0.30555 14.5844 0.483016 14.2765 0.703994 14.0292C0.986022 13.9685 1.27508 14.0027 1.54446 14.1286C1.81383 14.2545 2.05484 14.468 2.24517 14.7495C9.03139 27.923 18.5638 27.4624 28.6861 24.1209C32.0411 23.0154 35.3645 21.7508 38.7512 20.8547C47.4021 18.56 54.1249 24.146 56.4588 35.3766C56.8735 36.9393 57.2249 38.5299 57.5117 40.1419C57.6195 40.9793 57.2199 41.9173 57.0423 42.805C56.4081 42.3361 55.4124 42.0764 55.1396 41.3478C54.5247 39.7418 54.097 38.0223 53.8712 36.2476C52.6788 27.0353 45.8355 22.5548 39.284 24.1795C35.1805 25.1928 31.0961 26.4742 27.0624 27.9146C19.5278 30.6197 12.3294 30.067 4.6806 23.9115C5.53046 26.3234 5.91733 27.7471 6.50082 29.0285C11.6951 40.368 18.8112 47.4028 29.333 46.8668C30.0306 46.825 30.7536 47.5368 31.464 47.8969C31.1278 48.6674 30.7473 49.4128 30.4556 50.2084C29.8213 51.9252 29.2378 53.6755 28.6353 55.4091C29.9038 56.0205 31.261 57.2348 32.5231 57.126C35.5357 56.8747 38.5102 55.9032 41.5165 55.451C42.3536 55.317 43.2606 55.8781 44.1358 56.1126C43.5561 57.0483 42.9082 57.9067 42.2014 58.6753C41.4668 59.1959 40.6875 59.598 39.8802 59.8729C40.6465 61.7952 41.9095 63.2909 43.4398 64.0884C44.9701 64.886 46.6662 64.9324 48.2202 64.2194C50.6113 63.1139 52.6598 60.7941 54.924 59.1108C55.7939 58.5579 56.6926 58.0878 57.6131 57.7038L58 59.1275Z" fill="#41595F"/>
<path d="M132.863 57.4981C133.82 58.0807 134.953 58.4053 135.703 59.296C139.084 63.3162 142.762 65.7799 147.365 63.4577C148.53 62.875 149.506 61.6099 151.062 60.2115C150.116 59.7634 149.201 59.2063 148.329 58.5469C147.574 57.7034 146.865 56.7911 146.207 55.8168C147.107 55.617 148.033 55.1342 148.902 55.2757C151.887 55.7585 154.84 56.7407 157.831 56.9404C159.047 57.0237 160.35 55.617 161.566 54.8929C160.974 53.3114 160.384 51.73 159.796 50.1485C159.469 49.2579 159.166 48.3673 158.833 47.485C159.446 47.1114 160.097 46.8563 160.766 46.7276C172.189 46.6693 180.338 39.3947 185.017 24.8288C182.258 26.1688 179.677 27.6753 176.981 28.6658C171.106 30.8382 165.438 28.8156 159.777 26.818C156.777 25.7002 153.735 24.7835 150.665 24.0713C143.6 22.5648 138.146 27.4007 136.32 36.5564C136.036 38.2954 135.629 39.9954 135.105 41.6337C134.89 42.2163 133.965 42.5243 133.341 42.5909C133.089 42.5909 132.453 41.4672 132.548 41.1593C134.078 36.2651 135.067 30.755 137.441 26.7015C141.849 19.2105 148.297 19.61 154.67 21.6076C158.814 22.906 162.894 24.7788 167.088 25.5029C175.218 26.9013 182.756 25.5029 187.617 15.1403C187.913 14.516 188.776 14.3662 189.368 14C189.595 14.8323 190.036 15.6647 189.998 16.497C189.626 29.648 177.813 47.0522 167.718 49.4327C166.396 49.7407 165.086 50.1152 163.77 50.4648C164.979 57.4232 163.052 60.8774 157.472 60.636C154.658 60.5112 153.121 61.2103 151.131 64.1485C148.014 68.743 143.398 68.8845 139.254 66.3708C136.616 64.7728 134.406 61.9511 132 59.7121L132.863 57.4981Z" fill="#41595F"/>
</svg>
