<svg width="140" height="140" viewBox="0 0 140 140" fill="none" xmlns="http://www.w3.org/2000/svg">
<g clip-path="url(#clip0_19825_395857)">
<path d="M137.899 86.9348C128.55 124.435 90.5661 147.255 53.0614 137.906C15.5742 128.556 -7.24796 90.5726 2.1036 53.0744C11.4486 15.5697 49.4302 -7.25464 86.9239 2.09474C124.426 11.4441 147.246 49.4323 137.897 86.9348H137.899Z" fill="#F7931A"/>
<path d="M100.866 60.0272C102.257 50.7128 95.165 45.7056 85.4678 42.3653L88.6134 29.7478L80.9309 27.8338L77.8684 40.1188C75.8516 39.6156 73.7778 39.1409 71.7172 38.6706L74.8016 26.3047L67.1256 24.3906L63.9778 37.0038C62.3066 36.6231 60.6659 36.2469 59.0734 35.8509L59.0822 35.8116L48.4903 33.1669L46.4472 41.37C46.4472 41.37 52.1456 42.6759 52.0253 42.7569C55.1359 43.5334 55.7003 45.5919 55.6041 47.2238L52.0209 61.5978C52.2353 61.6525 52.5131 61.7313 52.8194 61.8538L52.01 61.6525L46.9853 81.7884C46.6047 82.7334 45.64 84.1509 43.4656 83.6128C43.5422 83.7244 37.8831 82.2194 37.8831 82.2194L34.0703 91.0131L44.0672 93.5047C45.9266 93.9706 47.7488 94.4584 49.5403 94.9178L46.3619 107.682L54.0334 109.596L57.1834 96.9697C59.2769 97.5384 61.3113 98.0634 63.3019 98.5578L60.165 111.125L67.8453 113.039L71.0238 100.301C84.1203 102.78 93.9706 101.78 98.1116 89.9369C101.452 80.3994 97.9475 74.8978 91.0569 71.3081C96.075 70.1466 99.855 66.8456 100.863 60.0272H100.866ZM83.3153 84.6344C80.9397 94.1719 64.8834 89.0181 59.675 87.7231L63.8925 70.8159C69.0988 72.1153 85.7916 74.6878 83.3175 84.6344H83.3153ZM85.6888 59.8894C83.5231 68.565 70.1575 64.1572 65.8197 63.0766L69.6434 47.7422C73.9813 48.8228 87.9463 50.8397 85.6888 59.8894Z" fill="white"/>
</g>
<defs>
<clipPath id="clip0_19825_395857">
<rect width="140" height="140" fill="white"/>
</clipPath>
</defs>
</svg>
