<svg width="93" height="150" viewBox="0 0 93 150" fill="none" xmlns="http://www.w3.org/2000/svg">
<path d="M46.7341 1.84766V55.6169C46.7341 55.8477 46.5016 56.0784 46.2691 56.0784C44.6416 56.7707 43.2466 57.463 41.6191 58.1553C39.5266 59.0784 37.2016 60.0015 35.1091 61.1553L27.4366 64.6169L21.1591 67.3861L13.4866 70.8477C11.3941 71.7707 9.30156 72.6938 6.97656 73.8477C5.34906 74.54 3.48906 75.463 1.86156 76.1553C1.62906 76.1553 1.62906 76.3861 1.39656 76.1553H1.16406C1.86156 75.0015 2.55906 74.0784 3.25656 72.9246C6.97656 66.6938 10.9291 60.463 14.6491 54.2323C18.6016 47.54 22.7866 40.8477 26.7391 34.1553C30.4591 27.9246 34.1791 21.6938 37.8991 15.6938C40.6891 11.0784 43.4791 6.69381 46.0366 2.07843C46.5016 2.07843 46.5016 1.84766 46.7341 1.84766C46.7341 1.84766 46.5016 1.84766 46.7341 1.84766Z" fill="#8A92B2"/>
<path d="M91.8375 76.1553C88.35 78.463 84.63 80.54 81.1425 82.6169C69.75 89.3092 58.59 95.7707 47.1975 102.463C46.965 102.463 46.965 102.694 46.7325 102.694C46.5 102.694 46.5 102.463 46.5 102.463V101.771V56.7707V56.0784C46.5 55.8477 46.7325 55.8477 46.965 55.8477C47.895 56.3092 48.825 56.7707 49.9875 57.2323C52.7775 58.6169 55.8 59.7707 58.59 61.1553C61.1475 62.3092 63.4725 63.463 66.03 64.3861C68.5875 65.54 70.9125 66.6938 73.47 67.8477C75.5625 68.7707 77.8875 69.6938 79.98 70.8477C82.0725 71.7707 84.3975 72.6938 86.49 73.8477C88.1175 74.54 89.745 75.463 91.605 76.1553C91.605 75.9246 91.605 76.1553 91.8375 76.1553Z" fill="#454A75"/>
<path d="M46.7359 147.926C46.7359 147.926 46.5034 147.926 46.7359 147.926C46.5034 147.926 46.5034 147.926 46.2709 147.695C41.6209 141.233 37.2034 135.003 32.5534 128.541L18.6034 109.157C14.1859 102.926 9.53594 96.695 5.11844 90.2335L1.63094 85.3873C1.63094 85.1566 1.39844 85.1566 1.39844 84.9258C1.63094 84.9258 1.63094 85.1566 1.86344 85.1566C8.14094 88.8489 14.6509 92.5412 20.9284 96.2335C28.1359 100.618 35.5759 104.772 42.7834 109.157C43.9459 109.849 45.3409 110.541 46.5034 111.233C46.7359 111.233 46.7359 111.464 46.7359 111.695V147.926Z" fill="#8A92B2"/>
<path d="M1.39844 76.1562C1.39844 76.1562 1.63094 76.1562 1.39844 76.1562C1.63094 76.1562 1.63094 76.1562 1.39844 76.1562C1.39844 76.387 1.39844 76.387 1.39844 76.1562Z" fill="#808080"/>
<path d="M1.63281 76.3864C1.63281 76.1556 1.63281 76.1556 1.63281 76.3864C3.95781 75.2326 6.28281 74.3095 8.60781 73.1557L17.6753 69.0018C20.0003 67.848 22.3253 66.9249 24.6503 65.771C27.9053 64.1557 31.3928 62.771 34.6478 61.1556C36.9728 60.2326 39.2978 59.0787 41.6228 58.1557C43.2503 57.4633 44.8778 56.771 46.5053 55.848C46.7378 55.848 46.7378 55.6172 46.9703 55.6172V102.694C46.7378 102.925 46.7378 102.694 46.5053 102.694C45.8078 102.233 45.1103 102.002 44.6453 101.54L2.09781 76.6172C1.86531 76.3864 1.63281 76.3864 1.63281 76.3864ZM91.6103 84.9249C91.6103 85.1557 91.6103 85.1557 91.3778 85.3864C77.8928 104.31 64.4078 123.002 50.9228 141.925C49.5278 144.002 48.1328 145.848 46.7378 147.925V147.694V147.233V111.925V111.233C49.7603 109.386 52.7828 107.54 55.8053 105.925L91.3778 85.1557C91.3778 84.9249 91.6103 84.9249 91.6103 84.9249Z" fill="#62688F"/>
<path d="M46.7344 55.8474V55.3858V2.53966V2.07812L91.3744 75.4627C91.6069 75.6935 91.8394 75.9243 91.8394 76.155C90.9094 75.6935 89.9794 75.232 88.8169 74.7704C87.6544 74.3089 86.4919 73.6166 85.3294 73.155C84.6319 72.9243 83.9344 72.4627 83.0044 72.232C81.8419 71.7704 80.4469 71.0781 79.2844 70.6166C78.5869 70.3858 77.8894 69.9243 77.1919 69.6935L72.3094 67.6166C71.3794 67.155 70.6819 66.9243 69.7519 66.4627C68.5894 66.0012 67.4269 65.3089 66.2644 64.8474C65.5669 64.6166 64.8694 64.155 64.1719 63.9243L59.2894 61.8473C58.3594 61.3858 57.6619 61.155 56.7319 60.6935C55.5694 60.232 54.4069 59.5397 53.2444 59.0781C52.5469 58.6166 51.6169 58.3858 50.9194 57.9243L46.7344 55.8474Z" fill="#62688F"/>
</svg>
