<svg width="141" height="149" viewBox="0 0 141 149" fill="none" xmlns="http://www.w3.org/2000/svg">
<path d="M102.875 33.5586C102.875 42.1531 102.875 50.3678 102.831 58.5824C102.793 58.9197 102.683 59.245 102.508 59.5358C102.333 59.8266 102.096 60.0761 101.815 60.2672C94.857 64.325 87.8602 68.3112 80.8468 72.3029C80.7144 72.3744 80.4992 72.3029 80.0246 72.2588C80.0246 68.9223 80.0246 65.5638 80.0246 62.2107C80.0246 58.3567 80.2564 54.5026 79.9474 50.6486C79.7046 47.5708 80.7806 45.853 83.4734 44.427C88.9914 41.5255 94.3052 38.2881 99.7129 35.1993C100.667 34.6928 101.639 34.2138 102.875 33.5586Z" fill="#41595F"/>
<path d="M64.6921 99.6719V108.922C64.6921 113.778 64.7528 118.639 64.6369 123.495C64.6369 124.431 64.1679 125.791 63.4671 126.21C56.4868 130.378 49.4127 134.391 41.8475 138.741V131.583C41.8475 125.901 41.7758 120.219 41.9082 114.515C41.9082 113.535 42.5373 112.137 43.3208 111.669C49.8376 107.754 56.4592 104.01 63.0588 100.228C63.5896 100.005 64.1354 99.8192 64.6921 99.6719Z" fill="#41595F"/>
<path d="M88.3299 99.3516C93.1195 102.104 97.3849 104.533 101.639 106.977C103.466 108.029 105.187 109.367 107.157 110.093C110.678 111.409 111.412 113.771 111.263 117.289C110.976 124.221 111.18 131.181 111.18 138.69L101.645 133.251C97.8264 131.048 93.9693 128.951 90.217 126.644C89.4059 126.148 88.4458 125.069 88.4292 124.243C88.2747 116.216 88.3299 108.161 88.3299 99.3516Z" fill="#41595F"/>
<path d="M72.4372 72.5294C67.5482 69.7269 62.9462 66.473 57.8586 64.3367C51.3804 61.6554 49.1898 57.5206 49.9954 50.6879C50.641 45.1821 50.1223 39.5551 50.1223 33.4492L58.7028 38.3769C62.8303 40.7444 66.9799 43.0623 71.0577 45.5344C71.8743 46.03 72.8731 47.0926 72.8841 47.9074C73 55.7752 72.9283 63.6485 72.8841 71.5218C72.8896 71.753 72.6855 71.9898 72.4372 72.5294Z" fill="#41595F"/>
<path d="M53.7031 27.332C61.2904 22.9549 68.3479 18.864 75.4386 14.8393C75.7388 14.6854 76.0689 14.5984 76.4061 14.5841C76.7434 14.5699 77.0797 14.6288 77.3919 14.7567C84.5653 18.809 91.667 22.9383 99.2598 27.3154C96.5008 28.9176 94.1832 30.2886 91.8381 31.643C87.3133 34.2637 82.7996 36.9065 78.2307 39.4447C77.4747 39.8576 76.2 40.1935 75.571 39.8411C68.381 35.8494 61.2683 31.6981 53.7031 27.332Z" fill="#41595F"/>
<path d="M91.9922 93.1647C99.2484 88.9858 106.223 84.939 113.248 80.9804C113.915 80.606 115.096 80.4022 115.692 80.7326C122.865 84.7518 129.956 88.8867 137.472 93.2142C131.821 96.4902 126.259 99.166 121.337 102.723C116.525 106.197 112.624 106.026 107.945 102.613C103.734 99.5679 98.9614 97.3105 94.4422 94.6953C93.6696 94.2493 92.9413 93.7483 91.9922 93.1647Z" fill="#41595F"/>
<path d="M15.5234 93.2235C22.9783 88.918 29.9475 84.8492 36.9775 80.896C37.4017 80.7093 37.8611 80.6156 38.3247 80.6213C38.7883 80.627 39.2453 80.732 39.6647 80.9291C46.7002 84.8767 53.6694 88.94 61.036 93.185C58.1224 94.9028 55.4296 96.527 52.7148 98.1017C48.5046 100.541 44.3053 102.991 40.0234 105.331C39.2564 105.755 37.9652 106.113 37.3306 105.755C30.1682 101.741 23.0666 97.5841 15.5234 93.2235Z" fill="#41595F"/>
<path d="M118.398 138.658C118.398 129.81 118.398 121.667 118.432 113.53C118.445 113.226 118.524 112.928 118.663 112.657C118.802 112.387 118.998 112.149 119.237 111.961C126.328 107.804 133.457 103.702 141 99.3633C141 108.112 141 116.398 140.967 124.69C140.952 124.95 140.881 125.204 140.758 125.434C140.635 125.664 140.464 125.865 140.255 126.022C133.165 130.157 126.052 134.248 118.398 138.658Z" fill="#41595F"/>
<path d="M34.2547 138.456C27.0813 134.327 20.2058 130.374 13.347 126.344C13.0158 126.149 12.7298 125.886 12.5082 125.573C12.2865 125.26 12.1341 124.903 12.0613 124.527C11.973 116.318 12.0061 108.108 12.0061 99.4258C14.8975 101.078 17.4248 102.476 19.9299 103.918C24.2174 106.385 28.5325 108.802 32.7372 111.39C33.587 111.94 34.5416 113.113 34.5582 114.016C34.6851 121.79 34.6078 129.57 34.5582 137.35C34.4953 137.728 34.3936 138.099 34.2547 138.456Z" fill="#41595F"/>
<path d="M40.0498 47.3906C40.71 48.8208 41.0716 50.3702 41.1124 51.9443C41.1532 53.5185 40.8723 55.0844 40.287 56.5468C39.7352 57.9452 37.2797 58.7821 35.5305 59.4924C31.9714 60.9404 30.8181 63.3464 31.0057 67.1564C31.3313 73.6422 30.2443 74.8921 23.9813 77.4413C23.9151 77.4688 23.8102 77.4082 23.1977 77.2596V70.994C23.1977 67.4207 22.9495 63.8364 23.3247 60.2797C23.5783 58.5617 24.478 57.0045 25.8409 55.9246C28.0812 54.3114 30.8512 53.4525 33.2571 52.043C35.4919 50.7382 37.5446 49.1249 40.0498 47.3906Z" fill="#A3B5FF"/>
<path d="M129.775 77.9825C126.878 76.2482 124.737 75.1195 122.8 73.71C122.221 73.2916 122.005 72.1078 121.972 71.2544C121.846 68.9658 121.846 66.6719 121.972 64.3832C122.143 61.845 121.045 60.4521 118.612 59.9786C118.071 59.8778 117.549 59.692 117.067 59.428C111.416 56.1245 111.753 57.1376 112.277 47.6016C115.98 49.6883 119.666 51.7529 123.313 53.8341C123.551 53.9663 123.711 54.2911 123.948 54.3462C129.703 55.6455 130.139 59.7804 129.791 64.6475C129.538 68.7768 129.775 72.9667 129.775 77.9825Z" fill="#A3B5FF"/>
<path d="M93.6997 139.552C91.3436 140.984 89.5392 142.118 87.7072 143.192C84.7882 144.899 81.9464 146.793 78.8784 148.147C77.317 148.768 75.5739 148.754 74.0225 148.108C69.6468 145.906 65.4531 143.373 61.2483 140.868C59.5488 139.85 60.5476 138.996 61.6291 138.209C65.2103 135.605 68.8025 135.159 72.483 138.005C73.2003 138.556 74.1384 138.804 74.8668 139.349C76.3622 140.499 77.4382 140.802 79.0274 139.118C80.0813 138.016 82.1009 137.796 83.6791 137.152C84.722 136.722 85.9745 135.616 86.7305 135.897C88.9598 136.711 91.0014 138.077 93.6997 139.552Z" fill="#A3B5FF"/>
<path d="M18.5 24.5V29M2 17V39.5H35V17H2ZM8 17C8 8 8 2 18.5 2C29 2 29 8 29 17H8Z" stroke="#A3B5FF" stroke-width="3" stroke-linecap="round" stroke-linejoin="round"/>
<path d="M18.5 32C19.3284 32 20 31.3284 20 30.5C20 29.6716 19.3284 29 18.5 29C17.6716 29 17 29.6716 17 30.5C17 31.3284 17.6716 32 18.5 32Z" stroke="#A3B5FF" stroke-width="3" stroke-linecap="round" stroke-linejoin="round"/>
</svg>
