<svg width="128" height="128" viewBox="0 0 128 128" fill="none" xmlns="http://www.w3.org/2000/svg">
<path d="M34.1342 81.3511V37.6889H86.7564L92.3742 32H28.4453V81.3511H34.1342Z" fill="#41595F"/>
<path d="M21.3299 24.8885H106.663V81.7773H113.774V23.1107C113.774 21.6962 113.212 20.3396 112.212 19.3394C111.212 18.3392 109.855 17.7773 108.441 17.7773H19.5521C18.1376 17.7773 16.781 18.3392 15.7808 19.3394C14.7807 20.3396 14.2188 21.6962 14.2188 23.1107V81.7773H21.3299V24.8885Z" fill="#41595F"/>
<path d="M3.55469 88.8906V100.98C3.55469 103.431 4.52865 105.783 6.26232 107.516C7.99599 109.25 10.3474 110.224 12.7991 110.224H114.986C117.438 110.224 119.789 109.25 121.523 107.516C123.256 105.783 124.23 103.431 124.23 100.98V88.8906H3.55469ZM117.332 100.98C117.332 101.545 117.108 102.088 116.708 102.488C116.308 102.888 115.765 103.113 115.199 103.113H12.6569C12.0911 103.113 11.5485 102.888 11.1484 102.488C10.7483 102.088 10.5236 101.545 10.5236 100.98V94.3306H45.9014C46.3459 95.3794 47.0878 96.2751 48.0356 96.907C48.9835 97.5388 50.0956 97.8793 51.2347 97.8862H76.5858C77.7249 97.8793 78.837 97.5388 79.7848 96.907C80.7326 96.2751 81.4746 95.3794 81.9191 94.3306H117.332V100.98Z" fill="#41595F"/>
<path d="M57.6913 62.7357C57.6913 65.0588 55.7728 66.9909 53.3456 66.9909C50.9185 66.9909 49 65.0588 49 62.7357C49 60.4126 50.9185 58.4805 53.3456 58.4805C55.7728 58.4805 57.6913 60.4126 57.6913 62.7357Z" stroke="#A3B5FF" stroke-width="4"/>
<path d="M78 72.7435C78 75.0666 76.0815 76.9987 73.6543 76.9987C71.2272 76.9987 69.3087 75.0666 69.3087 72.7435C69.3087 70.4204 71.2272 68.4883 73.6543 68.4883C76.0815 68.4883 78 70.4204 78 72.7435Z" stroke="#A3B5FF" stroke-width="4"/>
<path d="M77.0443 52.2552C77.0443 54.5784 75.1258 56.5104 72.6987 56.5104C70.2715 56.5104 68.353 54.5784 68.353 52.2552C68.353 49.9321 70.2715 48 72.6987 48C75.1258 48 77.0443 49.9321 77.0443 52.2552Z" stroke="#A3B5FF" stroke-width="4"/>
<rect width="11.4409" height="2.629" transform="matrix(0.89475 -0.446568 0.456933 0.889501 58.0535 59.4922)" fill="#A3B5FF"/>
<rect width="12.4533" height="2.62754" transform="matrix(0.868494 0.4957 -0.506522 0.862227 58.8457 63.207)" fill="#A3B5FF"/>
</svg>
