<svg width="122" height="122" viewBox="0 0 122 122" fill="none" xmlns="http://www.w3.org/2000/svg">
<path d="M41.3846 18H10.6154C8.06523 18 5.61952 19.0177 3.81628 20.8291C2.01305 22.6405 1 25.0973 1 27.6591V93.3409C1 95.9027 2.01305 98.3595 3.81628 100.171C5.61952 101.982 8.06523 103 10.6154 103H41.3846C43.9348 103 46.3805 101.982 48.1837 100.171C49.987 98.3595 51 95.9027 51 93.3409V27.6591C51 25.0973 49.987 22.6405 48.1837 20.8291C46.3805 19.0177 43.9348 18 41.3846 18V18ZM26 99.1364C22.8077 99.1364 20.2308 96.5477 20.2308 93.3409C20.2308 90.1341 22.8077 87.5455 26 87.5455C29.1923 87.5455 31.7692 90.1341 31.7692 93.3409C31.7692 96.5477 29.1923 99.1364 26 99.1364ZM43.3077 83.6818H8.69231V29.5909H43.3077V83.6818Z" fill="#41595F"/>
<path d="M110.952 55.3064L91.4111 51.406L90.2747 51.2077C89.6471 51.0408 87.6603 50.1513 84.927 48.9593L85.197 48.7211C85.7529 47.99 85.5782 46.7025 84.7123 46.2656C83.9812 45.7097 82.6938 45.8844 82.2568 46.7503L81.5657 47.6008C80.0717 46.9973 78.7126 46.2739 77.0998 45.5348L77.3857 45.042C77.9416 44.3108 77.7668 43.0234 76.9009 42.5865C76.1698 42.0306 74.8824 42.2053 74.4455 43.0712L73.8733 44.0564C72.5145 43.3336 71.0365 42.4755 69.6774 41.7522L70.0985 41.14C70.6544 40.4089 70.4796 39.1215 69.6137 38.6845C68.8826 38.1286 67.5952 38.3034 67.1582 39.1693L66.6024 39.9004C66.483 39.7651 66.2289 39.7497 66.1095 39.6145C65.1243 39.0423 64.3932 38.4864 63.5427 37.7953L62.5892 36.7148C61.0871 34.1958 58.8538 31.1209 56.1764 31.0816C53.3796 30.907 50.8684 34.3241 51.7983 37.8284L52.4342 39.9099C52.5535 40.0452 52.4183 40.1645 52.2835 40.2834C42.0887 46.1564 38.6484 46.0694 36.4627 46.3161C32.9902 46.7378 31.8615 44.3695 30.9398 42.7807C29.6763 40.5322 28.6511 38.5537 23.8517 37.7434C22.0877 37.3781 20.3475 38.6733 20.117 40.3183C19.5295 45.6428 16.8841 61.4322 16.7658 65.3821C13.0476 71.7872 15.6462 77.1823 20.1915 77.9763C48.7192 83.0754 86.7418 81.237 100.743 77.7722C107.497 75.8964 117.239 71.1438 117.803 64.1587C118.215 61.6323 117.126 56.5861 110.952 55.3071L110.952 55.3064ZM23.8831 41.3201C26.5292 41.8682 26.9898 42.6628 28.0314 44.3872C28.9535 45.9764 30.9717 50.4422 36.8838 49.7903C42.1044 49.9884 49.8996 45.7528 54.2619 43.3448C55.8511 42.4226 56.6056 40.5557 56.0733 38.863L55.4374 36.7814C55.1274 35.6134 55.6996 34.6281 56.2079 34.6599C56.7162 34.6916 58.1788 35.8039 59.6646 38.577C60.1253 39.3715 60.7216 40.0472 61.4527 40.6031C62.3031 41.2942 63.2884 41.8664 64.1388 42.5576C64.2582 42.6928 64.2582 42.6928 64.5123 42.7082L62.4068 45.7674C61.8509 46.4985 62.0257 47.7859 62.8915 48.2229C63.6227 48.7787 64.9101 48.604 65.347 47.7381L67.5878 44.5596C68.9465 45.2825 70.4246 46.1406 71.7837 46.8639L69.694 49.6693C69.1381 50.4004 69.3129 51.6878 70.1788 52.1248C70.9099 52.6807 72.1973 52.5059 72.6342 51.6401L74.875 48.4616C76.4883 49.2003 77.847 49.9232 79.3409 50.5276L77.5055 53.3467C76.9496 54.0778 77.1244 55.3652 77.9902 55.8022C78.7214 56.3581 80.0088 56.1833 80.4457 55.3175L82.8371 51.7655C86.3178 53.2593 88.9322 54.3156 89.1863 54.3319C89.3057 54.4672 89.4409 54.3478 89.5598 54.4826L110.491 58.5976C113.645 59.1774 114.4 61.3942 114.44 62.8006C108.759 65.8921 96.7689 67.8237 94.2095 67.9199C54.5269 69.7815 33.8181 66.1913 20.5239 64.4686C20.762 60.6544 22.4144 50.5464 23.8835 41.3211L23.8831 41.3201ZM99.8123 74.2684C86.4552 77.6465 50.2116 79.5959 20.7868 74.5677C18.0054 74.139 18.3629 70.46 19.5391 67.9804C31.1886 69.4735 52.7633 73.5007 94.2255 71.7491C97.0386 71.6696 106.066 70.1908 112.073 68.0125C108.815 71.128 102.538 73.5438 99.8121 74.2677L99.8123 74.2684Z" fill="#A3B5FF"/>
<path d="M26.011 60.3431L32.2167 61.1134C33.2341 61.177 34.1635 60.5965 34.227 59.58C34.2905 58.5626 33.7101 57.6332 32.6935 57.5697L26.4877 56.7994C25.4703 56.7359 24.5409 57.3163 24.4775 58.3329C24.2946 59.215 25.1292 60.1607 26.011 60.3431Z" fill="#A3B5FF"/>
</svg>
