<svg width="86" height="86" viewBox="0 0 86 86" fill="none" xmlns="http://www.w3.org/2000/svg">
<path d="M7.91056 18.489L9.64257 17.7929L41.7201 4.90103L7.91056 18.489ZM7.91056 18.489L9.6427 19.1847M7.91056 18.489L9.6427 19.1847M9.6427 19.1847L22.5642 24.3751L22.8438 24.4874M9.6427 19.1847L22.8438 24.4874M22.8438 24.4874L23.1234 24.375M22.8438 24.4874L23.1234 24.375M23.1234 24.375L56.2011 11.0833L57.933 10.3874M23.1234 24.375L57.933 10.3874M57.933 10.3874L56.2011 9.69146M57.933 10.3874L56.2011 9.69146M56.2011 9.69146L44.2799 4.90103L56.2011 9.69146ZM82.3394 69.588L82.3397 69.5879C83.1975 69.2435 83.9335 68.6486 84.4525 67.8792C84.9715 67.1099 85.2494 66.2015 85.25 65.2713V18.489C85.25 18.4889 85.25 18.4889 85.25 18.4888C85.2499 18.0985 85.1335 17.7175 84.9162 17.3949C84.6989 17.0722 84.3908 16.8229 84.0321 16.6785L45.7142 1.27517C43.9718 0.574945 42.0282 0.574945 40.2858 1.27517L1.96791 16.6785L82.3394 69.588ZM82.3394 69.588L43.72 85.1103L43.7196 85.1105M82.3394 69.588L43.7196 85.1105M43.7196 85.1105C43.2577 85.2965 42.7423 85.2965 42.2804 85.1105L42.28 85.1103M43.7196 85.1105L42.28 85.1103M42.28 85.1103L3.66598 69.588L3.6649 69.5876M42.28 85.1103L3.6649 69.5876M3.6649 69.5876C2.80625 69.2439 2.06923 68.6493 1.54941 67.8799M3.6649 69.5876L1.54941 67.8799M1.54941 67.8799C1.02963 67.1106 0.751033 66.202 0.75 65.2714M1.54941 67.8799L0.75 65.2714M0.75 65.2714V18.489C0.75 18.4889 0.75 18.4889 0.75 18.4888C0.750125 18.0985 0.86654 17.7175 1.08383 17.3949C1.30103 17.0724 1.60894 16.8231 1.96748 16.6786L0.75 65.2714ZM63.4358 12.6025L63.1562 12.4902L62.8766 12.6026L29.7989 25.8943L28.0667 26.5903L29.799 27.2862L42.7204 32.4765L43.0001 32.5888L43.2796 32.4764L76.3574 19.1847L78.0896 18.4887L76.3573 17.7928L63.4358 12.6025ZM81.375 22.4801V21.3703L80.3453 21.7842L45.4078 35.8267L44.9375 36.0157V36.5226V79.3089V80.4186L45.9672 80.0047L80.9047 65.9623L81.375 65.7733V65.2664V22.4855V22.4801ZM40.0328 80.0102L41.0625 80.424V79.3143V36.5172V36.0102L40.5921 35.8212L5.65461 21.7842L4.625 21.3705V22.4801V65.2718V65.7787L5.0953 65.9677L40.0328 80.0102ZM44.2794 4.90082C43.4582 4.57029 42.5417 4.5703 41.7206 4.90083L44.2794 4.90082Z" fill="black" stroke="white" stroke-width="1.5"/>
</svg>
