<svg width="126" height="77" viewBox="0 0 126 77" fill="none" xmlns="http://www.w3.org/2000/svg">
<path d="M1.5 4.65625C1.5 3.27554 2.61929 2.15625 4 2.15625H73.3895C75.3133 2.15625 76.5162 4.23817 75.5554 5.90483L57.1067 37.9071L36.3547 73.9048C35.9084 74.6791 35.0826 75.1562 34.1889 75.1562H4C2.61929 75.1562 1.5 74.037 1.5 72.6562V4.65625Z" stroke="#A3B5FF" stroke-width="3"/>
<path d="M89.4693 3.42516C89.913 2.64102 90.7442 2.15625 91.6452 2.15625H122C123.381 2.15625 124.5 3.27554 124.5 4.65625V72.6562C124.5 74.037 123.381 75.1562 122 75.1562H53.1715C51.2567 75.1562 50.0527 73.0917 50.9956 71.4252L89.4693 3.42516Z" stroke="#41595F" stroke-width="3"/>
<path d="M18.896 42.504C18.24 42.856 17.584 42.984 16.88 42.984C14.736 42.984 13.248 41.496 13.248 39.4C13.248 37.272 14.736 35.816 16.912 35.816C18.048 35.816 18.992 36.216 19.808 37.08L21.472 35.544C20.384 34.28 18.752 33.608 16.784 33.608C13.216 33.608 10.624 36.024 10.624 39.4C10.624 42.776 13.216 45.192 16.736 45.192C18.336 45.192 20.032 44.696 21.264 43.768V39.224H18.896V42.504ZM24.4238 35.192C25.3518 35.192 25.9758 34.584 25.9758 33.752C25.9758 32.984 25.3518 32.408 24.4238 32.408C23.4958 32.408 22.8718 33.016 22.8718 33.8C22.8718 34.584 23.4958 35.192 24.4238 35.192ZM23.1758 45H25.6718V36.392H23.1758V45ZM30.4043 36.216C30.4043 35.368 30.8043 34.968 31.5403 34.968C31.9243 34.968 32.2763 35.08 32.5483 35.272L33.2043 33.464C32.7403 33.144 32.0043 33 31.3003 33C29.1563 33 27.9723 34.264 27.9723 36.2V36.584H26.6443V38.504H27.9723V45H30.4683V38.504H32.6123V36.584H30.4043V36.216ZM38.4158 42.824C38.1438 43.032 37.7758 43.144 37.4078 43.144C36.7358 43.144 36.3358 42.744 36.3358 42.008V38.504H38.4798V36.584H36.3358V34.488H33.8398V36.584H32.5118V38.504H33.8398V42.04C33.8398 44.088 35.0238 45.128 37.0558 45.128C37.8238 45.128 38.5758 44.952 39.0878 44.584L38.4158 42.824Z" fill="#A3B5FF"/>
<path d="M89.8325 33.7219L86.3765 41.7219L82.9685 33.7219H80.1685L85.0005 44.9219H87.5605L92.4085 33.7219H89.8325ZM93.0236 44.9219H95.6156V33.7219H93.0236V44.9219ZM101.634 45.1139C104.834 45.1139 106.386 43.5139 106.386 41.6419C106.386 37.5299 99.8736 38.9539 99.8736 36.8899C99.8736 36.1859 100.466 35.6099 102.002 35.6099C102.994 35.6099 104.066 35.8979 105.106 36.4899L105.906 34.5219C104.866 33.8659 103.426 33.5299 102.018 33.5299C98.8336 33.5299 97.2976 35.1139 97.2976 37.0179C97.2976 41.1779 103.81 39.7379 103.81 41.8339C103.81 42.5219 103.186 43.0339 101.65 43.0339C100.306 43.0339 98.8976 42.5539 97.9536 41.8659L97.0736 43.8179C98.0656 44.5859 99.8576 45.1139 101.634 45.1139ZM116.205 44.9219H118.925L113.917 33.7219H111.357L106.365 44.9219H109.021L110.013 42.5219H115.213L116.205 44.9219ZM110.845 40.5539L112.621 36.2659L114.397 40.5539H110.845Z" fill="#41595F"/>
</svg>
