<svg width="173" height="139" viewBox="0 0 173 139" fill="none" xmlns="http://www.w3.org/2000/svg">
<rect x="2.5" y="2.5" width="167.5" height="106.618" rx="9.5" stroke="#41595F" stroke-width="5"/>
<line y1="86.793" x2="172.5" y2="86.793" stroke="#41595F" stroke-width="5"/>
<circle cx="134.96" cy="98.4269" r="3.04412" fill="#41595F"/>
<circle cx="151.187" cy="98.4269" r="3.04412" fill="#41595F"/>
<path d="M62.9089 110.602C75.3139 121.214 74.7124 126.537 62.9089 135.969H109.536C97.7322 126.537 97.1307 121.214 109.536 110.602" stroke="#41595F" stroke-width="5"/>
<path d="M125.865 45.7906L109.686 42.5612L108.745 42.397C108.225 42.2587 106.58 41.5223 104.317 40.5354L104.541 40.3381C105.001 39.7328 104.856 38.6668 104.139 38.305C103.534 37.8448 102.468 37.9895 102.106 38.7064L101.534 39.4105C100.297 38.9109 99.1718 38.312 97.8364 37.7L98.0731 37.2919C98.5333 36.6866 98.3887 35.6206 97.6717 35.2588C97.0664 34.7986 96.0005 34.9433 95.6387 35.6602L95.1649 36.4759C94.0399 35.8774 92.8161 35.167 91.6908 34.5681L92.0395 34.0612C92.4998 33.4559 92.3551 32.3899 91.6381 32.0281C91.0328 31.5679 89.9669 31.7126 89.6051 32.4295L89.1448 33.0348C89.046 32.9229 88.8356 32.9101 88.7368 32.7981C87.921 32.3244 87.3157 31.8641 86.6115 31.2919L85.8221 30.3973C84.5783 28.3116 82.7293 25.7657 80.5124 25.7331C78.1967 25.5886 76.1175 28.4179 76.8875 31.3193L77.414 33.0427C77.5128 33.1547 77.4008 33.2535 77.2893 33.352C68.8482 38.2147 65.9997 38.1426 64.19 38.3469C61.3149 38.696 60.3804 36.7351 59.6172 35.4197C58.5711 33.558 57.7223 31.9198 53.7485 31.2489C52.288 30.9465 50.8471 32.0189 50.6563 33.3809C50.1698 37.7894 47.9796 50.8625 47.8816 54.1329C44.803 59.4362 46.9546 63.9032 50.718 64.5606C74.3381 68.7825 105.82 67.2604 117.412 64.3916C123.004 62.8385 131.07 58.9035 131.537 53.12C131.879 51.0283 130.977 46.8502 125.865 45.7911L125.865 45.7906ZM53.7745 34.2104C55.9654 34.6642 56.3468 35.322 57.2091 36.7498C57.9727 38.0656 59.6437 41.7631 64.5387 41.2234C68.8612 41.3875 75.3154 37.8805 78.9272 35.8867C80.2431 35.1232 80.8678 33.5774 80.427 32.1759L79.9006 30.4525C79.6439 29.4853 80.1177 28.6696 80.5385 28.6959C80.9593 28.7221 82.1703 29.643 83.4006 31.9391C83.782 32.597 84.2757 33.1564 84.881 33.6167C85.5852 34.1889 86.4009 34.6627 87.1051 35.2349C87.2039 35.3469 87.2039 35.3469 87.4143 35.3597L85.671 37.8925C85.2108 38.4979 85.3554 39.5638 86.0724 39.9256C86.6777 40.3859 87.7436 40.2412 88.1054 39.5243L89.9607 36.8926C91.0857 37.4911 92.3095 38.2015 93.4348 38.8004L91.7046 41.1232C91.2443 41.7286 91.389 42.7945 92.106 43.1563C92.7113 43.6166 93.7772 43.4719 94.139 42.755L95.9943 40.1233C97.3301 40.7349 98.455 41.3334 99.6919 41.8338L98.1723 44.168C97.712 44.7734 97.8567 45.8393 98.5737 46.2011C99.179 46.6614 100.245 46.5167 100.607 45.7997L102.587 42.8588C105.469 44.0956 107.633 44.9702 107.844 44.9837C107.942 45.0957 108.054 44.9969 108.153 45.1085L125.483 48.5156C128.095 48.9957 128.72 50.8311 128.753 51.9955C124.05 54.5552 114.122 56.1545 112.003 56.2342C79.1467 57.7755 62.0004 54.8029 50.9932 53.3766C51.1903 50.2186 52.5585 41.8495 53.7748 34.2111L53.7745 34.2104ZM116.642 61.4905C105.582 64.2875 75.5738 65.9016 51.2109 61.7384C48.908 61.3834 49.2039 58.3373 50.1778 56.2843C59.8233 57.5205 77.6865 60.8549 112.016 59.4046C114.345 59.3388 121.819 58.1144 126.793 56.3109C124.096 58.8904 118.898 60.8906 116.642 61.49L116.642 61.4905Z" fill="#A3B5FF"/>
<path d="M55.5378 49.9596L60.676 50.5974C61.5184 50.65 62.2879 50.1694 62.3404 49.3277C62.393 48.4853 61.9124 47.7158 61.0707 47.6633L55.9325 47.0255C55.0902 46.9729 54.3206 47.4535 54.2681 48.2951C54.1167 49.0255 54.8077 49.8086 55.5378 49.9596Z" fill="#A3B5FF"/>
</svg>
