<svg width="154" height="107" viewBox="0 0 154 107" fill="none" xmlns="http://www.w3.org/2000/svg">
<circle cx="106" cy="62" r="41.5" stroke="#41595F" stroke-width="7"/>
<ellipse cx="105.94" cy="62.3595" rx="7.4404" ry="7.08609" fill="#A3B5FF"/>
<path d="M102.75 9.21094H109.836C108.562 12.7394 108.82 14.5913 109.836 17.7142H102.75C103.969 15.1556 103.824 13.1965 102.75 9.21094Z" fill="#41595F"/>
<rect x="94.2422" width="24.0927" height="9.21192" rx="4.60596" fill="#41595F"/>
<path d="M151.211 33.0082C148.956 30.7534 146.666 28.4635 144.697 26.4944C142.728 24.5252 139.935 21.7323 138.182 19.9787C141.689 23.4861 140.687 22.484 138.183 19.9806C141.781 16.3831 147.614 16.3831 151.211 19.9806C154.809 23.578 154.809 29.4107 151.211 33.0082Z" fill="#A3B5FF"/>
<path d="M74.1058 19.9765C71.8511 22.2312 69.5612 24.5211 67.592 26.4903C65.6229 28.4594 62.83 31.2523 61.0763 33.006C64.5837 29.4986 63.5816 30.5007 61.0782 33.0041C57.4807 29.4066 57.4807 23.5739 61.0782 19.9765C64.6757 16.379 70.5084 16.379 74.1058 19.9765Z" fill="#A3B5FF"/>
<rect x="103.453" y="37.5547" width="5.66887" height="20.5497" rx="2.83444" fill="#A3B5FF"/>
<rect x="9.21094" y="43.2266" width="38.2649" height="7.08609" rx="3.54305" fill="#A3B5FF"/>
<rect x="9.21094" y="81.4922" width="38.2649" height="7.08609" rx="3.54305" fill="#A3B5FF"/>
<rect y="62.3594" width="40.3907" height="7.08609" rx="3.54305" fill="#A3B5FF"/>
</svg>
