<svg width="30" height="30" viewBox="0 0 30 30" fill="none" xmlns="http://www.w3.org/2000/svg">
<path d="M28.3664 18.8767C28.883 18.372 29.2934 17.7691 29.5736 17.1036C29.8538 16.438 29.9981 15.7231 29.9981 15.0009C29.9981 14.2788 29.8538 13.5639 29.5736 12.8983C29.2934 12.2327 28.883 11.6299 28.3664 11.1252M28.3664 18.8767L21.7099 2.80735C22.4323 2.7988 23.1491 2.93477 23.8182 3.20728C24.4872 3.47978 25.095 3.88331 25.6059 4.39414C26.1167 4.90497 26.5202 5.51279 26.7927 6.18184M28.3664 18.8767L27.1739 20.043L27.1927 21.7118M28.3664 18.8767L27.1927 21.7118M28.3664 11.1252L27.172 9.95887L27.1927 8.29006M28.3664 11.1252L27.8425 11.6618L27.8423 11.6616M28.3664 11.1252L27.8423 11.6616M27.1927 8.29006C27.2012 7.56769 27.0652 6.8509 26.7927 6.18184M27.1927 8.29006L26.4427 8.28079C26.45 7.65853 26.3329 7.04108 26.0981 6.46475L26.7927 6.18184M27.1927 8.29006L26.4427 8.28118L26.4221 9.9496L26.4181 10.271L26.6481 10.4955L27.8423 11.6616M26.7927 6.18184L26.0981 6.46475C25.8633 5.88829 25.5157 5.3646 25.0755 4.92447C24.6354 4.48434 24.1117 4.13666 23.5353 3.90187C22.9588 3.66709 22.3412 3.54993 21.7188 3.5573L21.7184 3.5573L20.0496 3.57605L19.729 3.57965L19.5049 3.35049L18.3386 2.15795L18.2587 2.07625C17.8406 1.66854 17.3495 1.34264 16.8107 1.11579C16.2372 0.874367 15.6213 0.75 14.9991 0.75C14.3769 0.75 13.7609 0.874367 13.1875 1.11579C12.6141 1.35718 12.0947 1.71073 11.6599 2.15566L11.6603 2.15523L11.1233 1.63168L11.6597 2.15585L10.494 3.35153L10.2694 3.58189L9.94773 3.57792L8.27931 3.5573L8.28818 2.80735M27.8423 11.6616C28.2873 12.0964 28.6409 12.6159 28.8823 13.1893C29.1238 13.7628 29.2481 14.3787 29.2481 15.0009C29.2481 15.6231 29.1238 16.2391 28.8823 16.8125C28.6409 17.386 28.2873 17.9054 27.8423 18.3403L27.8421 18.3405L26.6495 19.5068L26.4203 19.7309L26.424 20.0514L26.4427 21.7202L26.4427 21.7207C26.4501 22.3431 26.3329 22.9607 26.0981 23.5371C25.8633 24.1136 25.5157 24.6373 25.0755 25.0774C24.6354 25.5175 24.1117 25.8652 23.5353 26.1C22.9589 26.3347 22.3415 26.4519 21.7192 26.4446L21.7099 27.1945M21.7099 27.1945L21.7188 26.4446L20.0504 26.424L19.729 26.42L19.5045 26.6499L18.3384 27.8442L18.8748 28.3683M21.7099 27.1945C22.4323 27.2031 23.1491 27.0671 23.8182 26.7946C24.4872 26.5221 25.095 26.1186 25.6059 25.6077C26.1167 25.0969 26.5202 24.4891 26.7927 23.82C27.0652 23.151 27.2012 22.4342 27.1927 21.7118M21.7099 27.1945L20.0411 27.1739M18.8748 28.3683L18.3382 27.8443C17.9034 28.2893 17.3841 28.6428 16.8107 28.8842C16.2372 29.1256 15.6213 29.25 14.9991 29.25C14.3769 29.25 13.7609 29.1256 13.1875 28.8842C12.614 28.6428 12.0946 28.2892 11.6597 27.8441L11.6595 27.8439L10.4932 26.6514L10.2691 26.4222L9.94857 26.4258L8.27975 26.4446L8.27931 26.4446C7.65691 26.4519 7.03933 26.3348 6.46288 26.1C5.88642 25.8652 5.36273 25.5175 4.9226 25.0774C4.48247 24.6373 4.13479 24.1136 3.9 23.5371C3.66526 22.9608 3.5481 22.3433 3.55542 21.7211L2.80547 21.7118M18.8748 28.3683L20.0411 27.1739M18.8748 28.3683C18.3701 28.8848 17.7673 29.2952 17.1017 29.5755C16.4361 29.8557 15.7212 30 14.9991 30C14.2769 30 13.562 29.8557 12.8964 29.5755C12.2309 29.2952 11.628 28.8848 11.1233 28.3683L9.957 27.1758L8.28818 27.1945M2.80547 21.7118L3.55542 21.7207L3.57604 20.0523L3.58001 19.7309L3.35007 19.5064L2.15585 18.3403M2.80547 21.7118C2.79692 22.4342 2.9329 23.151 3.2054 23.82C3.47791 24.4891 3.88144 25.0969 4.39227 25.6077C4.9031 26.1186 5.51091 26.5221 6.17997 26.7946C6.84902 27.0671 7.56581 27.2031 8.28818 27.1945M2.80547 21.7118L2.8261 20.043M2.15585 18.3403C1.71083 17.9054 1.35722 17.386 1.11579 16.8125C0.874367 16.2391 0.75 15.6231 0.75 15.0009C0.75 14.3787 0.874367 13.7628 1.11579 13.1893C1.35722 12.6159 1.71083 12.0964 2.15585 11.6616L2.15607 11.6614L3.34862 10.4951L3.57778 10.271L3.57418 9.95044L3.55543 8.28163L3.55542 8.28118C3.54805 7.65879 3.66521 7.0412 3.9 6.46475C4.13479 5.88829 4.48247 5.3646 4.9226 4.92447C5.36273 4.48435 5.88642 4.13666 6.46287 3.90187C7.03921 3.66713 7.65665 3.54998 8.27891 3.55729L8.28818 2.80735M2.15585 18.3403L1.63168 18.8767M2.15585 18.3403L2.15565 18.3401L1.63168 18.8767M8.28818 2.80735C7.56581 2.7988 6.84902 2.93477 6.17997 3.20728C5.51091 3.47978 4.9031 3.88331 4.39227 4.39414C3.88144 4.90497 3.47791 5.51279 3.2054 6.18184C2.9329 6.8509 2.79692 7.56769 2.80547 8.29006M8.28818 2.80735L9.957 2.82797L2.80547 8.29006M2.80547 8.29006L2.82422 9.95887L1.63168 11.1252C1.11517 11.6299 0.704757 12.2327 0.42455 12.8983C0.144344 13.5639 0 14.2788 0 15.0009C0 15.7231 0.144344 16.438 0.42455 17.1036C0.704757 17.7691 1.11517 18.372 1.63168 18.8767M2.80547 8.29006L2.8261 20.043M1.63168 18.8767L2.8261 20.043M2.8261 20.043L8.28818 27.1945M8.28818 27.1945L20.0411 27.1739M20.0411 27.1739L27.1927 21.7118" stroke="#2F323C" stroke-width="1.5"/>
<path d="M13.8841 17.5262L13.8848 17.5255L19.51 11.9003C19.5454 11.8649 19.5653 11.8169 19.5653 11.7668C19.5653 11.7168 19.5454 11.6688 19.51 11.6334C19.4746 11.598 19.4266 11.5781 19.3765 11.5781C19.3265 11.5781 19.2785 11.598 19.2431 11.6334L14.2818 16.5966L13.7512 17.1274L13.2208 16.5965L11.0722 14.446C11.0546 14.4285 11.0338 14.4146 11.0109 14.4051L11.298 13.7122L11.0109 14.4051C10.988 14.3956 10.9635 14.3907 10.9387 14.3907C10.9139 14.3907 10.8894 14.3956 10.8665 14.4051L10.5795 13.7122L10.8665 14.4051C10.8436 14.4146 10.8228 14.4285 10.8053 14.446C10.7878 14.4635 10.7739 14.4843 10.7644 14.5072L10.0715 14.2202L10.7644 14.5072C10.7549 14.5301 10.75 14.5547 10.75 14.5795C10.75 14.6042 10.7549 14.6288 10.7644 14.6517L10.1925 14.8885L10.7644 14.6517C10.7739 14.6746 10.7878 14.6954 10.8053 14.7129L13.6179 17.5255L13.6186 17.5262C13.636 17.5436 13.6567 17.5575 13.6795 17.5669C13.7022 17.5764 13.7267 17.5813 13.7513 17.5813C13.776 17.5813 13.8004 17.5764 13.8232 17.5669L13.8841 17.5262ZM13.8841 17.5262C13.8667 17.5436 13.846 17.5575 13.8232 17.5669L13.8841 17.5262Z" fill="black" stroke="black" stroke-width="1.5"/>
</svg>
