<svg width="12" height="19" viewBox="0 0 12 19" fill="none" xmlns="http://www.w3.org/2000/svg">
<path d="M0 13.2742C0.202984 15.5366 2.0751 17.1421 4.9251 17.3497V19H6.35558V17.3497C9.46891 17.1068 11.4 15.3981 11.4 12.8711C11.4 10.7133 10.1012 9.46471 7.34581 8.76171L6.35558 8.50793V3.34807C7.89442 3.49736 8.93265 4.31707 9.19461 5.54121H11.2107C10.9831 3.36979 9.0986 1.81179 6.35558 1.63943V0H4.9251V1.67336C2.26574 1.9855 0.440255 3.67107 0.440255 5.9565C0.440255 7.92979 1.76513 9.32629 4.08985 9.91529L4.92647 10.1351V15.6058C3.3506 15.3751 2.26574 14.5201 2.00378 13.2742H0ZM4.65079 8.06821C3.22031 7.71129 2.45638 6.94857 2.45638 5.87507C2.45638 4.59393 3.42192 3.648 4.9251 3.39421V8.13743L4.65079 8.06957V8.06821ZM6.83287 10.6088C8.598 11.0471 9.37291 11.7746 9.37291 13.0096C9.37291 14.4984 8.24004 15.4904 6.35558 15.6411V10.4907L6.83287 10.6074V10.6088Z" fill="#000"/>
</svg>
