<svg width="23" height="14" viewBox="0 0 23 14" fill="none" xmlns="http://www.w3.org/2000/svg">
<path d="M21.6117 5.92543C22.1294 6.45633 22.1294 7.17303 21.6117 7.70306C19.9809 9.37195 16.0682 12.8082 11.5002 12.8082C6.93212 12.8082 3.01947 9.37195 1.38865 7.70306C1.13674 7.44886 1 7.13614 1 6.81425C1 6.49236 1.13674 6.17963 1.38865 5.92543C3.01947 4.25655 6.93212 0.820312 11.5002 0.820312C16.0682 0.820312 19.9809 4.25655 21.6117 5.92543V5.92543Z" stroke="#FF8181" stroke-width="1.5" stroke-linecap="round" stroke-linejoin="round"/>
<path d="M11.503 9.38323C13.3128 9.38323 14.7799 8.23314 14.7799 6.81442C14.7799 5.39571 13.3128 4.24562 11.503 4.24562C9.6932 4.24562 8.22607 5.39571 8.22607 6.81442C8.22607 8.23314 9.6932 9.38323 11.503 9.38323Z" stroke="#FF8181" stroke-width="1.5" stroke-linecap="round" stroke-linejoin="round"/>
<path d="M21.6117 5.92543C22.1294 6.45633 22.1294 7.17303 21.6117 7.70306C19.9809 9.37195 16.0682 12.8082 11.5002 12.8082C6.93212 12.8082 3.01947 9.37195 1.38865 7.70306C1.13674 7.44886 1 7.13614 1 6.81425C1 6.49236 1.13674 6.17963 1.38865 5.92543C3.01947 4.25655 6.93212 0.820312 11.5002 0.820312C16.0682 0.820312 19.9809 4.25655 21.6117 5.92543V5.92543Z" stroke="black" stroke-width="1.5" stroke-linecap="round" stroke-linejoin="round"/>
<path d="M11.503 9.38323C13.3128 9.38323 14.7799 8.23314 14.7799 6.81442C14.7799 5.39571 13.3128 4.24562 11.503 4.24562C9.6932 4.24562 8.22607 5.39571 8.22607 6.81442C8.22607 8.23314 9.6932 9.38323 11.503 9.38323Z" stroke="black" stroke-width="1.5" stroke-linecap="round" stroke-linejoin="round"/>
</svg>
