<svg width="100" height="143" viewBox="0 0 100 143" fill="none" xmlns="http://www.w3.org/2000/svg">
<rect x="1" y="1" width="98" height="140.91" fill="#F9F9F9" stroke="#C4C4C4" stroke-width="2"/>
<rect x="26.6411" y="120.155" width="52.2301" height="12.444" rx="4" fill="#626262"/>
<path d="M15.6289 47.1081L17.1719 39.999L22.7266 40.6172L27.9727 45.8718L39.6992 40.6172H43.4023L66.5469 56.3808L87.2227 61.9445L90 66.8899L77.3477 73.999H51.4258L11 66.8899L15.6289 47.1081Z" fill="#E9E7E9"/>
<path d="M11 66.599L19.5736 64.999L31.8217 67.559L51.7248 69.159L58.4612 72.999L70.0969 69.799L76.5271 72.679L90 66.599V72.039L88.7752 75.559L76.2209 80.039L66.1163 80.679L51.1124 80.999H37.9457L18.655 79.719L11.6124 75.559L11 66.599Z" fill="#C4C4C4"/>
<rect x="4.54419" y="4.7041" width="42.1858" height="19.5548" rx="4" fill="#A6A9B3"/>
</svg>
