<svg width="19" height="19" viewBox="0 0 19 19" fill="none" xmlns="http://www.w3.org/2000/svg">
<path d="M12.6669 7.67738C12.6777 7.70272 12.6819 7.73038 12.6793 7.75781C12.6766 7.78524 12.6671 7.81156 12.6516 7.83435C12.6361 7.85714 12.6151 7.87567 12.5906 7.88823C12.5661 7.9008 12.5388 7.907 12.5112 7.90626L11.1948 7.89121C11.0434 7.88948 10.8975 7.94796 10.7892 8.0538C10.6809 8.15963 10.6191 8.30415 10.6174 8.45556C10.6087 9.21711 10.5854 10.7539 9.63576 12.2126C8.91045 13.328 7.60028 14.4618 5.17642 15.1249C6.31208 13.9731 6.93585 12.6499 7.27229 11.489C7.47818 10.7755 7.60378 10.0412 7.64675 9.29972C7.66356 8.99622 7.66399 8.69203 7.64804 8.38849L7.6482 8.37364L7.64713 8.36792L7.64714 8.36678L7.07792 8.41508L7.64717 8.3645C7.63462 8.22342 7.57008 8.09205 7.46608 7.9959C7.36209 7.89974 7.22607 7.84568 7.08445 7.8442L5.768 7.82915C5.64469 7.82774 5.56848 7.70126 5.61764 7.59676L9.01844 3.08629C9.03007 3.07098 9.04092 3.0551 9.05096 3.0387C9.06616 3.01404 9.08748 2.99374 9.11286 2.97977C9.13823 2.96579 9.16679 2.95862 9.19575 2.95895C9.22471 2.95929 9.2531 2.96711 9.27815 2.98166C9.30319 2.99621 9.32405 3.01699 9.33868 3.04199C9.34833 3.05861 9.35882 3.07474 9.3701 3.09031L12.6669 7.67738ZM6.51649 8.97962C6.51561 9.05726 6.5112 9.14285 6.50673 9.23415C6.47823 9.72941 6.39504 10.4136 6.17512 11.1716C5.73764 12.6808 4.76491 14.4624 2.60705 15.6299C2.49057 15.6931 2.39968 15.7947 2.34994 15.9176C2.30021 16.0404 2.29474 16.1766 2.33446 16.303C2.37419 16.4294 2.45664 16.5381 2.56768 16.6103C2.67873 16.6826 2.81145 16.714 2.94311 16.6992C7.1851 16.2178 9.43238 14.6197 10.5924 12.8356C11.5107 11.4245 11.7009 9.96271 11.7446 9.03941L12.4982 9.04802C12.7333 9.05082 12.9648 8.99009 13.1683 8.87226C13.3718 8.75443 13.5397 8.58385 13.6543 8.37853C13.7689 8.17321 13.826 7.94077 13.8195 7.70572C13.813 7.47067 13.7431 7.24173 13.6173 7.04307L10.3127 2.44449C10.1972 2.25462 10.0352 2.09727 9.84212 1.98725C9.649 1.87724 9.43107 1.81818 9.20882 1.81564C8.98658 1.8131 8.76735 1.86716 8.57177 1.97272C8.37618 2.07829 8.21068 2.2319 8.09085 2.41908L4.68192 6.94088C4.55162 7.13662 4.47657 7.3639 4.4647 7.59874C4.45282 7.83358 4.50455 8.06727 4.61443 8.27516C4.72431 8.48304 4.88827 8.65741 5.08901 8.77987C5.28975 8.90232 5.51981 8.96833 5.75494 8.97091L6.51649 8.97962Z" fill="#626262"/>
<path d="M9.47705 2.97852L12.4771 7.47852L10.4771 9.47852L9.47705 12.9785L4.61778 14.9402C7.24977 12.8301 7.74452 12.0019 7.97705 8.97852L5.97705 7.47852L9.47705 2.97852Z" fill="#626262"/>
<path d="M4.47705 14.9824L4.61778 14.9402M4.61778 14.9402L9.47705 12.9785L10.4771 9.47852L12.4771 7.47852L9.47705 2.97852L5.97705 7.47852L7.97705 8.97852C7.74452 12.0019 7.24977 12.8301 4.61778 14.9402Z" stroke="#626262"/>
</svg>
