<svg width="16" height="17" viewBox="0 0 16 17" fill="none" xmlns="http://www.w3.org/2000/svg">
<path d="M12.6555 10.875C12.2111 10.8772 11.7728 10.9792 11.3731 11.1735C10.9733 11.3677 10.6223 11.6492 10.3458 11.9972L6.00552 9.28375C6.1637 8.77322 6.1637 8.22678 6.00552 7.71625L10.3458 5.00281C10.7864 5.5483 11.4057 5.92026 12.0943 6.0528C12.7828 6.18535 13.496 6.06992 14.1075 5.72696C14.7191 5.38401 15.1895 4.83567 15.4355 4.17907C15.6815 3.52248 15.6872 2.80001 15.4515 2.13965C15.2158 1.47929 14.754 0.923666 14.1478 0.571198C13.5417 0.218731 12.8304 0.0921726 12.1399 0.213942C11.4494 0.335712 10.8243 0.697951 10.3753 1.23649C9.92626 1.77503 9.68236 2.4551 9.68677 3.15625C9.68957 3.42176 9.72954 3.68557 9.80552 3.94L5.46521 6.65344C5.08203 6.17106 4.55828 5.81984 3.96655 5.64845C3.37483 5.47706 2.74444 5.494 2.16278 5.69691C1.58111 5.89983 1.07697 6.27866 0.720247 6.78092C0.36352 7.28317 0.171875 7.88395 0.171875 8.5C0.171875 9.11604 0.36352 9.71683 0.720247 10.2191C1.07697 10.7213 1.58111 11.1002 2.16278 11.3031C2.74444 11.506 3.37483 11.5229 3.96655 11.3515C4.55828 11.1802 5.08203 10.8289 5.46521 10.3466L9.80552 13.06C9.72954 13.3144 9.68957 13.5782 9.68677 13.8437C9.68677 14.4309 9.86088 15.0049 10.1871 15.4931C10.5133 15.9813 10.977 16.3618 11.5194 16.5865C12.0619 16.8112 12.6588 16.87 13.2347 16.7555C13.8106 16.6409 14.3396 16.3582 14.7547 15.943C15.1699 15.5278 15.4527 14.9988 15.5672 14.4229C15.6818 13.847 15.623 13.2501 15.3983 12.7077C15.1736 12.1652 14.7931 11.7015 14.3049 11.3753C13.8167 11.0491 13.2427 10.875 12.6555 10.875V10.875ZM12.6555 1.375C13.0078 1.375 13.3522 1.47947 13.6451 1.67519C13.9381 1.87092 14.1664 2.14911 14.3012 2.47459C14.436 2.80008 14.4713 3.15823 14.4025 3.50375C14.3338 3.84928 14.1642 4.16667 13.9151 4.41578C13.6659 4.6649 13.3486 4.83454 13.003 4.90327C12.6575 4.972 12.2993 4.93673 11.9739 4.80191C11.6484 4.66709 11.3702 4.43878 11.1745 4.14586C10.9787 3.85293 10.8743 3.50855 10.8743 3.15625C10.8743 2.68383 11.0619 2.23076 11.396 1.89672C11.73 1.56267 12.1831 1.375 12.6555 1.375V1.375ZM3.15552 10.2812C2.80322 10.2812 2.45884 10.1768 2.16591 9.98105C1.87299 9.78533 1.64468 9.50713 1.50986 9.18165C1.37504 8.85617 1.33977 8.49802 1.4085 8.15249C1.47723 7.80697 1.64687 7.48958 1.89599 7.24046C2.1451 6.99135 2.46249 6.82171 2.80802 6.75298C3.15354 6.68425 3.51169 6.71952 3.83717 6.85434C4.16266 6.98916 4.44085 7.21746 4.63658 7.51039C4.8323 7.80331 4.93677 8.1477 4.93677 8.5C4.93677 8.97242 4.7491 9.42548 4.41505 9.75953C4.08101 10.0936 3.62794 10.2812 3.15552 10.2812ZM12.6555 15.625C12.3032 15.625 11.9588 15.5205 11.6659 15.3248C11.373 15.1291 11.1447 14.8509 11.0099 14.5254C10.875 14.1999 10.8398 13.8418 10.9085 13.4962C10.9772 13.1507 11.1469 12.8333 11.396 12.5842C11.6451 12.3351 11.9625 12.1655 12.308 12.0967C12.6535 12.028 13.0117 12.0633 13.3372 12.1981C13.6627 12.3329 13.9408 12.5612 14.1366 12.8541C14.3323 13.1471 14.4368 13.4915 14.4368 13.8437C14.4368 14.3162 14.2491 14.7692 13.9151 15.1033C13.581 15.4373 13.1279 15.625 12.6555 15.625V15.625Z" fill="black"/>
</svg>
