<svg width="203" height="266" viewBox="0 0 203 266" fill="none" xmlns="http://www.w3.org/2000/svg">
<rect x="0.5" y="0.5" width="202" height="265" fill="#F9F9F9"/>
<rect x="1" y="1" width="201" height="264" fill="#F9F9F9" stroke="#C4C4C4" stroke-width="2"/>
<g opacity="0.25">
<rect x="54.0858" y="240.082" width="106.027" height="19.9719" rx="4" fill="#626262"/>
<path d="M29.6161 92.4324L33.0144 76.0269L45.2483 77.4535L56.8025 89.5793L82.6297 77.4535H90.7856L141.76 113.831L187.297 126.67L193.414 138.082L165.548 154.488H108.457L19.4212 138.082L29.6161 92.4324Z" fill="#E9E7E9"/>
<path d="M18.7446 137.369L37.7751 133.803L64.9615 139.509L109.139 143.076L124.092 151.635L149.919 144.502L164.192 150.922L194.097 137.369V149.495L191.378 157.341L163.512 167.327L141.084 168.754L107.78 169.467H78.5547L35.7361 166.614L20.1039 157.341L18.7446 137.369Z" fill="#C4C4C4"/>
<rect x="9.22729" y="7.55206" width="85.6373" height="31.3844" rx="4" fill="#A6A9B3"/>
</g>
<path d="M54.8309 82.606H57.7469V72.382H61.7789V70.006H50.7989V72.382H54.8309V82.606ZM65.7109 74.2V72.922H63.0289V82.606H65.8369V78.034C65.8369 76.18 66.8629 75.334 68.4109 75.334C68.6269 75.334 68.8069 75.352 69.0409 75.37V72.778C67.5469 72.778 66.3949 73.264 65.7109 74.2ZM74.6538 72.778C73.1058 72.778 71.5398 73.192 70.4778 73.948L71.4858 75.91C72.1878 75.352 73.2498 75.01 74.2758 75.01C75.7878 75.01 76.5078 75.712 76.5078 76.918H74.2758C71.3238 76.918 70.1178 78.106 70.1178 79.816C70.1178 81.49 71.4678 82.75 73.7358 82.75C75.1578 82.75 76.1658 82.282 76.6878 81.4V82.606H79.3158V77.08C79.3158 74.146 77.6058 72.778 74.6538 72.778ZM74.4378 80.86C73.4478 80.86 72.8538 80.392 72.8538 79.69C72.8538 79.042 73.2678 78.556 74.5818 78.556H76.5078V79.546C76.1838 80.428 75.3738 80.86 74.4378 80.86ZM89.1086 69.25V73.948C88.4066 73.156 87.3986 72.778 86.2106 72.778C83.4746 72.778 81.3686 74.722 81.3686 77.764C81.3686 80.806 83.4746 82.75 86.2106 82.75C87.5066 82.75 88.5326 82.336 89.2346 81.49V82.606H91.9166V69.25H89.1086ZM86.6966 80.446C85.2926 80.446 84.2126 79.438 84.2126 77.764C84.2126 76.09 85.2926 75.082 86.6966 75.082C88.0826 75.082 89.1626 76.09 89.1626 77.764C89.1626 79.438 88.0826 80.446 86.6966 80.446ZM104.092 77.8C104.092 74.686 101.896 72.778 99.0515 72.778C96.0995 72.778 93.8855 74.866 93.8855 77.764C93.8855 80.644 96.0635 82.75 99.4115 82.75C101.158 82.75 102.508 82.21 103.408 81.184L101.914 79.564C101.248 80.194 100.51 80.5 99.4835 80.5C98.0075 80.5 96.9815 79.762 96.7115 78.556H104.038C104.056 78.322 104.092 78.016 104.092 77.8ZM99.0695 74.902C100.33 74.902 101.248 75.694 101.446 76.918H96.6755C96.8735 75.676 97.7915 74.902 99.0695 74.902ZM120.113 70.006V77.656L113.849 70.006H111.437V82.606H114.317V74.956L120.599 82.606H122.993V70.006H120.113ZM130.474 82.75C133.552 82.75 135.784 80.68 135.784 77.764C135.784 74.848 133.552 72.778 130.474 72.778C127.396 72.778 125.146 74.848 125.146 77.764C125.146 80.68 127.396 82.75 130.474 82.75ZM130.474 80.446C129.07 80.446 127.99 79.438 127.99 77.764C127.99 76.09 129.07 75.082 130.474 75.082C131.878 75.082 132.94 76.09 132.94 77.764C132.94 79.438 131.878 80.446 130.474 80.446ZM150.555 72.922L148.197 79.474L145.893 72.922H143.517L141.141 79.474L138.855 72.922H136.209L139.701 82.606H142.401L144.651 76.594L146.829 82.606H149.529L153.039 72.922H150.555Z" fill="black"/>
<path d="M17.6729 117.161C20.4729 117.161 21.8309 115.761 21.8309 114.123C21.8309 110.525 16.1329 111.771 16.1329 109.965C16.1329 109.349 16.6509 108.845 17.9949 108.845C18.8629 108.845 19.8009 109.097 20.7109 109.615L21.4109 107.893C20.5009 107.319 19.2409 107.025 18.0089 107.025C15.2229 107.025 13.8789 108.411 13.8789 110.077C13.8789 113.717 19.5769 112.457 19.5769 114.291C19.5769 114.893 19.0309 115.341 17.6869 115.341C16.5109 115.341 15.2789 114.921 14.4529 114.319L13.6829 116.027C14.5509 116.699 16.1189 117.161 17.6729 117.161ZM30.6746 113.255C30.6746 110.833 28.9666 109.349 26.7546 109.349C24.4586 109.349 22.7366 110.973 22.7366 113.227C22.7366 115.467 24.4306 117.105 27.0346 117.105C28.3926 117.105 29.4426 116.685 30.1426 115.887L28.9806 114.627C28.4626 115.117 27.8886 115.355 27.0906 115.355C25.9426 115.355 25.1446 114.781 24.9346 113.843H30.6326C30.6466 113.661 30.6746 113.423 30.6746 113.255ZM26.7686 111.001C27.7486 111.001 28.4626 111.617 28.6166 112.569H24.9066C25.0606 111.603 25.7746 111.001 26.7686 111.001ZM32.1986 116.993H34.3826V106.605H32.1986V116.993ZM43.8576 113.255C43.8576 110.833 42.1496 109.349 39.9376 109.349C37.6416 109.349 35.9196 110.973 35.9196 113.227C35.9196 115.467 37.6136 117.105 40.2176 117.105C41.5756 117.105 42.6256 116.685 43.3256 115.887L42.1636 114.627C41.6456 115.117 41.0716 115.355 40.2736 115.355C39.1256 115.355 38.3276 114.781 38.1176 113.843H43.8156C43.8296 113.661 43.8576 113.423 43.8576 113.255ZM39.9516 111.001C40.9316 111.001 41.6456 111.617 41.7996 112.569H38.0896C38.2436 111.603 38.9576 111.001 39.9516 111.001ZM49.0216 117.105C50.6036 117.105 51.8496 116.405 52.3956 115.201L50.7016 114.277C50.2956 115.005 49.6936 115.313 49.0076 115.313C47.9016 115.313 47.0336 114.543 47.0336 113.227C47.0336 111.911 47.9016 111.141 49.0076 111.141C49.6936 111.141 50.2956 111.463 50.7016 112.177L52.3956 111.267C51.8496 110.035 50.6036 109.349 49.0216 109.349C46.5716 109.349 44.8216 110.959 44.8216 113.227C44.8216 115.495 46.5716 117.105 49.0216 117.105ZM58.1025 115.089C57.8645 115.271 57.5425 115.369 57.2205 115.369C56.6325 115.369 56.2825 115.019 56.2825 114.375V111.309H58.1585V109.629H56.2825V107.795H54.0985V109.629H52.9365V111.309H54.0985V114.403C54.0985 116.195 55.1345 117.105 56.9125 117.105C57.5845 117.105 58.2425 116.951 58.6905 116.629L58.1025 115.089ZM69.4253 109.461V113.185C69.4253 114.571 68.6973 115.215 67.6893 115.215C66.7233 115.215 66.1633 114.655 66.1633 113.395V109.461H63.9793V113.717C63.9793 116.041 65.3093 117.105 67.1993 117.105C68.1233 117.105 68.9633 116.755 69.5373 116.097V116.993H71.6093V109.461H69.4253ZM78.1546 109.349C77.1466 109.349 76.3346 109.671 75.7886 110.329V109.461H73.7026V119.709H75.8866V116.195C76.4466 116.811 77.2166 117.105 78.1546 117.105C80.2686 117.105 81.9066 115.593 81.9066 113.227C81.9066 110.861 80.2686 109.349 78.1546 109.349ZM77.7766 115.313C76.6846 115.313 75.8586 114.529 75.8586 113.227C75.8586 111.925 76.6846 111.141 77.7766 111.141C78.8686 111.141 79.6946 111.925 79.6946 113.227C79.6946 114.529 78.8686 115.313 77.7766 115.313ZM91.7435 115.089C91.5055 115.271 91.1835 115.369 90.8615 115.369C90.2735 115.369 89.9235 115.019 89.9235 114.375V111.309H91.7995V109.629H89.9235V107.795H87.7395V109.629H86.5775V111.309H87.7395V114.403C87.7395 116.195 88.7755 117.105 90.5535 117.105C91.2255 117.105 91.8835 116.951 92.3315 116.629L91.7435 115.089ZM96.979 117.105C99.373 117.105 101.109 115.495 101.109 113.227C101.109 110.959 99.373 109.349 96.979 109.349C94.585 109.349 92.835 110.959 92.835 113.227C92.835 115.495 94.585 117.105 96.979 117.105ZM96.979 115.313C95.887 115.313 95.047 114.529 95.047 113.227C95.047 111.925 95.887 111.141 96.979 111.141C98.071 111.141 98.897 111.925 98.897 113.227C98.897 114.529 98.071 115.313 96.979 115.313ZM110.944 115.089C110.706 115.271 110.384 115.369 110.062 115.369C109.474 115.369 109.124 115.019 109.124 114.375V111.309H111V109.629H109.124V107.795H106.94V109.629H105.778V111.309H106.94V114.403C106.94 116.195 107.976 117.105 109.754 117.105C110.426 117.105 111.084 116.951 111.532 116.629L110.944 115.089ZM117.406 109.349C116.44 109.349 115.6 109.657 115.012 110.245V106.605H112.828V116.993H115.012V113.269C115.012 111.883 115.768 111.239 116.818 111.239C117.784 111.239 118.344 111.799 118.344 113.017V116.993H120.528V112.681C120.528 110.385 119.184 109.349 117.406 109.349ZM124.663 110.455V109.461H122.577V116.993H124.761V113.437C124.761 111.995 125.559 111.337 126.763 111.337C126.931 111.337 127.071 111.351 127.253 111.365V109.349C126.091 109.349 125.195 109.727 124.663 110.455ZM135.932 113.255C135.932 110.833 134.224 109.349 132.012 109.349C129.716 109.349 127.994 110.973 127.994 113.227C127.994 115.467 129.688 117.105 132.292 117.105C133.65 117.105 134.7 116.685 135.4 115.887L134.238 114.627C133.72 115.117 133.146 115.355 132.348 115.355C131.2 115.355 130.402 114.781 130.192 113.843H135.89C135.904 113.661 135.932 113.423 135.932 113.255ZM132.026 111.001C133.006 111.001 133.72 111.617 133.874 112.569H130.164C130.318 111.603 131.032 111.001 132.026 111.001ZM144.834 113.255C144.834 110.833 143.126 109.349 140.914 109.349C138.618 109.349 136.896 110.973 136.896 113.227C136.896 115.467 138.59 117.105 141.194 117.105C142.552 117.105 143.602 116.685 144.302 115.887L143.14 114.627C142.622 115.117 142.048 115.355 141.25 115.355C140.102 115.355 139.304 114.781 139.094 113.843H144.792C144.806 113.661 144.834 113.423 144.834 113.255ZM140.928 111.001C141.908 111.001 142.622 111.617 142.776 112.569H139.066C139.22 111.603 139.934 111.001 140.928 111.001ZM151.485 108.411C152.297 108.411 152.843 107.879 152.843 107.151C152.843 106.479 152.297 105.975 151.485 105.975C150.673 105.975 150.127 106.507 150.127 107.193C150.127 107.879 150.673 108.411 151.485 108.411ZM150.393 116.993H152.577V109.461H150.393V116.993ZM158.943 115.089C158.705 115.271 158.383 115.369 158.061 115.369C157.473 115.369 157.123 115.019 157.123 114.375V111.309H158.999V109.629H157.123V107.795H154.939V109.629H153.777V111.309H154.939V114.403C154.939 116.195 155.975 117.105 157.753 117.105C158.425 117.105 159.083 116.951 159.531 116.629L158.943 115.089ZM167.973 113.255C167.973 110.833 166.265 109.349 164.053 109.349C161.757 109.349 160.035 110.973 160.035 113.227C160.035 115.467 161.729 117.105 164.333 117.105C165.691 117.105 166.741 116.685 167.441 115.887L166.279 114.627C165.761 115.117 165.187 115.355 164.389 115.355C163.241 115.355 162.443 114.781 162.233 113.843H167.931C167.945 113.661 167.973 113.423 167.973 113.255ZM164.067 111.001C165.047 111.001 165.761 111.617 165.915 112.569H162.205C162.359 111.603 163.073 111.001 164.067 111.001ZM179.143 109.349C178.009 109.349 177.029 109.811 176.427 110.581C175.895 109.755 174.999 109.349 173.949 109.349C172.983 109.349 172.143 109.685 171.583 110.329V109.461H169.497V116.993H171.681V113.213C171.681 111.869 172.367 111.239 173.333 111.239C174.243 111.239 174.761 111.799 174.761 113.017V116.993H176.945V113.213C176.945 111.869 177.631 111.239 178.611 111.239C179.493 111.239 180.039 111.799 180.039 113.017V116.993H182.223V112.681C182.223 110.385 180.935 109.349 179.143 109.349ZM186.785 117.105C189.039 117.105 190.341 116.111 190.341 114.711C190.341 111.743 185.791 112.989 185.791 111.701C185.791 111.309 186.211 111.001 187.191 111.001C187.877 111.001 188.619 111.141 189.361 111.561L190.089 110.007C189.375 109.587 188.227 109.349 187.191 109.349C184.993 109.349 183.705 110.357 183.705 111.785C183.705 114.795 188.255 113.535 188.255 114.767C188.255 115.187 187.877 115.453 186.869 115.453C185.945 115.453 184.923 115.159 184.251 114.725L183.523 116.293C184.223 116.755 185.511 117.105 186.785 117.105ZM31.1626 126.307C31.1626 125.565 31.5126 125.215 32.1566 125.215C32.4926 125.215 32.8006 125.313 33.0386 125.481L33.6126 123.899C33.2066 123.619 32.5626 123.493 31.9466 123.493C30.0706 123.493 29.0346 124.599 29.0346 126.293V126.629H27.8726V128.309H29.0346V133.993H31.2186V128.309H33.0946V126.629H31.1626V126.307ZM37.4598 127.455V126.461H35.3738V133.993H37.5578V130.437C37.5578 128.995 38.3558 128.337 39.5598 128.337C39.7278 128.337 39.8678 128.351 40.0498 128.365V126.349C38.8878 126.349 37.9918 126.727 37.4598 127.455ZM44.934 134.105C47.328 134.105 49.064 132.495 49.064 130.227C49.064 127.959 47.328 126.349 44.934 126.349C42.54 126.349 40.79 127.959 40.79 130.227C40.79 132.495 42.54 134.105 44.934 134.105ZM44.934 132.313C43.842 132.313 43.002 131.529 43.002 130.227C43.002 128.925 43.842 128.141 44.934 128.141C46.026 128.141 46.852 128.925 46.852 130.227C46.852 131.529 46.026 132.313 44.934 132.313ZM60.2399 126.349C59.1059 126.349 58.1259 126.811 57.5239 127.581C56.9919 126.755 56.0959 126.349 55.0459 126.349C54.0799 126.349 53.2399 126.685 52.6799 127.329V126.461H50.5939V133.993H52.7779V130.213C52.7779 128.869 53.4639 128.239 54.4299 128.239C55.3399 128.239 55.8579 128.799 55.8579 130.017V133.993H58.0419V130.213C58.0419 128.869 58.7279 128.239 59.7079 128.239C60.5899 128.239 61.1359 128.799 61.1359 130.017V133.993H63.3199V129.681C63.3199 127.385 62.0319 126.349 60.2399 126.349ZM74.7583 126.461L72.6303 131.571L70.5163 126.461H68.2623L71.5243 134.049L71.4963 134.119C71.2023 134.791 70.8663 135.057 70.2643 135.057C69.8303 135.057 69.3683 134.875 69.0323 134.581L68.2343 136.135C68.7243 136.569 69.5643 136.821 70.3343 136.821C71.6923 136.821 72.7283 136.275 73.4563 134.455L76.8583 126.461H74.7583ZM81.1984 134.105C83.5924 134.105 85.3284 132.495 85.3284 130.227C85.3284 127.959 83.5924 126.349 81.1984 126.349C78.8044 126.349 77.0544 127.959 77.0544 130.227C77.0544 132.495 78.8044 134.105 81.1984 134.105ZM81.1984 132.313C80.1064 132.313 79.2664 131.529 79.2664 130.227C79.2664 128.925 80.1064 128.141 81.1984 128.141C82.2904 128.141 83.1164 128.925 83.1164 130.227C83.1164 131.529 82.2904 132.313 81.1984 132.313ZM92.2623 126.461V130.185C92.2623 131.571 91.5343 132.215 90.5263 132.215C89.5603 132.215 89.0003 131.655 89.0003 130.395V126.461H86.8163V130.717C86.8163 133.041 88.1463 134.105 90.0363 134.105C90.9603 134.105 91.8003 133.755 92.3743 133.097V133.993H94.4463V126.461H92.2623ZM98.6256 127.455V126.461H96.5396V133.993H98.7236V130.437C98.7236 128.995 99.5216 128.337 100.726 128.337C100.894 128.337 101.034 128.351 101.216 128.365V126.349C100.054 126.349 99.1576 126.727 98.6256 127.455ZM107.766 125.411C108.578 125.411 109.124 124.879 109.124 124.151C109.124 123.479 108.578 122.975 107.766 122.975C106.954 122.975 106.408 123.507 106.408 124.193C106.408 124.879 106.954 125.411 107.766 125.411ZM106.674 133.993H108.858V126.461H106.674V133.993ZM115.533 126.349C114.511 126.349 113.629 126.699 113.041 127.343V126.461H110.955V133.993H113.139V130.269C113.139 128.883 113.895 128.239 114.945 128.239C115.911 128.239 116.471 128.799 116.471 130.017V133.993H118.655V129.681C118.655 127.385 117.311 126.349 115.533 126.349ZM125.944 126.461L123.788 131.585L121.702 126.461H119.448L122.612 133.993H124.866L128.044 126.461H125.944ZM136.178 130.255C136.178 127.833 134.47 126.349 132.258 126.349C129.962 126.349 128.24 127.973 128.24 130.227C128.24 132.467 129.934 134.105 132.538 134.105C133.896 134.105 134.946 133.685 135.646 132.887L134.484 131.627C133.966 132.117 133.392 132.355 132.594 132.355C131.446 132.355 130.648 131.781 130.438 130.843H136.136C136.15 130.661 136.178 130.423 136.178 130.255ZM132.272 128.001C133.252 128.001 133.966 128.617 134.12 129.569H130.41C130.564 128.603 131.278 128.001 132.272 128.001ZM142.28 126.349C141.258 126.349 140.376 126.699 139.788 127.343V126.461H137.702V133.993H139.886V130.269C139.886 128.883 140.642 128.239 141.692 128.239C142.658 128.239 143.218 128.799 143.218 130.017V133.993H145.402V129.681C145.402 127.385 144.058 126.349 142.28 126.349ZM151.721 132.089C151.483 132.271 151.161 132.369 150.839 132.369C150.251 132.369 149.901 132.019 149.901 131.375V128.309H151.777V126.629H149.901V124.795H147.717V126.629H146.555V128.309H147.717V131.403C147.717 133.195 148.753 134.105 150.531 134.105C151.203 134.105 151.861 133.951 152.309 133.629L151.721 132.089ZM156.957 134.105C159.351 134.105 161.087 132.495 161.087 130.227C161.087 127.959 159.351 126.349 156.957 126.349C154.563 126.349 152.813 127.959 152.813 130.227C152.813 132.495 154.563 134.105 156.957 134.105ZM156.957 132.313C155.865 132.313 155.025 131.529 155.025 130.227C155.025 128.925 155.865 128.141 156.957 128.141C158.049 128.141 158.875 128.925 158.875 130.227C158.875 131.529 158.049 132.313 156.957 132.313ZM164.703 127.455V126.461H162.617V133.993H164.801V130.437C164.801 128.995 165.599 128.337 166.803 128.337C166.971 128.337 167.111 128.351 167.293 128.365V126.349C166.131 126.349 165.235 126.727 164.703 127.455ZM174.297 126.461L172.169 131.571L170.055 126.461H167.801L171.063 134.049L171.035 134.119C170.741 134.791 170.405 135.057 169.803 135.057C169.369 135.057 168.907 134.875 168.571 134.581L167.773 136.135C168.263 136.569 169.103 136.821 169.873 136.821C171.231 136.821 172.267 136.275 172.995 134.455L176.397 126.461H174.297Z" fill="#626262"/>
<line x1="90.7157" y1="174.981" x2="112.306" y2="174.977" stroke="black" stroke-width="3" stroke-linecap="round"/>
<line x1="101.089" y1="163.736" x2="101.098" y2="185.334" stroke="black" stroke-width="3" stroke-linecap="round"/>
<rect x="79.8513" y="152.88" width="43.2975" height="43.3123" rx="21.6488" stroke="black" stroke-width="2"/>
<path d="M27.5933 220.168C30.3933 220.168 31.7513 218.768 31.7513 217.13C31.7513 213.532 26.0533 214.778 26.0533 212.972C26.0533 212.356 26.5713 211.852 27.9153 211.852C28.7833 211.852 29.7213 212.104 30.6313 212.622L31.3313 210.9C30.4213 210.326 29.1613 210.032 27.9293 210.032C25.1433 210.032 23.7993 211.418 23.7993 213.084C23.7993 216.724 29.4973 215.464 29.4973 217.298C29.4973 217.9 28.9513 218.348 27.6073 218.348C26.4313 218.348 25.1993 217.928 24.3733 217.326L23.6033 219.034C24.4713 219.706 26.0393 220.168 27.5933 220.168ZM40.595 216.262C40.595 213.84 38.887 212.356 36.675 212.356C34.379 212.356 32.657 213.98 32.657 216.234C32.657 218.474 34.351 220.112 36.955 220.112C38.313 220.112 39.363 219.692 40.063 218.894L38.901 217.634C38.383 218.124 37.809 218.362 37.011 218.362C35.863 218.362 35.065 217.788 34.855 216.85H40.553C40.567 216.668 40.595 216.43 40.595 216.262ZM36.689 214.008C37.669 214.008 38.383 214.624 38.537 215.576H34.827C34.981 214.61 35.695 214.008 36.689 214.008ZM42.1191 220H44.3031V209.612H42.1191V220ZM53.778 216.262C53.778 213.84 52.07 212.356 49.858 212.356C47.562 212.356 45.84 213.98 45.84 216.234C45.84 218.474 47.534 220.112 50.138 220.112C51.496 220.112 52.546 219.692 53.246 218.894L52.084 217.634C51.566 218.124 50.992 218.362 50.194 218.362C49.046 218.362 48.248 217.788 48.038 216.85H53.736C53.75 216.668 53.778 216.43 53.778 216.262ZM49.872 214.008C50.852 214.008 51.566 214.624 51.72 215.576H48.01C48.164 214.61 48.878 214.008 49.872 214.008ZM58.942 220.112C60.524 220.112 61.77 219.412 62.316 218.208L60.622 217.284C60.216 218.012 59.614 218.32 58.928 218.32C57.822 218.32 56.954 217.55 56.954 216.234C56.954 214.918 57.822 214.148 58.928 214.148C59.614 214.148 60.216 214.47 60.622 215.184L62.316 214.274C61.77 213.042 60.524 212.356 58.942 212.356C56.492 212.356 54.742 213.966 54.742 216.234C54.742 218.502 56.492 220.112 58.942 220.112ZM68.0229 218.096C67.7849 218.278 67.4629 218.376 67.1409 218.376C66.5529 218.376 66.2029 218.026 66.2029 217.382V214.316H68.0789V212.636H66.2029V210.802H64.0189V212.636H62.8569V214.316H64.0189V217.41C64.0189 219.202 65.0549 220.112 66.8329 220.112C67.5049 220.112 68.1629 219.958 68.6109 219.636L68.0229 218.096ZM77.5257 220.112C79.9197 220.112 81.6557 218.502 81.6557 216.234C81.6557 213.966 79.9197 212.356 77.5257 212.356C75.1317 212.356 73.3817 213.966 73.3817 216.234C73.3817 218.502 75.1317 220.112 77.5257 220.112ZM77.5257 218.32C76.4337 218.32 75.5937 217.536 75.5937 216.234C75.5937 214.932 76.4337 214.148 77.5257 214.148C78.6177 214.148 79.4437 214.932 79.4437 216.234C79.4437 217.536 78.6177 218.32 77.5257 218.32ZM85.2715 213.462V212.468H83.1855V220H85.3695V216.444C85.3695 215.002 86.1675 214.344 87.3715 214.344C87.5395 214.344 87.6795 214.358 87.8615 214.372V212.356C86.6995 212.356 85.8035 212.734 85.2715 213.462ZM98.8077 209.612V213.266C98.2617 212.65 97.4777 212.356 96.5537 212.356C94.4257 212.356 92.7877 213.868 92.7877 216.234C92.7877 218.6 94.4257 220.112 96.5537 220.112C97.5617 220.112 98.3597 219.79 98.9057 219.132V220H100.992V209.612H98.8077ZM96.9317 218.32C95.8397 218.32 94.9997 217.536 94.9997 216.234C94.9997 214.932 95.8397 214.148 96.9317 214.148C98.0097 214.148 98.8497 214.932 98.8497 216.234C98.8497 217.536 98.0097 218.32 96.9317 218.32ZM105.169 213.462V212.468H103.083V220H105.267V216.444C105.267 215.002 106.065 214.344 107.269 214.344C107.437 214.344 107.577 214.358 107.759 214.372V212.356C106.597 212.356 105.701 212.734 105.169 213.462ZM112.125 212.356C110.921 212.356 109.703 212.678 108.877 213.266L109.661 214.792C110.207 214.358 111.033 214.092 111.831 214.092C113.007 214.092 113.567 214.638 113.567 215.576H111.831C109.535 215.576 108.597 216.5 108.597 217.83C108.597 219.132 109.647 220.112 111.411 220.112C112.517 220.112 113.301 219.748 113.707 219.062V220H115.751V215.702C115.751 213.42 114.421 212.356 112.125 212.356ZM111.957 218.642C111.187 218.642 110.725 218.278 110.725 217.732C110.725 217.228 111.047 216.85 112.069 216.85H113.567V217.62C113.315 218.306 112.685 218.642 111.957 218.642ZM123.577 212.468V213.434C123.003 212.706 122.135 212.356 121.085 212.356C118.999 212.356 117.319 213.798 117.319 215.996C117.319 218.194 118.999 219.636 121.085 219.636C122.065 219.636 122.891 219.328 123.465 218.698V219.02C123.465 220.378 122.793 221.078 121.253 221.078C120.287 221.078 119.237 220.742 118.593 220.224L117.725 221.792C118.607 222.478 119.993 222.828 121.421 222.828C124.137 222.828 125.649 221.54 125.649 218.74V212.468H123.577ZM121.519 217.844C120.371 217.844 119.531 217.102 119.531 215.996C119.531 214.89 120.371 214.148 121.519 214.148C122.667 214.148 123.493 214.89 123.493 215.996C123.493 217.102 122.667 217.844 121.519 217.844ZM140.663 218.782L139.515 217.718C139.935 217.088 140.229 216.332 140.411 215.492L138.661 214.946C138.549 215.52 138.381 216.038 138.171 216.472L136.379 214.806C137.709 214.078 138.297 213.336 138.297 212.328C138.297 210.942 137.177 210.074 135.483 210.074C133.635 210.074 132.431 211.054 132.431 212.482C132.431 213.182 132.725 213.812 133.439 214.554C131.941 215.394 131.283 216.248 131.283 217.48C131.283 219.048 132.865 220.168 135.021 220.168C136.281 220.168 137.401 219.776 138.297 219.076L139.473 220.168L140.663 218.782ZM135.483 211.558C136.113 211.558 136.449 211.894 136.449 212.37C136.449 212.818 136.141 213.182 135.175 213.7C134.573 213.112 134.419 212.832 134.419 212.454C134.419 211.936 134.811 211.558 135.483 211.558ZM135.175 218.46C134.097 218.46 133.425 217.956 133.425 217.242C133.425 216.64 133.747 216.192 134.643 215.674L137.009 217.886C136.477 218.264 135.847 218.46 135.175 218.46ZM151.565 209.612V213.266C151.019 212.65 150.235 212.356 149.311 212.356C147.183 212.356 145.545 213.868 145.545 216.234C145.545 218.6 147.183 220.112 149.311 220.112C150.319 220.112 151.117 219.79 151.663 219.132V220H153.749V209.612H151.565ZM149.689 218.32C148.597 218.32 147.757 217.536 147.757 216.234C147.757 214.932 148.597 214.148 149.689 214.148C150.767 214.148 151.607 214.932 151.607 216.234C151.607 217.536 150.767 218.32 149.689 218.32ZM157.927 213.462V212.468H155.841V220H158.025V216.444C158.025 215.002 158.823 214.344 160.027 214.344C160.195 214.344 160.335 214.358 160.517 214.372V212.356C159.355 212.356 158.459 212.734 157.927 213.462ZM165.401 220.112C167.795 220.112 169.531 218.502 169.531 216.234C169.531 213.966 167.795 212.356 165.401 212.356C163.007 212.356 161.257 213.966 161.257 216.234C161.257 218.502 163.007 220.112 165.401 220.112ZM165.401 218.32C164.309 218.32 163.469 217.536 163.469 216.234C163.469 214.932 164.309 214.148 165.401 214.148C166.493 214.148 167.319 214.932 167.319 216.234C167.319 217.536 166.493 218.32 165.401 218.32ZM175.513 212.356C174.505 212.356 173.693 212.678 173.147 213.336V212.468H171.061V222.716H173.245V219.202C173.805 219.818 174.575 220.112 175.513 220.112C177.627 220.112 179.265 218.6 179.265 216.234C179.265 213.868 177.627 212.356 175.513 212.356ZM175.135 218.32C174.043 218.32 173.217 217.536 173.217 216.234C173.217 214.932 174.043 214.148 175.135 214.148C176.227 214.148 177.053 214.932 177.053 216.234C177.053 217.536 176.227 218.32 175.135 218.32ZM82.9522 228.418C83.7642 228.418 84.3102 227.886 84.3102 227.158C84.3102 226.486 83.7642 225.982 82.9522 225.982C82.1402 225.982 81.5942 226.514 81.5942 227.2C81.5942 227.886 82.1402 228.418 82.9522 228.418ZM81.8602 237H84.0442V229.468H81.8602V237ZM90.4111 235.096C90.1731 235.278 89.8511 235.376 89.5291 235.376C88.9411 235.376 88.5911 235.026 88.5911 234.382V231.316H90.4671V229.636H88.5911V227.802H86.4071V229.636H85.2451V231.316H86.4071V234.41C86.4071 236.202 87.4431 237.112 89.2211 237.112C89.8931 237.112 90.5511 236.958 90.9991 236.636L90.4111 235.096ZM99.4407 233.262C99.4407 230.84 97.7327 229.356 95.5207 229.356C93.2247 229.356 91.5027 230.98 91.5027 233.234C91.5027 235.474 93.1967 237.112 95.8007 237.112C97.1587 237.112 98.2087 236.692 98.9087 235.894L97.7467 234.634C97.2287 235.124 96.6547 235.362 95.8567 235.362C94.7087 235.362 93.9107 234.788 93.7007 233.85H99.3987C99.4127 233.668 99.4407 233.43 99.4407 233.262ZM95.5347 231.008C96.5147 231.008 97.2287 231.624 97.3827 232.576H93.6727C93.8267 231.61 94.5407 231.008 95.5347 231.008ZM110.611 229.356C109.477 229.356 108.497 229.818 107.895 230.588C107.363 229.762 106.467 229.356 105.417 229.356C104.451 229.356 103.611 229.692 103.051 230.336V229.468H100.965V237H103.149V233.22C103.149 231.876 103.835 231.246 104.801 231.246C105.711 231.246 106.229 231.806 106.229 233.024V237H108.413V233.22C108.413 231.876 109.099 231.246 110.079 231.246C110.961 231.246 111.507 231.806 111.507 233.024V237H113.691V232.688C113.691 230.392 112.403 229.356 110.611 229.356ZM118.252 237.112C120.506 237.112 121.808 236.118 121.808 234.718C121.808 231.75 117.258 232.996 117.258 231.708C117.258 231.316 117.678 231.008 118.658 231.008C119.344 231.008 120.086 231.148 120.828 231.568L121.556 230.014C120.842 229.594 119.694 229.356 118.658 229.356C116.46 229.356 115.172 230.364 115.172 231.792C115.172 234.802 119.722 233.542 119.722 234.774C119.722 235.194 119.344 235.46 118.336 235.46C117.412 235.46 116.39 235.166 115.718 234.732L114.99 236.3C115.69 236.762 116.978 237.112 118.252 237.112Z" fill="#626262"/>
<rect x="0.5" y="0.5" width="202" height="265" stroke="#C4C4C4"/>
</svg>
