<svg width="65" height="65" viewBox="0 0 65 65" fill="none" xmlns="http://www.w3.org/2000/svg">
<g filter="url(#filter0_d_22_134254)">
<rect x="4" width="57" height="57" rx="28.5" fill="#6F88EA"/>
</g>
<path d="M29.4639 24.8008C29.6782 24.8008 29.8836 24.8851 30.0351 25.0351C30.1865 25.1851 30.2716 25.3886 30.2716 25.6008V35.2008C30.2716 35.413 30.1865 35.6164 30.0351 35.7665C29.8836 35.9165 29.6782 36.0008 29.4639 36.0008C29.2497 36.0008 29.0443 35.9165 28.8928 35.7665C28.7413 35.6164 28.6562 35.413 28.6562 35.2008V25.6008C28.6562 25.3886 28.7413 25.1851 28.8928 25.0351C29.0443 24.8851 29.2497 24.8008 29.4639 24.8008ZM33.5024 24.8008C33.7166 24.8008 33.9221 24.8851 34.0735 25.0351C34.225 25.1851 34.3101 25.3886 34.3101 25.6008V35.2008C34.3101 35.413 34.225 35.6164 34.0735 35.7665C33.9221 35.9165 33.7166 36.0008 33.5024 36.0008C33.2882 36.0008 33.0828 35.9165 32.9313 35.7665C32.7798 35.6164 32.6947 35.413 32.6947 35.2008V25.6008C32.6947 25.3886 32.7798 25.1851 32.9313 25.0351C33.0828 24.8851 33.2882 24.8008 33.5024 24.8008ZM38.3486 25.6008C38.3486 25.3886 38.2635 25.1851 38.112 25.0351C37.9605 24.8851 37.7551 24.8008 37.5409 24.8008C37.3267 24.8008 37.1212 24.8851 36.9697 25.0351C36.8183 25.1851 36.7332 25.3886 36.7332 25.6008V35.2008C36.7332 35.413 36.8183 35.6164 36.9697 35.7665C37.1212 35.9165 37.3267 36.0008 37.5409 36.0008C37.7551 36.0008 37.9605 35.9165 38.112 35.7665C38.2635 35.6164 38.3486 35.413 38.3486 35.2008V25.6008Z" fill="white"/>
<path fill-rule="evenodd" clip-rule="evenodd" d="M44 20.8C44 21.2243 43.8298 21.6313 43.5269 21.9314C43.2239 22.2314 42.813 22.4 42.3846 22.4H41.5769V36.8C41.5769 37.6487 41.2365 38.4626 40.6307 39.0627C40.0248 39.6629 39.203 40 38.3462 40H28.6538C27.797 40 26.9752 39.6629 26.3693 39.0627C25.7635 38.4626 25.4231 37.6487 25.4231 36.8V22.4H24.6154C24.187 22.4 23.7761 22.2314 23.4731 21.9314C23.1702 21.6313 23 21.2243 23 20.8V19.2C23 18.7757 23.1702 18.3687 23.4731 18.0686C23.7761 17.7686 24.187 17.6 24.6154 17.6H30.2692C30.2692 17.1757 30.4394 16.7687 30.7424 16.4686C31.0453 16.1686 31.4562 16 31.8846 16H35.1154C35.5438 16 35.9547 16.1686 36.2576 16.4686C36.5606 16.7687 36.7308 17.1757 36.7308 17.6H42.3846C42.813 17.6 43.2239 17.7686 43.5269 18.0686C43.8298 18.3687 44 18.7757 44 19.2V20.8ZM27.2291 22.4L27.0385 22.4944V36.8C27.0385 37.2243 27.2087 37.6313 27.5116 37.9314C27.8145 38.2314 28.2254 38.4 28.6538 38.4H38.3462C38.7746 38.4 39.1855 38.2314 39.4884 37.9314C39.7913 37.6313 39.9615 37.2243 39.9615 36.8V22.4944L39.7709 22.4H27.2291ZM24.6154 20.8V19.2H42.3846V20.8H24.6154Z" fill="white"/>
<defs>
<filter id="filter0_d_22_134254" x="0" y="0" width="65" height="65" filterUnits="userSpaceOnUse" color-interpolation-filters="sRGB">
<feFlood flood-opacity="0" result="BackgroundImageFix"/>
<feColorMatrix in="SourceAlpha" type="matrix" values="0 0 0 0 0 0 0 0 0 0 0 0 0 0 0 0 0 0 127 0" result="hardAlpha"/>
<feOffset dy="4"/>
<feGaussianBlur stdDeviation="2"/>
<feComposite in2="hardAlpha" operator="out"/>
<feColorMatrix type="matrix" values="0 0 0 0 0 0 0 0 0 0 0 0 0 0 0 0 0 0 0.25 0"/>
<feBlend mode="normal" in2="BackgroundImageFix" result="effect1_dropShadow_22_134254"/>
<feBlend mode="normal" in="SourceGraphic" in2="effect1_dropShadow_22_134254" result="shape"/>
</filter>
</defs>
</svg>
