<svg width="13" height="13" viewBox="0 0 13 13" fill="none" xmlns="http://www.w3.org/2000/svg">
<path d="M12.216 0.0012875L8.89024 0.414373C8.77423 0.428436 8.72677 0.569061 8.80763 0.651678L9.76915 1.6132L7.07091 4.31144C7.04474 4.33787 7.03006 4.37357 7.03006 4.41076C7.03006 4.44796 7.04474 4.48365 7.07091 4.51008L7.86368 5.30285C7.91817 5.35734 8.00782 5.35734 8.06231 5.30285L10.7623 2.60285L11.7238 3.56437C11.7424 3.58291 11.7658 3.59585 11.7914 3.60171C11.8169 3.60756 11.8436 3.60609 11.8684 3.59747C11.8932 3.58884 11.915 3.57341 11.9314 3.55295C11.9478 3.53248 11.9581 3.50781 11.9611 3.48176L12.3725 0.157733C12.3754 0.136505 12.3733 0.114891 12.3665 0.0945833C12.3597 0.0742754 12.3482 0.0558242 12.3331 0.0406733C12.3179 0.0255224 12.2995 0.0140828 12.2792 0.00725005C12.2589 0.000417259 12.2373 -0.00162337 12.216 0.0012875ZM4.50977 7.07121C4.48334 7.04504 4.44765 7.03036 4.41046 7.03036C4.37326 7.03036 4.33757 7.04504 4.31114 7.07121L1.6129 9.77121L0.651376 8.80969C0.632825 8.79114 0.609424 8.77821 0.583857 8.77235C0.55829 8.7665 0.531591 8.76797 0.50682 8.77659C0.48205 8.78522 0.460211 8.80064 0.443807 8.82111C0.427402 8.84158 0.417097 8.86625 0.414071 8.8923L0.000985365 12.2163C-0.00956151 12.3077 0.0660243 12.3833 0.157431 12.3728L3.48321 11.9597C3.59923 11.9456 3.64669 11.805 3.56583 11.7224L2.60431 10.7609L5.30431 8.06086C5.3588 8.00636 5.3588 7.91672 5.30431 7.86222L4.50977 7.07121Z" fill="#626262"/>
</svg>
