<svg width="20" height="24" viewBox="0 0 20 24" fill="none" xmlns="http://www.w3.org/2000/svg">
  <circle cx="10" cy="10" r="9.5" stroke="black"/>
  <line x1="10.0996" y1="19.5" x2="10.0996" y2="23.5" stroke="black" stroke-linecap="round"/>
  <path d="M9.36436 6.7401L9.05776 6.77841C8.03111 6.90673 7.22571 7.89189 7.36585 9.07291L9.36436 6.7401ZM9.36436 6.7401V6.43112M9.36436 6.7401V6.43112M9.36436 6.43112V5.68148C9.36436 5.48316 9.51575 5.35 9.6623 5.35H10.3102C10.4568 5.35 10.6082 5.48316 10.6082 5.68148V6.43623V6.74742M9.36436 6.43112L10.6082 6.74742M10.6082 6.74742L10.9172 6.78383M10.6082 6.74742L10.9172 6.78383M10.9172 6.78383C11.3142 6.83059 11.7003 6.97661 12.048 7.21479L12.2458 6.92604L12.0476 7.21446C12.0556 7.21996 12.0656 7.22937 12.0752 7.24424C12.0848 7.25916 12.093 7.27832 12.0979 7.30096C12.1027 7.32359 12.1036 7.34759 12.1004 7.37105C12.0971 7.39452 12.09 7.41528 12.0809 7.43218L12.08 7.43397M10.9172 6.78383L12.08 7.43397M12.08 7.43397C12.0734 7.4464 12.0661 7.45591 12.0592 7.46285L12.0592 7.4628M12.08 7.43397L12.0592 7.4628M12.0592 7.4628L12.0545 7.46772M12.0592 7.4628L12.0545 7.46772M12.0545 7.46772L11.3458 8.21301C11.3283 8.23149 11.3086 8.24098 11.2846 8.24419C11.2584 8.24769 11.2217 8.24388 11.1802 8.22396L11.1802 8.22393M12.0545 7.46772L11.1802 8.22393M11.1802 8.22393L11.1758 8.22187M11.1802 8.22393L11.1758 8.22187M11.1758 8.22187C10.9978 8.13944 10.8057 8.0961 10.6104 8.09575H10.6098M11.1758 8.22187L10.6098 8.09575M10.6098 8.09575H9.28182C8.88361 8.09575 8.59162 8.43205 8.59162 8.80353H8.59149M10.6098 8.09575L8.59149 8.80353M8.59149 8.80353L8.59175 8.81297M8.59149 8.80353L8.59175 8.81297M8.59175 8.81297C8.5957 8.95975 8.6419 9.10577 8.72948 9.22793C8.81623 9.34895 8.94169 9.4431 9.09232 9.48497L11.1118 10.0926C11.1119 10.0926 11.112 10.0926 11.1121 10.0926C11.889 10.3284 12.5029 11.0004 12.6026 11.8308C12.7428 13.0121 11.9389 13.997 10.9111 14.1253L10.6044 14.1636M8.59175 8.81297L10.6044 14.1636M10.6044 14.1636V14.4726M10.6044 14.1636V14.4726M10.6044 14.4726V15.2223C10.6044 15.4203 10.4529 15.5537 10.3061 15.5537H9.65819C9.5119 15.5537 9.36026 15.4205 9.36026 15.2223V14.4684V14.1572M10.6044 14.4726L9.36026 14.1572M9.36026 14.1572L9.0512 14.1208M9.36026 14.1572L9.0512 14.1208M9.0512 14.1208C8.65432 14.074 8.26837 13.928 7.92081 13.6898L7.92062 13.6897M9.0512 14.1208L7.92062 13.6897M7.92062 13.6897C7.91269 13.6843 7.90272 13.675 7.89318 13.6602C7.8836 13.6454 7.87532 13.6264 7.87046 13.6039C7.8656 13.5814 7.86463 13.5575 7.86779 13.5341C7.8709 13.511 7.87775 13.4905 7.88661 13.4737C7.89385 13.4604 7.90187 13.4501 7.90958 13.4424L7.90966 13.4425M7.92062 13.6897L7.90966 13.4425M7.90966 13.4425L7.9158 13.436M7.90966 13.4425L7.9158 13.436M7.9158 13.436L8.62445 12.6907L7.9158 13.436ZM8.79031 12.6799L8.79032 12.6799C8.74846 12.6598 8.71168 12.6561 8.6856 12.6596C8.66181 12.6627 8.64218 12.6721 8.62454 12.6906L8.79031 12.6799ZM8.79031 12.6799L8.79452 12.6819M8.79031 12.6799L8.79452 12.6819M8.79452 12.6819C8.97187 12.764 9.16326 12.8073 9.35787 12.808H9.35903M8.79452 12.6819L9.35903 12.808M9.35903 12.808H10.687C11.0852 12.808 11.3772 12.4717 11.3772 12.1002H11.3773M9.35903 12.808L11.3773 12.1002M11.3773 12.1002L11.3771 12.0908M11.3773 12.1002L11.3771 12.0908M11.3771 12.0908C11.3731 11.944 11.3269 11.798 11.2393 11.6758C11.1526 11.5548 11.0271 11.4606 10.8765 11.4188M11.3771 12.0908L10.8765 11.4188M10.8765 11.4188L8.8572 10.8112C8.85708 10.8112 8.85696 10.8112 8.85684 10.8111C8.08084 10.5753 7.46513 9.90295 7.36586 9.073L10.8765 11.4188Z" stroke="black" stroke-width="0.7"/>
</svg>
