<svg width="48" height="48" viewBox="0 0 48 48" fill="none" xmlns="http://www.w3.org/2000/svg">
<circle cx="24" cy="24" r="24" fill="#EBF7EC"/>
<path d="M25.8432 22.9594L24.622 22.6828V16.3875C26.449 16.6313 27.5789 17.7469 27.7712 19.1156C27.7952 19.3031 27.9587 19.4391 28.151 19.4391H30.3098C30.5357 19.4391 30.7136 19.2469 30.6944 19.0266C30.4011 16.1062 27.9347 14.2313 24.6412 13.9078V12.375C24.6412 12.1687 24.4682 12 24.2566 12H22.9056C22.694 12 22.521 12.1687 22.521 12.375V13.9219C19.117 14.2453 16.4534 16.0781 16.4534 19.5C16.4534 22.6687 18.8477 24.1969 21.3622 24.7828L22.5498 25.0781V31.7672C20.4247 31.4906 19.2323 30.3844 18.9871 28.8938C18.9583 28.7156 18.7948 28.5844 18.6073 28.5844H16.3861C16.1601 28.5844 15.9822 28.7719 16.0014 28.9922C16.2178 31.5703 18.2227 33.9422 22.5017 34.2469V35.7188C22.5017 35.925 22.6748 36.0938 22.8864 36.0938H24.2518C24.4634 36.0938 24.6364 35.925 24.6364 35.7141L24.6268 34.2281C28.3914 33.9047 31.0839 31.9406 31.0839 28.4156C31.079 25.1625 28.9588 23.7094 25.8432 22.9594ZM22.545 22.2C22.2758 22.125 22.0498 22.0547 21.8238 21.9656C20.1987 21.3938 19.4439 20.4703 19.4439 19.2797C19.4439 17.5781 20.7661 16.6078 22.545 16.3875V22.2ZM24.622 31.7812V25.5141C24.7711 25.5562 24.9057 25.5891 25.0451 25.6172C27.3193 26.2922 28.0837 27.2297 28.0837 28.6687C28.0837 30.5016 26.6702 31.6031 24.622 31.7812Z" fill="#4B942D"/>
</svg>
