<svg width="24" height="24" viewBox="0 0 24 24" fill="none" xmlns="http://www.w3.org/2000/svg">
<path d="M9.80078 14.0881H3.1814C1.97699 14.0881 1.00062 13.1118 1.00062 11.9073V11.9073C1.00062 10.7029 1.97699 9.72656 3.1814 9.72656H9.80078" stroke="#000"/>
<path d="M14.2009 13.6484V20.6077C14.2009 21.8227 13.2159 22.8077 12.0008 22.8077V22.8077C10.7858 22.8077 9.80078 21.8227 9.80078 20.6077V13.6484" stroke="#000"/>
<path d="M14.2009 10.1562V3.19702C14.2009 1.98197 13.2159 0.996979 12.0008 0.996979V0.996979C10.7858 0.996979 9.80078 1.98197 9.80078 3.19702V10.1562" stroke="#000"/>
<path d="M14.1992 14.0881H20.8186C22.023 14.0881 22.9994 13.1117 22.9994 11.9073V11.9073C22.9994 10.7029 22.023 9.72656 20.8186 9.72656H14.1992" stroke="#000"/>
</svg>
