<svg width="22" height="22" viewBox="0 0 22 22" fill="none" xmlns="http://www.w3.org/2000/svg">
<path d="M17.0038 6.01643L15.9311 4.95312L12.3542 8.49797C12.0505 8.35117 11.7173 8.27406 11.3794 8.27238C10.9293 8.27238 10.4892 8.40468 10.115 8.65257C9.74071 8.90046 9.44901 9.25279 9.27676 9.66501C9.1045 10.0772 9.05943 10.5308 9.14725 10.9684C9.23506 11.406 9.45182 11.808 9.7701 12.1235C10.0884 12.439 10.4939 12.6539 10.9354 12.7409C11.3769 12.828 11.8345 12.7833 12.2503 12.6125C12.6662 12.4418 13.0216 12.1526 13.2717 11.7817C13.5218 11.4107 13.6552 10.9745 13.6552 10.5283C13.6535 10.1934 13.5757 9.8631 13.4277 9.56203L17.0038 6.01643ZM11.3794 11.2803C11.2293 11.2803 11.0827 11.2362 10.9579 11.1536C10.8332 11.0709 10.7359 10.9535 10.6785 10.8161C10.6211 10.6787 10.6061 10.5275 10.6353 10.3816C10.6646 10.2357 10.7369 10.1018 10.843 9.99659C10.949 9.89142 11.0842 9.8198 11.2314 9.79079C11.3785 9.76177 11.5311 9.77667 11.6697 9.83358C11.8083 9.8905 11.9268 9.98688 12.0101 10.1105C12.0935 10.2342 12.138 10.3796 12.138 10.5283C12.1378 10.7277 12.0578 10.9189 11.9156 11.0598C11.7734 11.2008 11.5805 11.2801 11.3794 11.2803Z" fill="#000"/>
<path d="M11 21.8075C8.82441 21.8075 6.69767 21.168 4.88873 19.9699C3.07979 18.7718 1.66989 17.0688 0.83733 15.0764C0.00476611 13.084 -0.213071 10.8917 0.211367 8.77654C0.635804 6.66142 1.68345 4.71856 3.22183 3.19364C4.76021 1.66872 6.72022 0.630241 8.85401 0.209517C10.9878 -0.211206 13.1995 0.00472441 15.2095 0.830003C17.2195 1.65528 18.9375 3.05284 20.1462 4.84596C21.3549 6.63907 22 8.7472 22 10.9038C21.9967 13.7946 20.8367 16.5661 18.7745 18.6102C16.7123 20.6544 13.9164 21.8042 11 21.8075ZM11 1.55768C9.13521 1.55768 7.31229 2.10582 5.76177 3.13278C4.21125 4.15974 3.00277 5.6194 2.28914 7.32717C1.57551 9.03494 1.3888 10.9141 1.7526 12.7271C2.1164 14.54 3.01439 16.2054 4.333 17.5124C5.65161 18.8195 7.33162 19.7096 9.16058 20.0702C10.9895 20.4309 12.8853 20.2458 14.6082 19.5384C16.331 18.831 17.8035 17.6331 18.8396 16.0962C19.8756 14.5592 20.4286 12.7522 20.4286 10.9038C20.4257 8.42591 19.4314 6.05037 17.6638 4.29827C15.8962 2.54617 13.4997 1.56057 11 1.55768Z" fill="#000"/>
<path d="M17.5387 7.89372C17.9674 8.80793 18.2068 9.82708 18.2068 10.9016C18.2068 14.8471 14.9801 18.0455 10.9999 18.0455C7.01961 18.0455 3.79297 14.8471 3.79297 10.9016C3.79297 6.95622 7.01961 3.75781 10.9999 3.75781C12.0839 3.75781 13.1121 3.99506 14.0344 4.42004" stroke="#000" stroke-width="2"/>
</svg>
