<svg width="18" height="22" viewBox="0 0 18 22" fill="none" xmlns="http://www.w3.org/2000/svg">
<path d="M14.8694 11.3921L14.8842 11.3643L14.8954 11.3349C15.3025 10.2664 15.4588 9.14129 15.3636 8.02876C15.5398 8.25501 15.7232 8.50512 15.9053 8.77592C16.7864 10.0868 17.5965 11.8238 17.4893 13.6606C17.426 14.6439 17.1245 15.6065 16.6018 16.483C16.1221 17.2873 15.4657 18.0028 14.6685 18.5866C13.314 18.0018 12.0495 17.269 10.9043 16.4063C12.534 14.9506 13.876 13.2556 14.8694 11.3921Z" stroke="#999999"/>
<path d="M11.8744 6.45968L11.8815 6.46696L11.8889 6.47395C12.4059 6.95895 12.796 7.5324 13.0374 8.15394C13.2748 8.76493 13.3642 9.41109 13.3016 10.0516C13.1254 10.7537 12.5284 11.6761 11.7202 12.6384C11.0188 13.4736 10.2008 14.29 9.4785 14.9457C7.41683 13.249 6.04773 11.0042 5.57389 8.56093C5.57314 8.55517 5.57199 8.54587 5.57062 8.53317C5.56752 8.5044 5.5633 8.4582 5.55998 8.39608C5.55333 8.27178 5.55033 8.0841 5.56709 7.84487C5.60061 7.36655 5.7131 6.683 6.03326 5.88722C6.58639 4.51239 7.77473 2.76476 10.3261 1.15647C10.0426 2.21024 10.0589 3.32079 10.3887 4.38307L10.4018 4.42528L10.4221 4.46454C10.7974 5.18989 11.2869 5.86156 11.8744 6.45968ZM5.57478 8.56753L5.57457 8.5662L5.57466 8.56675L5.57478 8.56753Z" stroke="#999999"/>
<path d="M3.55895 7.81378C3.55471 8.12061 3.56967 8.46558 3.61552 8.84447C3.81197 10.4677 4.57149 12.681 6.7574 15.1628L6.76214 15.1682L6.76702 15.1735C8.65463 17.1968 10.4112 18.4736 11.7043 19.2472C12.2544 19.5763 12.7205 19.8142 13.0767 19.9797C12.96 20.0739 12.8407 20.1657 12.7187 20.2549C11.4242 21.0007 9.92658 21.4327 8.37709 21.5034C6.76643 21.4434 5.21535 20.9656 3.91591 20.1344L3.91595 20.1343L3.90939 20.1303C2.73381 19.4036 1.80681 18.4155 1.2177 17.2743C0.630072 16.1361 0.397951 14.8835 0.541093 13.6446C0.856813 11.4827 1.90548 9.44864 3.55895 7.81378Z" stroke="#999999"/>
</svg>
