<svg width="20" height="20" viewBox="0 0 20 20" fill="none" xmlns="http://www.w3.org/2000/svg">
<path d="M17.7778 11.4846V7.92998C17.7778 4.74114 15.35 2.05486 12.0611 1.24699C11.7356 0.515449 10.94 0 10 0C9.06 0 8.26444 0.515449 7.93889 1.24699C4.65 2.05585 2.22222 4.74114 2.22222 7.92998V11.4846L0.325556 13.1767C0.222175 13.2685 0.140188 13.3778 0.0843159 13.498C0.0284434 13.6183 -0.000211663 13.7473 0 13.8775V15.86C0 16.1229 0.117063 16.375 0.325437 16.5609C0.533811 16.7468 0.816426 16.8512 1.11111 16.8512H18.8889C19.1836 16.8512 19.4662 16.7468 19.6746 16.5609C19.8829 16.375 20 16.1229 20 15.86V13.8775C20.0002 13.7473 19.9716 13.6183 19.9157 13.498C19.8598 13.3778 19.7778 13.2685 19.6744 13.1767L17.7778 11.4846ZM18.8889 15.86H1.11111L1.11111 13.8775L3.33333 11.895C3.27746 12.0152 3.43671 11.8031 3.33333 11.895C3.38921 11.7747 3.33354 11.5295 3.33333 11.3993V7.43436C3.33333 4.70149 6.93667 1.98249 10 1.98249C13.0633 1.98249 16.6667 5.19711 16.6667 7.92998V11.895C16.6667 12.1586 17.0133 12.2052 17.2222 12.3906L18.8889 14.3731V15.86ZM10 19.8249C10.6881 19.8257 11.3594 19.6352 11.9205 19.2799C12.4817 18.9246 12.9048 18.4222 13.1311 17.8425H6.86889C7.09518 18.4222 7.51831 18.9246 8.07946 19.2799C8.6406 19.6352 9.31189 19.8257 10 19.8249Z" fill="#000"/>
</svg>
