<svg width="15" height="20" viewBox="0 0 15 20" fill="none" xmlns="http://www.w3.org/2000/svg">
<path d="M9.46094 0.703125V4.66812C9.46094 4.93101 9.55526 5.18314 9.72316 5.36903C9.89105 5.55493 10.1188 5.65936 10.3562 5.65936H13.9373" stroke="#999999" stroke-linecap="round" stroke-linejoin="round"/>
<path d="M12.1456 18.5456H3.19289C2.718 18.5456 2.26257 18.3368 1.92678 17.965C1.59099 17.5932 1.40234 17.0889 1.40234 16.5631V2.68562C1.40234 2.15983 1.59099 1.65558 1.92678 1.28379C2.26257 0.911995 2.718 0.703125 3.19289 0.703125H9.45978L13.9361 5.65937V16.5631C13.9361 17.0889 13.7475 17.5932 13.4117 17.965C13.0759 18.3368 12.6205 18.5456 12.1456 18.5456Z" stroke="#999999" stroke-linecap="round" stroke-linejoin="round"/>
<path d="M4.98438 4.67188H5.87963" stroke="#999999" stroke-linecap="round" stroke-linejoin="round"/>
<path d="M4.98438 10.6172H10.356" stroke="#999999" stroke-linecap="round" stroke-linejoin="round"/>
<path d="M8.56445 14.5781H10.355" stroke="#999999" stroke-linecap="round" stroke-linejoin="round"/>
</svg>
