<svg width="20" height="20" viewBox="0 0 20 20" fill="none" xmlns="http://www.w3.org/2000/svg">
<path d="M12.1175 12.8201C13.8823 11.3002 16.4705 9.05339 16.4705 0.660832V0H3.5293V0.660832C3.5293 9.05339 6.17636 11.3002 7.88225 12.8201C8.88225 13.6792 9.41166 14.1418 9.41166 15.1991V17.1816C8.47048 17.3138 7.5293 17.7103 7.17636 18.5033H5.88224C5.23518 18.5033 4.70577 19.098 4.70577 19.825H15.294C15.294 19.098 14.7646 18.5033 14.1176 18.5033H12.8234C12.4705 17.7103 11.5881 17.3138 10.5881 17.1816V15.1991C10.5881 14.1418 11.0587 13.6792 12.1175 12.8201ZM9.9999 13.1506C9.64696 12.6219 9.11754 12.1593 8.64695 11.7628C7.05872 10.3751 4.88224 8.52473 4.76459 1.32166H15.3528C15.2352 8.45865 13.0587 10.3751 11.4705 11.7628C10.8823 12.2254 10.3528 12.6219 9.9999 13.1506Z" fill="#999999"/>
<path d="M6.35295 11.2328C6.29413 11.2328 0 9.71287 0 1.98114V1.32031H4.11766V2.64198H1.17647C1.52941 8.72163 6.52943 9.91112 6.58825 9.91112L6.35295 11.2328Z" fill="#999999"/>
<path d="M13.6474 11.2328L13.4121 9.91112C13.6474 9.84504 18.471 8.65554 18.8239 2.64198H15.8827V1.32031H20.0004V1.98114C20.0004 9.71287 13.7062 11.2328 13.6474 11.2328Z" fill="#999999"/>
</svg>
