<svg width="20" height="20" viewBox="0 0 20 20" fill="none" xmlns="http://www.w3.org/2000/svg">
<path d="M10 0C7.30193 0.0502624 4.73411 1.15929 2.85972 3.08386C0.985322 5.00842 -0.042616 7.5914 0.00135474 10.2663V19.8245H3.71514C4.23296 19.8359 4.73422 19.6434 5.10907 19.289C5.48391 18.9347 5.70176 18.4474 5.71487 17.9341V13.2187C5.70176 12.7054 5.48391 12.2182 5.10907 11.8638C4.73422 11.5095 4.23296 11.3169 3.71514 11.3283H1.42973V10.2663C1.3857 7.96693 2.26313 5.74408 3.86966 4.08506C5.4762 2.42605 7.68075 1.46623 10 1.41604C12.3193 1.46623 14.5238 2.42605 16.1303 4.08506C17.7369 5.74408 18.6143 7.96693 18.5703 10.2663V11.3283H16.2849C15.767 11.3169 15.2658 11.5095 14.8909 11.8638C14.5161 12.2182 14.2982 12.7054 14.2851 13.2187V17.9412C14.3001 18.4533 14.5188 18.9387 14.8934 19.2915C15.268 19.6444 15.7682 19.836 16.2849 19.8245H19.9986V10.2663C20.0426 7.5914 19.0147 5.00842 17.1403 3.08386C15.2659 1.15929 12.6981 0.0502624 10 0ZM3.71514 12.7443C3.85386 12.7344 3.99104 12.7783 4.09767 12.8669C4.2043 12.9554 4.27201 13.0816 4.28649 13.2187V17.9412C4.27201 18.0783 4.2043 18.2045 4.09767 18.293C3.99104 18.3816 3.85386 18.4255 3.71514 18.4156H1.42973V12.7443H3.71514ZM15.7135 17.9341V13.2187C15.728 13.0816 15.7957 12.9554 15.9023 12.8669C16.009 12.7783 16.1461 12.7344 16.2849 12.7443H18.5703V18.4085H16.2849C16.1461 18.4184 16.009 18.3745 15.9023 18.286C15.7957 18.1974 15.728 18.0713 15.7135 17.9341Z" fill="#999999"/>
</svg>
