<svg width="20" height="20" viewBox="0 0 20 20" fill="none" xmlns="http://www.w3.org/2000/svg">
<path d="M19.8279 4.47721C19.7127 3.9686 19.5348 3.48072 19.2994 3.02778C19.0733 2.5566 18.7843 2.12748 18.4423 1.75551C17.9466 1.1985 17.3596 0.755454 16.7139 0.451025C15.4142 -0.150342 13.9567 -0.150342 12.657 0.451025C12.0467 0.742261 11.486 1.15097 10.9999 1.65888L10.9285 1.75551L10 2.80232L9.07148 1.75551L9.00006 1.65888C8.51402 1.15097 7.95332 0.742261 7.34302 0.451025C6.04332 -0.150342 4.58583 -0.150342 3.28613 0.451025C2.64043 0.755454 2.05339 1.1985 1.55767 1.75551C0.879659 2.49927 0.399701 3.44203 0.172042 4.47721C0.0509284 5.0029 -0.0067308 5.54461 0.000624357 6.08768C0.000624357 6.5982 0.0577636 7.10711 0.172042 7.60152C0.291797 8.10084 0.464458 8.58208 0.686296 9.03484C0.925874 9.50028 1.21886 9.92806 1.55767 10.3071L10 19.825L18.4423 10.3071C18.7809 9.93188 19.0709 9.50188 19.2994 9.03484C19.7634 8.1412 20.0052 7.12313 19.9994 6.08768C20.0068 5.5446 19.9491 5.00289 19.8279 4.47721ZM18.3995 7.10228C18.2284 7.83813 17.8884 8.51022 17.4138 9.05095L9.97143 17.4254L2.52904 9.05095C2.28651 8.77559 2.07538 8.46722 1.9005 8.13298C1.73595 7.80231 1.6065 7.45096 1.51481 7.08617C1.44162 6.72143 1.40331 6.34889 1.40054 5.97495C1.40247 5.59031 1.44078 5.20699 1.51481 4.83151C1.60381 4.46567 1.7334 4.11396 1.9005 3.7847C2.07192 3.4465 2.28334 3.14051 2.52904 2.86673C2.89601 2.45855 3.32712 2.13088 3.80039 1.90045C4.75406 1.47033 5.81795 1.47033 6.77163 1.90045C7.24303 2.12109 7.66871 2.44479 8.02869 2.85063L9.97143 5.05698L11.9142 2.85063C12.2739 2.44407 12.701 2.12122 13.1712 1.90045C14.1249 1.47033 15.1888 1.47033 16.1425 1.90045C16.6153 2.13075 17.0467 2.45928 17.4138 2.86673C17.6624 3.13246 17.8709 3.44167 18.0281 3.7847C18.3589 4.44252 18.5313 5.18653 18.528 5.94274C18.5475 6.33186 18.5186 6.72214 18.4423 7.10228H18.3995Z" fill="#999999"/>
</svg>
