<svg width="157" height="116" viewBox="0 0 157 116" fill="none" xmlns="http://www.w3.org/2000/svg">
<path d="M153.134 38.4754C156.955 42.3726 156.955 47.6337 153.134 51.5246C141.097 63.7754 112.218 89 78.5012 89C44.7847 89 15.9056 63.7754 3.8686 51.5246C2.0093 49.6585 1 47.3629 1 45C1 42.6371 2.0093 40.3415 3.8686 38.4754C15.9056 26.2246 44.7847 1 78.5012 1C112.218 1 141.097 26.2246 153.134 38.4754V38.4754Z" stroke="black" stroke-width="2" stroke-linecap="round" stroke-linejoin="round"/>
<path d="M78.5 64C92.031 64 103 55.4934 103 45C103 34.5066 92.031 26 78.5 26C64.969 26 54 34.5066 54 45C54 55.4934 64.969 64 78.5 64Z" stroke="black" stroke-width="2" stroke-linecap="round" stroke-linejoin="round"/>
<path d="M155 89.5C155 103.583 143.583 115 129.5 115C115.417 115 104 103.583 104 89.5C104 75.4167 115.417 64 129.5 64C143.583 64 155 75.4167 155 89.5Z" fill="white" stroke="black" stroke-width="2"/>
<path d="M126.817 93.4525V92.4525H125.817H113.874C112.295 92.4525 111 91.1588 111 89.5437C111 87.9287 112.295 86.635 113.874 86.635H125.754H126.754V85.635V73.9088C126.754 72.2937 128.049 71 129.627 71C131.206 71 132.501 72.2937 132.501 73.9088V85.2997V86.2997H133.501H145.126C146.705 86.2997 148 87.5934 148 89.2085C148 90.8235 146.705 92.1172 145.126 92.1172H133.241H132.241V93.1172V105.254C132.241 106.779 131.018 108 129.529 108C128.04 108 126.817 106.779 126.817 105.254V93.4525Z" stroke="black" stroke-width="2"/>
</svg>
