<svg width="166" height="98" viewBox="0 0 166 98" fill="none" xmlns="http://www.w3.org/2000/svg">
<path d="M157.134 42.4754C160.955 46.3726 160.955 51.6337 157.134 55.5246C145.097 67.7754 116.218 93 82.5012 93C48.7847 93 19.9056 67.7754 7.8686 55.5246C6.0093 53.6585 5 51.3629 5 49C5 46.6371 6.0093 44.3415 7.8686 42.4754C19.9056 30.2246 48.7847 5 82.5012 5C116.218 5 145.097 30.2246 157.134 42.4754V42.4754Z" stroke="#A3B5FF" stroke-width="9" stroke-linecap="round" stroke-linejoin="round"/>
<path d="M82.5 68C96.031 68 107 59.4934 107 49C107 38.5066 96.031 30 82.5 30C68.969 30 58 38.5066 58 49C58 59.4934 68.969 68 82.5 68Z" stroke="#A3B5FF" stroke-width="9" stroke-linecap="round" stroke-linejoin="round"/>
<path d="M139.5 94C154.136 94 166 82.1355 166 67.5C166 52.8645 154.136 41 139.5 41C124.864 41 113 52.8645 113 67.5C113 82.1355 124.864 94 139.5 94Z" fill="#41595F"/>
<path d="M138.817 71.4525V68.4525H135.817H123.874C123.417 68.4525 123 68.0713 123 67.5437C123 67.0161 123.417 66.635 123.874 66.635H135.754H138.754V63.635V51.9088C138.754 51.3812 139.17 51 139.627 51C140.084 51 140.501 51.3812 140.501 51.9088V63.2997V66.2997H143.501H155.126C155.583 66.2997 156 66.6809 156 67.2085C156 67.7361 155.583 68.1172 155.126 68.1172H143.241H140.241V71.1172V83.2541C140.241 83.6917 139.897 84 139.529 84C139.161 84 138.817 83.6917 138.817 83.2541V71.4525Z" stroke="white" stroke-width="6"/>
</svg>
