<svg width="122" height="121" viewBox="0 0 122 121" fill="none" xmlns="http://www.w3.org/2000/svg">
<path d="M35.2943 15.125C21.3742 15.125 10.0859 26.2973 10.0859 40.0812C10.0859 51.2082 14.4974 77.6165 57.9213 104.312C58.6991 104.785 59.5921 105.036 60.5026 105.036C61.4131 105.036 62.3061 104.785 63.0839 104.312C106.508 77.6165 110.919 51.2082 110.919 40.0812C110.919 26.2973 99.631 15.125 85.7109 15.125C71.7909 15.125 60.5026 30.25 60.5026 30.25C60.5026 30.25 49.2143 15.125 35.2943 15.125Z" stroke="black" stroke-width="2" stroke-linecap="round" stroke-linejoin="round"/>
<path d="M121 76.5C121 90.5833 109.583 102 95.5 102C81.4167 102 70 90.5833 70 76.5C70 62.4167 81.4167 51 95.5 51C109.583 51 121 62.4167 121 76.5Z" fill="white" stroke="black" stroke-width="2"/>
<path d="M91.7538 73.635H91.8169H92.7538V72.9608V72.635V60.9088C92.7538 59.2937 94.0489 58 95.6274 58C97.2058 58 98.5009 59.2937 98.5009 60.9088V72.2997V72.9608V73.2997H99.1831H99.5009H111.126C112.705 73.2997 114 74.5934 114 76.2085C114 77.8235 112.705 79.1172 111.126 79.1172H99.2411H99.1831H98.2411V80.0392V80.1172V92.2541C98.2411 93.7792 97.0183 95 95.529 95C94.0397 95 92.8169 93.7792 92.8169 92.2541V80.4525V80.0392V79.4525H91.8169H79.8735C78.295 79.4525 77 78.1588 77 76.5437C77 74.9287 78.295 73.635 79.8735 73.635H91.7538Z" stroke="black" stroke-width="2"/>
</svg>
