<svg width="118" height="106" viewBox="0 0 118 106" fill="none" xmlns="http://www.w3.org/2000/svg">
<path d="M109.29 21.7226C107.553 17.4717 105.047 13.6196 101.914 10.382C98.7778 7.13464 95.0808 4.55403 91.0234 2.78047C86.8161 0.934097 82.3036 -0.0109816 77.7478 9.62702e-05C71.3563 9.62702e-05 65.1204 1.84911 59.7013 5.34169C58.4048 6.17717 57.1732 7.09483 56.0064 8.09467C54.8396 7.09483 53.608 6.17717 52.3115 5.34169C46.8924 1.84911 40.6565 9.62702e-05 34.265 9.62702e-05C29.6626 9.62702e-05 25.2029 0.931452 20.9894 2.78047C16.9186 4.561 13.2497 7.12223 10.0993 10.382C6.96186 13.616 4.45559 17.469 2.72253 21.7226C0.920476 26.1465 0 30.8444 0 35.6792C0 40.2401 0.881583 44.9928 2.63178 49.8276C4.09677 53.8681 6.19701 58.0592 8.88065 62.2913C13.133 68.9889 18.9799 75.9741 26.24 83.0551C38.271 94.7929 50.1854 102.901 50.691 103.23L53.7636 105.312C55.1248 106.229 56.875 106.229 58.2363 105.312L61.3089 103.23C61.8145 102.888 73.7158 94.7929 85.7598 83.0551C93.0199 75.9741 98.8669 68.9889 103.119 62.2913C105.803 58.0592 107.916 53.8681 109.368 49.8276C111.118 44.9928 112 40.2401 112 35.6792C112.013 30.8444 111.092 26.1465 109.29 21.7226ZM56.0064 94.4779C56.0064 94.4779 9.85298 63.2364 9.85298 35.6792C9.85298 21.7226 20.782 10.4094 34.265 10.4094C43.742 10.4094 51.9615 15.9975 56.0064 24.1606C60.0513 15.9975 68.2708 10.4094 77.7478 10.4094C91.2308 10.4094 102.16 21.7226 102.16 35.6792C102.16 63.2364 56.0064 94.4779 56.0064 94.4779Z" fill="#A3B5FF"/>
<path d="M91.5 95C106.136 95 118 83.1355 118 68.5C118 53.8645 106.136 42 91.5 42C76.8645 42 65 53.8645 65 68.5C65 83.1355 76.8645 95 91.5 95Z" fill="#41595F"/>
<path d="M90.8169 72.4525V69.4525H87.8169H75.8735C75.4167 69.4525 75 69.0713 75 68.5437C75 68.0161 75.4167 67.635 75.8735 67.635H87.7538H90.7538V64.635V52.9088C90.7538 52.3812 91.1705 52 91.6274 52C92.0842 52 92.5009 52.3812 92.5009 52.9088V64.2997V67.2997H95.5009H107.126C107.583 67.2997 108 67.6809 108 68.2085C108 68.7361 107.583 69.1172 107.126 69.1172H95.2411H92.2411V72.1172V84.2541C92.2411 84.6917 91.8967 85 91.529 85C91.1613 85 90.8169 84.6917 90.8169 84.2541V72.4525Z" stroke="white" stroke-width="6"/>
</svg>
