<svg width="109" height="109" viewBox="0 0 109 109" fill="none" xmlns="http://www.w3.org/2000/svg">
<path d="M65.2 7.72975C65.2 4.01221 62.1612 1 58.4108 1H50.5945C46.8388 1 43.8 4.01221 43.8 7.72975C43.8 10.795 41.6814 13.4254 38.7977 14.5497C38.343 14.73 37.8883 14.9209 37.4442 15.1118C34.6034 16.3315 31.2275 15.9603 29.034 13.7913C27.7609 12.5303 26.0348 11.8219 24.235 11.8219C22.4353 11.8219 20.7092 12.5303 19.4361 13.7913L13.9042 19.2748C12.632 20.5367 11.9174 22.2477 11.9174 24.0318C11.9174 25.8158 12.632 27.5268 13.9042 28.7887C16.0977 30.963 16.4722 34.304 15.231 37.1253C15.036 37.5693 14.8487 38.0166 14.6692 38.467C13.535 41.3255 10.8815 43.4255 7.78915 43.4255C4.0388 43.4255 1 46.4377 1 50.1553V57.9085C1 61.6261 4.0388 64.6383 7.78915 64.6383C10.8815 64.6383 13.535 66.7384 14.6692 69.5968C14.8511 70.0475 15.0437 70.4983 15.231 70.9385C16.4668 73.7545 16.0924 77.1008 13.9042 79.2751C12.632 80.537 11.9174 82.248 11.9174 84.0321C11.9174 85.8161 12.632 87.5271 13.9042 88.789L19.4361 94.2725C20.7092 95.5336 22.4353 96.2419 24.235 96.2419C26.0348 96.2419 27.7609 95.5336 29.034 94.2725C31.2275 92.0982 34.598 91.727 37.4442 92.952C37.8883 93.1482 38.343 93.3339 38.7977 93.5142C41.6814 94.6384 43.8 97.2688 43.8 100.334C43.8 104.052 46.8388 107.064 50.5891 107.064H58.4108C62.1612 107.064 65.2 104.052 65.2 100.334C65.2 97.2688 67.3186 94.6384 70.2023 93.5089C70.657 93.3339 71.1117 93.1482 71.5558 92.9573C74.3966 91.727 77.7725 92.1035 79.9607 94.2725C80.5911 94.8977 81.3397 95.3937 82.1635 95.732C82.9874 96.0704 83.8705 96.2446 84.7623 96.2446C85.6541 96.2446 86.5371 96.0704 87.361 95.732C88.1849 95.3937 88.9334 94.8977 89.5639 94.2725L95.0958 88.789C96.368 87.5271 97.0826 85.8161 97.0826 84.0321C97.0826 82.248 96.368 80.537 95.0958 79.2751C92.9023 77.1008 92.5278 73.7598 93.7637 70.9385C93.9616 70.4983 94.1488 70.0475 94.3307 69.5968C95.4649 66.7384 98.1186 64.6383 101.211 64.6383C104.961 64.6383 108 61.6261 108 57.9085V50.1606C108 46.443 104.961 43.4308 101.211 43.4308C98.1186 43.4308 95.4649 41.3308 94.3254 38.4723C94.1461 38.0219 93.9589 37.5746 93.7637 37.1306C92.5332 34.3146 92.9076 30.9683 95.0958 28.794C96.368 27.5321 97.0826 25.8211 97.0826 24.0371C97.0826 22.253 96.368 20.542 95.0958 19.2801L89.5639 13.7966C88.2908 12.5356 86.5647 11.8272 84.7649 11.8272C82.9652 11.8272 81.2391 12.5356 79.966 13.7966C77.7725 15.9709 74.402 16.3421 71.5558 15.1171C71.1079 14.922 70.6567 14.7346 70.2023 14.555C67.3186 13.4254 65.2 10.7897 65.2 7.72975Z" stroke="black" stroke-width="2"/>
<path d="M81 54C81 60.8956 78.208 67.5088 73.2383 72.3848C68.2686 77.2607 61.5282 80 54.5 80C47.4718 80 40.7314 77.2607 35.7617 72.3848C30.792 67.5088 28 60.8956 28 54C28 47.1044 30.792 40.4912 35.7617 35.6152C40.7314 30.7393 47.4718 28 54.5 28C61.5282 28 68.2686 30.7393 73.2383 35.6152C78.208 40.4912 81 47.1044 81 54V54Z" stroke="black" stroke-width="2"/>
<path d="M67.1659 44.1644L62.1112 39.0838C61.7772 38.7515 61.3252 38.5649 60.854 38.5649C60.3828 38.5649 59.9308 38.7515 59.5968 39.0838L41.6771 56.9777L40.0409 64.0388C39.9845 64.297 39.9864 64.5644 40.0466 64.8217C40.1068 65.079 40.2237 65.3196 40.3887 65.5259C40.5538 65.7322 40.7628 65.8991 41.0006 66.0142C41.2384 66.1294 41.4989 66.19 41.7632 66.1916C41.8863 66.204 42.0103 66.204 42.1334 66.1916L49.2721 64.5555L67.1659 46.6788C67.4983 46.3448 67.6848 45.8928 67.6848 45.4216C67.6848 44.9504 67.4983 44.4984 67.1659 44.1644ZM48.4109 63.0055L41.7201 64.4091L43.2443 57.8474L56.6518 44.4916L61.8184 49.6583L48.4109 63.0055ZM62.9723 48.4097L57.8057 43.243L60.8023 40.2636L65.8829 45.4302L62.9723 48.4097Z" fill="black"/>
</svg>
