<svg width="124" height="135" viewBox="0 0 144 160" fill="none" xmlns="http://www.w3.org/2000/svg">
<rect x="1" y="5" width="111" height="142" fill="white" stroke="#41595F" stroke-width="2"/>
<line x1="11.7031" y1="102.855" x2="99.4573" y2="102.855" stroke="#41595F"/>
<path d="M94.9445 47.3255L78.2231 43.9878L77.2507 43.8181C76.7136 43.6753 75.0135 42.9142 72.6745 41.8941L72.9056 41.6902C73.3813 41.0646 73.2317 39.9629 72.4908 39.589C71.8651 39.1133 70.7635 39.2629 70.3896 40.0038L69.7981 40.7316C68.5197 40.2151 67.3567 39.5962 65.9765 38.9636L66.2212 38.5419C66.6969 37.9163 66.5473 36.8146 65.8064 36.4407C65.1807 35.965 64.0791 36.1145 63.7051 36.8555L63.2155 37.6986C62.0528 37.08 60.788 36.3457 59.6249 35.7268L59.9853 35.2029C60.461 34.5773 60.3115 33.4756 59.5705 33.1017C58.9449 32.626 57.8432 32.7755 57.4693 33.5165L56.9936 34.1421C56.8915 34.0264 56.674 34.0132 56.5718 33.8975C55.7288 33.4078 55.1031 32.9321 54.3754 32.3407L53.5594 31.4161C52.274 29.2605 50.3629 26.6293 48.0718 26.5956C45.6785 26.4462 43.5296 29.3704 44.3253 32.369L44.8695 34.1503C44.9716 34.266 44.8559 34.3681 44.7406 34.4699C36.0165 39.4956 33.0725 39.4211 31.2022 39.6322C28.2307 39.9931 27.2648 37.9664 26.4761 36.6069C25.3949 34.6828 24.5176 32.9897 20.4106 32.2963C18.9011 31.9837 17.4119 33.0921 17.2147 34.4998C16.7119 39.0561 14.4483 52.5675 14.347 55.9475C11.1652 61.4286 13.3889 66.0453 17.2785 66.7248C41.6905 71.0882 74.2275 69.5151 86.2085 66.5501C91.9879 64.9449 100.324 60.878 100.807 54.9007C101.16 52.7388 100.228 48.4206 94.9447 47.3261L94.9445 47.3255ZM20.4374 35.357C22.7018 35.8261 23.096 36.506 23.9872 37.9816C24.7764 39.3416 26.5034 43.163 31.5626 42.6052C36.0299 42.7747 42.7005 39.1502 46.4335 37.0896C47.7934 36.3005 48.4391 34.7029 47.9835 33.2544L47.4394 31.4731C47.1741 30.4736 47.6638 29.6305 48.0987 29.6577C48.5337 29.6848 49.7853 30.6366 51.0568 33.0096C51.451 33.6896 51.9612 34.2678 52.5869 34.7435C53.3146 35.3349 54.1577 35.8245 54.8854 36.4159C54.9876 36.5317 54.9876 36.5317 55.2051 36.5449L53.4033 39.1627C52.9276 39.7883 53.0772 40.89 53.8181 41.2639C54.4438 41.7396 55.5454 41.59 55.9194 40.8491L57.8368 38.1292C58.9995 38.7477 60.2643 39.482 61.4274 40.101L59.6392 42.5017C59.1635 43.1273 59.313 44.229 60.054 44.6029C60.6796 45.0786 61.7813 44.9291 62.1552 44.1881L64.0727 41.4682C65.4532 42.1003 66.6159 42.7189 67.8943 43.2361L66.3237 45.6485C65.848 46.2742 65.9976 47.3758 66.7385 47.7498C67.3642 48.2255 68.4658 48.0759 68.8398 47.335L70.8861 44.2954C73.8647 45.5737 76.1019 46.4777 76.3193 46.4916C76.4215 46.6073 76.5372 46.5052 76.639 46.6205L94.5502 50.1419C97.2495 50.638 97.8958 52.535 97.93 53.7385C93.0686 56.384 82.808 58.0369 80.6178 58.1192C46.6603 59.7123 28.9391 56.64 17.5629 55.1659C17.7667 51.902 19.1807 43.2523 20.4378 35.3578L20.4374 35.357ZM85.4123 63.5518C73.9822 66.4426 42.9676 68.1107 17.7879 63.808C15.4078 63.4411 15.7137 60.2929 16.7201 58.171C26.689 59.4487 45.1511 62.8949 80.6315 61.396C83.0388 61.3279 90.7634 60.0625 95.9039 58.1985C93.1161 60.8645 87.7445 62.9318 85.4121 63.5512L85.4123 63.5518Z" fill="#A3B5FF"/>
<path d="M22.2551 51.6356L27.5655 52.2948C28.4362 52.3492 29.2315 51.8524 29.2858 50.9826C29.3401 50.1119 28.8434 49.3166 27.9735 49.2623L22.6631 48.6031C21.7925 48.5488 20.9971 49.0455 20.9428 49.9154C20.7864 50.6703 21.5005 51.4795 22.2551 51.6356Z" fill="#A3B5FF"/>
<line x1="11.7031" y1="112.605" x2="99.4573" y2="112.605" stroke="#41595F"/>
<line x1="11.7031" y1="124.305" x2="99.4573" y2="124.305" stroke="#41595F"/>
<line x1="11.7031" y1="136.008" x2="99.4573" y2="136.008" stroke="#41595F"/>
<path d="M139.964 138.627C141.345 140.045 141.345 141.958 139.964 143.373C135.616 147.827 125.182 157 113 157C100.819 157 90.3852 147.827 86.0364 143.373C85.3646 142.694 85 141.859 85 141C85 140.141 85.3646 139.306 86.0364 138.627C90.3852 134.173 100.819 125 113 125C125.182 125 135.616 134.173 139.964 138.627Z" fill="white" stroke="#A3B5FF" stroke-width="5" stroke-linecap="round" stroke-linejoin="round"/>
<path d="M113.012 147.859C117.838 147.859 121.75 144.789 121.75 141.002C121.75 137.215 117.838 134.145 113.012 134.145C108.186 134.145 104.273 137.215 104.273 141.002C104.273 144.789 108.186 147.859 113.012 147.859Z" fill="white" stroke="#A3B5FF" stroke-width="5" stroke-linecap="round" stroke-linejoin="round"/>
</svg>
