<svg width="107" height="107" viewBox="0 0 107 107" fill="none" xmlns="http://www.w3.org/2000/svg">
<path fill-rule="evenodd" clip-rule="evenodd" d="M23.2826 23.3125H45.3004V45.1862H23.2826V23.3125ZM78.1832 78.1796H83.7772V83.6916H78.1832V78.1796ZM67.3968 78.1796H73.0169V83.4042H61.7855V72.6851H67.1961V67.2427H72.729V56.393H78.3665V61.7221H83.7073V67.234H78.3665V72.746H67.3968V78.1709V78.1796ZM50.7373 67.1557H56.1741V61.6437H50.938V56.1317H56.1741V50.6198H50.8245V56.1317H45.2044V50.6198H50.7285V34.2493H56.3399V50.6111H61.7768V56.123H67.1263V50.6111H72.7377V56.123H67.3968V61.635H61.7855V72.4848H56.3486V83.4303H50.7373V67.1557ZM78.096 50.6111H83.7073V56.123H78.096V50.6111ZM34.2522 50.6111H39.8636V56.123H34.2522V50.6111ZM23.2826 50.6111H28.8939V56.123H23.2826V50.6111ZM50.7373 23.3125H56.3486V28.8245H50.7373V23.3125ZM23.1953 61.7221H45.2044V83.5958H23.1953V61.7221ZM28.5449 67.0512H39.8898V78.2928H28.5449V67.0512ZM61.7069 23.3212H83.7073V45.1862H61.6982V23.3125L61.7069 23.3212ZM67.0565 28.6329H78.4014V39.8745H67.0565V28.6242V28.6329ZM28.6583 28.6329H40.0032V39.8745H28.6583V28.6242V28.6329Z" fill="#41595F"/>
<line x1="2.5" y1="5.04062e-09" x2="2.5" y2="18" stroke="black" stroke-width="5"/>
<line x1="18" y1="2.5" y2="2.5" stroke="black" stroke-width="5"/>
<line x1="106.992" y1="2.5" x2="88.9922" y2="2.5" stroke="black" stroke-width="5"/>
<line x1="104.492" y1="18" x2="104.492" stroke="black" stroke-width="5"/>
<line x1="104.492" y1="107" x2="104.492" y2="89" stroke="black" stroke-width="5"/>
<line x1="88.9922" y1="104.5" x2="106.992" y2="104.5" stroke="black" stroke-width="5"/>
<line x1="5.04062e-09" y1="104.5" x2="18" y2="104.5" stroke="black" stroke-width="5"/>
<line x1="2.5" y1="89" x2="2.5" y2="107" stroke="black" stroke-width="5"/>
</svg>
