<svg width="82" height="80" viewBox="0 0 82 80" fill="none" xmlns="http://www.w3.org/2000/svg">
<path d="M29.0361 39.5873C29.0361 46.7579 23.1296 52.6316 15.7681 52.6316C8.40651 52.6316 2.5 46.7579 2.5 39.5873C2.5 32.4167 8.40651 26.543 15.7681 26.543C23.1296 26.543 29.0361 32.4167 29.0361 39.5873Z" stroke="#A3B5FF" stroke-width="5"/>
<path d="M79.4971 64.4545C79.4971 71.6251 73.5906 77.4988 66.229 77.4988C58.8674 77.4988 52.9609 71.6251 52.9609 64.4545C52.9609 57.2839 58.8674 51.4102 66.229 51.4102C73.5906 51.4102 79.4971 57.2839 79.4971 64.4545Z" stroke="#A3B5FF" stroke-width="5"/>
<path d="M79.0361 15.5443C79.0361 22.7149 73.1296 28.5886 65.7681 28.5886C58.4065 28.5886 52.5 22.7149 52.5 15.5443C52.5 8.3737 58.4065 2.5 65.7681 2.5C73.1296 2.5 79.0361 8.3737 79.0361 15.5443Z" stroke="#A3B5FF" stroke-width="5"/>
<rect width="28.4295" height="6.53301" transform="matrix(0.89474 -0.446588 0.456913 0.889512 27.4688 31.5312)" fill="#A3B5FF"/>
<rect width="30.9454" height="6.52937" transform="matrix(0.868482 0.495721 -0.506501 0.862239 29.4297 40.7617)" fill="#A3B5FF"/>
</svg>
