<svg width="78" height="78" viewBox="0 0 78 78" fill="none" xmlns="http://www.w3.org/2000/svg">
<g clip-path="url(#clip0_1_6219)">
<path d="M49.72 45.5995C49.72 40.2395 44.96 38.9595 40.44 37.8795V27.2795C42.76 27.3995 45.32 28.1595 47.56 29.5995L48.56 27.2395C46.44 25.7595 43.44 24.8795 40.44 24.7595V20.1995H38.44V24.7995C32.32 25.2795 29.56 28.5995 29.56 32.4395C29.56 37.7195 34.04 39.0795 38.44 40.1595V50.6795C35.08 50.4795 31.88 49.1195 30.04 47.3195L28.88 49.5995C30.84 51.5995 34.52 53.0395 38.44 53.2395V57.7995H40.44V53.1995C46.8 52.8395 49.72 49.4795 49.72 45.5995ZM32.48 32.3595C32.48 29.8395 34.32 27.7195 38.44 27.3595V37.3595C35.16 36.5195 32.48 35.3995 32.48 32.3595ZM40.44 50.6795V40.6795C43.88 41.5195 46.8 42.5995 46.8 45.7595C46.8 48.3195 44.84 50.3595 40.44 50.6795Z" fill="#313131"/>
</g>
<circle cx="38.9043" cy="38.9043" r="37.9043" stroke="#313131" stroke-width="2"/>
<defs>
<clipPath id="clip0_1_6219">
<rect width="46.6852" height="46.6852" fill="white" transform="translate(15.5625 15.562)"/>
</clipPath>
</defs>
</svg>
