<svg width="26" height="26" viewBox="0 0 26 26" fill="none" xmlns="http://www.w3.org/2000/svg">
<path d="M15.4321 10.6753V10.7753H15.5321H16.8264H16.9264V10.6753C16.9264 9.71949 16.4603 9.02342 15.8127 8.5455C15.1932 8.0883 14.4058 7.82859 13.6906 7.72211V6.46875V6.36875H13.5906H12.2963H12.1963V6.46875V7.72211C11.4811 7.82859 10.6938 8.0883 10.0742 8.5455C9.42662 9.02342 8.96055 9.71949 8.96055 10.6753C8.96055 11.5885 9.4121 12.2812 10.0514 12.768C10.6647 13.235 11.4533 13.5154 12.1963 13.6288V16.6379C11.7752 16.5523 11.354 16.3978 11.0314 16.1729C10.6799 15.9279 10.4549 15.6073 10.4549 15.2053V15.1053H10.3549H9.06055H8.96055V15.2053C8.96055 16.0783 9.37071 16.7717 9.99089 17.2701C10.5877 17.7496 11.3798 18.0498 12.1963 18.1638V19.4118V19.5118H12.2963H13.5906H13.6906V19.4118V18.1591C14.4059 18.0526 15.1932 17.7928 15.8127 17.3354C16.4603 16.8573 16.9264 16.1611 16.9264 15.2053C16.9264 14.2496 16.4603 13.5535 15.8127 13.0756C15.1932 12.6184 14.4058 12.3587 13.6906 12.2522V9.24332C14.0814 9.32461 14.4998 9.46738 14.8288 9.68589C15.1896 9.92558 15.4321 10.248 15.4321 10.6753ZM10.4549 10.6753C10.4549 10.248 10.6973 9.92558 11.0581 9.68589C11.3871 9.46738 11.8055 9.32461 12.1963 9.24332V12.1059C11.7955 12.02 11.3761 11.8688 11.0491 11.6465C10.6906 11.4026 10.4549 11.0824 10.4549 10.6753ZM15.4321 15.2053C15.4321 15.6326 15.1896 15.955 14.8288 16.1947C14.4998 16.4132 14.0814 16.556 13.6906 16.6373V13.7734C14.0814 13.8547 14.4998 13.9975 14.8288 14.216C15.1896 14.4557 15.4321 14.778 15.4321 15.2053Z" fill="#A3B5FF" stroke="#A3B5FF" stroke-width="0.2"/>
<circle cx="12.9431" cy="12.9431" r="12.4431" stroke="#41595F"/>
</svg>
