<svg width="18" height="22" viewBox="0 0 18 22" fill="none" xmlns="http://www.w3.org/2000/svg">
<path d="M14.4766 6.30078C15.0447 7.88395 15.0277 9.58683 14.4282 11.1608C13.3731 13.14 11.9111 14.927 10.1172 16.43C11.4909 17.5408 13.046 18.461 14.7296 19.1593C15.6837 18.5102 16.4688 17.686 17.0312 16.743C17.5936 15.8 17.9201 14.7604 17.9883 13.6952C18.2224 9.70294 14.4766 6.30078 14.4766 6.30078Z" fill="black"/>
<path d="M13.7955 10.1364C13.8729 9.40501 13.7733 8.66738 13.5035 7.97288C13.2337 7.27837 12.7999 6.64302 12.2311 6.10932C11.6774 5.54564 11.2178 4.91437 10.8662 4.2348C10.4269 2.82003 10.5952 1.3109 11.3385 0C4.29815 3.67711 5.08056 8.64335 5.08056 8.64335C5.60124 11.3458 7.16219 13.8042 9.49717 15.5993C11.1062 14.1866 13.4043 11.7948 13.7955 10.1364Z" fill="black"/>
<path d="M8.37922 21.9999C6.67563 21.9401 5.02959 21.4364 3.64649 20.5517C2.39881 19.7804 1.40672 18.7266 0.773405 17.4998C0.140087 16.273 -0.111342 14.918 0.0452679 13.5758C0.380904 11.2657 1.51032 9.10348 3.27984 7.38331L4.27522 6.34766C4.27522 6.34766 2.88723 10.0083 7.13262 14.8285C10.8391 18.8014 14.0095 19.8202 14.0095 19.8202C13.6927 20.1241 13.3527 20.4082 12.992 20.6706C11.6146 21.4693 10.0225 21.9281 8.37922 21.9999Z" fill="black"/>
</svg>
