<svg width="37" height="27" viewBox="0 0 37 27" fill="none" xmlns="http://www.w3.org/2000/svg">
    <path d="M36.2499 13.5C36.2499 20.5291 30.4454 26.25 23.257 26.25C16.0686 26.25 10.2642 20.5291 10.2642 13.5C10.2642 6.47092 16.0686 0.75 23.257 0.75C30.4454 0.75 36.2499 6.47092 36.2499 13.5Z"
          stroke="#3E3E3E" stroke-width="1.5"/>
    <path d="M24.8446 14.0303C25.1375 13.7374 25.1375 13.2626 24.8446 12.9697L20.0716 8.1967C19.7788 7.90381 19.3039 7.90381 19.011 8.1967C18.7181 8.48959 18.7181 8.96447 19.011 9.25736L23.2536 13.5L19.011 17.7426C18.7181 18.0355 18.7181 18.5104 19.011 18.8033C19.3039 19.0962 19.7788 19.0962 20.0716 18.8033L24.8446 14.0303ZM0 14.25H24.3143V12.75H0V14.25Z"
          fill="#3E3E3E"/>
</svg>
