<?xml version="1.0" encoding="utf-8"?>
<!-- Generator: Adobe Illustrator 26.3.1, SVG Export Plug-In . SVG Version: 6.00 Build 0)  -->
<svg version="1.1" id="Layer_1" xmlns="http://www.w3.org/2000/svg" xmlns:xlink="http://www.w3.org/1999/xlink" x="0px" y="0px"
	 viewBox="0 0 41 42" style="enable-background:new 0 0 41 42;" xml:space="preserve">
<style type="text/css">
	.st0{fill-rule:evenodd;clip-rule:evenodd;fill:#999999;}
</style>
<path class="st0" d="M2.9,12V7.5C2.9,5,4.9,3,7.4,3h4.5c0.6,0,1-0.5,1-1s-0.5-1-1-1H7.4c-3.6,0-6.5,2.9-6.5,6.5V12c0,0.6,0.5,1,1,1
	C2.5,13,2.9,12.5,2.9,12z M11.9,39.2c0.6,0,1,0.5,1,1c0,0.6-0.5,1-1,1H7.4c-3.6,0-6.5-2.9-6.5-6.5v-4.5c0-0.6,0.5-1,1-1
	c0.6,0,1,0.5,1,1v4.5c0,2.5,2,4.5,4.5,4.5H11.9z M40.9,30.2v4.5c0,3.6-2.9,6.5-6.5,6.5h-4.5c-0.6,0-1-0.5-1-1c0-0.6,0.5-1,1-1h4.5
	c2.5,0,4.5-2,4.5-4.5v-4.5c0-0.6,0.5-1,1-1C40.4,29.1,40.9,29.6,40.9,30.2z M40.9,7.5V12c0,0.6-0.5,1-1,1c-0.6,0-1-0.5-1-1V7.5
	c0-2.5-2-4.5-4.5-4.5h-4.5c-0.6,0-1-0.5-1-1s0.5-1,1-1h4.5C38,0.9,40.9,3.9,40.9,7.5z M27.9,30.7c0.4-0.4,0.5-1.1,0.1-1.5
	c-0.4-0.4-1.1-0.5-1.5-0.1c-1.5,1.4-3.5,2.2-5.6,2.2c-2.1,0-4.1-0.8-5.6-2.2c-0.4-0.4-1.1-0.4-1.5,0.1c-0.4,0.4-0.4,1.1,0.1,1.5
	c1.9,1.8,4.4,2.8,7,2.8C23.5,33.5,26,32.5,27.9,30.7z M23,16.1v7.6c0,1.5-1.2,2.7-2.7,2.7h-0.9c-0.6,0-1.1-0.5-1.1-1.1
	s0.5-1.1,1.1-1.1h0.9c0.3,0,0.6-0.3,0.6-0.6v-7.6c0-0.6,0.5-1.1,1.1-1.1C22.5,15.1,23,15.5,23,16.1z M30.2,19.1v-3c0-0.6-0.4-1-1-1
	s-1,0.4-1,1v3c0,0.6,0.4,1,1,1S30.2,19.6,30.2,19.1z M11.7,19.1c0,0.6,0.4,1,1,1c0.6,0,1-0.4,1-1v-3c0-0.6-0.4-1-1-1
	c-0.6,0-1,0.4-1,1V19.1z"/>
</svg>
