<?xml version="1.0" encoding="utf-8"?>
<!-- Generator: Adobe Illustrator 26.3.1, SVG Export Plug-In . SVG Version: 6.00 Build 0)  -->
<svg version="1.1" id="Layer_1" xmlns="http://www.w3.org/2000/svg" xmlns:xlink="http://www.w3.org/1999/xlink" x="0px" y="0px"
	 viewBox="0 0 33 33" style="enable-background:new 0 0 33 33;" xml:space="preserve">
<style type="text/css">
	.st0{clip-path:url(#SVGID_00000029730769342376501950000011861432080549863328_);}
</style>
<g>
	<defs>
		<rect id="SVGID_1_" width="33" height="33"/>
	</defs>
	<clipPath id="SVGID_00000060028305542014217570000006184092578235543202_">
		<use xlink:href="#SVGID_1_"  style="overflow:visible;"/>
	</clipPath>
	<g style="clip-path:url(#SVGID_00000060028305542014217570000006184092578235543202_);">
		<path d="M19.9,0.5c-2.3-0.6-4.7-0.7-7.1-0.1c-0.2,0-0.3,0.2-0.3,0.4S12.8,1,13,1c2.3-0.5,4.6-0.4,6.8,0.1
			c5.3,1.3,9.7,5.3,11.4,10.5c0.7,2,0.9,4.2,1,6.4c0,0.2,0.2,0.3,0.3,0.3c0.2,0,0.3-0.2,0.3-0.3c-0.1-2.3-0.3-4.5-1-6.6
			C30.1,6.1,25.5,1.9,19.9,0.5z"/>
		<path d="M11.1,1.5c0.2,0,0.3-0.2,0.2-0.4c0-0.2-0.2-0.3-0.4-0.2c-2.5,0.7-6,3-8.1,6.2c0,0,0,0,0,0C0.9,9.9-0.3,13.5,0.1,17
			c0,0,0,0,0,0c0.1,0.6,0.2,1.3,0.3,1.9c0.3,1.3,0.6,2.7,0.3,4c0,0.2,0.1,0.4,0.3,0.4c0.2,0,0.4-0.1,0.4-0.3
			c0.2-1.4-0.1-2.8-0.3-4.2c-0.1-0.6-0.3-1.3-0.3-1.9c-0.3-3.3,0.8-6.7,2.6-9.5C5.4,4.4,8.8,2.1,11.1,1.5z"/>
		<path d="M15.5,2.3C19.8,2,24,3.7,26.9,7.1c0.1,0.1,0.1,0.4,0,0.5c-0.1,0.1-0.4,0.1-0.5,0c-2.7-3.2-6.8-4.8-10.8-4.6c0,0,0,0,0,0
			c-5.1,0.2-9.9,3.7-11.7,8.6c-0.1,0.2-0.3,0.3-0.4,0.2c-0.2-0.1-0.3-0.3-0.2-0.4C5.1,6.2,10.2,2.5,15.5,2.3z"/>
		<path d="M27.9,8.6c-0.1-0.2-0.3-0.2-0.5-0.1c-0.2,0.1-0.2,0.3-0.1,0.5c1.6,2.4,2.2,4.9,2.5,8c0,0.2,0.2,0.3,0.4,0.3
			c0.2,0,0.3-0.2,0.3-0.4C30.3,13.7,29.6,11,27.9,8.6z"/>
		<path d="M30.3,18.3c0.2,0,0.3,0.1,0.4,0.3c0.1,2,0.1,4.4-0.1,6.1c0,0.2-0.2,0.3-0.4,0.3c-0.2,0-0.3-0.2-0.3-0.4
			c0.2-1.6,0.2-3.9,0.1-5.9C30,18.5,30.1,18.3,30.3,18.3z"/>
		<path d="M3.4,13.2c0-0.2-0.1-0.4-0.2-0.4c-0.2,0-0.4,0.1-0.4,0.2c-0.2,1-0.4,2.1-0.4,3.1c0,1.1,0.2,2.2,0.4,3.2
			c0.2,0.9,0.3,1.7,0.4,2.6c0.1,1.2-0.2,2.3-0.6,3.4c-0.1,0.2,0,0.4,0.2,0.4c0.2,0.1,0.4,0,0.4-0.2c0.4-1.2,0.7-2.4,0.6-3.7
			c-0.1-0.9-0.2-1.7-0.4-2.6C3.2,18.3,3,17.2,3,16.2C3,15.2,3.2,14.1,3.4,13.2z"/>
		<path d="M12.3,5.6c0.1,0.2,0,0.4-0.2,0.4c-3.5,1.4-6.2,4.6-6.7,8.3c-0.2,1.6,0,3.1,0.3,4.7C5.8,20,5.9,20.9,6,21.7
			c0.1,1.9-0.1,4-1.3,5.9c-0.1,0.2-0.3,0.2-0.5,0.1C4,27.6,4,27.4,4.1,27.3c1.1-1.7,1.3-3.7,1.2-5.5C5.3,20.9,5.1,20,5,19.1
			c-0.2-1.6-0.5-3.2-0.3-4.8c0.6-4,3.4-7.4,7.1-8.9C12,5.4,12.2,5.5,12.3,5.6z"/>
		<path d="M24.2,7.6C21.4,5,17.4,4.1,13.7,4.9c-0.2,0-0.3,0.2-0.3,0.4c0,0.2,0.2,0.3,0.4,0.3c3.5-0.8,7.2,0.1,9.8,2.5
			c2.2,2,3.5,5,3.8,8.3c0,0.2,0.2,0.3,0.4,0.3c0.2,0,0.3-0.2,0.3-0.4C27.8,12.9,26.5,9.8,24.2,7.6z"/>
		<path d="M28.1,17.9c0.2,0,0.4,0.1,0.4,0.3c0.3,3.1,0.2,6.5-0.3,9.8c0,0.2-0.2,0.3-0.4,0.3c-0.2,0-0.3-0.2-0.3-0.4
			c0.5-3.2,0.6-6.6,0.3-9.6C27.8,18.1,27.9,17.9,28.1,17.9z"/>
		<path d="M16.3,6.9c-5.2,0-9.4,4.1-9.4,9.3c0,0.5,0,1.1,0.1,1.6c0,0.2,0.2,0.3,0.4,0.3c0.2,0,0.3-0.2,0.3-0.4
			c-0.1-0.5-0.1-1-0.1-1.5c0-4.7,3.9-8.6,8.7-8.6c2.2,0,4.2,0.8,5.7,2.1c0.1,0.1,0.4,0.1,0.5,0c0.1-0.1,0.1-0.4,0-0.5
			C20.8,7.7,18.6,6.9,16.3,6.9z"/>
		<path d="M23.2,10.4c0.1-0.1,0.3-0.1,0.5,0c1.5,1.6,2,4,2.3,6.1c0.4,2.3,0.4,4.6,0.4,5.6c0,0.2-0.2,0.3-0.3,0.3
			c-0.2,0-0.3-0.2-0.3-0.3c0-1-0.1-3.3-0.4-5.5c-0.3-1.9-0.7-4.2-2.1-5.7C23,10.7,23.1,10.5,23.2,10.4z"/>
		<path d="M26.3,24c0-0.2-0.1-0.3-0.3-0.4c-0.2,0-0.3,0.1-0.4,0.3c-0.2,2.1-0.4,4.2-0.8,6.1c0,0.2,0.1,0.4,0.3,0.4
			c0.2,0,0.4-0.1,0.4-0.3C25.9,28.3,26.1,26.1,26.3,24z"/>
		<path d="M7.6,19c0.2,0,0.4,0.1,0.4,0.3c0.7,3.6,0.2,6.9-1.7,9.8c-0.1,0.2-0.3,0.2-0.5,0.1c-0.2-0.1-0.2-0.3-0.1-0.5
			C7.5,26,8,22.9,7.3,19.4C7.3,19.2,7.4,19,7.6,19z"/>
		<path d="M16.3,9.1c-3.4,0-6.7,2.6-7,5.9c-0.1,1.4,0.1,2.8,0.3,4.3c0.2,1.2,0.4,2.5,0.3,3.7c-0.1,2.9-1,5.2-2.4,7.2
			c-0.1,0.2-0.1,0.4,0.1,0.5c0.2,0.1,0.4,0.1,0.5-0.1c1.5-2.1,2.4-4.6,2.5-7.5c0.1-1.2-0.1-2.5-0.3-3.7C10,17.9,9.8,16.5,9.9,15
			c0.3-2.9,3.3-5.3,6.3-5.3c1.4,0,5.2,0.8,6.3,4.6c0.7,2.4,0.9,5.7,0.8,8.9c-0.2,3.2-0.7,6.2-1.5,8.2c-0.1,0.2,0,0.4,0.2,0.4
			c0.2,0.1,0.4,0,0.4-0.2c0.8-2,1.4-5.1,1.5-8.4c0.2-3.2,0-6.6-0.8-9.1C22,9.9,17.8,9.1,16.3,9.1z"/>
		<path d="M11.1,29.1c0.2,0.1,0.2,0.3,0.1,0.5c-0.2,0.3-0.4,0.7-0.6,1c-0.2,0.3-0.4,0.7-0.6,1c-0.1,0.2-0.3,0.2-0.5,0.1
			c-0.2-0.1-0.2-0.3-0.1-0.5c0.2-0.3,0.4-0.7,0.6-1c0.2-0.3,0.4-0.7,0.6-1C10.7,29,10.9,29,11.1,29.1z"/>
		<path d="M14,12.6c0.2-0.1,0.2-0.3,0.1-0.5C14,12,13.8,11.9,13.6,12c-1.3,0.9-2.2,2.1-2.2,3.9c0,1.1,0.2,2,0.4,2.9
			c0.3,1.4,0.5,2.7,0.5,4.1c0,1.7-0.4,3.2-1,4.7c-0.1,0.2,0,0.4,0.2,0.4c0.2,0.1,0.4,0,0.4-0.2c0.7-1.6,1-3.2,1.1-4.9
			c0-1.4-0.2-2.8-0.5-4.2c-0.2-0.9-0.4-1.7-0.4-2.7C12.1,14.4,12.8,13.4,14,12.6z"/>
		<path d="M15.3,11.4c1.4-0.3,2.9,0.1,4,1c2,1.6,2.3,4.5,2.5,6.9l0,0.1c0.3,3.1,0,6-0.7,9c0,0.2-0.2,0.3-0.4,0.3
			c-0.2,0-0.3-0.2-0.3-0.4c0.6-2.9,0.9-5.9,0.7-8.8c0-0.1,0-0.2,0-0.3l0,0c-0.2-2.2-0.4-4.8-2.2-6.3c-1-0.8-2.3-1.1-3.5-0.8
			c-0.2,0-0.4-0.1-0.4-0.3C15,11.6,15.1,11.5,15.3,11.4z"/>
		<path d="M20.6,30.2c0-0.2-0.1-0.4-0.2-0.4c-0.2,0-0.4,0.1-0.4,0.2c-0.2,0.8-0.5,1.5-0.9,2.2c-0.1,0.2,0,0.4,0.1,0.5
			c0.2,0.1,0.4,0,0.5-0.1C20.1,31.8,20.4,31,20.6,30.2z"/>
		<path d="M19,25.2c0.2,0,0.3,0.2,0.3,0.4c-0.3,2.7-1,5.1-2.2,7.2C17,33,16.8,33,16.6,33c-0.2-0.1-0.2-0.3-0.1-0.5
			c1.1-2,1.8-4.3,2.1-7C18.6,25.4,18.8,25.2,19,25.2z"/>
		<path d="M18.9,15.8c-0.2-1.3-1.3-2.2-2.6-2.2c-1.8,0-3,1.8-2.6,3.4c0.7,2.9,0.9,5.8,0.4,8.5l0,0c-0.4,2.4-1.3,4.6-2.4,6.5
			c-0.1,0.2,0,0.4,0.1,0.5c0.2,0.1,0.4,0,0.5-0.1c1.2-1.9,2.1-4.2,2.5-6.7c0.5-2.8,0.4-5.8-0.4-8.8l0,0c-0.3-1.2,0.6-2.6,1.9-2.6
			c1,0,1.8,0.7,2,1.7c0.5,2.9,0.8,5.5,0.6,7.8c0,0.2,0.1,0.3,0.3,0.4c0.2,0,0.3-0.1,0.4-0.3C19.7,21.4,19.4,18.7,18.9,15.8
			C18.9,15.8,18.9,15.8,18.9,15.8z"/>
		<path d="M15.3,30.5c0.2,0.1,0.2,0.3,0.1,0.5l-0.9,1.7c-0.1,0.2-0.3,0.2-0.5,0.1c-0.2-0.1-0.2-0.3-0.1-0.5l0.9-1.7
			C14.9,30.5,15.1,30.4,15.3,30.5z"/>
		<path d="M16.6,16.1c0-0.2-0.2-0.3-0.4-0.3c-0.2,0-0.3,0.2-0.3,0.4c1.1,4.9,1,9.1-0.4,12.8c-0.1,0.2,0,0.4,0.2,0.4
			c0.2,0.1,0.4,0,0.4-0.2C17.6,25.5,17.7,21.1,16.6,16.1z"/>
	</g>
</g>
</svg>
