<svg width="77" height="77" viewBox="0 0 77 77" fill="none" xmlns="http://www.w3.org/2000/svg">
<path d="M46.4833 1.13503C41.0893 -0.210442 35.4135 -0.402701 29.8906 0.789579C29.4638 0.881721 29.1924 1.30242 29.2846 1.72924C29.3767 2.15606 29.7974 2.42738 30.2243 2.33523C35.5134 1.19342 40.9618 1.38169 46.1442 2.68059C58.5376 5.78683 68.8536 15.105 72.7827 27.277C74.3022 31.9843 74.9477 36.9967 75.077 42.2497C75.0877 42.6863 75.4503 43.0314 75.8868 43.0207C76.3233 43.0099 76.6685 42.6474 76.6578 42.2108C76.5267 36.8857 75.8737 31.7444 74.3166 26.8817C70.2363 14.1385 59.4543 4.37053 46.4833 1.13503Z" fill="#A3B5FF"/>
<path d="M25.8783 3.52712C26.2992 3.411 26.5463 2.97563 26.4302 2.5547C26.3141 2.13377 25.8787 1.88668 25.4578 2.0028C19.682 3.59618 11.5571 9.10187 6.53584 16.457C6.53389 16.4599 6.53195 16.4628 6.53003 16.4657C2.12105 23.11 -0.642762 31.4598 0.128886 39.5621C0.12962 39.5699 0.130468 39.5776 0.13143 39.5853C0.316362 41.0647 0.62682 42.5414 0.937642 44.0199C1.59229 47.1337 2.24856 50.2553 1.73703 53.4264C1.6675 53.8575 1.96059 54.2633 2.39167 54.3329C2.82275 54.4024 3.22858 54.1093 3.29812 53.6782C3.83282 50.3634 3.16888 47.1301 2.50481 43.8961C2.19769 42.4005 1.89055 40.9047 1.70193 39.4007C0.976174 31.7446 3.59028 23.7576 7.84473 17.3443C12.675 10.2714 20.4966 5.01176 25.8783 3.52712Z" fill="#A3B5FF"/>
<path d="M36.2534 5.29357C46.1797 4.68741 56.1041 8.73847 62.7691 16.4996C63.0536 16.8309 63.0156 17.33 62.6844 17.6145C62.3531 17.899 61.854 17.8611 61.5695 17.5298C55.2313 10.1493 45.7874 6.29408 36.345 6.87218C36.3416 6.87239 36.3383 6.87257 36.3349 6.87274C24.3938 7.45053 13.2108 15.5512 9.09753 26.9023C8.94877 27.3128 8.49537 27.525 8.08484 27.3762C7.67431 27.2275 7.46211 26.7741 7.61087 26.3636C11.9441 14.4056 23.6869 5.90376 36.2534 5.29357Z" fill="#A3B5FF"/>
<path d="M65.1778 19.9536C64.9343 19.5912 64.4431 19.4946 64.0806 19.7381C63.7181 19.9815 63.6216 20.4727 63.8651 20.8352C67.5599 26.3369 69.0877 32.3238 69.6916 39.4285C69.7286 39.8635 70.1113 40.1863 70.5464 40.1493C70.9815 40.1123 71.3042 39.7296 71.2672 39.2945C70.65 32.0346 69.0746 25.756 65.1778 19.9536Z" fill="#A3B5FF"/>
<path d="M70.7386 42.6512C71.1744 42.624 71.5498 42.9552 71.577 43.391C71.875 48.1585 71.8778 53.5525 71.3504 57.5386C71.2931 57.9715 70.8958 58.276 70.4629 58.2187C70.03 58.1614 69.7255 57.7641 69.7828 57.3312C70.2911 53.4893 70.2939 48.2097 69.9989 43.4897C69.9716 43.0539 70.3028 42.6785 70.7386 42.6512Z" fill="#A3B5FF"/>
<path d="M7.9036 30.7317C8.00608 30.3073 7.74507 29.8801 7.32062 29.7776C6.89616 29.6751 6.46899 29.9361 6.36651 30.3606C5.7862 32.764 5.48495 35.2331 5.47301 37.7045C5.46071 40.2517 5.93566 42.738 6.4108 45.2254C6.79947 47.2601 7.18827 49.2954 7.31057 51.3653C7.47122 54.0842 6.89932 56.807 5.91107 59.3986C5.75548 59.8066 5.9601 60.2635 6.36809 60.419C6.77609 60.5746 7.23296 60.37 7.38855 59.962C8.43315 57.2227 9.06634 54.272 8.88908 51.272C8.76762 49.2163 8.37885 47.1928 7.99024 45.1701C7.51604 42.7019 7.04207 40.2349 7.05426 37.7121C7.0656 35.3638 7.35189 33.0167 7.9036 30.7317Z" fill="#A3B5FF"/>
<path d="M28.6495 13.1622C28.8122 13.5674 28.6156 14.0278 28.2104 14.1905C20.0138 17.4822 13.8586 24.9103 12.6029 33.6696C12.0783 37.3292 12.6451 40.9542 13.2117 44.5781C13.5308 46.619 13.8498 48.6596 13.9739 50.7058C14.2429 55.1429 13.7375 60.0166 10.8498 64.4509C10.6115 64.8168 10.1218 64.9203 9.75584 64.682C9.38994 64.4437 9.28647 63.9539 9.52475 63.588C12.1557 59.5479 12.6537 55.0603 12.3955 50.8015C12.2697 48.7253 11.9526 46.6611 11.6358 44.5982C11.0673 40.897 10.4994 37.2 11.0377 33.4453C12.3784 24.0926 18.9338 16.2119 27.6212 12.7232C28.0264 12.5604 28.4868 12.757 28.6495 13.1622Z" fill="#A3B5FF"/>
<path d="M56.4053 17.6635C49.9389 11.607 40.5667 9.49321 32.049 11.3615C31.6225 11.455 31.3526 11.8766 31.4461 12.3031C31.5397 12.7296 31.9613 12.9996 32.3878 12.906C40.4535 11.1369 49.2785 13.155 55.3243 18.8176C60.4202 23.5905 63.3793 30.5353 64.1539 38.1124C64.1983 38.5468 64.5865 38.863 65.0209 38.8186C65.4553 38.7742 65.7714 38.386 65.727 37.9516C64.9227 30.0838 61.8386 22.7525 56.4053 17.6635Z" fill="#A3B5FF"/>
<path d="M65.5616 41.717C65.9959 41.6723 66.3842 41.9883 66.4288 42.4227C67.1797 49.7336 66.8561 57.6301 65.7225 65.2691C65.6584 65.701 65.2563 65.9992 64.8244 65.9351C64.3925 65.871 64.0943 65.4689 64.1584 65.037C65.2762 57.5042 65.591 49.7418 64.8558 42.5842C64.8112 42.1499 65.1272 41.7616 65.5616 41.717Z" fill="#A3B5FF"/>
<path d="M37.9971 16.0681C25.8817 16.0681 16.0378 25.7339 16.0378 37.6842C16.0378 38.9607 16.151 40.2114 16.367 41.4276C16.4433 41.8576 16.8537 42.1442 17.2836 42.0679C17.7136 41.9916 18.0002 41.5811 17.9239 41.1512C17.724 40.0252 17.619 38.8669 17.619 37.6842C17.619 26.6314 26.7305 17.6494 37.9971 17.6494C43.0886 17.6494 47.7404 19.4845 51.3109 22.5167C51.6437 22.7993 52.1427 22.7586 52.4253 22.4258C52.708 22.093 52.6673 21.594 52.3345 21.3114C48.4869 18.0439 43.4748 16.0681 37.9971 16.0681Z" fill="#A3B5FF"/>
<path d="M54.1059 24.2592C54.4211 23.957 54.9216 23.9675 55.2238 24.2827C58.713 27.9212 59.8299 33.6399 60.5689 38.4391C61.4014 43.845 61.5285 49.1188 61.5285 51.5641C61.5285 52.0007 61.1745 52.3547 60.7378 52.3547C60.3012 52.3547 59.9472 52.0007 59.9472 51.5641C59.9472 49.1584 59.8213 43.9738 59.0061 38.6798C58.32 34.2243 57.331 28.7646 54.0825 25.3771C53.7803 25.062 53.7908 24.5615 54.1059 24.2592Z" fill="#A3B5FF"/>
<path d="M61.3277 56.092C61.3624 55.6567 61.0377 55.2757 60.6024 55.241C60.1672 55.2063 59.7862 55.5311 59.7515 55.9663C59.3632 60.8364 58.8558 65.7012 57.8264 70.1951C57.7288 70.6207 57.9948 71.0448 58.4205 71.1423C58.8461 71.2398 59.2702 70.9738 59.3677 70.5481C60.4243 65.9359 60.9384 60.9751 61.3277 56.092Z" fill="#A3B5FF"/>
<path d="M17.6396 44.3376C18.068 44.2532 18.4837 44.5321 18.5681 44.9606C20.2398 53.4497 19.0849 61.1614 14.658 67.9166C14.4187 68.2818 13.9286 68.3839 13.5634 68.1445C13.1982 67.9052 13.0961 67.4151 13.3355 67.0499C17.5007 60.694 18.6217 53.4169 17.0166 45.2661C16.9323 44.8377 17.2112 44.422 17.6396 44.3376Z" fill="#A3B5FF"/>
<path d="M37.9971 21.2124C30.1325 21.2124 22.4174 27.3001 21.6299 34.9512C21.2851 38.3008 21.7694 41.6003 22.2539 44.901C22.677 47.7832 23.1002 50.6665 22.9717 53.5849C22.6776 60.2643 20.7178 65.7779 17.3504 70.3191C17.0903 70.6699 17.1638 71.165 17.5145 71.4251C17.8653 71.6852 18.3605 71.6117 18.6206 71.261C22.1921 66.4445 24.2447 60.6206 24.5514 53.6545C24.6793 50.7492 24.2548 47.8751 23.8306 45.003C23.3455 41.7186 22.8608 38.4366 23.2028 35.1131C23.8946 28.3917 30.8129 22.7936 37.9971 22.7936C41.348 22.7936 50.0176 24.608 52.7754 33.5918C54.5037 39.2216 54.975 46.8407 54.5564 54.2427C54.1379 61.6438 52.8358 68.7225 51.085 73.2617C50.9279 73.6691 51.1308 74.1267 51.5382 74.2838C51.9456 74.441 52.4032 74.2381 52.5604 73.8307C54.3921 69.0817 55.7115 61.8238 56.1352 54.332C56.5588 46.8412 56.0931 39.0112 54.2871 33.1278C51.2258 23.1554 41.6296 21.2124 37.9971 21.2124Z" fill="#A3B5FF"/>
<path d="M25.83 67.9178C26.1957 68.1564 26.2988 68.6462 26.0603 69.012C25.57 69.7636 25.1387 70.5501 24.7074 71.3366C24.2761 72.1232 23.8447 72.9098 23.3543 73.6617C23.1158 74.0274 22.6259 74.1305 22.2602 73.892C21.8944 73.6534 21.7913 73.1635 22.0299 72.7978C22.5202 72.0461 22.9514 71.2596 23.3827 70.4731C23.8141 69.6866 24.2455 68.8999 24.7358 68.1481C24.9744 67.7824 25.4642 67.6793 25.83 67.9178Z" fill="#A3B5FF"/>
<path d="M32.5999 29.4195C32.9628 29.1767 33.0602 28.6857 32.8175 28.3227C32.5747 27.9598 32.0837 27.8623 31.7207 28.1051C28.59 30.1992 26.6692 33.0787 26.6692 37.2971C26.6692 39.809 27.1142 41.8622 27.5706 43.968C28.2536 47.1193 28.7168 50.2638 28.6335 53.5006C28.5325 57.431 27.7634 61.0226 26.2851 64.4441C26.112 64.845 26.2965 65.3103 26.6973 65.4835C27.0982 65.6567 27.5635 65.4721 27.7367 65.0713C29.2997 61.4537 30.1083 57.6617 30.2143 53.5412C30.3008 50.1778 29.8247 46.9089 29.1163 43.6337C28.6589 41.5186 28.2504 39.6302 28.2504 37.2971C28.2504 33.6828 29.8405 31.2651 32.5999 29.4195Z" fill="#A3B5FF"/>
<path d="M35.6857 26.6415C38.9665 25.9727 42.4971 26.7992 45.0957 28.9025C49.7375 32.6595 50.3548 39.5109 50.855 45.063L50.8805 45.3458C51.5269 52.5025 50.787 59.4539 49.2964 66.4349C49.2052 66.8619 48.7851 67.1342 48.3581 67.043C47.9311 66.9518 47.6588 66.5317 47.75 66.1047C49.2182 59.2284 49.9338 52.4424 49.3057 45.488C49.2849 45.2578 49.2642 45.0243 49.2432 44.788L49.2429 44.7845C48.7986 39.7673 48.2421 33.4834 44.1009 30.1316C41.8792 28.3334 38.8321 27.6139 36.0016 28.1909C35.5737 28.2781 35.1562 28.002 35.069 27.5742C34.9817 27.1463 35.2579 26.7288 35.6857 26.6415Z" fill="#A3B5FF"/>
<path d="M48.1789 70.369C48.2867 69.9459 48.031 69.5155 47.6078 69.4078C47.1847 69.3 46.7543 69.5557 46.6466 69.9789C46.1686 71.8563 45.4321 73.551 44.4983 75.1112C44.274 75.4858 44.3959 75.9714 44.7706 76.1956C45.1453 76.4199 45.6308 76.2979 45.8551 75.9233C46.8614 74.2419 47.6603 72.406 48.1789 70.369Z" fill="#A3B5FF"/>
<path d="M44.3127 58.8955C44.7463 58.9469 45.0563 59.34 45.0049 59.7736C44.2582 66.0836 42.5725 71.7114 39.8675 76.5925C39.6558 76.9744 39.1747 77.1124 38.7927 76.9008C38.4108 76.6891 38.2728 76.2079 38.4844 75.826C41.0731 71.1547 42.7076 65.7314 43.4346 59.5878C43.486 59.1542 43.8791 58.8442 44.3127 58.8955Z" fill="#A3B5FF"/>
<path d="M44.1498 36.8825C43.6016 33.9537 41.0879 31.7133 38.0363 31.7133C33.9039 31.7133 31.0046 35.8786 32.0263 39.7539C33.7551 46.5945 34.0389 53.1874 32.8686 59.5372L32.8677 59.5418C31.8522 65.243 29.9019 70.3718 27.2417 74.7178C27.0137 75.0903 27.1308 75.577 27.5032 75.8049C27.8757 76.0329 28.3624 75.9158 28.5903 75.5434C31.3594 71.0195 33.376 65.7037 34.4241 59.8215C35.6392 53.2267 35.3381 46.4026 33.5583 39.3624L33.5562 39.3541C32.7899 36.4552 34.926 33.2946 38.0363 33.2946C40.2808 33.2946 42.176 34.9458 42.5945 37.168C43.7453 43.8433 44.3447 50.0334 43.9179 55.363C43.8831 55.7983 44.2077 56.1794 44.6429 56.2142C45.0782 56.2491 45.4593 55.9245 45.4941 55.4892C45.9365 49.965 45.3121 43.6225 44.1518 36.8936C44.1511 36.8899 44.1505 36.8862 44.1498 36.8825Z" fill="#A3B5FF"/>
<path d="M35.6771 71.1253C36.0654 71.3249 36.2185 71.8015 36.0189 72.1899L33.924 76.2668C33.7244 76.6552 33.2478 76.8082 32.8594 76.6087C32.471 76.4091 32.3179 75.9324 32.5175 75.5441L34.6125 71.4672C34.8121 71.0788 35.2887 70.9257 35.6771 71.1253Z" fill="#A3B5FF"/>
<path d="M38.6243 37.6449C38.5244 37.2198 38.0989 36.9561 37.6738 37.056C37.2487 37.1559 36.9851 37.5814 37.0849 38.0065C39.7512 49.356 39.385 59.322 36.1374 67.8117C35.9814 68.2195 36.1855 68.6766 36.5933 68.8326C37.0012 68.9886 37.4583 68.7845 37.6143 68.3767C41.0005 59.5246 41.3446 49.2248 38.6243 37.6449Z" fill="#A3B5FF"/>
</svg>
