<svg width="95" height="144" viewBox="0 0 95 144" fill="none" xmlns="http://www.w3.org/2000/svg">
<rect y="30.6133" width="60.5057" height="112.634" rx="12" fill="#41595F"/>
<rect x="4.6582" y="37.1289" width="51.1971" height="99.6017" fill="white"/>
<path d="M19.5508 37.1289H41.8913C41.8913 39.1853 40.2243 40.8523 38.1679 40.8523H23.2742C21.2178 40.8523 19.5508 39.1853 19.5508 37.1289Z" fill="#41595F"/>
<line x1="17.6865" y1="132.008" x2="42.8197" y2="132.008" stroke="#FAFAFA" stroke-width="2"/>
<path d="M38.3835 45.7897C35.5576 45.7897 33.1679 45.7453 30.7971 45.7897C28.0787 45.8467 26.5677 44.5216 26.555 41.846C26.5129 29.1654 26.5129 16.4848 26.555 3.80418C26.555 0.748155 28.616 0 31.2649 0C39.1611 0.0317015 47.0699 0 54.9598 0C66.3394 0 77.719 0 89.0985 0C93.9538 0 94.6809 0.773521 94.6809 5.76968V40.3053C94.6809 44.8386 93.8337 45.7389 89.402 45.7516C79.0845 45.7516 68.7607 45.834 58.4242 45.7072C57.3928 45.6451 56.362 45.8374 55.4218 46.2674C54.4817 46.6973 53.661 47.3518 53.0316 48.1736C49.7568 52.0285 46.3176 55.782 42.8026 59.3896C42.0629 60.1568 40.7037 60.3216 39.6416 60.7654C39.237 59.7573 38.5099 58.7682 38.472 57.7475C38.3013 53.9243 38.3835 50.044 38.3835 45.7897ZM40.2042 58.4259L40.9249 58.7619C44.8003 54.5012 48.5746 50.1454 52.6143 46.0813C53.8353 44.8991 55.4347 44.1892 57.1282 44.0778C67.8756 43.9002 78.5914 43.932 89.3261 44.008C91.8549 44.008 92.8728 43.1965 92.8475 40.5335C92.7463 28.7089 92.7653 16.8906 92.8475 5.07224C92.8475 2.75169 92.013 1.86404 89.6865 1.87038C70.2232 1.91687 50.7556 1.91687 31.2839 1.87038C29.0838 1.87038 28.2936 2.76437 28.2999 4.88837C28.3294 16.918 28.3294 28.9498 28.2999 40.9837C28.2999 43.1014 29.0775 44.1539 31.2839 44.008C33.0667 43.9129 34.8874 44.1919 36.645 43.951C39.7554 43.5198 40.4381 44.9337 40.2485 47.7171C40.0462 51.2677 40.2042 54.8563 40.2042 58.4259Z" fill="#41595F"/>
<path d="M40.2047 58.4271C40.2047 54.8448 40.0466 51.2562 40.2552 47.6866C40.4133 44.9032 39.7621 43.4893 36.6517 43.9205C34.8942 44.1614 33.0735 43.8824 31.2907 43.9775C29.0843 44.0916 28.3004 43.0709 28.3067 40.9532C28.3488 28.9193 28.3488 16.8875 28.3067 4.85787C28.3067 2.73387 29.0906 1.83354 31.2907 1.83988C50.754 1.88637 70.2215 1.88637 89.6932 1.83988C91.9944 1.83988 92.8542 2.72117 92.8542 5.04172C92.7784 16.86 92.7594 28.6784 92.8542 40.503C92.8542 43.166 91.8743 43.9965 89.3329 43.9775C78.5855 43.9014 67.8381 43.8697 57.135 44.0473C55.4414 44.1587 53.8421 44.8686 52.6211 46.0508C48.5813 50.1403 44.8071 54.4961 40.9317 58.7314L40.2047 58.4271Z" fill="white"/>
<line x1="36.4561" y1="10.75" x2="83.871" y2="10.75" stroke="#41595F"/>
<line x1="36.4561" y1="22.8047" x2="83.871" y2="22.8047" stroke="#41595F"/>
<line x1="36.4492" y1="32.8516" x2="68.605" y2="32.8516" stroke="#41595F"/>
<path d="M30.3452 79.15V82.6042M17.6797 73.393V90.6641H43.0106V73.393H17.6797ZM22.2853 73.393C22.2853 66.4845 22.2853 61.8789 30.3452 61.8789C38.405 61.8789 38.405 66.4845 38.405 73.393H22.2853Z" stroke="#A3B5FF" stroke-width="2" stroke-linecap="round" stroke-linejoin="round"/>
<path d="M30.3457 84.9083C30.9816 84.9083 31.4971 84.3928 31.4971 83.7569C31.4971 83.121 30.9816 82.6055 30.3457 82.6055C29.7098 82.6055 29.1943 83.121 29.1943 83.7569C29.1943 84.3928 29.7098 84.9083 30.3457 84.9083Z" stroke="#A3B5FF" stroke-width="2" stroke-linecap="round" stroke-linejoin="round"/>
<path d="M17.7032 112.112C17.0125 112.112 16.3405 112.005 15.6872 111.79C15.0432 111.575 14.5159 111.286 14.1052 110.922L14.7492 109.816C15.0759 110.124 15.5005 110.376 16.0232 110.572C16.5459 110.768 17.1012 110.866 17.6892 110.866C18.4359 110.866 19.0099 110.707 19.4112 110.39C19.8125 110.073 20.0132 109.648 20.0132 109.116C20.0132 108.752 19.9245 108.435 19.7472 108.164C19.5699 107.893 19.2619 107.688 18.8232 107.548C18.3939 107.399 17.8012 107.324 17.0452 107.324H14.8192L15.3372 102.2H20.8672V103.418H15.8552L16.5832 102.732L16.1772 106.778L15.4492 106.106H17.3392C18.3192 106.106 19.1079 106.232 19.7052 106.484C20.3025 106.736 20.7365 107.086 21.0072 107.534C21.2779 107.973 21.4132 108.481 21.4132 109.06C21.4132 109.62 21.2779 110.133 21.0072 110.6C20.7365 111.057 20.3259 111.426 19.7752 111.706C19.2339 111.977 18.5432 112.112 17.7032 112.112Z" fill="black"/>
<path d="M23.3852 112V111.048L27.3752 107.198C27.7299 106.862 27.9912 106.568 28.1592 106.316C28.3365 106.055 28.4532 105.817 28.5092 105.602C28.5745 105.378 28.6072 105.163 28.6072 104.958C28.6072 104.454 28.4299 104.057 28.0752 103.768C27.7205 103.479 27.2025 103.334 26.5212 103.334C25.9985 103.334 25.5272 103.423 25.1072 103.6C24.6872 103.768 24.3232 104.034 24.0152 104.398L23.0632 103.572C23.4365 103.096 23.9359 102.732 24.5612 102.48C25.1959 102.219 25.8912 102.088 26.6472 102.088C27.3285 102.088 27.9212 102.2 28.4252 102.424C28.9292 102.639 29.3165 102.951 29.5872 103.362C29.8672 103.773 30.0072 104.258 30.0072 104.818C30.0072 105.135 29.9652 105.448 29.8812 105.756C29.7972 106.064 29.6385 106.391 29.4052 106.736C29.1719 107.081 28.8359 107.469 28.3972 107.898L24.8412 111.328L24.5052 110.782H30.4272V112H23.3852Z" fill="black"/>
<path d="M35.1912 112V102.76L35.7932 103.418H32.9792V102.2H36.5772V112H35.1912Z" fill="black"/>
<path d="M44.7032 112.112C44.0125 112.112 43.3405 112.005 42.6872 111.79C42.0432 111.575 41.5159 111.286 41.1052 110.922L41.7492 109.816C42.0759 110.124 42.5005 110.376 43.0232 110.572C43.5459 110.768 44.1012 110.866 44.6892 110.866C45.4359 110.866 46.0099 110.707 46.4112 110.39C46.8125 110.073 47.0132 109.648 47.0132 109.116C47.0132 108.752 46.9245 108.435 46.7472 108.164C46.5699 107.893 46.2619 107.688 45.8232 107.548C45.3939 107.399 44.8012 107.324 44.0452 107.324H41.8192L42.3372 102.2H47.8672V103.418H42.8552L43.5832 102.732L43.1772 106.778L42.4492 106.106H44.3392C45.3192 106.106 46.1079 106.232 46.7052 106.484C47.3025 106.736 47.7365 107.086 48.0072 107.534C48.2779 107.973 48.4132 108.481 48.4132 109.06C48.4132 109.62 48.2779 110.133 48.0072 110.6C47.7365 111.057 47.3259 111.426 46.7752 111.706C46.2339 111.977 45.5432 112.112 44.7032 112.112Z" fill="black"/>
</svg>
