<svg width="19" height="20" viewBox="0 0 19 20" fill="none" xmlns="http://www.w3.org/2000/svg">
  <path fill-rule="evenodd" clip-rule="evenodd" d="M8.85938 18.1055C8.85938 18.6578 9.30709 19.1055 9.85938 19.1055C10.4117 19.1055 10.8594 18.6578 10.8594 18.1055V10.9316H18C18.5523 10.9316 19 10.4839 19 9.93164C19 9.37936 18.5523 8.93164 18 8.93164H10.8594V1.10547C10.8594 0.553185 10.4117 0.105469 9.85938 0.105469C9.30709 0.105469 8.85938 0.553185 8.85938 1.10547V8.93164H1C0.447715 8.93164 0 9.37936 0 9.93164C0 10.4839 0.447715 10.9316 1 10.9316H8.85938V18.1055Z" fill="white"/>
</svg>
