<svg width="109" height="109" viewBox="0 0 109 109" fill="none" xmlns="http://www.w3.org/2000/svg">
<path d="M103.093 78.2443L94.4823 80.3921C106.629 70.0091 110.93 52.4195 103.814 37.2712C99.1961 27.4319 90.3288 20.1445 79.8485 17.4696L86.1917 2.21058C86.4133 1.67181 86.3268 1.05643 85.9627 0.604178C85.6011 0.146144 85.0203 -0.074637 84.4469 0.0234062L70.8683 2.32423L57.2897 0.0234062C56.7212 -0.0746244 56.1355 0.148622 55.7739 0.604178C55.4122 1.05973 55.3208 1.67675 55.5473 2.21058L61.903 17.5141C43.2975 22.2402 31.387 40.7817 35.1641 59.8251C36.5711 66.909 40.0772 73.3724 45.1386 78.4428H44.5232C42.575 78.4428 40.6679 78.984 39.0072 80.0031L27.9997 86.7836H19.3597C18.4766 86.7836 17.7607 87.4995 17.7607 88.3801V106.639C17.7607 107.522 18.4766 108.238 19.3597 108.238H58.1594C60.8755 108.238 63.6023 107.617 66.0497 106.442L106.307 87.1427C108.666 86.0083 109.665 83.1621 108.536 80.7995C107.559 78.7746 105.278 77.7007 103.093 78.2443ZM70.6056 5.52072C70.7778 5.55285 70.9648 5.55285 71.1394 5.52072L82.1247 3.65564L76.5789 17.0109H65.1653L59.617 3.65564L70.6056 5.52072ZM38.3055 59.203C34.755 41.2863 46.4027 23.8261 64.2915 20.2051H77.4861C87.7268 22.2892 96.4779 29.1654 100.918 38.6283C108.681 55.1594 101.58 74.9142 85.0858 82.7298L74.7051 85.3181C74.7743 84.9589 74.8106 84.5874 74.8106 84.2084C74.8106 81.0269 72.2223 78.4386 69.0408 78.4386H49.8769C43.9184 73.5709 39.8065 66.7687 38.3055 59.203ZM104.915 84.2632L64.6606 103.562C62.6431 104.532 60.3943 105.046 58.1527 105.046H20.9515V89.9862H28.4555C28.7529 89.9862 29.0412 89.9046 29.2966 89.7497L40.688 82.7302C41.8447 82.0193 43.1734 81.6428 44.5286 81.6428H69.0489C70.4658 81.6428 71.6198 82.797 71.6198 84.2138C71.6198 85.6283 70.4657 86.7848 69.0489 86.7848H56.7908C55.9077 86.7848 55.1919 87.5006 55.1919 88.3813C55.1919 89.2619 55.9077 89.9778 56.7908 89.9778H69.0489C69.9493 89.9778 70.8027 89.771 71.5606 89.402L103.863 81.3493C104.579 81.1722 105.324 81.5215 105.644 82.1854C106.014 82.959 105.686 83.8916 104.915 84.2632Z" fill="#313131"/>
<path d="M70.8708 67.6354C71.7416 67.6354 72.45 66.9344 72.4624 66.0637C73.722 65.7901 74.8984 65.2152 75.8894 64.3386C77.3977 62.9975 78.2931 61.1523 78.4062 59.1372C78.6278 55.3775 76.037 52.1152 72.4666 51.3425V42.7651C74.162 43.439 75.3261 45.1269 75.2147 47.0464C75.1628 47.9246 75.8351 48.6849 76.7157 48.7368C77.6186 48.7863 78.3542 48.114 78.4061 47.2334C78.6277 43.4762 76.037 40.2139 72.4666 39.4387C72.4616 38.5655 71.7458 37.8521 70.8701 37.8521C69.9894 37.8521 69.2736 38.5679 69.2736 39.451V39.4535C66.0526 40.1669 63.5359 42.8978 63.334 46.3503C63.2138 48.3603 63.8876 50.2996 65.2288 51.8096C66.3063 53.0222 67.7206 53.8147 69.276 54.1492V62.7266C68.6482 62.4778 68.0798 62.1063 67.6201 61.5897C66.8499 60.719 66.4586 59.5995 66.5278 58.4428C66.5797 57.5647 65.9075 56.8043 65.0268 56.75C64.1413 56.7351 63.3883 57.3703 63.3364 58.2534C63.2161 60.2659 63.89 62.205 65.2311 63.7127C66.3087 64.9278 67.723 65.7178 69.2809 66.0523C69.2842 66.9297 69.9951 67.6357 70.8708 67.6357L70.8708 67.6354ZM75.2188 58.9526C75.1471 60.1167 74.6331 61.1769 73.7648 61.9521C73.3784 62.299 72.9377 62.5527 72.4706 62.7372V54.6723C74.1627 55.3454 75.3292 57.0358 75.2187 58.9528L75.2188 58.9526ZM67.6159 49.6817C66.8432 48.8134 66.4544 47.6938 66.5261 46.5373C66.6266 44.795 67.7461 43.3682 69.2693 42.7602V50.8177C68.6465 50.5747 68.0781 50.1982 67.616 49.6817L67.6159 49.6817Z" fill="#313131"/>
<path d="M11.3714 44.2188H23.7077C24.5908 44.2188 25.3067 43.5029 25.3067 42.6198C25.3067 41.7392 24.5908 41.0233 23.7077 41.0233L11.3714 41.0225C10.4883 41.0225 9.77247 41.7383 9.77247 42.619C9.76918 43.5029 10.4859 44.2188 11.3714 44.2188V44.2188Z" fill="#313131"/>
<path d="M1.59651 54.8911H23.4785C24.3592 54.8911 25.0751 54.1753 25.0751 53.2946C25.0751 52.4115 24.3592 51.6956 23.4785 51.6956L1.59651 51.6948C0.715869 51.6948 7.10549e-07 52.4107 7.10549e-07 53.2938C-0.00082324 54.1728 0.715047 54.8911 1.59651 54.8911Z" fill="#313131"/>
</svg>
