<svg width="88" height="88" viewBox="0 0 88 88" fill="none" xmlns="http://www.w3.org/2000/svg">
<path d="M36.6894 52.919V51.919H35.6894H8.74025C4.47395 51.919 1 48.4265 1 44.0992C1 39.7719 4.47395 36.2794 8.74025 36.2794H35.5471H36.5471V35.2794V8.8203C36.5471 4.49297 40.0211 1.00049 44.2874 1.00049C48.5537 1.00049 52.0276 4.49297 52.0276 8.8203V34.5229V35.5229H53.0276H79.2597C83.526 35.5229 87 39.0153 87 43.3427C87 47.67 83.526 51.1625 79.2597 51.1625H52.4415H51.4415V52.1625V79.5482C51.4415 83.6725 48.1306 87.0005 44.0654 87.0005C40.0003 87.0005 36.6894 83.6725 36.6894 79.5482V52.919Z" stroke="#313131" stroke-width="2"/>
</svg>
