<svg width="153" height="73" viewBox="0 0 153 73" fill="none" xmlns="http://www.w3.org/2000/svg">
<path d="M54 14.0005C54 6.8208 59.8203 1.00049 67 1.00049H113.671C120.851 1.00049 126.671 6.82079 126.671 14.0005V15.4014V17.3238C126.671 25.3866 133.045 32.007 141.102 32.313L151.25 32.6983V43.8696V47.6039C151.25 54.7836 145.43 60.6039 138.25 60.6039H127.671H67C59.8203 60.6039 54 54.7836 54 47.6039V14.0005Z" stroke="#313131" stroke-width="2"/>
<path d="M125.805 18.0459H137.533C138.942 18.0459 140.247 18.7873 140.969 19.9976L149.45 34.2246" stroke="#313131" stroke-width="2"/>
<circle cx="80.3803" cy="61.6039" r="10.2006" fill="#FAFAFA" stroke="#313131" stroke-width="2"/>
<circle cx="128.919" cy="61.6039" r="10.2006" fill="#FAFAFA" stroke="#313131" stroke-width="2"/>
<rect x="7" y="16.0005" width="29" height="2" rx="1" fill="#313131"/>
<rect x="7" y="42.0005" width="29" height="2" rx="1" fill="#313131"/>
<rect y="28.0005" width="29" height="2" rx="1" fill="#313131"/>
</svg>
