<svg width="845" height="791" viewBox="0 0 845 791" fill="none" xmlns="http://www.w3.org/2000/svg">
<g filter="url(#filter0_d_0_1)">
<circle cx="428" cy="143" r="140" fill="white"/>
</g>
<path d="M383.832 218H387.096L379.512 201.2H376.44L368.88 218H372.096L373.752 214.112H382.152L383.832 218ZM374.808 211.664L377.952 204.32L381.12 211.664H374.808ZM397.899 200.192V206.768C396.891 205.592 395.427 205.04 393.771 205.04C390.051 205.04 387.291 207.608 387.291 211.592C387.291 215.576 390.051 218.168 393.771 218.168C395.523 218.168 397.011 217.568 398.019 216.344V218H400.899V200.192H397.899ZM394.131 215.6C391.971 215.6 390.315 214.04 390.315 211.592C390.315 209.144 391.971 207.584 394.131 207.584C396.291 207.584 397.947 209.144 397.947 211.592C397.947 214.04 396.291 215.6 394.131 215.6ZM413.896 200.192V206.768C412.888 205.592 411.424 205.04 409.768 205.04C406.048 205.04 403.288 207.608 403.288 211.592C403.288 215.576 406.048 218.168 409.768 218.168C411.52 218.168 413.008 217.568 414.016 216.344V218H416.896V200.192H413.896ZM410.128 215.6C407.968 215.6 406.312 214.04 406.312 211.592C406.312 209.144 407.968 207.584 410.128 207.584C412.288 207.584 413.944 209.144 413.944 211.592C413.944 214.04 412.288 215.6 410.128 215.6ZM434.557 218.24C437.317 218.24 439.669 217.256 441.229 215.432L439.213 213.512C437.989 214.856 436.477 215.504 434.725 215.504C431.245 215.504 428.725 213.056 428.725 209.6C428.725 206.144 431.245 203.696 434.725 203.696C436.477 203.696 437.989 204.344 439.213 205.664L441.229 203.768C439.669 201.944 437.317 200.96 434.581 200.96C429.421 200.96 425.581 204.584 425.581 209.6C425.581 214.616 429.421 218.24 434.557 218.24ZM448.23 205.04C446.166 205.04 444.174 205.568 442.806 206.624L443.982 208.808C444.942 208.016 446.43 207.536 447.87 207.536C450.006 207.536 451.062 208.568 451.062 210.32V210.512H447.75C443.862 210.512 442.422 212.192 442.422 214.328C442.422 216.56 444.27 218.168 447.198 218.168C449.118 218.168 450.51 217.544 451.23 216.44V218H454.062V210.488C454.062 206.792 451.926 205.04 448.23 205.04ZM447.822 215.984C446.286 215.984 445.374 215.288 445.374 214.208C445.374 213.272 445.926 212.504 447.966 212.504H451.062V213.992C450.558 215.312 449.286 215.984 447.822 215.984ZM461.392 218.168C464.992 218.168 467.2 216.608 467.2 214.208C467.2 209.192 459.28 211.496 459.28 208.904C459.28 208.064 460.144 207.464 461.968 207.464C463.192 207.464 464.416 207.704 465.64 208.424L466.792 206.144C465.64 205.448 463.696 205.04 461.992 205.04C458.536 205.04 456.352 206.624 456.352 209.048C456.352 214.16 464.272 211.856 464.272 214.304C464.272 215.192 463.48 215.72 461.584 215.72C459.976 215.72 458.248 215.192 457.12 214.448L455.968 216.728C457.12 217.544 459.256 218.168 461.392 218.168ZM476.575 205.04C474.799 205.04 473.287 205.616 472.303 206.672V200.192H469.303V218H472.303V211.52C472.303 208.952 473.743 207.656 475.879 207.656C477.799 207.656 478.927 208.76 478.927 211.04V218H481.927V210.656C481.927 206.792 479.647 205.04 476.575 205.04Z" fill="black"/>
<rect x="365.5" y="97.5" width="124" height="69" rx="5.5" stroke="#41595F" stroke-width="5"/>
<ellipse cx="427.5" cy="132" rx="16.5" ry="16" fill="#A3B5FF"/>
<g filter="url(#filter1_d_0_1)">
<circle cx="144" cy="386" r="140" fill="white"/>
</g>
<g filter="url(#filter2_d_0_1)">
<circle cx="416" cy="646" r="140" fill="white"/>
</g>
<g filter="url(#filter3_d_0_1)">
<circle cx="701" cy="386" r="140" fill="white"/>
</g>
<line x1="261.669" y1="280.399" x2="295.412" y2="250.626" stroke="black"/>
<line x1="550.669" y1="555.399" x2="584.412" y2="525.626" stroke="black"/>
<line x1="275.909" y1="541.493" x2="246.624" y2="507.327" stroke="black"/>
<line x1="584.909" y1="268.493" x2="555.624" y2="234.327" stroke="black"/>
<path d="M59.032 450.24C61.792 450.24 64.144 449.256 65.704 447.432L63.688 445.512C62.464 446.856 60.952 447.504 59.2 447.504C55.72 447.504 53.2 445.056 53.2 441.6C53.2 438.144 55.72 435.696 59.2 435.696C60.952 435.696 62.464 436.344 63.688 437.664L65.704 435.768C64.144 433.944 61.792 432.96 59.056 432.96C53.896 432.96 50.056 436.584 50.056 441.6C50.056 446.616 53.896 450.24 59.032 450.24ZM73.2168 450.168C77.2008 450.168 80.0568 447.432 80.0568 443.592C80.0568 439.752 77.2008 437.04 73.2168 437.04C69.2808 437.04 66.4008 439.752 66.4008 443.592C66.4008 447.432 69.2808 450.168 73.2168 450.168ZM73.2168 447.6C71.0568 447.6 69.4248 446.04 69.4248 443.592C69.4248 441.144 71.0568 439.584 73.2168 439.584C75.4008 439.584 77.0328 441.144 77.0328 443.592C77.0328 446.04 75.4008 447.6 73.2168 447.6ZM91.8535 437.184V443.664C91.8535 446.232 90.4375 447.528 88.3495 447.528C86.4535 447.528 85.3495 446.424 85.3495 444.096V437.184H82.3495V444.504C82.3495 448.368 84.5815 450.168 87.8695 450.168C89.5255 450.168 91.0375 449.544 91.9975 448.368V450H94.8535V437.184H91.8535ZM105.573 437.04C103.701 437.04 102.141 437.664 101.157 438.84V437.184H98.3014V450H101.301V443.52C101.301 440.952 102.741 439.656 104.877 439.656C106.797 439.656 107.925 440.76 107.925 443.04V450H110.925V442.656C110.925 438.792 108.645 437.04 105.573 437.04ZM121.115 447.168C120.659 447.528 120.059 447.696 119.435 447.696C118.283 447.696 117.659 447.024 117.659 445.776V439.68H121.091V437.28H117.659V434.352H114.659V437.28H112.547V439.68H114.659V445.848C114.659 448.68 116.267 450.168 119.075 450.168C120.155 450.168 121.235 449.88 121.955 449.304L121.115 447.168ZM135.569 443.664C135.569 439.656 132.833 437.04 129.089 437.04C125.273 437.04 122.465 439.776 122.465 443.592C122.465 447.408 125.249 450.168 129.545 450.168C131.753 450.168 133.553 449.448 134.705 448.08L133.097 446.232C132.185 447.168 131.057 447.624 129.617 447.624C127.385 447.624 125.825 446.424 125.465 444.552H135.521C135.545 444.264 135.569 443.904 135.569 443.664ZM129.089 439.44C131.057 439.44 132.473 440.712 132.713 442.56H125.441C125.729 440.688 127.145 439.44 129.089 439.44ZM140.827 439.056V437.184H137.971V450H140.971V443.784C140.971 441.168 142.411 439.824 144.691 439.824C144.907 439.824 145.123 439.848 145.387 439.896V437.04C143.251 437.04 141.691 437.712 140.827 439.056ZM161.858 450.24C167.066 450.24 170.906 446.592 170.906 441.6C170.906 436.608 167.066 432.96 161.858 432.96C156.65 432.96 152.81 436.632 152.81 441.6C152.81 446.568 156.65 450.24 161.858 450.24ZM161.858 447.504C158.474 447.504 155.954 445.032 155.954 441.6C155.954 438.168 158.474 435.696 161.858 435.696C165.242 435.696 167.762 438.168 167.762 441.6C167.762 445.032 165.242 447.504 161.858 447.504ZM178.653 434.448C179.277 434.448 179.853 434.664 180.309 434.976L181.149 432.72C180.477 432.24 179.469 432.024 178.437 432.024C175.461 432.024 173.853 433.776 173.853 436.464V437.28H171.741V439.68H173.853V450H176.853V439.68H180.285V437.28H176.757V436.512C176.757 435.144 177.405 434.448 178.653 434.448ZM187.032 434.448C187.656 434.448 188.232 434.664 188.688 434.976L189.528 432.72C188.856 432.24 187.848 432.024 186.816 432.024C183.84 432.024 182.232 433.776 182.232 436.464V437.28H180.12V439.68H182.232V450H185.232V439.68H188.664V437.28H185.136V436.512C185.136 435.144 185.784 434.448 187.032 434.448ZM202.064 443.664C202.064 439.656 199.328 437.04 195.584 437.04C191.768 437.04 188.96 439.776 188.96 443.592C188.96 447.408 191.744 450.168 196.04 450.168C198.248 450.168 200.048 449.448 201.2 448.08L199.592 446.232C198.68 447.168 197.552 447.624 196.112 447.624C193.88 447.624 192.32 446.424 191.96 444.552H202.016C202.04 444.264 202.064 443.904 202.064 443.664ZM195.584 439.44C197.552 439.44 198.968 440.712 199.208 442.56H191.936C192.224 440.688 193.64 439.44 195.584 439.44ZM207.322 439.056V437.184H204.466V450H207.466V443.784C207.466 441.168 208.906 439.824 211.186 439.824C211.402 439.824 211.618 439.848 211.882 439.896V437.04C209.746 437.04 208.186 437.712 207.322 439.056ZM217.954 450.168C221.554 450.168 223.762 448.608 223.762 446.208C223.762 441.192 215.842 443.496 215.842 440.904C215.842 440.064 216.706 439.464 218.53 439.464C219.754 439.464 220.978 439.704 222.202 440.424L223.354 438.144C222.202 437.448 220.258 437.04 218.554 437.04C215.098 437.04 212.914 438.624 212.914 441.048C212.914 446.16 220.834 443.856 220.834 446.304C220.834 447.192 220.042 447.72 218.146 447.72C216.538 447.72 214.81 447.192 213.682 446.448L212.53 448.728C213.682 449.544 215.818 450.168 217.954 450.168Z" fill="black"/>
<path d="M373.649 702L373.625 685.2H371.057L364.505 696.336L357.833 685.2H355.265V702H358.241V691.008L363.761 700.08H365.153L370.673 690.864L370.697 702H373.649ZM386.827 689.184V695.664C386.827 698.232 385.411 699.528 383.323 699.528C381.427 699.528 380.323 698.424 380.323 696.096V689.184H377.323V696.504C377.323 700.368 379.555 702.168 382.843 702.168C384.499 702.168 386.011 701.544 386.971 700.368V702H389.827V689.184H386.827ZM393.275 702H396.275V684.192H393.275V702ZM407.23 699.168C406.774 699.528 406.174 699.696 405.55 699.696C404.398 699.696 403.774 699.024 403.774 697.776V691.68H407.206V689.28H403.774V686.352H400.774V689.28H398.662V691.68H400.774V697.848C400.774 700.68 402.382 702.168 405.19 702.168C406.27 702.168 407.35 701.88 408.07 701.304L407.23 699.168ZM411.569 687.072C412.697 687.072 413.489 686.256 413.489 685.2C413.489 684.216 412.673 683.472 411.569 683.472C410.465 683.472 409.649 684.264 409.649 685.272C409.649 686.28 410.465 687.072 411.569 687.072ZM410.057 702H413.057V689.184H410.057V702ZM415.867 696.576H422.467V694.08H415.867V696.576ZM425.557 702H428.677V685.2H425.557V702ZM439.317 699.168C438.861 699.528 438.261 699.696 437.637 699.696C436.485 699.696 435.861 699.024 435.861 697.776V691.68H439.293V689.28H435.861V686.352H432.861V689.28H430.749V691.68H432.861V697.848C432.861 700.68 434.469 702.168 437.277 702.168C438.357 702.168 439.437 701.88 440.157 701.304L439.317 699.168ZM453.771 695.664C453.771 691.656 451.035 689.04 447.291 689.04C443.475 689.04 440.667 691.776 440.667 695.592C440.667 699.408 443.451 702.168 447.747 702.168C449.955 702.168 451.755 701.448 452.907 700.08L451.299 698.232C450.387 699.168 449.259 699.624 447.819 699.624C445.587 699.624 444.027 698.424 443.667 696.552H453.723C453.747 696.264 453.771 695.904 453.771 695.664ZM447.291 691.44C449.259 691.44 450.675 692.712 450.915 694.56H443.643C443.931 692.688 445.347 691.44 447.291 691.44ZM472.349 689.04C470.309 689.04 468.581 689.856 467.549 691.176C466.661 689.736 465.101 689.04 463.229 689.04C461.477 689.04 459.989 689.664 459.029 690.816V689.184H456.173V702H459.173V695.496C459.173 692.952 460.517 691.656 462.509 691.656C464.333 691.656 465.389 692.76 465.389 695.04V702H468.389V695.496C468.389 692.952 469.757 691.656 471.725 691.656C473.549 691.656 474.605 692.76 474.605 695.04V702H477.605V694.656C477.605 690.792 475.445 689.04 472.349 689.04ZM387.561 731H390.681V716.84H396.25V714.2H381.993V716.84H387.561V731ZM400.374 720.056V718.184H397.518V731H400.518V724.784C400.518 722.168 401.958 720.824 404.238 720.824C404.454 720.824 404.67 720.848 404.934 720.896V718.04C402.798 718.04 401.238 718.712 400.374 720.056ZM411.825 718.04C409.761 718.04 407.769 718.568 406.401 719.624L407.577 721.808C408.537 721.016 410.025 720.536 411.465 720.536C413.601 720.536 414.657 721.568 414.657 723.32V723.512H411.345C407.457 723.512 406.017 725.192 406.017 727.328C406.017 729.56 407.865 731.168 410.793 731.168C412.713 731.168 414.105 730.544 414.825 729.44V731H417.657V723.488C417.657 719.792 415.521 718.04 411.825 718.04ZM411.417 728.984C409.881 728.984 408.969 728.288 408.969 727.208C408.969 726.272 409.521 725.504 411.561 725.504H414.657V726.992C414.153 728.312 412.881 728.984 411.417 728.984ZM430.696 713.192V719.768C429.688 718.592 428.224 718.04 426.568 718.04C422.848 718.04 420.088 720.608 420.088 724.592C420.088 728.576 422.848 731.168 426.568 731.168C428.32 731.168 429.808 730.568 430.816 729.344V731H433.696V713.192H430.696ZM426.928 728.6C424.768 728.6 423.112 727.04 423.112 724.592C423.112 722.144 424.768 720.584 426.928 720.584C429.088 720.584 430.744 722.144 430.744 724.592C430.744 727.04 429.088 728.6 426.928 728.6ZM449.189 724.664C449.189 720.656 446.453 718.04 442.709 718.04C438.893 718.04 436.085 720.776 436.085 724.592C436.085 728.408 438.869 731.168 443.165 731.168C445.373 731.168 447.173 730.448 448.325 729.08L446.717 727.232C445.805 728.168 444.677 728.624 443.237 728.624C441.005 728.624 439.445 727.424 439.085 725.552H449.141C449.165 725.264 449.189 724.904 449.189 724.664ZM442.709 720.44C444.677 720.44 446.093 721.712 446.333 723.56H439.061C439.349 721.688 440.765 720.44 442.709 720.44Z" fill="black"/>
<path d="M665.832 433.2L661.536 446.04L657.288 433.2H654.408L650.064 445.968L645.888 433.2H642.648L648.216 450H651.552L655.776 437.568L659.928 450H663.24L668.808 433.2H665.832ZM674.517 437.04C672.453 437.04 670.461 437.568 669.093 438.624L670.269 440.808C671.229 440.016 672.717 439.536 674.157 439.536C676.293 439.536 677.349 440.568 677.349 442.32V442.512H674.037C670.149 442.512 668.709 444.192 668.709 446.328C668.709 448.56 670.557 450.168 673.485 450.168C675.405 450.168 676.797 449.544 677.517 448.44V450H680.349V442.488C680.349 438.792 678.213 437.04 674.517 437.04ZM674.109 447.984C672.573 447.984 671.661 447.288 671.661 446.208C671.661 445.272 672.213 444.504 674.253 444.504H677.349V445.992C676.845 447.312 675.573 447.984 674.109 447.984ZM690.991 437.04C689.119 437.04 687.559 437.664 686.575 438.84V437.184H683.719V450H686.719V443.52C686.719 440.952 688.159 439.656 690.295 439.656C692.215 439.656 693.343 440.76 693.343 443.04V450H696.343V442.656C696.343 438.792 694.063 437.04 690.991 437.04ZM706.533 447.168C706.077 447.528 705.477 447.696 704.853 447.696C703.701 447.696 703.077 447.024 703.077 445.776V439.68H706.509V437.28H703.077V434.352H700.077V437.28H697.965V439.68H700.077V445.848C700.077 448.68 701.685 450.168 704.493 450.168C705.573 450.168 706.653 449.88 707.373 449.304L706.533 447.168ZM713.321 450.168C716.921 450.168 719.129 448.608 719.129 446.208C719.129 441.192 711.209 443.496 711.209 440.904C711.209 440.064 712.073 439.464 713.897 439.464C715.121 439.464 716.345 439.704 717.569 440.424L718.721 438.144C717.569 437.448 715.625 437.04 713.921 437.04C710.465 437.04 708.281 438.624 708.281 441.048C708.281 446.16 716.201 443.856 716.201 446.304C716.201 447.192 715.409 447.72 713.513 447.72C711.905 447.72 710.177 447.192 709.049 446.448L707.897 448.728C709.049 449.544 711.185 450.168 713.321 450.168ZM727.673 450H739.577V447.36H730.793V433.2H727.673V450ZM742.784 435.072C743.912 435.072 744.704 434.256 744.704 433.2C744.704 432.216 743.888 431.472 742.784 431.472C741.68 431.472 740.864 432.264 740.864 433.272C740.864 434.28 741.68 435.072 742.784 435.072ZM741.272 450H744.272V437.184H741.272V450ZM751.69 450.168C755.29 450.168 757.498 448.608 757.498 446.208C757.498 441.192 749.578 443.496 749.578 440.904C749.578 440.064 750.442 439.464 752.266 439.464C753.49 439.464 754.714 439.704 755.938 440.424L757.09 438.144C755.938 437.448 753.994 437.04 752.29 437.04C748.834 437.04 746.65 438.624 746.65 441.048C746.65 446.16 754.57 443.856 754.57 446.304C754.57 447.192 753.778 447.72 751.882 447.72C750.274 447.72 748.546 447.192 747.418 446.448L746.266 448.728C747.418 449.544 749.554 450.168 751.69 450.168ZM766.465 447.168C766.009 447.528 765.409 447.696 764.785 447.696C763.633 447.696 763.009 447.024 763.009 445.776V439.68H766.441V437.28H763.009V434.352H760.009V437.28H757.897V439.68H760.009V445.848C760.009 448.68 761.617 450.168 764.425 450.168C765.505 450.168 766.585 449.88 767.305 449.304L766.465 447.168Z" fill="black"/>
<path d="M128.792 306.003C128.14 306.011 127.476 306.007 126.818 306.039C116.796 306.537 109.069 309.613 103.665 314.461C98.2607 319.31 95.2548 325.883 94.3258 332.999C92.4992 346.983 98.4502 363.172 109.726 375.29L110.29 393.051C110.33 394.297 111.37 395.275 112.616 395.237C113.863 395.198 114.84 394.157 114.802 392.911L114.167 374.338C114.154 373.788 113.941 373.261 113.568 372.858C102.778 361.593 97.1713 346.046 98.8013 333.564C99.6163 327.324 102.169 321.873 106.696 317.81C111.223 313.749 117.802 311.009 127.03 310.551C136.65 310.073 145.238 312.554 150.994 317.74C156.751 322.927 159.957 330.851 158.572 342.198C158.544 342.349 158.532 342.503 158.536 342.656C158.697 344.646 159.712 346.257 160.827 347.802C161.942 349.346 163.262 350.789 164.457 352.137C165.653 353.484 166.725 354.745 167.241 355.59C167.404 355.856 167.401 355.95 167.453 356.083C165.938 357.67 163.083 358.198 163.083 358.198C162.402 358.269 161.79 358.646 161.421 359.221C161.051 359.797 160.962 360.51 161.179 361.158C161.407 361.835 161.599 363.954 161.391 366.374C161.183 368.795 160.677 371.617 159.876 374.233C159.074 376.848 157.975 379.253 156.774 380.824C155.574 382.394 154.497 383.008 153.391 382.974C153.38 382.973 153.368 382.973 153.356 382.974C149.657 382.958 147.595 382.449 146.589 382.057C146.086 381.861 145.825 381.695 145.743 381.634C145.181 380.986 144.3 380.714 143.47 380.931C142.64 381.148 142.005 381.816 141.831 382.656L140.316 390.127C140.144 390.73 140.231 391.377 140.555 391.913C140.88 392.45 141.413 392.826 142.026 392.955C142.639 393.082 143.279 392.948 143.79 392.586C144.302 392.224 144.639 391.665 144.722 391.044L145.673 386.427C147.343 386.98 149.654 387.462 153.25 387.484C153.274 387.485 153.296 387.483 153.321 387.484C156.237 387.546 158.674 385.788 160.369 383.572C162.078 381.338 163.269 378.493 164.175 375.537C165.08 372.581 165.665 369.517 165.902 366.762C166.048 365.068 166.035 363.561 165.902 362.181C167.566 361.708 169.622 360.795 171.329 358.586C172.007 357.709 172.191 356.503 172.034 355.59C171.878 354.677 171.511 353.931 171.082 353.229C170.225 351.824 169.053 350.506 167.84 349.141C166.628 347.775 165.359 346.408 164.457 345.158C163.563 343.921 163.096 342.815 163.047 342.304C163.046 342.298 163.047 342.274 163.047 342.269C164.415 330.041 160.805 320.501 154.025 314.391C147.585 308.589 138.567 305.891 128.792 306.003ZM187.012 356.929C186.254 357.031 185.6 357.509 185.273 358.199C184.946 358.889 184.99 359.697 185.39 360.348C192.276 372.248 188.228 387.38 176.298 394.251C175.225 394.876 174.858 396.252 175.479 397.329C176.099 398.406 177.474 398.778 178.554 398.162C192.593 390.075 197.411 372.105 189.303 358.093C188.856 357.265 187.943 356.802 187.012 356.929ZM180.633 360.277C179.881 360.374 179.227 360.842 178.893 361.523C178.56 362.205 178.591 363.008 178.976 363.661C183.566 371.729 180.841 381.994 172.915 386.638C171.841 387.274 171.482 388.658 172.113 389.734C172.743 390.811 174.125 391.176 175.205 390.55C185.251 384.663 188.71 371.613 182.923 361.44C182.476 360.613 181.564 360.15 180.633 360.277ZM174.077 363.872C173.323 363.953 172.66 364.407 172.312 365.081C171.964 365.756 171.979 366.559 172.351 367.22C174.707 371.557 173.273 377.108 169.284 379.555C168.754 379.858 168.369 380.363 168.218 380.955C168.066 381.547 168.161 382.175 168.481 382.695C168.801 383.216 169.318 383.584 169.915 383.716C170.511 383.849 171.136 383.733 171.646 383.396C177.774 379.638 179.818 371.483 176.333 365.07C175.902 364.243 175.005 363.767 174.077 363.872Z" fill="#41595F"/>
<rect x="653" y="308" width="96" height="88" rx="6" stroke="#A3B5FF" stroke-width="4"/>
<path d="M676.991 332.367C674.24 332.367 672 334.606 672 337.358C672 340.111 674.24 342.349 676.991 342.349C679.742 342.349 681.982 340.111 681.982 337.358C681.982 334.607 679.742 332.367 676.991 332.367ZM676.658 337.358C676.658 337.174 676.807 337.026 676.99 337.026C677.174 337.026 677.323 337.175 677.323 337.358C677.323 337.725 676.658 337.725 676.658 337.358H676.658Z" fill="#41595F"/>
<path d="M676.991 347.008C674.24 347.008 672 349.246 672 351.999C672 354.752 674.24 356.99 676.991 356.99C679.742 356.99 681.982 354.752 681.982 351.999C681.982 349.246 679.742 347.008 676.991 347.008ZM676.658 351.999C676.658 351.815 676.807 351.667 676.99 351.667C677.174 351.667 677.323 351.816 677.323 351.999C677.323 352.365 676.658 352.365 676.658 351.999H676.658Z" fill="#41595F"/>
<path d="M676.991 361.648C674.24 361.648 672 363.887 672 366.64C672 369.392 674.24 371.631 676.991 371.631C679.742 371.631 681.982 369.392 681.982 366.64C681.982 363.887 679.742 361.648 676.991 361.648ZM676.658 366.64C676.658 366.456 676.807 366.307 676.99 366.307C677.174 366.307 677.323 366.457 677.323 366.64C677.323 367.005 676.658 367.005 676.658 366.64H676.658Z" fill="#41595F"/>
<path d="M688.295 340.02H727.332C728.802 340.02 729.994 338.827 729.994 337.358C729.994 335.888 728.801 334.696 727.332 334.696L688.295 334.695C686.825 334.695 685.633 335.888 685.633 337.357C685.633 338.827 686.824 340.02 688.295 340.02V340.02Z" fill="#41595F"/>
<path d="M727.332 349.336H688.295C686.825 349.336 685.633 350.529 685.633 351.998C685.633 353.467 686.826 354.659 688.295 354.659H727.332C728.802 354.659 729.994 353.466 729.994 351.998C729.995 350.528 728.804 349.336 727.333 349.336H727.332Z" fill="#41595F"/>
<path d="M727.332 363.977H688.295C686.825 363.977 685.633 365.17 685.633 366.638C685.633 368.108 686.826 369.3 688.295 369.3H727.332C728.802 369.3 729.994 368.107 729.994 366.638C729.995 365.17 728.804 363.977 727.333 363.977H727.332Z" fill="#41595F"/>
<path d="M401.865 633.556L385.686 630.327L384.745 630.163C384.225 630.024 382.58 629.288 380.317 628.301L380.541 628.104C381.001 627.498 380.856 626.432 380.139 626.071C379.534 625.61 378.468 625.755 378.106 626.472L377.534 627.176C376.297 626.676 375.172 626.078 373.836 625.466L374.073 625.058C374.533 624.452 374.389 623.386 373.672 623.024C373.066 622.564 372 622.709 371.639 623.426L371.165 624.242C370.04 623.643 368.816 622.933 367.691 622.334L368.039 621.827C368.5 621.222 368.355 620.156 367.638 619.794C367.033 619.334 365.967 619.478 365.605 620.195L365.145 620.8C365.046 620.688 364.836 620.676 364.737 620.564C363.921 620.09 363.316 619.63 362.612 619.058L361.822 618.163C360.578 616.077 358.729 613.531 356.512 613.499C354.197 613.354 352.118 616.184 352.888 619.085L353.414 620.808C353.513 620.92 353.401 621.019 353.289 621.118C344.848 625.98 342 625.908 340.19 626.112C337.315 626.462 336.38 624.501 335.617 623.185C334.571 621.324 333.722 619.685 329.748 619.015C328.288 618.712 326.847 619.784 326.656 621.147C326.17 625.555 323.98 638.628 323.882 641.899C320.803 647.202 322.955 651.669 326.718 652.326C350.338 656.548 381.82 655.026 393.412 652.157C399.004 650.604 407.07 646.669 407.537 640.886C407.879 638.794 406.977 634.616 401.865 633.557L401.865 633.556ZM329.774 621.976C331.965 622.43 332.347 623.088 333.209 624.515C333.973 625.831 335.644 629.529 340.539 628.989C344.861 629.153 351.315 625.646 354.927 623.652C356.243 622.889 356.868 621.343 356.427 619.942L355.901 618.218C355.644 617.251 356.118 616.435 356.538 616.461C356.959 616.488 358.17 617.409 359.401 619.705C359.782 620.363 360.276 620.922 360.881 621.382C361.585 621.955 362.401 622.428 363.105 623.001C363.204 623.112 363.204 623.112 363.414 623.125L361.671 625.658C361.211 626.264 361.355 627.329 362.072 627.691C362.678 628.151 363.744 628.007 364.105 627.29L365.961 624.658C367.086 625.257 368.309 625.967 369.435 626.566L367.705 628.889C367.244 629.494 367.389 630.56 368.106 630.922C368.711 631.382 369.777 631.238 370.139 630.521L371.994 627.889C373.33 628.501 374.455 629.099 375.692 629.599L374.172 631.934C373.712 632.539 373.857 633.605 374.574 633.967C375.179 634.427 376.245 634.282 376.607 633.565L378.587 630.624C381.469 631.861 383.633 632.736 383.844 632.749C383.942 632.861 384.054 632.763 384.153 632.874L401.483 636.281C404.095 636.761 404.72 638.597 404.753 639.761C400.05 642.321 390.122 643.92 388.003 644C355.147 645.541 338 642.569 326.993 641.142C327.19 637.984 328.558 629.615 329.775 621.977L329.774 621.976ZM392.642 649.256C381.582 652.053 351.574 653.667 327.211 649.504C324.908 649.149 325.204 646.103 326.178 644.05C335.823 645.286 353.686 648.621 388.016 647.17C390.345 647.104 397.819 645.88 402.793 644.077C400.096 646.656 394.898 648.656 392.642 649.256L392.642 649.256Z" fill="#41595F"/>
<path d="M331.536 637.725L336.674 638.363C337.517 638.416 338.286 637.935 338.339 637.093C338.391 636.251 337.911 635.481 337.069 635.429L331.931 634.791C331.088 634.738 330.319 635.219 330.266 636.061C330.115 636.791 330.806 637.574 331.536 637.725Z" fill="#41595F"/>
<path fill-rule="evenodd" clip-rule="evenodd" d="M490.059 602.565C490.48 601.555 490.188 600.389 489.342 599.697L475.729 588.559C475.289 588.198 474.734 588 474.163 588H463.025C461.659 588 460.55 589.109 460.55 590.475C460.55 594.574 457.224 597.9 453.125 597.9C449.026 597.9 445.7 594.574 445.7 590.475C445.7 589.109 444.591 588 443.225 588H432.088C431.516 588 430.962 588.198 430.521 588.559L416.908 599.697C416.062 600.389 415.77 601.555 416.191 602.565L422.378 617.415C422.668 618.11 423.259 618.635 423.985 618.843C424.71 619.049 425.487 618.915 426.101 618.477L430.85 615.084V654.825C430.85 656.191 431.959 657.3 433.325 657.3H472.925C474.291 657.3 475.4 656.191 475.4 654.825V615.084L480.149 618.477C480.763 618.915 481.541 619.049 482.265 618.843C482.991 618.635 483.582 618.11 483.872 617.415L490.059 602.565ZM484.783 602.362L480.499 612.643L474.363 608.26C473.608 607.723 472.616 607.649 471.791 608.075C470.967 608.498 470.45 609.347 470.45 610.275V652.35H435.8V610.275C435.8 609.347 435.283 608.498 434.459 608.075C433.634 607.649 432.642 607.723 431.887 608.26L425.751 612.643L421.467 602.362L432.971 592.95H440.997C442.146 598.595 447.143 602.85 453.125 602.85C459.107 602.85 464.104 598.595 465.252 592.95H473.279L484.783 602.362Z" fill="#41595F"/>
<defs>
<filter id="filter0_d_0_1" x="284" y="0" width="288" height="288" filterUnits="userSpaceOnUse" color-interpolation-filters="sRGB">
<feFlood flood-opacity="0" result="BackgroundImageFix"/>
<feColorMatrix in="SourceAlpha" type="matrix" values="0 0 0 0 0 0 0 0 0 0 0 0 0 0 0 0 0 0 127 0" result="hardAlpha"/>
<feOffset dy="1"/>
<feGaussianBlur stdDeviation="2"/>
<feComposite in2="hardAlpha" operator="out"/>
<feColorMatrix type="matrix" values="0 0 0 0 0 0 0 0 0 0 0 0 0 0 0 0 0 0 0.25 0"/>
<feBlend mode="normal" in2="BackgroundImageFix" result="effect1_dropShadow_0_1"/>
<feBlend mode="normal" in="SourceGraphic" in2="effect1_dropShadow_0_1" result="shape"/>
</filter>
<filter id="filter1_d_0_1" x="0" y="243" width="288" height="288" filterUnits="userSpaceOnUse" color-interpolation-filters="sRGB">
<feFlood flood-opacity="0" result="BackgroundImageFix"/>
<feColorMatrix in="SourceAlpha" type="matrix" values="0 0 0 0 0 0 0 0 0 0 0 0 0 0 0 0 0 0 127 0" result="hardAlpha"/>
<feOffset dy="1"/>
<feGaussianBlur stdDeviation="2"/>
<feComposite in2="hardAlpha" operator="out"/>
<feColorMatrix type="matrix" values="0 0 0 0 0 0 0 0 0 0 0 0 0 0 0 0 0 0 0.25 0"/>
<feBlend mode="normal" in2="BackgroundImageFix" result="effect1_dropShadow_0_1"/>
<feBlend mode="normal" in="SourceGraphic" in2="effect1_dropShadow_0_1" result="shape"/>
</filter>
<filter id="filter2_d_0_1" x="272" y="503" width="288" height="288" filterUnits="userSpaceOnUse" color-interpolation-filters="sRGB">
<feFlood flood-opacity="0" result="BackgroundImageFix"/>
<feColorMatrix in="SourceAlpha" type="matrix" values="0 0 0 0 0 0 0 0 0 0 0 0 0 0 0 0 0 0 127 0" result="hardAlpha"/>
<feOffset dy="1"/>
<feGaussianBlur stdDeviation="2"/>
<feComposite in2="hardAlpha" operator="out"/>
<feColorMatrix type="matrix" values="0 0 0 0 0 0 0 0 0 0 0 0 0 0 0 0 0 0 0.25 0"/>
<feBlend mode="normal" in2="BackgroundImageFix" result="effect1_dropShadow_0_1"/>
<feBlend mode="normal" in="SourceGraphic" in2="effect1_dropShadow_0_1" result="shape"/>
</filter>
<filter id="filter3_d_0_1" x="557" y="243" width="288" height="288" filterUnits="userSpaceOnUse" color-interpolation-filters="sRGB">
<feFlood flood-opacity="0" result="BackgroundImageFix"/>
<feColorMatrix in="SourceAlpha" type="matrix" values="0 0 0 0 0 0 0 0 0 0 0 0 0 0 0 0 0 0 127 0" result="hardAlpha"/>
<feOffset dy="1"/>
<feGaussianBlur stdDeviation="2"/>
<feComposite in2="hardAlpha" operator="out"/>
<feColorMatrix type="matrix" values="0 0 0 0 0 0 0 0 0 0 0 0 0 0 0 0 0 0 0.25 0"/>
<feBlend mode="normal" in2="BackgroundImageFix" result="effect1_dropShadow_0_1"/>
<feBlend mode="normal" in="SourceGraphic" in2="effect1_dropShadow_0_1" result="shape"/>
</filter>
</defs>
</svg>
