<svg width="18" height="19" viewBox="0 0 18 19" fill="none" xmlns="http://www.w3.org/2000/svg">
  <circle cx="9" cy="9.25" r="9" fill="#667799"/>
  <path fill-rule="evenodd" clip-rule="evenodd" d="M7.85781 14.25C7.85781 14.8023 8.30553 15.25 8.85781 15.25C9.4101 15.25 9.85781 14.8023 9.85781 14.25V10.0878H14C14.5523 10.0878 15 9.64012 15 9.08783C15 8.53555 14.5523 8.08783 14 8.08783H9.85781V4.25C9.85781 3.69771 9.4101 3.25 8.85781 3.25C8.30553 3.25 7.85781 3.69771 7.85781 4.25V8.08783H4C3.44772 8.08783 3 8.53555 3 9.08783C3 9.64012 3.44772 10.0878 4 10.0878H7.85781V14.25Z" fill="white"/>
</svg>
