<svg width="31" height="31" viewBox="0 0 31 31" fill="none" xmlns="http://www.w3.org/2000/svg">
<g clip-path="url(#clip0_4299_218903)">
<path d="M21.1922 15.2404L28.9878 8.46757V21.936L21.1922 15.2404ZM11.147 16.3874L13.8845 18.7637C14.3141 19.1287 14.8743 19.3492 15.4865 19.3492H15.508H15.5067H15.5245C16.1379 19.3492 16.6981 19.1274 17.1328 18.7599L17.129 18.7624L19.8665 16.3861L28.1881 23.5328H2.82919L11.147 16.3874ZM2.81779 6.8618H28.2033L16.0099 17.452C15.8728 17.5604 15.7031 17.6194 15.5283 17.6193H15.5105H15.5118H15.4941C15.3186 17.6195 15.1484 17.5601 15.0112 17.4507L15.0125 17.452L2.81779 6.8618ZM2.03075 8.4663L9.8251 15.2391L2.03075 21.9309V8.4663ZM29.406 5.37264C29.1019 5.22055 28.7445 5.13184 28.3655 5.13184H2.65683C2.2895 5.13192 1.92721 5.2174 1.59857 5.38151L1.61251 5.37517C1.21909 5.56922 0.887763 5.86942 0.655968 6.24186C0.424174 6.6143 0.301145 7.04414 0.300781 7.48282L0.300781 22.9093C0.301452 23.5336 0.54976 24.1322 0.991222 24.5736C1.43268 25.0151 2.03124 25.2634 2.65556 25.2641H28.3617C28.986 25.2634 29.5846 25.0151 30.0261 24.5736C30.4675 24.1322 30.7158 23.5336 30.7165 22.9093V7.48282C30.7165 6.56143 30.1855 5.76299 29.4124 5.37897L29.3984 5.37264H29.406Z" fill="#41595F"/>
</g>
<defs>
<clipPath id="clip0_4299_218903">
<rect width="30.417" height="30.417" fill="white" transform="translate(0.300781 0.0623779)"/>
</clipPath>
</defs>
</svg>
