<svg width="30" height="30" viewBox="0 0 30 30" fill="none" xmlns="http://www.w3.org/2000/svg">
<path d="M17.8 2.7766C17.8 1.7952 17.0048 1 16.0234 1H13.978C12.9952 1 12.2 1.7952 12.2 2.7766C12.2 3.5858 11.6456 4.2802 10.891 4.577C10.772 4.6246 10.653 4.675 10.5368 4.7254C9.7934 5.0474 8.91 4.9494 8.336 4.3768C8.00286 4.0439 7.55116 3.85689 7.0802 3.85689C6.60923 3.85689 6.15754 4.0439 5.8244 4.3768L4.3768 5.8244C4.0439 6.15754 3.85689 6.60923 3.85689 7.0802C3.85689 7.55116 4.0439 8.00286 4.3768 8.336C4.9508 8.91 5.0488 9.792 4.724 10.5368C4.67297 10.654 4.62396 10.7721 4.577 10.891C4.2802 11.6456 3.5858 12.2 2.7766 12.2C1.7952 12.2 1 12.9952 1 13.9766V16.0234C1 17.0048 1.7952 17.8 2.7766 17.8C3.5858 17.8 4.2802 18.3544 4.577 19.109C4.6246 19.228 4.675 19.347 4.724 19.4632C5.0474 20.2066 4.9494 21.09 4.3768 21.664C4.0439 21.9971 3.85689 22.4488 3.85689 22.9198C3.85689 23.3908 4.0439 23.8425 4.3768 24.1756L5.8244 25.6232C6.15754 25.9561 6.60923 26.1431 7.0802 26.1431C7.55116 26.1431 8.00286 25.9561 8.336 25.6232C8.91 25.0492 9.792 24.9512 10.5368 25.2746C10.653 25.3264 10.772 25.3754 10.891 25.423C11.6456 25.7198 12.2 26.4142 12.2 27.2234C12.2 28.2048 12.9952 29 13.9766 29H16.0234C17.0048 29 17.8 28.2048 17.8 27.2234C17.8 26.4142 18.3544 25.7198 19.109 25.4216C19.228 25.3754 19.347 25.3264 19.4632 25.276C20.2066 24.9512 21.09 25.0506 21.6626 25.6232C21.8276 25.7882 22.0235 25.9192 22.2391 26.0085C22.4547 26.0978 22.6857 26.1438 22.9191 26.1438C23.1525 26.1438 23.3835 26.0978 23.5991 26.0085C23.8147 25.9192 24.0106 25.7882 24.1756 25.6232L25.6232 24.1756C25.9561 23.8425 26.1431 23.3908 26.1431 22.9198C26.1431 22.4488 25.9561 21.9971 25.6232 21.664C25.0492 21.09 24.9512 20.208 25.2746 19.4632C25.3264 19.347 25.3754 19.228 25.423 19.109C25.7198 18.3544 26.4142 17.8 27.2234 17.8C28.2048 17.8 29 17.0048 29 16.0234V13.978C29 12.9966 28.2048 12.2014 27.2234 12.2014C26.4142 12.2014 25.7198 11.647 25.4216 10.8924C25.3747 10.7735 25.3257 10.6554 25.2746 10.5382C24.9526 9.7948 25.0506 8.9114 25.6232 8.3374C25.9561 8.00426 26.1431 7.55256 26.1431 7.0816C26.1431 6.61063 25.9561 6.15894 25.6232 5.8258L24.1756 4.3782C23.8425 4.0453 23.3908 3.85829 22.9198 3.85829C22.4488 3.85829 21.9971 4.0453 21.664 4.3782C21.09 4.9522 20.208 5.0502 19.4632 4.7268C19.346 4.67529 19.2279 4.62582 19.109 4.5784C18.3544 4.2802 17.8 3.5844 17.8 2.7766Z" stroke="#41595F" stroke-width="2"/>
<path d="M21 15C21 16.5913 20.3679 18.1174 19.2426 19.2426C18.1174 20.3679 16.5913 21 15 21C13.4087 21 11.8826 20.3679 10.7574 19.2426C9.63214 18.1174 9 16.5913 9 15C9 13.4087 9.63214 11.8826 10.7574 10.7574C11.8826 9.63214 13.4087 9 15 9C16.5913 9 18.1174 9.63214 19.2426 10.7574C20.3679 11.8826 21 13.4087 21 15Z" stroke="#A3B5FF" stroke-width="3"/>
</svg>
