<svg width="29" height="25" viewBox="0 0 29 25" fill="none" xmlns="http://www.w3.org/2000/svg">
<path d="M5.67777 18.4993C4.53991 18.4993 3.5777 18.4815 2.62313 18.4993C1.52855 18.5223 0.920162 17.9888 0.915071 16.9114C0.898101 11.8056 0.898101 6.69981 0.915071 1.594C0.915071 0.363499 1.74492 0.0622559 2.81149 0.0622559C5.99087 0.0750204 9.17533 0.0622559 12.3522 0.0622559C16.9341 0.0622559 21.5161 0.0622559 26.098 0.0622559C28.053 0.0622559 28.3458 0.373712 28.3458 2.3854V16.2911C28.3458 18.1164 28.0047 18.4789 26.2202 18.484C22.0659 18.484 17.9091 18.5172 13.7471 18.4662C13.3318 18.4411 12.9167 18.5186 12.5382 18.6917C12.1597 18.8648 11.8292 19.1283 11.5758 19.4592C10.2572 21.0114 8.87241 22.5227 7.45709 23.9753C7.15927 24.2842 6.61198 24.3506 6.18433 24.5293C6.02141 24.1234 5.72868 23.7251 5.71341 23.3141C5.64468 21.7747 5.67777 20.2123 5.67777 18.4993ZM6.41088 23.5873L6.70107 23.7226C8.26148 22.007 9.78117 20.2532 11.4078 18.6168C11.8994 18.1408 12.5434 17.8549 13.2253 17.8101C17.5527 17.7386 21.8674 17.7513 26.1897 17.782C27.2079 17.782 27.6177 17.4552 27.6075 16.383C27.5668 11.6218 27.5745 6.8632 27.6075 2.10458C27.6075 1.17022 27.2715 0.812806 26.3348 0.815358C18.4979 0.83408 10.6594 0.83408 2.81913 0.815358C1.93328 0.815358 1.6151 1.17532 1.61764 2.03054C1.62952 6.87426 1.62952 11.7188 1.61764 16.5642C1.61764 17.4169 1.93074 17.8407 2.81913 17.782C3.53697 17.7437 4.27009 17.856 4.97775 17.759C6.23015 17.5854 6.50507 18.1547 6.4287 19.2754C6.34724 20.705 6.41088 22.15 6.41088 23.5873Z" fill="#41595F"/>
<path d="M6.40985 23.5873C6.40985 22.1449 6.34621 20.7 6.43021 19.2627C6.49385 18.142 6.23166 17.5727 4.97926 17.7463C4.2716 17.8433 3.53849 17.7309 2.82065 17.7692C1.93226 17.8152 1.61661 17.4042 1.61916 16.5515C1.63613 11.7061 1.63613 6.86152 1.61916 2.01781C1.61916 1.16259 1.9348 0.800073 2.82065 0.802626C10.6575 0.821347 18.4961 0.821347 26.3363 0.802626C27.2629 0.802626 27.6091 1.15748 27.6091 2.09184C27.5785 6.85046 27.5709 11.6091 27.6091 16.3702C27.6091 17.4425 27.2145 17.7769 26.1912 17.7692C21.8638 17.7386 17.5364 17.7258 13.2268 17.7973C12.5449 17.8422 11.9009 18.128 11.4093 18.604C9.78268 20.2507 8.263 22.0045 6.70259 23.7099L6.40985 23.5873Z" fill="white"/>
<path d="M7.11 13.1C9.03 13.1 9.94 12.14 9.94 11.02C9.94 8.45 5.79 9.42 5.79 7.93C5.79 7.4 6.23 6.98 7.31 6.98C7.92 6.98 8.61 7.16 9.24 7.53L9.65 6.52C9.04 6.12 8.16 5.9 7.32 5.9C5.4 5.9 4.5 6.86 4.5 7.99C4.5 10.59 8.66 9.6 8.66 11.11C8.66 11.63 8.2 12.02 7.11 12.02C6.25 12.02 5.36 11.7 4.8 11.25L4.35 12.26C4.93 12.76 6.02 13.1 7.11 13.1ZM18.8891 13L18.8791 6H17.8091L15.0791 10.64L12.2991 6H11.2291V13H12.4691V8.42L14.7691 12.2H15.3491L17.6491 8.36L17.6591 13H18.8891ZM22.9498 13.1C24.8698 13.1 25.7798 12.14 25.7798 11.02C25.7798 8.45 21.6298 9.42 21.6298 7.93C21.6298 7.4 22.0698 6.98 23.1498 6.98C23.7598 6.98 24.4498 7.16 25.0798 7.53L25.4898 6.52C24.8798 6.12 23.9998 5.9 23.1598 5.9C21.2398 5.9 20.3398 6.86 20.3398 7.99C20.3398 10.59 24.4998 9.6 24.4998 11.11C24.4998 11.63 24.0398 12.02 22.9498 12.02C22.0898 12.02 21.1998 11.7 20.6398 11.25L20.1898 12.26C20.7698 12.76 21.8598 13.1 22.9498 13.1Z" fill="#1D1D1D"/>
</svg>
