<svg width="118" height="109" viewBox="0 0 118 109" fill="none" xmlns="http://www.w3.org/2000/svg">
<path d="M45.0743 25.4032H54.0685V47.5792C55.7933 48.8115 57.3951 50.1668 58.9961 51.522C60.4742 50.1668 62.199 48.8116 63.9236 47.5792V25.4032H72.917C74.3951 25.4032 75.7504 24.5404 76.4894 23.186C77.1055 21.8308 76.9818 20.229 75.9969 19.1204L62.076 1.74902C60.5979 -0.0986306 57.5178 -0.0986306 56.039 1.74902L41.9942 19.1196C41.0085 20.3519 40.8856 21.9529 41.5018 23.1852C42.2408 24.5404 43.596 25.4032 45.0741 25.4032H45.0743Z" fill="#667799"/>
<path d="M27.9499 49.1805H25.6089V40.1872C25.6089 38.709 24.746 37.3538 23.3917 36.6148C22.0365 35.9986 20.4347 36.1224 19.3261 37.1072L1.9547 50.9054C1.09188 51.6445 0.476562 52.753 0.476562 53.9854C0.476562 55.2177 0.968989 56.3264 1.9547 57.0654L19.3261 70.9872C20.0652 71.6034 20.928 71.85 21.7899 71.85C22.4061 71.85 22.8985 71.7271 23.5146 71.4805C24.8699 70.8643 25.7318 69.5091 25.7318 67.9081V58.9148H28.0728C42.3642 58.9139 54.068 70.6177 54.068 85.031V104.003C54.068 106.714 56.2852 108.931 58.9956 108.931C61.706 108.931 63.9231 106.714 63.9231 104.003V85.031C63.9231 65.1958 47.7842 49.1798 27.9487 49.1798L27.9499 49.1805Z" fill="#41595F"/>
<path d="M116.041 50.9056L98.67 37.1075C97.4377 36.1218 95.8367 35.9989 94.6044 36.615C93.2492 37.2312 92.3873 38.5864 92.3873 40.1874V49.1808H90.0463C80.4367 49.1808 71.8129 52.877 65.4062 58.9131C67.3776 61.7465 68.9786 64.7035 70.3338 67.9065C75.0156 62.3627 82.1615 58.7895 90.0463 58.7895H92.3873V67.7829C92.3873 69.261 93.2501 70.6163 94.6044 71.3552C95.0969 71.6019 95.713 71.7248 96.3292 71.7248C97.192 71.7248 98.054 71.4781 98.793 70.8619L116.041 57.0655C116.904 56.3265 117.52 55.2179 117.52 53.9855C117.52 52.8769 117.027 51.6445 116.041 50.9055L116.041 50.9056Z" fill="#41595F"/>
</svg>
