<svg width="130" height="108" viewBox="0 0 130 108" fill="none" xmlns="http://www.w3.org/2000/svg">
<path d="M9 49C9 24.1472 29.1472 4 54 4C78.8528 4 99 24.1472 99 49C99 73.8528 78.8528 94 54 94C38.3979 94 24.6504 86.0599 16.5777 74" stroke="#41595F" stroke-width="7" stroke-linecap="round"/>
<rect x="46" y="58" width="84" height="50" fill="#FAFAFA"/>
<path d="M10.3454 64.8763C10.4432 63.4076 12.0405 62.5442 13.3229 63.2668L24.3881 69.5025C25.7593 70.2752 25.7419 72.2558 24.3572 73.0042L12.4478 79.4418C11.0631 80.1902 9.39655 79.1199 9.50117 77.5494L10.3454 64.8763Z" fill="#41595F"/>
<circle cx="53.5" cy="48.5" r="6" stroke="#A3B5FF" stroke-width="3"/>
<path d="M56 44.1172L73.5856 32.6391C74.9731 31.7335 76.832 32.1242 77.7376 33.5117C78.6432 34.8991 78.2525 36.758 76.8651 37.6636L59.2794 49.1417L56 44.1172Z" fill="#A3B5FF"/>
<path d="M45.8906 47.4688L36.5479 41.6808C35.1395 40.8082 34.705 38.959 35.5776 37.5506C36.4502 36.1421 38.2993 35.7077 39.7078 36.5802L49.0505 42.3682L45.8906 47.4688Z" fill="#A3B5FF"/>
<rect x="51.5" y="63.5" width="70" height="38" rx="5.5" stroke="#A3B5FF" stroke-width="5"/>
<circle cx="86.5" cy="82.5" r="9.5" fill="#A3B5FF"/>
</svg>
