<svg width="137" height="134" viewBox="0 0 137 134" fill="none" xmlns="http://www.w3.org/2000/svg">
<path d="M5.45154 107.693L5.47668 107.668L5.50123 107.643L40.2685 71.9749L47.8801 77.2813L51.1072 82.5823L16.0839 119.206L16.0597 119.232L16.0362 119.257C15.3282 120.033 14.4861 120.645 13.5639 121.063C12.6421 121.48 11.6549 121.698 10.6596 121.708C9.66433 121.718 8.67391 121.519 7.74555 121.119C6.81683 120.719 5.96489 120.125 5.24403 119.364C4.52287 118.602 3.94816 117.69 3.56043 116.677C3.17263 115.665 2.98155 114.576 3.0014 113.479C3.02125 112.381 3.2515 111.302 3.67509 110.306L0.914593 109.132L3.67509 110.306C4.09859 109.311 4.70488 108.424 5.45154 107.693Z" stroke="#999999" stroke-width="6"/>
<rect x="55.1959" y="4.23945" width="82.6962" height="43.4004" rx="8" transform="rotate(42.7765 55.1959 4.23945)" stroke="#999999" stroke-width="6"/>
<rect x="90.1328" y="122.633" width="44" height="9" rx="4.5" stroke="#999999" stroke-width="4"/>
<rect x="96.1328" y="107.633" width="32" height="9" rx="4.5" stroke="#999999" stroke-width="4"/>
</svg>
