<svg width="30" height="30" viewBox="0 0 30 30" fill="none" xmlns="http://www.w3.org/2000/svg">
<rect width="30" height="30" rx="4" fill="#D5E6FC"/>
<path d="M22.1136 11.4672L19.6677 9.00889C19.5061 8.84808 19.2874 8.75781 19.0594 8.75781C18.8314 8.75781 18.6127 8.84808 18.4511 9.00889L9.78023 17.6672L8.98856 21.0839C8.96125 21.2088 8.96219 21.3382 8.9913 21.4627C9.02042 21.5872 9.07697 21.7036 9.15684 21.8034C9.2367 21.9033 9.33786 21.984 9.45293 22.0397C9.56799 22.0955 9.69405 22.1248 9.82189 22.1256C9.88147 22.1316 9.94149 22.1316 10.0011 22.1256L13.4552 21.3339L22.1136 12.6839C22.2744 12.5223 22.3646 12.3035 22.3646 12.0756C22.3646 11.8476 22.2744 11.6288 22.1136 11.4672ZM13.0386 20.5839L9.80106 21.2631L10.5386 18.0881L17.0261 11.6256L19.5261 14.1256L13.0386 20.5839ZM20.0844 13.5214L17.5844 11.0214L19.0344 9.57972L21.4927 12.0797L20.0844 13.5214Z" fill="#1874EC"/>
</svg>
