<svg width="119" height="136" viewBox="0 0 119 136" fill="none" xmlns="http://www.w3.org/2000/svg">
<rect x="0.5" y="0.5" width="118" height="134" fill="#F9F9F9"/>
<rect x="1" y="1" width="117" height="133.865" fill="#F9F9F9" stroke="#C4C4C4" stroke-width="2"/>
<g opacity="0.25">
<rect x="28" y="114.232" width="62.1538" height="11.8305" rx="4" fill="#626262"/>
<path d="M33.0445 70.3326L34.1648 64.9043L38.1979 65.3763L42.007 69.3886L50.5213 65.3763H53.21L70.0146 77.413L85.0268 81.6613L87.0433 85.4375L77.8568 90.8658H59.0356L29.6836 85.4375L33.0445 70.3326Z" fill="#E9E7E9"/>
<path d="M29.6836 85.1549L35.9087 83.9434L44.8017 85.8818L59.2527 87.0934L64.1439 90.0011L72.5922 87.578L77.261 89.7587L87.0433 85.1549V89.2741L86.154 91.9395L77.0387 95.3318L69.702 95.8164L58.8081 96.0587H49.2481L35.2417 95.0895L30.1282 91.9395L29.6836 85.1549Z" fill="#C4C4C4"/>
</g>
<path d="M26.155 29.12C28.155 29.12 29.125 28.12 29.125 26.95C29.125 24.38 25.055 25.27 25.055 23.98C25.055 23.54 25.425 23.18 26.385 23.18C27.005 23.18 27.675 23.36 28.325 23.73L28.825 22.5C28.175 22.09 27.275 21.88 26.395 21.88C24.405 21.88 23.445 22.87 23.445 24.06C23.445 26.66 27.515 25.76 27.515 27.07C27.515 27.5 27.125 27.82 26.165 27.82C25.325 27.82 24.445 27.52 23.855 27.09L23.305 28.31C23.925 28.79 25.045 29.12 26.155 29.12ZM35.442 26.33C35.442 24.6 34.222 23.54 32.642 23.54C31.002 23.54 29.772 24.7 29.772 26.31C29.772 27.91 30.982 29.08 32.842 29.08C33.812 29.08 34.562 28.78 35.062 28.21L34.232 27.31C33.862 27.66 33.452 27.83 32.882 27.83C32.062 27.83 31.492 27.42 31.342 26.75H35.412C35.422 26.62 35.442 26.45 35.442 26.33ZM32.652 24.72C33.352 24.72 33.862 25.16 33.972 25.84H31.322C31.432 25.15 31.942 24.72 32.652 24.72ZM36.5305 29H38.0905V21.58H36.5305V29ZM44.8584 26.33C44.8584 24.6 43.6384 23.54 42.0584 23.54C40.4184 23.54 39.1884 24.7 39.1884 26.31C39.1884 27.91 40.3984 29.08 42.2584 29.08C43.2284 29.08 43.9784 28.78 44.4784 28.21L43.6484 27.31C43.2784 27.66 42.8684 27.83 42.2984 27.83C41.4784 27.83 40.9084 27.42 40.7584 26.75H44.8284C44.8384 26.62 44.8584 26.45 44.8584 26.33ZM42.0684 24.72C42.7684 24.72 43.2784 25.16 43.3884 25.84H40.7384C40.8484 25.15 41.3584 24.72 42.0684 24.72ZM48.547 29.08C49.677 29.08 50.567 28.58 50.957 27.72L49.747 27.06C49.457 27.58 49.027 27.8 48.537 27.8C47.747 27.8 47.127 27.25 47.127 26.31C47.127 25.37 47.747 24.82 48.537 24.82C49.027 24.82 49.457 25.05 49.747 25.56L50.957 24.91C50.567 24.03 49.677 23.54 48.547 23.54C46.797 23.54 45.547 24.69 45.547 26.31C45.547 27.93 46.797 29.08 48.547 29.08ZM55.0333 27.64C54.8633 27.77 54.6333 27.84 54.4033 27.84C53.9833 27.84 53.7333 27.59 53.7333 27.13V24.94H55.0733V23.74H53.7333V22.43H52.1733V23.74H51.3433V24.94H52.1733V27.15C52.1733 28.43 52.9133 29.08 54.1833 29.08C54.6633 29.08 55.1333 28.97 55.4533 28.74L55.0333 27.64ZM63.121 23.62V26.28C63.121 27.27 62.601 27.73 61.881 27.73C61.191 27.73 60.791 27.33 60.791 26.43V23.62H59.231V26.66C59.231 28.32 60.181 29.08 61.531 29.08C62.191 29.08 62.791 28.83 63.201 28.36V29H64.681V23.62H63.121ZM69.3563 23.54C68.6363 23.54 68.0563 23.77 67.6663 24.24V23.62H66.1763V30.94H67.7363V28.43C68.1363 28.87 68.6863 29.08 69.3563 29.08C70.8663 29.08 72.0363 28 72.0363 26.31C72.0363 24.62 70.8663 23.54 69.3563 23.54ZM69.0863 27.8C68.3063 27.8 67.7163 27.24 67.7163 26.31C67.7163 25.38 68.3063 24.82 69.0863 24.82C69.8663 24.82 70.4563 25.38 70.4563 26.31C70.4563 27.24 69.8663 27.8 69.0863 27.8ZM79.0626 27.64C78.8926 27.77 78.6626 27.84 78.4326 27.84C78.0126 27.84 77.7626 27.59 77.7626 27.13V24.94H79.1026V23.74H77.7626V22.43H76.2026V23.74H75.3726V24.94H76.2026V27.15C76.2026 28.43 76.9426 29.08 78.2126 29.08C78.6926 29.08 79.1626 28.97 79.4826 28.74L79.0626 27.64ZM82.8023 29.08C84.5123 29.08 85.7523 27.93 85.7523 26.31C85.7523 24.69 84.5123 23.54 82.8023 23.54C81.0923 23.54 79.8423 24.69 79.8423 26.31C79.8423 27.93 81.0923 29.08 82.8023 29.08ZM82.8023 27.8C82.0223 27.8 81.4223 27.24 81.4223 26.31C81.4223 25.38 82.0223 24.82 82.8023 24.82C83.5823 24.82 84.1723 25.38 84.1723 26.31C84.1723 27.24 83.5823 27.8 82.8023 27.8ZM92.667 24.85L94.247 23.05V22H89.347V23.3H92.327L90.887 24.93V26H91.627C92.547 26 92.937 26.33 92.937 26.86C92.937 27.43 92.437 27.76 91.627 27.76C90.897 27.76 90.157 27.53 89.627 27.13L88.997 28.37C89.677 28.85 90.687 29.12 91.667 29.12C93.657 29.12 94.567 28.04 94.567 26.86C94.567 25.83 93.927 25.05 92.667 24.85ZM31.2217 34.87C31.8017 34.87 32.1917 34.49 32.1917 33.97C32.1917 33.49 31.8017 33.13 31.2217 33.13C30.6417 33.13 30.2517 33.51 30.2517 34C30.2517 34.49 30.6417 34.87 31.2217 34.87ZM30.4417 41H32.0017V35.62H30.4417V41ZM36.5495 39.64C36.3795 39.77 36.1495 39.84 35.9195 39.84C35.4995 39.84 35.2495 39.59 35.2495 39.13V36.94H36.5895V35.74H35.2495V34.43H33.6895V35.74H32.8595V36.94H33.6895V39.15C33.6895 40.43 34.4295 41.08 35.6995 41.08C36.1795 41.08 36.6495 40.97 36.9695 40.74L36.5495 39.64ZM42.9992 38.33C42.9992 36.6 41.7792 35.54 40.1992 35.54C38.5592 35.54 37.3292 36.7 37.3292 38.31C37.3292 39.91 38.5392 41.08 40.3992 41.08C41.3692 41.08 42.1192 40.78 42.6192 40.21L41.7892 39.31C41.4192 39.66 41.0092 39.83 40.4392 39.83C39.6192 39.83 39.0492 39.42 38.8992 38.75H42.9692C42.9792 38.62 42.9992 38.45 42.9992 38.33ZM40.2092 36.72C40.9092 36.72 41.4192 37.16 41.5292 37.84H38.8792C38.9892 37.15 39.4992 36.72 40.2092 36.72ZM50.9778 35.54C50.1678 35.54 49.4678 35.87 49.0378 36.42C48.6578 35.83 48.0178 35.54 47.2678 35.54C46.5778 35.54 45.9778 35.78 45.5778 36.24V35.62H44.0878V41H45.6478V38.3C45.6478 37.34 46.1378 36.89 46.8278 36.89C47.4778 36.89 47.8478 37.29 47.8478 38.16V41H49.4078V38.3C49.4078 37.34 49.8978 36.89 50.5978 36.89C51.2278 36.89 51.6178 37.29 51.6178 38.16V41H53.1778V37.92C53.1778 36.28 52.2578 35.54 50.9778 35.54ZM56.4361 41.08C58.0461 41.08 58.9761 40.37 58.9761 39.37C58.9761 37.25 55.7261 38.14 55.7261 37.22C55.7261 36.94 56.0261 36.72 56.7261 36.72C57.2161 36.72 57.7461 36.82 58.2761 37.12L58.7961 36.01C58.2861 35.71 57.4661 35.54 56.7261 35.54C55.1561 35.54 54.2361 36.26 54.2361 37.28C54.2361 39.43 57.4861 38.53 57.4861 39.41C57.4861 39.71 57.2161 39.9 56.4961 39.9C55.8361 39.9 55.1061 39.69 54.6261 39.38L54.1061 40.5C54.6061 40.83 55.5261 41.08 56.4361 41.08ZM64.5806 35.51C64.5806 34.98 64.8306 34.73 65.2906 34.73C65.5306 34.73 65.7506 34.8 65.9206 34.92L66.3306 33.79C66.0406 33.59 65.5806 33.5 65.1406 33.5C63.8006 33.5 63.0606 34.29 63.0606 35.5V35.74H62.2306V36.94H63.0606V41H64.6206V36.94H65.9606V35.74H64.5806V35.51ZM69.0786 36.33V35.62H67.5886V41H69.1486V38.46C69.1486 37.43 69.7186 36.96 70.5786 36.96C70.6986 36.96 70.7986 36.97 70.9286 36.98V35.54C70.0986 35.54 69.4586 35.81 69.0786 36.33ZM74.4173 41.08C76.1273 41.08 77.3673 39.93 77.3673 38.31C77.3673 36.69 76.1273 35.54 74.4173 35.54C72.7073 35.54 71.4573 36.69 71.4573 38.31C71.4573 39.93 72.7073 41.08 74.4173 41.08ZM74.4173 39.8C73.6373 39.8 73.0373 39.24 73.0373 38.31C73.0373 37.38 73.6373 36.82 74.4173 36.82C75.1973 36.82 75.7873 37.38 75.7873 38.31C75.7873 39.24 75.1973 39.8 74.4173 39.8ZM85.35 35.54C84.54 35.54 83.84 35.87 83.41 36.42C83.03 35.83 82.39 35.54 81.64 35.54C80.95 35.54 80.35 35.78 79.95 36.24V35.62H78.46V41H80.02V38.3C80.02 37.34 80.51 36.89 81.2 36.89C81.85 36.89 82.22 37.29 82.22 38.16V41H83.78V38.3C83.78 37.34 84.27 36.89 84.97 36.89C85.6 36.89 85.99 37.29 85.99 38.16V41H87.55V37.92C87.55 36.28 86.63 35.54 85.35 35.54ZM34.4737 53H36.0937V46H34.4737V53ZM40.965 47.54C40.235 47.54 39.605 47.79 39.185 48.25V47.62H37.695V53H39.255V50.34C39.255 49.35 39.795 48.89 40.545 48.89C41.235 48.89 41.635 49.29 41.635 50.16V53H43.195V49.92C43.195 48.28 42.235 47.54 40.965 47.54ZM48.4014 47.62L46.8614 51.28L45.3714 47.62H43.7614L46.0214 53H47.6314L49.9014 47.62H48.4014ZM55.7115 50.33C55.7115 48.6 54.4915 47.54 52.9115 47.54C51.2715 47.54 50.0415 48.7 50.0415 50.31C50.0415 51.91 51.2515 53.08 53.1115 53.08C54.0815 53.08 54.8315 52.78 55.3315 52.21L54.5015 51.31C54.1315 51.66 53.7215 51.83 53.1515 51.83C52.3315 51.83 51.7615 51.42 51.6115 50.75H55.6815C55.6915 50.62 55.7115 50.45 55.7115 50.33ZM52.9215 48.72C53.6215 48.72 54.1315 49.16 54.2415 49.84H51.5915C51.7015 49.15 52.2115 48.72 52.9215 48.72ZM60.0701 47.54C59.3401 47.54 58.7101 47.79 58.2901 48.25V47.62H56.8001V53H58.3601V50.34C58.3601 49.35 58.9001 48.89 59.6501 48.89C60.3401 48.89 60.7401 49.29 60.7401 50.16V53H62.3001V49.92C62.3001 48.28 61.3401 47.54 60.0701 47.54ZM66.8141 51.64C66.6441 51.77 66.4141 51.84 66.1841 51.84C65.7641 51.84 65.5141 51.59 65.5141 51.13V48.94H66.8541V47.74H65.5141V46.43H63.9541V47.74H63.1241V48.94H63.9541V51.15C63.9541 52.43 64.6941 53.08 65.9641 53.08C66.4441 53.08 66.9141 52.97 67.2341 52.74L66.8141 51.64ZM70.5538 53.08C72.2638 53.08 73.5038 51.93 73.5038 50.31C73.5038 48.69 72.2638 47.54 70.5538 47.54C68.8438 47.54 67.5938 48.69 67.5938 50.31C67.5938 51.93 68.8438 53.08 70.5538 53.08ZM70.5538 51.8C69.7738 51.8 69.1738 51.24 69.1738 50.31C69.1738 49.38 69.7738 48.82 70.5538 48.82C71.3338 48.82 71.9238 49.38 71.9238 50.31C71.9238 51.24 71.3338 51.8 70.5538 51.8ZM76.0866 48.33V47.62H74.5966V53H76.1566V50.46C76.1566 49.43 76.7266 48.96 77.5866 48.96C77.7066 48.96 77.8066 48.97 77.9366 48.98V47.54C77.1066 47.54 76.4666 47.81 76.0866 48.33ZM82.9397 47.62L81.4197 51.27L79.9097 47.62H78.2997L80.6297 53.04L80.6097 53.09C80.3997 53.57 80.1597 53.76 79.7297 53.76C79.4197 53.76 79.0897 53.63 78.8497 53.42L78.2797 54.53C78.6297 54.84 79.2297 55.02 79.7797 55.02C80.7497 55.02 81.4897 54.63 82.0097 53.33L84.4397 47.62H82.9397Z" fill="black"/>
<line x1="53.5779" y1="81.406" x2="64.9928" y2="81.4041" stroke="#4B4B4B" stroke-width="3" stroke-linecap="round"/>
<line x1="1.5" y1="-1.5" x2="13.071" y2="-1.5" transform="matrix(0.000387749 1 -1 0.000396427 58.1562 74.4688)" stroke="#4B4B4B" stroke-width="3" stroke-linecap="round"/>
<rect x="47" y="69.332" width="24.5537" height="24.8412" rx="12.2769" stroke="#4B4B4B" stroke-width="2"/>
<rect x="0.5" y="0.5" width="118" height="134" stroke="#C4C4C4"/>
</svg>
