<svg width="91" height="91" viewBox="0 0 91 91" fill="none" xmlns="http://www.w3.org/2000/svg">
  <circle cx="45.1855" cy="45.3359" r="44.5" fill="white" stroke="#F2F0F0"/>
  <path d="M44.9863 25.2734C46.934 25.2734 48.8019 26.0472 50.1791 27.4244C51.5564 28.8016 52.3301 30.6695 52.3301 32.6172V34.0859H37.6426V32.6172C37.6426 30.6695 38.4163 28.8016 39.7935 27.4244C41.1707 26.0472 43.0386 25.2734 44.9863 25.2734ZM55.2676 34.0859V32.6172C55.2676 29.8904 54.1844 27.2754 52.2563 25.3472C50.3282 23.4191 47.7131 22.3359 44.9863 22.3359C42.2596 22.3359 39.6445 23.4191 37.7164 25.3472C35.7883 27.2754 34.7051 29.8904 34.7051 32.6172V34.0859H24.4238V63.4609C24.4238 65.0191 25.0428 66.5134 26.1446 67.6152C27.2464 68.717 28.7407 69.3359 30.2988 69.3359H59.6738C61.232 69.3359 62.7263 68.717 63.8281 67.6152C64.9299 66.5134 65.5488 65.0191 65.5488 63.4609V34.0859H55.2676Z" fill="black"/>
</svg>
