<svg width="9" height="9" viewBox="0 0 9 9" fill="none" xmlns="http://www.w3.org/2000/svg">
    <circle cx="4.5" cy="4.5" r="4.5" fill="#667799"/>
    <path d="M2.61388 2.61388C2.64 2.58769 2.67104 2.56691 2.70521 2.55273C2.73938 2.53855 2.77601 2.53125 2.813 2.53125C2.85 2.53125 2.88663 2.53855 2.9208 2.55273C2.95497 2.56691 2.986 2.58769 3.01213 2.61388L4.5005 4.10282L5.98888 2.61388C6.01503 2.58773 6.04607 2.56699 6.08024 2.55283C6.1144 2.53868 6.15102 2.5314 6.188 2.5314C6.22498 2.5314 6.2616 2.53868 6.29577 2.55283C6.32993 2.56699 6.36098 2.58773 6.38713 2.61388C6.41328 2.64003 6.43402 2.67107 6.44817 2.70524C6.46232 2.7394 6.46961 2.77602 6.46961 2.813C6.46961 2.84998 6.46232 2.8866 6.44817 2.92077C6.43402 2.95493 6.41328 2.98598 6.38713 3.01213L4.89819 4.5005L6.38713 5.98888C6.41328 6.01503 6.43402 6.04607 6.44817 6.08024C6.46232 6.1144 6.46961 6.15102 6.46961 6.188C6.46961 6.22498 6.46232 6.2616 6.44817 6.29577C6.43402 6.32993 6.41328 6.36098 6.38713 6.38713C6.36098 6.41328 6.32993 6.43402 6.29577 6.44817C6.2616 6.46232 6.22498 6.46961 6.188 6.46961C6.15102 6.46961 6.1144 6.46232 6.08024 6.44817C6.04607 6.43402 6.01503 6.41328 5.98888 6.38713L4.5005 4.89819L3.01213 6.38713C2.98598 6.41328 2.95493 6.43402 2.92077 6.44817C2.8866 6.46232 2.84998 6.46961 2.813 6.46961C2.77602 6.46961 2.7394 6.46232 2.70524 6.44817C2.67107 6.43402 2.64003 6.41328 2.61388 6.38713C2.58773 6.36098 2.56699 6.32993 2.55283 6.29577C2.53868 6.2616 2.5314 6.22498 2.5314 6.188C2.5314 6.15102 2.53868 6.1144 2.55283 6.08024C2.56699 6.04607 2.58773 6.01503 2.61388 5.98888L4.10282 4.5005L2.61388 3.01213C2.58769 2.986 2.56691 2.95497 2.55273 2.9208C2.53855 2.88663 2.53125 2.85 2.53125 2.813C2.53125 2.77601 2.53855 2.73938 2.55273 2.70521C2.56691 2.67104 2.58769 2.64 2.61388 2.61388Z"
          fill="white"/>
</svg>
