<svg width="16" height="16" viewBox="0 0 16 16" fill="none" xmlns="http://www.w3.org/2000/svg">
<path d="M15.8492 10.7326L15.8992 10.8115C16.0984 11.1701 15.9927 11.6158 15.6673 11.8494L15.5884 11.8994L8.38851 15.8993C8.17713 16.0167 7.92581 16.0315 7.70438 15.9434L7.61153 15.8993L0.411674 11.8994C0.0253961 11.6847 -0.113772 11.1978 0.100852 10.8115C0.300068 10.4529 0.734324 10.3073 1.10452 10.4601L1.18867 10.5007L7.99939 14.2841L14.8115 10.5007C15.1701 10.3015 15.6157 10.4072 15.8493 10.7326L15.8492 10.7326ZM15.8492 7.53265L15.8992 7.61155C16.0984 7.97015 15.9927 8.41578 15.6673 8.64938L15.5884 8.69938L8.38851 12.6994C8.17713 12.8168 7.92581 12.8315 7.70438 12.7434L7.61153 12.6994L0.411674 8.69938C0.0253961 8.48476 -0.113772 7.99781 0.100852 7.61155C0.300068 7.25296 0.734324 7.10733 1.10452 7.2601L1.18867 7.30072L7.99939 11.0841L14.8115 7.30072C15.1701 7.10151 15.6157 7.2072 15.8493 7.53264L15.8492 7.53265ZM7.61164 0.100696C7.85326 -0.0335655 8.147 -0.0335655 8.38862 0.100696L15.5885 4.10067C16.1371 4.40547 16.1371 5.19452 15.5885 5.49932L8.38862 9.49929C8.147 9.63355 7.85326 9.63355 7.61164 9.49929L0.411786 5.49932C-0.13686 5.19452 -0.13686 4.40547 0.411786 4.10067L7.61164 0.100696ZM8.00015 1.7152L2.4474 4.80004L7.99929 7.88402L13.552 4.80004L8.00015 1.7152Z" fill="#848484"/>
</svg>
