<svg width="68" height="70" viewBox="0 0 68 70" fill="none" xmlns="http://www.w3.org/2000/svg">
<path d="M7.63412 54V46.3H10.7691C11.5905 46.3 12.3091 46.465 12.9251 46.795C13.5485 47.1177 14.0325 47.5687 14.3771 48.148C14.7218 48.7273 14.8941 49.3947 14.8941 50.15C14.8941 50.9053 14.7218 51.5727 14.3771 52.152C14.0325 52.7313 13.5485 53.186 12.9251 53.516C12.3091 53.8387 11.5905 54 10.7691 54H7.63412ZM8.44812 53.296H10.7251C11.4071 53.296 11.9975 53.164 12.4961 52.9C13.0021 52.6287 13.3945 52.2583 13.6731 51.789C13.9518 51.3123 14.0911 50.766 14.0911 50.15C14.0911 49.5267 13.9518 48.9803 13.6731 48.511C13.3945 48.0417 13.0021 47.675 12.4961 47.411C11.9975 47.1397 11.4071 47.004 10.7251 47.004H8.44812V53.296ZM18.57 54.055C17.9687 54.055 17.4407 53.9303 16.986 53.681C16.5313 53.4243 16.1757 53.076 15.919 52.636C15.6623 52.1887 15.534 51.679 15.534 51.107C15.534 50.535 15.655 50.029 15.897 49.589C16.1463 49.149 16.4837 48.8043 16.909 48.555C17.3417 48.2983 17.8257 48.17 18.361 48.17C18.9037 48.17 19.384 48.2947 19.802 48.544C20.2273 48.786 20.561 49.1307 20.803 49.578C21.045 50.018 21.166 50.5277 21.166 51.107C21.166 51.1437 21.1623 51.184 21.155 51.228C21.155 51.2647 21.155 51.305 21.155 51.349H16.128V50.766H20.737L20.429 50.997C20.429 50.579 20.3373 50.2087 20.154 49.886C19.978 49.556 19.736 49.2993 19.428 49.116C19.12 48.9327 18.7643 48.841 18.361 48.841C17.965 48.841 17.6093 48.9327 17.294 49.116C16.9787 49.2993 16.733 49.556 16.557 49.886C16.381 50.216 16.293 50.5937 16.293 51.019V51.14C16.293 51.58 16.3883 51.9687 16.579 52.306C16.777 52.636 17.0483 52.8963 17.393 53.087C17.745 53.2703 18.1447 53.362 18.592 53.362C18.944 53.362 19.2703 53.2997 19.571 53.175C19.879 53.0503 20.143 52.8597 20.363 52.603L20.803 53.109C20.5463 53.417 20.2237 53.6517 19.835 53.813C19.4537 53.9743 19.032 54.055 18.57 54.055ZM25.7735 54V52.724L25.7405 52.515V50.381C25.7405 49.8897 25.6012 49.512 25.3225 49.248C25.0512 48.984 24.6442 48.852 24.1015 48.852C23.7275 48.852 23.3719 48.9143 23.0345 49.039C22.6972 49.1637 22.4112 49.3287 22.1765 49.534L21.8245 48.951C22.1179 48.7017 22.4699 48.511 22.8805 48.379C23.2912 48.2397 23.7239 48.17 24.1785 48.17C24.9265 48.17 25.5022 48.357 25.9055 48.731C26.3162 49.0977 26.5215 49.6587 26.5215 50.414V54H25.7735ZM23.7825 54.055C23.3499 54.055 22.9722 53.9853 22.6495 53.846C22.3342 53.6993 22.0922 53.5013 21.9235 53.252C21.7549 52.9953 21.6705 52.702 21.6705 52.372C21.6705 52.0713 21.7402 51.8 21.8795 51.558C22.0262 51.3087 22.2609 51.1107 22.5835 50.964C22.9135 50.81 23.3535 50.733 23.9035 50.733H25.8945V51.316H23.9255C23.3682 51.316 22.9795 51.415 22.7595 51.613C22.5469 51.811 22.4405 52.0567 22.4405 52.35C22.4405 52.68 22.5689 52.944 22.8255 53.142C23.0822 53.34 23.4415 53.439 23.9035 53.439C24.3435 53.439 24.7212 53.34 25.0365 53.142C25.3592 52.9367 25.5939 52.6433 25.7405 52.262L25.9165 52.801C25.7699 53.1823 25.5132 53.4867 25.1465 53.714C24.7872 53.9413 24.3325 54.055 23.7825 54.055ZM30.5018 54.055C29.9518 54.055 29.4568 53.9303 29.0168 53.681C28.5842 53.4317 28.2432 53.087 27.9938 52.647C27.7445 52.1997 27.6198 51.6863 27.6198 51.107C27.6198 50.5203 27.7445 50.007 27.9938 49.567C28.2432 49.127 28.5842 48.786 29.0168 48.544C29.4568 48.2947 29.9518 48.17 30.5018 48.17C31.0078 48.17 31.4588 48.2837 31.8548 48.511C32.2582 48.7383 32.5772 49.072 32.8118 49.512C33.0538 49.9447 33.1748 50.4763 33.1748 51.107C33.1748 51.7303 33.0575 52.262 32.8228 52.702C32.5882 53.142 32.2692 53.4793 31.8658 53.714C31.4698 53.9413 31.0152 54.055 30.5018 54.055ZM30.5568 53.362C30.9675 53.362 31.3342 53.2703 31.6568 53.087C31.9868 52.8963 32.2435 52.6323 32.4268 52.295C32.6175 51.9503 32.7128 51.5543 32.7128 51.107C32.7128 50.6523 32.6175 50.2563 32.4268 49.919C32.2435 49.5817 31.9868 49.3213 31.6568 49.138C31.3342 48.9473 30.9675 48.852 30.5568 48.852C30.1535 48.852 29.7905 48.9473 29.4678 49.138C29.1452 49.3213 28.8885 49.5817 28.6978 49.919C28.5072 50.2563 28.4118 50.6523 28.4118 51.107C28.4118 51.5543 28.5072 51.9503 28.6978 52.295C28.8885 52.6323 29.1452 52.8963 29.4678 53.087C29.7905 53.2703 30.1535 53.362 30.5568 53.362ZM32.7348 54V52.262L32.8118 51.096L32.7018 49.93V45.838H33.4828V54H32.7348ZM36.7689 54.055C36.2922 54.055 35.8412 53.989 35.4159 53.857C34.9906 53.7177 34.6569 53.5453 34.4149 53.34L34.7669 52.724C35.0016 52.9 35.3022 53.054 35.6689 53.186C36.0356 53.3107 36.4206 53.373 36.8239 53.373C37.3739 53.373 37.7699 53.2887 38.0119 53.12C38.2539 52.944 38.3749 52.713 38.3749 52.427C38.3749 52.2143 38.3052 52.0493 38.1659 51.932C38.0339 51.8073 37.8579 51.7157 37.6379 51.657C37.4179 51.591 37.1722 51.536 36.9009 51.492C36.6296 51.448 36.3582 51.3967 36.0869 51.338C35.8229 51.2793 35.5809 51.195 35.3609 51.085C35.1409 50.9677 34.9612 50.81 34.8219 50.612C34.6899 50.414 34.6239 50.15 34.6239 49.82C34.6239 49.5047 34.7119 49.2223 34.8879 48.973C35.0639 48.7237 35.3206 48.5293 35.6579 48.39C36.0026 48.2433 36.4206 48.17 36.9119 48.17C37.2859 48.17 37.6599 48.2213 38.0339 48.324C38.4079 48.4193 38.7159 48.5477 38.9579 48.709L38.6169 49.336C38.3602 49.16 38.0852 49.0353 37.7919 48.962C37.4986 48.8813 37.2052 48.841 36.9119 48.841C36.3912 48.841 36.0062 48.9327 35.7569 49.116C35.5149 49.292 35.3939 49.5193 35.3939 49.798C35.3939 50.018 35.4599 50.1903 35.5919 50.315C35.7312 50.4397 35.9109 50.5387 36.1309 50.612C36.3582 50.678 36.6039 50.733 36.8679 50.777C37.1392 50.821 37.4069 50.876 37.6709 50.942C37.9422 51.0007 38.1879 51.085 38.4079 51.195C38.6352 51.2977 38.8149 51.448 38.9469 51.646C39.0862 51.8367 39.1559 52.0897 39.1559 52.405C39.1559 52.7423 39.0606 53.0357 38.8699 53.285C38.6866 53.527 38.4152 53.7177 38.0559 53.857C37.7039 53.989 37.2749 54.055 36.7689 54.055ZM41.975 54.055C41.4323 54.055 41.0143 53.9083 40.721 53.615C40.4277 53.3217 40.281 52.9073 40.281 52.372V46.949H41.062V52.328C41.062 52.6653 41.1463 52.9257 41.315 53.109C41.491 53.2923 41.7403 53.384 42.063 53.384C42.4077 53.384 42.6937 53.285 42.921 53.087L43.196 53.648C43.042 53.7873 42.855 53.89 42.635 53.956C42.4223 54.022 42.2023 54.055 41.975 54.055ZM39.247 48.874V48.225H42.822V48.874H39.247ZM46.3277 54.055C45.7703 54.055 45.268 53.9303 44.8207 53.681C44.3807 53.4243 44.0323 53.076 43.7757 52.636C43.519 52.1887 43.3907 51.679 43.3907 51.107C43.3907 50.5277 43.519 50.018 43.7757 49.578C44.0323 49.138 44.3807 48.7933 44.8207 48.544C45.2607 48.2947 45.763 48.17 46.3277 48.17C46.8997 48.17 47.4057 48.2947 47.8457 48.544C48.293 48.7933 48.6413 49.138 48.8907 49.578C49.1473 50.018 49.2757 50.5277 49.2757 51.107C49.2757 51.679 49.1473 52.1887 48.8907 52.636C48.6413 53.076 48.293 53.4243 47.8457 53.681C47.3983 53.9303 46.8923 54.055 46.3277 54.055ZM46.3277 53.362C46.7457 53.362 47.116 53.2703 47.4387 53.087C47.7613 52.8963 48.0143 52.6323 48.1977 52.295C48.3883 51.9503 48.4837 51.5543 48.4837 51.107C48.4837 50.6523 48.3883 50.2563 48.1977 49.919C48.0143 49.5817 47.7613 49.3213 47.4387 49.138C47.116 48.9473 46.7493 48.852 46.3387 48.852C45.928 48.852 45.5613 48.9473 45.2387 49.138C44.916 49.3213 44.6593 49.5817 44.4687 49.919C44.278 50.2563 44.1827 50.6523 44.1827 51.107C44.1827 51.5543 44.278 51.9503 44.4687 52.295C44.6593 52.6323 44.916 52.8963 45.2387 53.087C45.5613 53.2703 45.9243 53.362 46.3277 53.362ZM52.8281 54.055C52.2561 54.055 51.7428 53.9303 51.2881 53.681C50.8408 53.4243 50.4888 53.076 50.2321 52.636C49.9755 52.1887 49.8471 51.679 49.8471 51.107C49.8471 50.5277 49.9755 50.018 50.2321 49.578C50.4888 49.138 50.8408 48.7933 51.2881 48.544C51.7428 48.2947 52.2561 48.17 52.8281 48.17C53.3195 48.17 53.7631 48.2653 54.1591 48.456C54.5551 48.6467 54.8668 48.9327 55.0941 49.314L54.5111 49.71C54.3131 49.4167 54.0675 49.2003 53.7741 49.061C53.4808 48.9217 53.1618 48.852 52.8171 48.852C52.4065 48.852 52.0361 48.9473 51.7061 49.138C51.3761 49.3213 51.1158 49.5817 50.9251 49.919C50.7345 50.2563 50.6391 50.6523 50.6391 51.107C50.6391 51.5617 50.7345 51.9577 50.9251 52.295C51.1158 52.6323 51.3761 52.8963 51.7061 53.087C52.0361 53.2703 52.4065 53.362 52.8171 53.362C53.1618 53.362 53.4808 53.2923 53.7741 53.153C54.0675 53.0137 54.3131 52.801 54.5111 52.515L55.0941 52.911C54.8668 53.285 54.5551 53.571 54.1591 53.769C53.7631 53.9597 53.3195 54.055 52.8281 54.055ZM56.7184 52.504L56.7404 51.503L60.3374 48.225H61.2944L58.7534 50.656L58.3134 51.03L56.7184 52.504ZM56.1024 54V45.838H56.8834V54H56.1024ZM60.5794 54L58.1704 50.997L58.6764 50.392L61.5364 54H60.5794ZM11.516 67.066C10.9293 67.066 10.3867 66.9707 9.888 66.78C9.39667 66.582 8.96767 66.307 8.601 65.955C8.24167 65.603 7.95933 65.1887 7.754 64.712C7.556 64.2353 7.457 63.7147 7.457 63.15C7.457 62.5853 7.556 62.0647 7.754 61.588C7.95933 61.1113 8.24533 60.697 8.612 60.345C8.97867 59.993 9.40767 59.7217 9.899 59.531C10.3977 59.333 10.9403 59.234 11.527 59.234C12.1137 59.234 12.649 59.3257 13.133 59.509C13.6243 59.6923 14.0423 59.971 14.387 60.345L13.881 60.862C13.5583 60.5393 13.2027 60.3083 12.814 60.169C12.4253 60.0297 12.0073 59.96 11.56 59.96C11.0833 59.96 10.6433 60.0407 10.24 60.202C9.844 60.356 9.49567 60.5797 9.195 60.873C8.90167 61.159 8.67067 61.4963 8.502 61.885C8.34067 62.2663 8.26 62.688 8.26 63.15C8.26 63.6047 8.34067 64.0263 8.502 64.415C8.67067 64.8037 8.90167 65.1447 9.195 65.438C9.49567 65.724 9.844 65.9477 10.24 66.109C10.6433 66.263 11.0797 66.34 11.549 66.34C11.989 66.34 12.4033 66.274 12.792 66.142C13.188 66.01 13.551 65.7863 13.881 65.471L14.343 66.087C13.9763 66.4097 13.5473 66.6553 13.056 66.824C12.5647 66.9853 12.0513 67.066 11.516 67.066ZM13.562 65.988V63.15H14.343V66.087L13.562 65.988ZM18.4288 67.055C17.9375 67.055 17.5085 66.9633 17.1418 66.78C16.7751 66.5967 16.4891 66.3217 16.2838 65.955C16.0858 65.5883 15.9868 65.13 15.9868 64.58V61.225H16.7678V64.492C16.7678 65.108 16.9181 65.5737 17.2188 65.889C17.5268 66.197 17.9558 66.351 18.5058 66.351C18.9091 66.351 19.2575 66.2703 19.5508 66.109C19.8515 65.9403 20.0788 65.6983 20.2328 65.383C20.3941 65.0677 20.4748 64.69 20.4748 64.25V61.225H21.2558V67H20.5078V65.416L20.6288 65.702C20.4455 66.1273 20.1595 66.461 19.7708 66.703C19.3895 66.9377 18.9421 67.055 18.4288 67.055ZM26.6114 67V65.724L26.5784 65.515V63.381C26.5784 62.8897 26.4391 62.512 26.1604 62.248C25.8891 61.984 25.4821 61.852 24.9394 61.852C24.5654 61.852 24.2098 61.9143 23.8724 62.039C23.5351 62.1637 23.2491 62.3287 23.0144 62.534L22.6624 61.951C22.9558 61.7017 23.3078 61.511 23.7184 61.379C24.1291 61.2397 24.5618 61.17 25.0164 61.17C25.7644 61.17 26.3401 61.357 26.7434 61.731C27.1541 62.0977 27.3594 62.6587 27.3594 63.414V67H26.6114ZM24.6204 67.055C24.1878 67.055 23.8101 66.9853 23.4874 66.846C23.1721 66.6993 22.9301 66.5013 22.7614 66.252C22.5928 65.9953 22.5084 65.702 22.5084 65.372C22.5084 65.0713 22.5781 64.8 22.7174 64.558C22.8641 64.3087 23.0988 64.1107 23.4214 63.964C23.7514 63.81 24.1914 63.733 24.7414 63.733H26.7324V64.316H24.7634C24.2061 64.316 23.8174 64.415 23.5974 64.613C23.3848 64.811 23.2784 65.0567 23.2784 65.35C23.2784 65.68 23.4068 65.944 23.6634 66.142C23.9201 66.34 24.2794 66.439 24.7414 66.439C25.1814 66.439 25.5591 66.34 25.8744 66.142C26.1971 65.9367 26.4318 65.6433 26.5784 65.262L26.7544 65.801C26.6078 66.1823 26.3511 66.4867 25.9844 66.714C25.6251 66.9413 25.1704 67.055 24.6204 67.055ZM29.0407 67V61.225H29.7887V62.798L29.7117 62.523C29.8731 62.083 30.1444 61.7493 30.5257 61.522C30.9071 61.2873 31.3801 61.17 31.9447 61.17V61.929C31.9154 61.929 31.8861 61.929 31.8567 61.929C31.8274 61.9217 31.7981 61.918 31.7687 61.918C31.1601 61.918 30.6834 62.105 30.3387 62.479C29.9941 62.8457 29.8217 63.37 29.8217 64.052V67H29.0407ZM36.1191 67V65.724L36.0861 65.515V63.381C36.0861 62.8897 35.9468 62.512 35.6681 62.248C35.3968 61.984 34.9898 61.852 34.4471 61.852C34.0731 61.852 33.7175 61.9143 33.3801 62.039C33.0428 62.1637 32.7568 62.3287 32.5221 62.534L32.1701 61.951C32.4635 61.7017 32.8155 61.511 33.2261 61.379C33.6368 61.2397 34.0695 61.17 34.5241 61.17C35.2721 61.17 35.8478 61.357 36.2511 61.731C36.6618 62.0977 36.8671 62.6587 36.8671 63.414V67H36.1191ZM34.1281 67.055C33.6955 67.055 33.3178 66.9853 32.9951 66.846C32.6798 66.6993 32.4378 66.5013 32.2691 66.252C32.1005 65.9953 32.0161 65.702 32.0161 65.372C32.0161 65.0713 32.0858 64.8 32.2251 64.558C32.3718 64.3087 32.6065 64.1107 32.9291 63.964C33.2591 63.81 33.6991 63.733 34.2491 63.733H36.2401V64.316H34.2711C33.7138 64.316 33.3251 64.415 33.1051 64.613C32.8925 64.811 32.7861 65.0567 32.7861 65.35C32.7861 65.68 32.9145 65.944 33.1711 66.142C33.4278 66.34 33.7871 66.439 34.2491 66.439C34.6891 66.439 35.0668 66.34 35.3821 66.142C35.7048 65.9367 35.9395 65.6433 36.0861 65.262L36.2621 65.801C36.1155 66.1823 35.8588 66.4867 35.4921 66.714C35.1328 66.9413 34.6781 67.055 34.1281 67.055ZM41.4964 61.17C41.9657 61.17 42.3764 61.2617 42.7284 61.445C43.0877 61.621 43.3664 61.8923 43.5644 62.259C43.7697 62.6257 43.8724 63.0877 43.8724 63.645V67H43.0914V63.722C43.0914 63.1133 42.9374 62.655 42.6294 62.347C42.3287 62.0317 41.9034 61.874 41.3534 61.874C40.9427 61.874 40.5834 61.9583 40.2754 62.127C39.9747 62.2883 39.7401 62.5267 39.5714 62.842C39.4101 63.15 39.3294 63.524 39.3294 63.964V67H38.5484V61.225H39.2964V62.809L39.1754 62.512C39.3587 62.094 39.6521 61.7677 40.0554 61.533C40.4587 61.291 40.9391 61.17 41.4964 61.17ZM47.368 67.055C46.8253 67.055 46.4073 66.9083 46.114 66.615C45.8207 66.3217 45.674 65.9073 45.674 65.372V59.949H46.455V65.328C46.455 65.6653 46.5393 65.9257 46.708 66.109C46.884 66.2923 47.1333 66.384 47.456 66.384C47.8007 66.384 48.0867 66.285 48.314 66.087L48.589 66.648C48.435 66.7873 48.248 66.89 48.028 66.956C47.8153 67.022 47.5953 67.055 47.368 67.055ZM44.64 61.874V61.225H48.215V61.874H44.64ZM51.8197 67.055C51.2183 67.055 50.6903 66.9303 50.2357 66.681C49.781 66.4243 49.4253 66.076 49.1687 65.636C48.912 65.1887 48.7837 64.679 48.7837 64.107C48.7837 63.535 48.9047 63.029 49.1467 62.589C49.396 62.149 49.7333 61.8043 50.1587 61.555C50.5913 61.2983 51.0753 61.17 51.6107 61.17C52.1533 61.17 52.6337 61.2947 53.0517 61.544C53.477 61.786 53.8107 62.1307 54.0527 62.578C54.2947 63.018 54.4157 63.5277 54.4157 64.107C54.4157 64.1437 54.412 64.184 54.4047 64.228C54.4047 64.2647 54.4047 64.305 54.4047 64.349H49.3777V63.766H53.9867L53.6787 63.997C53.6787 63.579 53.587 63.2087 53.4037 62.886C53.2277 62.556 52.9857 62.2993 52.6777 62.116C52.3697 61.9327 52.014 61.841 51.6107 61.841C51.2147 61.841 50.859 61.9327 50.5437 62.116C50.2283 62.2993 49.9827 62.556 49.8067 62.886C49.6307 63.216 49.5427 63.5937 49.5427 64.019V64.14C49.5427 64.58 49.638 64.9687 49.8287 65.306C50.0267 65.636 50.298 65.8963 50.6427 66.087C50.9947 66.2703 51.3943 66.362 51.8417 66.362C52.1937 66.362 52.52 66.2997 52.8207 66.175C53.1287 66.0503 53.3927 65.8597 53.6127 65.603L54.0527 66.109C53.796 66.417 53.4733 66.6517 53.0847 66.813C52.7033 66.9743 52.2817 67.055 51.8197 67.055ZM58.0183 67.055C57.417 67.055 56.889 66.9303 56.4343 66.681C55.9797 66.4243 55.624 66.076 55.3673 65.636C55.1107 65.1887 54.9823 64.679 54.9823 64.107C54.9823 63.535 55.1033 63.029 55.3453 62.589C55.5947 62.149 55.932 61.8043 56.3573 61.555C56.79 61.2983 57.274 61.17 57.8093 61.17C58.352 61.17 58.8323 61.2947 59.2503 61.544C59.6757 61.786 60.0093 62.1307 60.2513 62.578C60.4933 63.018 60.6143 63.5277 60.6143 64.107C60.6143 64.1437 60.6107 64.184 60.6033 64.228C60.6033 64.2647 60.6033 64.305 60.6033 64.349H55.5763V63.766H60.1853L59.8773 63.997C59.8773 63.579 59.7857 63.2087 59.6023 62.886C59.4263 62.556 59.1843 62.2993 58.8763 62.116C58.5683 61.9327 58.2127 61.841 57.8093 61.841C57.4133 61.841 57.0577 61.9327 56.7423 62.116C56.427 62.2993 56.1813 62.556 56.0053 62.886C55.8293 63.216 55.7413 63.5937 55.7413 64.019V64.14C55.7413 64.58 55.8367 64.9687 56.0273 65.306C56.2253 65.636 56.4967 65.8963 56.8413 66.087C57.1933 66.2703 57.593 66.362 58.0403 66.362C58.3923 66.362 58.7187 66.2997 59.0193 66.175C59.3273 66.0503 59.5913 65.8597 59.8113 65.603L60.2513 66.109C59.9947 66.417 59.672 66.6517 59.2833 66.813C58.902 66.9743 58.4803 67.055 58.0183 67.055Z" fill="black"/>
<path d="M50.0419 22.6535C50.6617 22.0478 51.1542 21.3243 51.4905 20.5255C51.8268 19.7268 52 18.8689 52 18.0022C52 17.1356 51.8268 16.2777 51.4905 15.479C51.1542 14.6802 50.6617 13.9567 50.0419 13.351M50.0419 22.6535L42.0536 3.36903C42.9205 3.35877 43.7807 3.52195 44.5836 3.84897C45.3865 4.176 46.1159 4.66027 46.7289 5.2733C47.342 5.88634 47.8262 6.61576 48.1533 7.41867C48.4803 8.22159 48.6435 9.08179 48.6332 9.94869M50.0419 22.6535L48.6107 24.0531L50.0419 22.6535ZM50.0419 13.351L48.6085 11.9514L48.6332 9.94869M50.0419 13.351L49.5177 13.8875M50.0419 13.351L38.6512 1.95814M48.6332 9.94869L47.8833 9.93981M48.6332 9.94869L47.8833 9.93942C47.8923 9.17263 47.7479 8.41178 47.4587 7.70158C47.1694 6.99126 46.7409 6.34596 46.1986 5.80363C45.6563 5.2613 45.011 4.83288 44.3007 4.54357C43.5904 4.25426 42.8294 4.1099 42.0624 4.11898L42.062 4.11898L40.0593 4.14148L39.7388 4.14508L39.5147 3.91593L38.115 2.48478L38.0179 2.38547M47.8833 9.93981L38.6512 1.96039V1.95814M47.8833 9.93981L47.8585 11.9421L47.8546 12.2635L48.0845 12.488L49.5177 13.8875M47.8833 9.93981L49.5177 13.8875M38.0179 2.38547C38.0506 2.41735 38.0829 2.44963 38.1148 2.48231L38.6489 1.96039L38.6512 1.95814M38.0179 2.38547L37.9012 2.26617V1.96039V1.95814H38.6512M38.0179 2.38547C37.5024 1.8825 36.8968 1.48049 36.2323 1.20073C35.5257 0.903246 34.7667 0.75 34 0.75C33.2333 0.75 32.4743 0.903246 31.7677 1.20073C31.0611 1.4982 30.4211 1.9339 29.8853 2.48221C29.8853 2.48224 29.8852 2.48228 29.8852 2.48231L28.4862 3.91733L28.2616 4.1477L27.9399 4.14372L25.9376 4.11898C25.9375 4.11898 25.9375 4.11897 25.9374 4.11897C25.9373 4.11897 25.9372 4.11897 25.9372 4.11897C25.1704 4.10995 24.4095 4.25431 23.6993 4.54357C22.989 4.83288 22.3437 5.2613 21.8014 5.80363C21.259 6.34596 20.8306 6.99126 20.5413 7.70158C20.252 8.4119 20.1076 9.17289 20.1167 9.93981L20.1167 9.94026L20.1392 11.943L20.1428 12.2635L19.9137 12.4876L18.4825 13.8872L18.4823 13.8875C17.9339 14.4233 17.4982 15.0633 17.2007 15.77C16.9032 16.4766 16.75 17.2356 16.75 18.0022C16.75 18.7689 16.9032 19.5279 17.2007 20.2345C17.4982 20.9412 17.9339 21.5812 18.4823 22.117L19.9155 23.5165L20.1454 23.741L20.1415 24.0624L20.1167 26.0647C20.1167 26.0647 20.1167 26.0648 20.1167 26.0648C20.1167 26.0649 20.1167 26.065 20.1167 26.0651C20.1077 26.8319 20.2521 27.5927 20.5413 28.3029C20.8306 29.0132 21.259 29.6585 21.8014 30.2009C22.3437 30.7432 22.989 31.1716 23.6993 31.4609C24.4096 31.7502 25.1706 31.8946 25.9376 31.8855L25.938 31.8855L27.9407 31.863L28.2612 31.8594L28.4853 32.0886L29.885 33.5197L29.8852 33.5199C30.421 34.0683 31.0611 34.504 31.7677 34.8015C32.4743 35.099 33.2333 35.2522 34 35.2522C34.7667 35.2522 35.5257 35.099 36.2323 34.8015C36.9388 34.5041 37.5788 34.0684 38.1146 33.5201C38.1147 33.5201 38.1147 33.52 38.1148 33.5199L39.5142 32.0867L39.7388 31.8568L40.0601 31.8608L42.0624 31.8855C42.0626 31.8855 42.0627 31.8855 42.0628 31.8855C42.8296 31.8946 43.5905 31.7502 44.3007 31.4609C45.011 31.1716 45.6563 30.7432 46.1986 30.2009C46.7409 29.6585 47.1694 29.0132 47.4587 28.3029C47.748 27.5926 47.8924 26.8316 47.8833 26.0647L47.8833 26.0642L47.8608 24.0615L47.8572 23.741L48.0863 23.5169L49.5175 22.1173L49.5177 22.117C50.0661 21.5812 50.5018 20.9412 50.7993 20.2345C51.0968 19.5279 51.25 18.7689 51.25 18.0022C51.25 17.2356 51.0968 16.4766 50.7993 15.77C50.5018 15.0634 50.0662 14.4234 49.5179 13.8876C49.5178 13.8876 49.5178 13.8875 49.5177 13.8875M40.0509 32.6107L38.6512 34.0441C38.0455 34.664 37.322 35.1565 36.5233 35.4928C35.7246 35.829 34.8666 36.0022 34 36.0022C33.1334 36.0022 32.2754 35.829 31.4767 35.4928C30.678 35.1565 29.9545 34.664 29.3488 34.0441L40.0509 32.6107ZM27.9491 32.613L25.9464 32.6355C25.0795 32.6457 24.2193 32.4826 23.4164 32.1555C22.6135 31.8285 21.8841 31.3442 21.2711 30.7312C20.658 30.1182 20.1738 29.3887 19.8467 28.5858C19.5197 27.7829 19.3565 26.9227 19.3668 26.0558L27.9491 32.613ZM17.9581 13.351L19.3893 11.9514L19.3668 9.94869C19.3565 9.08179 19.5197 8.22159 19.8467 7.41867C20.1738 6.61576 20.658 5.88634 21.2711 5.2733C21.8841 4.66027 22.6135 4.176 23.4164 3.84897C24.2193 3.52195 25.0795 3.35877 25.9464 3.36903L17.9581 13.351Z" stroke="#2F323C" stroke-width="1.5"/>
<path d="M32.7675 21.1441L32.7681 21.1435L39.5188 14.3928C39.5894 14.3222 39.6291 14.2264 39.6291 14.1265C39.6291 14.0267 39.5894 13.9309 39.5188 13.8603C39.4482 13.7897 39.3524 13.75 39.2526 13.75C39.1527 13.75 39.0569 13.7897 38.9863 13.8603L33.0323 19.8165L32.5017 20.3473L31.9713 19.8164L29.3928 17.2356L32.7675 21.1441ZM32.7675 21.1441C32.7326 21.1791 32.6912 21.2068 32.6456 21.2257C32.6001 21.2446 32.5512 21.2543 32.5019 21.2543C32.4525 21.2543 32.4037 21.2446 32.3581 21.2257C32.3125 21.2068 32.2711 21.1791 32.2363 21.1441L32.2356 21.1435M32.7675 21.1441L32.2356 21.1435M32.2356 21.1435L28.8603 17.7681C28.8253 17.7332 28.7976 17.6917 28.7787 17.646C28.7597 17.6003 28.75 17.5513 28.75 17.5019C28.75 17.4524 28.7597 17.4035 28.7787 17.3578L28.0858 17.0708M32.2356 21.1435L28.0858 17.0708M28.0858 17.0708L28.7787 17.3578C28.7976 17.3121 28.8253 17.2706 28.8603 17.2356C28.8953 17.2007 28.9368 17.1729 28.9824 17.154M28.0858 17.0708L28.9824 17.154M28.9824 17.154C29.0281 17.1351 29.0771 17.1253 29.1265 17.1253M28.9824 17.154L29.1265 17.1253M29.1265 17.1253C29.176 17.1253 29.225 17.1351 29.2706 17.154M29.1265 17.1253L29.2706 17.154M29.2706 17.154C29.3162 17.1729 29.3576 17.2005 29.3926 17.2354L29.2706 17.154Z" stroke="#2F323C" stroke-width="1.5"/>
</svg>
