<svg width="22" height="22" viewBox="0 0 22 22" fill="none" xmlns="http://www.w3.org/2000/svg">
<circle cx="11" cy="11" r="10.5" fill="white" stroke="#999999"/>
<path d="M9.16797 9.16797H10.0846V14.668H9.16797V9.16797Z" fill="#999999"/>
<path d="M11.918 9.16797H12.8346V14.668H11.918V9.16797Z" fill="#999999"/>
<path d="M5.5 6.41797V7.33464H6.41667V16.5013C6.41667 16.7444 6.51324 16.9776 6.68515 17.1495C6.85706 17.3214 7.09022 17.418 7.33333 17.418H14.6667C14.9098 17.418 15.1429 17.3214 15.3148 17.1495C15.4868 16.9776 15.5833 16.7444 15.5833 16.5013V7.33464H16.5V6.41797H5.5ZM7.33333 16.5013V7.33464H14.6667V16.5013H7.33333Z" fill="#999999"/>
<path d="M9.16797 4.58594H12.8346V5.5026H9.16797V4.58594Z" fill="#999999"/>
</svg>
