<svg width="7" height="12" viewBox="0 0 7 12" fill="none" xmlns="http://www.w3.org/2000/svg">
<path d="M0 8.38371C0.124639 9.81257 1.27418 10.8266 3.02418 10.9577V12H3.90255V10.9577C5.81424 10.8043 7 9.72514 7 8.12914C7 6.76629 6.20248 5.97771 4.51059 5.53371L3.90255 5.37343V2.11457C4.84745 2.20886 5.48496 2.72657 5.64581 3.49971H6.88378C6.74398 2.12829 5.58686 1.14429 3.90255 1.03543V0H3.02418V1.05686C1.39124 1.254 0.270332 2.31857 0.270332 3.762C0.270332 5.00829 1.08385 5.89029 2.51131 6.26229L3.02502 6.40114V9.85629C2.05739 9.71057 1.39124 9.17057 1.23039 8.38371H0ZM2.85575 5.09571C1.97738 4.87029 1.5083 4.38857 1.5083 3.71057C1.5083 2.90143 2.10118 2.304 3.02418 2.14371V5.13943L2.85575 5.09657V5.09571ZM4.19562 6.70029C5.27948 6.97714 5.75529 7.43657 5.75529 8.21657C5.75529 9.15686 5.05967 9.78343 3.90255 9.87857V6.62571L4.19562 6.69943V6.70029Z" fill="black"/>
</svg>
