<svg width="19" height="19" viewBox="0 0 19 19" fill="none" xmlns="http://www.w3.org/2000/svg">
<path d="M5.81018 10.7992C5.79937 10.7738 5.7951 10.7462 5.79777 10.7187C5.80044 10.6913 5.80996 10.665 5.82545 10.6422C5.84095 10.6194 5.86192 10.6009 5.88645 10.5883C5.91098 10.5758 5.93827 10.5696 5.96582 10.5703L7.28227 10.5854C7.43367 10.5871 7.57957 10.5286 7.68785 10.4228C7.79614 10.3169 7.85794 10.1724 7.85968 10.021C7.86838 9.25945 7.89167 7.7227 8.84129 6.26393C9.5666 5.14858 10.8768 4.0148 13.3006 3.35167C12.165 4.50343 11.5412 5.82662 11.2048 6.98752C10.9989 7.70109 10.8733 8.43541 10.8303 9.17684C10.8135 9.48034 10.8131 9.78453 10.829 10.0881L10.8288 10.1029L10.8299 10.1086L10.8299 10.1098L11.3991 10.0615L10.8299 10.1121C10.8424 10.2531 10.907 10.3845 11.011 10.4807C11.115 10.5768 11.251 10.6309 11.3926 10.6324L12.7091 10.6474C12.8324 10.6488 12.9086 10.7753 12.8594 10.8798L9.45861 15.3903C9.44698 15.4056 9.43613 15.4215 9.42609 15.4379C9.41089 15.4625 9.38957 15.4828 9.36419 15.4968C9.33882 15.5108 9.31027 15.5179 9.2813 15.5176C9.25234 15.5173 9.22395 15.5095 9.1989 15.4949C9.17386 15.4804 9.153 15.4596 9.13837 15.4346C9.12872 15.4179 9.11823 15.4018 9.10695 15.3863L5.81018 10.7992ZM11.9606 9.49694C11.9614 9.4193 11.9658 9.33371 11.9703 9.24241C11.9988 8.74715 12.082 8.06295 12.3019 7.30496C12.7394 5.79579 13.7121 4.01411 15.87 2.84664C15.9865 2.7835 16.0774 2.68181 16.1271 2.55901C16.1768 2.43621 16.1823 2.29993 16.1426 2.17353C16.1029 2.04713 16.0204 1.93849 15.9094 1.86622C15.7983 1.79394 15.6656 1.76254 15.5339 1.77739C11.292 2.25873 9.04467 3.85682 7.88464 5.64092C6.9664 7.0521 6.77611 8.51385 6.73244 9.43716L5.97887 9.42854C5.74375 9.42574 5.51223 9.48647 5.30875 9.6043C5.10527 9.72214 4.93736 9.89271 4.82275 10.098C4.70814 10.3033 4.65108 10.5358 4.65759 10.7708C4.66409 11.0059 4.73392 11.2348 4.85971 11.4335L8.16434 16.0321C8.27986 16.2219 8.44181 16.3793 8.63493 16.4893C8.82805 16.5993 9.04598 16.6584 9.26823 16.6609C9.49047 16.6635 9.7097 16.6094 9.90528 16.5038C10.1009 16.3983 10.2664 16.2447 10.3862 16.0575L13.7951 11.5357C13.9254 11.3399 14.0005 11.1127 14.0124 10.8778C14.0242 10.643 13.9725 10.4093 13.8626 10.2014C13.7527 9.99352 13.5888 9.81915 13.388 9.69669C13.1873 9.57424 12.9572 9.50823 12.7221 9.50565L11.9606 9.49694Z" fill="#626262"/>
<path d="M9 15.498L6 10.998L8 8.99805L9 5.49805L13.8593 3.53636C11.2273 5.64644 10.7325 6.47464 10.5 9.49805L12.5 10.998L9 15.498Z" fill="#626262"/>
<path d="M14 3.49414L13.8593 3.53636M13.8593 3.53636L9 5.49805L8 8.99805L6 10.998L9 15.498L12.5 10.998L10.5 9.49805C10.7325 6.47464 11.2273 5.64644 13.8593 3.53636Z" stroke="#626262"/>
</svg>
