<svg width="18" height="14" viewBox="0 0 18 14" fill="none" xmlns="http://www.w3.org/2000/svg">
<path d="M16.7041 5.96179C17.0986 6.47778 17.0986 7.17436 16.7041 7.68952C15.4616 9.31155 12.4805 12.6513 9.00013 12.6513C5.51971 12.6513 2.53864 9.31155 1.29611 7.68952C1.10419 7.44245 1 7.13851 1 6.82566C1 6.5128 1.10419 6.20886 1.29611 5.96179C2.53864 4.33976 5.51971 1 9.00013 1C12.4805 1 15.4616 4.33976 16.7041 5.96179V5.96179Z" stroke="white" stroke-width="2" stroke-linecap="round" stroke-linejoin="round"/>
<path d="M9.00062 9.32936C10.3795 9.32936 11.4973 8.21154 11.4973 6.83265C11.4973 5.45375 10.3795 4.33594 9.00062 4.33594C7.62172 4.33594 6.50391 5.45375 6.50391 6.83265C6.50391 8.21154 7.62172 9.32936 9.00062 9.32936Z" stroke="white" stroke-width="2" stroke-linecap="round" stroke-linejoin="round"/>
</svg>
