<svg width="15" height="11" viewBox="0 0 15 11" fill="none" xmlns="http://www.w3.org/2000/svg">
<path d="M13.5656 4.83271C13.8813 5.23129 13.8813 5.76936 13.5656 6.16729C12.5714 7.42021 10.1861 10 7.40128 10C4.61644 10 2.23114 7.42021 1.23693 6.16729C1.08336 5.97644 1 5.74166 1 5.5C1 5.25834 1.08336 5.02356 1.23693 4.83271C2.23114 3.57979 4.61644 1 7.40128 1C10.1861 1 12.5714 3.57979 13.5656 4.83271V4.83271Z" stroke="#6F88EA" stroke-linecap="round" stroke-linejoin="round"/>
<path d="M7.40105 7.42941C8.50437 7.42941 9.39879 6.56596 9.39879 5.50084C9.39879 4.43572 8.50437 3.57227 7.40105 3.57227C6.29774 3.57227 5.40332 4.43572 5.40332 5.50084C5.40332 6.56596 6.29774 7.42941 7.40105 7.42941Z" stroke="#6F88EA" stroke-linecap="round" stroke-linejoin="round"/>
</svg>
