<svg width="40" height="39" viewBox="0 0 40 39" fill="none" xmlns="http://www.w3.org/2000/svg">
<path d="M38.087 19.5C38.087 29.4201 29.9179 37.5 19.7935 37.5C9.66907 37.5 1.5 29.4201 1.5 19.5C1.5 9.57992 9.66907 1.5 19.7935 1.5C29.9179 1.5 38.087 9.57992 38.087 19.5Z" stroke="black" stroke-width="3"/>
<path d="M24.0583 9.50003V9.49998L24.0509 9.50006L23.9458 9.50123L23.9458 9.50114L23.9365 9.50142L23.8108 9.50515L23.8108 9.50512L23.8051 9.50536C22.1758 9.57237 20.6738 10.2369 19.5469 11.3179C18.3579 10.1764 16.7526 9.5 15.0267 9.5C11.4222 9.5 8.5 12.4221 8.5 16.0267H8.49996L8.50004 16.0331L8.50191 16.1782L8.50188 16.1782L8.50201 16.1836C8.53792 17.6999 9.09462 19.1307 10.0615 20.2627L10.0615 20.2627L10.0651 20.2668L10.1359 20.3479L19.1605 31.3177L19.5466 31.787L19.9328 31.3177L28.9522 20.355C30.0025 19.1703 30.5939 17.6425 30.5939 16.0266C30.5939 12.462 27.7363 9.56487 24.1869 9.50057L24.1869 9.50052L24.1797 9.50049L24.0583 9.50003ZM27.4235 19.058L19.5462 28.6326L11.6695 19.0574L11.6629 19.0493L11.6559 19.0415C10.9393 18.2413 10.5042 17.1853 10.5042 16.0267C10.5042 13.5289 12.5289 11.5044 15.0265 11.5044C16.8019 11.5044 18.3394 12.5275 19.0796 14.0184L19.3336 14.5301L19.5445 14.3878L19.7563 14.5324L20.0125 14.0201L20.0205 14.0041C20.7499 12.5481 22.2407 11.542 23.9685 11.5053L24.0667 11.5045C24.0673 11.5045 24.0679 11.5045 24.0685 11.5045C26.5654 11.5055 28.5889 13.5297 28.5889 16.0268C28.5889 17.1857 28.1538 18.2416 27.4371 19.0422L27.4301 19.0499L27.4235 19.058Z" fill="black" stroke="black"/>
</svg>
