<svg width="22" height="22" viewBox="0 0 22 22" fill="none" xmlns="http://www.w3.org/2000/svg">
  <rect x="0.1875" y="0.335938" width="21" height="21" rx="4" fill="#D5E6FC"/>
  <g clip-path="url(#clip0_115_9473)">
    <path d="M14.9396 7.66417L13.2276 5.94333C13.1144 5.83077 12.9613 5.76758 12.8017 5.76758C12.6421 5.76758 12.489 5.83077 12.3759 5.94333L6.30632 12.0042L5.75215 14.3958C5.73303 14.4833 5.73369 14.5739 5.75407 14.661C5.77445 14.7481 5.81404 14.8296 5.86994 14.8995C5.92585 14.9694 5.99666 15.0259 6.0772 15.0649C6.15775 15.1039 6.24599 15.1245 6.33548 15.125C6.37718 15.1292 6.4192 15.1292 6.4609 15.125L8.87882 14.5708L14.9396 8.51583C15.0522 8.4027 15.1154 8.24959 15.1154 8.09C15.1154 7.9304 15.0522 7.7773 14.9396 7.66417ZM8.58715 14.0458L6.3209 14.5212L6.83715 12.2987L11.3784 7.775L13.1284 9.525L8.58715 14.0458ZM13.5192 9.10208L11.7692 7.35208L12.7842 6.34292L14.5051 8.09292L13.5192 9.10208Z" fill="#1874EC"/>
  </g>
  <defs>
    <clipPath id="clip0_115_9473">
      <rect width="10.5" height="10.5" fill="white" transform="translate(5.0625 5.23633)"/>
    </clipPath>
  </defs>
</svg>
