<svg width="18" height="18" viewBox="0 0 18 18" fill="none" xmlns="http://www.w3.org/2000/svg">
<circle cx="9" cy="9" r="9" fill="#667799"/>
<path fill-rule="evenodd" clip-rule="evenodd" d="M7.85742 14C7.85742 14.5523 8.30514 15 8.85742 15C9.40971 15 9.85742 14.5523 9.85742 14V9.83783H14C14.5523 9.83783 15 9.39012 15 8.83783C15 8.28555 14.5523 7.83783 14 7.83783H9.85742V4C9.85742 3.44771 9.40971 3 8.85742 3C8.30514 3 7.85742 3.44771 7.85742 4V7.83783H4C3.44772 7.83783 3 8.28555 3 8.83783C3 9.39012 3.44772 9.83783 4 9.83783H7.85742V14Z" fill="white"/>
</svg>
