<svg width="13" height="13" viewBox="0 0 13 13" fill="none" xmlns="http://www.w3.org/2000/svg">
<path fill-rule="evenodd" clip-rule="evenodd" d="M5.04804 11.3335C5.04804 11.8858 5.49576 12.3335 6.04804 12.3335C6.60033 12.3335 7.04804 11.8858 7.04804 11.3335V7.02519H11.3335C11.8858 7.02519 12.3335 6.57747 12.3335 6.02519C12.3335 5.4729 11.8858 5.02519 11.3335 5.02519H7.04804V1C7.04804 0.447715 6.60033 0 6.04804 0C5.49576 0 5.04804 0.447715 5.04804 1V5.02519H1C0.447715 5.02519 0 5.4729 0 6.02519C0 6.57747 0.447715 7.02519 1 7.02519H5.04804V11.3335Z" fill="#667799"/>
</svg>
