<svg width="209" height="199" viewBox="0 0 209 199" fill="none" xmlns="http://www.w3.org/2000/svg">
<circle cx="83" cy="83" r="80" stroke="#92A6B5" stroke-width="6"/>
<circle cx="90" cy="93" r="79" fill="#769DD3" fill-opacity="0.2"/>
<path d="M172.231 138.808C172.231 132.359 169.939 126.843 165.355 122.26C160.772 117.676 155.256 115.385 148.808 115.385C142.359 115.385 136.843 117.676 132.26 122.26C127.676 126.843 125.385 132.359 125.385 138.808C125.385 145.256 127.676 150.772 132.26 155.355C136.843 159.939 142.359 162.231 148.808 162.231C155.256 162.231 160.772 159.939 165.355 155.355C169.939 150.772 172.231 145.256 172.231 138.808ZM199 182.308C199 184.12 198.338 185.689 197.013 187.013C195.689 188.338 194.12 189 192.308 189C190.425 189 188.857 188.338 187.602 187.013L169.669 169.132C163.43 173.454 156.476 175.615 148.808 175.615C143.823 175.615 139.057 174.648 134.508 172.714C129.959 170.779 126.038 168.165 122.744 164.871C119.45 161.577 116.836 157.656 114.902 153.107C112.967 148.559 112 143.792 112 138.808C112 133.823 112.967 129.057 114.902 124.508C116.836 119.959 119.45 116.038 122.744 112.744C126.038 109.45 129.959 106.836 134.508 104.902C139.057 102.967 143.823 102 148.808 102C153.792 102 158.559 102.967 163.107 104.902C167.656 106.836 171.577 109.45 174.871 112.744C178.165 116.038 180.779 119.959 182.714 124.508C184.648 129.057 185.615 133.823 185.615 138.808C185.615 146.476 183.454 153.43 179.132 159.669L197.066 177.602C198.355 178.892 199 180.46 199 182.308Z" fill="#62727D"/>
<ellipse cx="59" cy="66" rx="7" ry="8" fill="#92A6B5"/>
<ellipse cx="105" cy="66" rx="7" ry="8" fill="#92A6B5"/>
<line x1="55.4276" y1="102.52" x2="122.521" y2="90.5724" stroke="#92A6B5" stroke-width="6" stroke-linecap="round"/>
</svg>
