<svg width="92" height="84" viewBox="0 0 92 84" fill="none" xmlns="http://www.w3.org/2000/svg">
  <path d="M45.8776 28.7273C45.2649 28.7255 44.6582 28.603 44.0904 28.3664C43.2534 28.0055 42.2887 28.0875 41.6467 28.6945M45.8776 28.7273L52.7088 39.375C52.7088 40.8187 51.4582 42 49.9329 42H47.1586C45.6349 42 44.3843 40.8187 44.3843 39.375V36.4711C42.4346 36.2645 40.5529 35.6204 38.8724 34.5844C38.6659 34.4573 38.486 34.2895 38.343 34.0906C38.2 33.8918 38.0967 33.6658 38.0391 33.4257C37.9815 33.1857 37.9707 32.9363 38.0073 32.692C38.044 32.4476 38.1274 32.2131 38.2526 32.002M45.8776 28.7273H51.5636C52.367 28.7273 53.0202 28.1039 53.0202 27.3492C53.0109 27.0388 52.9021 26.7403 52.7106 26.4999C52.5191 26.2596 52.2557 26.091 51.9613 26.0203M45.8776 28.7273L51.9613 26.0203M41.6467 28.6945L38.612 31.5656C38.4717 31.6918 38.3505 31.8389 38.2526 32.002M41.6467 28.6945L41.9902 29.0579M41.6467 28.6945L41.9903 29.0577L41.9902 29.0579M38.2526 32.002L38.6814 32.2593C38.6816 32.259 38.6818 32.2587 38.6819 32.2584M38.2526 32.002L38.6826 32.2572C38.6824 32.2576 38.6822 32.258 38.6819 32.2584M38.6819 32.2584C38.5902 32.4132 38.5289 32.5857 38.5018 32.7661C38.4747 32.947 38.4827 33.1316 38.5253 33.3091C38.5678 33.4865 38.6441 33.6529 38.7489 33.7987C38.8537 33.9444 38.9849 34.0665 39.1345 34.1586L39.1347 34.1588C40.7521 35.1558 42.5622 35.7752 44.4369 35.9739L44.8843 36.0213V36.4711V39.375C44.8843 40.5167 45.8843 41.5 47.1586 41.5H49.9329C51.2089 41.5 52.2088 40.5165 52.2088 39.375V36.4875V36.0405L52.653 35.9906C57.6703 35.4272 61.4099 31.1549 60.7581 26.2172C60.2867 22.6833 57.3828 19.8167 53.6857 18.8082L45.0251 16.4641C44.6237 16.3659 44.2672 16.1357 44.009 15.8116C43.7494 15.4858 43.6031 15.0829 43.5906 14.6658L43.5904 14.6583V14.6508C43.5904 13.5954 44.4926 12.7727 45.547 12.7727H51.233H51.2338C51.9147 12.7737 52.5887 12.9095 53.2189 13.1721L53.225 13.1746L53.225 13.1746C53.9188 13.4744 54.6606 13.3829 55.1268 12.9421L58.1614 10.0712L58.1684 10.0645L58.1685 10.0646C58.2669 9.97495 58.3522 9.87017 58.421 9.75358L58.4226 9.75095C58.5155 9.59585 58.5779 9.42273 58.6057 9.24156C58.6335 9.06038 58.626 8.87533 58.5839 8.69727C58.5417 8.51923 58.4657 8.35226 58.361 8.20585C58.2563 8.05948 58.125 7.93675 57.9753 7.84414C56.3574 6.84733 54.5471 6.22808 52.6721 6.0294L52.2248 5.98201V5.53219V2.625C52.2248 1.48316 51.2261 0.5 49.9505 0.5H47.1761C45.9005 0.5 44.9018 1.48316 44.9018 2.625V5.5125V5.95943L44.4577 6.00937C39.4463 6.57282 35.6991 10.8455 36.351 15.783C36.8207 19.316 39.7332 22.1829 43.4244 23.1917L43.424 23.1916L43.2934 23.6742L43.4252 23.1919L52.0855 25.5359M38.6819 32.2584C38.7543 32.138 38.8435 32.0299 38.9463 31.9374L38.9464 31.9376L38.9556 31.9288L41.9902 29.0579M41.9902 29.0579C42.4564 28.6171 43.1966 28.5255 43.8924 28.8255L43.8923 28.8256L43.8981 28.8279C44.5261 29.0896 45.1976 29.2253 45.8761 29.2273H45.8776H51.5636C52.618 29.2273 53.5202 28.4045 53.5202 27.3492V27.3417L53.52 27.3342C53.5075 26.917 53.3612 26.5142 53.1016 26.1884C52.8434 25.8643 52.4869 25.6341 52.0855 25.5359M52.0855 25.5359C52.0831 25.5353 52.0806 25.5347 52.0781 25.5341L51.9613 26.0203M52.0855 25.5359L52.0919 25.5377L51.9613 26.0203M89.9434 54.1948L89.947 54.198C90.4495 54.6572 90.8503 55.2239 91.1181 55.8589C91.3861 56.4945 91.5161 57.183 91.4984 57.8763C91.4808 58.5696 91.3159 59.2501 91.016 59.8701C90.716 60.4902 90.2885 61.0343 89.764 61.4652L89.7639 61.4653L65.6099 81.3166C63.8845 82.7327 61.7433 83.5018 59.5388 83.5H59.5384H2.5555C2.01474 83.5 1.49333 83.2795 1.10675 82.8824C0.719731 82.4848 0.5 81.9428 0.5 81.375V65.625C0.5 65.0572 0.719731 64.5152 1.10675 64.1176C1.49333 63.7205 2.01474 63.5 2.5555 63.5H11.4039H11.5849L11.7239 63.3842L19.1509 57.1974L19.1509 57.1973C22.409 54.4821 26.4745 53.0012 30.666 53C30.6661 53 30.6661 53 30.6661 53H56.221C57.438 53 58.6081 53.4959 59.4737 54.3833C60.3397 55.2712 60.8297 56.4786 60.832 57.7411L60.832 57.742C60.833 58.0137 60.8108 58.285 60.7655 58.5526L60.7655 58.5526L60.7646 58.5581C60.4015 60.8639 58.2696 62.5 55.9479 62.5H43.4435C42.6287 62.5 41.8502 62.8326 41.2782 63.4201C40.7068 64.0071 40.388 64.8005 40.388 65.625C40.388 66.4495 40.7068 67.2429 41.2782 67.8299C41.8502 68.4174 42.6287 68.75 43.4435 68.75H62.332C64.7724 68.7569 67.1397 67.9051 69.0402 66.339L83.7976 54.2153L83.7992 54.214C85.6147 52.71 88.2685 52.6347 89.9434 54.1948ZM18.8308 56.8132L11.4039 63H2.5555C1.87774 63 1.22774 63.2766 0.748489 63.7688C0.26924 64.2611 0 64.9288 0 65.625V81.375C0 82.0712 0.26924 82.7389 0.748489 83.2312C1.22774 83.7234 1.87774 84 2.5555 84H59.5384L18.8308 56.8132Z" stroke="black"/>
</svg>
