<svg width="160" height="211" viewBox="0 0 160 211" fill="none" xmlns="http://www.w3.org/2000/svg">
  <rect x="0.5" y="0.5" width="159" height="210" fill="white" stroke="#C4C4C4"/>
  <path d="M32.6797 84.6636L34.9062 74L42.9219 74.9273L50.4922 82.8091L67.4141 74.9273H72.7578L106.156 98.5727L135.992 106.918L140 114.336L121.742 125H84.3359L26 114.336L32.6797 84.6636Z" fill="#F5F5F5"/>
  <path d="M26 114.3L38.4806 112L56.3101 115.68L85.2829 117.98L95.0891 123.5L112.027 118.9L121.388 123.04L141 114.3V122.12L139.217 127.18L120.942 133.62L106.233 134.54L84.3915 135H65.2248L37.1434 133.16L26.8915 127.18L26 114.3Z" fill="#ECECEC"/>
  <path d="M6 10C6 7.79086 7.79086 6 10 6H50C52.2091 6 54 7.79086 54 10V20C54 22.2091 52.2091 24 50 24H10C7.79086 24 6 22.2091 6 20V10Z" fill="#E4E5E8"/>
  <path d="M53.9043 69.1465C55.9668 69.1465 57.209 68.1445 57.209 66.5684V66.5625C57.209 65.2441 56.4414 64.5293 54.6836 64.166L53.7695 63.9785C52.75 63.7676 52.2871 63.416 52.2871 62.8184V62.8125C52.2871 62.1387 52.9023 61.6758 53.8926 61.6699C54.8418 61.6699 55.4922 62.1094 55.5918 62.8477L55.6035 62.918H57.0508L57.0449 62.8184C56.957 61.3711 55.75 60.3984 53.9043 60.3984C52.082 60.3984 50.7754 61.4062 50.7695 62.8945V62.9004C50.7695 64.1602 51.5898 64.9336 53.2539 65.2793L54.1621 65.4668C55.252 65.6953 55.6914 66.0352 55.6914 66.668V66.6738C55.6914 67.4004 55.0234 67.875 53.957 67.875C52.8965 67.875 52.1523 67.4238 52.041 66.6973L52.0293 66.627H50.582L50.5879 66.7148C50.6875 68.2324 51.9648 69.1465 53.9043 69.1465ZM60.9238 69.123C62.5469 69.123 63.4609 68.1621 63.6543 67.207L63.6719 67.1426H62.3066L62.2949 67.1836C62.1543 67.5996 61.6797 67.9863 60.9531 67.9863C60.0039 67.9863 59.4062 67.3418 59.3828 66.252H63.7305V65.7832C63.7305 63.9082 62.6289 62.6602 60.8535 62.6602C59.0781 62.6602 57.9355 63.9492 57.9355 65.9062V65.9121C57.9355 67.8867 59.0605 69.123 60.9238 69.123ZM60.8711 63.8027C61.6445 63.8027 62.207 64.2949 62.3125 65.2793H59.4004C59.5176 64.3242 60.0977 63.8027 60.8711 63.8027ZM64.7148 69H66.1738V60.5449H64.7148V69ZM70.1465 69.123C71.7695 69.123 72.6836 68.1621 72.877 67.207L72.8945 67.1426H71.5293L71.5176 67.1836C71.377 67.5996 70.9023 67.9863 70.1758 67.9863C69.2266 67.9863 68.6289 67.3418 68.6055 66.252H72.9531V65.7832C72.9531 63.9082 71.8516 62.6602 70.0762 62.6602C68.3008 62.6602 67.1582 63.9492 67.1582 65.9062V65.9121C67.1582 67.8867 68.2832 69.123 70.1465 69.123ZM70.0938 63.8027C70.8672 63.8027 71.4297 64.2949 71.5352 65.2793H68.623C68.7402 64.3242 69.3203 63.8027 70.0938 63.8027ZM76.6387 69.123C78.209 69.123 79.2578 68.1387 79.3691 66.8438L79.375 66.8027H77.998L77.9863 66.8555C77.8516 67.5059 77.3828 67.9453 76.6445 67.9453C75.7246 67.9453 75.127 67.1953 75.127 65.9004V65.8945C75.127 64.623 75.7188 63.8438 76.6387 63.8438C77.4121 63.8438 77.8574 64.3301 77.9805 64.9336L77.9922 64.9863H79.3691L79.3633 64.9395C79.2754 63.6973 78.2559 62.6602 76.6211 62.6602C74.8105 62.6602 73.6387 63.9023 73.6387 65.8828V65.8887C73.6387 67.8809 74.793 69.123 76.6387 69.123ZM82.5566 69.123C82.8496 69.123 83.1074 69.0938 83.2773 69.0703V67.9746C83.1777 67.9805 83.0664 67.998 82.9258 67.998C82.3926 67.998 82.123 67.8047 82.123 67.1953V63.9141H83.2773V62.7891H82.123V61.2129H80.6406V62.7891H79.7617V63.9141H80.6406V67.3184C80.6406 68.5957 81.2559 69.123 82.5566 69.123ZM87.0859 69H88.5449V63.9141H89.7637V62.7891H88.5156V62.2383C88.5156 61.7344 88.7793 61.4707 89.3477 61.4707C89.5059 61.4707 89.6699 61.4824 89.7871 61.5V60.4805C89.6055 60.4453 89.2949 60.4219 89.0078 60.4219C87.6602 60.4219 87.0859 60.9844 87.0859 62.1973V62.7891H86.2363V63.9141H87.0859V69ZM90.7246 69H92.1836V65.3965C92.1836 64.4766 92.6816 63.9551 93.5078 63.9551C93.7539 63.9551 93.9766 63.9902 94.0996 64.0371V62.7188C93.9883 62.6895 93.8184 62.6602 93.6367 62.6602C92.9219 62.6602 92.4062 63.1113 92.2129 63.8613H92.1836V62.7891H90.7246V69ZM97.3633 69.123C99.1855 69.123 100.369 67.9102 100.369 65.8945V65.8828C100.369 63.8789 99.168 62.6602 97.3574 62.6602C95.5527 62.6602 94.3574 63.8906 94.3574 65.8828V65.8945C94.3574 67.9043 95.5352 69.123 97.3633 69.123ZM97.3691 67.9453C96.4375 67.9453 95.8457 67.2012 95.8457 65.8945V65.8828C95.8457 64.5938 96.4492 63.8438 97.3574 63.8438C98.2832 63.8438 98.8809 64.5879 98.8809 65.8828V65.8945C98.8809 67.1953 98.2891 67.9453 97.3691 67.9453ZM101.307 69H102.766V65.1973C102.766 64.4414 103.258 63.8906 103.961 63.8906C104.641 63.8906 105.062 64.3242 105.062 65.0215V69H106.48V65.1621C106.48 64.4121 106.961 63.8906 107.664 63.8906C108.379 63.8906 108.777 64.3301 108.777 65.0977V69H110.236V64.7344C110.236 63.4922 109.434 62.6602 108.209 62.6602C107.312 62.6602 106.574 63.1406 106.275 63.9141H106.24C106.012 63.1172 105.385 62.6602 104.518 62.6602C103.697 62.6602 103.059 63.1055 102.795 63.7852H102.766V62.7891H101.307V69ZM56.2715 83H57.7832V74.5449H56.2715V83ZM59.125 83H60.584V79.3965C60.584 78.5 61.1172 77.8906 61.9551 77.8906C62.7871 77.8906 63.1973 78.3887 63.1973 79.2734V83H64.6562V78.9805C64.6562 77.5391 63.877 76.6602 62.5117 76.6602C61.5684 76.6602 60.9355 77.0938 60.6133 77.7617H60.584V76.7891H59.125V83ZM67.4805 83H69.0859L71.2715 76.7891H69.748L68.3125 81.6465H68.2773L66.8359 76.7891H65.2832L67.4805 83ZM74.4531 83.123C76.0762 83.123 76.9902 82.1621 77.1836 81.207L77.2012 81.1426H75.8359L75.8242 81.1836C75.6836 81.5996 75.209 81.9863 74.4824 81.9863C73.5332 81.9863 72.9355 81.3418 72.9121 80.252H77.2598V79.7832C77.2598 77.9082 76.1582 76.6602 74.3828 76.6602C72.6074 76.6602 71.4648 77.9492 71.4648 79.9062V79.9121C71.4648 81.8867 72.5898 83.123 74.4531 83.123ZM74.4004 77.8027C75.1738 77.8027 75.7363 78.2949 75.8418 79.2793H72.9297C73.0469 78.3242 73.627 77.8027 74.4004 77.8027ZM78.2031 83H79.6621V79.3965C79.6621 78.5 80.1953 77.8906 81.0332 77.8906C81.8652 77.8906 82.2754 78.3887 82.2754 79.2734V83H83.7344V78.9805C83.7344 77.5391 82.9551 76.6602 81.5898 76.6602C80.6465 76.6602 80.0137 77.0938 79.6914 77.7617H79.6621V76.7891H78.2031V83ZM87.2148 83.123C87.5078 83.123 87.7656 83.0938 87.9355 83.0703V81.9746C87.8359 81.9805 87.7246 81.998 87.584 81.998C87.0508 81.998 86.7812 81.8047 86.7812 81.1953V77.9141H87.9355V76.7891H86.7812V75.2129H85.2988V76.7891H84.4199V77.9141H85.2988V81.3184C85.2988 82.5957 85.9141 83.123 87.2148 83.123ZM91.5684 83.123C93.3906 83.123 94.5742 81.9102 94.5742 79.8945V79.8828C94.5742 77.8789 93.373 76.6602 91.5625 76.6602C89.7578 76.6602 88.5625 77.8906 88.5625 79.8828V79.8945C88.5625 81.9043 89.7402 83.123 91.5684 83.123ZM91.5742 81.9453C90.6426 81.9453 90.0508 81.2012 90.0508 79.8945V79.8828C90.0508 78.5938 90.6543 77.8438 91.5625 77.8438C92.4883 77.8438 93.0859 78.5879 93.0859 79.8828V79.8945C93.0859 81.1953 92.4941 81.9453 91.5742 81.9453ZM95.5117 83H96.9707V79.3965C96.9707 78.4766 97.4688 77.9551 98.2949 77.9551C98.541 77.9551 98.7637 77.9902 98.8867 78.0371V76.7188C98.7754 76.6895 98.6055 76.6602 98.4238 76.6602C97.709 76.6602 97.1934 77.1113 97 77.8613H96.9707V76.7891H95.5117V83ZM100.668 85.0625C101.963 85.0625 102.689 84.5762 103.164 83.2109L105.396 76.7891H103.861L102.402 81.7578H102.361L100.908 76.7891H99.3145L101.547 83.0059L101.459 83.2578C101.271 83.7793 100.961 83.9375 100.404 83.9375C100.199 83.9375 100.029 83.9082 99.918 83.8848V84.998C100.094 85.0273 100.387 85.0625 100.668 85.0625Z" fill="black"/>
  <path d="M37.6777 113.146C39.8281 113.146 41.1465 111.887 41.1465 110.018V104.545H39.6406V109.895C39.6406 111.066 38.9316 111.834 37.6777 111.834C36.4238 111.834 35.709 111.066 35.709 109.895V104.545H34.1973V110.018C34.1973 111.887 35.5332 113.146 37.6777 113.146ZM42.5 115.051H43.959V111.951H43.9883C44.3398 112.678 45.0488 113.123 45.9336 113.123C47.4922 113.123 48.4883 111.893 48.4883 109.9V109.895C48.4883 107.891 47.4922 106.66 45.916 106.66C45.0254 106.66 44.3457 107.117 43.9883 107.861H43.959V106.789H42.5V115.051ZM45.4824 111.893C44.5801 111.893 43.9473 111.113 43.9473 109.9V109.895C43.9473 108.676 44.5801 107.891 45.4824 107.891C46.4141 107.891 47 108.652 47 109.895V109.9C47 111.125 46.4141 111.893 45.4824 111.893ZM54.1367 113.123C54.4297 113.123 54.6875 113.094 54.8574 113.07V111.975C54.7578 111.98 54.6465 111.998 54.5059 111.998C53.9727 111.998 53.7031 111.805 53.7031 111.195V107.914H54.8574V106.789H53.7031V105.213H52.2207V106.789H51.3418V107.914H52.2207V111.318C52.2207 112.596 52.8359 113.123 54.1367 113.123ZM58.4902 113.123C60.3125 113.123 61.4961 111.91 61.4961 109.895V109.883C61.4961 107.879 60.2949 106.66 58.4844 106.66C56.6797 106.66 55.4844 107.891 55.4844 109.883V109.895C55.4844 111.904 56.6621 113.123 58.4902 113.123ZM58.4961 111.945C57.5645 111.945 56.9727 111.201 56.9727 109.895V109.883C56.9727 108.594 57.5762 107.844 58.4844 107.844C59.4102 107.844 60.0078 108.588 60.0078 109.883V109.895C60.0078 111.195 59.416 111.945 58.4961 111.945ZM67.1445 113.123C67.4375 113.123 67.6953 113.094 67.8652 113.07V111.975C67.7656 111.98 67.6543 111.998 67.5137 111.998C66.9805 111.998 66.7109 111.805 66.7109 111.195V107.914H67.8652V106.789H66.7109V105.213H65.2285V106.789H64.3496V107.914H65.2285V111.318C65.2285 112.596 65.8438 113.123 67.1445 113.123ZM68.9082 113H70.3672V109.42C70.3672 108.518 70.9062 107.891 71.7324 107.891C72.5703 107.891 73.0508 108.465 73.0508 109.42V113H74.5098V109.133C74.5098 107.633 73.6543 106.66 72.3184 106.66C71.3867 106.66 70.7246 107.088 70.4023 107.832H70.3672V104.545H68.9082V113ZM75.6875 113H77.1465V109.396C77.1465 108.477 77.6445 107.955 78.4707 107.955C78.7168 107.955 78.9395 107.99 79.0625 108.037V106.719C78.9512 106.689 78.7812 106.66 78.5996 106.66C77.8848 106.66 77.3691 107.111 77.1758 107.861H77.1465V106.789H75.6875V113ZM82.3086 113.123C83.9316 113.123 84.8457 112.162 85.0391 111.207L85.0566 111.143H83.6914L83.6797 111.184C83.5391 111.6 83.0645 111.986 82.3379 111.986C81.3887 111.986 80.791 111.342 80.7676 110.252H85.1152V109.783C85.1152 107.908 84.0137 106.66 82.2383 106.66C80.4629 106.66 79.3203 107.949 79.3203 109.906V109.912C79.3203 111.887 80.4453 113.123 82.3086 113.123ZM82.2559 107.803C83.0293 107.803 83.5918 108.295 83.6973 109.279H80.7852C80.9023 108.324 81.4824 107.803 82.2559 107.803ZM88.7891 113.123C90.4121 113.123 91.3262 112.162 91.5195 111.207L91.5371 111.143H90.1719L90.1602 111.184C90.0195 111.6 89.5449 111.986 88.8184 111.986C87.8691 111.986 87.2715 111.342 87.248 110.252H91.5957V109.783C91.5957 107.908 90.4941 106.66 88.7188 106.66C86.9434 106.66 85.8008 107.949 85.8008 109.906V109.912C85.8008 111.887 86.9258 113.123 88.7891 113.123ZM88.7363 107.803C89.5098 107.803 90.0723 108.295 90.1777 109.279H87.2656C87.3828 108.324 87.9629 107.803 88.7363 107.803ZM95.7148 105.898C96.1719 105.898 96.5234 105.535 96.5234 105.102C96.5234 104.656 96.1719 104.299 95.7148 104.299C95.2578 104.299 94.9004 104.656 94.9004 105.102C94.9004 105.535 95.2578 105.898 95.7148 105.898ZM94.9824 113H96.4414V106.789H94.9824V113ZM99.9922 113.123C100.285 113.123 100.543 113.094 100.713 113.07V111.975C100.613 111.98 100.502 111.998 100.361 111.998C99.8281 111.998 99.5586 111.805 99.5586 111.195V107.914H100.713V106.789H99.5586V105.213H98.0762V106.789H97.1973V107.914H98.0762V111.318C98.0762 112.596 98.6914 113.123 99.9922 113.123ZM104.328 113.123C105.951 113.123 106.865 112.162 107.059 111.207L107.076 111.143H105.711L105.699 111.184C105.559 111.6 105.084 111.986 104.357 111.986C103.408 111.986 102.811 111.342 102.787 110.252H107.135V109.783C107.135 107.908 106.033 106.66 104.258 106.66C102.482 106.66 101.34 107.949 101.34 109.906V109.912C101.34 111.887 102.465 113.123 104.328 113.123ZM104.275 107.803C105.049 107.803 105.611 108.295 105.717 109.279H102.805C102.922 108.324 103.502 107.803 104.275 107.803ZM108.078 113H109.537V109.197C109.537 108.441 110.029 107.891 110.732 107.891C111.412 107.891 111.834 108.324 111.834 109.021V113H113.252V109.162C113.252 108.412 113.732 107.891 114.436 107.891C115.15 107.891 115.549 108.33 115.549 109.098V113H117.008V108.734C117.008 107.492 116.205 106.66 114.98 106.66C114.084 106.66 113.346 107.141 113.047 107.914H113.012C112.783 107.117 112.156 106.66 111.289 106.66C110.469 106.66 109.83 107.105 109.566 107.785H109.537V106.789H108.078V113ZM120.605 113.123C122.129 113.123 123.213 112.338 123.213 111.166V111.16C123.213 110.258 122.715 109.754 121.432 109.467L120.395 109.238C119.75 109.092 119.51 108.857 119.51 108.5V108.494C119.51 108.037 119.914 107.738 120.559 107.738C121.238 107.738 121.637 108.102 121.701 108.6L121.707 108.646H123.066L123.061 108.582C123.008 107.51 122.105 106.66 120.559 106.66C119.059 106.66 118.068 107.428 118.068 108.564V108.57C118.068 109.49 118.666 110.07 119.855 110.334L120.887 110.562C121.531 110.709 121.748 110.92 121.748 111.295V111.301C121.748 111.758 121.32 112.045 120.611 112.045C119.873 112.045 119.469 111.729 119.357 111.195L119.346 111.143H117.91L117.916 111.195C118.045 112.35 118.977 113.123 120.605 113.123Z" fill="#626262"/>
  <path d="M12.9531 177.146C15.0156 177.146 16.2578 176.145 16.2578 174.568V174.562C16.2578 173.244 15.4902 172.529 13.7324 172.166L12.8184 171.979C11.7988 171.768 11.3359 171.416 11.3359 170.818V170.812C11.3359 170.139 11.9512 169.676 12.9414 169.67C13.8906 169.67 14.541 170.109 14.6406 170.848L14.6523 170.918H16.0996L16.0938 170.818C16.0059 169.371 14.7988 168.398 12.9531 168.398C11.1309 168.398 9.82422 169.406 9.81836 170.895V170.9C9.81836 172.16 10.6387 172.934 12.3027 173.279L13.2109 173.467C14.3008 173.695 14.7402 174.035 14.7402 174.668V174.674C14.7402 175.4 14.0723 175.875 13.0059 175.875C11.9453 175.875 11.2012 175.424 11.0898 174.697L11.0781 174.627H9.63086L9.63672 174.715C9.73633 176.232 11.0137 177.146 12.9531 177.146ZM19.9727 177.123C21.5957 177.123 22.5098 176.162 22.7031 175.207L22.7207 175.143H21.3555L21.3438 175.184C21.2031 175.6 20.7285 175.986 20.002 175.986C19.0527 175.986 18.4551 175.342 18.4316 174.252H22.7793V173.783C22.7793 171.908 21.6777 170.66 19.9023 170.66C18.127 170.66 16.9844 171.949 16.9844 173.906V173.912C16.9844 175.887 18.1094 177.123 19.9727 177.123ZM19.9199 171.803C20.6934 171.803 21.2559 172.295 21.3613 173.279H18.4492C18.5664 172.324 19.1465 171.803 19.9199 171.803ZM23.7637 177H25.2227V168.545H23.7637V177ZM29.1953 177.123C30.8184 177.123 31.7324 176.162 31.9258 175.207L31.9434 175.143H30.5781L30.5664 175.184C30.4258 175.6 29.9512 175.986 29.2246 175.986C28.2754 175.986 27.6777 175.342 27.6543 174.252H32.002V173.783C32.002 171.908 30.9004 170.66 29.125 170.66C27.3496 170.66 26.207 171.949 26.207 173.906V173.912C26.207 175.887 27.332 177.123 29.1953 177.123ZM29.1426 171.803C29.916 171.803 30.4785 172.295 30.584 173.279H27.6719C27.7891 172.324 28.3691 171.803 29.1426 171.803ZM35.6875 177.123C37.2578 177.123 38.3066 176.139 38.418 174.844L38.4238 174.803H37.0469L37.0352 174.855C36.9004 175.506 36.4316 175.945 35.6934 175.945C34.7734 175.945 34.1758 175.195 34.1758 173.9V173.895C34.1758 172.623 34.7676 171.844 35.6875 171.844C36.4609 171.844 36.9062 172.33 37.0293 172.934L37.041 172.986H38.418L38.4121 172.939C38.3242 171.697 37.3047 170.66 35.6699 170.66C33.8594 170.66 32.6875 171.902 32.6875 173.883V173.889C32.6875 175.881 33.8418 177.123 35.6875 177.123ZM41.6055 177.123C41.8984 177.123 42.1562 177.094 42.3262 177.07V175.975C42.2266 175.98 42.1152 175.998 41.9746 175.998C41.4414 175.998 41.1719 175.805 41.1719 175.195V171.914H42.3262V170.789H41.1719V169.213H39.6895V170.789H38.8105V171.914H39.6895V175.318C39.6895 176.596 40.3047 177.123 41.6055 177.123ZM48.4785 177.123C50.3008 177.123 51.4844 175.91 51.4844 173.895V173.883C51.4844 171.879 50.2832 170.66 48.4727 170.66C46.668 170.66 45.4727 171.891 45.4727 173.883V173.895C45.4727 175.904 46.6504 177.123 48.4785 177.123ZM48.4844 175.945C47.5527 175.945 46.9609 175.201 46.9609 173.895V173.883C46.9609 172.594 47.5645 171.844 48.4727 171.844C49.3984 171.844 49.9961 172.588 49.9961 173.883V173.895C49.9961 175.195 49.4043 175.945 48.4844 175.945ZM52.4219 177H53.8809V173.396C53.8809 172.477 54.3789 171.955 55.2051 171.955C55.4512 171.955 55.6738 171.99 55.7969 172.037V170.719C55.6855 170.689 55.5156 170.66 55.334 170.66C54.6191 170.66 54.1035 171.111 53.9102 171.861H53.8809V170.789H52.4219V177ZM61.2578 177.123C62.1543 177.123 62.8398 176.678 63.1914 175.945H63.2266V177H64.6855V168.545H63.2266V171.855H63.1914C62.8398 171.111 62.1309 170.66 61.252 170.66C59.6934 170.66 58.6914 171.885 58.6914 173.889V173.895C58.6914 175.893 59.6875 177.123 61.2578 177.123ZM61.6973 175.893C60.7598 175.893 60.1797 175.131 60.1797 173.895V173.889C60.1797 172.652 60.7656 171.891 61.6973 171.891C62.5938 171.891 63.2266 172.676 63.2266 173.889V173.895C63.2266 175.113 62.5996 175.893 61.6973 175.893ZM65.9102 177H67.3691V173.396C67.3691 172.477 67.8672 171.955 68.6934 171.955C68.9395 171.955 69.1621 171.99 69.2852 172.037V170.719C69.1738 170.689 69.0039 170.66 68.8223 170.66C68.1074 170.66 67.5918 171.111 67.3984 171.861H67.3691V170.789H65.9102V177ZM71.7285 177.105C72.5488 177.105 73.2402 176.695 73.5977 176.045H73.6328V177H75.0918V172.729C75.0918 171.48 74.0898 170.66 72.5371 170.66C70.9609 170.66 70.0059 171.486 69.918 172.588L69.9121 172.658H71.2656L71.2773 172.605C71.3711 172.148 71.793 171.826 72.4844 171.826C73.2227 171.826 73.6328 172.207 73.6328 172.834V173.262L72.0098 173.361C70.5039 173.455 69.6484 174.117 69.6484 175.219V175.23C69.6484 176.338 70.4863 177.105 71.7285 177.105ZM71.1016 175.172V175.166C71.1016 174.674 71.4941 174.363 72.2148 174.316L73.6328 174.229V174.697C73.6328 175.436 73 175.992 72.1621 175.992C71.5234 175.992 71.1016 175.682 71.1016 175.172ZM79.0703 179.174C80.8691 179.174 82 178.23 82 176.824V170.789H80.541V171.844H80.5059C80.1543 171.129 79.4746 170.66 78.5957 170.66C77.0254 170.66 76.0117 171.867 76.0117 173.83V173.836C76.0117 175.77 77.0137 176.965 78.5723 176.965C79.4629 176.965 80.166 176.543 80.5117 175.881H80.541V176.777C80.541 177.568 80.0195 178.072 79.0703 178.072C78.3086 178.072 77.8105 177.803 77.6523 177.445L77.6348 177.398H76.1992L76.2109 177.451C76.3867 178.424 77.4238 179.174 79.0703 179.174ZM79.0293 175.84C78.0918 175.84 77.5 175.084 77.5 173.859V173.854C77.5 172.646 78.0918 171.891 79.0293 171.891C79.9316 171.891 80.5469 172.658 80.5469 173.859V173.865C80.5469 175.072 79.9375 175.84 79.0293 175.84ZM88.334 177.146C89.4238 177.146 90.3262 176.836 91.0176 176.273L91.6855 177H93.3496V176.971L91.8262 175.359C92.3008 174.621 92.5527 173.684 92.5527 172.553V172.242H91.2871V172.506C91.2871 173.268 91.1699 173.9 90.9414 174.422L89.1484 172.529C90.4082 171.85 90.9121 171.182 90.9121 170.344V170.338C90.9121 169.207 89.9629 168.422 88.6445 168.422C87.3145 168.422 86.3359 169.248 86.3359 170.361V170.367C86.3418 170.947 86.623 171.451 87.373 172.295L87.0566 172.465C85.9434 173.062 85.4277 173.807 85.4277 174.773V174.779C85.4277 176.197 86.5879 177.146 88.334 177.146ZM87.6309 170.432V170.426C87.6309 169.857 88.0586 169.447 88.6445 169.447C89.2363 169.447 89.6523 169.846 89.6523 170.42V170.426C89.6523 170.953 89.3125 171.352 88.4629 171.803C87.8828 171.176 87.6309 170.842 87.6309 170.432ZM86.8223 174.662V174.656C86.8223 174.1 87.1152 173.66 87.8828 173.221L88.0996 173.098L90.2266 175.412C89.7812 175.805 89.1895 176.039 88.4805 176.039C87.4961 176.039 86.8223 175.488 86.8223 174.662ZM98.5938 177.123C99.4902 177.123 100.176 176.678 100.527 175.945H100.562V177H102.021V168.545H100.562V171.855H100.527C100.176 171.111 99.4668 170.66 98.5879 170.66C97.0293 170.66 96.0273 171.885 96.0273 173.889V173.895C96.0273 175.893 97.0234 177.123 98.5938 177.123ZM99.0332 175.893C98.0957 175.893 97.5156 175.131 97.5156 173.895V173.889C97.5156 172.652 98.1016 171.891 99.0332 171.891C99.9297 171.891 100.562 172.676 100.562 173.889V173.895C100.562 175.113 99.9355 175.893 99.0332 175.893ZM103.246 177H104.705V173.396C104.705 172.477 105.203 171.955 106.029 171.955C106.275 171.955 106.498 171.99 106.621 172.037V170.719C106.51 170.689 106.34 170.66 106.158 170.66C105.443 170.66 104.928 171.111 104.734 171.861H104.705V170.789H103.246V177ZM109.885 177.123C111.707 177.123 112.891 175.91 112.891 173.895V173.883C112.891 171.879 111.689 170.66 109.879 170.66C108.074 170.66 106.879 171.891 106.879 173.883V173.895C106.879 175.904 108.057 177.123 109.885 177.123ZM109.891 175.945C108.959 175.945 108.367 175.201 108.367 173.895V173.883C108.367 172.594 108.971 171.844 109.879 171.844C110.805 171.844 111.402 172.588 111.402 173.883V173.895C111.402 175.195 110.811 175.945 109.891 175.945ZM113.828 179.051H115.287V175.951H115.316C115.668 176.678 116.377 177.123 117.262 177.123C118.82 177.123 119.816 175.893 119.816 173.9V173.895C119.816 171.891 118.82 170.66 117.244 170.66C116.354 170.66 115.674 171.117 115.316 171.861H115.287V170.789H113.828V179.051ZM116.811 175.893C115.908 175.893 115.275 175.113 115.275 173.9V173.895C115.275 172.676 115.908 171.891 116.811 171.891C117.742 171.891 118.328 172.652 118.328 173.895V173.9C118.328 175.125 117.742 175.893 116.811 175.893ZM123.93 169.898C124.387 169.898 124.738 169.535 124.738 169.102C124.738 168.656 124.387 168.299 123.93 168.299C123.473 168.299 123.115 168.656 123.115 169.102C123.115 169.535 123.473 169.898 123.93 169.898ZM123.197 177H124.656V170.789H123.197V177ZM128.207 177.123C128.5 177.123 128.758 177.094 128.928 177.07V175.975C128.828 175.98 128.717 175.998 128.576 175.998C128.043 175.998 127.773 175.805 127.773 175.195V171.914H128.928V170.789H127.773V169.213H126.291V170.789H125.412V171.914H126.291V175.318C126.291 176.596 126.906 177.123 128.207 177.123ZM132.543 177.123C134.166 177.123 135.08 176.162 135.273 175.207L135.291 175.143H133.926L133.914 175.184C133.773 175.6 133.299 175.986 132.572 175.986C131.623 175.986 131.025 175.342 131.002 174.252H135.35V173.783C135.35 171.908 134.248 170.66 132.473 170.66C130.697 170.66 129.555 171.949 129.555 173.906V173.912C129.555 175.887 130.68 177.123 132.543 177.123ZM132.49 171.803C133.264 171.803 133.826 172.295 133.932 173.279H131.02C131.137 172.324 131.717 171.803 132.49 171.803ZM136.293 177H137.752V173.197C137.752 172.441 138.244 171.891 138.947 171.891C139.627 171.891 140.049 172.324 140.049 173.021V177H141.467V173.162C141.467 172.412 141.947 171.891 142.65 171.891C143.365 171.891 143.764 172.33 143.764 173.098V177H145.223V172.734C145.223 171.492 144.42 170.66 143.195 170.66C142.299 170.66 141.561 171.141 141.262 171.914H141.227C140.998 171.117 140.371 170.66 139.504 170.66C138.684 170.66 138.045 171.105 137.781 171.785H137.752V170.789H136.293V177ZM148.82 177.123C150.344 177.123 151.428 176.338 151.428 175.166V175.16C151.428 174.258 150.93 173.754 149.646 173.467L148.609 173.238C147.965 173.092 147.725 172.857 147.725 172.5V172.494C147.725 172.037 148.129 171.738 148.773 171.738C149.453 171.738 149.852 172.102 149.916 172.6L149.922 172.646H151.281L151.275 172.582C151.223 171.51 150.32 170.66 148.773 170.66C147.273 170.66 146.283 171.428 146.283 172.564V172.57C146.283 173.49 146.881 174.07 148.07 174.334L149.102 174.562C149.746 174.709 149.963 174.92 149.963 175.295V175.301C149.963 175.758 149.535 176.045 148.826 176.045C148.088 176.045 147.684 175.729 147.572 175.195L147.561 175.143H146.125L146.131 175.195C146.26 176.35 147.191 177.123 148.82 177.123Z" fill="#626262"/>
  <line x1="71.0936" y1="140.828" x2="85.9222" y2="140.825" stroke="black" stroke-width="2" stroke-linecap="round"/>
  <line x1="78.1918" y1="133.086" x2="78.1976" y2="147.914" stroke="black" stroke-width="2" stroke-linecap="round"/>
  <rect x="63.75" y="125.75" width="29.5" height="29.5" rx="14.75" stroke="black" stroke-width="1.5"/>
  <rect x="26" y="185" width="108" height="20" rx="4" fill="#D3D3D3"/>
</svg>
