<svg width="62" height="21" viewBox="0 0 62 21" fill="none" xmlns="http://www.w3.org/2000/svg">
<rect width="62" height="21" rx="4" fill="#50555C"/>
<path d="M29.36 8.1H27.04V7H32.98V8.1H30.66V14H29.36V8.1ZM34.8987 9.44C35.2587 8.88 35.892 8.6 36.7987 8.6V9.79C36.692 9.77 36.5953 9.76 36.5087 9.76C36.022 9.76 35.642 9.90333 35.3687 10.19C35.0953 10.47 34.9587 10.8767 34.9587 11.41V14H33.7087V8.66H34.8987V9.44ZM39.8698 8.6C40.6564 8.6 41.2564 8.79 41.6698 9.17C42.0898 9.54333 42.2998 10.11 42.2998 10.87V14H41.1198V13.35C40.9664 13.5833 40.7464 13.7633 40.4598 13.89C40.1798 14.01 39.8398 14.07 39.4398 14.07C39.0398 14.07 38.6898 14.0033 38.3898 13.87C38.0898 13.73 37.8564 13.54 37.6898 13.3C37.5298 13.0533 37.4498 12.7767 37.4498 12.47C37.4498 11.99 37.6264 11.6067 37.9798 11.32C38.3398 11.0267 38.9031 10.88 39.6698 10.88H41.0498V10.8C41.0498 10.4267 40.9364 10.14 40.7098 9.94C40.4898 9.74 40.1598 9.64 39.7198 9.64C39.4198 9.64 39.1231 9.68667 38.8298 9.78C38.5431 9.87333 38.2998 10.0033 38.0998 10.17L37.6098 9.26C37.8898 9.04667 38.2264 8.88333 38.6198 8.77C39.0131 8.65667 39.4298 8.6 39.8698 8.6ZM39.6998 13.16C40.0131 13.16 40.2898 13.09 40.5298 12.95C40.7764 12.8033 40.9498 12.5967 41.0498 12.33V11.71H39.7598C39.0398 11.71 38.6798 11.9467 38.6798 12.42C38.6798 12.6467 38.7698 12.8267 38.9498 12.96C39.1298 13.0933 39.3798 13.16 39.6998 13.16ZM49.1828 6.58V14H47.9828V13.31C47.7761 13.5633 47.5195 13.7533 47.2128 13.88C46.9128 14.0067 46.5795 14.07 46.2128 14.07C45.6995 14.07 45.2361 13.9567 44.8228 13.73C44.4161 13.5033 44.0961 13.1833 43.8628 12.77C43.6295 12.35 43.5128 11.87 43.5128 11.33C43.5128 10.79 43.6295 10.3133 43.8628 9.9C44.0961 9.48667 44.4161 9.16667 44.8228 8.94C45.2361 8.71333 45.6995 8.6 46.2128 8.6C46.5661 8.6 46.8895 8.66 47.1828 8.78C47.4761 8.9 47.7261 9.08 47.9328 9.32V6.58H49.1828ZM46.3628 13C46.6628 13 46.9328 12.9333 47.1728 12.8C47.4128 12.66 47.6028 12.4633 47.7428 12.21C47.8828 11.9567 47.9528 11.6633 47.9528 11.33C47.9528 10.9967 47.8828 10.7033 47.7428 10.45C47.6028 10.1967 47.4128 10.0033 47.1728 9.87C46.9328 9.73 46.6628 9.66 46.3628 9.66C46.0628 9.66 45.7928 9.73 45.5528 9.87C45.3128 10.0033 45.1228 10.1967 44.9828 10.45C44.8428 10.7033 44.7728 10.9967 44.7728 11.33C44.7728 11.6633 44.8428 11.9567 44.9828 12.21C45.1228 12.4633 45.3128 12.66 45.5528 12.8C45.7928 12.9333 46.0628 13 46.3628 13ZM55.838 11.36C55.838 11.4467 55.8314 11.57 55.818 11.73H51.628C51.7014 12.1233 51.8914 12.4367 52.198 12.67C52.5114 12.8967 52.898 13.01 53.358 13.01C53.9447 13.01 54.428 12.8167 54.808 12.43L55.478 13.2C55.238 13.4867 54.9347 13.7033 54.568 13.85C54.2014 13.9967 53.788 14.07 53.328 14.07C52.7414 14.07 52.2247 13.9533 51.778 13.72C51.3314 13.4867 50.9847 13.1633 50.738 12.75C50.498 12.33 50.378 11.8567 50.378 11.33C50.378 10.81 50.4947 10.3433 50.728 9.93C50.968 9.51 51.298 9.18333 51.718 8.95C52.138 8.71667 52.6114 8.6 53.138 8.6C53.658 8.6 54.1214 8.71667 54.528 8.95C54.9414 9.17667 55.2614 9.5 55.488 9.92C55.7214 10.3333 55.838 10.8133 55.838 11.36ZM53.138 9.6C52.738 9.6 52.398 9.72 52.118 9.96C51.8447 10.1933 51.678 10.5067 51.618 10.9H54.648C54.5947 10.5133 54.4314 10.2 54.158 9.96C53.8847 9.72 53.5447 9.6 53.138 9.6Z" fill="white"/>
<path d="M29.36 8.1H27.04V7H32.98V8.1H30.66V14H29.36V8.1ZM34.8987 9.44C35.2587 8.88 35.892 8.6 36.7987 8.6V9.79C36.692 9.77 36.5953 9.76 36.5087 9.76C36.022 9.76 35.642 9.90333 35.3687 10.19C35.0953 10.47 34.9587 10.8767 34.9587 11.41V14H33.7087V8.66H34.8987V9.44ZM39.8698 8.6C40.6564 8.6 41.2564 8.79 41.6698 9.17C42.0898 9.54333 42.2998 10.11 42.2998 10.87V14H41.1198V13.35C40.9664 13.5833 40.7464 13.7633 40.4598 13.89C40.1798 14.01 39.8398 14.07 39.4398 14.07C39.0398 14.07 38.6898 14.0033 38.3898 13.87C38.0898 13.73 37.8564 13.54 37.6898 13.3C37.5298 13.0533 37.4498 12.7767 37.4498 12.47C37.4498 11.99 37.6264 11.6067 37.9798 11.32C38.3398 11.0267 38.9031 10.88 39.6698 10.88H41.0498V10.8C41.0498 10.4267 40.9364 10.14 40.7098 9.94C40.4898 9.74 40.1598 9.64 39.7198 9.64C39.4198 9.64 39.1231 9.68667 38.8298 9.78C38.5431 9.87333 38.2998 10.0033 38.0998 10.17L37.6098 9.26C37.8898 9.04667 38.2264 8.88333 38.6198 8.77C39.0131 8.65667 39.4298 8.6 39.8698 8.6ZM39.6998 13.16C40.0131 13.16 40.2898 13.09 40.5298 12.95C40.7764 12.8033 40.9498 12.5967 41.0498 12.33V11.71H39.7598C39.0398 11.71 38.6798 11.9467 38.6798 12.42C38.6798 12.6467 38.7698 12.8267 38.9498 12.96C39.1298 13.0933 39.3798 13.16 39.6998 13.16ZM49.1828 6.58V14H47.9828V13.31C47.7761 13.5633 47.5195 13.7533 47.2128 13.88C46.9128 14.0067 46.5795 14.07 46.2128 14.07C45.6995 14.07 45.2361 13.9567 44.8228 13.73C44.4161 13.5033 44.0961 13.1833 43.8628 12.77C43.6295 12.35 43.5128 11.87 43.5128 11.33C43.5128 10.79 43.6295 10.3133 43.8628 9.9C44.0961 9.48667 44.4161 9.16667 44.8228 8.94C45.2361 8.71333 45.6995 8.6 46.2128 8.6C46.5661 8.6 46.8895 8.66 47.1828 8.78C47.4761 8.9 47.7261 9.08 47.9328 9.32V6.58H49.1828ZM46.3628 13C46.6628 13 46.9328 12.9333 47.1728 12.8C47.4128 12.66 47.6028 12.4633 47.7428 12.21C47.8828 11.9567 47.9528 11.6633 47.9528 11.33C47.9528 10.9967 47.8828 10.7033 47.7428 10.45C47.6028 10.1967 47.4128 10.0033 47.1728 9.87C46.9328 9.73 46.6628 9.66 46.3628 9.66C46.0628 9.66 45.7928 9.73 45.5528 9.87C45.3128 10.0033 45.1228 10.1967 44.9828 10.45C44.8428 10.7033 44.7728 10.9967 44.7728 11.33C44.7728 11.6633 44.8428 11.9567 44.9828 12.21C45.1228 12.4633 45.3128 12.66 45.5528 12.8C45.7928 12.9333 46.0628 13 46.3628 13ZM55.838 11.36C55.838 11.4467 55.8314 11.57 55.818 11.73H51.628C51.7014 12.1233 51.8914 12.4367 52.198 12.67C52.5114 12.8967 52.898 13.01 53.358 13.01C53.9447 13.01 54.428 12.8167 54.808 12.43L55.478 13.2C55.238 13.4867 54.9347 13.7033 54.568 13.85C54.2014 13.9967 53.788 14.07 53.328 14.07C52.7414 14.07 52.2247 13.9533 51.778 13.72C51.3314 13.4867 50.9847 13.1633 50.738 12.75C50.498 12.33 50.378 11.8567 50.378 11.33C50.378 10.81 50.4947 10.3433 50.728 9.93C50.968 9.51 51.298 9.18333 51.718 8.95C52.138 8.71667 52.6114 8.6 53.138 8.6C53.658 8.6 54.1214 8.71667 54.528 8.95C54.9414 9.17667 55.2614 9.5 55.488 9.92C55.7214 10.3333 55.838 10.8133 55.838 11.36ZM53.138 9.6C52.738 9.6 52.398 9.72 52.118 9.96C51.8447 10.1933 51.678 10.5067 51.618 10.9H54.648C54.5947 10.5133 54.4314 10.2 54.158 9.96C53.8847 9.72 53.5447 9.6 53.138 9.6Z" fill="white"/>
<line x1="6.50195" y1="9.10352" x2="17.9222" y2="9.10352" stroke="white" stroke-linecap="round"/>
<line x1="0.5" y1="-0.5" x2="4.50553" y2="-0.5" transform="matrix(0.871809 0.489846 -0.558899 0.829236 13.5547 7.30469)" stroke="white" stroke-linecap="round"/>
<line x1="17.9199" y1="11.8984" x2="6.49968" y2="11.8984" stroke="white" stroke-linecap="round"/>
<line x1="0.5" y1="-0.5" x2="4.50553" y2="-0.5" transform="matrix(-0.871809 -0.489846 0.558899 -0.829236 10.8672 13.6953)" stroke="white" stroke-linecap="round"/>
</svg>
