<svg width="40" height="39" viewBox="0 0 40 39" fill="none" xmlns="http://www.w3.org/2000/svg">
<path d="M38.087 19.5C38.087 29.4201 29.9179 37.5 19.7935 37.5C9.66907 37.5 1.5 29.4201 1.5 19.5C1.5 9.57992 9.66907 1.5 19.7935 1.5C29.9179 1.5 38.087 9.57992 38.087 19.5Z" stroke="black" stroke-width="3"/>
<path d="M10 27.3223C10 26.771 10.219 26.2423 10.6089 25.8524C10.9988 25.4627 11.5274 25.2435 12.0787 25.2435C12.63 25.2435 13.1588 25.4627 13.5486 25.8524C13.9383 26.2423 14.1575 26.771 14.1575 27.3223C14.1575 27.8736 13.9384 28.4024 13.5486 28.7921C13.1588 29.182 12.63 29.401 12.0787 29.401C11.5274 29.401 10.9988 29.182 10.6089 28.7921C10.219 28.4024 10 27.8736 10 27.3223ZM12.0786 14.1574C12.6299 14.1574 13.1587 13.9383 13.5486 13.5486C13.9383 13.1587 14.1574 12.63 14.1574 12.0786C14.1574 11.5273 13.9383 10.9985 13.5486 10.6088C13.1587 10.219 12.63 10 12.0786 10C11.5273 10 10.9987 10.2189 10.6088 10.6088C10.219 10.9986 10 11.5273 10 12.0786C10 12.6299 10.2189 13.1587 10.6088 13.5486C10.9987 13.9383 11.5273 14.1574 12.0786 14.1574ZM12.0786 21.7792V21.7791C12.6299 21.7791 13.1587 21.5601 13.5486 21.1702C13.9383 20.7805 14.1574 20.2517 14.1574 19.7004C14.1574 19.1491 13.9383 18.6203 13.5486 18.2306C13.1587 17.8408 12.63 17.6218 12.0786 17.6218C11.5273 17.6218 10.9987 17.8407 10.6088 18.2306C10.219 18.6204 10 19.1491 10 19.7004C10 20.2517 10.2189 20.7805 10.6088 21.1702C10.9987 21.5601 11.5273 21.7791 12.0786 21.7791V21.7792ZM19.0075 13.4645H29.4009C29.896 13.4645 30.3535 13.2003 30.6012 12.7716C30.8486 12.3429 30.8486 11.8146 30.6012 11.3857C30.3535 10.957 29.896 10.693 29.4009 10.693H19.0075C18.5124 10.693 18.0551 10.957 17.8074 11.3857C17.56 11.8146 17.56 12.3429 17.8074 12.7716C18.0551 13.2003 18.5124 13.4645 19.0075 13.4645ZM19.0075 21.0863H29.4009C29.896 21.0863 30.3535 20.8221 30.6012 20.3934C30.8486 19.9645 30.8486 19.4364 30.6012 19.0075C30.3535 18.5788 29.896 18.3146 29.4009 18.3146H19.0075C18.5124 18.3146 18.0551 18.5788 17.8074 19.0075C17.56 19.4364 17.56 19.9645 17.8074 20.3934C18.0551 20.8221 18.5124 21.0863 19.0075 21.0863ZM19.0075 28.7081L29.4009 28.708C29.896 28.708 30.3535 28.4439 30.6012 28.0152C30.8486 27.5863 30.8486 27.0581 30.6012 26.6293C30.3535 26.2006 29.896 25.9364 29.4009 25.9364H19.0075C18.5124 25.9364 18.0551 26.2006 17.8074 26.6293C17.56 27.0581 17.56 27.5863 17.8074 28.0152C18.0551 28.4439 18.5124 28.708 19.0075 28.708V28.7081Z" fill="black"/>
</svg>
