<svg width="100" height="143" viewBox="0 0 100 143" fill="none" xmlns="http://www.w3.org/2000/svg">
<rect x="0.5" y="0.5" width="99" height="141" fill="#F9F9F9"/>
<rect x="1" y="1" width="98" height="140.91" fill="#F9F9F9" stroke="#C4C4C4" stroke-width="2"/>
<g opacity="0.25">
<rect x="26.6406" y="120.152" width="52.2301" height="12.444" rx="4" fill="#626262"/>
<path d="M15.6289 47.1091L17.1719 40L22.7266 40.6182L27.9727 45.8727L39.6992 40.6182H43.4023L66.5469 56.3818L87.2227 61.9455L90 66.8909L77.3477 74H51.4258L11 66.8909L15.6289 47.1091Z" fill="#E9E7E9"/>
<path d="M11 66.6L19.5736 65L31.8217 67.56L51.7248 69.16L58.4612 73L70.0969 69.8L76.5271 72.68L90 66.6V72.04L88.7752 75.56L76.2209 80.04L66.1163 80.68L51.1124 81H37.9457L18.655 79.72L11.6124 75.56L11 66.6Z" fill="#C4C4C4"/>
<rect x="4.54297" y="4.70312" width="42.1858" height="19.5548" rx="4" fill="#A6A9B3"/>
</g>
<rect x="0.5" y="0.5" width="99" height="141" stroke="#C4C4C4"/>
<path d="M8.35715 51.064C7.93049 51.064 7.52249 51 7.13315 50.872C6.74382 50.7387 6.43715 50.568 6.21315 50.36L6.50915 49.736C6.72249 49.9227 6.99449 50.0773 7.32515 50.2C7.65582 50.3227 7.99982 50.384 8.35715 50.384C8.68249 50.384 8.94649 50.3467 9.14915 50.272C9.35182 50.1973 9.50115 50.096 9.59715 49.968C9.69315 49.8347 9.74115 49.6853 9.74115 49.52C9.74115 49.328 9.67715 49.1733 9.54915 49.056C9.42649 48.9387 9.26382 48.8453 9.06115 48.776C8.86382 48.7013 8.64515 48.6373 8.40515 48.584C8.16515 48.5307 7.92249 48.4693 7.67715 48.4C7.43715 48.3253 7.21582 48.232 7.01315 48.12C6.81582 48.008 6.65582 47.8587 6.53315 47.672C6.41049 47.48 6.34915 47.2347 6.34915 46.936C6.34915 46.648 6.42382 46.384 6.57315 46.144C6.72782 45.8987 6.96249 45.704 7.27715 45.56C7.59715 45.4107 8.00249 45.336 8.49315 45.336C8.81849 45.336 9.14115 45.3787 9.46115 45.464C9.78115 45.5493 10.0585 45.672 10.2932 45.832L10.0292 46.472C9.78915 46.312 9.53582 46.1973 9.26915 46.128C9.00249 46.0533 8.74382 46.016 8.49315 46.016C8.17849 46.016 7.91982 46.056 7.71715 46.136C7.51449 46.216 7.36515 46.3227 7.26915 46.456C7.17849 46.5893 7.13315 46.7387 7.13315 46.904C7.13315 47.1013 7.19449 47.2587 7.31715 47.376C7.44515 47.4933 7.60782 47.5867 7.80515 47.656C8.00782 47.7253 8.22915 47.7893 8.46915 47.848C8.70915 47.9013 8.94915 47.9627 9.18915 48.032C9.43449 48.1013 9.65582 48.192 9.85315 48.304C10.0558 48.416 10.2185 48.5653 10.3412 48.752C10.4638 48.9387 10.5252 49.1787 10.5252 49.472C10.5252 49.7547 10.4478 50.0187 10.2932 50.264C10.1385 50.504 9.89849 50.6987 9.57315 50.848C9.25315 50.992 8.84782 51.064 8.35715 51.064ZM13.5099 51.048C13.0566 51.048 12.6566 50.9547 12.3099 50.768C11.9686 50.5813 11.7019 50.3253 11.5099 50C11.3232 49.6747 11.2299 49.3013 11.2299 48.88C11.2299 48.4587 11.3206 48.0853 11.5019 47.76C11.6886 47.4347 11.9419 47.1813 12.2619 47C12.5872 46.8133 12.9526 46.72 13.3579 46.72C13.7686 46.72 14.1312 46.8107 14.4459 46.992C14.7606 47.1733 15.0059 47.4293 15.1819 47.76C15.3632 48.0853 15.4539 48.4667 15.4539 48.904C15.4539 48.936 15.4512 48.9733 15.4459 49.016C15.4459 49.0587 15.4432 49.0987 15.4379 49.136H11.8299V48.584H15.0379L14.7259 48.776C14.7312 48.504 14.6752 48.2613 14.5579 48.048C14.4406 47.8347 14.2779 47.6693 14.0699 47.552C13.8672 47.4293 13.6299 47.368 13.3579 47.368C13.0912 47.368 12.8539 47.4293 12.6459 47.552C12.4379 47.6693 12.2752 47.8373 12.1579 48.056C12.0406 48.2693 11.9819 48.5147 11.9819 48.792V48.92C11.9819 49.2027 12.0459 49.456 12.1739 49.68C12.3072 49.8987 12.4912 50.0693 12.7259 50.192C12.9606 50.3147 13.2299 50.376 13.5339 50.376C13.7846 50.376 14.0112 50.3333 14.2139 50.248C14.4219 50.1627 14.6032 50.0347 14.7579 49.864L15.1819 50.36C14.9899 50.584 14.7499 50.7547 14.4619 50.872C14.1792 50.9893 13.8619 51.048 13.5099 51.048ZM16.5603 51V45.064H17.3283V51H16.5603ZM20.7227 51.048C20.2694 51.048 19.8694 50.9547 19.5227 50.768C19.1814 50.5813 18.9147 50.3253 18.7227 50C18.536 49.6747 18.4427 49.3013 18.4427 48.88C18.4427 48.4587 18.5334 48.0853 18.7147 47.76C18.9014 47.4347 19.1547 47.1813 19.4747 47C19.8 46.8133 20.1654 46.72 20.5707 46.72C20.9814 46.72 21.344 46.8107 21.6587 46.992C21.9734 47.1733 22.2187 47.4293 22.3947 47.76C22.576 48.0853 22.6667 48.4667 22.6667 48.904C22.6667 48.936 22.664 48.9733 22.6587 49.016C22.6587 49.0587 22.656 49.0987 22.6507 49.136H19.0427V48.584H22.2507L21.9387 48.776C21.944 48.504 21.888 48.2613 21.7707 48.048C21.6534 47.8347 21.4907 47.6693 21.2827 47.552C21.08 47.4293 20.8427 47.368 20.5707 47.368C20.304 47.368 20.0667 47.4293 19.8587 47.552C19.6507 47.6693 19.488 47.8373 19.3707 48.056C19.2534 48.2693 19.1947 48.5147 19.1947 48.792V48.92C19.1947 49.2027 19.2587 49.456 19.3867 49.68C19.52 49.8987 19.704 50.0693 19.9387 50.192C20.1734 50.3147 20.4427 50.376 20.7467 50.376C20.9974 50.376 21.224 50.3333 21.4267 50.248C21.6347 50.1627 21.816 50.0347 21.9707 49.864L22.3947 50.36C22.2027 50.584 21.9627 50.7547 21.6747 50.872C21.392 50.9893 21.0747 51.048 20.7227 51.048ZM25.6212 51.048C25.1892 51.048 24.8025 50.9547 24.4612 50.768C24.1252 50.5813 23.8612 50.3253 23.6692 50C23.4772 49.6747 23.3812 49.3013 23.3812 48.88C23.3812 48.4587 23.4772 48.0853 23.6692 47.76C23.8612 47.4347 24.1252 47.1813 24.4612 47C24.8025 46.8133 25.1892 46.72 25.6212 46.72C26.0052 46.72 26.3465 46.7973 26.6452 46.952C26.9492 47.1013 27.1838 47.3253 27.3492 47.624L26.7652 48C26.6265 47.792 26.4558 47.64 26.2532 47.544C26.0558 47.4427 25.8425 47.392 25.6132 47.392C25.3358 47.392 25.0878 47.4533 24.8692 47.576C24.6505 47.6987 24.4772 47.872 24.3492 48.096C24.2212 48.3147 24.1572 48.576 24.1572 48.88C24.1572 49.184 24.2212 49.448 24.3492 49.672C24.4772 49.896 24.6505 50.0693 24.8692 50.192C25.0878 50.3147 25.3358 50.376 25.6132 50.376C25.8425 50.376 26.0558 50.328 26.2532 50.232C26.4558 50.1307 26.6265 49.976 26.7652 49.768L27.3492 50.136C27.1838 50.4293 26.9492 50.656 26.6452 50.816C26.3465 50.9707 26.0052 51.048 25.6212 51.048ZM29.8942 51.048C29.4675 51.048 29.1368 50.9333 28.9022 50.704C28.6675 50.4747 28.5502 50.1467 28.5502 49.72V45.832H29.3182V49.688C29.3182 49.9173 29.3742 50.0933 29.4862 50.216C29.6035 50.3387 29.7688 50.4 29.9822 50.4C30.2222 50.4 30.4222 50.3333 30.5822 50.2L30.8222 50.752C30.7048 50.8533 30.5635 50.928 30.3982 50.976C30.2382 51.024 30.0702 51.048 29.8942 51.048ZM27.8302 47.392V46.76H30.5342V47.392H27.8302ZM34.0911 51V46.384C34.0911 45.968 34.2111 45.6373 34.4511 45.392C34.6964 45.1413 35.0431 45.016 35.4911 45.016C35.6564 45.016 35.8138 45.0373 35.9631 45.08C36.1178 45.1173 36.2484 45.1787 36.3551 45.264L36.1231 45.848C36.0431 45.784 35.9524 45.736 35.8511 45.704C35.7498 45.6667 35.6431 45.648 35.5311 45.648C35.3071 45.648 35.1364 45.712 35.0191 45.84C34.9018 45.9627 34.8431 46.1467 34.8431 46.392V46.96L34.8591 47.312V51H34.0911ZM33.3711 47.392V46.76H36.0751V47.392H33.3711ZM36.8394 51V46.76H37.5754V47.912L37.5034 47.624C37.6207 47.3307 37.8181 47.1067 38.0954 46.952C38.3727 46.7973 38.7141 46.72 39.1194 46.72V47.464C39.0874 47.4587 39.0554 47.456 39.0234 47.456C38.9967 47.456 38.9701 47.456 38.9434 47.456C38.5327 47.456 38.2074 47.5787 37.9674 47.824C37.7274 48.0693 37.6074 48.424 37.6074 48.888V51H36.8394ZM41.8829 51.048C41.4562 51.048 41.0776 50.9547 40.7469 50.768C40.4162 50.5813 40.1549 50.3253 39.9629 50C39.7709 49.6693 39.6749 49.296 39.6749 48.88C39.6749 48.4587 39.7709 48.0853 39.9629 47.76C40.1549 47.4347 40.4162 47.1813 40.7469 47C41.0776 46.8133 41.4562 46.72 41.8829 46.72C42.3042 46.72 42.6802 46.8133 43.0109 47C43.3469 47.1813 43.6082 47.4347 43.7949 47.76C43.9869 48.08 44.0829 48.4533 44.0829 48.88C44.0829 49.3013 43.9869 49.6747 43.7949 50C43.6082 50.3253 43.3469 50.5813 43.0109 50.768C42.6802 50.9547 42.3042 51.048 41.8829 51.048ZM41.8829 50.376C42.1549 50.376 42.3976 50.3147 42.6109 50.192C42.8296 50.0693 43.0002 49.896 43.1229 49.672C43.2456 49.4427 43.3069 49.1787 43.3069 48.88C43.3069 48.576 43.2456 48.3147 43.1229 48.096C43.0002 47.872 42.8296 47.6987 42.6109 47.576C42.3976 47.4533 42.1549 47.392 41.8829 47.392C41.6109 47.392 41.3682 47.4533 41.1549 47.576C40.9416 47.6987 40.7709 47.872 40.6429 48.096C40.5149 48.3147 40.4509 48.576 40.4509 48.88C40.4509 49.1787 40.5149 49.4427 40.6429 49.672C40.7709 49.896 40.9416 50.0693 41.1549 50.192C41.3682 50.3147 41.6109 50.376 41.8829 50.376ZM50.489 46.72C50.8304 46.72 51.1317 46.7867 51.393 46.92C51.6544 47.0533 51.857 47.256 52.001 47.528C52.1504 47.8 52.225 48.144 52.225 48.56V51H51.457V48.648C51.457 48.2373 51.361 47.928 51.169 47.72C50.977 47.512 50.7077 47.408 50.361 47.408C50.105 47.408 49.881 47.4613 49.689 47.568C49.497 47.6747 49.3477 47.832 49.241 48.04C49.1397 48.248 49.089 48.5067 49.089 48.816V51H48.321V48.648C48.321 48.2373 48.225 47.928 48.033 47.72C47.8464 47.512 47.577 47.408 47.225 47.408C46.9744 47.408 46.753 47.4613 46.561 47.568C46.369 47.6747 46.2197 47.832 46.113 48.04C46.0064 48.248 45.953 48.5067 45.953 48.816V51H45.185V46.76H45.921V47.888L45.801 47.6C45.9344 47.3227 46.1397 47.1067 46.417 46.952C46.6944 46.7973 47.017 46.72 47.385 46.72C47.7904 46.72 48.1397 46.8213 48.433 47.024C48.7264 47.2213 48.9184 47.5227 49.009 47.928L48.697 47.8C48.825 47.4747 49.049 47.2133 49.369 47.016C49.689 46.8187 50.0624 46.72 50.489 46.72ZM55.9786 51V45.4H56.7786V51H55.9786ZM60.6472 46.72C60.9938 46.72 61.2978 46.7867 61.5592 46.92C61.8258 47.0533 62.0338 47.256 62.1832 47.528C62.3325 47.8 62.4072 48.144 62.4072 48.56V51H61.6392V48.648C61.6392 48.2373 61.5378 47.928 61.3352 47.72C61.1378 47.512 60.8578 47.408 60.4952 47.408C60.2232 47.408 59.9858 47.4613 59.7832 47.568C59.5805 47.6747 59.4232 47.832 59.3112 48.04C59.2045 48.248 59.1512 48.5067 59.1512 48.816V51H58.3832V46.76H59.1192V47.904L58.9992 47.6C59.1378 47.3227 59.3512 47.1067 59.6392 46.952C59.9272 46.7973 60.2632 46.72 60.6472 46.72ZM64.9023 51L63.0463 46.76H63.8463L65.4943 50.6H65.1103L66.7903 46.76H67.5423L65.6863 51H64.9023ZM70.0699 51.048C69.6166 51.048 69.2166 50.9547 68.8699 50.768C68.5286 50.5813 68.2619 50.3253 68.0699 50C67.8832 49.6747 67.7899 49.3013 67.7899 48.88C67.7899 48.4587 67.8806 48.0853 68.0619 47.76C68.2486 47.4347 68.5019 47.1813 68.8219 47C69.1472 46.8133 69.5126 46.72 69.9179 46.72C70.3286 46.72 70.6912 46.8107 71.0059 46.992C71.3206 47.1733 71.5659 47.4293 71.7419 47.76C71.9232 48.0853 72.0139 48.4667 72.0139 48.904C72.0139 48.936 72.0112 48.9733 72.0059 49.016C72.0059 49.0587 72.0032 49.0987 71.9979 49.136H68.3899V48.584H71.5979L71.2859 48.776C71.2912 48.504 71.2352 48.2613 71.1179 48.048C71.0006 47.8347 70.8379 47.6693 70.6299 47.552C70.4272 47.4293 70.1899 47.368 69.9179 47.368C69.6512 47.368 69.4139 47.4293 69.2059 47.552C68.9979 47.6693 68.8352 47.8373 68.7179 48.056C68.6006 48.2693 68.5419 48.5147 68.5419 48.792V48.92C68.5419 49.2027 68.6059 49.456 68.7339 49.68C68.8672 49.8987 69.0512 50.0693 69.2859 50.192C69.5206 50.3147 69.7899 50.376 70.0939 50.376C70.3446 50.376 70.5712 50.3333 70.7739 50.248C70.9819 50.1627 71.1632 50.0347 71.3179 49.864L71.7419 50.36C71.5499 50.584 71.3099 50.7547 71.0219 50.872C70.7392 50.9893 70.4219 51.048 70.0699 51.048ZM75.3843 46.72C75.731 46.72 76.035 46.7867 76.2963 46.92C76.563 47.0533 76.771 47.256 76.9203 47.528C77.0697 47.8 77.1443 48.144 77.1443 48.56V51H76.3763V48.648C76.3763 48.2373 76.275 47.928 76.0723 47.72C75.875 47.512 75.595 47.408 75.2323 47.408C74.9603 47.408 74.723 47.4613 74.5203 47.568C74.3177 47.6747 74.1603 47.832 74.0483 48.04C73.9417 48.248 73.8883 48.5067 73.8883 48.816V51H73.1203V46.76H73.8563V47.904L73.7363 47.6C73.875 47.3227 74.0883 47.1067 74.3763 46.952C74.6643 46.7973 75.0003 46.72 75.3843 46.72ZM80.0617 51.048C79.635 51.048 79.3043 50.9333 79.0697 50.704C78.835 50.4747 78.7177 50.1467 78.7177 49.72V45.832H79.4857V49.688C79.4857 49.9173 79.5417 50.0933 79.6537 50.216C79.771 50.3387 79.9363 50.4 80.1497 50.4C80.3897 50.4 80.5897 50.3333 80.7497 50.2L80.9897 50.752C80.8723 50.8533 80.731 50.928 80.5657 50.976C80.4057 51.024 80.2377 51.048 80.0617 51.048ZM77.9977 47.392V46.76H80.7017V47.392H77.9977ZM83.6335 51.048C83.2069 51.048 82.8282 50.9547 82.4975 50.768C82.1669 50.5813 81.9055 50.3253 81.7135 50C81.5215 49.6693 81.4255 49.296 81.4255 48.88C81.4255 48.4587 81.5215 48.0853 81.7135 47.76C81.9055 47.4347 82.1669 47.1813 82.4975 47C82.8282 46.8133 83.2069 46.72 83.6335 46.72C84.0549 46.72 84.4309 46.8133 84.7615 47C85.0975 47.1813 85.3589 47.4347 85.5455 47.76C85.7375 48.08 85.8335 48.4533 85.8335 48.88C85.8335 49.3013 85.7375 49.6747 85.5455 50C85.3589 50.3253 85.0975 50.5813 84.7615 50.768C84.4309 50.9547 84.0549 51.048 83.6335 51.048ZM83.6335 50.376C83.9055 50.376 84.1482 50.3147 84.3615 50.192C84.5802 50.0693 84.7509 49.896 84.8735 49.672C84.9962 49.4427 85.0575 49.1787 85.0575 48.88C85.0575 48.576 84.9962 48.3147 84.8735 48.096C84.7509 47.872 84.5802 47.6987 84.3615 47.576C84.1482 47.4533 83.9055 47.392 83.6335 47.392C83.3615 47.392 83.1189 47.4533 82.9055 47.576C82.6922 47.6987 82.5215 47.872 82.3935 48.096C82.2655 48.3147 82.2015 48.576 82.2015 48.88C82.2015 49.1787 82.2655 49.4427 82.3935 49.672C82.5215 49.896 82.6922 50.0693 82.9055 50.192C83.1189 50.3147 83.3615 50.376 83.6335 50.376ZM86.9357 51V46.76H87.6717V47.912L87.5997 47.624C87.717 47.3307 87.9143 47.1067 88.1917 46.952C88.469 46.7973 88.8103 46.72 89.2157 46.72V47.464C89.1837 47.4587 89.1517 47.456 89.1197 47.456C89.093 47.456 89.0663 47.456 89.0397 47.456C88.629 47.456 88.3037 47.5787 88.0637 47.824C87.8237 48.0693 87.7037 48.424 87.7037 48.888V51H86.9357ZM90.5581 52.6C90.3554 52.6 90.1581 52.5653 89.9661 52.496C89.7741 52.432 89.6088 52.336 89.4701 52.208L89.7981 51.632C89.9048 51.7333 90.0221 51.8107 90.1501 51.864C90.2781 51.9173 90.4141 51.944 90.5581 51.944C90.7448 51.944 90.8994 51.896 91.0221 51.8C91.1448 51.704 91.2594 51.5333 91.3661 51.288L91.6301 50.704L91.7101 50.608L93.3741 46.76H94.1261L92.0701 51.424C91.9474 51.7227 91.8088 51.9573 91.6541 52.128C91.5048 52.2987 91.3394 52.4187 91.1581 52.488C90.9768 52.5627 90.7768 52.6 90.5581 52.6ZM91.5661 51.136L89.6301 46.76H90.4301L92.0781 50.536L91.5661 51.136Z" fill="black"/>
<path d="M15.2656 76.096C14.4709 76.096 13.8496 75.8747 13.4016 75.432C12.9536 74.9893 12.7296 74.3573 12.7296 73.536V70.4H14.0256V73.488C14.0256 74.0213 14.1349 74.4053 14.3536 74.64C14.5723 74.8747 14.8789 74.992 15.2736 74.992C15.6683 74.992 15.9749 74.8747 16.1936 74.64C16.4123 74.4053 16.5216 74.0213 16.5216 73.488V70.4H17.8016V73.536C17.8016 74.3573 17.5776 74.9893 17.1296 75.432C16.6816 75.8747 16.0603 76.096 15.2656 76.096ZM21.5783 76.064C21.2156 76.064 20.8983 75.984 20.6263 75.824C20.3543 75.664 20.1409 75.4213 19.9863 75.096C19.8369 74.7653 19.7623 74.3493 19.7623 73.848C19.7623 73.3413 19.8343 72.9253 19.9783 72.6C20.1223 72.2747 20.3303 72.032 20.6023 71.872C20.8743 71.712 21.1996 71.632 21.5783 71.632C21.9836 71.632 22.3463 71.7253 22.6663 71.912C22.9916 72.0933 23.2476 72.3493 23.4343 72.68C23.6263 73.0107 23.7223 73.4 23.7223 73.848C23.7223 74.3013 23.6263 74.6933 23.4343 75.024C23.2476 75.3547 22.9916 75.6107 22.6663 75.792C22.3463 75.9733 21.9836 76.064 21.5783 76.064ZM19.0343 77.552V71.696H20.2263V72.576L20.2023 73.856L20.2823 75.128V77.552H19.0343ZM21.3623 75.04C21.5703 75.04 21.7543 74.992 21.9143 74.896C22.0796 74.8 22.2103 74.664 22.3063 74.488C22.4076 74.3067 22.4583 74.0933 22.4583 73.848C22.4583 73.5973 22.4076 73.384 22.3063 73.208C22.2103 73.032 22.0796 72.896 21.9143 72.8C21.7543 72.704 21.5703 72.656 21.3623 72.656C21.1543 72.656 20.9676 72.704 20.8023 72.8C20.6369 72.896 20.5063 73.032 20.4103 73.208C20.3143 73.384 20.2663 73.5973 20.2663 73.848C20.2663 74.0933 20.3143 74.3067 20.4103 74.488C20.5063 74.664 20.6369 74.8 20.8023 74.896C20.9676 74.992 21.1543 75.04 21.3623 75.04ZM28.6633 76.064C28.1567 76.064 27.762 75.936 27.4793 75.68C27.1967 75.4187 27.0553 75.032 27.0553 74.52V70.744H28.3033V74.504C28.3033 74.6853 28.3513 74.8267 28.4473 74.928C28.5433 75.024 28.674 75.072 28.8393 75.072C29.0367 75.072 29.2047 75.0187 29.3433 74.912L29.6793 75.792C29.5513 75.8827 29.3967 75.952 29.2153 76C29.0393 76.0427 28.8553 76.064 28.6633 76.064ZM26.3913 72.752V71.792H29.3753V72.752H26.3913ZM32.3351 76.064C31.8764 76.064 31.4684 75.968 31.1111 75.776C30.7591 75.584 30.4791 75.3227 30.2711 74.992C30.0684 74.656 29.9671 74.2747 29.9671 73.848C29.9671 73.416 30.0684 73.0347 30.2711 72.704C30.4791 72.368 30.7591 72.1067 31.1111 71.92C31.4684 71.728 31.8764 71.632 32.3351 71.632C32.7884 71.632 33.1938 71.728 33.5511 71.92C33.9084 72.1067 34.1884 72.3653 34.3911 72.696C34.5938 73.0267 34.6951 73.4107 34.6951 73.848C34.6951 74.2747 34.5938 74.656 34.3911 74.992C34.1884 75.3227 33.9084 75.584 33.5511 75.776C33.1938 75.968 32.7884 76.064 32.3351 76.064ZM32.3351 75.04C32.5431 75.04 32.7298 74.992 32.8951 74.896C33.0604 74.8 33.1911 74.664 33.2871 74.488C33.3831 74.3067 33.4311 74.0933 33.4311 73.848C33.4311 73.5973 33.3831 73.384 33.2871 73.208C33.1911 73.032 33.0604 72.896 32.8951 72.8C32.7298 72.704 32.5431 72.656 32.3351 72.656C32.1271 72.656 31.9404 72.704 31.7751 72.8C31.6098 72.896 31.4764 73.032 31.3751 73.208C31.2791 73.384 31.2311 73.5973 31.2311 73.848C31.2311 74.0933 31.2791 74.3067 31.3751 74.488C31.4764 74.664 31.6098 74.8 31.7751 74.896C31.9404 74.992 32.1271 75.04 32.3351 75.04ZM39.6349 76.064C39.1282 76.064 38.7336 75.936 38.4509 75.68C38.1682 75.4187 38.0269 75.032 38.0269 74.52V70.744H39.2749V74.504C39.2749 74.6853 39.3229 74.8267 39.4189 74.928C39.5149 75.024 39.6456 75.072 39.8109 75.072C40.0082 75.072 40.1762 75.0187 40.3149 74.912L40.6509 75.792C40.5229 75.8827 40.3682 75.952 40.1869 76C40.0109 76.0427 39.8269 76.064 39.6349 76.064ZM37.3629 72.752V71.792H40.3469V72.752H37.3629ZM44.0075 71.632C44.3488 71.632 44.6528 71.7013 44.9195 71.84C45.1915 71.9733 45.4048 72.1813 45.5595 72.464C45.7141 72.7413 45.7915 73.0987 45.7915 73.536V76H44.5435V73.728C44.5435 73.3813 44.4661 73.1253 44.3115 72.96C44.1621 72.7947 43.9488 72.712 43.6715 72.712C43.4741 72.712 43.2955 72.7547 43.1355 72.84C42.9808 72.92 42.8581 73.0453 42.7675 73.216C42.6821 73.3867 42.6395 73.6053 42.6395 73.872V76H41.3915V70.064H42.6395V72.888L42.3595 72.528C42.5141 72.24 42.7355 72.0187 43.0235 71.864C43.3115 71.7093 43.6395 71.632 44.0075 71.632ZM46.9627 76V71.696H48.1547V72.912L47.9867 72.56C48.1147 72.256 48.3201 72.0267 48.6027 71.872C48.8854 71.712 49.2294 71.632 49.6347 71.632V72.784C49.5814 72.7787 49.5334 72.776 49.4907 72.776C49.4481 72.7707 49.4027 72.768 49.3547 72.768C49.0134 72.768 48.7361 72.8667 48.5227 73.064C48.3147 73.256 48.2107 73.5573 48.2107 73.968V76H46.9627ZM52.5215 76.064C52.0309 76.064 51.5989 75.968 51.2255 75.776C50.8575 75.584 50.5722 75.3227 50.3695 74.992C50.1669 74.656 50.0655 74.2747 50.0655 73.848C50.0655 73.416 50.1642 73.0347 50.3615 72.704C50.5642 72.368 50.8389 72.1067 51.1855 71.92C51.5322 71.728 51.9242 71.632 52.3615 71.632C52.7829 71.632 53.1615 71.7227 53.4975 71.904C53.8389 72.08 54.1082 72.336 54.3055 72.672C54.5029 73.0027 54.6015 73.4 54.6015 73.864C54.6015 73.912 54.5989 73.968 54.5935 74.032C54.5882 74.0907 54.5829 74.1467 54.5775 74.2H51.0815V73.472H53.9215L53.4415 73.688C53.4415 73.464 53.3962 73.2693 53.3055 73.104C53.2149 72.9387 53.0895 72.8107 52.9295 72.72C52.7695 72.624 52.5829 72.576 52.3695 72.576C52.1562 72.576 51.9669 72.624 51.8015 72.72C51.6415 72.8107 51.5162 72.9413 51.4255 73.112C51.3349 73.2773 51.2895 73.4747 51.2895 73.704V73.896C51.2895 74.1307 51.3402 74.3387 51.4415 74.52C51.5482 74.696 51.6949 74.832 51.8815 74.928C52.0735 75.0187 52.2975 75.064 52.5535 75.064C52.7829 75.064 52.9829 75.0293 53.1535 74.96C53.3295 74.8907 53.4895 74.7867 53.6335 74.648L54.2975 75.368C54.1002 75.592 53.8522 75.7653 53.5535 75.888C53.2549 76.0053 52.9109 76.064 52.5215 76.064ZM57.6084 76.064C57.1177 76.064 56.6857 75.968 56.3124 75.776C55.9444 75.584 55.6591 75.3227 55.4564 74.992C55.2537 74.656 55.1524 74.2747 55.1524 73.848C55.1524 73.416 55.2511 73.0347 55.4484 72.704C55.6511 72.368 55.9257 72.1067 56.2724 71.92C56.6191 71.728 57.0111 71.632 57.4484 71.632C57.8697 71.632 58.2484 71.7227 58.5844 71.904C58.9257 72.08 59.1951 72.336 59.3924 72.672C59.5897 73.0027 59.6884 73.4 59.6884 73.864C59.6884 73.912 59.6857 73.968 59.6804 74.032C59.6751 74.0907 59.6697 74.1467 59.6644 74.2H56.1684V73.472H59.0084L58.5284 73.688C58.5284 73.464 58.4831 73.2693 58.3924 73.104C58.3017 72.9387 58.1764 72.8107 58.0164 72.72C57.8564 72.624 57.6697 72.576 57.4564 72.576C57.2431 72.576 57.0537 72.624 56.8884 72.72C56.7284 72.8107 56.6031 72.9413 56.5124 73.112C56.4217 73.2773 56.3764 73.4747 56.3764 73.704V73.896C56.3764 74.1307 56.4271 74.3387 56.5284 74.52C56.6351 74.696 56.7817 74.832 56.9684 74.928C57.1604 75.0187 57.3844 75.064 57.6404 75.064C57.8697 75.064 58.0697 75.0293 58.2404 74.96C58.4164 74.8907 58.5764 74.7867 58.7204 74.648L59.3844 75.368C59.1871 75.592 58.9391 75.7653 58.6404 75.888C58.3417 76.0053 57.9977 76.064 57.6084 76.064ZM62.8649 76V71.696H64.1129V76H62.8649ZM63.4889 71.096C63.2596 71.096 63.0729 71.0293 62.9289 70.896C62.7849 70.7627 62.7129 70.5973 62.7129 70.4C62.7129 70.2027 62.7849 70.0373 62.9289 69.904C63.0729 69.7707 63.2596 69.704 63.4889 69.704C63.7182 69.704 63.9049 69.768 64.0489 69.896C64.1929 70.0187 64.2649 70.1787 64.2649 70.376C64.2649 70.584 64.1929 70.7573 64.0489 70.896C63.9102 71.0293 63.7236 71.096 63.4889 71.096ZM67.0712 76.064C66.5645 76.064 66.1698 75.936 65.8872 75.68C65.6045 75.4187 65.4632 75.032 65.4632 74.52V70.744H66.7112V74.504C66.7112 74.6853 66.7592 74.8267 66.8552 74.928C66.9512 75.024 67.0818 75.072 67.2472 75.072C67.4445 75.072 67.6125 75.0187 67.7512 74.912L68.0872 75.792C67.9592 75.8827 67.8045 75.952 67.6232 76C67.4472 76.0427 67.2632 76.064 67.0712 76.064ZM64.7992 72.752V71.792H67.7832V72.752H64.7992ZM70.8309 76.064C70.3402 76.064 69.9082 75.968 69.5349 75.776C69.1669 75.584 68.8816 75.3227 68.6789 74.992C68.4762 74.656 68.3749 74.2747 68.3749 73.848C68.3749 73.416 68.4736 73.0347 68.6709 72.704C68.8736 72.368 69.1482 72.1067 69.4949 71.92C69.8416 71.728 70.2336 71.632 70.6709 71.632C71.0922 71.632 71.4709 71.7227 71.8069 71.904C72.1482 72.08 72.4176 72.336 72.6149 72.672C72.8122 73.0027 72.9109 73.4 72.9109 73.864C72.9109 73.912 72.9082 73.968 72.9029 74.032C72.8976 74.0907 72.8922 74.1467 72.8869 74.2H69.3909V73.472H72.2309L71.7509 73.688C71.7509 73.464 71.7056 73.2693 71.6149 73.104C71.5242 72.9387 71.3989 72.8107 71.2389 72.72C71.0789 72.624 70.8922 72.576 70.6789 72.576C70.4656 72.576 70.2762 72.624 70.1109 72.72C69.9509 72.8107 69.8256 72.9413 69.7349 73.112C69.6442 73.2773 69.5989 73.4747 69.5989 73.704V73.896C69.5989 74.1307 69.6496 74.3387 69.7509 74.52C69.8576 74.696 70.0042 74.832 70.1909 74.928C70.3829 75.0187 70.6069 75.064 70.8629 75.064C71.0922 75.064 71.2922 75.0293 71.4629 74.96C71.6389 74.8907 71.7989 74.7867 71.9429 74.648L72.6069 75.368C72.4096 75.592 72.1616 75.7653 71.8629 75.888C71.5642 76.0053 71.2202 76.064 70.8309 76.064ZM79.2938 71.632C79.6351 71.632 79.9364 71.7013 80.1978 71.84C80.4644 71.9733 80.6724 72.1813 80.8218 72.464C80.9764 72.7413 81.0538 73.0987 81.0538 73.536V76H79.8058V73.728C79.8058 73.3813 79.7338 73.1253 79.5898 72.96C79.4458 72.7947 79.2431 72.712 78.9818 72.712C78.8004 72.712 78.6378 72.7547 78.4938 72.84C78.3498 72.92 78.2378 73.0427 78.1578 73.208C78.0778 73.3733 78.0378 73.584 78.0378 73.84V76H76.7898V73.728C76.7898 73.3813 76.7178 73.1253 76.5738 72.96C76.4351 72.7947 76.2351 72.712 75.9738 72.712C75.7924 72.712 75.6298 72.7547 75.4858 72.84C75.3418 72.92 75.2298 73.0427 75.1498 73.208C75.0698 73.3733 75.0298 73.584 75.0298 73.84V76H73.7818V71.696H74.9738V72.872L74.7498 72.528C74.8991 72.2347 75.1098 72.0133 75.3818 71.864C75.6591 71.7093 75.9738 71.632 76.3258 71.632C76.7204 71.632 77.0644 71.7333 77.3578 71.936C77.6564 72.1333 77.8538 72.4373 77.9498 72.848L77.5098 72.728C77.6538 72.392 77.8831 72.1253 78.1978 71.928C78.5178 71.7307 78.8831 71.632 79.2938 71.632ZM83.6604 76.064C83.2924 76.064 82.9377 76.0213 82.5964 75.936C82.2604 75.8453 81.9937 75.7333 81.7964 75.6L82.2124 74.704C82.4097 74.8267 82.6417 74.928 82.9084 75.008C83.1804 75.0827 83.4471 75.12 83.7084 75.12C83.9964 75.12 84.1991 75.0853 84.3164 75.016C84.4391 74.9467 84.5004 74.8507 84.5004 74.728C84.5004 74.6267 84.4524 74.552 84.3564 74.504C84.2657 74.4507 84.1431 74.4107 83.9884 74.384C83.8337 74.3573 83.6631 74.3307 83.4764 74.304C83.2951 74.2773 83.1111 74.2427 82.9244 74.2C82.7377 74.152 82.5671 74.0827 82.4124 73.992C82.2577 73.9013 82.1324 73.7787 82.0364 73.624C81.9457 73.4693 81.9004 73.2693 81.9004 73.024C81.9004 72.752 81.9777 72.512 82.1324 72.304C82.2924 72.096 82.5217 71.9333 82.8204 71.816C83.1191 71.6933 83.4764 71.632 83.8924 71.632C84.1857 71.632 84.4844 71.664 84.7884 71.728C85.0924 71.792 85.3457 71.8853 85.5484 72.008L85.1324 72.896C84.9244 72.7733 84.7137 72.6907 84.5004 72.648C84.2924 72.6 84.0897 72.576 83.8924 72.576C83.6151 72.576 83.4124 72.6133 83.2844 72.688C83.1564 72.7627 83.0924 72.8587 83.0924 72.976C83.0924 73.0827 83.1377 73.1627 83.2284 73.216C83.3244 73.2693 83.4497 73.312 83.6044 73.344C83.7591 73.376 83.9271 73.4053 84.1084 73.432C84.2951 73.4533 84.4817 73.488 84.6684 73.536C84.8551 73.584 85.0231 73.6533 85.1724 73.744C85.3271 73.8293 85.4524 73.9493 85.5484 74.104C85.6444 74.2533 85.6924 74.4507 85.6924 74.696C85.6924 74.9627 85.6124 75.2 85.4524 75.408C85.2924 75.6107 85.0604 75.7707 84.7564 75.888C84.4577 76.0053 84.0924 76.064 83.6604 76.064Z" fill="#626262"/>
</svg>
