<svg width="136" height="127" viewBox="0 0 136 127" fill="none" xmlns="http://www.w3.org/2000/svg">
<g clip-path="url(#clip0_0_1)">
<path d="M76.3141 127.007C73.8897 118.888 71.6463 111.372 69.293 103.503L34 109.921C34.7887 108.689 35.2154 107.932 35.7262 107.245C41.2086 99.9601 46.6522 92.6497 52.2316 85.4227C53.46 83.831 53.5763 82.6308 52.5807 80.885C51.0097 78.1251 49.7619 75.1856 47.9323 71.3924L64.8968 81.0198L51.3653 99.0615L74.6397 94.8961C76.1137 99.7675 77.5296 104.434 79.107 109.658C82.5465 104.652 85.792 100.146 88.8047 95.4865C90.0266 93.5611 91.0481 93.2337 93.1687 94.1708C99.1261 96.8523 105.253 99.1463 111.51 101.038L102.272 82.0274L117.503 72.7851L97.8623 66.7391L107.14 50.0195C107.728 53.8705 108.336 56.7908 108.575 59.756C108.73 61.6815 109.48 62.471 111.349 63.0037C119.365 65.3014 127.33 67.8046 136.032 70.4489L112.111 84.9157L127.498 116.487L93.2915 102.425L76.3141 127.007Z" fill="#A3B5FF"/>
</g>
<path d="M91.0705 55.3596L49.1855 23.9998L60.288 15.6799C60.4871 15.5309 60.6487 15.3376 60.76 15.1154C60.8713 14.8933 60.9293 14.6483 60.9293 14.3999C60.9293 10.5808 59.4091 6.91814 56.703 4.21763C53.997 1.51713 50.3269 0 46.5 0C42.6731 0 39.003 1.51713 36.297 4.21763C33.5909 6.91814 32.0707 10.5808 32.0707 14.3999C32.0707 14.8242 32.2396 15.2312 32.5403 15.5313C32.841 15.8313 33.2488 15.9999 33.674 15.9999C34.0992 15.9999 34.507 15.8313 34.8076 15.5313C35.1083 15.2312 35.2772 14.8242 35.2772 14.3999C35.321 11.5252 36.471 8.77732 38.4889 6.72534C40.5068 4.67337 43.2382 3.47442 46.1175 3.37676C48.9968 3.27909 51.8034 4.29019 53.9563 6.20069C56.1092 8.11119 57.4434 10.7748 57.6827 13.6399L45.5781 22.6798L45.498 22.7598L1.92954 55.3596C1.1204 55.9634 0.52233 56.8061 0.220161 57.7682C-0.0820076 58.7303 -0.0729252 59.7629 0.24612 60.7196C0.555174 61.6827 1.166 62.5212 1.98863 63.1117C2.81125 63.7022 3.80216 64.0135 4.81539 63.9996H88.1846C89.1978 64.0135 90.1888 63.7022 91.0114 63.1117C91.834 62.5212 92.4448 61.6827 92.7539 60.7196C93.0729 59.7629 93.082 58.7303 92.7798 57.7682C92.4777 56.8061 91.8796 55.9634 91.0705 55.3596ZM89.7077 59.7196C89.6042 60.0393 89.4001 60.3171 89.1256 60.5117C88.8512 60.7063 88.5212 60.8072 88.1846 60.7996H4.81539C4.47884 60.8072 4.1488 60.7063 3.87437 60.5117C3.59994 60.3171 3.3958 60.0393 3.2923 59.7196C3.18284 59.3989 3.1782 59.0518 3.27904 58.7284C3.37988 58.4049 3.58101 58.1217 3.85344 57.9196L46.5 25.9998L89.1466 57.9196C89.419 58.1217 89.6201 58.4049 89.721 58.7284C89.8218 59.0518 89.8172 59.3989 89.7077 59.7196Z" fill="#41595F"/>
<defs>
<clipPath id="clip0_0_1">
<rect width="102" height="77" fill="white" transform="translate(34 50)"/>
</clipPath>
</defs>
</svg>
