<svg width="107" height="107" viewBox="0 0 107 107" fill="none" xmlns="http://www.w3.org/2000/svg">
<g clip-path="url(#clip0_19825_396354)">
<path d="M71.0328 30.4683C71.0328 33.4241 62.6834 35.8149 52.3713 35.8149C42.0625 35.8149 33.7148 33.4241 33.7148 30.4683V5.33997C33.7148 2.39078 42.0625 0 52.3713 0C62.6834 0 71.0328 2.39078 71.0328 5.33997V30.4683ZM71.0328 101.794C71.0328 104.745 62.6834 107.134 52.3713 107.134C42.0625 107.134 33.7148 104.743 33.7148 101.794V76.6655C33.7148 73.7096 42.0625 71.3205 52.3713 71.3205C62.6834 71.3205 71.0328 73.7113 71.0328 76.6655V101.794Z" fill="#41595F"/>
<path d="M85.684 51.161C85.684 69.2841 70.9966 83.9698 52.8718 83.9698C34.747 83.9698 20.0596 69.2824 20.0596 51.161C20.0596 33.0395 34.747 20.4219 52.8718 20.4219C70.9966 20.4219 85.684 33.0378 85.684 51.161Z" fill="#A3B5FF"/>
<path d="M79 51.1127C79 66.5169 66.9124 79 52 79C37.0876 79 25 66.5169 25 51.1127C25 35.7142 37.0876 25 52 25C66.9124 25 79 35.7142 79 51.1127Z" fill="white"/>
<path d="M55.9089 53.4905C55.9089 55.48 54.329 57.09 52.3746 57.09C50.4219 57.09 48.8369 55.48 48.8369 53.4905V36.5644C48.8369 34.5749 50.4202 32.9648 52.3746 32.9648C54.329 32.9648 55.9089 34.5732 55.9089 36.5644V53.4905Z" fill="#25333A"/>
<path d="M52.5853 57.0928C50.5121 57.0928 48.8369 55.996 48.8369 54.6485C48.8369 53.296 50.5088 52.1992 52.5853 52.1992H70.2302C72.3034 52.1992 73.9802 53.296 73.9802 54.6485C73.9802 55.996 72.3084 57.0928 70.2302 57.0928H52.5853Z" fill="#25333A"/>
</g>
<defs>
<clipPath id="clip0_19825_396354">
<rect width="107" height="107" fill="white"/>
</clipPath>
</defs>
</svg>
