<svg width="94" height="94" viewBox="0 0 94 94" fill="none" xmlns="http://www.w3.org/2000/svg">
<g clip-path="url(#clip0_1533_167560)">
<path d="M64.5623 46.9058L88.6538 25.9752V67.5976L64.5623 46.9058ZM33.5188 50.4504L41.9788 57.7942C43.3066 58.9222 45.0378 59.6037 46.9295 59.6037H46.9961H46.9922H47.047C48.9427 59.6037 50.6738 58.9183 52.0173 57.7824L52.0055 57.7903L60.4655 50.4465L86.1823 72.5326H7.81375L33.5188 50.4504ZM7.7785 21.0128H86.2293L48.5471 53.7404C48.1234 54.0755 47.5989 54.2577 47.0588 54.2574H47.0039H47.0078H46.953C46.4109 54.2581 45.8847 54.0744 45.4608 53.7365L45.4647 53.7404L7.7785 21.0128ZM5.34625 25.9713L29.4338 46.9019L5.34625 67.5819V25.9713ZM89.9463 16.4107C89.0063 15.9407 87.9017 15.6665 86.7307 15.6665H7.28108C6.14588 15.6668 5.02628 15.9309 4.01067 16.4381L4.05375 16.4185C2.83791 17.0182 1.814 17.9459 1.09766 19.0969C0.381329 20.2479 0.00112545 21.5762 0 22.9319L0 70.6056C0.0020735 72.535 0.769439 74.3847 2.13372 75.749C3.49801 77.1133 5.34778 77.8807 7.27717 77.8828H86.7189C88.6483 77.8807 90.4981 77.1133 91.8624 75.749C93.2266 74.3847 93.994 72.535 93.9961 70.6056V22.9319C93.9961 20.0845 92.355 17.617 89.9658 16.4303L89.9228 16.4107H89.9463Z" fill="#41595F"/>
</g>
<defs>
<clipPath id="clip0_1533_167560">
<rect width="94" height="94" fill="white"/>
</clipPath>
</defs>
</svg>
