<svg width="117" height="123" viewBox="0 0 117 123" fill="none" xmlns="http://www.w3.org/2000/svg">
<rect width="66" height="122.862" rx="12" fill="#41595F"/>
<rect x="5.07812" y="7.10742" width="55.8462" height="108.646" fill="white"/>
<path d="M21.3281 7.10742H45.6974V7.16896C45.6974 9.3781 43.9065 11.169 41.6974 11.169H25.3281C23.119 11.169 21.3281 9.3781 21.3281 7.16896V7.10742Z" fill="#41595F"/>
<line x1="19.2891" y1="110.692" x2="46.7044" y2="110.692" stroke="#FAFAFA" stroke-width="2"/>
<g clip-path="url(#clip0_7148_266601)">
<path d="M116.996 63.0164C116.911 71.5787 113.61 81.8911 107.05 91.1519C105.934 92.7256 104.434 93.2526 102.614 92.8948C101.092 92.5933 99.8811 91.1519 99.635 89.4311C99.4426 88.0805 100.081 86.9946 100.816 85.9528C103.98 81.5362 106.269 76.5477 107.557 71.26C110.805 57.7471 108.46 45.2963 100.522 33.9078C99.0285 31.758 99.2087 29.2749 100.987 27.9169C102.977 26.3947 105.481 26.7648 106.958 29.0494C108.777 31.8635 110.587 34.7192 112.044 37.7342C115.425 44.7374 116.996 52.3755 116.996 63.0164Z" fill="#A3B5FF"/>
<path d="M101.222 60.1924C101.149 67.1196 99.3783 73.5664 95.7706 79.4788C94.7548 81.1408 93.1617 81.8149 91.3298 81.4398C90.5329 81.2759 89.8097 80.8582 89.267 80.2485C88.7243 79.6389 88.391 78.8697 88.3165 78.0546C88.2466 77.0915 88.4601 76.129 88.9304 75.2872C92.2993 69.6199 93.6952 63.5212 93.0009 56.969C92.5527 52.7283 91.2543 48.7352 88.9085 45.149C87.1448 42.4526 88.4213 39.141 91.5515 38.5699C93.3395 38.2414 94.7183 39.1067 95.6293 40.5897C98.6597 45.5241 100.56 50.8555 101.018 56.6748C101.066 57.2827 101.178 57.8857 101.215 58.4936C101.249 59.0501 101.222 59.6237 101.222 60.1924Z" fill="#A3B5FF"/>
<path d="M81.8781 64.5729C79.8757 64.5729 78.0073 62.7025 78 60.6803C77.9927 58.658 79.8562 56.7754 81.8635 56.7705C83.8707 56.7656 85.7343 58.6408 85.7391 60.6656C85.744 62.6903 83.8878 64.5729 81.8781 64.5729Z" fill="#A3B5FF"/>
</g>
<defs>
<clipPath id="clip0_7148_266601">
<rect width="39" height="66" fill="white" transform="translate(78 27)"/>
</clipPath>
</defs>
</svg>
