<svg width="109" height="110" viewBox="0 0 109 110" fill="none" xmlns="http://www.w3.org/2000/svg">
<rect width="56" height="110" rx="9" fill="#313131"/>
<rect x="2" y="2" width="52" height="106" rx="8" fill="white"/>
<path d="M16 2H40.3692V2.06154C40.3692 4.27068 38.5784 6.06154 36.3692 6.06154H20C17.7909 6.06154 16 4.27068 16 2.06154V2Z" fill="#313131"/>
<line x1="11.2891" y1="89.6914" x2="38.7044" y2="89.6914" stroke="#FAFAFA" stroke-width="2"/>
<g clip-path="url(#clip0_1_6606)">
<path d="M100.529 50.4937L100.528 50.4967C99.2103 55.9074 96.8687 61.0122 93.6315 65.5322C92.9054 66.5608 92.4925 67.3582 92.625 68.2896L100.529 50.4937ZM100.529 50.4937C103.844 36.7035 101.444 23.9598 93.3426 12.3366C92.0676 10.5006 92.3527 8.65958 93.5939 7.71169L93.5945 7.71123M100.529 50.4937L93.5945 7.71123M93.5945 7.71123C94.3936 7.10004 95.2382 6.90689 95.9905 7.04027C96.7408 7.17331 97.5096 7.65111 98.1177 8.59213L98.1179 8.59242M93.5945 7.71123L98.1179 8.59242M98.1179 8.59242C99.9385 11.4079 101.717 14.2164 103.143 17.169C106.442 24.0018 107.996 31.4812 107.996 42.0114C107.912 50.3437 104.691 60.4592 98.2342 69.5739M98.1179 8.59242L98.2342 69.5739M98.2342 69.5739C97.7714 70.2265 97.2674 70.6116 96.7391 70.8136C96.2075 71.0169 95.574 71.0642 94.8082 70.9137M98.2342 69.5739L94.8082 70.9137M94.8082 70.9137C93.7823 70.7104 92.8235 69.6768 92.625 68.2901L94.8082 70.9137Z" stroke="black" stroke-width="2"/>
<path d="M83.7322 18.5529L83.731 18.5531C82.499 18.7779 81.6849 19.5208 81.3244 20.4304C80.961 21.3476 81.0313 22.5094 81.7453 23.6011L83.7322 18.5529ZM83.7322 18.5529C85.0123 18.3177 86.0227 18.8844 86.7772 20.1125L83.7322 18.5529ZM92.0209 35.7542L92.0208 35.7528C91.5766 30.109 89.7347 24.9283 86.7773 20.1126L92.0209 35.7542ZM92.0209 35.7542C92.0451 36.0568 92.0836 36.3568 92.1186 36.6296C92.1221 36.6568 92.1256 36.6838 92.129 36.7104C92.1678 37.014 92.2008 37.2865 92.2168 37.5532L92.2169 37.5543M92.0209 35.7542L92.2169 37.5543M92.2169 37.5543C92.2382 37.9023 92.2333 38.2362 92.2278 38.6104C92.2252 38.791 92.2224 38.981 92.2223 39.1865M92.2169 37.5543L92.2223 39.1865M92.2223 39.1865C92.1502 45.9392 90.426 52.2066 86.9171 57.9572C86.5013 58.6373 85.9977 59.0697 85.456 59.3063C84.9143 59.5429 84.2711 59.6113 83.5304 59.4597C82.9456 59.3391 82.4137 59.0323 82.0139 58.5832C81.6159 58.136 81.37 57.5715 81.3132 56.9723C81.2598 56.211 81.4283 55.451 81.7973 54.7853C85.2677 48.942 86.7125 42.6321 85.9954 35.8634L92.2223 39.1865ZM85.9953 35.8631C85.5324 31.484 84.188 27.3354 81.7453 23.6011L85.9953 35.8631Z" stroke="black" stroke-width="2"/>
<path d="M73.8781 42.5719C73.1869 42.5719 72.4635 42.2439 71.899 41.6778C71.3349 41.1121 71.0026 40.3815 71 39.6757C70.9975 38.9714 71.3254 38.2393 71.8874 37.671C72.4496 37.1023 73.1729 36.7712 73.8659 36.7695C74.5581 36.7678 75.2802 37.0952 75.8432 37.6611C76.4058 38.2269 76.7374 38.959 76.7391 39.667C76.7408 40.3746 76.4127 41.1076 75.8525 41.6749C75.2922 42.2423 74.5712 42.5719 73.8781 42.5719Z" stroke="black" stroke-width="2"/>
</g>
<defs>
<clipPath id="clip0_1_6606">
<rect width="39" height="66" fill="white" transform="translate(70 6)"/>
</clipPath>
</defs>
</svg>
