<svg width="217" height="141" viewBox="0 0 217 141" fill="none" xmlns="http://www.w3.org/2000/svg">
<path d="M119.819 116.188C120.57 120.163 121.285 123.924 122.052 127.979C120.263 127.293 118.612 126.747 117.053 126.031C115.971 125.538 115.238 125.639 114.407 126.543C113.256 127.794 111.933 128.888 110.501 130.221C109.678 126.074 108.913 122.17 108.119 118.266L107.82 118.239L105.412 130.214C103.912 128.811 102.583 127.674 101.39 126.41C100.659 125.636 99.9925 125.551 99.0636 125.949C97.4202 126.651 95.7398 127.274 93.8662 128.003C94.6283 123.972 95.3481 120.171 96.1023 116.188H94.0302C85.7049 116.188 77.3803 116.188 69.0567 116.188C66.2225 116.188 65.3333 115.316 65.3518 112.496C65.4348 92.1356 65.523 71.7754 65.6165 51.4152C65.6729 39.2075 65.7426 27.0017 65.8255 14.7976C65.8414 12.179 66.7967 11.1957 69.3928 11.1957C88.42 11.1957 107.447 11.1878 126.474 11.1719C127.882 11.1719 128.991 11.5562 130.005 12.5792C137.06 19.669 144.17 26.7031 151.202 33.814C151.814 34.4857 152.168 35.3539 152.199 36.263C152.168 53.3632 152.092 70.4625 151.972 87.561C151.919 96.0184 151.808 104.478 151.726 112.938C151.705 115.31 150.842 116.182 148.442 116.182C139.502 116.182 130.562 116.182 121.621 116.182L119.819 116.188ZM71.3696 16.7721C71.3696 17.3022 71.3696 17.7289 71.3696 18.1609C71.3308 25.6049 71.2894 33.0516 71.2452 40.5009C71.2047 48.8284 71.172 57.1568 71.1473 65.486C71.0926 80.0737 71.0282 94.6605 70.9541 109.246C70.9541 110.413 71.2611 110.757 72.4308 110.728C75.5535 110.648 78.6841 110.701 81.8094 110.701C86.5226 110.701 91.2331 110.678 95.9462 110.72C96.8671 110.72 97.2694 110.474 97.407 109.525C97.624 107.966 97.9839 106.429 98.2803 104.897C98.2045 104.819 98.1221 104.749 98.0342 104.685C97.924 104.612 97.8023 104.558 97.6743 104.526C95.6207 104.184 94.4828 102.96 94.2552 100.908C94.0964 99.4665 93.3475 98.3799 92.3048 97.4628C90.9817 96.2781 90.5477 94.8416 91.204 93.1771C91.7921 91.7393 91.8279 90.1343 91.3045 88.6715C90.7752 87.0468 91.1537 85.5997 92.5271 84.5369C93.7337 83.6385 94.5494 82.3101 94.8056 80.8264C95.1444 79.0003 96.2611 77.9746 98.0897 77.7175C99.6228 77.5093 101.022 76.7328 102.012 75.5416C103.07 74.3277 104.452 73.9964 105.968 74.598C107.4 75.1904 109.003 75.2169 110.453 74.6722C112.182 74.06 113.653 74.5397 114.778 76.0107C115.679 77.2144 117.003 78.0301 118.482 78.2926C120.187 78.6186 121.216 79.6655 121.475 81.3777C121.7 82.8751 122.296 84.1129 123.484 85.0882C124.958 86.3074 125.246 87.8791 124.543 89.6204C123.985 90.9672 123.962 92.4761 124.476 93.8397C125.119 95.6394 124.558 97.0494 123.182 98.3321C122.415 99.0477 121.663 99.9648 121.33 100.937C120.695 102.859 120.131 104.682 117.649 104.841C117.961 106.495 118.308 107.95 118.488 109.424C118.623 110.505 119.131 110.725 120.136 110.72C128.327 110.68 136.517 110.699 144.71 110.693C145.171 110.693 145.634 110.64 146.227 110.606C146.372 86.5645 146.518 62.666 146.661 38.6589H145.057C139.334 38.6589 133.609 38.6589 127.882 38.6589C125.625 38.6589 124.707 37.7101 124.707 35.4334C124.707 29.7033 124.707 23.9732 124.707 18.2431V16.7721H71.3696ZM119.769 91.3272C119.754 88.1831 118.507 85.1707 116.295 82.9395C114.083 80.7084 111.084 79.4373 107.945 79.4005C101.501 79.3554 95.9674 84.9 95.9885 91.3855C96.0241 94.549 97.3055 97.5704 99.554 99.7926C101.802 102.015 104.836 103.258 107.995 103.251C109.55 103.243 111.088 102.927 112.521 102.323C113.954 101.719 115.254 100.839 116.348 99.7314C117.441 98.6241 118.306 97.312 118.893 95.87C119.48 94.428 119.777 92.8844 119.769 91.3272ZM130.32 33.0428H141.979L130.32 21.0657V33.0428Z" fill="#41595F"/>
<path d="M71.366 16.7734H124.714V18.2417C124.714 23.9719 124.714 29.702 124.714 35.4321C124.714 37.7088 125.637 38.6549 127.889 38.6576C133.612 38.6682 139.337 38.6682 145.064 38.6576H146.668C146.525 62.6647 146.379 86.5631 146.234 110.605C145.641 110.639 145.175 110.692 144.717 110.692C136.514 110.692 128.334 110.692 120.143 110.719C119.138 110.719 118.63 110.504 118.495 109.423C118.315 107.949 117.965 106.507 117.656 104.84C120.138 104.681 120.702 102.858 121.337 100.936C121.66 99.9635 122.411 99.0464 123.189 98.3308C124.565 97.048 125.126 95.638 124.483 93.8384C123.969 92.4747 123.992 90.9659 124.549 89.619C125.248 87.8777 124.96 86.3061 123.491 85.0869C122.303 84.1036 121.707 82.8659 121.482 81.3764C121.218 79.6642 120.194 78.6173 118.489 78.2913C117.01 78.0288 115.686 77.2131 114.785 76.0093C113.66 74.5384 112.188 74.0587 110.46 74.6709C109.01 75.2156 107.407 75.1891 105.975 74.5967C104.458 73.9951 103.08 74.3317 102.019 75.5402C101.029 76.7315 99.6298 77.5079 98.0967 77.7162C96.268 77.9812 95.1513 78.999 94.8126 80.8251C94.5563 82.3088 93.7406 83.6372 92.5341 84.5356C91.1606 85.5958 90.7689 87.0455 91.3114 88.6702C91.8348 90.133 91.799 91.738 91.2109 93.1758C90.5546 94.8403 90.978 96.2768 92.3118 97.4615C93.3544 98.3891 94.1033 99.4758 94.2621 100.907C94.4897 102.958 95.6276 104.183 97.6812 104.525C97.8091 104.556 97.9307 104.609 98.0411 104.681C98.1291 104.745 98.2114 104.816 98.2872 104.893C97.9908 106.425 97.6309 107.962 97.4139 109.521C97.2816 110.47 96.8846 110.724 95.9531 110.716C91.24 110.674 86.5295 110.697 81.8164 110.697C78.691 110.697 75.5604 110.644 72.4377 110.724C71.2681 110.753 70.9531 110.409 70.9611 109.242C71.0564 94.6583 71.1207 80.0715 71.1543 65.4821C71.186 57.1546 71.2187 48.8262 71.2522 40.497C71.2857 33.0494 71.3272 25.6027 71.3766 18.1569C71.366 17.7302 71.366 17.3009 71.366 16.7734ZM108.843 49.7733C116.417 49.7733 123.991 49.76 131.565 49.7733C132.822 49.7733 133.82 49.4155 134.426 48.2785C135.503 46.2589 134.021 44.2022 131.48 44.2022C116.507 44.2022 101.534 44.2022 86.5613 44.2022C84.4071 44.2022 83.2057 45.2305 83.2189 47.0434C83.2322 48.8562 84.3674 49.7627 86.5163 49.7627C93.9525 49.7733 101.395 49.7768 108.843 49.7733ZM108.952 63.2239H131.544C133.481 63.2239 134.719 62.1638 134.759 60.5073C134.791 58.8137 133.494 57.6687 131.504 57.6687H86.4528C84.3701 57.6687 83.2084 58.6944 83.2189 60.4808C83.2295 62.2671 84.3569 63.2239 86.4925 63.2239H108.952ZM99.3749 36.2802H112.591C114.644 36.2802 115.748 35.342 115.766 33.598C115.785 31.8541 114.631 30.7356 112.689 30.7303C103.88 30.7073 95.0701 30.7073 86.2596 30.7303C84.3357 30.7303 83.1792 31.9044 83.2163 33.6298C83.2533 35.3552 84.333 36.2802 86.2913 36.2802C90.6507 36.2855 95.0119 36.2855 99.3749 36.2802Z" fill="white"/>
<path d="M119.764 91.3279C119.783 94.4714 118.554 97.4936 116.348 99.7301C114.142 101.967 111.14 103.234 108.001 103.255C104.841 103.264 101.805 102.022 99.5546 99.8006C97.3039 97.5788 96.0207 94.5564 95.9844 91.3915C95.9633 84.9061 101.497 79.3615 107.941 79.4065C111.079 79.4433 114.077 80.7136 116.289 82.9436C118.5 85.1736 119.749 88.1848 119.764 91.3279ZM108.012 84.914C104.291 84.8955 101.457 87.681 101.454 91.3571C101.448 92.2057 101.61 93.0472 101.93 93.8331C102.25 94.619 102.722 95.3338 103.318 95.9365C103.915 96.5392 104.624 97.0179 105.406 97.345C106.188 97.6721 107.027 97.8412 107.874 97.8425C109.586 97.8456 111.231 97.175 112.453 95.9753C113.676 94.7755 114.379 93.1427 114.411 91.4286C114.418 90.58 114.259 89.7382 113.941 88.9514C113.623 88.1646 113.154 87.4482 112.56 86.8432C111.965 86.2382 111.258 85.7564 110.477 85.4254C109.697 85.0944 108.859 84.9206 108.012 84.914Z" fill="white"/>
<path d="M130.32 33.0435V21.0664L141.98 33.0435H130.32Z" fill="white"/>
<path d="M108.843 49.7753C101.398 49.7753 93.956 49.7753 86.5162 49.7753C84.3674 49.7753 83.2348 48.8291 83.2189 47.056C83.203 45.2829 84.4071 44.2148 86.5612 44.2148C101.534 44.2148 116.507 44.2148 131.48 44.2148C134.021 44.2148 135.503 46.2715 134.426 48.2911C133.82 49.4281 132.822 49.7912 131.565 49.7859C123.991 49.7621 116.417 49.7753 108.843 49.7753Z" fill="#41595F"/>
<path d="M108.952 63.2231H86.4924C84.3568 63.2231 83.2321 62.277 83.2189 60.48C83.2056 58.6831 84.37 57.668 86.4527 57.668H131.504C133.494 57.668 134.791 58.8129 134.759 60.5065C134.73 62.1603 133.481 63.2231 131.544 63.2231H108.952Z" fill="#41595F"/>
<path d="M99.3756 36.282C95.0145 36.282 90.6542 36.282 86.2948 36.282C84.3365 36.282 83.2594 35.3384 83.2197 33.6316C83.18 31.9247 84.3391 30.7374 86.263 30.7321C95.0736 30.7091 103.883 30.7091 112.692 30.7321C114.634 30.7321 115.788 31.8744 115.77 33.5998C115.751 35.3252 114.645 36.2793 112.594 36.282H99.3756Z" fill="#41595F"/>
<path d="M108.011 84.9142C108.858 84.9207 109.696 85.0945 110.476 85.4255C111.257 85.7566 111.964 86.2384 112.558 86.8434C113.153 87.4484 113.622 88.1648 113.94 88.9516C114.257 89.7383 114.417 90.5801 114.41 91.4288C114.378 93.1428 113.675 94.7757 112.452 95.9754C111.229 97.1752 109.585 97.8458 107.873 97.8427C107.026 97.8413 106.187 97.6722 105.405 97.3451C104.623 97.018 103.914 96.5394 103.317 95.9367C102.72 95.334 102.249 94.6191 101.929 93.8332C101.609 93.0473 101.447 92.2059 101.453 91.3572C101.456 87.6811 104.285 84.8956 108.011 84.9142Z" fill="#41595F"/>
</svg>
