<svg width="125" height="90" viewBox="0 0 125 90" fill="none" xmlns="http://www.w3.org/2000/svg">
<path d="M44.0482 31H52.5482V61H47.5482L39.5482 50C30 38 20.5 37.3726 8.04825 50C-0.552747 58.7223 0.538964 64.5906 8.04848 76C25.3913 95.3785 50.8541 85.6379 75.5833 76.1779L76.0482 76L60.5482 14L39.5482 19L44.0482 31Z" stroke="#41595F" stroke-width="4"/>
<path d="M106.83 2.66497C106.006 1.82138 105.021 1.15106 103.934 0.693406C102.847 0.235753 101.679 0 100.5 0C99.3205 0 98.1529 0.235753 97.0658 0.693406C95.9788 1.15106 94.9941 1.82138 94.1698 2.66497L92.2649 4.61885L89.5393 4.58516C88.3595 4.5712 87.1888 4.79328 86.096 5.23836C85.0033 5.68343 84.0105 6.34251 83.1762 7.17683C82.3419 8.01115 81.6828 9.00388 81.2377 10.0966C80.7927 11.1894 80.5706 12.3601 80.5845 13.5399L80.6152 16.2655L78.6674 18.1704C77.8238 18.9947 77.1535 19.9794 76.6958 21.0665C76.2382 22.1535 76.0024 23.3211 76.0024 24.5006C76.0024 25.6801 76.2382 26.8477 76.6958 27.9347C77.1535 29.0218 77.8238 30.0065 78.6674 30.8308L80.6182 32.7357L80.5845 35.4613C80.5706 36.6411 80.7927 37.8118 81.2377 38.9046C81.6828 39.9973 82.3419 40.99 83.1762 41.8244C84.0105 42.6587 85.0033 43.3178 86.096 43.7628C87.1888 44.2079 88.3595 44.43 89.5393 44.416L92.2649 44.3854L94.1698 46.3332C94.9941 47.1768 95.9788 47.8471 97.0658 48.3047C98.1529 48.7624 99.3205 48.9981 100.5 48.9981C101.679 48.9981 102.847 48.7624 103.934 48.3047C105.021 47.8471 106.006 47.1768 106.83 46.3332L108.735 44.3823L111.461 44.416C112.64 44.43 113.811 44.2079 114.904 43.7628C115.997 43.3178 116.989 42.6587 117.824 41.8244C118.658 40.99 119.317 39.9973 119.762 38.9046C120.207 37.8118 120.429 36.6411 120.415 35.4613L120.385 32.7357L122.333 30.8308C123.176 30.0065 123.846 29.0218 124.304 27.9347C124.762 26.8477 124.998 25.6801 124.998 24.5006C124.998 23.3211 124.762 22.1535 124.304 21.0665C123.846 19.9794 123.176 18.9947 122.333 18.1704L120.382 16.2655L120.415 13.5399C120.429 12.3601 120.207 11.1894 119.762 10.0966C119.317 9.00388 118.658 8.01115 117.824 7.17683C116.989 6.34251 115.997 5.68343 114.904 5.23836C113.811 4.79328 112.64 4.5712 111.461 4.58516L108.735 4.61579L106.83 2.66804V2.66497ZM107.709 20.991L98.5216 30.1785C98.3794 30.3211 98.2104 30.4342 98.0244 30.5114C97.8383 30.5886 97.6389 30.6283 97.4375 30.6283C97.2361 30.6283 97.0366 30.5886 96.8506 30.5114C96.6646 30.4342 96.4956 30.3211 96.3534 30.1785L91.7596 25.5847C91.6172 25.4424 91.5043 25.2733 91.4272 25.0873C91.3502 24.9013 91.3105 24.7019 91.3105 24.5006C91.3105 24.2993 91.3502 24.0999 91.4272 23.9139C91.5043 23.7279 91.6172 23.5588 91.7596 23.4165C91.902 23.2741 92.071 23.1612 92.257 23.0841C92.443 23.0071 92.6424 22.9674 92.8437 22.9674C93.0451 22.9674 93.2444 23.0071 93.4305 23.0841C93.6165 23.1612 93.7855 23.2741 93.9279 23.4165L97.4375 26.9292L105.541 18.8227C105.828 18.5352 106.218 18.3737 106.625 18.3737C107.032 18.3737 107.422 18.5352 107.709 18.8227C107.997 19.1103 108.158 19.5002 108.158 19.9068C108.158 20.3135 107.997 20.7034 107.709 20.991V20.991Z" fill="#A3B5FF"/>
</svg>
