<svg width="120" height="148" viewBox="0 0 120 148" fill="none" xmlns="http://www.w3.org/2000/svg">
<path d="M98.6333 76.922L98.7228 76.7549L98.7907 76.5778C101.657 69.0926 102.662 61.1904 101.8 53.4083C103.22 55.172 104.73 57.1802 106.227 59.3946C112.17 68.1893 117.662 79.8809 116.935 92.2703C116.506 98.9002 114.462 105.389 110.92 111.297C107.635 116.775 103.129 121.64 97.6528 125.594C88.313 121.601 79.6045 116.572 71.7376 110.635C82.8052 100.865 91.9106 89.4652 98.6333 76.922Z" stroke="#7C7C7C" stroke-width="6"/>
<path d="M79.3325 42.8246L79.3752 42.8684L79.4197 42.9105C82.8727 46.1751 85.4833 50.0395 87.1004 54.234C88.6935 58.3661 89.2923 62.7391 88.8676 67.0747C87.6887 71.8424 83.6878 78.0536 78.3292 84.4831C73.6162 90.138 68.1115 95.6616 63.2787 100.069C49.4736 88.6936 40.2964 73.591 37.1314 57.1324C37.1262 57.0925 37.1177 57.0241 37.1075 56.9284C37.0863 56.7305 37.0578 56.4162 37.0355 55.9953C36.9908 55.1534 36.9709 53.8873 37.0829 52.2765C37.3069 49.0556 38.058 44.4616 40.1916 39.118C43.9289 29.7575 52.0005 17.8672 69.3973 6.99666C67.3088 14.1974 67.3381 21.8292 69.5837 29.1167L69.6613 29.3687L69.7818 29.6034C72.2485 34.408 75.4672 38.8591 79.3325 42.8246Z" stroke="#7C7C7C" stroke-width="6"/>
<path d="M23.9623 52.9325C23.8944 55.1483 23.9756 57.6925 24.318 60.5248C25.6138 71.2415 30.6265 85.8873 45.0968 102.332L45.1252 102.364L45.1545 102.395C57.6631 115.815 69.3001 124.281 77.8602 129.407C81.7492 131.735 85.0015 133.374 87.4102 134.474C86.4997 135.223 85.5643 135.949 84.6052 136.651C75.9587 141.639 65.9571 144.527 55.6116 144.998C44.8606 144.599 34.5037 141.408 25.8243 135.851L25.8049 135.838L25.7852 135.826C17.9353 130.969 11.7397 124.362 7.80041 116.724C3.87 109.104 2.31652 100.714 3.27549 92.4156C5.41061 77.7748 12.5738 64.0176 23.8649 53.0315L23.9014 52.996L23.9367 52.9592L23.9623 52.9325Z" stroke="#7C7C7C" stroke-width="6"/>
</svg>
