<svg width="137" height="82" viewBox="0 0 137 82" fill="none" xmlns="http://www.w3.org/2000/svg">
<circle cx="96" cy="41" r="41" fill="white"/>
<path d="M107.077 6.2422C105.764 4.89934 104.197 3.8323 102.467 3.10379C100.736 2.37528 98.8775 2 97 2C95.1224 2 93.2638 2.37528 91.5334 3.10379C89.8029 3.8323 88.2356 4.89934 86.9234 6.2422L83.8911 9.35245L79.5524 9.29883C77.6743 9.2766 75.8107 9.63012 74.0712 10.3386C72.3317 11.0471 70.7515 12.0962 69.4234 13.4243C68.0953 14.7524 67.0461 16.3327 66.3376 18.0722C65.6292 19.8117 65.2756 21.6752 65.2979 23.5533L65.3466 27.8921L62.2461 30.9243C60.9032 32.2365 59.8362 33.8039 59.1077 35.5344C58.3792 37.2648 58.0039 39.1234 58.0039 41.001C58.0039 42.8785 58.3792 44.7371 59.1077 46.4675C59.8362 48.198 60.9032 49.7654 62.2461 51.0776L65.3515 54.1098L65.2979 58.4486C65.2756 60.3267 65.6292 62.1903 66.3376 63.9297C67.0461 65.6692 68.0953 67.2495 69.4234 68.5776C70.7515 69.9057 72.3317 70.9548 74.0712 71.6633C75.8107 72.3718 77.6743 72.7253 79.5524 72.7031L83.8911 72.6543L86.9234 75.7548C88.2356 77.0977 89.8029 78.1647 91.5334 78.8932C93.2638 79.6217 95.1224 79.997 97 79.997C98.8775 79.997 100.736 79.6217 102.467 78.8932C104.197 78.1647 105.764 77.0977 107.077 75.7548L110.109 72.6495L114.448 72.7031C116.326 72.7253 118.189 72.3718 119.929 71.6633C121.668 70.9548 123.248 69.9057 124.577 68.5776C125.905 67.2495 126.954 65.6692 127.662 63.9297C128.371 62.1903 128.724 60.3267 128.702 58.4486L128.653 54.1098L131.754 51.0776C133.097 49.7654 134.164 48.198 134.892 46.4675C135.621 44.7371 135.996 42.8785 135.996 41.001C135.996 39.1234 135.621 37.2648 134.892 35.5344C134.164 33.8039 133.097 32.2365 131.754 30.9243L128.648 27.8921L128.702 23.5533C128.724 21.6752 128.371 19.8117 127.662 18.0722C126.954 16.3327 125.905 14.7524 124.577 13.4243C123.248 12.0962 121.668 11.0471 119.929 10.3386C118.189 9.63012 116.326 9.2766 114.448 9.29883L110.109 9.34758L107.077 6.24708V6.2422ZM108.476 35.4142L93.8507 50.0392C93.6243 50.2662 93.3553 50.4463 93.0592 50.5692C92.7631 50.6921 92.4456 50.7553 92.125 50.7553C91.8044 50.7553 91.4869 50.6921 91.1908 50.5692C90.8946 50.4463 90.6257 50.2662 90.3992 50.0392L83.0867 42.7267C82.8601 42.5001 82.6803 42.231 82.5577 41.9349C82.435 41.6388 82.3719 41.3215 82.3719 41.001C82.3719 40.6805 82.435 40.3631 82.5577 40.067C82.6803 39.7709 82.8601 39.5018 83.0867 39.2752C83.3134 39.0486 83.5824 38.8688 83.8785 38.7462C84.1746 38.6235 84.492 38.5604 84.8125 38.5604C85.133 38.5604 85.4503 38.6235 85.7465 38.7462C86.0426 38.8688 86.3116 39.0486 86.5382 39.2752L92.125 44.8668L105.024 31.9627C105.482 31.505 106.103 31.2479 106.75 31.2479C107.397 31.2479 108.018 31.505 108.476 31.9627C108.933 32.4204 109.191 33.0412 109.191 33.6885C109.191 34.3357 108.933 34.9565 108.476 35.4142Z" fill="#A3B5FF"/>
<rect x="9.21094" y="18" width="38.2649" height="7.08609" rx="3.54305" fill="#A3B5FF"/>
<rect x="9.21094" y="56.2656" width="38.2649" height="7.08609" rx="3.54305" fill="#A3B5FF"/>
<rect y="37.1328" width="40.3907" height="7.08609" rx="3.54305" fill="#A3B5FF"/>
</svg>
