<svg width="122" height="122" viewBox="0 0 122 122" fill="none" xmlns="http://www.w3.org/2000/svg">
<path d="M110.952 55.3064L91.4111 51.406L90.2747 51.2077C89.6471 51.0408 87.6603 50.1513 84.927 48.9593L85.197 48.7211C85.7529 47.99 85.5782 46.7025 84.7123 46.2656C83.9812 45.7097 82.6938 45.8844 82.2568 46.7503L81.5657 47.6008C80.0717 46.9973 78.7126 46.2739 77.0998 45.5348L77.3857 45.042C77.9416 44.3108 77.7668 43.0234 76.9009 42.5865C76.1698 42.0306 74.8824 42.2053 74.4455 43.0712L73.8733 44.0564C72.5145 43.3336 71.0365 42.4755 69.6773 41.7522L70.0985 41.14C70.6544 40.4089 70.4796 39.1215 69.6137 38.6845C68.8826 38.1286 67.5952 38.3034 67.1582 39.1693L66.6024 39.9004C66.483 39.7651 66.2289 39.7497 66.1095 39.6145C65.1243 39.0423 64.3932 38.4864 63.5427 37.7953L62.5892 36.7148C61.0871 34.1958 58.8538 31.1209 56.1764 31.0816C53.3796 30.907 50.8684 34.3241 51.7983 37.8284L52.4342 39.9099C52.5535 40.0452 52.4183 40.1645 52.2835 40.2834C42.0887 46.1564 38.6484 46.0694 36.4627 46.3161C32.9902 46.7378 31.8615 44.3695 30.9398 42.7807C29.6763 40.5322 28.6511 38.5537 23.8517 37.7434C22.0877 37.3781 20.3475 38.6733 20.117 40.3183C19.5295 45.6428 16.8841 61.4322 16.7658 65.3821C13.0476 71.7872 15.6462 77.1823 20.1915 77.9763C48.7192 83.0754 86.7418 81.237 100.743 77.7722C107.497 75.8964 117.239 71.1438 117.803 64.1587C118.215 61.6323 117.126 56.5861 110.952 55.3071L110.952 55.3064ZM23.8831 41.3201C26.5292 41.8682 26.9898 42.6628 28.0314 44.3872C28.9535 45.9764 30.9717 50.4422 36.8838 49.7903C42.1044 49.9884 49.8996 45.7528 54.2619 43.3448C55.8511 42.4226 56.6056 40.5557 56.0733 38.863L55.4374 36.7814C55.1274 35.6134 55.6996 34.6281 56.2079 34.6599C56.7162 34.6916 58.1788 35.8039 59.6646 38.577C60.1253 39.3715 60.7216 40.0472 61.4527 40.6031C62.3031 41.2942 63.2884 41.8664 64.1388 42.5576C64.2582 42.6928 64.2582 42.6928 64.5123 42.7082L62.4068 45.7674C61.8509 46.4985 62.0257 47.7859 62.8915 48.2229C63.6227 48.7787 64.9101 48.604 65.347 47.7381L67.5878 44.5596C68.9465 45.2825 70.4246 46.1406 71.7837 46.8639L69.694 49.6693C69.1381 50.4004 69.3129 51.6878 70.1788 52.1248C70.9099 52.6807 72.1973 52.5059 72.6342 51.6401L74.875 48.4616C76.4883 49.2003 77.847 49.9232 79.3409 50.5276L77.5055 53.3467C76.9496 54.0778 77.1244 55.3652 77.9902 55.8022C78.7214 56.3581 80.0088 56.1833 80.4457 55.3175L82.8371 51.7655C86.3178 53.2593 88.9322 54.3156 89.1863 54.3319C89.3057 54.4671 89.4409 54.3478 89.5598 54.4826L110.491 58.5976C113.645 59.1774 114.4 61.3942 114.44 62.8006C108.759 65.8921 96.7689 67.8237 94.2095 67.9199C54.5269 69.7815 33.8181 66.1913 20.5239 64.4686C20.762 60.6544 22.4144 50.5464 23.8835 41.3211L23.8831 41.3201ZM99.8123 74.2684C86.4552 77.6465 50.2116 79.5959 20.7868 74.5677C18.0054 74.139 18.3629 70.46 19.5391 67.9804C31.1886 69.4735 52.7633 73.5007 94.2255 71.7491C97.0386 71.6695 106.066 70.1908 112.073 68.0125C108.815 71.128 102.538 73.5438 99.8121 74.2677L99.8123 74.2684Z" fill="#A3B5FF"/>
<path d="M26.011 60.3431L32.2167 61.1134C33.2341 61.177 34.1635 60.5965 34.227 59.58C34.2905 58.5626 33.7101 57.6332 32.6935 57.5697L26.4877 56.7994C25.4703 56.7359 24.5409 57.3163 24.4775 58.3329C24.2946 59.215 25.1292 60.1607 26.011 60.3431Z" fill="#A3B5FF"/>
<g clip-path="url(#clip0_0_1)">
<path d="M69.524 89.3456V88.5186C69.524 81.1558 69.524 73.7877 69.524 66.4249C69.5218 65.461 69.7856 64.515 70.2867 63.6899C70.7879 62.8647 71.5072 62.1921 72.3662 61.7451C73.2253 61.2982 74.1913 61.0941 75.1589 61.1551C76.1266 61.2161 77.0589 61.5398 77.8543 62.091C78.5777 62.5724 79.1664 63.2285 79.5651 63.9978C79.9638 64.767 80.1596 65.6243 80.1341 66.4893C80.1341 68.5086 80.1341 70.5279 80.1341 72.5471V73.3366C80.8564 72.9207 81.6663 72.6779 82.4995 72.6275C83.3327 72.5771 84.1662 72.7205 84.9339 73.0463C85.7017 73.3721 86.3824 73.8713 86.9221 74.5044C87.4618 75.1374 87.8456 75.8868 88.0431 76.6931C88.7803 76.2426 89.6156 75.9748 90.4786 75.9122C91.3416 75.8496 92.2072 75.994 93.0024 76.3332C93.7763 76.6524 94.4613 77.1525 94.9992 77.7911C95.5372 78.4296 95.9122 79.1878 96.0925 80.0012C97.046 79.7405 98.0201 79.5609 99.0043 79.4642C100.373 79.4484 101.693 79.9724 102.674 80.9216C103.655 81.8707 104.218 83.1677 104.239 84.5284C104.239 88.9536 104.272 93.3788 104.099 97.7986C104.002 101.937 103.007 106.006 101.181 109.726C98.2264 115.575 93.4129 118.625 86.8653 118.856C84.6431 118.931 82.4189 118.786 80.2259 118.421C76.9846 117.884 74.5103 115.832 72.4574 113.389C70.4045 110.945 68.3571 108.244 66.4068 105.596C63.5328 101.697 60.729 97.7556 57.9252 93.8084C57.0888 92.679 56.709 91.2787 56.8609 89.8843C57.0128 88.49 57.6855 87.203 58.7458 86.2778C59.8062 85.3526 61.1771 84.8565 62.5876 84.8876C63.9981 84.9187 65.3456 85.4747 66.3636 86.4456C67.3847 87.4284 68.3625 88.4488 69.3619 89.453L69.524 89.3456ZM72.1063 79.4105V89.4638C72.1063 90.4949 72.1063 91.526 72.1063 92.5571C72.1135 92.8159 72.0422 93.0709 71.9017 93.2888C71.7611 93.5067 71.5578 93.6775 71.3182 93.7789C71.0786 93.8804 70.8138 93.9077 70.5583 93.8574C70.3028 93.8071 70.0686 93.6815 69.8859 93.4969C69.6158 93.2445 69.3457 92.9599 69.108 92.7182C67.5791 91.2038 66.0827 89.6518 64.5052 88.1856C63.923 87.6957 63.178 87.4389 62.4156 87.4653C61.6532 87.4918 60.9281 87.7996 60.3816 88.3288C59.8352 88.8579 59.5066 89.5705 59.4599 90.3274C59.4133 91.0843 59.652 91.8314 60.1294 92.4229C63.0196 96.4399 65.8612 100.478 68.8055 104.469C70.7071 107.046 72.6735 109.581 74.748 112.019C76.7144 114.329 79.1725 115.945 82.3112 116.155C83.862 116.278 85.4184 116.316 86.9734 116.267C92.2568 116.015 96.2167 113.582 98.6964 108.915C100.508 105.367 101.484 101.455 101.549 97.4764C101.705 93.2284 101.662 88.9751 101.684 84.7218C101.684 84.0039 101.397 83.3155 100.886 82.8079C100.376 82.3003 99.6832 82.0151 98.9611 82.0151C98.239 82.0151 97.5464 82.3003 97.0358 82.8079C96.5252 83.3155 96.2383 84.0039 96.2383 84.7218C96.2383 86.2899 96.2383 87.8581 96.2383 89.4262C96.2383 90.2855 96.2383 91.1447 96.2383 92.004C96.2383 92.3401 96.104 92.6625 95.8649 92.9002C95.6258 93.1378 95.3015 93.2714 94.9634 93.2714C94.6253 93.2714 94.301 93.1378 94.0619 92.9002C93.8228 92.6625 93.6884 92.3401 93.6884 92.004C93.6884 91.7677 93.6884 91.5314 93.6884 91.2951C93.6884 87.9655 93.6884 84.6358 93.6884 81.3062C93.7175 80.9321 93.6684 80.5561 93.5443 80.2018C93.4202 79.8474 93.2238 79.5224 92.9674 79.2471C92.711 78.9718 92.4001 78.7521 92.0542 78.6019C91.7084 78.4517 91.335 78.3741 90.9576 78.3741C90.5802 78.3741 90.2068 78.4517 89.861 78.6019C89.5151 78.7521 89.2042 78.9718 88.9478 79.2471C88.6914 79.5224 88.495 79.8474 88.3709 80.2018C88.2468 80.5561 88.1977 80.9321 88.2267 81.3062C88.2267 82.8743 88.2267 84.4425 88.2267 86.0106C88.2267 87.278 88.2267 88.5455 88.1997 89.8075C88.2212 90.0582 88.1534 90.3084 88.0083 90.5145C87.8632 90.7206 87.6499 90.8695 87.4056 90.9353C87.19 91.0104 86.9585 91.0284 86.7338 90.9873C86.5091 90.9463 86.2991 90.8477 86.1245 90.7012C85.9499 90.5548 85.8168 90.3656 85.7383 90.1523C85.6597 89.9391 85.6386 89.7091 85.6768 89.4853C85.6444 85.6884 85.6444 81.8862 85.6768 78.084C85.7143 77.3452 85.4648 76.6204 84.9799 76.0593C84.6181 75.6355 84.1328 75.3339 83.5911 75.1959C83.0494 75.0579 82.4779 75.0905 81.9556 75.2891C81.4334 75.4877 80.9859 75.8426 80.6752 76.3047C80.3644 76.7668 80.2055 77.3135 80.2205 77.8692C80.2205 81.2203 80.2205 84.5714 80.2205 87.9225C80.2082 88.3621 80.057 88.7868 79.7883 89.1362C79.6191 89.3224 79.392 89.4469 79.1433 89.4897C78.8945 89.5325 78.6385 89.4913 78.4162 89.3725C78.1662 89.2663 77.9569 89.0834 77.8189 88.8505C77.6809 88.6177 77.6214 88.3471 77.649 88.0782C77.649 84.2545 77.649 80.4308 77.649 76.6071V66.5323C77.6804 66.0126 77.5567 65.4953 77.2933 65.0453C77.03 64.5953 76.6388 64.2326 76.1688 64.0029C75.7508 63.7813 75.2816 63.6729 74.8082 63.6886C74.3348 63.7042 73.8739 63.8433 73.4716 64.0919C73.0694 64.3406 72.74 64.69 72.5165 65.1051C72.2929 65.5202 72.1831 65.9865 72.1981 66.4571C72.1171 70.7749 72.1171 75.0927 72.1171 79.4105H72.1063Z" fill="#41595F"/>
<path d="M72.1124 79.4109C72.1124 75.1146 72.1124 70.7753 72.1124 66.4575C72.0974 65.9869 72.2072 65.5206 72.4307 65.1055C72.6542 64.6904 72.9836 64.341 73.3859 64.0923C73.7881 63.8437 74.2491 63.7046 74.7225 63.689C75.1959 63.6733 75.6651 63.7817 76.0831 64.0033C76.553 64.233 76.9442 64.5957 77.2076 65.0457C77.4709 65.4957 77.5947 66.013 77.5633 66.5327V76.6505C77.5633 80.4742 77.5633 84.2979 77.5633 88.1216C77.534 88.3907 77.5922 88.662 77.7292 88.8959C77.8663 89.1298 78.0751 89.3139 78.325 89.4212C78.5474 89.54 78.8034 89.5813 79.0521 89.5384C79.3008 89.4956 79.528 89.3711 79.6972 89.1849C79.9659 88.8355 80.1171 88.4109 80.1294 87.9712C80.1618 84.6201 80.1294 81.269 80.1294 77.9179C80.1144 77.3622 80.2732 76.8156 80.584 76.3534C80.8948 75.8913 81.3422 75.5365 81.8645 75.3378C82.3868 75.1392 82.9582 75.1067 83.4999 75.2446C84.0416 75.3826 84.5269 75.6843 84.8888 76.1081C85.388 76.667 85.6495 77.3967 85.6181 78.1435C85.6181 81.9457 85.6181 85.7479 85.6181 89.5448C85.5798 89.7686 85.601 89.9986 85.6795 90.2118C85.758 90.4251 85.8912 90.6143 86.0658 90.7607C86.2404 90.9072 86.4504 91.0058 86.675 91.0468C86.8997 91.0879 87.1313 91.0699 87.3468 90.9948C87.5911 90.929 87.8044 90.7801 87.9496 90.574C88.0947 90.3679 88.1624 90.1177 88.141 89.867C88.141 88.6049 88.168 87.3375 88.168 86.0701C88.168 84.502 88.168 82.9338 88.168 81.3657C88.139 80.9916 88.1881 80.6156 88.3121 80.2612C88.4362 79.9069 88.6326 79.5819 88.8891 79.3066C89.1455 79.0313 89.4564 78.8116 89.8022 78.6614C90.1481 78.5112 90.5214 78.4336 90.8989 78.4336C91.2763 78.4336 91.6496 78.5112 91.9955 78.6614C92.3413 78.8116 92.6522 79.0313 92.9087 79.3066C93.1651 79.5819 93.3615 79.9069 93.4856 80.2612C93.6096 80.6156 93.6587 80.9916 93.6297 81.3657C93.6297 84.6953 93.6297 88.0249 93.6297 91.3546C93.6297 91.5909 93.6297 91.8272 93.6297 92.0635C93.6297 92.3996 93.764 92.722 94.0031 92.9597C94.2422 93.1973 94.5665 93.3309 94.9047 93.3309C95.2428 93.3309 95.5671 93.1973 95.8062 92.9597C96.0453 92.722 96.1796 92.3996 96.1796 92.0635C96.2066 91.2042 96.1796 90.3449 96.1796 89.4857C96.1796 87.9175 96.1796 86.3494 96.1796 84.7812C96.1796 84.0634 96.4665 83.3749 96.9771 82.8673C97.4877 82.3597 98.1802 82.0746 98.9024 82.0746C99.6245 82.0746 100.317 82.3597 100.828 82.8673C101.338 83.3749 101.625 84.0634 101.625 84.7812C101.625 89.0346 101.625 93.2879 101.49 97.5359C101.425 101.507 100.453 105.411 98.6484 108.953C96.1688 113.642 92.2089 116.053 86.9255 116.305C85.3705 116.354 83.814 116.316 82.2633 116.193C79.1083 115.983 76.6503 114.367 74.7001 112.057C72.6256 109.619 70.6591 107.084 68.7575 104.507C65.8133 100.527 62.9717 96.4779 60.0814 92.4609C59.604 91.8694 59.3654 91.1223 59.412 90.3654C59.4586 89.6085 59.7872 88.8959 60.3337 88.3668C60.8801 87.8376 61.6053 87.5298 62.3677 87.5034C63.1301 87.4769 63.875 87.7337 64.4573 88.2236C66.0348 89.6898 67.5312 91.2418 69.0601 92.7562C69.3194 93.014 69.5679 93.2933 69.838 93.5349C70.0206 93.7195 70.2549 93.8451 70.5104 93.8954C70.7658 93.9457 71.0306 93.9184 71.2702 93.8169C71.5098 93.7155 71.7132 93.5447 71.8537 93.3268C71.9943 93.1089 72.0656 92.8539 72.0583 92.5951C72.0583 91.564 72.0583 90.5329 72.0583 89.5018L72.1124 79.4109Z" fill="white"/>
</g>
<defs>
<clipPath id="clip0_0_1">
<rect width="47" height="58" fill="white" transform="translate(57 61)"/>
</clipPath>
</defs>
</svg>
