<svg width="106" height="95" viewBox="0 0 106 95" fill="none" xmlns="http://www.w3.org/2000/svg">
<path d="M68.4479 35.1103H52.834L50.5668 29.2925C50.2566 28.4885 49.7108 27.797 49.0009 27.3085C48.2911 26.82 47.4502 26.5572 46.5885 26.5547H30.4185C29.5531 26.5529 28.7075 26.8137 27.9934 27.3024C27.2793 27.7912 26.7303 28.4851 26.4188 29.2925L24.1729 35.1103H8.55903C7.42449 35.1103 6.33642 35.5609 5.53418 36.3632C4.73194 37.1654 4.28125 38.2535 4.28125 39.388V82.1658C4.28125 83.3003 4.73194 84.3884 5.53418 85.1907C6.33642 85.9929 7.42449 86.4436 8.55903 86.4436H68.4479C69.5825 86.4436 70.6705 85.9929 71.4728 85.1907C72.275 84.3884 72.7257 83.3003 72.7257 82.1658V39.388C72.7257 38.2535 72.275 37.1654 71.4728 36.3632C70.6705 35.5609 69.5825 35.1103 68.4479 35.1103ZM13.2004 47.1522C12.7466 47.1522 12.3114 46.9719 11.9905 46.651C11.6696 46.3301 11.4893 45.8949 11.4893 45.4411C11.4893 44.9873 11.6696 44.552 11.9905 44.2311C12.3114 43.9102 12.7466 43.73 13.2004 43.73H18.3337C18.7876 43.73 19.2228 43.9102 19.5437 44.2311C19.8646 44.552 20.0449 44.9873 20.0449 45.4411C20.0449 45.8949 19.8646 46.3301 19.5437 46.651C19.2228 46.9719 18.7876 47.1522 18.3337 47.1522H13.2004ZM38.5035 77.888C34.6962 77.888 30.9744 76.759 27.8087 74.6438C24.6431 72.5286 22.1758 69.5222 20.7188 66.0047C19.2618 62.4872 18.8806 58.6167 19.6234 54.8825C20.3661 51.1484 22.1995 47.7184 24.8917 45.0262C27.5838 42.3341 31.0138 40.5007 34.748 39.7579C38.4821 39.0151 42.3526 39.3964 45.8701 40.8533C49.3876 42.3103 52.394 44.7777 54.5093 47.9433C56.6245 51.1089 57.7535 54.8307 57.7535 58.638C57.7535 63.7434 55.7253 68.6398 52.1153 72.2498C48.5052 75.8599 43.6089 77.888 38.5035 77.888Z" fill="#A3B5FF"/>
<path d="M23.7656 58.7664C23.7699 61.6523 24.5999 64.4767 26.1576 66.9061C27.7153 69.3355 29.9357 71.2685 32.5565 72.4767L34.8878 68.7551C33.4678 68.1507 32.1953 67.2462 31.1579 66.1036C30.1204 64.961 29.3426 63.6074 28.8777 62.1357C28.4129 60.6641 28.2721 59.1092 28.4649 57.578C28.6578 56.0468 29.1798 54.5755 29.9951 53.2651C30.8104 51.9547 31.8997 50.8362 33.1881 49.9866C34.4765 49.137 35.9335 48.5763 37.4591 48.343C38.9847 48.1098 40.5427 48.2095 42.0261 48.6353C43.5095 49.0611 44.8832 49.8029 46.0528 50.8098L48.3842 47.0453C46.1689 45.2467 43.4893 44.1126 40.6559 43.7744C37.8225 43.4362 34.9513 43.9077 32.3749 45.1344C29.7985 46.361 27.6223 48.2926 26.0986 50.7053C24.5749 53.1179 23.766 55.9129 23.7656 58.7664Z" fill="#A3B5FF"/>
<path d="M77.778 30.0673V28.5673H76.278H60.9661C59.0646 28.5673 57.5 27.0081 57.5 25.0561C57.5 23.104 59.0646 21.5448 60.9661 21.5448H76.1972H77.6972V20.0448V5.01125C77.6972 3.0592 79.2618 1.5 81.1633 1.5C83.0647 1.5 84.6293 3.0592 84.6293 5.01125V19.615V21.115H86.1293H101.034C102.935 21.115 104.5 22.6742 104.5 24.6262C104.5 26.5783 102.935 28.1375 101.034 28.1375H85.7963H84.2963V29.6375V45.1975C84.2963 47.0343 82.8244 48.5 81.0372 48.5C79.25 48.5 77.778 47.0343 77.778 45.1975V30.0673Z" stroke="#41595F" stroke-width="3"/>
</svg>
