<svg width="45" height="42" viewBox="0 0 45 42" fill="none" xmlns="http://www.w3.org/2000/svg">
  <path d="M43.9146 21C43.9146 32.3044 34.3956 41.5 22.6136 41.5C10.8315 41.5 1.3125 32.3044 1.3125 21C1.3125 9.69564 10.8315 0.5 22.6136 0.5C34.3956 0.5 43.9146 9.69564 43.9146 21Z" stroke="black"/>
  <path d="M24.6479 19.9125L23.4267 19.6359V13.3406C25.2537 13.5844 26.3836 14.7 26.5759 16.0687C26.5999 16.2562 26.7634 16.3922 26.9557 16.3922H29.1145C29.3404 16.3922 29.5183 16.2 29.4991 15.9797C29.2058 13.0594 26.7394 11.1844 23.4459 10.8609V9.32812C23.4459 9.12187 23.2729 8.95312 23.0613 8.95312H21.7103C21.4987 8.95312 21.3256 9.12187 21.3256 9.32812V10.875C17.9216 11.1984 15.2581 13.0312 15.2581 16.4531C15.2581 19.6219 17.6524 21.15 20.1669 21.7359L21.3545 22.0312V28.7203C19.2294 28.4438 18.037 27.3375 17.7918 25.8469C17.763 25.6688 17.5995 25.5375 17.412 25.5375H15.1907C14.9648 25.5375 14.7869 25.725 14.8061 25.9453C15.0225 28.5234 17.0274 30.8953 21.3064 31.2V32.6719C21.3064 32.8781 21.4795 33.0469 21.691 33.0469H23.0565C23.268 33.0469 23.4411 32.8781 23.4411 32.6672L23.4315 31.1813C27.1961 30.8578 29.8885 28.8938 29.8885 25.3688C29.8837 22.1156 27.7634 20.6625 24.6479 19.9125ZM21.3497 19.1531C21.0804 19.0781 20.8545 19.0078 20.6285 18.9188C19.0034 18.3469 18.2486 17.4234 18.2486 16.2328C18.2486 14.5312 19.5708 13.5609 21.3497 13.3406V19.1531ZM23.4267 28.7344V22.4672C23.5757 22.5094 23.7104 22.5422 23.8498 22.5703C26.1239 23.2453 26.8884 24.1828 26.8884 25.6219C26.8884 27.4547 25.4749 28.5562 23.4267 28.7344Z" fill="black"/>
</svg>
