<svg width="39" height="39" viewBox="0 0 39 39" fill="none" xmlns="http://www.w3.org/2000/svg">
  <path d="M38.6324 26.1608L38.7543 26.3531C39.2399 27.2272 38.9822 28.3134 38.189 28.8828L37.9966 29.0047L20.447 38.7546C19.9318 39.0408 19.3192 39.0767 18.7794 38.8621L18.5531 38.7546L1.00346 29.0047C0.0619029 28.4815 -0.27732 27.2946 0.245826 26.3531C0.731415 25.479 1.78992 25.1241 2.69226 25.4964L2.89738 25.5955L19.4985 34.8175L36.1031 25.5955C36.9772 25.1099 38.0634 25.3675 38.6328 26.1608L38.6324 26.1608ZM38.6324 18.3608L38.7543 18.5532C39.2399 19.4272 38.9822 20.5135 38.189 21.0829L37.9966 21.2047L20.447 30.9547C19.9318 31.2409 19.3192 31.2768 18.7794 31.0621L18.5531 30.9547L1.00346 21.2047C0.0619029 20.6816 -0.27732 19.4947 0.245826 18.5532C0.731415 17.6791 1.78992 17.3241 2.69226 17.6965L2.89738 17.7955L19.4985 27.0176L36.1031 17.7955C36.9772 17.3099 38.0634 17.5675 38.6328 18.3608L38.6324 18.3608ZM18.5534 0.245448C19.1423 -0.0818159 19.8583 -0.0818159 20.4473 0.245448L37.9969 9.99539C39.3342 10.7383 39.3342 12.6616 37.9969 13.4046L20.4473 23.1545C19.8583 23.4818 19.1423 23.4818 18.5534 23.1545L1.00373 13.4046C-0.333597 12.6616 -0.333597 10.7383 1.00373 9.99539L18.5534 0.245448ZM19.5004 4.1808L5.96554 11.7001L19.4983 19.2173L33.0331 11.7001L19.5004 4.1808Z" fill="#848484"/>
</svg>
