<svg width="65" height="68" viewBox="0 0 65 68" fill="none" xmlns="http://www.w3.org/2000/svg">
<path d="M16.2531 15.4094L16.2533 15.4092L27.8 3.33475L27.9191 3.21021C28.5106 2.62532 29.2059 2.17516 29.9613 1.88384C30.768 1.57275 31.627 1.44892 32.4805 1.51906C33.3341 1.58921 34.1662 1.85209 34.9198 2.29306C35.6735 2.7341 36.3324 3.3439 36.8476 4.08455C36.8478 4.0847 36.8479 4.08485 36.848 4.08501L37.2149 4.61387L17.3785 25.3569L17.1672 25.2097C17.1671 25.2097 17.1671 25.2097 17.167 25.2096C16.4294 24.695 15.8046 24.0117 15.3418 23.2052C14.8789 22.3985 14.5909 21.4907 14.5018 20.5472C14.4127 19.6036 14.5251 18.652 14.8296 17.7621C15.134 16.8722 15.6217 16.0694 16.2531 15.4094Z" fill="#41595F" stroke="#41595F" stroke-width="3"/>
<path d="M21.8207 30.2752L30.3516 36.2271C30.6448 36.4292 30.8881 36.694 31.0747 37.0007L35.1869 43.754L55.2177 22.804L48.0531 17.3575C47.842 17.1959 47.6565 17.0007 47.5033 16.779L42.1249 9.04297L21.8207 30.2752Z" fill="#A3B5FF"/>
<path d="M21.8207 30.2752L30.3516 36.2271C30.6448 36.4292 30.8881 36.694 31.0747 37.0007L35.1869 43.754L55.2177 22.804L48.0531 17.3575C47.842 17.1959 47.6565 17.0007 47.5033 16.779L42.1249 9.04297L21.8207 30.2752Z" stroke="#999999"/>
<path d="M38.8359 49.7394L37.9429 48.2758L59.32 25.918L61.0195 27.2143C61.8955 27.8806 62.6231 28.7375 63.1521 29.7261C63.681 30.7146 63.9989 31.8113 64.0838 32.9406C64.1687 34.0698 64.0185 35.205 63.6437 36.2678C63.2689 37.3306 62.6783 38.2958 61.9126 39.0971L50.4626 51.074C49.6686 51.9048 48.7064 52.5383 47.6469 52.928C46.5874 53.3177 45.4577 53.4535 44.3413 53.3254C43.2249 53.1972 42.1502 52.8085 41.1968 52.1878C40.2433 51.5671 39.4354 50.7304 38.8326 49.7394H38.8359Z" fill="#41595F"/>
<path d="M22.0944 35.7031L1.85684 56.4648C1.28441 57.0252 0.825247 57.6999 0.506493 58.449C0.18774 59.1981 0.0158697 60.0065 0.001048 60.8263C-0.0137737 61.6461 0.128753 62.4607 0.4202 63.2218C0.711647 63.983 1.1461 64.6754 1.69786 65.258C2.24962 65.8405 2.90749 66.3015 3.63257 66.6136C4.35765 66.9257 5.13521 67.0826 5.91928 67.075C6.70335 67.0674 7.478 66.8955 8.19742 66.5694C8.91685 66.2433 9.56645 65.7697 10.1078 65.1765L30.3853 43.9723L27.7527 39.6478L22.0944 35.7031Z" fill="#41595F"/>
<path d="M22.0944 35.7031L1.85684 56.4648C1.28441 57.0252 0.825247 57.6999 0.506493 58.449C0.18774 59.1981 0.0158697 60.0065 0.001048 60.8263C-0.0137737 61.6461 0.128753 62.4607 0.4202 63.2218C0.711647 63.983 1.1461 64.6754 1.69786 65.258C2.24962 65.8405 2.90749 66.3015 3.63257 66.6136C4.35765 66.9257 5.13521 67.0826 5.91928 67.075C6.70335 67.0674 7.478 66.8955 8.19742 66.5694C8.91685 66.2433 9.56645 65.7697 10.1078 65.1765L30.3853 43.9723L27.7527 39.6478L22.0944 35.7031Z" stroke="#999999"/>
</svg>
