<svg width="136" height="139" viewBox="0 0 136 139" fill="none" xmlns="http://www.w3.org/2000/svg">
<g clip-path="url(#clip0_0_1)">
<path d="M49.2538 98.282C50.4099 102.506 51.2176 106.178 52.5321 109.715C52.8251 110.505 54.9076 110.915 56.2063 110.923C75.4799 110.994 94.7535 110.971 114.011 110.986C116.996 110.986 120.821 110.323 120.884 114.753C120.948 119.182 117.139 118.645 114.138 118.645C93.8032 118.645 73.4791 118.645 53.1656 118.645C47.4009 118.645 46.6328 118.045 45.1679 112.645C38.263 87.2515 31.3105 61.8744 24.5165 36.4577C23.7246 33.5441 22.5369 32.415 19.4328 32.5887C14.563 32.8651 9.66933 32.6282 4.78363 32.6756C2.04383 32.6756 -0.0387293 31.8386 0.0325371 28.7277C0.0325371 25.8773 2.13886 25.0008 4.6411 24.9929C11.2451 24.9929 17.8412 24.9298 24.4373 24.9929C27.7235 25.0324 29.7506 26.7537 30.7087 29.9752C31.6669 33.1967 32.0786 37.7526 34.3908 39.4502C36.703 41.1478 40.9869 39.9476 44.4156 39.9555H127.948C135.716 39.9555 137.109 41.7242 135.272 49.2252C131.772 63.5377 128.251 77.845 124.709 92.147C123.379 97.5556 122.539 98.1715 116.791 98.1715H49.2538V98.282ZM35.5311 47.8277C37.0356 53.41 38.3501 58.4555 39.815 63.4693C40.0209 64.172 40.9473 65.159 41.565 65.1748C46.7358 65.309 51.9224 65.2538 57.4416 65.2538C56.7368 58.9845 56.1112 53.4495 55.4698 47.8277H35.5311ZM87.3418 65.309C91.6811 65.309 95.6087 65.4196 99.5204 65.2143C100.026 65.0924 100.493 64.8466 100.878 64.4991C101.264 64.1516 101.557 63.7135 101.73 63.2245C102.426 58.2186 102.854 53.1731 103.393 48.0014H87.3418V65.309ZM127.726 47.6855C122.492 47.6855 117.773 47.5908 113.069 47.7882C112.573 47.9401 112.124 48.2134 111.762 48.583C111.399 48.9526 111.135 49.4069 110.994 49.9043C110.313 54.8234 109.894 59.7741 109.331 65.2775C113.655 65.2775 117.701 65.3485 121.732 65.2143C122.145 65.1436 122.534 64.9737 122.867 64.7192C123.199 64.4646 123.465 64.1332 123.64 63.7535C125.089 58.5976 126.332 53.3942 127.758 47.6855H127.726ZM79.2411 65.309V48.0329H63.325C63.8634 53.2442 64.2594 58.0844 64.9641 62.8771C65.0987 63.7772 66.4132 65.1432 67.2447 65.1985C71.1564 65.4512 75.0839 65.309 79.2411 65.309ZM60.1576 90.5757C59.5716 84.9617 59.1361 80.0032 58.4472 75.0841C58.2873 74.5948 58.006 74.1537 57.6295 73.8017C57.2529 73.4497 56.7934 73.1982 56.2934 73.0706C51.8511 72.8811 47.4009 72.9759 42.3727 72.9759C43.9089 78.6214 45.2471 83.7932 46.7912 88.9018C47.0155 89.3241 47.3369 89.6874 47.7292 89.9619C48.1215 90.2363 48.5734 90.4142 49.048 90.4809C52.5638 90.6941 56.0954 90.5994 60.1576 90.5994V90.5757ZM100.732 73.0154C96.551 73.0154 93.0193 72.8969 89.5114 73.1022C88.7196 73.1496 87.3101 74.2708 87.2863 74.9419C87.0963 80.0032 87.1834 85.0802 87.1834 90.6152C90.7309 90.6152 93.8508 90.7257 96.9469 90.5362C97.3962 90.4347 97.8128 90.2226 98.1586 89.9191C98.5044 89.6156 98.7685 89.2306 98.9265 88.7991C99.6233 83.73 100.106 78.6609 100.732 73.0154ZM67.9098 90.3862H79.2253V73.2522H66.0885C66.7062 79.0715 67.2842 84.6143 67.9098 90.3862ZM108.46 73.1891C107.827 79.0004 107.217 84.638 106.568 90.5599C109.902 90.5599 112.53 90.6783 115.136 90.4888C115.927 90.4257 117.226 89.6993 117.416 89.0044C118.849 83.8563 120.077 78.653 121.439 73.1496L108.46 73.1891Z" fill="#7C7C7C"/>
<path d="M107.905 138.991C105.775 138.958 103.741 138.1 102.233 136.599C100.726 135.097 99.8633 133.069 99.8286 130.945C99.8339 128.794 100.696 126.734 102.225 125.217C102.981 124.465 103.879 123.87 104.867 123.465C105.855 123.06 106.913 122.853 107.981 122.855C109.049 122.858 110.106 123.07 111.091 123.48C112.077 123.89 112.972 124.49 113.725 125.245C114.479 125.999 115.075 126.895 115.482 127.88C115.888 128.864 116.096 129.919 116.093 130.984C116.005 133.107 115.109 135.116 113.588 136.603C112.067 138.091 110.035 138.944 107.905 138.991Z" fill="#7C7C7C"/>
<path d="M48.9031 130.701C48.9199 128.578 49.7819 126.548 51.2996 125.058C52.8173 123.569 54.8663 122.741 56.9958 122.758C59.1253 122.775 61.1609 123.634 62.6548 125.148C64.1487 126.661 64.9786 128.704 64.9618 130.828C64.945 132.951 64.0829 134.981 62.5653 136.47C61.0476 137.96 58.9986 138.788 56.8691 138.771C54.7396 138.754 52.7039 137.894 51.21 136.381C49.7161 134.868 48.8863 132.825 48.9031 130.701V130.701Z" fill="#7C7C7C"/>
<path d="M117.986 33.2898C117.986 53.5673 101.5 70.0054 81.1647 70.0054C60.8291 70.0054 44.3438 53.5673 44.3438 33.2898C44.3438 13.0124 60.8291 -3.42578 81.1647 -3.42578C101.5 -3.42578 117.986 13.0124 117.986 33.2898Z" fill="white"/>
<path d="M117.986 33.2898C117.986 53.5673 101.5 70.0054 81.1647 70.0054C60.8291 70.0054 44.3438 53.5673 44.3438 33.2898C44.3438 13.0124 60.8291 -3.42578 81.1647 -3.42578C101.5 -3.42578 117.986 13.0124 117.986 33.2898Z" stroke="#41595F"/>
</g>
<path d="M113.5 33C113.5 50.3758 99.1945 64.5 81.5 64.5C63.8055 64.5 49.5 50.3758 49.5 33C49.5 15.6242 63.8055 1.5 81.5 1.5C99.1945 1.5 113.5 15.6242 113.5 33Z" fill="white" stroke="#41595F" stroke-width="3"/>
<circle cx="81.5" cy="32.5" r="29" stroke="#41595F"/>
<path d="M80.584 13.3985C81.1535 11.4968 83.8465 11.4968 84.4159 13.3985L87.349 23.1938C87.6025 24.0402 88.3813 24.6201 89.2649 24.6201L99.0825 24.6201C100.98 24.6201 101.811 27.0158 100.321 28.1907L92.1046 34.6681C91.4602 35.1761 91.1915 36.0263 91.4269 36.8124L94.4978 47.0679C95.0582 48.9396 92.878 50.4219 91.3436 49.2122L83.7382 43.2163C83.012 42.6438 81.988 42.6438 81.2618 43.2163L73.6564 49.2122C72.122 50.4219 69.9418 48.9397 70.5022 47.0679L73.5731 36.8124C73.8085 36.0263 73.5398 35.1761 72.8954 34.6681L64.6792 28.1907C63.189 27.0158 64.0198 24.6201 65.9175 24.6201L75.7351 24.6201C76.6187 24.6201 77.3975 24.0402 77.651 23.1938L80.584 13.3985Z" fill="#A3B5FF"/>
<defs>
<clipPath id="clip0_0_1">
<rect width="136" height="114" fill="white" transform="translate(0 25)"/>
</clipPath>
</defs>
</svg>
