<svg width="78" height="78" viewBox="0 0 78 78" fill="none" xmlns="http://www.w3.org/2000/svg">
<path d="M46.586 32.097V32.197H46.686H50.5765H50.6765V32.097C50.6765 29.3 49.3163 27.2633 47.4104 25.8568C45.5325 24.4709 43.1228 23.6945 40.9504 23.3943V19.4531V19.3531H40.8504H36.96H36.86V19.4531V23.3943C34.6876 23.6945 32.2779 24.4709 30.3999 25.8568C28.494 27.2633 27.1339 29.3 27.1339 32.097C27.1339 34.7666 28.4506 36.794 30.3338 38.2279C32.191 39.642 34.6021 40.482 36.86 40.8014V50.2626C35.4977 50.0132 34.1038 49.5258 33.0431 48.7864C31.953 48.0265 31.2243 47.0085 31.2243 45.7135V45.6135H31.1243H27.2339H27.1339V45.7135C27.1339 48.2668 28.331 50.2969 30.1559 51.7633C31.9577 53.211 34.3723 54.1106 36.86 54.4307V58.3574V58.4574H36.96H40.8504H40.9504V58.3574V54.4182C43.1228 54.118 45.5325 53.3411 47.4104 51.9547C49.3164 50.5477 50.6765 48.5106 50.6765 45.7135C50.6765 42.9165 49.3163 40.8798 47.4104 39.4733C45.5325 38.0874 43.1228 37.311 40.9504 37.0108V27.5486C42.2062 27.7859 43.5971 28.2348 44.6831 28.9561C45.8016 29.6991 46.586 30.7228 46.586 32.097ZM31.2243 32.097C31.2243 30.7228 32.0087 29.6991 33.1273 28.9561C34.2133 28.2348 35.6041 27.7859 36.86 27.5486V36.6429C35.5677 36.3918 34.1757 35.9148 33.0983 35.1821C31.9887 34.4275 31.2243 33.4109 31.2243 32.097ZM46.586 45.7135C46.586 47.0877 45.8016 48.1114 44.6831 48.8544C43.5971 49.5758 42.2062 50.0246 40.9504 50.2619V41.1651C42.2062 41.4024 43.5971 41.8513 44.6831 42.5726C45.8016 43.3156 46.586 44.3393 46.586 45.7135Z" fill="#A3B5FF" stroke="#A3B5FF" stroke-width="0.2"/>
<circle cx="38.9043" cy="38.9043" r="36.9043" stroke="#41595F" stroke-width="4"/>
</svg>
