<svg width="154" height="47" viewBox="0 0 154 47" fill="none" xmlns="http://www.w3.org/2000/svg">
<path d="M32.4733 23.9684C26.1634 23.9684 21.0465 29.1284 21.0465 35.4859C21.0465 41.8433 26.1634 47 32.4733 47C38.7832 47 43.9038 41.8436 43.9038 35.4859C43.9026 29.1284 38.7835 23.9684 32.4733 23.9684ZM32.4733 43.9361C27.838 43.9361 24.0865 40.1586 24.0865 35.4862C24.0865 30.8196 27.838 27.035 32.4733 27.035C37.105 27.035 40.8613 30.8196 40.8613 35.4862C40.8613 40.1528 37.105 43.9361 32.4733 43.9361ZM117.844 23.9684C111.531 23.9684 106.416 29.1284 106.416 35.4859C106.416 41.8433 111.531 47 117.844 47C124.158 47 129.272 41.8436 129.272 35.4859C129.272 29.1281 124.158 23.9684 117.844 23.9684ZM117.844 43.9361C113.21 43.9361 109.455 40.1586 109.455 35.4862C109.455 30.8196 113.211 27.035 117.844 27.035C122.478 27.035 126.231 30.8196 126.231 35.4862C126.231 40.1528 122.478 43.9361 117.844 43.9361ZM152.845 22.6443C152.383 21.7983 152.144 20.8613 152.144 19.8635C152.144 18.5765 152.611 17.4782 153.524 16.2927L153.418 16.2258C153.932 15.4945 153.868 14.3258 152.755 13.8824C150.901 13.1355 128.978 4.44761 108.442 1.30606C89.2863 -1.62055 83.8375 1.13876 82.5197 2.17606L54.9621 14.1166L54.8494 14.1668C49.3994 14.1035 43.9469 14.1035 38.5157 14.3413C30.7669 14.6771 24.539 15.5435 19.5514 16.6477C4.56289 19.9578 0.461342 25.4982 0.208715 25.8576C-0.765054 27.2522 1.97598 32.1866 2.13017 32.5785L2.20964 32.7506C2.57376 33.409 5.00882 36.7766 17.4769 38.219C17.9988 38.4628 18.5918 38.3935 18.9951 37.7542C19.2382 37.4614 19.3628 37.0778 19.3628 36.6942C19.4221 36.3572 19.4541 35.9509 19.4541 35.4848C19.4541 28.2417 25.2848 22.3707 32.4701 22.3707C39.2926 22.3707 44.8862 27.6528 45.4425 34.3783C45.4745 36.5198 47.0508 38.3768 48.8785 39.3435C50.3884 40.1406 52.4663 40.646 55.3141 40.646L104.027 40.5959H104.058C104.519 40.5851 104.876 40.4178 105.12 40.1644C105.371 39.9123 105.537 39.5562 105.545 39.0829C105.552 38.6085 105.711 35.5792 105.711 35.3378C105.711 28.0922 111.205 22.3693 117.813 22.3693C124.098 22.3693 129.388 27.5761 129.892 34.3637L130.173 36.9629C130.223 37.46 130.444 37.8137 130.746 38.0348C131.035 38.2631 131.416 38.379 131.915 38.3121C137.621 37.5126 143.784 36.0571 148.996 33.5739C151.393 32.3562 154 29.9612 154 26.6844C154.007 25.2241 153.585 23.8259 152.843 22.6441L152.845 22.6443ZM84.4441 14.6055L87.6833 7.22137C92.7301 6.01678 99.6236 6.80549 104.802 7.63125L102.598 14.4549C96.5208 14.6449 90.0402 14.6545 84.4441 14.6055H84.4441ZM101.588 25.6522C100.602 30.7563 98.7792 32.0935 97.8124 32.0935L68.6798 32.0946C68.4841 31.2414 68.3216 30.4348 68.1828 29.6795C67.8815 28.0005 67.7238 26.5618 67.674 25.325C67.6159 24.0248 67.6775 22.9636 67.808 22.1045C68.1793 19.6499 69.0344 18.891 70.7661 17.4547C85.0289 17.5563 94.9136 17.5611 102.178 17.4392C102.365 20.6502 102.021 23.3904 101.588 25.6527L101.588 25.6522ZM83.647 8.85012L81.1325 14.5673C78.6489 14.5386 76.4298 14.4968 74.6137 14.4609C77.4781 12.3756 80.5347 10.4826 83.647 8.85022L83.647 8.85012ZM82.181 5.65809L82.404 6.05365C77.7307 8.45327 72.3068 12.2976 69.7129 14.3782C67.2375 14.3591 64.7599 14.322 62.2819 14.279L82.181 5.65809ZM16.4221 34.9958C13.0216 34.5225 7.27616 33.4387 5.03682 31.4048L3.97291 28.8403H17.8313C16.9832 30.7284 16.4862 32.8054 16.4222 34.9958L16.4221 34.9958ZM19.6233 25.7785H4.73804C5.73674 25.0352 6.86825 24.3612 8.07442 23.7506C12.8497 24.501 17.1408 25.1404 19.8119 25.5288L19.6233 25.7785ZM147.643 30.8333C144.42 32.3654 140.403 33.4755 137.141 34.2117C135.479 34.5869 134.038 34.8546 133.026 35.0327L132.92 34.0838C132.289 25.8728 125.837 19.3073 117.812 19.3073C109.366 19.3073 102.668 26.566 102.668 35.3396C102.668 35.4783 102.616 36.5657 102.565 37.5325L55.3095 37.5803C52.8033 37.5803 51.2423 37.1346 50.2828 36.6279C49.4513 36.1857 48.64 35.4424 48.4906 34.4589C47.8205 25.8609 40.9057 19.3036 32.4667 19.3036C28.69 19.3036 25.2161 20.6194 22.4703 22.8206C21.1608 22.6318 17.7924 22.1418 13.5199 21.4893C15.9123 20.6755 18.2643 20.0624 20.2012 19.6334C25.0524 18.5627 31.1109 17.725 38.6448 17.3964C47.8879 16.9936 57.1868 17.2804 66.449 17.4035C65.6069 18.4862 65.0873 19.7183 64.7968 21.6421C64.645 22.6651 64.5655 23.9127 64.6331 25.4506C64.6888 26.8022 64.8596 28.3748 65.1894 30.2246C65.3969 31.3754 65.665 32.6266 66.0077 33.9985C66.1418 34.535 66.9281 35.1565 67.4785 35.1565H67.8237L97.808 35.1529C104.321 35.1529 105.411 23.2004 105.197 17.3722C107.923 17.3052 110.239 17.2144 112.269 17.0949C113.437 17.028 129.235 15.7517 127.68 10.7696C127.251 9.40966 125.655 8.91969 124.437 8.63888C113.774 6.158 98.5349 2.28266 87.8028 3.99493C87.0354 4.11323 86.1434 4.38688 85.172 4.77409L84.8968 4.28054C85.8386 3.86228 87.4315 3.54561 88.034 3.45121C103.944 0.879531 134.22 9.9509 150.037 16.1019C149.445 17.2527 149.096 18.5003 149.096 19.8638C149.096 21.3863 149.491 22.8908 150.223 24.2138C150.681 24.932 150.96 25.8139 150.96 26.6899C150.967 28.2279 149.656 29.8067 147.642 30.833L147.643 30.8333ZM105.841 14.336L107.838 8.14465L107.938 8.16377C108.428 8.2534 119.859 10.4833 123.81 11.6244C123.381 11.8407 122.939 12.02 122.665 12.1407C119.789 13.3596 113.316 14.0121 105.842 14.3359L105.841 14.336Z" fill="black"/>
</svg>
