<svg width="104" height="65" viewBox="0 0 104 65" fill="none" xmlns="http://www.w3.org/2000/svg">
<path d="M100.428 42.8716C100.02 42.5764 99.5359 42.402 99.032 42.3697C96.594 41.3686 89.7553 41.5134 86.5406 41.6435L72.7861 37.3753C72.7304 36.6962 72.1615 36.1711 71.4757 36.1674H71.4479C70.7667 36.1822 70.0874 36.2357 69.4127 36.3289L65.4285 35.0925C64.7928 34.8572 64.1738 34.6007 63.5622 34.335C63.6151 34.2132 63.6485 34.084 63.6615 33.9521C63.6996 33.2222 63.1353 32.6003 62.4013 32.5625C61.6124 32.5256 60.8218 32.533 60.0329 32.5837C58.4311 31.6804 56.8898 30.6756 55.4168 29.5768C55.5625 29.3867 55.6516 29.1616 55.6766 28.9245C55.7045 28.5747 55.5922 28.2278 55.363 27.9612C55.1347 27.6936 54.808 27.5275 54.4563 27.4998C53.9078 27.4583 53.3575 27.4565 52.809 27.4952C51.4374 26.3188 50.1826 25.1128 49.0467 23.9263V23.9273C49.3827 23.6754 49.5757 23.2777 49.5646 22.8597C49.5534 22.5091 49.4012 22.1769 49.1433 21.938C48.8843 21.699 48.54 21.5726 48.1874 21.5864C47.7735 21.6012 47.4013 21.6492 47.019 21.6898C45.7095 20.1682 44.6126 18.7372 43.7357 17.5082H43.7366C44.1124 17.1382 44.2312 16.5809 44.0391 16.0909C43.8461 15.601 43.3793 15.2725 42.8503 15.254C42.6267 15.2457 42.4373 15.2697 42.2239 15.2725C41.5242 14.1773 41.1585 13.5046 41.1474 13.4843C40.1971 11.3372 38.3763 9.69104 36.1359 8.95667C34.7995 5.67455 32.7569 2.72289 30.1528 0.308369C29.7092 -0.0597853 29.0781 -0.102232 28.589 0.20226C25.0931 2.38719 24.0138 7.36694 23.6964 9.61729C9.73324 10.8223 5.91893 8.7758 5.9004 8.76564C5.47628 8.49346 4.93246 8.48423 4.49907 8.74073C4.06476 8.99815 3.81419 9.47796 3.85315 9.97806L5.19045 27.4816C2.85086 34.7126 1.32435 42.1792 0.639417 49.7433C0.11601 51.4964 2.96213e-06 56.8387 2.96213e-06 61.2124C-0.000925015 61.6497 0.216236 62.0575 0.579098 62.3039C3.65739 64.3957 10.086 65 16.4828 65C22.2987 64.9529 28.1084 64.5774 33.8815 63.8762C41.6835 62.8889 62.9396 64.6512 63.2674 64.6743C97.1127 64.6743 103.527 55.5148 103.784 55.1244H103.783C103.944 54.8827 104.018 54.5948 103.996 54.305C103.531 47.9449 102.364 44.2052 100.428 42.8721L100.428 42.8716ZM96.6329 44.479C95.2298 45.8279 92.4623 46.9518 88.958 47.8662C88.2564 46.7811 87.8425 45.5373 87.7543 44.2501C90.7157 44.1329 93.6816 44.2085 96.6328 44.4789L96.6329 44.479ZM38.7638 14.66C38.8112 14.7486 39.0005 15.1001 39.3272 15.651C37.8646 16.0117 36.5328 16.7739 35.4841 17.8507C35.163 18.2456 35.099 18.79 35.3198 19.2476C35.5407 19.7062 36.0066 19.9978 36.517 19.9978C36.9077 19.9987 37.2789 19.8298 37.5341 19.5364C38.4464 18.6968 39.6027 18.1672 40.836 18.0232C41.6554 19.2366 42.7097 20.6962 44.0107 22.2889H44.0117C42.6344 22.6792 41.3463 23.3288 40.2152 24.2007C39.6751 24.6879 39.6296 25.5156 40.1131 26.0581C40.5957 26.6007 41.4281 26.6551 41.9794 26.1818C43.1561 25.3412 44.5074 24.7747 45.9339 24.5219C47.0345 25.7407 48.2614 26.9928 49.6144 28.2358L49.6153 28.2367C48.5629 28.6464 47.5969 29.2489 46.7673 30.0119C46.2643 30.537 46.281 31.3665 46.8034 31.8721C47.3259 32.3768 48.1602 32.3703 48.6744 31.8564C49.6005 31.0352 50.7355 30.4844 51.9558 30.2638C53.2931 31.3572 54.6879 32.3786 56.1348 33.3244C55.6355 33.4951 55.1603 33.7313 54.7232 34.0266C54.2787 34.3744 54.1052 34.9649 54.2926 35.4964C54.4792 36.0279 54.9849 36.3822 55.551 36.3785C55.8304 36.3794 56.1023 36.2945 56.3297 36.1349C57.2874 35.6219 58.3463 35.3276 59.4322 35.2713C61.0887 36.1617 62.8046 36.9386 64.5679 37.5956L65.2407 37.8041C65.1637 37.8687 65.108 37.9213 65.0737 37.9554V37.9563C64.708 38.3374 64.6078 38.8984 64.8175 39.3828C65.0273 39.8663 65.507 40.1782 66.036 40.1763C66.3664 40.1772 66.6857 40.0591 66.9353 39.8442C67.6193 39.4059 68.3942 39.1291 69.2016 39.034L85.0608 43.9566L85.0599 43.9557C85.1379 45.5363 85.5332 47.0845 86.2237 48.51C84.5968 48.8551 82.8679 49.1633 81.0832 49.4355C80.6944 48.0063 78.0142 44.8257 53.9328 38.342C52.255 37.9166 50.6346 37.2929 49.1062 36.4837C37.7869 30.2813 30.3645 16.3885 28.1586 11.8212C29.6805 11.6431 31.2787 11.4373 32.9918 11.1891C34.1992 11.0904 35.4066 11.3727 36.4431 11.9965C37.4797 12.6193 38.2918 13.5521 38.7641 14.6611L38.7638 14.66ZM29.2068 3.07658C30.7297 4.7042 32.0095 6.54034 33.0052 8.53064C32.8669 8.53986 32.7361 8.55278 32.6136 8.56939C30.377 8.89325 28.326 9.14791 26.4283 9.35091C26.7354 7.03956 27.6987 4.86295 29.2067 3.07674L29.2068 3.07658ZM7.78779 28.117C7.85276 27.9399 7.87967 27.7507 7.86482 27.5634L6.66208 11.8095C9.33483 12.4867 14.8352 13.1566 25.3566 12.1241C27.053 15.8425 34.8772 31.7072 47.8207 38.7991C49.5348 39.7108 51.3537 40.4138 53.2367 40.8936C68.5158 45.007 76.6742 48.3415 78.2584 49.8318L78.2575 49.8308C72.8478 50.5164 67.4059 50.9242 61.9537 51.0534L42.8409 50.1473C38.9068 49.961 34.9647 49.9757 31.0316 50.1916L18.4419 50.8827C7.85854 50.7683 4.38208 49.7829 3.35099 49.3455C3.64148 46.5139 4.85626 36.1087 7.78798 28.1163L7.78779 28.117ZM2.9424 52.0048C5.69022 52.9349 10.8763 53.4423 18.5009 53.5254L31.1778 52.8315H31.1768C35.0189 52.6239 38.8694 52.6101 42.7134 52.7909L60.5595 53.6333V56.4808C51.1799 55.5886 41.7471 55.3828 32.3376 55.8663C14.5241 57.6056 4.83805 55.6255 2.76875 55.1245C2.81423 53.9111 2.87176 52.8214 2.9423 52.0049L2.9424 52.0048ZM33.5447 61.2502C26.8016 62.112 8.60387 63.5662 2.66206 60.465C2.66577 59.594 2.67783 58.7036 2.69454 57.828H2.69361C7.92221 58.8596 13.2473 59.3274 18.5768 59.225C22.5211 59.225 27.1769 59.0284 32.5642 58.5016H32.5651C41.8993 58.0301 51.2568 58.2423 60.5589 59.1364V61.8131C54.4218 61.3619 39.9621 60.4429 33.544 61.2502L33.5447 61.2502ZM63.3773 62.0327L63.2205 62.0197L63.2196 53.662C69.7501 53.4507 94.0785 52.2171 99.2791 45.4408C99.8544 46.226 100.839 48.3546 101.299 53.9589C99.8294 55.4564 91.7611 62.0278 63.3773 62.0335L63.3773 62.0327Z" fill="black"/>
</svg>
