<svg width="32" height="32" viewBox="0 0 32 32" fill="none" xmlns="http://www.w3.org/2000/svg">
  <circle cx="16" cy="16" r="15.5" stroke="#626262"/>
  <path d="M18.2266 7.31445V11.5526C18.2266 11.8336 18.329 12.1031 18.5113 12.3018C18.6937 12.5004 18.941 12.6121 19.1989 12.6121H23.088" stroke="#626262" stroke-linecap="round" stroke-linejoin="round"/>
  <path d="M21.1441 26.3859H11.4212C10.9054 26.3859 10.4108 26.1627 10.0461 25.7653C9.68144 25.3679 9.47656 24.8289 9.47656 24.2669V9.43351C9.47656 8.8715 9.68144 8.33251 10.0461 7.93511C10.4108 7.53771 10.9054 7.31445 11.4212 7.31445H18.2272L23.0887 12.6121V24.2669C23.0887 24.8289 22.8838 25.3679 22.5191 25.7653C22.1545 26.1627 21.6599 26.3859 21.1441 26.3859Z" stroke="#626262" stroke-linecap="round" stroke-linejoin="round"/>
  <path d="M13.3594 11.5527H14.3324" stroke="#626262" stroke-linecap="round" stroke-linejoin="round"/>
  <path d="M13.3594 17.9082H19.1932" stroke="#626262" stroke-linecap="round" stroke-linejoin="round"/>
  <path d="M17.2578 22.1484H19.2024" stroke="#626262" stroke-linecap="round" stroke-linejoin="round"/>
</svg>
