<svg width="35" height="35" viewBox="0 0 35 35" fill="none" xmlns="http://www.w3.org/2000/svg">
  <circle cx="17.5" cy="17.5" r="17" stroke="#626262"/>
  <path d="M17.3763 27.4V8.6H18.3763V27.4H17.3763ZM17.7963 25.12C16.7563 25.12 15.7563 24.9533 14.7963 24.62C13.8496 24.2733 13.1163 23.8333 12.5963 23.3L13.1763 22.16C13.6696 22.64 14.3296 23.0467 15.1563 23.38C15.9963 23.7 16.8763 23.86 17.7963 23.86C18.6763 23.86 19.3896 23.7533 19.9363 23.54C20.4963 23.3133 20.9029 23.0133 21.1563 22.64C21.4229 22.2667 21.5563 21.8533 21.5563 21.4C21.5563 20.8533 21.3963 20.4133 21.0763 20.08C20.7696 19.7467 20.3629 19.4867 19.8563 19.3C19.3496 19.1 18.7896 18.9267 18.1763 18.78C17.5629 18.6333 16.9496 18.48 16.3363 18.32C15.7229 18.1467 15.1563 17.92 14.6363 17.64C14.1296 17.36 13.7163 16.9933 13.3963 16.54C13.0896 16.0733 12.9363 15.4667 12.9363 14.72C12.9363 14.0267 13.1163 13.3933 13.4763 12.82C13.8496 12.2333 14.4163 11.7667 15.1763 11.42C15.9363 11.06 16.9096 10.88 18.0963 10.88C18.8829 10.88 19.6629 10.9933 20.4363 11.22C21.2096 11.4333 21.8763 11.7333 22.4363 12.12L21.9362 13.3C21.3363 12.9 20.6963 12.6067 20.0163 12.42C19.3496 12.2333 18.7029 12.14 18.0763 12.14C17.2363 12.14 16.5429 12.2533 15.9963 12.48C15.4496 12.7067 15.0429 13.0133 14.7763 13.4C14.5229 13.7733 14.3963 14.2 14.3963 14.68C14.3963 15.2267 14.5496 15.6667 14.8563 16C15.1763 16.3333 15.5896 16.5933 16.0963 16.78C16.6163 16.9667 17.1829 17.1333 17.7963 17.28C18.4096 17.4267 19.0163 17.5867 19.6163 17.76C20.2296 17.9333 20.7896 18.16 21.2963 18.44C21.8163 18.7067 22.2296 19.0667 22.5363 19.52C22.8563 19.9733 23.0163 20.5667 23.0163 21.3C23.0163 21.98 22.8296 22.6133 22.4563 23.2C22.0829 23.7733 21.5096 24.24 20.7363 24.6C19.9763 24.9467 18.9963 25.12 17.7963 25.12Z" fill="#626262"/>
</svg>
