<svg width="35" height="35" viewBox="0 0 35 35" fill="none" xmlns="http://www.w3.org/2000/svg">
  <circle cx="17.5" cy="17.5" r="17" stroke="#626262"/>
  <mask id="path-2-inside-1_1_11983" fill="white">
    <path d="M26.2306 11.4846L23.9137 21.1828H12.2441L9.46691 9.82399H7.77344V9H10.026L12.8032 20.3588H23.3512L25.2733 12.3132L14.1328 12.3572L14.13 11.5332L26.2306 11.4846ZM23.048 22.402H12.4509V23.226H23.048V22.402ZM14.8494 25.4466C14.8494 26.3034 14.2291 27 13.4669 27C12.7042 27 12.084 26.303 12.084 25.4466C12.084 24.5895 12.7042 23.8925 13.4669 23.8925C14.2292 23.8928 14.8494 24.5895 14.8494 25.4466ZM14.1161 25.4466C14.1161 25.0442 13.825 24.7165 13.4669 24.7165C13.1088 24.7165 12.8173 25.0442 12.8173 25.4466C12.8173 25.8489 13.1088 26.176 13.4669 26.176C13.825 26.1763 14.1161 25.8489 14.1161 25.4466ZM23.1816 25.4466C23.1816 26.3034 22.5614 27 21.7987 27C21.036 27 20.4157 26.303 20.4157 25.4466C20.4157 24.5895 21.0359 23.8925 21.7987 23.8925C22.5613 23.8928 23.1816 24.5895 23.1816 25.4466ZM22.4483 25.4466C22.4483 25.0442 22.1567 24.7165 21.7987 24.7165C21.4406 24.7165 21.149 25.0442 21.149 25.4466C21.149 25.8489 21.4406 26.176 21.7987 26.176C22.1567 26.1763 22.4483 25.8489 22.4483 25.4466Z"/>
  </mask>
  <path d="M26.2306 11.4846L23.9137 21.1828H12.2441L9.46691 9.82399H7.77344V9H10.026L12.8032 20.3588H23.3512L25.2733 12.3132L14.1328 12.3572L14.13 11.5332L26.2306 11.4846ZM23.048 22.402H12.4509V23.226H23.048V22.402ZM14.8494 25.4466C14.8494 26.3034 14.2291 27 13.4669 27C12.7042 27 12.084 26.303 12.084 25.4466C12.084 24.5895 12.7042 23.8925 13.4669 23.8925C14.2292 23.8928 14.8494 24.5895 14.8494 25.4466ZM14.1161 25.4466C14.1161 25.0442 13.825 24.7165 13.4669 24.7165C13.1088 24.7165 12.8173 25.0442 12.8173 25.4466C12.8173 25.8489 13.1088 26.176 13.4669 26.176C13.825 26.1763 14.1161 25.8489 14.1161 25.4466ZM23.1816 25.4466C23.1816 26.3034 22.5614 27 21.7987 27C21.036 27 20.4157 26.303 20.4157 25.4466C20.4157 24.5895 21.0359 23.8925 21.7987 23.8925C22.5613 23.8928 23.1816 24.5895 23.1816 25.4466ZM22.4483 25.4466C22.4483 25.0442 22.1567 24.7165 21.7987 24.7165C21.4406 24.7165 21.149 25.0442 21.149 25.4466C21.149 25.8489 21.4406 26.176 21.7987 26.176C22.1567 26.1763 22.4483 25.8489 22.4483 25.4466Z" fill="#667799"/>
  <path d="M26.2306 11.4846L27.2032 11.717L27.4988 10.4795L26.2266 10.4846L26.2306 11.4846ZM23.9137 21.1828V22.1828H24.703L24.8864 21.4152L23.9137 21.1828ZM12.2441 21.1828L11.2727 21.4203L11.4592 22.1828H12.2441V21.1828ZM9.46691 9.82399L10.4383 9.58649L10.2519 8.82399H9.46691V9.82399ZM7.77344 9.82399H6.77344V10.824H7.77344V9.82399ZM7.77344 9V8H6.77344V9H7.77344ZM10.026 9L10.9974 8.7625L10.811 8H10.026V9ZM12.8032 20.3588L11.8319 20.5964L12.0183 21.3588H12.8032V20.3588ZM23.3512 20.3588V21.3588H24.1405L24.3238 20.5912L23.3512 20.3588ZM25.2733 12.3132L26.246 12.5455L26.5416 11.3082L25.2694 11.3132L25.2733 12.3132ZM14.1328 12.3572L13.1328 12.3606L13.1362 13.3611L14.1367 13.3571L14.1328 12.3572ZM14.13 11.5332L14.126 10.5332L13.1266 10.5372L13.13 11.5366L14.13 11.5332ZM23.048 22.402H24.048V21.402H23.048V22.402ZM12.4509 22.402V21.402H11.4509V22.402H12.4509ZM12.4509 23.226H11.4509V24.226H12.4509V23.226ZM23.048 23.226V24.226H24.048V23.226H23.048ZM13.4669 23.8925L13.4673 22.8925H13.4669V23.8925ZM13.4669 26.176L13.4677 25.176H13.4669V26.176ZM21.7987 23.8925L21.799 22.8925H21.7987V23.8925ZM21.7987 26.176L21.7995 25.176H21.7987V26.176ZM25.2579 11.2523L22.9411 20.9505L24.8864 21.4152L27.2032 11.717L25.2579 11.2523ZM23.9137 20.1828H12.2441V22.1828H23.9137V20.1828ZM13.2155 20.9453L10.4383 9.58649L8.49552 10.0615L11.2727 21.4203L13.2155 20.9453ZM9.46691 8.82399H7.77344V10.824H9.46691V8.82399ZM8.77344 9.82399V9H6.77344V9.82399H8.77344ZM7.77344 10H10.026V8H7.77344V10ZM9.05465 9.2375L11.8319 20.5964L13.7746 20.1213L10.9974 8.7625L9.05465 9.2375ZM12.8032 21.3588H23.3512V19.3588H12.8032V21.3588ZM24.3238 20.5912L26.246 12.5455L24.3007 12.0808L22.3786 20.1265L24.3238 20.5912ZM25.2694 11.3132L14.1288 11.3572L14.1367 13.3571L25.2773 13.3132L25.2694 11.3132ZM15.1328 12.3537L15.13 11.5297L13.13 11.5366L13.1328 12.3606L15.1328 12.3537ZM14.134 12.5332L26.2346 12.4846L26.2266 10.4846L14.126 10.5332L14.134 12.5332ZM23.048 21.402H12.4509V23.402H23.048V21.402ZM11.4509 22.402V23.226H13.4509V22.402H11.4509ZM12.4509 24.226H23.048V22.226H12.4509V24.226ZM24.048 23.226V22.402H22.048V23.226H24.048ZM13.8494 25.4466C13.8494 25.6342 13.7815 25.7848 13.697 25.8797C13.614 25.973 13.5306 26 13.4669 26V28C14.8877 28 15.8494 26.743 15.8494 25.4466H13.8494ZM13.4669 26C13.403 26 13.3194 25.9729 13.2364 25.8796C13.1518 25.7846 13.084 25.634 13.084 25.4466H11.084C11.084 26.7428 12.0458 28 13.4669 28V26ZM13.084 25.4466C13.084 25.2587 13.1519 25.1079 13.2365 25.013C13.3195 24.9197 13.403 24.8925 13.4669 24.8925V22.8925C12.0455 22.8925 11.084 24.1501 11.084 25.4466H13.084ZM13.4666 24.8925C13.5303 24.8926 13.6139 24.9197 13.6969 25.013C13.7814 25.108 13.8494 25.2587 13.8494 25.4466H15.8494C15.8494 24.15 14.8879 22.8931 13.4673 22.8925L13.4666 24.8925ZM15.1161 25.4466C15.1161 24.6058 14.4847 23.7165 13.4669 23.7165V25.7165C13.328 25.7165 13.2281 25.6509 13.1784 25.5951C13.1303 25.5409 13.1161 25.4858 13.1161 25.4466H15.1161ZM13.4669 23.7165C12.4501 23.7165 11.8173 24.6047 11.8173 25.4466H13.8173C13.8173 25.4863 13.8029 25.5415 13.7548 25.5955C13.7054 25.6511 13.6057 25.7165 13.4669 25.7165V23.7165ZM11.8173 25.4466C11.8173 26.2895 12.4511 27.176 13.4669 27.176V25.176C13.6051 25.176 13.7047 25.2411 13.7545 25.297C13.8028 25.3512 13.8173 25.4067 13.8173 25.4466H11.8173ZM13.4661 27.176C14.4843 27.1768 15.1161 26.2876 15.1161 25.4466H13.1161C13.1161 25.4073 13.1303 25.352 13.1787 25.2976C13.2286 25.2415 13.3288 25.1759 13.4677 25.176L13.4661 27.176ZM22.1816 25.4466C22.1816 25.6342 22.1137 25.7848 22.0293 25.8796C21.9463 25.9728 21.8627 26 21.7987 26V28C23.2197 28 24.1816 26.7432 24.1816 25.4466H22.1816ZM21.7987 26C21.7347 26 21.6511 25.9729 21.5681 25.8796C21.4835 25.7846 21.4157 25.634 21.4157 25.4466H19.4157C19.4157 26.7428 20.3775 28 21.7987 28V26ZM21.4157 25.4466C21.4157 25.2587 21.4836 25.1079 21.5682 25.013C21.6512 24.9197 21.7348 24.8925 21.7987 24.8925V22.8925C20.3772 22.8925 19.4157 24.1501 19.4157 25.4466H21.4157ZM21.7983 24.8925C21.8624 24.8926 21.9461 24.9198 22.0292 25.0131C22.1137 25.1081 22.1816 25.2587 22.1816 25.4466H24.1816C24.1816 24.1497 23.2198 22.8931 21.799 22.8925L21.7983 24.8925ZM23.4483 25.4466C23.4483 24.6047 22.8155 23.7165 21.7987 23.7165V25.7165C21.6599 25.7165 21.5602 25.6511 21.5108 25.5955C21.4627 25.5415 21.4483 25.4863 21.4483 25.4466H23.4483ZM21.7987 23.7165C20.7819 23.7165 20.149 24.6047 20.149 25.4466H22.149C22.149 25.4863 22.1346 25.5415 22.0866 25.5955C22.0371 25.6511 21.9374 25.7165 21.7987 25.7165V23.7165ZM20.149 25.4466C20.149 26.2895 20.7828 27.176 21.7987 27.176V25.176C21.9368 25.176 22.0364 25.2411 22.0862 25.297C22.1345 25.3512 22.149 25.4067 22.149 25.4466H20.149ZM21.7979 27.176C22.815 27.1768 23.4483 26.2887 23.4483 25.4466H21.4483C21.4483 25.4068 21.4627 25.3514 21.511 25.2972C21.5608 25.2413 21.6607 25.1759 21.7995 25.176L21.7979 27.176Z" fill="#626262" mask="url(#path-2-inside-1_1_11983)"/>
</svg>
