<svg width="35" height="35" viewBox="0 0 35 35" fill="none" xmlns="http://www.w3.org/2000/svg">
  <circle cx="17.5" cy="17.5" r="17" stroke="#626262"/>
  <path d="M23.5 11.62L24.8206 15.6843L24.9328 16.0298H25.2961H29.5696L26.1123 18.5417L25.8184 18.7552L25.9306 19.1007L27.2512 23.1651L23.7939 20.6532L23.5 20.4396L23.2061 20.6532L19.7488 23.1651L21.0694 19.1007L21.1816 18.7552L20.8877 18.5417L17.4304 16.0298H21.7039H22.0672L22.1794 15.6843L23.5 11.62Z" fill="white" stroke="#626262"/>
  <path d="M11 11.62L12.3206 15.6843L12.4328 16.0298H12.7961H17.0696L13.6123 18.5417L13.3184 18.7552L13.4306 19.1007L14.7512 23.1651L11.2939 20.6532L11 20.4396L10.7061 20.6532L7.24877 23.1651L8.56936 19.1007L8.68162 18.7552L8.38772 18.5417L4.93039 16.0298H9.20389H9.56716L9.67942 15.6843L11 11.62Z" fill="white" stroke="#626262"/>
  <path d="M17.5 9.61804L19.4941 15.7553L19.6064 16.1008H19.9697H26.4228L21.2021 19.8939L20.9082 20.1074L21.0205 20.4529L23.0146 26.5902L17.7939 22.7971L17.5 22.5836L17.2061 22.7971L11.9854 26.5902L13.9795 20.4529L14.0918 20.1074L13.7979 19.8939L8.57722 16.1008H15.0303H15.3936L15.5059 15.7553L17.5 9.61804Z" fill="white" stroke="#626262"/>
</svg>
