<svg width="89" height="100" viewBox="0 0 89 100" fill="none" xmlns="http://www.w3.org/2000/svg">
<path d="M60.2318 28.4154H63.2318V25.4154V22.3424C63.2318 17.4826 61.323 12.8151 57.9148 9.36861C54.5054 5.92094 49.8741 3.97786 45.0379 3.97786C40.2017 3.97786 35.5705 5.92094 32.1611 9.36861C28.7529 12.8151 26.8441 17.4826 26.8441 22.3424V25.4154V28.4154H29.8441H60.2318ZM63.3094 25.4154V28.4154H66.3094H84.5808V86.8737C84.5808 89.3487 83.6082 91.7158 81.8875 93.4558C80.1679 95.1947 77.8429 96.1654 75.4257 96.1654H14.6502C12.233 96.1654 9.90796 95.1947 8.1884 93.4558C6.46772 91.7158 5.49512 89.3488 5.49512 86.8737V28.4154H23.7665H26.7665V25.4154V22.3424C26.7665 17.4224 28.6996 12.7106 32.1299 9.24172C35.5591 5.77399 40.2029 3.83203 45.0379 3.83203C49.8729 3.83203 54.5168 5.77399 57.946 9.24172C61.3763 12.7106 63.3094 17.4224 63.3094 22.3424V25.4154Z" stroke="#41595F" stroke-width="6"/>
<path d="M26.2621 65.2362V65.2362H26.2523C25.2797 65.2362 24.4871 64.9322 23.9612 64.4782C23.4563 64.0423 23.126 63.4121 23.126 62.5536C23.126 60.7834 24.5411 59.3765 26.2523 59.3765H40.4415H41.9415V57.8765V43.8451C41.9415 42.0749 43.3566 40.668 45.0678 40.668C46.779 40.668 48.1941 42.0749 48.1941 43.8451V57.4753V58.9753H49.6941H63.5791C65.2903 58.9753 66.7054 60.3822 66.7054 62.1525C66.7054 63.9227 65.2903 65.3296 63.5791 65.3296H49.3839H47.8839V66.8296V81.3523C47.8839 83.0149 46.5551 84.3346 44.9503 84.3346C43.3456 84.3346 42.0168 83.0149 42.0168 81.3523V66.8296V65.3394L40.5266 65.3297L26.2621 65.2362Z" stroke="#A3B5FF" stroke-width="3"/>
</svg>
