<svg width="106" height="106" viewBox="0 0 106 106" fill="none" xmlns="http://www.w3.org/2000/svg">
<path d="M32.942 24.8365C32.0848 24.4271 31.2125 24.0637 30.3917 23.5974C29.5476 23.1352 28.7413 22.6045 27.9806 22.0102C26.234 20.5981 24.9803 18.8292 25.3639 16.4363C25.7925 13.8289 27.387 12.038 29.7916 11.0923C32.2691 10.1202 34.8258 10.3457 37.2369 11.2105C39.8986 12.1672 42.569 13.2378 45.01 14.6608C48.5612 16.7296 51.9109 19.1597 55.4321 21.4935C54.6263 22.5181 54.0091 23.2975 53.2354 24.2805C54.7699 24.2104 56.1093 24.171 57.4445 24.0856C62.1594 23.7857 66.855 23.3807 71.4092 21.9927C72.2258 21.7453 73.0166 21.4125 73.8074 21.0863C76.197 20.1011 76.5549 18.3037 76.4349 15.8649C76.3835 14.8469 75.5541 14.5513 74.7675 14.4616C72.6994 14.2251 70.6398 14.4156 68.7517 15.3373C65.4429 16.959 62.4316 19.1495 59.8491 21.8131C59.6217 22.0898 59.4187 22.3865 59.2426 22.6998L55.9658 19.6151C57.1466 18.5073 58.1968 17.2945 59.4569 16.3881C61.8808 14.6367 64.3326 12.8962 66.9472 11.482C69.6947 9.99324 72.7637 9.70207 75.8369 10.2713C79.356 10.9281 81.3555 14.085 80.6269 17.9162C79.8446 22.0277 79.4267 22.667 75.8434 25.027H77.1293C82.0928 25.027 87.0563 25.0117 92.0198 25.027C95.5474 25.0423 98.1342 27.1068 98.8671 30.4586C98.9564 30.9022 98.9988 31.3543 98.9936 31.8072C99.0021 35.5859 99.0021 39.3631 98.9936 43.1389C99.015 44.1938 98.7804 45.2377 98.3107 46.1775C97.841 47.1172 97.1508 47.9236 96.3018 48.5245C95.7189 48.9623 95.5624 49.4002 95.5646 50.0854C95.5803 62.9569 95.5803 75.8277 95.5646 88.6977C95.5646 92.2005 93.7857 94.7882 90.7575 95.6705C90.0411 95.8768 89.3008 95.9836 88.5565 95.988C64.8705 96.004 41.1838 96.004 17.4964 95.988C13.3023 95.988 10.4669 93.0981 10.4648 88.8159C10.4519 75.9459 10.4519 63.0759 10.4648 50.2058C10.4648 49.4484 10.2955 48.9514 9.65681 48.4698C7.89943 47.1452 7.0186 45.3019 7.01217 43.0579C6.99931 39.3142 6.99289 35.5727 7.01217 31.8313C7.0336 28.2233 9.62895 25.2634 13.1608 25.0971C16.6113 24.9329 20.0725 25.0292 23.5293 25.0204C26.6433 25.0204 29.7445 25.0204 32.8692 25.0204L32.942 24.8365ZM53.0254 45.5799H60.0977C70.6706 45.5799 81.2477 45.5799 91.8291 45.5799C93.9293 45.5799 94.7694 44.7261 94.7759 42.6025C94.7866 39.2814 94.7759 35.958 94.7759 32.6347C94.7759 30.1236 93.9872 29.3311 91.5054 29.3311H14.511C14.1693 29.3179 13.8272 29.3267 13.4866 29.3574C12.1686 29.5303 11.2899 30.4652 11.2813 31.8137C11.2556 35.591 11.2556 39.3682 11.2813 43.1454C11.2813 44.5225 12.1686 45.4267 13.5059 45.5536C13.9474 45.5952 14.3931 45.5821 14.8389 45.5821L53.0254 45.5799ZM14.6996 49.9344C14.676 50.2672 14.6503 50.4729 14.6503 50.6787C14.6503 63.3765 14.6503 76.0677 14.6503 88.7524C14.6503 90.6943 15.6126 91.6576 17.4921 91.6576C26.9005 91.6576 36.3103 91.6576 45.7216 91.6576C46.0152 91.6576 46.3088 91.616 46.5638 91.5985V49.9344H14.6996ZM59.4462 49.9234V91.6598H88.2522C90.5325 91.6598 91.3961 90.7709 91.3961 88.4174C91.3961 75.9678 91.3961 63.5181 91.3961 51.0684V49.9234H59.4462ZM50.9722 49.9585V91.5744H55.0914V49.9585H50.9722ZM51.3001 24.5103L51.3923 24.0593C47.106 20.8061 42.7126 17.7323 37.6483 15.8386C36.527 15.419 35.3686 15.1111 34.1893 14.9191C32.7534 14.6827 31.3025 14.7002 30.1795 15.9087C29.3223 16.8303 29.2687 17.5419 30.2631 18.2928C31.4054 19.1532 32.6205 20.0442 33.9557 20.4821C37.5891 21.6686 41.2638 22.7173 44.98 23.628C47.0374 24.1338 49.1892 24.2301 51.3001 24.5103Z" fill="#41595F"/>
<path d="M53.1152 45.5415H14.6807C14.2321 45.5415 13.7835 45.5544 13.3393 45.5134C11.9936 45.3883 11.1094 44.4977 11.1008 43.1412C11.0706 39.4218 11.0706 35.701 11.1008 31.9787C11.1008 30.6503 11.9936 29.7294 13.3199 29.5591C13.6626 29.5288 14.0069 29.5202 14.3507 29.5332H91.8473C94.3446 29.5332 95.136 30.3139 95.1382 32.7875C95.1382 36.0611 95.1382 39.3348 95.1382 42.6064C95.1382 44.6982 94.2863 45.5393 92.1729 45.5393C81.5338 45.5393 70.8904 45.5393 60.2426 45.5393L53.1152 45.5415Z" fill="white"/>
<path d="M14.5383 49.832H46.6066V90.8846C46.3499 90.9019 46.0545 90.9428 45.759 90.9428C36.2902 90.9428 26.8214 90.9428 17.3526 90.9428C15.4613 90.9428 14.493 89.9939 14.493 88.0811C14.4815 75.5729 14.4815 63.0712 14.493 50.576C14.4887 50.3625 14.5146 50.1598 14.5383 49.832Z" fill="white"/>
<path d="M59.5703 49.8203H91.7205V50.9482C91.7205 63.2134 91.7205 75.4771 91.7205 87.7394C91.7205 90.0577 90.8579 90.9333 88.5568 90.9333H59.5703V49.8203Z" fill="white"/>
<path d="M51.0391 49.8555H55.184V90.8498H51.0391V49.8555Z" fill="white"/>
<path d="M51.3683 24.7864C49.244 24.5104 47.0788 24.4155 45.0085 23.9238C41.2705 23.0339 37.5727 22.0009 33.9151 20.8248C32.578 20.3935 31.3488 19.5136 30.1993 18.6682C29.1987 17.9285 29.2591 17.2276 30.1152 16.3197C31.2453 15.1228 32.7031 15.112 34.1502 15.3449C35.3396 15.5314 36.5081 15.8326 37.6395 16.2442C42.7355 18.1097 47.1565 21.1375 51.4696 24.3422L51.3683 24.7864Z" fill="white"/>
<rect x="46" y="49.8203" width="14" height="41.9287" fill="#A3B5FF"/>
</svg>
