<svg width="76" height="141" viewBox="0 0 76 141" fill="none" xmlns="http://www.w3.org/2000/svg">
<rect width="75.2893" height="140.154" rx="12" fill="#41595F"/>
<rect x="5.79395" y="8.10938" width="63.7063" height="123.938" fill="white"/>
<path d="M24.3276 8.10938H52.1267V8.74256C52.1267 10.9517 50.3359 12.7426 48.1267 12.7426H28.3276C26.1185 12.7426 24.3276 10.9517 24.3276 8.74256V8.10938Z" fill="#41595F"/>
<line x1="22.0044" y1="126.414" x2="53.2784" y2="126.414" stroke="#FAFAFA" stroke-width="2"/>
<circle cx="37.6448" cy="54.9602" r="14.5579" stroke="#F2F0F0"/>
<path d="M44.2746 47.9933H42.9152V47.2195C42.9148 46.8092 42.7715 46.4158 42.5166 46.1256C42.2618 45.8355 41.9162 45.6723 41.5558 45.6719H33.3995C33.039 45.6723 32.6935 45.8355 32.4386 46.1256C32.1838 46.4158 32.0404 46.8092 32.0401 47.2195V47.9933H30.6807C30.3203 47.9937 29.9747 48.1569 29.7198 48.447C29.465 48.7372 29.3216 49.1306 29.3213 49.5409V51.8623C29.3222 52.6829 29.6089 53.4696 30.1186 54.0498C30.6283 54.6301 31.3193 54.9565 32.0401 54.9576H32.2589C32.5422 56.142 33.1222 57.207 33.9282 58.0224C34.7343 58.8378 35.7314 59.3684 36.7979 59.5493V62.6956H33.3995V64.2432H41.5558V62.6956H38.1573V59.547C39.2377 59.3949 40.2527 58.8757 41.0699 58.057C41.8871 57.2383 42.4686 56.1582 42.7385 54.9576H42.9152C43.636 54.9565 44.327 54.6301 44.8367 54.0498C45.3463 53.4696 45.6331 52.6829 45.634 51.8623V49.5409C45.6336 49.1306 45.4903 48.7372 45.2354 48.447C44.9806 48.1569 44.635 47.9937 44.2746 47.9933ZM32.0401 53.4099C31.6796 53.4095 31.3341 53.2463 31.0792 52.9562C30.8244 52.6661 30.681 52.2727 30.6807 51.8623V49.5409H32.0401V53.4099ZM44.2746 51.8623C44.2742 52.2727 44.1309 52.6661 43.876 52.9562C43.6212 53.2463 43.2756 53.4095 42.9152 53.4099V49.5409H44.2746V51.8623Z" fill="#C5C5C5"/>
<path d="M40.7642 50.6222L38.6577 50.3169L37.716 48.4129C37.6903 48.3608 37.648 48.3186 37.5957 48.2929C37.4646 48.2284 37.3053 48.2822 37.2398 48.4129L36.2981 50.3169L34.1915 50.6222C34.1334 50.6305 34.0803 50.6578 34.0397 50.6992C33.9905 50.7495 33.9634 50.8173 33.9644 50.8876C33.9653 50.9579 33.9942 51.0249 34.0447 51.074L35.5688 52.5559L35.2087 54.6486C35.2003 54.6972 35.2057 54.7473 35.2243 54.7931C35.2429 54.8389 35.274 54.8785 35.3141 54.9075C35.3542 54.9366 35.4016 54.9538 35.451 54.9573C35.5005 54.9608 35.5499 54.9505 35.5937 54.9274L37.4779 53.9394L39.3621 54.9274C39.4135 54.9547 39.4733 54.9638 39.5305 54.9539C39.6749 54.9291 39.7719 54.7925 39.747 54.6486L39.387 52.5559L40.9111 51.074C40.9526 51.0334 40.9799 50.9805 40.9882 50.9226C41.0106 50.7778 40.9094 50.6437 40.7642 50.6222Z" fill="white"/>
<rect x="28" y="82" width="30" height="7" rx="3.5" fill="#E8E8E8"/>
<rect x="17" y="82" width="30" height="7" rx="3.5" fill="#667799"/>
</svg>
