<svg width="59" height="47" viewBox="0 0 59 47" fill="none" xmlns="http://www.w3.org/2000/svg">
<rect x="1.14893" y="0.717896" width="56.8915" height="36.4592" rx="0.5" stroke="#41595F"/>
<line x1="0.648926" y1="29.6853" x2="58.5405" y2="29.6853" stroke="#41595F"/>
<circle cx="45.9418" cy="33.2503" r="1.02162" fill="#41595F"/>
<circle cx="51.3876" cy="33.2503" r="1.02162" fill="#41595F"/>
<path d="M21.7615 37.3365C25.9246 40.8982 25.7228 42.6846 21.7615 45.85H37.4095C33.4483 42.6846 33.2464 40.8982 37.4095 37.3365" stroke="#41595F"/>
<path d="M42.8896 16.5859L37.4599 15.5021L37.1442 15.447C36.9698 15.4006 36.4177 15.1535 35.6582 14.8223L35.7332 14.7561C35.8877 14.5529 35.8391 14.1952 35.5985 14.0738C35.3954 13.9193 35.0377 13.9678 34.9162 14.2084L34.7242 14.4448C34.3091 14.2771 33.9314 14.0761 33.4833 13.8707L33.5627 13.7337C33.7172 13.5306 33.6686 13.1729 33.428 13.0514C33.2248 12.897 32.8671 12.9455 32.7457 13.1861L32.5867 13.4599C32.2092 13.259 31.7984 13.0206 31.4208 12.8196L31.5378 12.6495C31.6923 12.4464 31.6437 12.0886 31.4031 11.9672C31.2 11.8127 30.8422 11.8613 30.7208 12.1019L30.5663 12.3051C30.5332 12.2675 30.4626 12.2632 30.4294 12.2256C30.1556 12.0666 29.9525 11.9122 29.7162 11.7201L29.4512 11.4199C29.0338 10.7199 28.4133 9.86551 27.6693 9.85457C26.8921 9.80606 26.1943 10.7556 26.4528 11.7293L26.6294 12.3077C26.6626 12.3453 26.625 12.3784 26.5876 12.4115C23.7547 14.0434 22.7988 14.0192 22.1914 14.0878C21.2265 14.205 20.9129 13.5469 20.6568 13.1054C20.3057 12.4806 20.0208 11.9308 18.6872 11.7057C18.1971 11.6042 17.7135 11.9641 17.6495 12.4212C17.4862 13.9007 16.7512 18.2881 16.7183 19.3856C15.6851 21.1654 16.4072 22.6646 17.6702 22.8852C25.5972 24.3021 36.1625 23.7912 40.0529 22.8285C41.9296 22.3072 44.6366 20.9867 44.7933 19.0457C44.9079 18.3437 44.6054 16.9415 42.8897 16.5861L42.8896 16.5859ZM18.6959 12.6996C19.4312 12.8519 19.5592 13.0726 19.8486 13.5518C20.1049 13.9934 20.6657 15.2343 22.3085 15.0532C23.7591 15.1082 25.9251 13.9313 27.1373 13.2622C27.5789 13.0059 27.7886 12.4871 27.6406 12.0168L27.4639 11.4384C27.3778 11.1138 27.5368 10.8401 27.678 10.8489C27.8193 10.8577 28.2257 11.1668 28.6386 11.9373C28.7666 12.1581 28.9323 12.3459 29.1354 12.5003C29.3717 12.6924 29.6455 12.8514 29.8818 13.0434C29.915 13.081 29.915 13.081 29.9856 13.0853L29.4005 13.9353C29.2461 14.1385 29.2946 14.4962 29.5352 14.6176C29.7384 14.7721 30.0961 14.7235 30.2175 14.4829L30.8402 13.5997C31.2177 13.8006 31.6284 14.039 32.0061 14.24L31.4254 15.0195C31.2709 15.2227 31.3195 15.5804 31.5601 15.7019C31.7633 15.8563 32.121 15.8078 32.2424 15.5672L32.865 14.6839C33.3133 14.8892 33.6909 15.0901 34.106 15.258L33.596 16.0414C33.4415 16.2445 33.4901 16.6023 33.7307 16.7237C33.9338 16.8782 34.2916 16.8296 34.413 16.589L35.0775 15.602C36.0447 16.0171 36.7711 16.3106 36.8417 16.3151C36.8749 16.3527 36.9125 16.3196 36.9455 16.357L42.7616 17.5004C43.6381 17.6616 43.848 18.2775 43.8591 18.6683C42.2805 19.5274 38.9487 20.0641 38.2375 20.0908C27.2109 20.6081 21.4566 19.6105 17.7625 19.1318C17.8287 18.072 18.2878 15.2633 18.6961 12.6998L18.6959 12.6996ZM39.7944 21.8549C36.0828 22.7936 26.0119 23.3352 17.8356 21.9381C17.0627 21.8189 17.1621 20.7966 17.4889 20.1076C20.7259 20.5225 26.7209 21.6416 38.242 21.1548C39.0236 21.1327 41.532 20.7218 43.2012 20.1166C42.2959 20.9823 40.5517 21.6535 39.7943 21.8547L39.7944 21.8549Z" fill="#A3B5FF"/>
<path d="M19.2877 17.9853L21.0121 18.1994C21.2948 18.217 21.553 18.0557 21.5707 17.7733C21.5883 17.4906 21.427 17.2323 21.1446 17.2147L19.4202 17.0006C19.1375 16.983 18.8792 17.1443 18.8616 17.4267C18.8108 17.6719 19.0427 17.9346 19.2877 17.9853Z" fill="#A3B5FF"/>
</svg>
