<svg width="173" height="137" viewBox="0 0 173 137" fill="none" xmlns="http://www.w3.org/2000/svg">
<rect x="1" y="1" width="170.5" height="109.618" rx="11" stroke="black" stroke-width="2"/>
<line y1="88.2939" x2="172.5" y2="88.2939" stroke="black" stroke-width="2"/>
<circle cx="134.958" cy="98.4269" r="3.04412" fill="#41595F"/>
<circle cx="151.189" cy="98.4269" r="3.04412" fill="#41595F"/>
<path d="M62.9102 110.603C75.3151 121.216 74.7136 126.539 62.9102 135.971H109.537C97.7334 126.539 97.1319 121.216 109.537 110.603" stroke="black" stroke-width="2"/>
<path d="M108.681 42.64L108.691 42.6429L108.702 42.6447L109.64 42.8084L109.643 42.8089L125.748 46.0236L125.814 46.0374C128.302 46.5528 129.744 47.8193 130.529 49.1938C131.32 50.5781 131.453 52.0867 131.29 53.0812L131.289 53.0913L131.288 53.1014C131.064 55.8793 129.008 58.2509 126.255 60.1374C123.511 62.0177 120.126 63.3796 117.349 64.1512C111.579 65.5784 100.835 66.6754 88.5711 66.8866C76.3092 67.0978 62.551 66.4231 50.762 64.316L50.761 64.3158C48.9719 64.0033 47.5662 62.7879 46.9711 61.011C46.3753 59.2319 46.586 56.8641 48.0978 54.2599L48.1296 54.2052L48.1315 54.1419C48.1799 52.5252 48.7487 48.4582 49.3706 44.2215C49.499 43.3467 49.6296 42.4654 49.7581 41.598C50.2496 38.2799 50.7107 35.1666 50.9043 33.4135C51.0772 32.1954 52.3808 31.2225 53.6978 31.4952L53.6978 31.4953L53.7069 31.4969C55.6632 31.8272 56.8218 32.3905 57.6172 33.0783C58.3909 33.7473 58.8406 34.5485 59.3458 35.4483C59.3635 35.4799 59.3814 35.5117 59.3993 35.5436L59.401 35.5466C59.4436 35.6201 59.4872 35.6965 59.5321 35.7751C59.8792 36.3832 60.3029 37.1254 60.9457 37.6959C61.6885 38.3552 62.7123 38.7794 64.2191 38.5966C64.359 38.5809 64.5062 38.5667 64.6627 38.5516C65.5073 38.4702 66.6221 38.3629 68.3266 37.8367C70.3435 37.2141 73.1834 36.0072 77.414 33.5701L77.4358 33.5575L77.4547 33.5409C77.4577 33.5383 77.4609 33.5355 77.4642 33.5325C77.5119 33.4907 77.596 33.4169 77.6468 33.3293C77.6778 33.2759 77.707 33.2008 77.7014 33.1104C77.6971 33.0417 77.6738 32.9813 77.6405 32.9301L77.128 31.2522C76.7646 29.8774 77.0754 28.5206 77.7498 27.5257C78.4273 26.5261 79.4498 25.9187 80.4968 25.9841L80.4968 25.9844L80.5087 25.9846C81.5207 25.9994 82.478 26.5899 83.3547 27.4729C84.2279 28.3523 84.9887 29.4894 85.6073 30.5268L85.6193 30.5467L85.6346 30.5642L86.4241 31.4588L86.4378 31.4743L86.4539 31.4874C87.1543 32.0565 87.7651 32.5219 88.5829 32.9993C88.6689 33.0788 88.7753 33.1211 88.8345 33.1447C88.839 33.1465 88.8433 33.1482 88.8473 33.1498C88.8884 33.1664 88.9144 33.1772 88.9359 33.1886C88.9515 33.1969 88.9572 33.2017 88.9579 33.2024L89.1592 33.4304L89.3438 33.1876L89.8041 32.5823L89.8179 32.564L89.8283 32.5436C89.9657 32.2712 90.2449 32.093 90.5737 32.035C90.904 31.9768 91.2484 32.0473 91.4868 32.2286L91.5051 32.2425L91.5255 32.2528C91.798 32.3903 91.9761 32.6694 92.0341 32.9982C92.0923 33.3285 92.0218 33.6729 91.8405 33.9114L91.8403 33.9112L91.8335 33.921L91.4848 34.4279L91.3261 34.6586L91.5734 34.7902C92.1329 35.088 92.7174 35.4138 93.3044 35.741L93.3063 35.742C93.8931 36.069 94.4825 36.3975 95.0475 36.6981L95.2601 36.8112L95.3811 36.603L95.8549 35.7872L95.8585 35.7809L95.8619 35.7743C95.9993 35.5019 96.2785 35.3237 96.6073 35.2658C96.9376 35.2075 97.282 35.278 97.5204 35.4593L97.5387 35.4732L97.5591 35.4835C97.8315 35.621 98.0097 35.9001 98.0676 36.2289C98.1259 36.5593 98.0554 36.9036 97.8741 37.1421L97.8647 37.1545L97.8568 37.1679L97.6201 37.576L97.482 37.814L97.7322 37.9287C98.2102 38.1478 98.6663 38.3677 99.1127 38.5831C99.8957 38.9608 100.649 39.3243 101.44 39.6438L101.612 39.713L101.728 39.5697L102.3 38.8655L102.317 38.8446L102.329 38.8205C102.467 38.5481 102.746 38.3699 103.075 38.312C103.405 38.2537 103.75 38.3242 103.988 38.5055L104.006 38.5194L104.027 38.5297C104.299 38.6672 104.477 38.9463 104.535 39.2751C104.592 39.5969 104.527 39.932 104.355 40.1696L104.152 40.3494L103.857 40.6091L104.217 40.766C104.574 40.9216 104.916 41.071 105.24 41.213C105.943 41.5208 106.566 41.7932 107.086 42.0158C107.839 42.3376 108.399 42.5652 108.681 42.64ZM53.8252 33.967L53.3523 33.8691L53.5164 34.2455C53.4057 34.9405 53.2938 35.6417 53.1815 36.3445C52.0652 43.3354 50.9231 50.4878 50.7437 53.3625L50.7291 53.596L50.9611 53.626C52.0261 53.764 53.1488 53.9166 54.3378 54.0781C65.4379 55.5859 82.3153 57.8785 112.013 56.4854C113.096 56.4446 116.124 56.0211 119.462 55.2905C122.8 54.5602 126.488 53.5146 128.873 52.2166L129.008 52.1433L129.003 51.9899C128.986 51.3703 128.811 50.5675 128.287 49.8526C127.759 49.1324 126.892 48.5221 125.53 48.2715C125.529 48.2714 125.529 48.2713 125.528 48.2712L108.266 44.8774C108.23 44.8518 108.192 44.8332 108.152 44.8207C108.092 44.8018 108.035 44.7995 108.014 44.7982C108.013 44.7981 108.013 44.7981 108.012 44.7981L107.963 44.7423L107.867 44.7362C107.864 44.7356 107.857 44.7342 107.846 44.731C107.824 44.7252 107.793 44.7161 107.753 44.703C107.673 44.6769 107.563 44.6382 107.426 44.5871C107.152 44.4851 106.774 44.3368 106.311 44.1497C105.385 43.7756 104.125 43.2485 102.685 42.6305L102.495 42.5488L102.379 42.7206L100.399 45.6616L100.391 45.6746L100.384 45.6886C100.246 45.961 99.9669 46.1392 99.6381 46.1971C99.3078 46.2553 98.9634 46.1848 98.725 46.0035L98.7067 45.9897L98.6863 45.9794C98.4138 45.8419 98.2357 45.5627 98.1777 45.234C98.1195 44.9036 98.19 44.5592 98.3713 44.3208L98.3768 44.3135L98.3818 44.3059L99.9015 41.9717L100.067 41.7174L99.7857 41.6035C99.0101 41.2897 98.2866 40.9407 97.5189 40.5704C97.0672 40.3525 96.6003 40.1272 96.0984 39.8974L95.9096 39.811L95.79 39.9807L93.9347 42.6124L93.9241 42.6274L93.9158 42.6438C93.7784 42.9162 93.4992 43.0944 93.1704 43.1523C92.8401 43.2106 92.4957 43.1401 92.2573 42.9588L92.239 42.9449L92.2186 42.9346C91.9462 42.7971 91.768 42.518 91.71 42.1892C91.6518 41.8588 91.7223 41.5145 91.9036 41.276L91.9051 41.2741L93.6353 38.9512L93.8091 38.7179L93.5522 38.5812C92.9927 38.2834 92.4083 37.9577 91.8213 37.6305L91.8193 37.6294C91.2325 37.3024 90.6432 36.9739 90.0781 36.6733L89.8834 36.5697L89.7564 36.75L87.9011 39.3817L87.8905 39.3967L87.8823 39.4131C87.7448 39.6855 87.4656 39.8637 87.1369 39.9216C86.8065 39.9798 86.4621 39.9094 86.2237 39.7281L86.2055 39.7142L86.185 39.7039C85.9126 39.5664 85.7344 39.2873 85.6765 38.9585C85.6182 38.6281 85.6887 38.2838 85.87 38.0453L85.8702 38.0455L85.877 38.0357L87.6203 35.5029L87.8711 35.1384L87.4295 35.1116C87.4016 35.1099 87.3798 35.1085 87.362 35.1073C87.3457 35.1061 87.3328 35.1051 87.3219 35.1039C87.3154 35.0967 87.3062 35.0864 87.2925 35.071L87.2788 35.0554L87.2627 35.0424C86.903 34.75 86.5162 34.4838 86.139 34.2243L86.1348 34.2213C85.7533 33.9588 85.3817 33.7029 85.0387 33.4241L85.0388 33.424L85.0324 33.4191C84.4544 32.9797 83.9835 32.4465 83.6189 31.8187C82.9953 30.6556 82.3725 29.8325 81.8447 29.293C81.5808 29.0232 81.3378 28.8213 81.1274 28.6832C80.9257 28.5509 80.726 28.4585 80.5541 28.4478C80.3627 28.4359 80.1918 28.5208 80.0598 28.6373C79.9267 28.7547 79.8166 28.9173 79.736 29.1039C79.5742 29.4783 79.5166 29.9816 79.6589 30.518L79.6588 30.5181L79.6615 30.527L80.1879 32.2504L80.1886 32.2524C80.5922 33.5359 80.0223 34.9623 78.8041 35.6706C76.9981 36.6675 74.4928 38.0362 71.9018 39.1356C69.3016 40.2388 66.6508 41.0549 64.5482 40.9751L64.5297 40.9744L64.5113 40.9764C62.14 41.2378 60.5685 40.4755 59.4927 39.4988C58.5583 38.6506 57.994 37.6402 57.605 36.9436C57.5406 36.8284 57.481 36.7217 57.4254 36.6258L57.4254 36.6258L57.4231 36.622C57.4118 36.6033 57.4006 36.5846 57.3894 36.5661C56.9802 35.8883 56.6521 35.3449 56.1506 34.9247C55.6283 34.4871 54.9391 34.1977 53.8252 33.967ZM116.703 61.7344L116.948 61.6723L116.947 61.6669C118.103 61.3398 119.857 60.7131 121.658 59.8709C123.586 58.9693 125.588 57.8106 126.966 56.493L126.708 56.0773C124.238 56.9728 121.14 57.7269 118.365 58.2654C115.587 58.8046 113.152 59.1239 112.009 59.1562L112.005 59.1563C81.7544 60.4343 64.3042 57.9949 53.9871 56.5526C52.6043 56.3593 51.3497 56.1839 50.2095 56.0378L50.0296 56.0147L49.9519 56.1786C49.4523 57.2317 49.1194 58.5516 49.2165 59.6712C49.2652 60.2329 49.4238 60.7616 49.7423 61.1784C50.0648 61.6004 50.5368 61.8884 51.1707 61.9866C63.3715 64.0713 76.98 64.7089 88.92 64.4759C100.856 64.2431 111.146 63.1399 116.703 61.7344Z" fill="#313131" stroke="white" stroke-width="0.5"/>
<path d="M61.0382 47.9138L61.0458 47.9147L61.0535 47.9152C61.7129 47.9564 62.1362 48.5609 62.0892 49.3146C62.0482 49.9718 61.4475 50.3946 60.6972 50.3507L55.5774 49.7152C55.2795 49.6509 54.9772 49.4546 54.7658 49.1908C54.5519 48.9237 54.455 48.6194 54.5112 48.3483L54.5148 48.3309L54.5159 48.3131C54.5569 47.6559 55.1576 47.2331 55.9079 47.277L61.0382 47.9138Z" fill="#313131" stroke="white" stroke-width="0.5"/>
</svg>
