<svg width="135" height="126" viewBox="0 0 135 126" fill="none" xmlns="http://www.w3.org/2000/svg">
<path d="M4.94975 81.871L51.383 35.4378L92.013 35.4377L92.013 72.974L43.8274 120.755C43.4364 121.142 42.8055 121.141 42.4162 120.752L4.94975 83.2852C4.55922 82.8947 4.55922 82.2615 4.94975 81.871Z" fill="white" stroke="#41595F" stroke-width="6"/>
<circle cx="72.247" cy="54.1455" r="7.87204" stroke="#A3B5FF" stroke-width="3"/>
<line x1="23.0548" y1="82.2617" x2="44.1335" y2="103.34" stroke="#A3B5FF" stroke-width="2" stroke-linecap="round"/>
<path d="M96.8524 26.4592H80.3565C76.8459 26.4592 74 29.4207 74 33.074C74 36.7273 76.8459 40 80.3565 40H88C92.4183 40 96 43.5817 96 48V49.5V59.6608C96 63.1618 99.6832 66 103.048 66C106.412 66 109.139 63.1618 109.139 59.6608V39.1215H128.643C132.154 39.1215 135 36.1599 135 32.5066C135 28.8533 132.154 25.8918 128.643 25.8918H109.566V6.61486C109.566 2.96157 106.72 0 103.209 0C99.6984 0 96.8524 2.96157 96.8524 6.61486V26.4592Z" fill="white"/>
<path d="M99.778 38.0673V36.5673H98.278H82.9661C81.0646 36.5673 79.5 35.0081 79.5 33.0561C79.5 31.104 81.0646 29.5448 82.9661 29.5448H98.1972H99.6972V28.0448V13.0113C99.6972 11.0592 101.262 9.5 103.163 9.5C105.065 9.5 106.629 11.0592 106.629 13.0113V27.615V29.115H108.129H123.034C124.935 29.115 126.5 30.6742 126.5 32.6262C126.5 34.5783 124.935 36.1375 123.034 36.1375H107.796H106.296V37.6375V53.1975C106.296 55.0343 104.824 56.5 103.037 56.5C101.25 56.5 99.778 55.0343 99.778 53.1975V38.0673Z" stroke="#A3B5FF" stroke-width="3"/>
</svg>
