<svg width="111" height="110" viewBox="0 0 111 110" fill="none" xmlns="http://www.w3.org/2000/svg">
<path d="M66.2 8.72975C66.2 5.01221 63.1612 2 59.4108 2H51.5945C47.8388 2 44.8 5.01221 44.8 8.72975C44.8 11.795 42.6814 14.4254 39.7977 15.5497C39.343 15.73 38.8883 15.9209 38.4442 16.1118C35.6034 17.3315 32.2275 16.9603 30.034 14.7913C28.7609 13.5303 27.0348 12.8219 25.235 12.8219C23.4353 12.8219 21.7092 13.5303 20.4361 14.7913L14.9042 20.2748C13.632 21.5367 12.9174 23.2477 12.9174 25.0318C12.9174 26.8158 13.632 28.5268 14.9042 29.7887C17.0977 31.963 17.4722 35.304 16.231 38.1253C16.036 38.5693 15.8487 39.0166 15.6692 39.467C14.535 42.3255 11.8815 44.4255 8.78915 44.4255C5.0388 44.4255 2 47.4377 2 51.1553V58.9085C2 62.6261 5.0388 65.6383 8.78915 65.6383C11.8815 65.6383 14.535 67.7384 15.6692 70.5968C15.8511 71.0475 16.0437 71.4983 16.231 71.9385C17.4668 74.7545 17.0924 78.1008 14.9042 80.2751C13.632 81.537 12.9174 83.248 12.9174 85.0321C12.9174 86.8161 13.632 88.5271 14.9042 89.789L20.4361 95.2725C21.7092 96.5336 23.4353 97.2419 25.235 97.2419C27.0348 97.2419 28.7609 96.5336 30.034 95.2725C32.2275 93.0982 35.598 92.727 38.4442 93.952C38.8883 94.1482 39.343 94.3339 39.7977 94.5142C42.6814 95.6384 44.8 98.2688 44.8 101.334C44.8 105.052 47.8388 108.064 51.5891 108.064H59.4108C63.1612 108.064 66.2 105.052 66.2 101.334C66.2 98.2688 68.3186 95.6384 71.2023 94.5089C71.657 94.3339 72.1117 94.1482 72.5558 93.9573C75.3966 92.727 78.7725 93.1035 80.9607 95.2725C81.5911 95.8977 82.3397 96.3937 83.1635 96.732C83.9874 97.0704 84.8705 97.2446 85.7623 97.2446C86.6541 97.2446 87.5371 97.0704 88.361 96.732C89.1849 96.3937 89.9334 95.8977 90.5639 95.2725L96.0958 89.789C97.368 88.5271 98.0826 86.8161 98.0826 85.0321C98.0826 83.248 97.368 81.537 96.0958 80.2751C93.9023 78.1008 93.5278 74.7598 94.7637 71.9385C94.9616 71.4983 95.1488 71.0475 95.3307 70.5968C96.4649 67.7384 99.1186 65.6383 102.211 65.6383C105.961 65.6383 109 62.6261 109 58.9085V51.1606C109 47.443 105.961 44.4308 102.211 44.4308C99.1186 44.4308 96.4649 42.3308 95.3254 39.4723C95.1461 39.0219 94.9589 38.5746 94.7637 38.1306C93.5332 35.3146 93.9076 31.9683 96.0958 29.794C97.368 28.5321 98.0826 26.8211 98.0826 25.0371C98.0826 23.253 97.368 21.542 96.0958 20.2801L90.5639 14.7966C89.2908 13.5356 87.5647 12.8272 85.7649 12.8272C83.9652 12.8272 82.2391 13.5356 80.966 14.7966C78.7725 16.9709 75.402 17.3421 72.5558 16.1171C72.1079 15.922 71.6567 15.7346 71.2023 15.555C68.3186 14.4254 66.2 11.7897 66.2 8.72975Z" stroke="#41595F" stroke-width="3"/>
<path d="M81 54C81 60.8956 78.208 67.5088 73.2383 72.3848C68.2686 77.2607 61.5282 80 54.5 80C47.4718 80 40.7314 77.2607 35.7617 72.3848C30.792 67.5088 28 60.8956 28 54C28 47.1044 30.792 40.4912 35.7617 35.6152C40.7314 30.7393 47.4718 28 54.5 28C61.5282 28 68.2686 30.7393 73.2383 35.6152C78.208 40.4912 81 47.1044 81 54V54Z" stroke="#A3B5FF" stroke-width="3"/>
<path d="M68.1659 45.1659L63.1112 40.0853C62.7772 39.753 62.3252 39.5664 61.854 39.5664C61.3828 39.5664 60.9308 39.753 60.5968 40.0853L42.6771 57.9792L41.0409 65.0403C40.9845 65.2984 40.9864 65.5659 41.0466 65.8232C41.1068 66.0805 41.2237 66.321 41.3887 66.5274C41.5538 66.7337 41.7628 66.9005 42.0006 67.0157C42.2384 67.1309 42.4989 67.1915 42.7632 67.1931C42.8863 67.2055 43.0103 67.2055 43.1334 67.1931L50.2721 65.557L68.1659 47.6803C68.4983 47.3463 68.6848 46.8943 68.6848 46.4231C68.6848 45.9519 68.4983 45.4999 68.1659 45.1659ZM49.4109 64.007L42.7201 65.4106L44.2443 58.8489L57.6518 45.4931L62.8184 50.6597L49.4109 64.007ZM63.9723 49.4111L58.8057 44.2445L61.8023 41.265L66.8829 46.4317L63.9723 49.4111Z" fill="#41595F"/>
</svg>
