<svg width="18" height="20" viewBox="0 0 18 20" fill="none" xmlns="http://www.w3.org/2000/svg">
<path d="M4.60936 4.37034L4.60942 4.37027L7.84283 0.989085L7.8754 0.955027C8.03317 0.799227 8.21828 0.67955 8.41903 0.60213C8.63374 0.519329 8.86224 0.48642 9.08916 0.50507C9.31611 0.523721 9.53758 0.593628 9.73839 0.711133C9.93928 0.82869 10.1153 0.991455 10.2531 1.18958L10.3186 1.28395L4.85624 6.99593L4.85328 6.99387C4.65656 6.85663 4.48958 6.67416 4.36573 6.45833C4.24185 6.24245 4.16465 5.99925 4.14076 5.74628C4.11687 5.49329 4.14702 5.23821 4.2286 4.99977C4.31016 4.76137 4.4407 4.54663 4.60936 4.37034Z" stroke="#000"/>
<path d="M6.87693 8.40072L11.7366 3.31888L12.8928 4.98179C12.8929 4.98201 12.8931 4.98223 12.8932 4.98244C12.9653 5.08667 13.0532 5.17934 13.1542 5.25662L13.1555 5.25759L14.716 6.44392L9.94366 11.4353L9.13077 10.1003C9.13075 10.1002 9.13073 10.1002 9.1307 10.1002C9.04485 9.95912 8.92976 9.83202 8.78618 9.73278L6.87693 8.40072Z" stroke="#000"/>
<path d="M11.252 13.5863L16.6635 7.92658L16.7839 8.01837L16.7844 8.01877C16.9715 8.16107 17.1285 8.34538 17.2434 8.5601C17.3584 8.77488 17.428 9.0143 17.4466 9.26181C17.4652 9.50933 17.4322 9.75779 17.3504 9.98976C17.2686 10.2217 17.1403 10.4306 16.9757 10.6029L13.7695 13.9567L13.7694 13.9568C13.5988 14.1353 13.3936 14.2698 13.1698 14.3521C12.9461 14.4344 12.7084 14.4629 12.4737 14.4359C12.2391 14.409 12.0119 14.3272 11.809 14.1951C11.6207 14.0725 11.4575 13.9094 11.3305 13.715L11.3019 13.6681L11.252 13.5863Z" stroke="#000"/>
<path d="M0.869731 16.1712L0.869828 16.1713L0.878012 16.1629L6.24905 10.6527L7.39923 11.4546L7.88199 12.2476L2.46911 17.9078L2.46901 17.9077L2.46116 17.9163C2.3545 18.0332 2.22775 18.1252 2.0891 18.188C1.95052 18.2508 1.8022 18.2836 1.65273 18.285C1.50326 18.2865 1.35446 18.2566 1.2149 18.1966C1.07529 18.1365 0.94707 18.047 0.838472 17.9324L0.516214 18.2376L0.838472 17.9324C0.729826 17.8177 0.643134 17.6801 0.584612 17.5272C0.526077 17.3744 0.497214 17.2101 0.500212 17.0442C0.50321 16.8784 0.537988 16.7155 0.601915 16.5653C0.665829 16.4151 0.757268 16.2813 0.869731 16.1712Z" stroke="#000"/>
<path d="M15.4334 18.0028V18.5028H17.2997C17.3453 18.5028 17.3939 18.5215 17.4332 18.5627C17.4733 18.6047 17.4996 18.6661 17.4996 18.7347C17.4996 18.8032 17.4733 18.8647 17.4332 18.9066C17.3939 18.9478 17.3453 18.9665 17.2997 18.9665H9.36784C9.32223 18.9665 9.2737 18.9478 9.23432 18.9066C9.19421 18.8647 9.16797 18.8032 9.16797 18.7347C9.16797 18.6661 9.19421 18.6047 9.23432 18.5627C9.2737 18.5215 9.32222 18.5028 9.36784 18.5028H11.2342V18.0028V17.5028C11.1885 17.5028 11.14 17.4841 11.1006 17.4429C11.0605 17.4009 11.0343 17.3395 11.0343 17.2709C11.0343 17.2024 11.0605 17.1409 11.1006 17.099C11.14 17.0578 11.1885 17.0391 11.2342 17.0391H15.4334C15.479 17.0391 15.5275 17.0578 15.5669 17.099C15.607 17.1409 15.6333 17.2024 15.6333 17.2709C15.6333 17.3395 15.607 17.4009 15.5669 17.4429C15.5275 17.4841 15.479 17.5028 15.4334 17.5028V18.0028Z" stroke="#000"/>
</svg>
