<svg width="32" height="29" viewBox="0 0 32 29" fill="none" xmlns="http://www.w3.org/2000/svg">
<rect x="2.94531" y="19.0938" width="9" height="8" fill="#667799" stroke="#667799"/>
<path d="M10.4398 13.2456L9.50363 11.3733L16.8813 8.36765L18.6038 13.4788L10.4398 13.2456Z" fill="#667799" stroke="#667799"/>
<path d="M11.6991 18.4141H3.28446C2.93112 18.4141 2.64453 18.7002 2.64453 19.054V27.1475C2.64453 27.5015 2.93135 27.7874 3.28446 27.7874H11.6991C12.0524 27.7874 12.339 27.5012 12.339 27.1475L12.3392 19.054C12.3392 18.7002 12.0524 18.4141 11.6991 18.4141ZM11.0591 26.5064H3.92449V19.6935H11.0591V26.5064Z" fill="black"/>
<path d="M31.9557 13.5655L30.3602 9.52272C30.3276 9.44013 30.2789 9.36782 30.22 9.30889C30.0452 9.13099 29.774 9.06514 29.5276 9.16224C29.008 9.36759 28.4408 9.35799 27.929 9.1359C27.4183 8.91381 27.0241 8.50689 26.8199 7.98707C26.6145 7.46879 26.6228 6.90162 26.8449 6.39026C27.067 5.87956 27.4734 5.48469 27.9917 5.27978C27.993 5.27978 27.9942 5.27978 27.9948 5.27911C28.3008 5.1588 28.4504 4.82979 28.3674 4.52022C28.3609 4.49589 28.3642 4.47156 28.3546 4.44857L28.354 4.4479L26.7585 0.404929C26.6964 0.2469 26.5741 0.120115 26.4187 0.052928C26.2625 -0.0149272 26.0866 -0.0173843 25.9286 0.0446694L18.5305 2.96624H18.5298H18.5292L2.0582 9.47177C1.90017 9.5345 1.77339 9.65681 1.7062 9.81216C1.63901 9.96841 1.63589 10.1443 1.69794 10.3023L2.77003 13.0145H0.640601C0.287263 13.0145 0.000676599 13.3014 0.000676599 13.6545V18.0019C0.000676599 18.3559 0.287497 18.6418 0.640601 18.6418C0.641271 18.6418 0.64194 18.6411 0.64261 18.6411C1.79258 18.6425 2.72827 19.5786 2.72827 20.7295C2.72827 21.8814 1.79126 22.8185 0.639925 22.8185C0.286586 22.8185 0 23.1047 0 23.4584V23.4591V27.8034C0 28.1574 0.28682 28.4433 0.639925 28.4433H26.3032C26.6572 28.4433 26.9431 28.1571 26.9431 27.8034V23.4591V23.4584C26.9431 23.1044 26.657 22.8185 26.3032 22.8185C25.1499 22.8185 24.2117 21.8815 24.2117 20.7295C24.2117 19.5788 25.1487 18.6425 26.3011 18.6411C26.3018 18.6411 26.3025 18.6418 26.3031 18.6418C26.6572 18.6418 26.9431 18.3556 26.9431 18.0019V16.2323L31.5945 14.3948C31.9235 14.2658 32.0846 13.894 31.9554 13.5656L31.9557 13.5655ZM22.9325 20.7298C22.9325 22.3689 24.1108 23.734 25.6639 24.034V27.1636H18.9887V23.2264C18.9887 22.8724 18.7025 22.5865 18.3487 22.5865C17.9947 22.5865 17.7088 22.8727 17.7088 23.2264V27.1636H1.28015V24.0336C2.83142 23.7333 4.00841 22.3678 4.00841 20.7301C4.00841 19.092 2.83142 17.7271 1.28015 17.4268V14.2948H17.7083V18.2326C17.7083 18.5866 17.9944 18.8726 18.3482 18.8726C18.7022 18.8726 18.9881 18.5864 18.9881 18.2326V14.2948H22.7442C22.7462 14.2948 22.7487 14.2955 22.7507 14.2955C22.7527 14.2955 22.7538 14.2948 22.7558 14.2948H25.6633V17.4262C24.11 17.7264 22.9319 19.0909 22.9319 20.7299L22.9325 20.7298ZM9.99973 10.9678L16.6361 8.34715L18.4805 13.0144H10.8075L9.99973 10.9678ZM26.9438 14.857V13.6545C26.9438 13.3012 26.6577 13.0146 26.3039 13.0146H23.1866L22.8761 12.2287C22.7462 11.8997 22.3736 11.7392 22.046 11.8684C21.717 11.9983 21.5558 12.3702 21.6857 12.6985L21.8105 13.0146H19.8554L17.5905 7.28161C17.4606 6.9526 17.0887 6.79145 16.7604 6.92135L8.93435 10.0119C8.60534 10.1418 8.44418 10.5137 8.57409 10.842L9.43166 13.014L4.14678 13.0138L3.12407 10.4264L18.4048 4.39115L19.8511 8.0531C19.9502 8.30465 20.1909 8.45822 20.4462 8.45822C20.5243 8.45822 20.6042 8.44349 20.681 8.41335C21.01 8.28345 21.1712 7.91158 21.0413 7.58326L19.5949 3.92131L25.8033 1.46961L26.9521 4.3789C26.3876 4.73737 25.9417 5.25321 25.6696 5.87977C25.3118 6.7054 25.2977 7.62057 25.6292 8.45558C25.9589 9.29258 26.595 9.94994 27.4198 10.3084C27.8499 10.4953 28.3042 10.5888 28.7592 10.5888C28.9673 10.5888 29.1753 10.5689 29.382 10.5299L30.5308 13.4392L26.9438 14.857Z" fill="black"/>
</svg>
