<svg width="19" height="22" viewBox="0 0 19 22" fill="none" xmlns="http://www.w3.org/2000/svg">
<path d="M15.3694 11.396L15.3842 11.3682L15.3954 11.3388C15.8025 10.2703 15.9588 9.1452 15.8636 8.03266C16.0398 8.25891 16.2232 8.50902 16.4053 8.77983C17.2864 10.0907 18.0965 11.8277 17.9893 13.6645C17.926 14.6478 17.6245 15.6104 17.1018 16.4869C16.6221 17.2912 15.9657 18.0067 15.1685 18.5905C13.814 18.0057 12.5495 17.2729 11.4043 16.4102C13.034 14.9545 14.376 13.2595 15.3694 11.396Z" stroke="black"/>
<path d="M12.3744 6.45968L12.3815 6.46696L12.3889 6.47395C12.9059 6.95895 13.296 7.5324 13.5374 8.15394C13.7748 8.76492 13.8642 9.41109 13.8016 10.0516C13.6254 10.7537 13.0284 11.6761 12.2202 12.6384C11.5188 13.4736 10.7008 14.29 9.9785 14.9457C7.91683 13.249 6.54773 11.0042 6.07389 8.56093C6.07314 8.55517 6.07199 8.54587 6.07062 8.53317C6.06752 8.5044 6.0633 8.4582 6.05998 8.39608C6.05333 8.27178 6.05033 8.0841 6.06709 7.84487C6.10061 7.36655 6.2131 6.683 6.53326 5.88722C7.08639 4.51239 8.27473 2.76476 10.8261 1.15647C10.5426 2.21024 10.5589 3.32079 10.8887 4.38307L10.9018 4.42528L10.9221 4.46454C11.2974 5.18989 11.7869 5.86156 12.3744 6.45968ZM6.07478 8.56753L6.07457 8.5662L6.07466 8.56675L6.07478 8.56753Z" stroke="black"/>
<path d="M1.7177 17.2704C1.13007 16.1322 0.897951 14.8796 1.04109 13.6407C1.35681 11.4788 2.40548 9.44474 4.05895 7.80987C4.05471 8.1167 4.06967 8.46167 4.11552 8.84056C4.31197 10.4638 5.07149 12.6771 7.2574 15.1589L7.26214 15.1643L7.26702 15.1695C9.15463 17.1929 10.9112 18.4697 12.2043 19.2433C12.7544 19.5724 13.2205 19.8103 13.5767 19.9758C13.46 20.07 13.3407 20.1618 13.2187 20.251C11.9242 20.9968 10.4266 21.4288 8.87709 21.4995C7.26643 21.4395 5.71535 20.9617 4.41591 20.1305L4.41595 20.1304L4.40939 20.1264C3.23381 19.3997 2.30681 18.4116 1.7177 17.2704Z" stroke="black"/>
</svg>
