<svg width="18" height="23" viewBox="0 0 18 23" fill="none" xmlns="http://www.w3.org/2000/svg">
<path d="M14.4766 7.2832C15.0447 8.86637 15.0277 10.5692 14.4282 12.1433C13.3731 14.1224 11.9111 15.9094 10.1172 17.4125C11.4909 18.5232 13.046 19.4434 14.7296 20.1417C15.6837 19.4926 16.4688 18.6684 17.0312 17.7254C17.5936 16.7824 17.9201 15.7428 17.9883 14.6776C18.2224 10.6854 14.4766 7.2832 14.4766 7.2832Z" fill="white"/>
<path d="M13.7955 11.1188C13.8729 10.3874 13.7733 9.6498 13.5035 8.9553C13.2337 8.26079 12.7999 7.62544 12.2311 7.09174C11.6774 6.52806 11.2178 5.89679 10.8662 5.21722C10.4269 3.80245 10.5952 2.29332 11.3385 0.982422C4.29815 4.65953 5.08056 9.62577 5.08056 9.62577C5.60124 12.3282 7.16219 14.7866 9.49717 16.5817C11.1062 15.169 13.4043 12.7773 13.7955 11.1188Z" fill="white"/>
<path d="M8.37922 22.9823C6.67563 22.9225 5.02959 22.4188 3.64649 21.5341C2.39881 20.7628 1.40672 19.709 0.773405 18.4822C0.140087 17.2554 -0.111342 15.9004 0.0452679 14.5582C0.380904 12.2481 1.51032 10.0859 3.27984 8.36574L4.27522 7.33008C4.27522 7.33008 2.88723 10.9907 7.13262 15.8109C10.8391 19.7838 14.0095 20.8027 14.0095 20.8027C13.6927 21.1065 13.3527 21.3906 12.992 21.653C11.6146 22.4517 10.0225 22.9106 8.37922 22.9823Z" fill="white"/>
</svg>
