<svg width="48" height="48" viewBox="0 0 48 48" fill="none" xmlns="http://www.w3.org/2000/svg">
<circle cx="24" cy="24" r="24" fill="#FCEDEA"/>
<path d="M24.3255 11.7766C24.1166 11.6945 23.8834 11.6945 23.6745 11.7766L13.2305 15.8688L17.4375 17.5164L28.207 13.2972L24.3255 11.7766ZM30.5625 14.2213L19.793 18.4405L24 20.088L34.7695 15.8688L30.5625 14.2213V14.2213ZM36.25 17.1358L24.875 21.5933V35.1748L36.25 30.7173V17.1375V17.1358ZM23.125 35.1765V21.5915L11.75 17.1358V30.719L23.125 35.1765V35.1765ZM23.0252 10.1839C23.651 9.93871 24.349 9.93871 24.9748 10.1839L37.4505 15.0734C37.6127 15.137 37.7517 15.2468 37.8497 15.3886C37.9476 15.5304 38 15.6977 38 15.8688V30.719C37.9998 31.0616 37.8948 31.3963 37.6986 31.6799C37.5024 31.9634 37.224 32.1829 36.8993 32.31L24.3255 37.2372C24.1166 37.3193 23.8834 37.3193 23.6745 37.2372L11.1025 32.31C10.7774 32.1832 10.4986 31.9638 10.3021 31.6802C10.1056 31.3966 10.0004 31.0618 10 30.719V15.8688C10 15.6977 10.0524 15.5304 10.1503 15.3886C10.2483 15.2468 10.3873 15.137 10.5495 15.0734L23.0252 10.1839Z" fill="#DD5E5E"/>
</svg>
