<svg width="22" height="22" viewBox="0 0 22 22" fill="none" xmlns="http://www.w3.org/2000/svg">
<path d="M14.5571 18.2178C15.2326 18.2197 15.8781 17.957 16.3877 17.4902L19.8339 14.3431L19.8354 14.3417C20.1279 14.0724 20.5014 14.0886 20.7261 14.3213L20.7261 14.3213L14.5579 17.7178M14.5571 18.2178C14.5568 18.2178 14.5566 18.2178 14.5563 18.2178L14.5579 17.7178M14.5571 18.2178H14.5579V17.7178M14.5571 18.2178H10.1462C9.83226 18.2178 9.54701 18.0749 9.34801 17.8476C9.15086 17.6225 9.04934 17.3298 9.04934 17.0363C9.04934 16.7428 9.15086 16.4501 9.34801 16.225C9.54701 15.9978 9.83226 15.8548 10.1462 15.8548H13.0666C13.3994 15.8548 13.7504 15.5851 13.8118 15.1517L13.8125 15.1467L13.8125 15.1467C13.8203 15.0954 13.8242 15.0433 13.824 14.991L13.824 14.9901C13.8236 14.7417 13.7363 14.5149 13.5978 14.357C13.4611 14.2012 13.2911 14.1289 13.1303 14.1289L7.16216 14.1289L7.16201 13.6289M14.5579 17.7178H10.1462C9.98789 17.7178 9.83608 17.646 9.72415 17.5182C9.61222 17.3904 9.54934 17.2171 9.54934 17.0363C9.54934 16.8556 9.61222 16.6822 9.72415 16.5544C9.83608 16.4266 9.98789 16.3548 10.1462 16.3548H13.0666C13.6597 16.3548 14.2121 15.8906 14.3069 15.2219C14.3185 15.1451 14.3243 15.0673 14.324 14.9893C14.3234 14.6283 14.1974 14.2823 13.9736 14.0272C13.7498 13.7722 13.4465 13.6289 13.1303 13.6289H7.16201M7.16201 13.6289V14.1289M7.16201 13.6289C6.15545 13.6292 5.17957 14.0245 4.39792 14.7487L7.16201 14.1289M7.16201 14.1289C6.28932 14.1292 5.43287 14.4715 4.73772 15.1155L4.73764 15.1155L3.00309 16.7217L2.85932 16.8548H2.66337H0.596834C0.593998 16.8548 0.58929 16.8554 0.582212 16.8587C0.574932 16.8622 0.563622 16.8694 0.550951 16.8839C0.524243 16.9144 0.5 16.9684 0.5 17.0363V21.1252C0.5 21.1932 0.524243 21.2472 0.55095 21.2777C0.563622 21.2922 0.574932 21.2994 0.582212 21.3028C0.589291 21.3062 0.593998 21.3067 0.596834 21.3067H13.9051H13.9056C14.3152 21.3071 14.7228 21.1488 15.0599 20.8413M7.16201 14.1289L15.0599 20.8413M15.0599 20.8413L15.3972 21.2104L15.0602 20.841L15.0599 20.8413Z" stroke="#999999"/>
<path d="M10.3644 1.7401L10.0578 1.77841C9.03111 1.90673 8.22571 2.89189 8.36585 4.07291L10.3644 1.7401ZM10.3644 1.7401V1.43112M10.3644 1.7401V1.43112M10.3644 1.43112V0.681484C10.3644 0.483156 10.5158 0.35 10.6623 0.35H11.3102C11.4568 0.35 11.6082 0.483156 11.6082 0.681484V1.43623V1.74742M10.3644 1.43112L11.6082 1.74742M11.6082 1.74742L11.9172 1.78383M11.6082 1.74742L11.9172 1.78383M11.9172 1.78383C12.3142 1.83059 12.7003 1.97661 13.048 2.21479L13.2458 1.92604L13.0476 2.21446C13.0556 2.21996 13.0656 2.22937 13.0752 2.24424C13.0848 2.25916 13.093 2.27832 13.0979 2.30096C13.1027 2.32359 13.1036 2.34759 13.1004 2.37105C13.0971 2.39452 13.09 2.41528 13.0809 2.43218L13.08 2.43397M11.9172 1.78383L13.08 2.43397M13.08 2.43397C13.0734 2.4464 13.0661 2.45591 13.0592 2.46285L13.0592 2.4628M13.08 2.43397L13.0592 2.4628M13.0592 2.4628L13.0545 2.46772M13.0592 2.4628L13.0545 2.46772M13.0545 2.46772L12.3458 3.21301C12.3283 3.23149 12.3086 3.24098 12.2846 3.24419C12.2584 3.24769 12.2217 3.24388 12.1802 3.22396L12.1802 3.22393M13.0545 2.46772L12.1802 3.22393M12.1802 3.22393L12.1758 3.22187M12.1802 3.22393L12.1758 3.22187M12.1758 3.22187C11.9978 3.13944 11.8057 3.0961 11.6104 3.09575H11.6098M12.1758 3.22187L11.6098 3.09575M11.6098 3.09575H10.2818C9.88361 3.09575 9.59162 3.43205 9.59162 3.80353H9.59149M11.6098 3.09575L9.59149 3.80353M9.59149 3.80353L9.59175 3.81297M9.59149 3.80353L9.59175 3.81297M9.59175 3.81297C9.5957 3.95975 9.6419 4.10577 9.72948 4.22793C9.81623 4.34895 9.94169 4.4431 10.0923 4.48497L12.1118 5.09255C12.1119 5.09258 12.112 5.09261 12.1121 5.09265C12.889 5.32836 13.5029 6.00036 13.6026 6.83078C13.7428 8.0121 12.9389 8.99702 11.9111 9.12533L11.6044 9.1636M9.59175 3.81297L11.6044 9.1636M11.6044 9.1636V9.47263M11.6044 9.1636V9.47263M11.6044 9.47263V10.2223C11.6044 10.4203 11.4529 10.5537 11.3061 10.5537H10.6582C10.5119 10.5537 10.3603 10.4205 10.3603 10.2223V9.46837V9.15718M11.6044 9.47263L10.3603 9.15718M10.3603 9.15718L10.0512 9.12078M10.3603 9.15718L10.0512 9.12078M10.0512 9.12078C9.65432 9.07402 9.26837 8.92801 8.92081 8.68984L8.92062 8.68972M10.0512 9.12078L8.92062 8.68972M8.92062 8.68972C8.91269 8.68429 8.90272 8.67499 8.89318 8.66024C8.8836 8.64544 8.87532 8.62641 8.87046 8.6039C8.8656 8.58139 8.86463 8.55748 8.86779 8.53407C8.8709 8.51098 8.87775 8.49048 8.88661 8.47368C8.89385 8.46043 8.90187 8.4501 8.90958 8.4424L8.90966 8.44248M8.92062 8.68972L8.90966 8.44248M8.90966 8.44248L8.9158 8.43602M8.90966 8.44248L8.9158 8.43602M8.9158 8.43602L9.62445 7.69074L8.9158 8.43602ZM9.79031 7.67992L9.79032 7.6799C9.74846 7.65983 9.71168 7.65607 9.6856 7.65955C9.66181 7.66274 9.64218 7.67214 9.62454 7.69065L9.79031 7.67992ZM9.79031 7.67992L9.79452 7.68188M9.79031 7.67992L9.79452 7.68188M9.79452 7.68188C9.97187 7.76402 10.1633 7.80735 10.3579 7.80799H10.359M9.79452 7.68188L10.359 7.80799M10.359 7.80799H11.687C12.0852 7.80799 12.3772 7.4717 12.3772 7.10021H12.3773M10.359 7.80799L12.3773 7.10021M12.3773 7.10021L12.3771 7.09078M12.3773 7.10021L12.3771 7.09078M12.3771 7.09078C12.3731 6.944 12.3269 6.79798 12.2393 6.67582C12.1526 6.5548 12.0271 6.46065 11.8765 6.41878M12.3771 7.09078L11.8765 6.41878M11.8765 6.41878L9.8572 5.81124C9.85708 5.81121 9.85696 5.81117 9.85684 5.81113C9.08084 5.57529 8.46513 4.90295 8.36586 4.073L11.8765 6.41878Z" stroke="#999999" stroke-width="0.7"/>
</svg>
