<svg width="24" height="26" viewBox="0 0 24 26" fill="none" xmlns="http://www.w3.org/2000/svg">
<path d="M11.9976 25.0362C12.4176 25.026 12.8206 24.86 13.1353 24.5674C13.4501 24.2748 13.6564 23.8746 13.7176 23.4375H10.2109C10.2739 23.8865 10.4898 24.2961 10.8185 24.5902C11.1471 24.8843 11.5662 25.0428 11.9976 25.0362Z" fill="black"/>
<path d="M22 20.6879L21.7718 20.4823C21.1245 19.8931 20.5578 19.2175 20.0872 18.4737C19.5733 17.4472 19.2653 16.3261 19.1812 15.1764V11.7899C19.1857 9.98398 18.5443 8.23856 17.3777 6.88157C16.211 5.52459 14.5994 4.64945 12.8456 4.42058V3.53626C12.8456 3.29354 12.7512 3.06077 12.5832 2.88914C12.4152 2.71751 12.1873 2.62109 11.9497 2.62109C11.712 2.62109 11.4841 2.71751 11.3161 2.88914C11.1481 3.06077 11.0537 3.29354 11.0537 3.53626V4.43429C9.31561 4.67966 7.72347 5.56009 6.57217 6.91251C5.42086 8.26494 4.78841 9.99771 4.79195 11.7899V15.1764C4.70789 16.3261 4.39985 17.4472 3.88591 18.4737C3.42341 19.2157 2.8659 19.8912 2.22819 20.4823L2 20.6879V22.6211H22V20.6879Z" fill="black"/>
</svg>
