<svg width="22" height="21" viewBox="0 0 22 21" fill="none" xmlns="http://www.w3.org/2000/svg">
<path d="M21.4355 4.64029C21.0952 3.8446 20.6045 3.12357 19.9908 2.51753C19.3767 1.90969 18.6526 1.42665 17.858 1.09467C17.034 0.749064 16.1503 0.572163 15.258 0.574237C14.0063 0.574237 12.785 0.920338 11.7236 1.57409C11.4697 1.73047 11.2285 1.90224 11 2.08939C10.7715 1.90224 10.5303 1.73047 10.2764 1.57409C9.21504 0.920338 7.99375 0.574237 6.74199 0.574237C5.84062 0.574237 4.96719 0.748569 4.14199 1.09467C3.34473 1.42795 2.62617 1.90737 2.00918 2.51753C1.39472 3.12288 0.90387 3.84409 0.564453 4.64029C0.211523 5.46837 0.03125 6.34772 0.03125 7.25271C0.03125 8.10643 0.203906 8.99604 0.54668 9.90103C0.833594 10.6573 1.24492 11.4418 1.77051 12.234C2.60332 13.4877 3.74844 14.7952 5.17031 16.1206C7.52656 18.3177 9.85996 19.8354 9.95898 19.8969L10.5607 20.2866C10.8273 20.4584 11.1701 20.4584 11.4367 20.2866L12.0385 19.8969C12.1375 19.8329 14.4684 18.3177 16.8271 16.1206C18.249 14.7952 19.3941 13.4877 20.227 12.234C20.7525 11.4418 21.1664 10.6573 21.4508 9.90103C21.7936 8.99604 21.9662 8.10643 21.9662 7.25271C21.9688 6.34772 21.7885 5.46837 21.4355 4.64029Z" fill="black"/>
</svg>
