<svg width="85" height="85" viewBox="0 0 85 85" fill="none" xmlns="http://www.w3.org/2000/svg">
<g clip-path="url(#clip0_1_5662)">
<path d="M78.5762 42.4997L78.8658 41.9991L83.5631 33.8808C83.995 33.1335 84.1125 32.2454 83.8897 31.4115C83.6669 30.5778 83.1222 29.8667 82.3754 29.4345C82.3753 29.4344 82.3751 29.4343 82.375 29.4343L74.2484 24.7368L73.7488 24.4481V23.8711V14.5098C73.7488 13.6465 73.4059 12.8185 72.7954 12.2081C72.185 11.5976 71.3571 11.2547 70.4938 11.2547H61.1371H60.56L60.2713 10.755L55.5794 2.63437C55.5791 2.63386 55.5788 2.63335 55.5785 2.63284C55.1439 1.88621 54.4329 1.3406 53.5992 1.1139C53.1873 1.00228 52.7574 0.973509 52.3344 1.02925C51.9112 1.08501 51.5033 1.2242 51.1343 1.43878L51.1321 1.4401L43.0051 6.13774L42.5044 6.42714L42.0038 6.13754L33.8776 1.43609C33.8773 1.43594 33.8771 1.43579 33.8768 1.43564C33.1294 1.00437 32.2413 0.88757 31.4078 1.11091C30.5739 1.33433 29.863 1.87984 29.4313 2.62746L29.4311 2.62786L24.7336 10.7551L24.4448 11.2547H23.8678H14.5111C13.6479 11.2547 12.82 11.5976 12.2095 12.2081C11.5991 12.8185 11.2562 13.6465 11.2562 14.5098V23.8668V24.4438L10.7566 24.7326L2.62959 29.4302L2.62777 29.4313C2.25703 29.6445 1.93209 29.9289 1.6716 30.2682C1.41111 30.6074 1.22022 30.9948 1.10989 31.408C0.999553 31.8212 0.971955 32.2522 1.02868 32.6761C1.08541 33.1001 1.22534 33.5086 1.44043 33.8783L1.44164 33.8804L6.13913 41.9991L6.4289 42.4999L6.13913 43.0007L1.44317 51.1168C1.44294 51.1172 1.44271 51.1176 1.44248 51.118C1.01282 51.8667 0.896339 52.7547 1.11844 53.5889C1.34043 54.4226 1.88268 55.1348 2.62713 55.5707C2.6279 55.5711 2.62867 55.5716 2.62944 55.572L10.7523 60.2673L11.2519 60.5561V61.1331V70.4901C11.2519 71.3534 11.5948 72.1813 12.2053 72.7918L11.4981 73.4989L12.2053 72.7918C12.8157 73.4022 13.6436 73.7452 14.5069 73.7452H23.8678H24.4448L24.7336 74.2448L29.4285 82.3675C29.4289 82.3683 29.4294 82.369 29.4298 82.3698C29.7188 82.8629 30.131 83.2724 30.626 83.5583C31.1209 83.844 31.6817 83.9963 32.2531 84C32.8162 83.9995 33.3785 83.8504 33.881 83.56L78.5762 42.4997ZM78.5762 42.4997L78.8656 43.0004L83.5589 51.1192L83.5593 51.1199C83.7736 51.49 83.913 51.8988 83.9693 52.3228L84.9606 52.1911L83.9693 52.3228C84.0256 52.7468 83.9977 53.1777 83.8874 53.591C83.7771 54.0042 83.5864 54.3917 83.3262 54.7312L84.1199 55.3394L83.3262 54.7312C83.066 55.0707 82.7415 55.3556 82.3712 55.5696L82.3711 55.5697L74.2441 60.2673L73.7446 60.5561V61.1331V70.4901C73.7446 71.3534 73.4016 72.1813 72.7912 72.7918C72.1808 73.4022 71.3529 73.7452 70.4896 73.7452H61.1329H60.5556L60.2669 74.2451L55.5746 82.3708C55.5745 82.371 55.5743 82.3712 55.5742 82.3714C55.1413 83.1177 54.43 83.6619 53.5965 83.8847C52.7627 84.1075 51.8746 83.9904 51.1269 83.5593L43.0008 78.8622L42.5001 78.5727L41.9995 78.8624L33.8815 83.5598L78.5762 42.4997Z" stroke="#313131" stroke-width="2"/>
<path d="M53.72 49.6C53.72 44.24 48.96 42.96 44.44 41.88V31.28C46.76 31.4 49.32 32.16 51.56 33.6L52.56 31.24C50.44 29.76 47.44 28.88 44.44 28.76V24.2H42.44V28.8C36.32 29.28 33.56 32.6 33.56 36.44C33.56 41.72 38.04 43.08 42.44 44.16V54.68C39.08 54.48 35.88 53.12 34.04 51.32L32.88 53.6C34.84 55.6 38.52 57.04 42.44 57.24V61.8H44.44V57.2C50.8 56.84 53.72 53.48 53.72 49.6ZM36.48 36.36C36.48 33.84 38.32 31.72 42.44 31.36V41.36C39.16 40.52 36.48 39.4 36.48 36.36ZM44.44 54.68V44.68C47.88 45.52 50.8 46.6 50.8 49.76C50.8 52.32 48.84 54.36 44.44 54.68Z" fill="#313131"/>
</g>
<defs>
<clipPath id="clip0_1_5662">
<rect width="85" height="85" fill="white"/>
</clipPath>
</defs>
</svg>
