<svg width="126" height="106" viewBox="0 0 126 106" fill="none" xmlns="http://www.w3.org/2000/svg">
<path d="M2.93445 3.30371H23.8427L46.5851 82.9616H107.109" stroke="#313131" stroke-width="2"/>
<path d="M28.9785 17.6201H121.782L111.144 63.8731H42.1838" stroke="#313131" stroke-width="2"/>
<path d="M34.8467 41.481H117.013" stroke="#313131" stroke-width="2"/>
<path d="M53.9219 17.6201L59.4241 64.2401" stroke="#313131" stroke-width="2"/>
<path d="M100.14 18.3545L94.6376 64.9745" stroke="#313131" stroke-width="2"/>
<path d="M77.0303 16.519V63.5062" stroke="#313131" stroke-width="2"/>
<path d="M102.345 92.9545L102.923 91.5702L102.345 92.9545C103.076 93.2597 103.74 93.7062 104.3 94.2683L105.363 93.2107L104.3 94.2683C104.859 94.8305 105.302 95.4974 105.603 96.2311C105.901 96.9557 106.055 97.7314 106.057 98.5148C105.984 100.097 105.316 101.593 104.186 102.702C103.055 103.811 101.548 104.45 99.9664 104.492C98.3925 104.46 96.8911 103.821 95.7766 102.707C94.6588 101.59 94.0177 100.082 93.9883 98.5005C93.9959 96.9033 94.6353 95.3741 95.7665 94.2475C96.3282 93.6881 96.9945 93.2449 97.7273 92.9433C98.4601 92.6416 99.245 92.4873 100.037 92.4893C100.83 92.4912 101.614 92.6493 102.345 92.9545Z" stroke="#313131" stroke-width="3"/>
<path d="M46.8068 98.2958C46.8193 96.7188 47.4572 95.2116 48.5798 94.1057C49.7025 92.9998 51.2179 92.3857 52.7927 92.3981C54.3674 92.4106 55.873 93.0485 56.9781 94.172C58.0832 95.2956 58.6973 96.8127 58.6848 98.3896C58.6724 99.9666 58.0345 101.474 56.9118 102.58C55.7892 103.686 54.2737 104.3 52.699 104.287C51.1242 104.275 49.6187 103.637 48.5136 102.513C47.4085 101.39 46.7944 99.8728 46.8068 98.2958Z" stroke="#313131" stroke-width="3"/>
</svg>
