<svg width="44" height="42" viewBox="0 0 44 42" fill="none" xmlns="http://www.w3.org/2000/svg">
  <path d="M43.1021 21C43.1021 32.3044 33.5831 41.5 21.8011 41.5C10.019 41.5 0.5 32.3044 0.5 21C0.5 9.69564 10.019 0.5 21.8011 0.5C33.5831 0.5 43.1021 9.69564 43.1021 21Z" stroke="black"/>
  <path d="M22.9488 7.08251C22.7039 6.98635 22.4306 6.98635 22.1857 7.08251L9.94309 11.8796L14.8746 13.8108L27.4988 8.86507L22.9488 7.08251ZM30.2599 9.94827L17.6358 14.894L22.5673 16.8253L35.1914 11.8796L30.2599 9.94827V9.94827ZM36.9269 13.3647L23.5929 18.5898V34.5103L36.9269 29.2852V13.3667V13.3647ZM21.5416 34.5123V18.5878L8.20763 13.3647V29.2872L21.5416 34.5123V34.5123ZM21.4246 5.21554C22.1581 4.92815 22.9764 4.92815 23.7099 5.21554L38.3341 10.9471C38.5243 11.0217 38.6872 11.1504 38.802 11.3166C38.9168 11.4828 38.9782 11.6789 38.9783 11.8796V29.2872C38.978 29.6888 38.855 30.081 38.625 30.4135C38.395 30.7459 38.0686 31.0032 37.688 31.1521L22.9488 36.9279C22.7039 37.024 22.4306 37.024 22.1857 36.9279L7.44862 31.1521C7.06758 31.0035 6.74077 30.7463 6.5104 30.4139C6.28003 30.0814 6.15667 29.689 6.15625 29.2872V11.8796C6.1563 11.6789 6.21768 11.4828 6.33248 11.3166C6.44728 11.1504 6.61025 11.0217 6.80038 10.9471L21.4246 5.21554Z" fill="black"/>
</svg>
