<svg width="44" height="42" viewBox="0 0 44 42" fill="none" xmlns="http://www.w3.org/2000/svg">
  <path d="M43.1959 21C43.1959 32.3044 33.6769 41.5 21.8948 41.5C10.1128 41.5 0.59375 32.3044 0.59375 21C0.59375 9.69564 10.1128 0.5 21.8948 0.5C33.6769 0.5 43.1959 9.69564 43.1959 21Z" stroke="black"/>
  <path d="M23.2095 6.63579C23.0589 6.48855 22.88 6.37176 22.6829 6.29215C22.4859 6.21253 22.2747 6.17166 22.0614 6.17188H13.9413C13.728 6.17166 13.5168 6.21253 13.3198 6.29215C13.1227 6.37176 12.9438 6.48855 12.7932 6.63579L7.92115 11.3858C7.77005 11.5326 7.65021 11.707 7.56855 11.8992C7.48689 12.0913 7.445 12.2972 7.44531 12.5052V20.4219C7.44531 20.843 7.61583 21.2452 7.92115 21.5413L24.1612 37.3746C24.3117 37.5222 24.4906 37.6393 24.6876 37.7192C24.8847 37.799 25.096 37.8402 25.3094 37.8402C25.5228 37.8402 25.7341 37.799 25.9311 37.7192C26.1282 37.6393 26.3071 37.5222 26.4576 37.3746L39.4496 24.708C39.6006 24.561 39.7203 24.3866 39.802 24.1945C39.8837 24.0024 39.9258 23.7965 39.9258 23.5885C39.9258 23.3806 39.8837 23.1747 39.802 22.9826C39.7203 22.7905 39.6006 22.616 39.4496 22.4691L23.2095 6.63579ZM25.3094 35.4635L9.88132 20.4219V13.2969L14.7533 8.54687H22.0614L37.4894 23.5885L25.3094 35.4635Z" fill="black"/>
  <path d="M17.7607 18.8327C19.2379 18.8327 20.4354 17.6652 20.4354 16.2249C20.4354 14.7847 19.2379 13.6172 17.7607 13.6172C16.2835 13.6172 15.0859 14.7847 15.0859 16.2249C15.0859 17.6652 16.2835 18.8327 17.7607 18.8327Z" fill="black"/>
</svg>
