<svg width="48" height="48" viewBox="0 0 48 48" fill="none" xmlns="http://www.w3.org/2000/svg">
  <circle cx="24" cy="24" r="24" fill="#FEF7EA"/>
  <path d="M23.6483 12.3369C23.537 12.23 23.4048 12.1452 23.2592 12.0874C23.1136 12.0295 22.9575 11.9998 22.7999 12H16.8C16.6424 11.9998 16.4863 12.0295 16.3407 12.0874C16.1951 12.1452 16.0628 12.23 15.9516 12.3369L12.3516 15.7868C12.2399 15.8934 12.1514 16.0201 12.0911 16.1596C12.0307 16.2991 11.9998 16.4487 12 16.5998V22.3495C12 22.6553 12.126 22.9474 12.3516 23.1625L24.3515 34.6619C24.4627 34.769 24.5949 34.8541 24.7404 34.9121C24.886 34.9701 25.0422 35 25.1999 35C25.3576 35 25.5137 34.9701 25.6593 34.9121C25.8049 34.8541 25.9371 34.769 26.0483 34.6619L35.6482 25.4624C35.7597 25.3557 35.8482 25.2289 35.9086 25.0894C35.9689 24.9499 36 24.8004 36 24.6493C36 24.4983 35.9689 24.3488 35.9086 24.2093C35.8482 24.0698 35.7597 23.943 35.6482 23.8363L23.6483 12.3369ZM25.1999 33.2739L13.8 22.3495V17.1747L17.3999 13.7249H22.7999L34.1998 24.6493L25.1999 33.2739Z" fill="#F6AA2D"/>
  <path d="M20 21C21.1046 21 22 20.1046 22 19C22 17.8954 21.1046 17 20 17C18.8954 17 18 17.8954 18 19C18 20.1046 18.8954 21 20 21Z" fill="#F6AA2D"/>
</svg>
