<svg width="45" height="42" viewBox="0 0 45 42" fill="none" xmlns="http://www.w3.org/2000/svg">
<path d="M43.7193 21C43.7193 32.3044 34.2003 41.5 22.4182 41.5C10.6362 41.5 1.11719 32.3044 1.11719 21C1.11719 9.69564 10.6362 0.5 22.4182 0.5C34.2003 0.5 43.7193 9.69564 43.7193 21Z" stroke="black"/>
<rect x="6.77344" y="6" width="30.7706" height="30" rx="5" fill="white"/>
<path d="M9.3368 22.75H14.4652C14.74 22.75 14.9285 22.8374 15.0457 22.9518C15.1618 23.065 15.2473 23.2425 15.2473 23.5V33.5C15.2473 33.7575 15.1618 33.935 15.0457 34.0482C14.9285 34.1626 14.74 34.25 14.4652 34.25H9.3368C9.06204 34.25 8.87356 34.1626 8.75631 34.0482C8.64019 33.935 8.55469 33.7575 8.55469 33.5V23.5C8.55469 23.2425 8.64019 23.065 8.75631 22.9518C8.87356 22.8374 9.06204 22.75 9.3368 22.75ZM29.8506 17.75H34.979C35.2538 17.75 35.4422 17.8374 35.5595 17.9518C35.6756 18.065 35.7611 18.2425 35.7611 18.5V33.5C35.7611 33.7575 35.6756 33.935 35.5595 34.0482C35.4422 34.1626 35.2538 34.25 34.979 34.25H29.8506C29.5758 34.25 29.3873 34.1626 29.2701 34.0482C29.154 33.935 29.0684 33.7575 29.0684 33.5V18.5C29.0684 18.2425 29.154 18.065 29.2701 17.9518C29.3873 17.8374 29.5758 17.75 29.8506 17.75ZM19.5937 7.75H24.7221C24.9969 7.75 25.1854 7.83744 25.3026 7.95176C25.4187 8.06497 25.5042 8.24249 25.5042 8.5V33.5C25.5042 33.7575 25.4187 33.935 25.3026 34.0482C25.1854 34.1626 24.9969 34.25 24.7221 34.25H19.5937C19.3189 34.25 19.1304 34.1626 19.0132 34.0482C18.8971 33.935 18.8116 33.7575 18.8116 33.5V8.5C18.8116 8.24249 18.8971 8.06497 19.0132 7.95176C19.1304 7.83744 19.3189 7.75 19.5937 7.75Z" fill="black" stroke="black"/>
</svg>
