<svg width="129" height="134" viewBox="0 0 129 134" fill="none" xmlns="http://www.w3.org/2000/svg">
<g clip-path="url(#clip0_19825_395240)">
<path d="M90.8747 18.9688C90.8747 27.5633 90.8747 35.7779 90.8305 43.9926C90.7932 44.3299 90.6831 44.6551 90.5078 44.9459C90.3326 45.2368 90.0963 45.4863 89.8152 45.6774C82.857 49.7351 75.8602 53.7213 68.8468 57.713C68.7144 57.7846 68.4992 57.713 68.0246 57.669C68.0246 54.3325 68.0246 50.9739 68.0246 47.6209C68.0246 43.7668 68.2564 39.9128 67.9474 36.0587C67.7046 32.981 68.7806 31.2632 71.4734 29.8372C76.9914 26.9356 82.3052 23.6982 87.7129 20.6095C88.6675 20.1029 89.6386 19.6239 90.8747 18.9688Z" fill="#41595F"/>
<path d="M52.6921 85.082V94.3318C52.6921 99.1879 52.7528 104.049 52.6369 108.906C52.6369 109.842 52.1679 111.202 51.4671 111.62C44.4868 115.788 37.4127 119.802 29.8475 124.151V116.994C29.8475 111.312 29.7758 105.63 29.9082 99.9256C29.9082 98.9456 30.5373 97.5471 31.3208 97.0791C37.8376 93.1645 44.4592 89.4206 51.0588 85.6381C51.5896 85.4152 52.1354 85.2294 52.6921 85.082Z" fill="#41595F"/>
<path d="M76.3299 84.7617C81.1195 87.5146 85.3849 89.9427 89.6393 92.3872C91.4658 93.4388 93.1874 94.7768 95.1573 95.5035C98.6778 96.8194 99.4117 99.1814 99.2627 102.7C98.9758 109.631 99.18 116.591 99.18 124.101L89.6449 118.661C85.8264 116.459 81.9693 114.361 78.217 112.054C77.4059 111.558 76.4458 110.479 76.4292 109.653C76.2747 101.626 76.3299 93.571 76.3299 84.7617Z" fill="#41595F"/>
<path d="M60.4372 57.9395C55.5482 55.1371 50.9462 51.8831 45.8586 49.7469C39.3804 47.0656 37.1898 42.9307 37.9954 36.098C38.641 30.5922 38.1223 24.9653 38.1223 18.8594L46.7028 23.7871C50.8303 26.1546 54.9799 28.4725 59.0577 30.9446C59.8743 31.4401 60.8731 32.5027 60.8841 33.3176C61 41.1854 60.9283 49.0587 60.8841 56.932C60.8896 57.1632 60.6855 57.3999 60.4372 57.9395Z" fill="#41595F"/>
<path d="M41.7031 12.7421C49.2904 8.36501 56.3479 4.2742 63.4386 0.24947C63.7388 0.0955966 64.0689 0.00853356 64.4061 -0.00572436C64.7434 -0.0199823 65.0797 0.0389075 65.3919 0.166886C72.5653 4.21915 79.667 8.34849 87.2598 12.7256C84.5008 14.3278 82.1832 15.6987 79.8381 17.0531C75.3133 19.6739 70.7996 22.3167 66.2307 24.8549C65.4747 25.2678 64.2 25.6036 63.571 25.2513C56.381 21.2596 49.2683 17.1082 41.7031 12.7421Z" fill="#41595F"/>
<path d="M79.9922 78.5748C87.2484 74.3959 94.2231 70.3492 101.248 66.3905C101.915 66.0161 103.096 65.8124 103.692 66.1427C110.865 70.162 117.956 74.2968 125.472 78.6244C119.821 81.9003 114.259 84.5761 109.337 88.1329C104.525 91.607 100.624 91.4364 95.9447 88.0228C91.7345 84.9781 86.9614 82.7207 82.4422 80.1054C81.6696 79.6595 80.9413 79.1584 79.9922 78.5748Z" fill="#41595F"/>
<path d="M3.52344 78.6337C10.9783 74.3281 17.9475 70.2594 24.9775 66.3062C25.4017 66.1195 25.8611 66.0258 26.3247 66.0315C26.7883 66.0372 27.2453 66.1421 27.6647 66.3392C34.7002 70.2869 41.6694 74.3502 49.036 78.5951C46.1224 80.3129 43.4296 81.9371 40.7148 83.5118C36.5046 85.9509 32.3053 88.4009 28.0234 90.7409C27.2564 91.1648 25.9652 91.5227 25.3306 91.1649C18.1682 87.1511 11.0666 82.9943 3.52344 78.6337Z" fill="#41595F"/>
<path d="M106.398 124.068C106.398 115.22 106.398 107.077 106.432 98.9399C106.445 98.6359 106.524 98.3383 106.663 98.0675C106.802 97.7967 106.998 97.559 107.237 97.3707C114.328 93.2138 121.457 89.112 129 84.7734C129 93.5221 129 101.808 128.967 110.1C128.952 110.36 128.881 110.614 128.758 110.844C128.635 111.074 128.464 111.275 128.255 111.433C121.165 115.567 114.052 119.658 106.398 124.068Z" fill="#41595F"/>
<path d="M22.2547 123.863C15.0813 119.733 8.20584 115.78 1.34696 111.75C1.01576 111.555 0.729846 111.293 0.508177 110.979C0.286507 110.666 0.134147 110.309 0.061253 109.933C-0.0270351 101.724 0.00608637 93.5147 0.00608637 84.832C2.89752 86.4838 5.42476 87.8822 7.92994 89.3247C12.2174 91.7913 16.5325 94.2084 20.7372 96.7961C21.587 97.3467 22.5416 98.5194 22.5582 99.4224C22.6851 107.197 22.6078 114.976 22.5582 122.756C22.4953 123.134 22.3936 123.505 22.2547 123.863Z" fill="#41595F"/>
<path d="M28.0498 32.7969C28.71 34.2271 29.0716 35.7765 29.1124 37.3506C29.1532 38.9247 28.8723 40.4907 28.287 41.953C27.7352 43.3515 25.2797 44.1884 23.5305 44.8986C19.9714 46.3466 18.8181 48.7527 19.0057 52.5627C19.3313 59.0485 18.2443 60.2983 11.9813 62.8475C11.9151 62.875 11.8102 62.8145 11.1977 62.6658V56.4002C11.1977 52.8269 10.9495 49.2427 11.3247 45.6859C11.5783 43.9679 12.478 42.4108 13.8409 41.3309C16.0812 39.7177 18.8512 38.8588 21.2571 37.4493C23.4919 36.1444 25.5446 34.5312 28.0498 32.7969Z" fill="#A3B5FF"/>
<path d="M117.775 63.3927C114.878 61.6584 112.737 60.5297 110.8 59.1202C110.221 58.7017 110.005 57.518 109.972 56.6646C109.846 54.3759 109.846 52.082 109.972 49.7934C110.143 47.2552 109.045 45.8622 106.612 45.3887C106.071 45.288 105.549 45.1021 105.067 44.8382C99.4164 41.5347 99.753 42.5478 100.277 33.0117C103.98 35.0984 107.666 37.1631 111.313 39.2443C111.551 39.3764 111.711 39.7013 111.948 39.7563C117.703 41.0557 118.139 45.1905 117.791 50.0576C117.538 54.187 117.775 58.3769 117.775 63.3927Z" fill="#A3B5FF"/>
<path d="M81.6997 124.959C79.3436 126.39 77.5392 127.524 75.7072 128.598C72.7882 130.305 69.9464 132.199 66.8784 133.553C65.317 134.174 63.5739 134.16 62.0225 133.515C57.6468 131.312 53.4531 128.78 49.2483 126.275C47.5488 125.256 48.5476 124.403 49.6291 123.615C53.2103 121.011 56.8025 120.565 60.483 123.412C61.2003 123.962 62.1384 124.21 62.8668 124.755C64.3622 125.906 65.4382 126.209 67.0274 124.524C68.0813 123.423 70.1009 123.202 71.6791 122.558C72.722 122.129 73.9745 121.022 74.7305 121.303C76.9598 122.118 79.0014 123.483 81.6997 124.959Z" fill="#A3B5FF"/>
</g>
<defs>
<clipPath id="clip0_19825_395240">
<rect width="129" height="134" fill="white"/>
</clipPath>
</defs>
</svg>
