<svg width="85" height="85" viewBox="0 0 85 85" fill="none" xmlns="http://www.w3.org/2000/svg">
<path d="M78.0003 41.4983L77.421 42.4995L77.9999 43.5009L82.6931 51.6196L82.6939 51.621C82.8424 51.8775 82.939 52.1606 82.978 52.4544C83.017 52.7481 82.9977 53.0467 82.9212 53.333C82.8448 53.6193 82.7127 53.8877 82.5324 54.123C82.3522 54.3582 82.1274 54.5555 81.8708 54.7038L81.8707 54.7039L73.7437 59.4015L72.7446 59.979V61.1331V70.4901C72.7446 71.0882 72.507 71.6618 72.0841 72.0847C71.6612 72.5076 71.0876 72.7452 70.4896 72.7452H61.1329H59.9783L59.4009 73.745L54.7095 81.8692C54.7093 81.8695 54.7091 81.8699 54.7089 81.8703C54.4087 82.3873 53.9158 82.7642 53.3383 82.9186C52.7607 83.0729 52.1455 82.992 51.6275 82.6936C51.6272 82.6934 51.6268 82.6932 51.6265 82.693L43.5012 77.9964L42.4998 77.4175L41.4987 77.9968L33.3811 82.6939C33.031 82.8963 32.6421 82.999 32.256 83C31.8591 82.9968 31.4698 82.8908 31.126 82.6922C30.7818 82.4935 30.495 82.2089 30.2938 81.8662C30.2931 81.865 30.2923 81.8638 30.2916 81.8626L25.5994 73.7443L25.0219 72.7452H23.8678H14.5069C13.9088 72.7452 13.3353 72.5076 12.9124 72.0847L11.4981 73.4989L12.9124 72.0847C12.4895 71.6618 12.2519 71.0882 12.2519 70.4901V61.1331V59.979L11.2528 59.4015L3.13398 54.7087C3.13289 54.708 3.1318 54.7074 3.13071 54.7067C2.61465 54.404 2.23876 53.9099 2.08477 53.3316C1.93067 52.7528 2.0113 52.1367 2.30904 51.6171C2.30945 51.6164 2.30986 51.6157 2.31026 51.615L7.00469 43.5016L7.58423 42.4999L7.00469 41.4983L2.3072 33.3796L2.30477 33.3754C2.15593 33.1196 2.0591 32.8369 2.01985 32.5435C1.98059 32.2501 1.99969 31.9519 2.07604 31.666L0.143731 31.15L2.07604 31.6659C2.15239 31.38 2.28449 31.1119 2.46474 30.8772C2.645 30.6425 2.86985 30.4457 3.12639 30.2981L3.13003 30.296L11.257 25.5983L12.2562 25.0208V23.8668V14.5098C12.2562 13.9117 12.4937 13.3381 12.9166 12.9152C13.3395 12.4923 13.9131 12.2547 14.5111 12.2547H23.8678H25.0219L25.5994 11.2555L30.2969 3.12827L30.2973 3.12748C30.5964 2.60953 31.0889 2.23162 31.6666 2.07684C32.2442 1.92206 32.8597 2.00309 33.3776 2.30211L41.5031 7.00312L42.5042 7.58231L43.5055 7.00351L51.6325 2.30587L51.637 2.30323C51.8916 2.15519 52.173 2.05915 52.465 2.02068C52.7568 1.98223 53.0533 2.00207 53.3374 2.07903C53.917 2.23681 54.4113 2.61609 54.7138 3.13506C54.7142 3.13573 54.7146 3.13639 54.715 3.13705L59.4054 11.2552L59.9829 12.2547H61.1371H70.4938C71.0919 12.2547 71.6654 12.4923 72.0883 12.9152C72.5112 13.3381 72.7488 13.9117 72.7488 14.5098V23.8711V25.0251L73.7479 25.6026L81.8742 30.2998C82.3918 30.5993 82.7692 31.092 82.9236 31.6697C83.0779 32.2474 82.9965 32.8627 82.6973 33.3804L78.0003 41.4983Z" stroke="#41595F" stroke-width="4"/>
<path d="M54.76 49.08C54.76 43.52 49.92 42.12 45.48 41.04V32.96C47.6 33.2 49.84 33.88 51.96 35.12L53.6 31.08C51.44 29.68 48.44 28.8 45.48 28.64V24.2H42.2V28.72C35.96 29.32 33 32.88 33 36.96C33 42.52 37.76 43.96 42.2 45.04V53.04C39.16 52.76 36.16 51.6 34.2 50L32.4 54.04C34.48 55.84 38.28 57.12 42.2 57.36V61.8H45.48V57.32C51.76 56.68 54.76 53.16 54.76 49.08ZM38.16 36.72C38.16 34.96 39.36 33.52 42.2 33.08V40.2C39.88 39.52 38.16 38.64 38.16 36.72ZM45.48 52.96V45.88C47.88 46.56 49.64 47.48 49.64 49.44C49.64 51.16 48.4 52.52 45.48 52.96Z" fill="#A3B5FF"/>
</svg>
