<svg width="117" height="123" viewBox="0 0 117 123" fill="none" xmlns="http://www.w3.org/2000/svg">
<rect width="66" height="122.862" rx="12" fill="#41595F"/>
<rect x="5.07812" y="7.10938" width="55.8462" height="108.646" fill="white"/>
<path d="M21.3281 7.10938H45.6974V7.17091C45.6974 9.38005 43.9065 11.1709 41.6974 11.1709H25.3281C23.119 11.1709 21.3281 9.38005 21.3281 7.17091V7.10938Z" fill="#41595F"/>
<line x1="19.2891" y1="110.691" x2="46.7044" y2="110.691" stroke="#FAFAFA" stroke-width="2"/>
<g clip-path="url(#clip0_0_1)">
<path d="M116.996 63.0164C116.911 71.5787 113.61 81.8911 107.05 91.1519C105.934 92.7256 104.434 93.2526 102.614 92.8948C101.092 92.5933 99.8811 91.1519 99.635 89.4311C99.4426 88.0805 100.081 86.9946 100.816 85.9528C103.98 81.5362 106.269 76.5477 107.557 71.26C110.805 57.7471 108.46 45.2963 100.522 33.9078C99.0285 31.758 99.2087 29.2749 100.987 27.9169C102.977 26.3947 105.481 26.7648 106.958 29.0494C108.777 31.8635 110.587 34.7192 112.044 37.7342C115.425 44.7374 116.996 52.3755 116.996 63.0164Z" fill="#A3B5FF"/>
<path d="M101.222 60.1919C101.149 67.1191 99.3783 73.5659 95.7706 79.4783C94.7548 81.1403 93.1617 81.8144 91.3298 81.4393C90.5329 81.2754 89.8097 80.8577 89.267 80.2481C88.7243 79.6384 88.391 78.8692 88.3165 78.0542C88.2466 77.091 88.4601 76.1285 88.9304 75.2867C92.2993 69.6194 93.6952 63.5207 93.0009 56.9685C92.5527 52.7278 91.2543 48.7347 88.9085 45.1485C87.1448 42.4521 88.4213 39.1405 91.5515 38.5694C93.3395 38.2409 94.7183 39.1062 95.6293 40.5892C98.6597 45.5236 100.56 50.855 101.018 56.6743C101.066 57.2822 101.178 57.8852 101.215 58.4932C101.249 59.0496 101.222 59.6232 101.222 60.1919Z" fill="#A3B5FF"/>
<path d="M81.8781 64.5719C79.8757 64.5719 78.0073 62.7016 78 60.6793C77.9927 58.657 79.8562 56.7744 81.8635 56.7695C83.8707 56.7646 85.7343 58.6398 85.7391 60.6646C85.744 62.6893 83.8878 64.5719 81.8781 64.5719Z" fill="#A3B5FF"/>
</g>
<defs>
<clipPath id="clip0_0_1">
<rect width="39" height="66" fill="white" transform="translate(78 27)"/>
</clipPath>
</defs>
</svg>
