<svg width="44" height="44" viewBox="0 0 44 44" fill="none" xmlns="http://www.w3.org/2000/svg">
<path fill-rule="evenodd" clip-rule="evenodd" d="M36.3835 10.2565C36.3835 11.7147 35.2014 12.8965 33.7435 12.8965C32.2857 12.8965 31.1035 11.7147 31.1035 10.2565C31.1035 8.79828 32.2857 7.61647 33.7435 7.61647C35.2017 7.61647 36.3835 8.79828 36.3835 10.2565ZM22 29.3332C17.9499 29.3332 14.6668 26.0501 14.6668 22C14.6668 17.9499 17.9499 14.6668 22 14.6668C26.0501 14.6668 29.3332 17.9499 29.3332 22C29.3332 26.0501 26.0501 29.3332 22 29.3332ZM22 10.7027C15.7606 10.7027 10.7027 15.7606 10.7027 22C10.7027 28.2394 15.7606 33.2973 22 33.2973C28.2394 33.2973 33.2973 28.2394 33.2973 22C33.2973 15.7606 28.2394 10.7027 22 10.7027ZM22 3.96412C27.8743 3.96412 28.5701 3.98647 30.8897 4.09234C33.0347 4.19031 34.1997 4.5485 34.9748 4.84997C36.0016 5.24906 36.7345 5.72584 37.5045 6.49584C38.2745 7.2655 38.7513 7.99838 39.1504 9.0255C39.4515 9.80066 39.81 10.9656 39.908 13.1106C40.0139 15.4306 40.0362 16.1263 40.0362 22.0007C40.0362 27.875 40.0139 28.5708 39.908 30.8904C39.81 33.0354 39.4518 34.2004 39.1504 34.9755C38.7513 36.0023 38.2745 36.7352 37.5045 37.5052C36.7348 38.2752 36.002 38.752 34.9748 39.1511C34.1997 39.4522 33.0347 39.8107 30.8897 39.9087C28.5701 40.0146 27.8743 40.0369 22 40.0369C16.1253 40.0369 15.4296 40.0146 13.1099 39.9087C10.9649 39.8107 9.79997 39.4525 9.02481 39.1511C7.99803 38.752 7.26516 38.2752 6.49516 37.5052C5.7255 36.7355 5.24837 36.0027 4.84928 34.9755C4.54816 34.2004 4.18962 33.0354 4.09166 30.8904C3.98578 28.5704 3.96344 27.8747 3.96344 22.0007C3.96344 16.1263 3.98578 15.4306 4.09166 13.1106C4.18962 10.9656 4.54781 9.80066 4.84928 9.0255C5.24837 7.99872 5.72516 7.26584 6.49516 6.49584C7.26481 5.72584 7.99769 5.24906 9.02481 4.84997C9.79997 4.54884 10.9649 4.19031 13.1099 4.09234C15.4299 3.98647 16.1257 3.96412 22 3.96412ZM22 0C16.0253 0 15.2759 0.0254375 12.9295 0.132344C10.5878 0.23925 8.98837 0.611187 7.58931 1.155C6.14247 1.71703 4.91563 2.4695 3.69256 3.69256C2.4695 4.91563 1.71703 6.14247 1.155 7.58931C0.611187 8.98872 0.23925 10.5878 0.132344 12.9295C0.0254375 15.2759 0 16.0253 0 22C0 27.9747 0.0254375 28.7241 0.132344 31.0705C0.23925 33.4122 0.611187 35.0113 1.155 36.4107C1.71703 37.8575 2.4695 39.0844 3.69256 40.3074C4.91563 41.5305 6.14247 42.2826 7.58931 42.845C8.98872 43.3888 10.5878 43.7607 12.9295 43.8677C15.2759 43.9746 16.0253 44 22 44C27.9747 44 28.7241 43.9746 31.0705 43.8677C33.4122 43.7607 35.0113 43.3888 36.4107 42.845C37.8575 42.2826 39.0844 41.5305 40.3074 40.3074C41.5305 39.0844 42.2826 37.8575 42.845 36.4107C43.3888 35.0113 43.7607 33.4122 43.8677 31.0705C43.9746 28.7241 44 27.9747 44 22C44 16.0253 43.9746 15.2759 43.8677 12.9295C43.7607 10.5878 43.3888 8.98872 42.845 7.58931C42.2826 6.14247 41.5305 4.91563 40.3074 3.69256C39.0844 2.4695 37.8575 1.71737 36.4107 1.155C35.0113 0.611187 33.4122 0.23925 31.0705 0.132344C28.7241 0.0254375 27.9747 0 22 0Z" fill="url(#paint0_radial_3771_85863)"/>
<defs>
<radialGradient id="paint0_radial_3771_85863" cx="0" cy="0" r="1" gradientUnits="userSpaceOnUse" gradientTransform="translate(6.56944 44.1528) scale(56.221)">
<stop stop-color="#FFB140"/>
<stop offset="0.2559" stop-color="#FF5445"/>
<stop offset="0.599" stop-color="#FC2B82"/>
<stop offset="1" stop-color="#8E40B7"/>
</radialGradient>
</defs>
</svg>
