<svg width="44" height="44" viewBox="0 0 44 44" fill="none" xmlns="http://www.w3.org/2000/svg">
<circle cx="22" cy="22" r="21.5" stroke="#F5F5F5"/>
<path d="M30.2394 20.9807L26.9303 24.4662C26.7115 24.6966 26.3834 24.6966 26.1646 24.4662C25.9458 24.2357 25.9458 23.8901 26.1646 23.6596L29.4737 20.1741C31.0872 18.4745 31.0872 15.7091 29.4737 14.0096C28.6806 13.1742 27.6687 12.7421 26.5474 12.7421C25.4535 12.7421 24.4143 13.203 23.6212 14.0096L20.3121 17.4951C18.6985 19.1947 18.6985 21.9601 20.3121 23.6596C20.6949 24.0629 21.1598 24.4086 21.6795 24.6102C21.9529 24.7255 22.0897 25.0711 21.9803 25.3592C21.7342 25.9641 21.1052 25.6184 21.2692 25.6761C20.6129 25.388 20.0386 24.9847 19.5463 24.4662C17.4952 22.3345 17.4952 18.8202 19.5463 16.6885L22.8554 13.203C23.84 12.166 25.1527 11.5898 26.5474 11.5898C27.9422 11.5898 29.2549 12.166 30.2394 13.203C32.2906 15.3346 32.2906 18.849 30.2394 20.9807ZM21.488 19.3963C21.2145 19.2811 20.8864 19.4251 20.777 19.7132C20.6676 20.0012 20.8043 20.3469 21.0778 20.4621C21.5974 20.6926 22.0623 21.0095 22.4452 21.4127C24.0588 23.1123 24.0588 25.8777 22.4452 27.5773L19.1361 31.0628C18.343 31.8982 17.3311 32.3303 16.2098 32.3303C15.1159 32.3303 14.0767 31.8694 13.2836 31.0628C11.67 29.3632 11.67 26.5979 13.2836 24.8983L16.5927 21.4127C16.8115 21.1823 16.8115 20.8366 16.5927 20.6062C16.3739 20.3757 16.0457 20.3757 15.827 20.6062L12.5178 24.0917C10.4941 26.2234 10.4941 29.7377 12.5178 31.8694C13.5024 32.9064 14.8151 33.4825 16.2098 33.4825C17.6046 33.4825 18.9173 32.9064 19.9018 31.8694L23.211 28.3838C25.2621 26.2522 25.2621 22.7378 23.211 20.6062C22.7187 20.0877 22.1444 19.6844 21.488 19.3963Z" fill="black"/>
</svg>
