<svg width="44" height="44" viewBox="0 0 44 44" fill="none" xmlns="http://www.w3.org/2000/svg">
<g clip-path="url(#clip0_3771_85867)">
<path d="M22 0C34.1484 0 44 9.8516 44 22C44 34.1484 34.1484 44 22 44C9.8516 44 0 34.1484 0 22C0 9.8516 9.8516 0 22 0Z" fill="#1DA1F2"/>
<path d="M16.896 33.1757C27.2712 33.1757 32.9516 24.5781 32.9516 17.1201C32.9516 16.8781 32.9516 16.6317 32.934 16.3897C34.0384 15.5889 34.9932 14.6033 35.75 13.4681C34.7204 13.9257 33.6292 14.2249 32.5116 14.3569C33.6908 13.6529 34.5708 12.5441 34.9932 11.2373C33.8844 11.8929 32.6744 12.3593 31.4116 12.6057C29.2732 10.3353 25.7004 10.2253 23.43 12.3593C21.9648 13.7365 21.3444 15.7913 21.7976 17.7493C17.2612 17.5205 13.0328 15.3777 10.1684 11.8533C8.67239 14.4317 9.43359 17.7273 11.9152 19.3861C11.0176 19.3597 10.1376 19.1177 9.35439 18.6821C9.35439 18.7041 9.35439 18.7305 9.35439 18.7525C9.35439 21.4365 11.2464 23.7509 13.882 24.2833C13.0504 24.5077 12.1792 24.5429 11.3344 24.3801C12.0736 26.6769 14.19 28.2521 16.6056 28.3005C14.608 29.8713 12.1396 30.7249 9.60079 30.7205C9.15199 30.7205 8.70319 30.6941 8.25879 30.6369C10.8284 32.2957 13.8336 33.1757 16.896 33.1713" fill="white"/>
</g>
<defs>
<clipPath id="clip0_3771_85867">
<rect width="44" height="44" fill="white"/>
</clipPath>
</defs>
</svg>
