<svg width="56" height="23" viewBox="0 0 56 23" fill="none" xmlns="http://www.w3.org/2000/svg">
<g clip-path="url(#clip0_83_78726)">
<path d="M56.0011 19.1224C55.8284 20.1258 55.6374 21.1265 55.4908 22.1339C55.4267 22.5657 55.2697 22.7472 54.8222 22.7217C54.1929 22.684 53.5609 22.7109 53.0166 22.7109C53.205 21.0538 53.5178 19.4291 53.5544 17.7975C53.7088 10.9231 50.2101 5.49186 44.5264 3.44069C38.2224 1.16355 31.3493 3.74197 28.0273 9.61033C27.7532 10.0657 27.5335 10.5535 27.3731 11.063C27.2318 11.5579 27.0106 11.7476 26.5056 11.7099C25.8998 11.6642 25.2875 11.6992 24.5744 11.6992C24.657 11.3457 24.7588 10.9972 24.8792 10.6554C27.4071 4.54092 31.912 0.986007 38.3428 0.281212C47.448 -0.715455 55.0996 6.02852 55.8755 15.5325C55.9007 15.7061 55.9387 15.8774 55.9893 16.045L56.0011 19.1224Z" fill="#2F323C"/>
<path d="M0.000167847 19.6549C0.715869 17.7907 2.36316 17.4719 3.99213 17.1181C4.39643 17.0321 4.8112 16.9984 5.21288 16.907C5.61456 16.8155 6.05026 16.6043 5.94559 16.1363C5.86839 15.7879 5.55307 15.3158 5.25736 15.2364C4.6752 15.0698 4.06181 15.055 3.47269 15.1934C2.68764 15.4086 1.97064 15.8457 1.17774 16.2102L0.412318 14.5747C1.86989 13.1032 5.04671 12.5719 6.84185 13.4866C7.82316 13.9842 8.43942 14.806 8.47475 15.8901C8.54933 18.1336 8.49699 20.3812 8.49699 22.6772H6.13269L6.07643 21.6469L3.66372 23.0026H2.35531C1.22484 22.6852 0.349514 22.0759 0.000167847 20.8627V19.6549ZM5.81998 18.3004C4.89493 18.595 3.98821 18.8277 3.12073 19.1841C2.66409 19.3724 2.52671 19.8808 2.6654 20.3812C2.80409 20.8815 3.22017 21.012 3.68858 21.0093C4.96297 21.0039 5.96652 19.8338 5.81998 18.3004Z" fill="#2F323C"/>
<path d="M0.000167847 20.8594C0.349514 22.0699 1.22484 22.6819 2.35531 22.9993H0.000167847V20.8594Z" fill="white"/>
<path d="M17.8825 13.2082C17.8551 11.4167 18.0644 9.75689 19.9001 8.93239C21.2085 8.34192 22.4764 8.56922 23.7874 9.12203C23.5074 9.77437 23.264 10.3608 23.0115 10.9365C20.8723 10.4993 20.3672 10.9674 20.5635 13.2647H22.8453V15.3495H20.5321V22.6503H17.9362V15.4222H13.8801V22.6638H11.2764V15.3885H9.76384V13.2809H11.2371C11.2253 11.5404 11.3797 9.91829 13.0532 9.03192C14.393 8.32443 15.742 8.49391 17.1537 9.10993L16.3844 10.9311C14.2124 10.5437 13.7244 10.993 13.9115 13.2176L17.8825 13.2082Z" fill="#2F323C"/>
<path d="M45.2283 22.67H42.6573C42.6416 22.4226 42.6128 22.1899 42.6115 21.9558C42.6115 20.5072 42.6115 19.0573 42.6115 17.6087C42.6117 17.2966 42.5929 16.9849 42.5552 16.6752C42.4545 15.879 42.096 15.4459 41.4261 15.3074C40.7313 15.1634 40.1713 15.4782 39.8992 16.0686C39.623 16.6667 39.4609 17.3137 39.4216 17.9745C39.3522 19.3532 39.402 20.7372 39.398 22.1199C39.398 22.2907 39.3706 22.4629 39.3522 22.666H36.8244V13.3194H39.2633C39.2973 13.6678 39.3313 14.0282 39.3784 14.5192C40.1451 13.4862 41.0689 12.9764 42.2321 13.0141C43.3952 13.0517 44.3255 13.5292 44.9653 14.6173C45.6836 13.7417 46.5223 13.1566 47.624 13.0262C49.3367 12.8231 50.8244 13.8144 50.9369 15.5616C51.0874 17.9059 50.9735 20.2692 50.9735 22.6633H48.4156V21.4703C48.4156 19.9773 48.43 18.483 48.4064 16.99C48.3894 16.0121 47.921 15.4149 47.1504 15.2872C46.4569 15.1715 45.7765 15.6207 45.4717 16.4829C45.3286 16.9016 45.2518 17.3412 45.244 17.7849C45.2139 19.1447 45.2296 20.5045 45.2283 21.8644V22.67Z" fill="#2F323C"/>
<path d="M29.3595 22.6505V13.3174H31.7644V14.4889C32.3466 14.045 32.8713 13.511 33.5007 13.199C34.1745 12.8668 34.9399 12.9448 35.7145 13.2649C35.5627 14.0504 35.4136 14.8238 35.2683 15.5797C35.1807 15.5985 35.1296 15.6281 35.0982 15.6133C33.4549 14.8265 31.9829 16.0088 31.9463 17.9967C31.9227 19.2866 31.9397 20.5792 31.9397 21.8704V22.6505H29.3595Z" fill="#2F323C"/>
<path d="M27.0449 22.6719H24.5236V13.3535H27.0449V22.6719Z" fill="#2F323C"/>
<path d="M5.82109 18.3027C5.96763 19.8361 4.96408 21.0062 3.68969 21.0116C3.22128 21.0116 2.80913 20.8986 2.66651 20.3835C2.52389 19.8684 2.66651 19.3747 3.12184 19.1864C3.98408 18.83 4.89604 18.6 5.82109 18.3027Z" fill="white"/>
</g>
<defs>
<clipPath id="clip0_83_78726">
<rect width="56" height="23" fill="white"/>
</clipPath>
</defs>
</svg>
