<svg width="40" height="40" viewBox="0 0 40 40" fill="none" xmlns="http://www.w3.org/2000/svg">
<path d="M18.7681 23.1435L18.7675 23.1441C18.7326 23.1791 18.6912 23.2068 18.6456 23.2257C18.6001 23.2446 18.5512 23.2543 18.5019 23.2543C18.4525 23.2543 18.4037 23.2446 18.3581 23.2257C18.3125 23.2068 18.2711 23.1791 18.2363 23.1441L18.2356 23.1435L14.8603 19.7681C14.8253 19.7332 14.7976 19.6917 14.7787 19.646C14.7597 19.6003 14.75 19.5513 14.75 19.5019C14.75 19.4524 14.7597 19.4035 14.7787 19.3578C14.7976 19.3121 14.8253 19.2706 14.8603 19.2356C14.8953 19.2007 14.9368 19.1729 14.9824 19.154C15.0281 19.1351 15.0771 19.1253 15.1265 19.1253C15.176 19.1253 15.225 19.1351 15.2706 19.154C15.3162 19.1729 15.3576 19.2005 15.3926 19.2354C15.3926 19.2354 15.3926 19.2355 15.3926 19.2355C15.3927 19.2355 15.3927 19.2356 15.3928 19.2356L17.9713 21.8164L18.5017 22.3473L19.0323 21.8165L24.9863 15.8603C24.9863 15.8603 24.9864 15.8602 24.9864 15.8602C25.057 15.7896 25.1527 15.75 25.2526 15.75C25.3524 15.75 25.4482 15.7897 25.5188 15.8603C25.5894 15.9309 25.6291 16.0267 25.6291 16.1265C25.6291 16.2264 25.5894 16.3222 25.5188 16.3928L18.7681 23.1435Z" stroke="#2F323C" stroke-width="1.5"/>
<path d="M22.8465 3.57733L24.2104 4.80753C25.1912 5.69209 26.4465 6.21207 27.7655 6.28008L29.5998 6.37466C31.7749 6.48681 33.5132 8.22509 33.6253 10.4002L33.7199 12.2345C33.7879 13.5535 34.3079 14.8088 35.1925 15.7896L36.4227 17.1535C37.8814 18.7708 37.8814 21.2292 36.4227 22.8465L35.1925 24.2104C34.3079 25.1912 33.7879 26.4465 33.7199 27.7655L33.6253 29.5998C33.5132 31.7749 31.7749 33.5132 29.5998 33.6253L27.7655 33.7199C26.4465 33.7879 25.1912 34.3079 24.2104 35.1925L22.8465 36.4227C21.2292 37.8814 18.7708 37.8814 17.1535 36.4227L15.7896 35.1925C14.8088 34.3079 13.5535 33.7879 12.2345 33.7199L10.4002 33.6253C8.22509 33.5132 6.48681 31.7749 6.37466 29.5998L6.28008 27.7655C6.21207 26.4465 5.69209 25.1912 4.80754 24.2104L3.57734 22.8465C2.11861 21.2292 2.11861 18.7708 3.57733 17.1535L4.80754 15.7896C5.69209 14.8088 6.21207 13.5535 6.28008 12.2345L6.37466 10.4002C6.48681 8.22509 8.22509 6.48681 10.4002 6.37466L12.2345 6.28008C13.5535 6.21207 14.8088 5.69209 15.7896 4.80754L17.1535 3.57733C18.7708 2.11861 21.2292 2.11861 22.8465 3.57733Z" stroke="#2F323C" stroke-width="1.5"/>
</svg>
