<svg width="36" height="37" viewBox="0 0 36 37" fill="none" xmlns="http://www.w3.org/2000/svg">
<path d="M32.6088 11.9514L32.6335 9.94869C32.6438 9.08179 32.4806 8.22159 32.1536 7.41867C31.8266 6.61576 31.3423 5.88634 30.7293 5.2733C30.1162 4.66027 29.3868 4.176 28.5839 3.84897C27.781 3.52195 26.9208 3.35877 26.0539 3.36903L32.6088 11.9514ZM32.6088 11.9514L34.0422 13.351M32.6088 11.9514L34.0422 13.351M34.0422 13.351C34.662 13.9567 35.1545 14.6802 35.4908 15.479C35.8271 16.2777 36.0003 17.1356 36.0003 18.0022C36.0003 18.8689 35.8271 19.7268 35.4908 20.5255C35.1545 21.3243 34.662 22.0478 34.0422 22.6535L32.611 24.0531M34.0422 13.351L32.611 24.0531M32.611 24.0531L32.6335 26.0558L32.611 24.0531ZM20.2326 1.20073C20.8971 1.48049 21.5027 1.8825 22.0182 2.38547L31.8588 11.9421L31.8549 12.2635L32.0848 12.488L33.518 13.8875C33.5181 13.8875 33.5181 13.8876 33.5182 13.8876C34.0665 14.4234 34.5021 15.0634 34.7996 15.77C35.0971 16.4766 35.2503 17.2356 35.2503 18.0022C35.2503 18.7689 35.0971 19.5279 34.7996 20.2345C34.5021 20.9412 34.0664 21.5812 33.518 22.117L33.5178 22.1173L32.0866 23.5169L31.8575 23.741L31.8611 24.0615L31.8836 26.0642L31.8836 26.0647C31.8927 26.8316 31.7483 27.5926 31.459 28.3029C31.1697 29.0132 30.7413 29.6585 30.1989 30.2009C29.6566 30.7432 29.0113 31.1716 28.301 31.4609C27.5908 31.7502 26.8299 31.8946 26.0631 31.8855C26.063 31.8855 26.0629 31.8855 26.0627 31.8855L24.0604 31.8608L23.7391 31.8568L23.5146 32.0867L22.1151 33.5199C22.115 33.52 22.115 33.5201 22.1149 33.5201C21.5791 34.0684 20.9391 34.5041 20.2326 34.8015C19.526 35.099 18.767 35.2522 18.0003 35.2522C17.2336 35.2522 16.4746 35.099 15.768 34.8015C15.0614 34.504 14.4213 34.0683 13.8855 33.5199L13.8853 33.5197L12.4856 32.0886L12.2615 31.8594L11.941 31.863L9.93832 31.8855L9.93787 31.8855C9.17095 31.8946 8.40995 31.7502 7.69964 31.4609C6.98932 31.1716 6.34402 30.7432 5.80169 30.2009C5.25935 29.6585 4.83094 29.0132 4.54163 28.3029C4.25236 27.5927 4.108 26.8319 4.11703 26.0651C4.11703 26.065 4.11703 26.0649 4.11703 26.0648C4.11703 26.0648 4.11703 26.0647 4.11703 26.0647L4.14178 24.0624L4.14575 23.741L3.91581 23.5165L2.48261 22.117C1.93425 21.5812 1.49853 20.9412 1.20104 20.2345C0.903551 19.5279 0.750305 18.7689 0.750305 18.0022C0.750305 17.2356 0.903551 16.4766 1.20104 15.77C1.49853 15.0633 1.93425 14.4233 2.48261 13.8875L2.48284 13.8872L3.91398 12.4876L4.14314 12.2635L4.13954 11.943L4.11704 9.94026L4.11703 9.93981C4.10795 9.17289 4.25232 8.4119 4.54163 7.70158C4.83094 6.99126 5.25935 6.34596 5.80169 5.80363C6.34402 5.2613 6.98932 4.83288 7.69964 4.54357C8.40983 4.25431 9.17069 4.10995 9.93748 4.11897C9.93755 4.11897 9.93763 4.11897 9.93771 4.11897C9.93776 4.11897 9.93781 4.11898 9.93787 4.11898L11.9402 4.14372L12.2619 4.1477L12.4865 3.91733L13.8855 2.48231C13.8855 2.48228 13.8856 2.48224 13.8856 2.48221C14.4214 1.9339 15.0614 1.4982 15.768 1.20073C16.4746 0.903246 17.2336 0.75 18.0003 0.75C18.767 0.75 19.526 0.903246 20.2326 1.20073ZM24.0512 32.6107L22.6515 34.0441C22.0458 34.664 21.3224 35.1565 20.5236 35.4928C19.7249 35.829 18.867 36.0022 18.0003 36.0022C17.1337 36.0022 16.2758 35.829 15.477 35.4928C14.6783 35.1565 13.9548 34.664 13.3491 34.0441L24.0512 32.6107ZM11.9494 32.613L9.94674 32.6355C9.07985 32.6457 8.21965 32.4826 7.41673 32.1555C6.61381 31.8285 5.88439 31.3442 5.27136 30.7312C4.65832 30.1182 4.17406 29.3887 3.84703 28.5858C3.52 27.7829 3.35682 26.9227 3.36708 26.0558L11.9494 32.613ZM1.95844 13.351L3.38959 11.9514L1.95844 13.351Z" stroke="#2F323C" stroke-width="1.5"/>
<path d="M16.7684 21.1435L16.7678 21.1441C16.7329 21.1791 16.6915 21.2068 16.6459 21.2257C16.6004 21.2446 16.5515 21.2543 16.5022 21.2543C16.4528 21.2543 16.404 21.2446 16.3584 21.2257C16.3128 21.2068 16.2714 21.1791 16.2366 21.1441L16.2359 21.1435L12.8606 17.7681C12.8256 17.7332 12.7979 17.6917 12.779 17.646C12.76 17.6003 12.7503 17.5513 12.7503 17.5019C12.7503 17.4524 12.76 17.4035 12.779 17.3578C12.7979 17.3121 12.8256 17.2706 12.8606 17.2356C12.8956 17.2007 12.9371 17.1729 12.9827 17.154C13.0284 17.1351 13.0774 17.1253 13.1268 17.1253C13.1763 17.1253 13.2253 17.1351 13.2709 17.154C13.3165 17.1729 13.3579 17.2005 13.3929 17.2354C13.3929 17.2354 13.3929 17.2355 13.3929 17.2355C13.393 17.2355 13.393 17.2356 13.3931 17.2356L15.9716 19.8164L16.502 20.3473L17.0326 19.8165L22.9866 13.8603C22.9866 13.8603 22.9867 13.8602 22.9867 13.8602C23.0573 13.7896 23.153 13.75 23.2529 13.75C23.3527 13.75 23.4485 13.7897 23.5191 13.8603C23.5897 13.9309 23.6294 14.0267 23.6294 14.1265C23.6294 14.2264 23.5897 14.3222 23.5191 14.3928L16.7684 21.1435Z" stroke="#2F323C" stroke-width="1.5"/>
</svg>
