<svg width="36" height="36" viewBox="0 0 36 36" fill="none" xmlns="http://www.w3.org/2000/svg">
<path d="M22.3561 0.541597C17.6951 -0.621771 12.8547 0.103771 8.73448 2.57645C4.61421 5.05608 1.7075 8.9854 0.542597 13.6528C-0.62231 18.3132 0.104715 23.1529 2.57771 27.2727C5.05209 31.3924 8.98192 34.2987 13.6499 35.4635C15.1067 35.8263 16.5622 36 18.0023 36C22.035 36 25.8898 34.6309 28.9925 32.243C32.0952 29.851 34.4445 26.4401 35.462 22.3579C37.8669 12.7271 31.9868 2.93922 22.3561 0.541597ZM34.1525 22.0271C31.9325 30.9323 22.8802 36.3725 13.9738 34.1528C9.66446 33.0756 6.02656 30.3847 3.73567 26.5735C1.44478 22.7623 0.780305 18.291 1.85625 13.9766C2.92802 9.66229 5.61926 6.02485 9.43092 3.73426C12.0513 2.15947 14.9913 1.35192 17.9745 1.35192C19.3229 1.35192 20.681 1.52011 22.0294 1.85508C29.5874 3.73843 34.6502 10.5435 34.6502 18.0032C34.6516 19.3306 34.4889 20.6788 34.1525 22.0271Z" fill="#2F323C"/>
<path d="M12.3057 20.9193C12.2112 21.1528 11.9721 21.5031 11.4355 21.371C11.4536 21.3988 10.0537 21.0263 10.0537 21.0263L9.10985 23.203L11.5842 23.8201C12.0444 23.9355 12.4948 24.0564 12.9396 24.169L12.1528 27.3269L14.0517 27.8008L14.8301 24.6749C15.3486 24.8167 15.8519 24.9459 16.3453 25.0683L15.5697 28.1775L17.4699 28.6515L18.2567 25.4991C21.4971 26.1121 23.9353 25.8647 24.9612 22.9347C25.7883 20.5746 24.9195 19.2125 23.2152 18.3243C24.4566 18.0366 25.3921 17.2207 25.6424 15.5334C25.9871 13.2289 24.2328 11.989 21.8321 11.162L22.6105 8.04027L20.7103 7.56631L19.9527 10.6061C19.4536 10.481 18.9393 10.3642 18.4305 10.2475L19.1937 7.18686L17.2934 6.71289L16.5149 9.83466C16.1007 9.74015 15.6948 9.64702 15.3014 9.54973L15.3042 9.54L12.6824 8.88535L12.1764 10.916C12.1764 10.916 13.5874 11.2385 13.5568 11.2593C14.3269 11.4511 14.4659 11.9613 14.4423 12.3643L12.3057 20.9193ZM21.2969 21.6226C20.7089 23.9827 16.7346 22.7068 15.4459 22.3871L16.4899 18.2034C17.7785 18.5245 21.9099 19.1611 21.2969 21.6226ZM21.8849 15.5C21.3483 17.6474 18.0413 16.5563 16.9681 16.2881L17.9148 12.4936C18.9865 12.7605 22.4423 13.2594 21.8849 15.5Z" fill="#2F323C"/>
</svg>
