<svg width="23" height="20" viewBox="0 0 23 20" fill="none" xmlns="http://www.w3.org/2000/svg">
<path d="M21.7993 4.00504C21.4682 3.2384 20.9908 2.54368 20.3938 1.95977C19.7963 1.37412 19.0919 0.908713 18.3188 0.588855C17.5172 0.255865 16.6575 0.0854218 15.7894 0.0874197C14.5717 0.0874197 13.3835 0.420886 12.351 1.05077C12.104 1.20145 11.8693 1.36694 11.647 1.54726C11.4247 1.36694 11.1901 1.20145 10.943 1.05077C9.91053 0.420886 8.7224 0.0874197 7.50462 0.0874197C6.62773 0.0874197 5.778 0.255388 4.97521 0.588855C4.19959 0.909971 3.50055 1.37188 2.9003 1.95977C2.30252 2.54303 1.825 3.23791 1.4948 4.00504C1.15145 4.80289 0.976074 5.65014 0.976074 6.52209C0.976074 7.34465 1.14404 8.20178 1.47751 9.07373C1.75663 9.80242 2.1568 10.5583 2.66811 11.3215C3.47831 12.5294 4.59234 13.7892 5.97561 15.0663C8.26789 17.1832 10.5379 18.6455 10.6343 18.7047L11.2197 19.0802C11.4791 19.2457 11.8125 19.2457 12.0719 19.0802L12.6573 18.7047C12.7536 18.643 15.0212 17.1832 17.316 15.0663C18.6992 13.7892 19.8133 12.5294 20.6235 11.3215C21.1348 10.5583 21.5374 9.80242 21.8141 9.07373C22.1475 8.20178 22.3155 7.34465 22.3155 6.52209C22.318 5.65014 22.1426 4.80289 21.7993 4.00504ZM11.647 17.1263C11.647 17.1263 2.85337 11.492 2.85337 6.52209C2.85337 4.00504 4.93569 1.96471 7.50462 1.96471C9.31029 1.96471 10.8763 2.97252 11.647 4.44472C12.4177 2.97252 13.9838 1.96471 15.7894 1.96471C18.3584 1.96471 20.4407 4.00504 20.4407 6.52209C20.4407 11.492 11.647 17.1263 11.647 17.1263Z" fill="#1D1C1D"/>
</svg>
