<svg height="61" fill="none" xmlns="http://www.w3.org/2000/svg">
<path d="M5.50977 27.2529C8.42188 27.2529 10.2539 25.2568 10.2539 22.0713V22.0576C10.2539 18.8721 8.41504 16.8828 5.50977 16.8828C2.60449 16.8828 0.758789 18.8652 0.758789 22.0576V22.0713C0.758789 25.2568 2.57715 27.2529 5.50977 27.2529ZM5.50977 25.5029C3.88281 25.5029 2.86426 24.1562 2.86426 22.0713V22.0576C2.86426 19.9658 3.90332 18.6328 5.50977 18.6328C7.10938 18.6328 8.14844 19.9658 8.14844 22.0576V22.0713C8.14844 24.1562 7.11621 25.5029 5.50977 25.5029ZM13.9863 27H16.2285L18.833 19.4736H16.7344L15.1895 25.1338H15.0664L13.5078 19.4736H11.3682L13.9863 27ZM23.1738 27.1572C25.375 27.1572 26.3457 25.8857 26.5781 24.9424L26.5918 24.874H24.7324L24.7119 24.915C24.5752 25.2021 24.0898 25.667 23.2148 25.667C22.1553 25.667 21.4922 24.9492 21.4717 23.7119H26.6533V23.0898C26.6533 20.8135 25.2861 19.3096 23.0918 19.3096C20.8975 19.3096 19.4961 20.8477 19.4961 23.2402V23.2471C19.4961 25.6602 20.8838 27.1572 23.1738 27.1572ZM23.126 20.8066C23.9941 20.8066 24.6162 21.3672 24.7393 22.4609H21.4922C21.6152 21.3945 22.2578 20.8066 23.126 20.8066ZM28.2871 27H30.2832V22.7891C30.2832 21.7227 31.001 21.0732 32.1357 21.0732C32.4434 21.0732 32.751 21.1211 33.0518 21.1895V19.4463C32.8535 19.3916 32.5732 19.3506 32.3066 19.3506C31.3291 19.3506 30.6455 19.8291 30.4062 20.6426H30.2832V19.4736H28.2871V27ZM36.2988 27.1162C37.2832 27.1162 38.0762 26.6992 38.459 26.002H38.582V27H40.5508V21.8594C40.5508 20.2529 39.4229 19.3096 37.4268 19.3096C35.5332 19.3096 34.2891 20.1846 34.1318 21.5039L34.125 21.5654H35.9707L35.9844 21.5381C36.1416 21.0938 36.5996 20.8408 37.3174 20.8408C38.1377 20.8408 38.582 21.21 38.582 21.8594V22.4814L36.7637 22.5908C34.8906 22.7002 33.8447 23.4932 33.8447 24.8467V24.8604C33.8447 26.2275 34.8633 27.1162 36.2988 27.1162ZM35.793 24.7373V24.7236C35.793 24.1768 36.21 23.8555 37.0645 23.8008L38.582 23.7051V24.2588C38.582 25.0518 37.8916 25.6602 36.9688 25.6602C36.2783 25.6602 35.793 25.3115 35.793 24.7373ZM42.5742 27H44.5703V16.5957H42.5742V27ZM46.7031 27H48.6992V16.5957H46.7031V27ZM54.5713 27H56.6357V23.1172H60.6484V21.4834H56.6357V18.8379H61.0312V17.1357H54.5713V27ZM63.7588 18.3184C64.374 18.3184 64.8799 17.8262 64.8799 17.2109C64.8799 16.5889 64.374 16.0967 63.7588 16.0967C63.1436 16.0967 62.6309 16.5889 62.6309 17.2109C62.6309 17.8262 63.1436 18.3184 63.7588 18.3184ZM62.7539 27H64.75V19.4736H62.7539V27ZM69.8838 27.0273C70.2666 27.0273 70.6357 26.9863 70.8818 26.9385V25.4551C70.6904 25.4756 70.5537 25.4893 70.2939 25.4893C69.6172 25.4893 69.3301 25.1885 69.3301 24.5117V20.9775H70.8818V19.4736H69.3301V17.6758H67.3135V19.4736H66.1514V20.9775H67.3135V24.9697C67.3135 26.4326 68.0518 27.0273 69.8838 27.0273Z" fill="#6F6F6F"/>
<line x1="152.5" y1="7" x2="152.5" y2="31" stroke="#78CDF1"/>
<line x1="255.5" y1="7" x2="255.5" y2="31" stroke="#78CDF1"/>
<line x1="360.5" y1="7" x2="360.5" y2="31" stroke="#78CDF1"/>
<line x1="463.5" y1="7" x2="463.5" y2="31" stroke="#78CDF1"/>
<rect x="304.5" y="0.5" width="2" height="37" rx="1" fill="white" stroke="#F67A00"/>
<rect x="410.5" y="5.5" width="2" height="27" rx="1" fill="white" stroke="#78CDF1"/>
<path d="M398.68 53.0703H401.305V55.7539H402.254V53.0703H404.879V52.1211H402.254V49.4375H401.305V52.1211H398.68V53.0703ZM408.57 56H409.625V47.5449H408.576L406.326 49.1621V50.2754L408.477 48.7168H408.57V56ZM414.775 47.1758H413.797L411.125 58.1094H412.104L414.775 47.1758ZM415.725 56H421.197V55.0508H417.189V54.957L419.111 52.9707C420.641 51.3945 421.057 50.6914 421.057 49.7246V49.7129C421.057 48.3477 419.926 47.3457 418.449 47.3457C416.832 47.3457 415.672 48.4238 415.666 49.9238L415.678 49.9297L416.686 49.9355L416.691 49.9238C416.691 48.9277 417.365 48.2656 418.379 48.2656C419.375 48.2656 419.979 48.9336 419.979 49.8242V49.8359C419.979 50.5742 419.662 51.0137 418.584 52.1797L415.725 55.2734V56Z" fill="#6F6F6F"/>
<path d="M268.619 47.5449H267.863L266.943 50.8789H268.109L268.619 47.5449ZM270.564 47.5449H269.809L268.889 50.8789H270.055L270.564 47.5449ZM274.783 56H275.838V48.4941H278.562V47.5449H272.059V48.4941H274.783V56ZM279.184 56H280.203V52.0859C280.203 51.1602 280.895 50.5449 281.867 50.5449C282.09 50.5449 282.283 50.5684 282.494 50.6035V49.6133C282.395 49.5957 282.178 49.5723 281.984 49.5723C281.129 49.5723 280.537 49.959 280.297 50.6211H280.203V49.6836H279.184V56ZM285.869 56.1113C286.795 56.1113 287.434 55.7305 287.744 55.0566H287.838V56H288.857V49.6836H287.838V53.4219C287.838 54.5293 287.246 55.209 286.133 55.209C285.125 55.209 284.715 54.6641 284.715 53.5273V49.6836H283.695V53.7734C283.695 55.2676 284.434 56.1113 285.869 56.1113ZM293.34 56.1113C294.828 56.1113 295.73 55.2676 295.947 54.4121L295.959 54.3652H294.939L294.916 54.418C294.746 54.7988 294.219 55.2031 293.363 55.2031C292.238 55.2031 291.518 54.4414 291.488 53.1348H296.035V52.7363C296.035 50.8496 294.992 49.5723 293.275 49.5723C291.559 49.5723 290.445 50.9082 290.445 52.8594V52.8652C290.445 54.8457 291.535 56.1113 293.34 56.1113ZM293.27 50.4805C294.201 50.4805 294.893 51.0723 294.998 52.3203H291.506C291.617 51.1191 292.332 50.4805 293.27 50.4805ZM303.236 56.0469C303.436 56.0469 303.629 56.0234 303.828 55.9883V55.1211C303.641 55.1387 303.541 55.1445 303.359 55.1445C302.703 55.1445 302.445 54.8457 302.445 54.1016V50.5273H303.828V49.6836H302.445V48.0488H301.391V49.6836H300.395V50.5273H301.391V54.3594C301.391 55.5664 301.936 56.0469 303.236 56.0469ZM307.854 56.1113C309.652 56.1113 310.766 54.8691 310.766 52.8477V52.8359C310.766 50.8086 309.652 49.5723 307.854 49.5723C306.055 49.5723 304.941 50.8086 304.941 52.8359V52.8477C304.941 54.8691 306.055 56.1113 307.854 56.1113ZM307.854 55.209C306.658 55.209 305.984 54.3359 305.984 52.8477V52.8359C305.984 51.3418 306.658 50.4746 307.854 50.4746C309.049 50.4746 309.723 51.3418 309.723 52.8359V52.8477C309.723 54.3359 309.049 55.209 307.854 55.209ZM318.623 56.1992C320.51 56.1992 321.746 55.2148 321.746 53.6328V53.627C321.746 52.4082 321.049 51.6992 319.285 51.3066L318.348 51.0957C317.199 50.8438 316.736 50.3867 316.736 49.7129V49.707C316.736 48.8223 317.551 48.3242 318.605 48.3184C319.707 48.3125 320.41 48.8633 320.527 49.6074L320.539 49.6836H321.594L321.588 49.6016C321.5 48.3418 320.322 47.3457 318.635 47.3457C316.889 47.3457 315.664 48.3359 315.658 49.7363V49.7422C315.658 50.9668 316.391 51.7461 318.084 52.1211L319.021 52.3262C320.182 52.584 320.668 53.0645 320.668 53.7676V53.7734C320.668 54.6348 319.83 55.2266 318.682 55.2266C317.463 55.2266 316.584 54.6934 316.508 53.8496L316.502 53.7852H315.447L315.453 53.8496C315.576 55.2266 316.771 56.1992 318.623 56.1992ZM323.914 48.4648C324.301 48.4648 324.617 48.1484 324.617 47.7617C324.617 47.375 324.301 47.0586 323.914 47.0586C323.527 47.0586 323.211 47.375 323.211 47.7617C323.211 48.1484 323.527 48.4648 323.914 48.4648ZM323.398 56H324.418V49.6836H323.398V56ZM326.193 56H331.057V55.1562H327.412V55.0625L331.039 50.4395V49.6836H326.199V50.5273H329.838V50.6211L326.193 55.2617V56ZM335.211 56.1113C336.699 56.1113 337.602 55.2676 337.818 54.4121L337.83 54.3652H336.811L336.787 54.418C336.617 54.7988 336.09 55.2031 335.234 55.2031C334.109 55.2031 333.389 54.4414 333.359 53.1348H337.906V52.7363C337.906 50.8496 336.863 49.5723 335.146 49.5723C333.43 49.5723 332.316 50.9082 332.316 52.8594V52.8652C332.316 54.8457 333.406 56.1113 335.211 56.1113ZM335.141 50.4805C336.072 50.4805 336.764 51.0723 336.869 52.3203H333.377C333.488 51.1191 334.203 50.4805 335.141 50.4805ZM339.482 50.8789H340.238L341.158 47.5449H339.992L339.482 50.8789ZM341.428 50.8789H342.184L343.104 47.5449H341.938L341.428 50.8789Z" fill="#6F6F6F"/>
<path d="M192.861 53.0703H196.799V52.1211H192.861V53.0703ZM200.672 56H201.727V47.5449H200.678L198.428 49.1621V50.2754L200.578 48.7168H200.672V56ZM206.877 47.1758H205.898L203.227 58.1094H204.205L206.877 47.1758ZM207.826 56H213.299V55.0508H209.291V54.957L211.213 52.9707C212.742 51.3945 213.158 50.6914 213.158 49.7246V49.7129C213.158 48.3477 212.027 47.3457 210.551 47.3457C208.934 47.3457 207.773 48.4238 207.768 49.9238L207.779 49.9297L208.787 49.9355L208.793 49.9238C208.793 48.9277 209.467 48.2656 210.48 48.2656C211.477 48.2656 212.08 48.9336 212.08 49.8242V49.8359C212.08 50.5742 211.764 51.0137 210.686 52.1797L207.826 55.2734V56Z" fill="#6F6F6F"/>
<path d="M94.8613 53.0703H98.7988V52.1211H94.8613V53.0703ZM102.672 56H103.727V47.5449H102.678L100.428 49.1621V50.2754L102.578 48.7168H102.672V56Z" fill="#6F6F6F"/>
<circle cx="305.5" cy="18.5" r="4" fill="white" stroke="#F67A00"/>
<rect x="99.5" y="0.5" width="2" height="37" rx="1" fill="white" stroke="#78CDF1"/>
<path d="M506.68 53.0703H509.305V55.7539H510.254V53.0703H512.879V52.1211H510.254V49.4375H509.305V52.1211H506.68V53.0703ZM516.57 56H517.625V47.5449H516.576L514.326 49.1621V50.2754L516.477 48.7168H516.57V56Z" fill="#6F6F6F"/>
<rect x="202.5" y="5.5" width="2" height="27" rx="1" fill="white" stroke="#78CDF1"/>
<rect x="513.5" y="0.5" width="2" height="37" rx="1" fill="white" stroke="#78CDF1"/>
</svg>
