<svg width="124" height="46" viewBox="0 0 124 46" fill="none" xmlns="http://www.w3.org/2000/svg">
<g clip-path="url(#clip0_1329_163677)">
<path d="M89.6993 39.3036H86.5511C68.6777 39.3036 50.8052 39.2977 32.9338 39.2858C32.193 39.2858 31.8196 39.4727 31.4881 40.1611C29.8423 43.5672 27.0825 45.5669 23.3071 45.9348C19.233 46.3324 15.9982 44.748 13.6774 41.3746C13.3639 40.9559 13.1134 40.4941 12.9337 40.0038C12.7305 39.3748 12.3363 39.3125 11.7628 39.2829C9.3733 39.1671 6.94796 39.0722 4.56145 38.7874C2.98438 38.6005 1.54172 37.8676 0.797992 36.3752C0.367719 35.5085 0.114925 34.5656 0.0542617 33.6011C-0.133443 30.7573 0.105124 27.9016 0.762151 25.1274C1.55666 21.9379 3.50111 19.6029 6.28786 17.9206C9.49278 15.9891 13.0442 14.9715 16.6702 14.2208C18.8178 13.7787 21.0012 13.5295 23.1607 13.1497C23.7912 13.0393 24.4053 12.8509 24.9887 12.589C29.4182 10.5892 33.7999 8.48861 38.2623 6.56897C44.0479 4.07968 49.9619 1.87226 56.2104 0.902057C59.8992 0.329431 63.6776 0.222611 67.4172 0.0683285C72.194 -0.150574 76.9809 0.105868 81.7064 0.833813C84.299 1.24622 86.8498 2.0473 89.3528 2.88103C92.3994 3.89276 95.4161 5.02615 98.3672 6.28712C101.674 7.6994 104.899 9.2986 108.143 10.8503C108.767 11.1884 109.474 11.3428 110.183 11.2954C112.519 11.0916 114.871 11.2144 117.173 11.6603C119.308 12.0668 120.625 13.4227 121.297 15.3957C122.68 19.4664 123.83 23.5965 123.986 27.9282C124.051 29.747 123.893 31.5331 123.09 33.2065C122.792 33.8533 122.361 34.4307 121.825 34.901C121.288 35.3713 120.657 35.724 119.974 35.9361C116.704 37.022 113.322 37.6095 109.92 38.0842C109.496 38.1435 109.266 38.2474 109.132 38.7102C108.701 40.1777 107.941 41.5292 106.909 42.6633C105.877 43.7973 104.6 44.6846 103.174 45.2584C101.748 45.8322 100.209 46.0777 98.6735 45.9765C97.138 45.8752 95.6455 45.4299 94.308 44.6739C92.2593 43.5572 90.6728 41.7585 89.8277 39.5944C89.7829 39.4846 89.7381 39.3748 89.6903 39.268C89.6634 39.2384 89.6335 39.1998 89.6993 39.3036ZM32.5007 36.1082H50.2307C62.6263 36.1082 75.0228 36.1082 87.4203 36.1082C87.7757 36.1082 88.1282 36.0281 88.4836 36.0192C88.9764 36.0192 89.081 35.7551 89.1138 35.2982C89.2081 32.721 90.3222 30.2847 92.2142 28.5187C93.509 27.2775 95.1102 26.3971 96.8564 25.9661C98.6027 25.5351 100.432 25.5686 102.162 26.0634C103.891 26.5583 105.458 27.4968 106.706 28.7846C107.953 30.0725 108.838 31.6641 109.269 33.3993C109.398 33.8889 109.413 34.6039 109.732 34.7938C110.052 34.9837 110.742 34.7731 111.25 34.6603C113.806 34.0907 116.358 33.5042 118.905 32.9009C119.234 32.8227 119.536 32.6577 119.779 32.4233C120.022 32.1888 120.197 31.8936 120.285 31.5687C120.549 30.8104 120.708 30.0198 120.757 29.2189C120.852 24.6438 119.607 20.3179 118.069 16.0692C117.957 15.7 117.732 15.375 117.424 15.1401C117.116 14.9053 116.742 14.7726 116.354 14.7608C114.168 14.6421 111.975 14.5086 109.783 14.5205C108.93 14.5552 108.082 14.3809 107.313 14.0131C101.294 10.9749 95.1861 8.12368 88.7614 6.02899C86.2972 5.22494 83.8032 4.33188 81.2554 4.00254C77.3286 3.50695 73.3738 3.26216 69.4154 3.2697C65.3089 3.27793 61.2062 3.51964 57.1274 3.99364C53.2893 4.43572 49.6035 5.69372 45.9655 6.99326C39.8782 9.16509 34.018 11.8621 28.1757 14.6184C26.8418 15.2849 25.449 15.8281 24.015 16.2413C22.5962 16.6181 21.0908 16.6597 19.6332 16.9059C15.9504 17.5409 12.3661 18.431 8.99397 20.0836C6.55071 21.2941 4.63911 23.012 3.94317 25.7475C3.31572 28.3572 3.08019 31.0446 3.24424 33.7227C3.29203 34.7197 3.84162 35.4644 4.87209 35.6127C6.30877 35.8204 7.75741 35.9688 9.20305 36.0756C10.123 36.1438 11.0489 36.0756 11.9689 36.0756C11.9373 34.7157 12.1798 33.3633 12.6822 32.0979C13.1846 30.8325 13.9367 29.6797 14.8942 28.7073C15.8517 27.735 16.9954 26.9626 18.2579 26.4358C19.5203 25.909 20.8761 25.6383 22.2455 25.6397C23.6148 25.6411 24.9701 25.9145 26.2315 26.4439C27.4929 26.9733 28.6349 27.7479 29.5905 28.7222C30.546 29.6965 31.2957 30.8508 31.7955 32.1172C32.2953 33.3836 32.535 34.7365 32.5007 36.0963V36.1082ZM15.2634 35.8471C15.2652 37.221 15.6768 38.5636 16.4462 39.7052C17.2155 40.8469 18.3083 41.7366 19.5863 42.2618C20.8644 42.787 22.2704 42.9243 23.6269 42.6562C24.9835 42.3882 26.2296 41.7269 27.208 40.7558C28.1865 39.7847 28.8533 38.5475 29.1243 37.2002C29.3952 35.8529 29.2583 34.4561 28.7306 33.1861C28.203 31.9162 27.3083 30.83 26.1596 30.0647C25.0109 29.2995 23.6597 28.8895 22.2766 28.8866C20.4186 28.8897 18.6375 29.6239 17.3231 30.9284C16.0087 32.2329 15.2682 34.0015 15.2634 35.8471ZM106.327 35.8708C106.328 34.5014 105.921 33.1623 105.157 32.0219C104.394 30.8814 103.309 29.9904 102.037 29.4608C100.766 28.9312 99.3652 28.7866 98.0113 29.0451C96.6575 29.3037 95.4107 29.9538 94.4276 30.9139C93.4445 31.8741 92.769 33.1013 92.4858 34.4416C92.2026 35.7819 92.3245 37.1754 92.836 38.4471C93.3476 39.7188 94.226 40.812 95.361 41.5894C96.496 42.3668 97.837 42.7937 99.2154 42.8165C100.143 42.8283 101.063 42.6575 101.923 42.3141C102.784 41.9707 103.567 41.4614 104.228 40.8157C104.889 40.1699 105.415 39.4005 105.776 38.5518C106.136 37.7031 106.323 36.7919 106.327 35.8708Z" fill="#41595F"/>
</g>
<defs>
<clipPath id="clip0_1329_163677">
<rect width="124" height="46" fill="white"/>
</clipPath>
</defs>
</svg>
