<svg width="140" height="140" viewBox="0 0 140 140" fill="none" xmlns="http://www.w3.org/2000/svg">
<mask id="path-1-inside-1_1486_31809" fill="white">
<path d="M127.706 63.6578L105.214 59.1684L103.906 58.9401C103.184 58.748 100.897 57.7243 97.7512 56.3523L98.062 56.078C98.7018 55.2365 98.5007 53.7547 97.504 53.2517C96.6625 52.6119 95.1807 52.813 94.6778 53.8097L93.8823 54.7885C92.1627 54.0939 90.5984 53.2614 88.742 52.4106L89.0711 51.8433C89.7109 51.0018 89.5098 49.52 88.5131 49.0171C87.6716 48.3772 86.1898 48.5784 85.6869 49.575L85.0283 50.709C83.4644 49.877 81.7631 48.8893 80.1988 48.0568L80.6835 47.3522C81.3233 46.5107 81.1222 45.0289 80.1256 44.5259C79.284 43.8861 77.8022 44.0872 77.2993 45.0839L76.6595 45.9254C76.5221 45.7697 76.2296 45.752 76.0922 45.5963C74.9582 44.9377 74.1167 44.2979 73.1378 43.5024L72.0404 42.2588C70.3114 39.3594 67.7409 35.8202 64.6591 35.7749C61.44 35.5739 58.5496 39.5071 59.62 43.5405L60.3519 45.9364C60.4892 46.092 60.3336 46.2294 60.1785 46.3663C48.4442 53.1261 44.4844 53.026 41.9686 53.3099C37.9718 53.7953 36.6727 51.0693 35.6117 49.2407C34.1575 46.6526 32.9775 44.3753 27.4533 43.4426C25.423 43.0222 23.42 44.513 23.1547 46.4064C22.4785 52.5349 19.4337 70.7085 19.2975 75.2549C15.0178 82.6271 18.0088 88.8369 23.2405 89.7508C56.0759 95.6199 99.84 93.5039 115.955 89.5159C123.729 87.3568 134.942 81.8866 135.591 73.8468C136.066 70.9389 134.813 65.1307 127.706 63.6585L127.706 63.6578ZM27.4895 47.5595C30.5352 48.1904 31.0654 49.1049 32.2641 51.0897C33.3256 52.9189 35.6485 58.059 42.4534 57.3087C48.4622 57.5367 57.4345 52.6616 62.4555 49.8899C64.2847 48.8285 65.1532 46.6796 64.5405 44.7314L63.8086 42.3355C63.4518 40.991 64.1104 39.857 64.6954 39.8935C65.2804 39.9301 66.9639 41.2103 68.6741 44.4021C69.2043 45.3167 69.8907 46.0944 70.7322 46.7342C71.7111 47.5297 72.845 48.1883 73.8239 48.9838C73.9613 49.1394 73.9613 49.1394 74.2538 49.1572L71.8304 52.6783C71.1905 53.5198 71.3917 55.0016 72.3883 55.5046C73.2298 56.1444 74.7116 55.9433 75.2146 54.9466L77.7937 51.2882C79.3576 52.1202 81.0588 53.1078 82.6232 53.9404L80.218 57.1695C79.5781 58.011 79.7793 59.4928 80.7759 59.9957C81.6174 60.6356 83.0992 60.4344 83.6022 59.4378L86.1813 55.7793C88.0382 56.6296 89.602 57.4616 91.3215 58.1573L89.209 61.4021C88.5692 62.2437 88.7703 63.7255 89.7669 64.2284C90.6084 64.8682 92.0903 64.6671 92.5932 63.6705L95.3457 59.5821C99.352 61.3015 102.361 62.5173 102.654 62.5361C102.791 62.6918 102.947 62.5544 103.084 62.7095L127.175 67.4459C130.806 68.1133 131.675 70.6648 131.721 72.2835C125.182 75.8419 111.381 78.0651 108.435 78.1759C62.7606 80.3186 38.9247 76.1863 23.623 74.2035C23.8971 69.8133 25.799 58.179 27.4899 47.5606L27.4895 47.5595ZM114.884 85.483C99.5101 89.3712 57.7937 91.615 23.9256 85.8276C20.7243 85.3341 21.1357 81.0996 22.4895 78.2456C35.8982 79.9641 60.7307 84.5994 108.454 82.5833C111.692 82.4918 122.082 80.7897 128.996 78.2825C125.246 81.8684 118.021 84.649 114.884 85.4822L114.884 85.483Z"/>
</mask>
<path d="M127.706 63.6578L105.214 59.1684L103.906 58.9401C103.184 58.748 100.897 57.7243 97.7512 56.3523L98.062 56.078C98.7018 55.2365 98.5007 53.7547 97.504 53.2517C96.6625 52.6119 95.1807 52.813 94.6778 53.8097L93.8823 54.7885C92.1627 54.0939 90.5984 53.2614 88.742 52.4106L89.0711 51.8433C89.7109 51.0018 89.5098 49.52 88.5131 49.0171C87.6716 48.3772 86.1898 48.5784 85.6869 49.575L85.0283 50.709C83.4644 49.877 81.7631 48.8893 80.1988 48.0568L80.6835 47.3522C81.3233 46.5107 81.1222 45.0289 80.1256 44.5259C79.284 43.8861 77.8022 44.0872 77.2993 45.0839L76.6595 45.9254C76.5221 45.7697 76.2296 45.752 76.0922 45.5963C74.9582 44.9377 74.1167 44.2979 73.1378 43.5024L72.0404 42.2588C70.3114 39.3594 67.7409 35.8202 64.6591 35.7749C61.44 35.5739 58.5496 39.5071 59.62 43.5405L60.3519 45.9364C60.4892 46.092 60.3336 46.2294 60.1785 46.3663C48.4442 53.1261 44.4844 53.026 41.9686 53.3099C37.9718 53.7953 36.6727 51.0693 35.6117 49.2407C34.1575 46.6526 32.9775 44.3753 27.4533 43.4426C25.423 43.0222 23.42 44.513 23.1547 46.4064C22.4785 52.5349 19.4337 70.7085 19.2975 75.2549C15.0178 82.6271 18.0088 88.8369 23.2405 89.7508C56.0759 95.6199 99.84 93.5039 115.955 89.5159C123.729 87.3568 134.942 81.8866 135.591 73.8468C136.066 70.9389 134.813 65.1307 127.706 63.6585L127.706 63.6578ZM27.4895 47.5595C30.5352 48.1904 31.0654 49.1049 32.2641 51.0897C33.3256 52.9189 35.6485 58.059 42.4534 57.3087C48.4622 57.5367 57.4345 52.6616 62.4555 49.8899C64.2847 48.8285 65.1532 46.6796 64.5405 44.7314L63.8086 42.3355C63.4518 40.991 64.1104 39.857 64.6954 39.8935C65.2804 39.9301 66.9639 41.2103 68.6741 44.4021C69.2043 45.3167 69.8907 46.0944 70.7322 46.7342C71.7111 47.5297 72.845 48.1883 73.8239 48.9838C73.9613 49.1394 73.9613 49.1394 74.2538 49.1572L71.8304 52.6783C71.1905 53.5198 71.3917 55.0016 72.3883 55.5046C73.2298 56.1444 74.7116 55.9433 75.2146 54.9466L77.7937 51.2882C79.3576 52.1202 81.0588 53.1078 82.6232 53.9404L80.218 57.1695C79.5781 58.011 79.7793 59.4928 80.7759 59.9957C81.6174 60.6356 83.0992 60.4344 83.6022 59.4378L86.1813 55.7793C88.0382 56.6296 89.602 57.4616 91.3215 58.1573L89.209 61.4021C88.5692 62.2437 88.7703 63.7255 89.7669 64.2284C90.6084 64.8682 92.0903 64.6671 92.5932 63.6705L95.3457 59.5821C99.352 61.3015 102.361 62.5173 102.654 62.5361C102.791 62.6918 102.947 62.5544 103.084 62.7095L127.175 67.4459C130.806 68.1133 131.675 70.6648 131.721 72.2835C125.182 75.8419 111.381 78.0651 108.435 78.1759C62.7606 80.3186 38.9247 76.1863 23.623 74.2035C23.8971 69.8133 25.799 58.179 27.4899 47.5606L27.4895 47.5595ZM114.884 85.483C99.5101 89.3712 57.7937 91.615 23.9256 85.8276C20.7243 85.3341 21.1357 81.0996 22.4895 78.2456C35.8982 79.9641 60.7307 84.5994 108.454 82.5833C111.692 82.4918 122.082 80.7897 128.996 78.2825C125.246 81.8684 118.021 84.649 114.884 85.4822L114.884 85.483Z" fill="#313131"/>
<path d="M127.706 63.6578L128.186 63.5177L128.101 63.2268L127.803 63.1674L127.706 63.6578ZM105.214 59.1684L105.312 58.6779L105.3 58.6758L105.214 59.1684ZM103.906 58.9401L103.778 59.4233L103.799 59.4289L103.82 59.4327L103.906 58.9401ZM97.7512 56.3523L97.4204 55.9774L96.8318 56.4968L97.5513 56.8106L97.7512 56.3523ZM98.062 56.078L98.3928 56.4529L98.43 56.4201L98.46 56.3806L98.062 56.078ZM97.504 53.2517L97.2014 53.6497L97.2379 53.6775L97.2788 53.6981L97.504 53.2517ZM94.6778 53.8097L95.0658 54.125L95.0998 54.0831L95.1242 54.0349L94.6778 53.8097ZM93.8823 54.7885L93.695 55.2521L94.0374 55.3905L94.2703 55.1039L93.8823 54.7885ZM88.742 52.4106L88.3095 52.1597L88.0333 52.6358L88.5337 52.8651L88.742 52.4106ZM89.0711 51.8433L88.6731 51.5407L88.6542 51.5655L88.6386 51.5924L89.0711 51.8433ZM88.5131 49.0171L88.2105 49.4151L88.247 49.4428L88.2879 49.4635L88.5131 49.0171ZM85.6869 49.575L86.1192 49.8261L86.1266 49.8134L86.1333 49.8003L85.6869 49.575ZM85.0283 50.709L84.7934 51.1504L85.2187 51.3767L85.4606 50.9601L85.0283 50.709ZM80.1988 48.0568L79.7868 47.7734L79.4693 48.235L79.9639 48.4982L80.1988 48.0568ZM80.6835 47.3522L80.2855 47.0496L80.2783 47.059L80.2716 47.0688L80.6835 47.3522ZM80.1256 44.5259L79.8229 44.9239L79.8594 44.9517L79.9003 44.9723L80.1256 44.5259ZM77.2993 45.0839L77.6973 45.3865L77.725 45.35L77.7457 45.3091L77.2993 45.0839ZM76.6595 45.9254L76.2846 46.2562L76.6882 46.7136L77.0575 46.228L76.6595 45.9254ZM76.0922 45.5963L76.4671 45.2655L76.4134 45.2047L76.3433 45.1639L76.0922 45.5963ZM73.1378 43.5024L72.7629 43.8332L72.7903 43.8643L72.8225 43.8904L73.1378 43.5024ZM72.0404 42.2588L71.6109 42.5149L71.6347 42.5548L71.6655 42.5896L72.0404 42.2588ZM64.6591 35.7749L64.628 36.2739L64.6399 36.2747L64.6518 36.2748L64.6591 35.7749ZM59.62 43.5405L59.1367 43.6687L59.1391 43.6777L59.1418 43.6865L59.62 43.5405ZM60.3519 45.9364L59.8737 46.0824L59.9053 46.186L59.977 46.2672L60.3519 45.9364ZM60.1785 46.3663L60.4281 46.7995L60.4716 46.7744L60.5093 46.7412L60.1785 46.3663ZM41.9686 53.3099L41.9125 52.813L41.9083 52.8135L41.9686 53.3099ZM35.6117 49.2407L35.1758 49.4856L35.1793 49.4916L35.6117 49.2407ZM27.4533 43.4426L27.3519 43.9323L27.361 43.9341L27.3701 43.9357L27.4533 43.4426ZM23.1547 46.4064L22.6595 46.3371L22.6585 46.3443L22.6577 46.3516L23.1547 46.4064ZM19.2975 75.2549L19.7299 75.5059L19.7934 75.3964L19.7972 75.2698L19.2975 75.2549ZM23.2405 89.7508L23.3285 89.2586L23.3265 89.2583L23.2405 89.7508ZM115.955 89.5159L116.075 90.0012L116.082 89.9995L116.089 89.9976L115.955 89.5159ZM135.591 73.8468L135.098 73.7662L135.094 73.7863L135.093 73.8065L135.591 73.8468ZM127.706 63.6585L127.226 63.7986L127.31 64.0871L127.604 64.1481L127.706 63.6585ZM27.4895 47.5595L27.5909 47.0699L26.6451 46.874L27.0311 47.7594L27.4895 47.5595ZM32.2641 51.0898L32.6967 50.8388L32.6921 50.8313L32.2641 51.0898ZM42.4534 57.3087L42.4723 56.8091L42.4353 56.8077L42.3986 56.8117L42.4534 57.3087ZM62.4555 49.8899L62.6972 50.3278L62.7065 50.3224L62.4555 49.8899ZM64.5405 44.7314L64.0623 44.8774L64.0635 44.8814L64.5405 44.7314ZM63.8086 42.3355L63.3253 42.4637L63.3277 42.4727L63.3304 42.4815L63.8086 42.3355ZM68.6741 44.4021L68.2334 44.6383L68.2374 44.6456L68.2416 44.6529L68.6741 44.4021ZM70.7322 46.7342L71.0475 46.3462L71.0412 46.3411L71.0348 46.3362L70.7322 46.7342ZM73.8239 48.9838L74.1988 48.653L74.1714 48.6219L74.1392 48.5958L73.8239 48.9838ZM74.2538 49.1572L74.6657 49.4407L75.1674 48.7117L74.2841 48.6581L74.2538 49.1572ZM71.8304 52.6783L72.2284 52.9809L72.2355 52.9715L72.2422 52.9618L71.8304 52.6783ZM72.3883 55.5046L72.6909 55.1065L72.6545 55.0788L72.6136 55.0582L72.3883 55.5046ZM75.2146 54.9466L74.8059 54.6585L74.7847 54.6886L74.7682 54.7214L75.2146 54.9466ZM77.7937 51.2882L78.0285 50.8467L77.6391 50.6396L77.385 51.0001L77.7937 51.2882ZM82.6232 53.9404L83.0242 54.239L83.3718 53.7724L82.8581 53.499L82.6232 53.9404ZM80.218 57.1695L80.616 57.4721L80.6189 57.4681L80.218 57.1695ZM80.7759 59.9957L81.0785 59.5977L81.0421 59.57L81.0012 59.5493L80.7759 59.9957ZM83.6022 59.4378L83.1935 59.1497L83.1723 59.1797L83.1558 59.2125L83.6022 59.4378ZM86.1813 55.7793L86.3894 55.3247L86.0119 55.1518L85.7726 55.4912L86.1813 55.7793ZM91.3215 58.1573L91.7406 58.4301L92.0717 57.9214L91.509 57.6938L91.3215 58.1573ZM89.209 61.4021L89.607 61.7048L89.6181 61.6902L89.628 61.6749L89.209 61.4021ZM89.7669 64.2284L90.0696 63.8304L90.0331 63.8027L89.9922 63.782L89.7669 64.2284ZM92.5932 63.6705L92.1784 63.3912L92.1609 63.4172L92.1468 63.4452L92.5932 63.6705ZM95.3457 59.5821L95.5429 59.1226L95.1623 58.9593L94.931 59.3029L95.3457 59.5821ZM102.654 62.5361L103.029 62.2053L102.892 62.0504L102.686 62.0371L102.654 62.5361ZM103.084 62.7095L102.709 63.0403L102.821 63.1674L102.987 63.2001L103.084 62.7095ZM127.175 67.4459L127.079 67.9365L127.085 67.9377L127.175 67.4459ZM131.721 72.2835L131.96 72.7227L132.23 72.576L132.221 72.2693L131.721 72.2835ZM108.435 78.1759L108.416 77.6762L108.412 77.6764L108.435 78.1759ZM23.623 74.2035L23.124 74.1723L23.0949 74.6392L23.5588 74.6994L23.623 74.2035ZM27.4899 47.5606L27.9837 47.6392L28.0067 47.4948L27.9482 47.3607L27.4899 47.5606ZM114.884 85.483L115.007 85.9677L115.494 85.8445L115.368 85.3577L114.884 85.483ZM23.9256 85.8276L24.0099 85.3347L24.0018 85.3334L23.9256 85.8276ZM22.4895 78.2456L22.5531 77.7496L22.1932 77.7035L22.0377 78.0313L22.4895 78.2456ZM108.454 82.5833L108.44 82.0834L108.433 82.0837L108.454 82.5833ZM128.996 78.2825L129.342 78.6439L128.825 77.8125L128.996 78.2825ZM114.884 85.4822L114.756 84.999L114.275 85.1265L114.4 85.6075L114.884 85.4822ZM127.803 63.1674L105.312 58.678L105.116 59.6587L127.608 64.1481L127.803 63.1674ZM105.3 58.6758L103.992 58.4476L103.82 59.4327L105.128 59.6609L105.3 58.6758ZM104.035 58.4569C103.717 58.3723 103.003 58.0862 101.934 57.6289C100.881 57.1784 99.5271 56.5813 97.9511 55.8939L97.5513 56.8106C99.1213 57.4952 100.484 58.096 101.541 58.5483C102.583 58.9939 103.374 59.3158 103.778 59.4233L104.035 58.4569ZM98.082 56.7271L98.3928 56.4529L97.7311 55.7031L97.4204 55.9774L98.082 56.7271ZM98.46 56.3806C98.8776 55.8314 99.0041 55.1037 98.8891 54.4511C98.7736 53.7954 98.3997 53.1437 97.7293 52.8054L97.2788 53.6981C97.605 53.8628 97.83 54.2034 97.9043 54.6247C97.9791 55.0491 97.8862 55.4831 97.664 55.7754L98.46 56.3806ZM97.8067 52.8537C97.2575 52.4361 96.5297 52.3096 95.8772 52.4246C95.2214 52.5402 94.5697 52.9141 94.2314 53.5844L95.1242 54.0349C95.2888 53.7087 95.6294 53.4837 96.0507 53.4095C96.4752 53.3347 96.9091 53.4275 97.2014 53.6497L97.8067 52.8537ZM94.2897 53.4943L93.4943 54.4732L94.2703 55.1039L95.0658 54.125L94.2897 53.4943ZM94.0696 54.325C92.3604 53.6345 90.8448 52.8243 88.9503 51.9561L88.5337 52.8651C90.352 53.6985 91.9651 54.5533 93.695 55.2521L94.0696 54.325ZM89.1745 52.6615L89.5036 52.0942L88.6386 51.5924L88.3095 52.1597L89.1745 52.6615ZM89.4691 52.146C89.8867 51.5968 90.0132 50.869 89.8982 50.2165C89.7827 49.5607 89.4088 48.909 88.7384 48.5707L88.2879 49.4635C88.6141 49.6281 88.8391 49.9687 88.9134 50.39C88.9882 50.8145 88.8953 51.2484 88.6731 51.5407L89.4691 52.146ZM88.8158 48.6191C88.2666 48.2015 87.5388 48.075 86.8863 48.19C86.2305 48.3055 85.5788 48.6794 85.2405 49.3498L86.1333 49.8003C86.2979 49.474 86.6385 49.249 87.0598 49.1748C87.4843 49.1 87.9182 49.1928 88.2105 49.4151L88.8158 48.6191ZM85.2545 49.3239L84.5959 50.4579L85.4606 50.9601L86.1192 49.8261L85.2545 49.3239ZM85.2631 50.2676C84.4863 49.8543 83.6743 49.4018 82.8571 48.9464C82.0417 48.4919 81.2209 48.0344 80.4337 47.6154L79.9639 48.4982C80.741 48.9118 81.5531 49.3644 82.3703 49.8199C83.1858 50.2743 84.0064 50.7317 84.7934 51.1504L85.2631 50.2676ZM80.6107 48.3402L81.0954 47.6356L80.2716 47.0688L79.7868 47.7734L80.6107 48.3402ZM81.0815 47.6548C81.4991 47.1056 81.6256 46.3779 81.5106 45.7253C81.3951 45.0696 81.0212 44.4178 80.3508 44.0795L79.9003 44.9723C80.2266 45.1369 80.4516 45.4776 80.5258 45.8989C80.6006 46.3233 80.5077 46.7572 80.2855 47.0496L81.0815 47.6548ZM80.4282 44.1279C79.879 43.7103 79.1513 43.5838 78.4987 43.6988C77.843 43.8143 77.1912 44.1882 76.8529 44.8586L77.7457 45.3091C77.9103 44.9828 78.2509 44.7579 78.6722 44.6836C79.0967 44.6088 79.5306 44.7017 79.8229 44.9239L80.4282 44.1279ZM76.9013 44.7812L76.2614 45.6227L77.0575 46.228L77.6973 45.3865L76.9013 44.7812ZM77.0343 45.5945C76.9458 45.4942 76.8451 45.4303 76.7669 45.3887C76.6906 45.3481 76.6117 45.3168 76.5629 45.2971C76.5042 45.2735 76.4757 45.2614 76.4541 45.25C76.4346 45.2396 76.4472 45.2429 76.4671 45.2655L75.7173 45.9271C75.8059 46.0275 75.9065 46.0914 75.9848 46.133C76.061 46.1735 76.14 46.2048 76.1888 46.2245C76.2474 46.2482 76.276 46.2602 76.2975 46.2717C76.317 46.282 76.3044 46.2787 76.2846 46.2562L77.0343 45.5945ZM76.3433 45.1639C75.2419 44.5242 74.4234 43.9029 73.4532 43.1144L72.8225 43.8904C73.81 44.6929 74.6745 45.3512 75.8411 46.0287L76.3433 45.1639ZM73.5127 43.1716L72.4152 41.9279L71.6655 42.5896L72.7629 43.8332L73.5127 43.1716ZM72.4698 42.0027C71.5988 40.5421 70.4992 38.8908 69.2118 37.5943C67.9317 36.305 66.4003 35.3004 64.6665 35.2749L64.6518 36.2748C65.9997 36.2947 67.2944 37.0824 68.5022 38.2988C69.7028 39.5081 70.7529 41.0761 71.6109 42.5149L72.4698 42.0027ZM64.6903 35.2759C62.8591 35.1616 61.1793 36.2222 60.1171 37.7893C59.0501 39.3635 58.562 41.5031 59.1367 43.6687L60.1033 43.4122C59.6076 41.5444 60.0295 39.7008 60.9449 38.3503C61.8651 36.9927 63.24 36.1873 64.628 36.2739L64.6903 35.2759ZM59.1418 43.6865L59.8737 46.0824L60.8301 45.7903L60.0982 43.3944L59.1418 43.6865ZM59.977 46.2672C59.9541 46.2413 59.9115 46.1774 59.9055 46.0811C59.8999 45.9901 59.9306 45.9278 59.9424 45.9075C59.9526 45.8898 59.9565 45.8898 59.9352 45.9112C59.9149 45.9318 59.8891 45.9548 59.8476 45.9914L60.5093 46.7412C60.5656 46.6915 60.7166 46.5657 60.8074 46.4092C60.8603 46.318 60.9139 46.1836 60.9036 46.0189C60.893 45.8487 60.8183 45.7093 60.7268 45.6055L59.977 46.2672ZM59.9289 45.933C54.0819 49.3013 50.1935 50.9478 47.4691 51.7888C44.7531 52.6272 43.189 52.669 41.9125 52.813L42.0247 53.8067C43.264 53.6669 44.9377 53.6168 47.7641 52.7443C50.5821 51.8744 54.5407 50.191 60.4281 46.7995L59.9289 45.933ZM41.9083 52.8135C40.0495 53.0393 38.869 52.5216 38.0211 51.7691C37.1391 50.9862 36.5933 49.9362 36.0442 48.9897L35.1793 49.4916C35.6911 50.3738 36.3254 51.601 37.3573 52.517C38.4234 53.4632 39.8908 54.0659 42.0289 53.8062L41.9083 52.8135ZM36.0476 48.9957C35.3292 47.7171 34.6307 46.4192 33.3858 45.3427C32.1299 44.2566 30.3597 43.4263 27.5366 42.9496L27.3701 43.9357C30.0711 44.3917 31.653 45.1663 32.7317 46.0991C33.8214 47.0414 34.44 48.1761 35.1758 49.4856L36.0476 48.9957ZM27.5547 42.953C25.2399 42.4737 22.9647 44.1591 22.6595 46.3371L23.6498 46.4758C23.8753 44.867 25.6061 43.5708 27.3519 43.9323L27.5547 42.953ZM22.6577 46.3516C22.3209 49.404 21.3931 55.4638 20.5289 61.3513C19.6686 67.2119 18.8669 72.9298 18.7977 75.2399L19.7972 75.2698C19.8642 73.0336 20.653 67.3915 21.5183 61.4966C22.3796 55.6286 23.3122 49.5373 23.6517 46.4613L22.6577 46.3516ZM18.865 75.0038C16.6701 78.7848 16.3059 82.3298 17.2281 85.0835C18.1517 87.8416 20.3535 89.7541 23.1545 90.2434L23.3265 89.2583C20.8959 88.8337 18.9862 87.1844 18.1763 84.766C17.365 82.3432 17.6451 79.0972 19.7299 75.5059L18.865 75.0038ZM23.1525 90.243C39.6123 93.1851 58.7967 94.1239 75.8765 93.8297C92.9484 93.5356 107.963 92.0089 116.075 90.0012L115.835 89.0305C107.832 91.0109 92.9071 92.5362 75.8593 92.8298C58.8195 93.1234 39.7041 92.1856 23.3285 89.2586L23.1525 90.243ZM116.089 89.9976C120.012 88.9079 124.814 86.981 128.727 84.2991C132.625 81.628 135.746 78.1345 136.089 73.887L135.093 73.8065C134.786 77.5989 131.976 80.8604 128.162 83.4742C124.364 86.077 119.672 87.9648 115.821 89.0341L116.089 89.9976ZM136.085 73.9273C136.339 72.3706 136.13 70.074 134.926 67.9662C133.71 65.839 131.497 63.9333 127.807 63.1689L127.604 64.1481C131.021 64.8559 132.988 66.5904 134.057 68.4623C135.138 70.3537 135.318 72.4151 135.098 73.7662L136.085 73.9273ZM128.186 63.5184L128.186 63.5177L127.226 63.7978L127.226 63.7986L128.186 63.5184ZM27.388 48.0491C28.874 48.3569 29.6758 48.7205 30.2483 49.2002C30.8349 49.6916 31.2247 50.3359 31.8362 51.3482L32.6921 50.8313C32.1048 49.8588 31.6302 49.0534 30.8905 48.4336C30.1368 47.8021 29.1506 47.393 27.5909 47.0699L27.388 48.0491ZM31.8317 51.3407C32.3419 52.22 33.2325 54.0512 34.8689 55.5367C36.5313 57.0459 38.9533 58.1977 42.5082 57.8057L42.3986 56.8117C39.1486 57.1701 37.0067 56.1269 35.5411 54.7963C34.0494 53.4421 33.2478 51.7887 32.6966 50.8388L31.8317 51.3407ZM42.4344 57.8083C45.556 57.9268 49.388 56.7256 53.0202 55.1845C56.6684 53.6365 60.187 51.7133 62.6972 50.3277L62.2139 49.4522C59.703 50.8382 56.225 52.7384 52.6296 54.2639C49.0181 55.7963 45.3595 56.9186 42.4723 56.8091L42.4344 57.8083ZM62.7065 50.3224C64.7276 49.1496 65.7039 46.764 65.0174 44.5814L64.0635 44.8814C64.6025 46.5952 63.8418 48.5074 62.2046 49.4575L62.7065 50.3224ZM65.0187 44.5853L64.2868 42.1894L63.3304 42.4815L64.0623 44.8774L65.0187 44.5853ZM64.2919 42.2072C64.1415 41.6407 64.2103 41.1363 64.3578 40.795C64.4321 40.6231 64.5191 40.5087 64.5907 40.4455C64.6643 40.3805 64.6902 40.3942 64.6642 40.3926L64.7266 39.3945C64.4081 39.3746 64.1323 39.5164 63.929 39.6958C63.7237 39.8769 63.5587 40.1232 63.4398 40.3983C63.201 40.951 63.1189 41.6858 63.3253 42.4637L64.2919 42.2072ZM64.6642 40.3926C64.6609 40.3924 64.6933 40.395 64.7688 40.4271C64.8404 40.4575 64.9343 40.5073 65.0491 40.5826C65.2789 40.7334 65.5702 40.9715 65.9054 41.3142C66.5748 41.9985 67.3966 43.0765 68.2334 44.6383L69.1149 44.166C68.2415 42.5359 67.3664 41.3778 66.6203 40.615C66.2477 40.2341 65.9015 39.9458 65.5976 39.7465C65.3113 39.5586 65.0062 39.412 64.7266 39.3945L64.6642 40.3926ZM68.2416 44.6529C68.8049 45.6246 69.5354 46.4524 70.4296 47.1322L71.0348 46.3362C70.2459 45.7364 69.6038 45.0087 69.1067 44.1513L68.2416 44.6529ZM70.4168 47.1223C70.9244 47.5347 71.4693 47.9094 71.9946 48.2709C72.5257 48.6364 73.0372 48.9888 73.5086 49.3718L74.1392 48.5958C73.6317 48.1833 73.0868 47.8086 72.5615 47.4471C72.0303 47.0816 71.5188 46.7292 71.0475 46.3462L70.4168 47.1223ZM73.449 49.3146C73.4925 49.3639 73.6074 49.5108 73.7936 49.5859C73.8817 49.6214 73.965 49.6344 74.026 49.6413C74.0854 49.6481 74.1557 49.6522 74.2235 49.6563L74.2841 48.6581C74.2468 48.6559 74.2176 48.6541 74.1923 48.6523C74.1671 48.6505 74.1506 48.649 74.1391 48.6477C74.1135 48.6448 74.1334 48.6446 74.1677 48.6585C74.1865 48.6661 74.2046 48.6757 74.2208 48.6866C74.2361 48.6968 74.2455 48.7052 74.248 48.7075C74.2498 48.7092 74.2474 48.7072 74.238 48.6969C74.2284 48.6864 74.2169 48.6735 74.1988 48.653L73.449 49.3146ZM73.8419 48.8737L71.4185 52.3948L72.2422 52.9618L74.6657 49.4407L73.8419 48.8737ZM71.4323 52.3757C71.0148 52.9249 70.8883 53.6526 71.0032 54.3052C71.1188 54.9609 71.4927 55.6127 72.163 55.9509L72.6136 55.0582C72.2873 54.8935 72.0623 54.5529 71.9881 54.1316C71.9133 53.7072 72.0061 53.2732 72.2284 52.9809L71.4323 52.3757ZM72.0857 55.9026C72.6349 56.3202 73.3626 56.4467 74.0152 56.3317C74.6709 56.2161 75.3227 55.8422 75.661 55.1719L74.7682 54.7214C74.6035 55.0476 74.2629 55.2726 73.8416 55.3469C73.4172 55.4216 72.9832 55.3288 72.6909 55.1065L72.0857 55.9026ZM75.6232 55.2347L78.2023 51.5763L77.385 51.0001L74.8059 54.6585L75.6232 55.2347ZM77.5588 51.7296C78.3357 52.1429 79.1476 52.5953 79.9648 53.0508C80.7803 53.5053 81.601 53.9628 82.3883 54.3818L82.8581 53.499C82.0809 53.0854 81.2689 52.6328 80.4517 52.1773C79.6362 51.7228 78.8155 51.2655 78.0285 50.8467L77.5588 51.7296ZM82.2222 53.6417L79.817 56.8708L80.6189 57.4681L83.0242 54.239L82.2222 53.6417ZM79.8199 56.8668C79.4024 57.416 79.2759 58.1438 79.3908 58.7963C79.5064 59.452 79.8803 60.1038 80.5506 60.4421L81.0012 59.5493C80.6749 59.3847 80.4499 59.0441 80.3757 58.6228C80.3009 58.1983 80.3937 57.7644 80.616 57.4721L79.8199 56.8668ZM80.4733 60.3937C81.0225 60.8113 81.7502 60.9378 82.4027 60.8228C83.0585 60.7073 83.7102 60.3334 84.0485 59.663L83.1558 59.2125C82.9911 59.5388 82.6505 59.7638 82.2292 59.838C81.8048 59.9128 81.3708 59.82 81.0785 59.5977L80.4733 60.3937ZM84.0108 59.7259L86.5899 56.0674L85.7726 55.4912L83.1935 59.1497L84.0108 59.7259ZM85.9731 56.2339C87.7916 57.0667 89.4047 57.9211 91.134 58.6208L91.509 57.6938C89.7994 57.0021 88.2847 56.1926 86.3894 55.3247L85.9731 56.2339ZM90.9025 57.8845L88.79 61.1293L89.628 61.6749L91.7406 58.4301L90.9025 57.8845ZM88.811 61.0995C88.3934 61.6487 88.2669 62.3764 88.3819 63.029C88.4974 63.6847 88.8713 64.3365 89.5417 64.6748L89.9922 63.782C89.6659 63.6174 89.4409 63.2768 89.3667 62.8555C89.2919 62.431 89.3848 61.9971 89.607 61.7048L88.811 61.0995ZM89.4643 64.6264C90.0135 65.044 90.7412 65.1705 91.3938 65.0555C92.0495 64.94 92.7013 64.5661 93.0396 63.8957L92.1468 63.4452C91.9822 63.7715 91.6416 63.9965 91.2203 64.0707C90.7958 64.1455 90.3619 64.0526 90.0696 63.8304L89.4643 64.6264ZM93.008 63.9497L95.7605 59.8613L94.931 59.3029L92.1784 63.3912L93.008 63.9497ZM95.1485 60.0416C97.1536 60.9021 98.911 61.6374 100.205 62.1604C100.852 62.4217 101.385 62.6312 101.777 62.7771C101.973 62.8498 102.138 62.9083 102.265 62.9498C102.329 62.9705 102.388 62.9884 102.439 63.002C102.481 63.0131 102.551 63.0305 102.622 63.0351L102.686 62.0371C102.72 62.0393 102.732 62.0451 102.695 62.0354C102.669 62.0283 102.629 62.0165 102.575 61.9988C102.466 61.9635 102.316 61.9105 102.126 61.8398C101.747 61.6987 101.223 61.4932 100.58 61.2333C99.2945 60.7138 97.5441 59.9815 95.5429 59.1226L95.1485 60.0416ZM102.279 62.8669C102.374 62.9752 102.488 63.0454 102.608 63.0836C102.713 63.1167 102.811 63.1204 102.838 63.1221C102.884 63.1249 102.859 63.1258 102.827 63.1156C102.779 63.1003 102.736 63.0712 102.709 63.0403L103.458 62.3787C103.363 62.2702 103.249 62.2002 103.129 62.1621C103.025 62.1292 102.927 62.1256 102.9 62.124C102.854 62.1211 102.879 62.1203 102.911 62.1305C102.959 62.1459 103.002 62.1748 103.029 62.2053L102.279 62.8669ZM102.987 63.2001L127.079 67.9365L127.272 66.9553L103.18 62.2189L102.987 63.2001ZM127.085 67.9377C128.786 68.2504 129.794 68.9921 130.389 69.8035C130.992 70.6262 131.2 71.5632 131.221 72.2977L132.221 72.2693C132.196 71.3852 131.947 70.237 131.196 69.2124C130.437 68.1766 129.195 67.3087 127.266 66.9541L127.085 67.9377ZM131.482 71.8443C128.279 73.5872 123.254 75.0209 118.624 76.0341C113.997 77.0466 109.845 77.6226 108.416 77.6762L108.454 78.6755C109.972 78.6185 114.193 78.0274 118.838 77.011C123.479 75.9953 128.624 74.5382 131.96 72.7227L131.482 71.8443ZM108.412 77.6764C62.7846 79.8169 38.9863 75.6901 23.6873 73.7076L23.5588 74.6994C38.8631 76.6825 62.7366 80.8203 108.459 78.6753L108.412 77.6764ZM24.1221 74.2347C24.3942 69.8758 26.2895 58.2786 27.9837 47.6392L26.9961 47.4819C25.3086 58.0794 23.4 69.7509 23.124 74.1723L24.1221 74.2347ZM27.9482 47.3607L27.9478 47.3597L27.0311 47.7594L27.0316 47.7604L27.9482 47.3607ZM114.762 84.9983C107.13 86.9284 92.902 88.4605 76.3304 88.7837C59.7674 89.1069 40.9043 88.2217 24.0099 85.3347L23.8414 86.3204C40.8151 89.2209 59.7442 90.1075 76.3499 89.7836C92.9471 89.4598 107.264 87.9258 115.007 85.9677L114.762 84.9983ZM24.0018 85.3334C23.3199 85.2283 22.8642 84.9337 22.5576 84.5324C22.2423 84.1199 22.0563 83.5561 21.9975 82.8786C21.8793 81.5155 22.2896 79.8336 22.9412 78.4599L22.0377 78.0313C21.3356 79.5115 20.8633 81.3738 21.0013 82.965C21.0706 83.7645 21.2974 84.5302 21.763 85.1396C22.2374 85.7604 22.9307 86.1801 23.8495 86.3217L24.0018 85.3334ZM22.4259 78.7415C35.8316 80.4596 60.7037 85.101 108.475 83.0828L108.433 82.0837C60.7577 84.0978 35.9647 79.4685 22.5531 77.7496L22.4259 78.7415ZM108.468 83.0831C110.129 83.0361 113.569 82.5812 117.441 81.8296C121.32 81.0768 125.675 80.0187 129.166 78.7526L128.825 77.8125C125.403 79.0535 121.105 80.1 117.251 80.8479C113.391 81.5971 110.016 82.0389 108.44 82.0835L108.468 83.0831ZM128.65 77.9212C126.834 79.6584 124.147 81.2226 121.498 82.4617C118.855 83.698 116.293 84.5908 114.756 84.999L115.012 85.9655C116.612 85.5405 119.231 84.6263 121.922 83.3675C124.607 82.1116 127.408 80.4925 129.342 78.6439L128.65 77.9212ZM114.4 85.6075L114.4 85.6083L115.368 85.3577L115.368 85.3569L114.4 85.6075Z" fill="white" mask="url(#path-1-inside-1_1486_31809)"/>
<path d="M37.5991 66.5085L37.6067 66.5095L37.6144 66.5099C38.6021 66.5716 39.213 67.4763 39.1455 68.5587C39.0839 69.5442 38.1833 70.1545 37.1042 70.0902L29.9795 69.2058C29.5393 69.112 29.0984 68.8247 28.7914 68.4415C28.4818 68.0551 28.3323 67.6031 28.4181 67.1896L28.4217 67.1721L28.4228 67.1544C28.4843 66.1689 29.385 65.5585 30.4641 65.6228L37.5991 66.5085Z" fill="#313131" stroke="white" stroke-width="0.5"/>
</svg>
