<?xml version="1.0" encoding="utf-8"?>
<!-- Generator: Adobe Illustrator 26.3.1, SVG Export Plug-In . SVG Version: 6.00 Build 0)  -->
<svg version="1.1" id="Layer_1" xmlns="http://www.w3.org/2000/svg" xmlns:xlink="http://www.w3.org/1999/xlink" x="0px" y="0px"
	 viewBox="0 0 94.2 48.5" style="enable-background:new 0 0 94.2 48.5;" xml:space="preserve">
<style type="text/css">
	.st0{fill:#A3B5FF;}
</style>
<g>
	<path class="st0" d="M87.8,23.4l-17.9-3.8l-1-0.2c-0.6-0.2-2.4-1-4.9-2.2l0.2-0.2c0.5-0.7,0.3-2-0.4-2.4c-0.7-0.5-1.8-0.4-2.2,0.5
		L60.9,16c-1.4-0.6-2.6-1.3-4.1-2l0.3-0.5c0.5-0.7,0.3-2-0.4-2.4c-0.7-0.5-1.8-0.4-2.2,0.5l-0.5,1c-1.2-0.7-2.6-1.5-3.8-2.2l0.4-0.6
		C51,9,50.8,7.8,50,7.4c-0.7-0.5-1.8-0.4-2.2,0.5l-0.5,0.7c-0.1-0.1-0.3-0.1-0.5-0.3c-0.9-0.6-1.6-1.1-2.3-1.8l-0.9-1
		C42.2,3,40.2,0,37.7,0c-2.6-0.2-4.8,3.1-4,6.5l0.6,2c0.1,0.1,0,0.2-0.1,0.4c-9.3,5.7-12.5,5.6-14.5,5.8c-3.2,0.4-4.2-1.9-5-3.4
		c-1.2-2.2-2.1-4.1-6.5-4.9C6.6,6.1,5,7.3,4.8,8.9c-0.5,5.1-3,20.4-3.1,24.2c-3.4,6.2-1,11.4,3.1,12.2c26.1,4.9,60.8,3.2,73.6-0.2
		C84.6,43.3,93.5,38.7,94,32C94.4,29.5,93.4,24.7,87.8,23.4L87.8,23.4z M8.2,9.9c2.4,0.5,2.8,1.3,3.8,3c0.8,1.5,2.7,5.9,8.1,5.2
		c4.8,0.2,11.9-3.9,15.9-6.2c1.5-0.9,2.1-2.7,1.7-4.3l-0.6-2c-0.3-1.1,0.2-2.1,0.7-2.1c0.5,0,1.8,1.1,3.2,3.8c0.4,0.8,1,1.4,1.6,2
		c0.8,0.7,1.7,1.2,2.5,1.9c0.1,0.1,0.1,0.1,0.3,0.1l-1.9,3c-0.5,0.7-0.3,2,0.4,2.4c0.7,0.5,1.8,0.4,2.2-0.5l2-3.1
		c1.2,0.7,2.6,1.5,3.8,2.2L50.1,18c-0.5,0.7-0.3,2,0.4,2.4c0.7,0.5,1.8,0.4,2.2-0.5l2-3.1c1.5,0.7,2.7,1.4,4.1,2l-1.7,2.7
		c-0.5,0.7-0.3,2,0.4,2.4c0.7,0.5,1.8,0.4,2.2-0.5l2.2-3.4c3.2,1.4,5.6,2.5,5.8,2.5c0.1,0.1,0.2,0,0.3,0.1l19.1,4
		c2.9,0.6,3.6,2.7,3.6,4.1c-5.2,3-16.1,4.9-18.5,4.9c-36.3,1.8-55.2-1.7-67.3-3.3C5.4,28.6,6.9,18.8,8.2,9.9L8.2,9.9z M77.6,41.7
		C65.4,45,32.3,46.9,5.4,42c-2.5-0.4-2.2-4-1.1-6.4c10.6,1.4,30.4,5.3,68.2,3.6c2.6-0.1,10.8-1.5,16.3-3.6
		C85.8,38.7,80.1,41,77.6,41.7L77.6,41.7z"/>
	<path class="st0" d="M10.2,28.3l5.7,0.7c0.9,0.1,1.8-0.5,1.8-1.5c0.1-1-0.5-1.9-1.4-1.9l-5.7-0.7c-0.9-0.1-1.8,0.5-1.8,1.5
		C8.6,27.2,9.4,28.1,10.2,28.3z"/>
</g>
</svg>
