<svg width="78" height="78" viewBox="0 0 78 78" fill="none" xmlns="http://www.w3.org/2000/svg">
<path d="M46.5865 32.097V32.197H46.6865H50.577H50.677V32.097C50.677 29.3 49.3168 27.2633 47.4109 25.8568C45.533 24.4709 43.1233 23.6945 40.9509 23.3943V19.4531V19.3531H40.8509H36.9604H36.8604V19.4531V23.3943C34.688 23.6945 32.2784 24.4709 30.4004 25.8568C28.4945 27.2633 27.1344 29.3 27.1344 32.097C27.1344 34.7666 28.4511 36.794 30.3343 38.2279C32.1915 39.642 34.6025 40.482 36.8604 40.8014V50.2626C35.4982 50.0132 34.1043 49.5258 33.0436 48.7864C31.9535 48.0265 31.2248 47.0085 31.2248 45.7135V45.6135H31.1248H27.2344H27.1344V45.7135C27.1344 48.2668 28.3315 50.2969 30.1564 51.7633C31.9582 53.211 34.3728 54.1106 36.8604 54.4307V58.3574V58.4574H36.9604H40.8509H40.9509V58.3574V54.4182C43.1233 54.118 45.533 53.3411 47.4109 51.9547C49.3168 50.5477 50.677 48.5106 50.677 45.7135C50.677 42.9165 49.3168 40.8798 47.4109 39.4733C45.533 38.0874 43.1233 37.311 40.9509 37.0108V27.5486C42.2067 27.7859 43.5976 28.2348 44.6835 28.9561C45.8021 29.6991 46.5865 30.7228 46.5865 32.097ZM31.2248 32.097C31.2248 30.7228 32.0092 29.6991 33.1278 28.9561C34.2137 28.2348 35.6046 27.7859 36.8604 27.5486V36.6429C35.5682 36.3918 34.1762 35.9148 33.0988 35.1821C31.9892 34.4275 31.2248 33.4109 31.2248 32.097ZM46.5865 45.7135C46.5865 47.0877 45.8021 48.1114 44.6835 48.8544C43.5976 49.5758 42.2067 50.0246 40.9509 50.2619V41.1651C42.2067 41.4024 43.5976 41.8513 44.6835 42.5726C45.8021 43.3156 46.5865 44.3393 46.5865 45.7135Z" fill="#A3B5FF" stroke="#A3B5FF" stroke-width="0.2"/>
<circle cx="38.9043" cy="38.9043" r="36.9043" stroke="#41595F" stroke-width="4"/>
</svg>
