<svg width="129" height="79" viewBox="0 0 129 79" fill="none" xmlns="http://www.w3.org/2000/svg">
<path d="M63.9492 44.5671V50.2805M43 35.0447V63.6119H84.8984V35.0447H43ZM50.6179 35.0447C50.6179 23.6179 50.6179 16 63.9492 16C77.2805 16 77.2805 23.6179 77.2805 35.0447H50.6179Z" stroke="#A3B5FF" stroke-width="3" stroke-linecap="round" stroke-linejoin="round"/>
<path d="M63.9443 54.0902C64.9961 54.0902 65.8487 53.2375 65.8487 52.1857C65.8487 51.1339 64.9961 50.2812 63.9443 50.2812C62.8925 50.2812 62.0398 51.1339 62.0398 52.1857C62.0398 53.2375 62.8925 54.0902 63.9443 54.0902Z" stroke="#A3B5FF" stroke-width="3" stroke-linecap="round" stroke-linejoin="round"/>
<path d="M22.8156 76H98.4449C139.492 76 132.626 14.2288 91.456 27.926C91.456 -6.37524 29.6847 -6.37524 29.6847 34.795C-4.65443 27.926 -4.65443 75.9968 22.8156 75.9968V76Z" stroke="#41595F" stroke-width="5" stroke-linecap="round" stroke-linejoin="round"/>
</svg>
