<svg width="132" height="112" viewBox="0 0 132 112" fill="none" xmlns="http://www.w3.org/2000/svg">
<path d="M130.5 110.5H2.5V41.9623L66.7036 16.6134L130.5 41.96V110.5Z" stroke="#7C7C7C" stroke-width="3"/>
<path d="M44.942 14.8365C44.0848 14.4271 43.2125 14.0637 42.3917 13.5974C41.5476 13.1352 40.7413 12.6045 39.9806 12.0102C38.234 10.5981 36.9803 8.82916 37.3639 6.43628C37.7925 3.82886 39.387 2.03803 41.7916 1.09226C44.2691 0.120223 46.8258 0.345716 49.2369 1.21048C51.8986 2.16719 54.569 3.23775 57.01 4.66078C60.5612 6.72964 63.9109 9.15974 67.4321 11.4935C66.6263 12.5181 66.0091 13.2975 65.2354 14.2805C66.7699 14.2104 68.1093 14.171 69.4445 14.0856C74.1594 13.7857 78.855 13.3807 83.4092 11.9927C84.2258 11.7453 85.0166 11.4125 85.8074 11.0863C88.197 10.1011 88.5549 8.30373 88.4349 5.86488C88.3835 4.84687 87.5541 4.55131 86.7675 4.46155C84.6994 4.22511 82.6398 4.41558 80.7517 5.33726C77.4429 6.95897 74.4316 9.14948 71.8491 11.8131C71.6217 12.0898 71.4187 12.3865 71.2426 12.6998L67.9658 9.61511C69.1466 8.50733 70.1968 7.29448 71.4569 6.38812C73.8808 4.6367 76.3326 2.89622 78.9472 1.48195C81.6947 -0.00675567 84.7637 -0.297929 87.8369 0.271283C91.356 0.928065 93.3555 4.085 92.6269 7.91623C91.8446 12.0277 91.4267 12.667 87.8434 15.027H89.1293C94.0928 15.027 99.0563 15.0117 104.02 15.027C107.547 15.0423 110.134 17.1068 110.867 20.4586C110.956 20.9022 110.999 21.3543 110.994 21.8072C111.002 25.5859 111.002 29.3631 110.994 33.1389C111.015 34.1938 110.78 35.2377 110.311 36.1775C109.841 37.1172 109.151 37.9236 108.302 38.5245C107.719 38.9623 107.562 39.4002 107.565 40.0854C107.58 52.9569 107.58 65.8277 107.565 78.6977C107.565 82.2005 105.786 84.7882 102.757 85.6705C102.041 85.8768 101.301 85.9836 100.556 85.988C76.8705 86.004 53.1838 86.004 29.4964 85.988C25.3023 85.988 22.4669 83.0981 22.4648 78.8159C22.4519 65.9459 22.4519 53.0759 22.4648 40.2058C22.4648 39.4484 22.2955 38.9514 21.6568 38.4698C19.8994 37.1452 19.0186 35.3019 19.0122 33.0579C18.9993 29.3142 18.9929 25.5727 19.0122 21.8313C19.0336 18.2233 21.6289 15.2634 25.1608 15.0971C28.6113 14.9329 32.0725 15.0292 35.5293 15.0204C38.6433 15.0204 41.7445 15.0204 44.8692 15.0204L44.942 14.8365ZM65.0254 35.5799H72.0977C82.6706 35.5799 93.2477 35.5799 103.829 35.5799C105.929 35.5799 106.769 34.7261 106.776 32.6025C106.787 29.2814 106.776 25.958 106.776 22.6347C106.776 20.1236 105.987 19.3311 103.505 19.3311H26.511C26.1693 19.3179 25.8272 19.3267 25.4866 19.3574C24.1686 19.5303 23.2899 20.4652 23.2813 21.8137C23.2556 25.591 23.2556 29.3682 23.2813 33.1454C23.2813 34.5225 24.1686 35.4267 25.5059 35.5536C25.9474 35.5952 26.3931 35.5821 26.8389 35.5821L65.0254 35.5799ZM26.6996 39.9344C26.676 40.2672 26.6503 40.4729 26.6503 40.6787C26.6503 53.3765 26.6503 66.0677 26.6503 78.7524C26.6503 80.6943 27.6126 81.6576 29.4921 81.6576C38.9005 81.6576 48.3103 81.6576 57.7216 81.6576C58.0152 81.6576 58.3088 81.616 58.5638 81.5985V39.9344H26.6996ZM71.4462 39.9234V81.6598H100.252C102.532 81.6598 103.396 80.7709 103.396 78.4174C103.396 65.9678 103.396 53.5181 103.396 41.0684V39.9234H71.4462ZM62.9722 39.9585V81.5744H67.0914V39.9585H62.9722ZM63.3001 14.5103L63.3923 14.0593C59.106 10.8061 54.7126 7.73233 49.6483 5.83861C48.527 5.419 47.3686 5.11107 46.1893 4.91911C44.7534 4.68267 43.3025 4.70019 42.1795 5.90867C41.3223 6.83035 41.2687 7.54186 42.2631 8.29279C43.4054 9.15317 44.6205 10.0442 45.9557 10.4821C49.5891 11.6686 53.2638 12.7173 56.98 13.628C59.0374 14.1338 61.1892 14.2301 63.3001 14.5103Z" fill="#7C7C7C"/>
<path d="M65.1152 35.5415H26.6807C26.2321 35.5415 25.7835 35.5544 25.3393 35.5134C23.9936 35.3883 23.1094 34.4977 23.1008 33.1412C23.0706 29.4218 23.0706 25.701 23.1008 21.9787C23.1008 20.6503 23.9936 19.7294 25.3199 19.5591C25.6626 19.5288 26.0069 19.5202 26.3507 19.5332H103.847C106.345 19.5332 107.136 20.3139 107.138 22.7875C107.138 26.0611 107.138 29.3348 107.138 32.6064C107.138 34.6982 106.286 35.5393 104.173 35.5393C93.5338 35.5393 82.8904 35.5393 72.2426 35.5393L65.1152 35.5415Z" fill="white"/>
<path d="M26.5383 39.832H58.6066V80.8846C58.3499 80.9019 58.0545 80.9428 57.759 80.9428C48.2902 80.9428 38.8214 80.9428 29.3526 80.9428C27.4613 80.9428 26.493 79.9939 26.493 78.0811C26.4815 65.5729 26.4815 53.0712 26.493 40.576C26.4887 40.3625 26.5146 40.1598 26.5383 39.832Z" fill="white"/>
<path d="M71.5703 39.8203H103.721V40.9482C103.721 53.2134 103.721 65.4771 103.721 77.7394C103.721 80.0577 102.858 80.9333 100.557 80.9333H71.5703V39.8203Z" fill="white"/>
<path d="M63.0391 39.8555H67.184V80.8498H63.0391V39.8555Z" fill="white"/>
<path d="M63.3683 14.7864C61.244 14.5104 59.0788 14.4155 57.0085 13.9238C53.2705 13.0339 49.5727 12.0009 45.9151 10.8248C44.578 10.3935 43.3488 9.51361 42.1993 8.66823C41.1987 7.92852 41.2591 7.22764 42.1152 6.31972C43.2453 5.12282 44.7031 5.11203 46.1502 5.34494C47.3396 5.53139 48.5081 5.83256 49.6395 6.24424C54.7355 8.10967 59.1565 11.1375 63.4696 14.3422L63.3683 14.7864Z" fill="white"/>
<rect x="58" y="39.8203" width="14" height="41.9287" fill="#7C7C7C"/>
<path d="M66.8693 73.7268L130.5 42.4101V110.5H1.5V42.4034L65.5479 73.7284L66.209 74.0518L66.8693 73.7268Z" fill="#FAFAFA" stroke="#7C7C7C" stroke-width="3"/>
<path d="M2 110L53 67" stroke="#7C7C7C" stroke-width="3"/>
<path d="M130 110L78 67" stroke="#7C7C7C" stroke-width="3"/>
</svg>
