<svg width="24" height="24" viewBox="0 0 24 24" fill="none" xmlns="http://www.w3.org/2000/svg">
<circle cx="12" cy="12" r="11.5" stroke="#1874EC"/>
<path d="M17.7751 7.8366L15.5841 5.26286C15.4393 5.09451 15.2434 5 15.0392 5C14.8349 5 14.639 5.09451 14.4942 5.26286L6.72692 14.3277L6.01775 17.9047C5.99328 18.0355 5.99412 18.171 6.0202 18.3013C6.04628 18.4316 6.09694 18.5535 6.16849 18.658C6.24003 18.7626 6.33065 18.8471 6.43372 18.9054C6.5368 18.9638 6.64972 18.9945 6.76424 18.9953C6.81761 19.0016 6.87138 19.0016 6.92474 18.9953L10.019 18.1664L17.7751 9.11038C17.9191 8.94117 18 8.71219 18 8.47349C18 8.2348 17.9191 8.00581 17.7751 7.8366ZM9.64573 17.3812L6.74558 18.0923L7.40623 14.7682L13.2177 8.00237L15.4572 10.6197L9.64573 17.3812ZM15.9574 9.9872L13.7179 7.36984L15.0168 5.86049L17.2189 8.47785L15.9574 9.9872Z" fill="#1874EC"/>
</svg>
