<svg width="125" height="64" viewBox="0 0 125 64" fill="none" xmlns="http://www.w3.org/2000/svg">
    <path d="M89.7071 56.311H86.5589C68.6855 56.311 50.813 56.305 32.9416 56.2932C32.2008 56.2932 31.8275 56.4801 31.4959 57.1684C29.8502 60.5745 27.0903 62.5742 23.3149 62.9422C19.2408 63.3397 16.006 61.7554 13.6852 58.3819C13.3717 57.9632 13.1212 57.5015 12.9415 57.0112C12.7384 56.3822 12.3441 56.3199 11.7706 56.2902C9.38112 56.1745 6.95578 56.0795 4.56927 55.7947C2.9922 55.6078 1.54954 54.8749 0.805805 53.3825C0.375532 52.5158 0.122737 51.5729 0.0620742 50.6084C-0.125631 47.7646 0.112936 44.9089 0.769964 42.1347C1.56447 38.9452 3.50893 36.6102 6.29568 34.928C9.50059 32.9965 13.052 31.9788 16.678 31.2281C18.8256 30.7861 21.009 30.5368 23.1685 30.1571C23.799 30.0466 24.4131 29.8582 24.9965 29.5963C29.426 27.5966 33.8078 25.4959 38.2701 23.5763C44.0557 21.087 49.9697 18.8796 56.2183 17.9094C59.907 17.3368 63.6854 17.2299 67.425 17.0757C72.2019 16.8567 76.9888 17.1132 81.7142 17.8411C84.3068 18.2535 86.8576 19.0546 89.3606 19.8883C92.4072 20.9001 95.4239 22.0335 98.375 23.2944C101.681 24.7067 104.907 26.3059 108.151 27.8577C108.775 28.1958 109.482 28.3502 110.191 28.3027C112.527 28.0989 114.879 28.2217 117.18 28.6676C119.316 29.0741 120.633 30.43 121.305 32.4031C122.688 36.4737 123.838 40.6038 123.993 44.9356C124.059 46.7543 123.901 48.5404 123.097 50.2138C122.8 50.8606 122.369 51.438 121.832 51.9083C121.296 52.3786 120.665 52.7313 119.982 52.9434C116.711 54.0294 113.33 54.6168 109.928 55.0915C109.504 55.1509 109.274 55.2547 109.14 55.7176C108.709 57.185 107.949 58.5365 106.917 59.6706C105.885 60.8047 104.608 61.6919 103.182 62.2657C101.755 62.8395 100.217 63.085 98.6813 62.9838C97.1458 62.8825 95.6533 62.4372 94.3158 61.6812C92.2671 60.5645 90.6806 58.7659 89.8355 56.6017C89.7907 56.4919 89.7459 56.3822 89.6981 56.2754C89.6712 56.2457 89.6414 56.2071 89.7071 56.311ZM32.5085 53.1155H50.2385C62.6341 53.1155 75.0306 53.1155 87.4281 53.1155C87.7835 53.1155 88.136 53.0354 88.4914 53.0265C88.9842 53.0265 89.0888 52.7625 89.1216 52.3055C89.2159 49.7283 90.33 47.292 92.222 45.526C93.5168 44.2848 95.118 43.4044 96.8643 42.9734C98.6105 42.5424 100.44 42.576 102.169 43.0708C103.898 43.5656 105.466 44.5041 106.714 45.792C107.961 47.0798 108.845 48.6715 109.277 50.4067C109.405 50.8962 109.42 51.6113 109.74 51.8011C110.06 51.991 110.75 51.7804 111.257 51.6676C113.814 51.098 116.366 50.5115 118.913 49.9082C119.242 49.8301 119.544 49.6651 119.787 49.4306C120.03 49.1961 120.205 48.9009 120.293 48.576C120.557 47.8178 120.716 47.0272 120.765 46.2262C120.86 41.6511 119.615 37.3253 118.076 33.0766C117.965 32.7073 117.739 32.3823 117.432 32.1475C117.124 31.9126 116.75 31.7799 116.362 31.7681C114.176 31.6494 111.983 31.5159 109.791 31.5278C108.938 31.5625 108.09 31.3883 107.321 31.0204C101.302 27.9823 95.1939 25.131 88.7692 23.0363C86.305 22.2323 83.811 21.3392 81.2632 21.0099C77.3364 20.5143 73.3816 20.2695 69.4232 20.277C65.3167 20.2853 61.214 20.527 57.1352 21.001C53.2971 21.443 49.6113 22.701 45.9733 24.0006C39.886 26.1724 34.0258 28.8694 28.1835 31.6257C26.8496 32.2922 25.4568 32.8355 24.0228 33.2486C22.604 33.6255 21.0986 33.667 19.641 33.9132C15.9582 34.5482 12.374 35.4383 9.00178 37.0909C6.55852 38.3014 4.64692 40.0193 3.95098 42.7548C3.32353 45.3645 3.08801 48.052 3.25205 50.7301C3.29984 51.727 3.84943 52.4717 4.8799 52.62C6.31659 52.8277 7.76522 52.9761 9.21087 53.0829C10.1308 53.1511 11.0568 53.0829 11.9767 53.0829C11.9451 51.723 12.1876 50.3706 12.69 49.1052C13.1924 47.8398 13.9445 46.687 14.902 45.7147C15.8595 44.7423 17.0032 43.97 18.2657 43.4431C19.5281 42.9163 20.8839 42.6456 22.2533 42.647C23.6226 42.6484 24.9779 42.9218 26.2393 43.4512C27.5007 43.9806 28.6427 44.7552 29.5983 45.7295C30.5538 46.7038 31.3035 47.8582 31.8033 49.1245C32.3031 50.3909 32.5429 51.7439 32.5085 53.1037V53.1155ZM15.2712 52.8544C15.273 54.2283 15.6846 55.5709 16.454 56.7126C17.2234 57.8543 18.3161 58.7439 19.5941 59.2691C20.8722 59.7943 22.2782 59.9316 23.6348 59.6636C24.9913 59.3955 26.2374 58.7342 27.2159 57.7631C28.1943 56.7921 28.8611 55.5548 29.1321 54.2075C29.4031 52.8603 29.2661 51.4634 28.7384 50.1935C28.2108 48.9235 27.3161 47.8373 26.1674 47.072C25.0187 46.3068 23.6675 45.8968 22.2844 45.8939C20.4264 45.897 18.6453 46.6312 17.3309 47.9357C16.0166 49.2402 15.276 51.0088 15.2712 52.8544ZM106.335 52.8782C106.335 51.5087 105.928 50.1696 105.165 49.0292C104.402 47.8887 103.316 46.9978 102.045 46.4681C100.774 45.9385 99.373 45.7939 98.0191 46.0525C96.6653 46.311 95.4185 46.9611 94.4354 47.9213C93.4523 48.8814 92.7768 50.1087 92.4936 51.4489C92.2105 52.7892 92.3323 54.1827 92.8438 55.4544C93.3554 56.7262 94.2338 57.8194 95.3688 58.5968C96.5038 59.3741 97.8448 59.8011 99.2232 59.8239C100.15 59.8356 101.071 59.6649 101.931 59.3214C102.791 58.978 103.575 58.4687 104.236 57.823C104.897 57.1772 105.423 56.4078 105.783 55.5591C106.144 54.7104 106.331 53.7992 106.335 52.8782Z"
          fill="#41595F"/>
    <path d="M64 19C64 23 64 44.6667 64 55" stroke="#A3B5FF" stroke-width="3"/>
    <path d="M59.9998 7.5774C62.2263 11.5044 63.9998 15.0886 63.9998 18.6228L48.4998 18.6228C44.1864 18.6228 39.1058 14.2542 43.1257 7.57825C46.8804 1.04777 55.2985 -0.714266 59.9998 7.5774Z"
          stroke="#A3B5FF" stroke-width="4"/>
    <path d="M67.0002 7.5774C64.7737 11.5044 63.0002 15.0886 63.0002 18.6228L78.5002 18.6228C82.8136 18.6228 87.8942 14.2542 83.8743 7.57825C80.1196 1.04777 71.7015 -0.714266 67.0002 7.5774Z"
          stroke="#A3B5FF" stroke-width="4"/>
    <path d="M64.0817 19.682C60.6921 23.5006 58.6567 24.9423 54.6808 25.7254" stroke="#A3B5FF" stroke-width="4"/>
    <path d="M63.5824 19.0003C67.0962 22.8989 69.1946 24.3811 73.2658 25.2254" stroke="#A3B5FF" stroke-width="4"/>
</svg>
