<svg width="46" height="43" viewBox="0 0 46 43" fill="none" xmlns="http://www.w3.org/2000/svg">
    <path d="M23.476 0C11.0565 0 0.952148 9.64505 0.952148 21.5C0.952148 33.3549 11.0565 43 23.476 43C35.8954 43 45.9998 33.3549 45.9998 21.5C45.9998 9.64505 35.8954 0 23.476 0ZM23.476 40.85C12.2985 40.85 3.20453 32.1694 3.20453 21.5C3.20453 10.8306 12.2985 2.15 23.476 2.15C34.6534 2.15 43.7474 10.8306 43.7474 21.5C43.7474 32.1694 34.6534 40.85 23.476 40.85Z"
          fill="#626262"/>
    <path d="M24.2542 20.298C20.748 18.9938 18.6191 18.049 18.6191 15.9239C18.6191 13.0948 21.3206 11.8065 23.8306 11.8065C25.1793 11.8065 26.4707 12.1788 27.3735 12.8287C28.3429 13.5267 28.8343 14.4868 28.8343 15.6836C28.8343 16.2775 29.3384 16.7586 29.9605 16.7586C30.5827 16.7586 31.0867 16.2775 31.0867 15.6836C31.0867 12.0093 27.9378 9.96461 24.6011 9.69103L24.6014 7.52813C24.6014 6.93423 24.0974 6.45312 23.4752 6.45312C22.853 6.45312 22.349 6.93423 22.349 7.52813V9.77111C21.0148 9.97628 19.7868 10.4547 18.7979 11.1734C17.2073 12.3294 16.3667 13.9718 16.3667 15.9239C16.3667 19.6717 20.1226 21.0688 23.4365 22.3013C27.031 23.6378 29.2126 24.6121 29.2126 26.8632C29.2126 28.2231 28.6681 29.3056 27.5931 30.0803C26.5923 30.8026 25.2044 31.2 23.6857 31.2C20.7298 31.2 17.7377 29.6481 17.7377 26.6826C17.7377 26.0887 17.2337 25.6076 16.6115 25.6076C15.9894 25.6076 15.4854 26.0887 15.4854 26.6826C15.4854 30.5797 18.7558 32.8174 22.3487 33.2627V35.4781C22.3487 36.072 22.8527 36.5531 23.4749 36.5531C24.097 36.5531 24.6011 36.072 24.6011 35.4781V33.3072C26.2551 33.1653 27.7757 32.644 28.9509 31.796C30.5952 30.6098 31.4644 28.904 31.4644 26.8632C31.4647 22.9798 27.634 21.555 24.2541 20.298H24.2542Z"
          fill="#6F88EA"/>
</svg>
