<svg width="73" height="73" viewBox="0 0 73 73" fill="none" xmlns="http://www.w3.org/2000/svg">
    <path d="M36.5 0C16.3742 0 0 16.3742 0 36.5C0 56.6258 16.3742 73 36.5 73C56.6258 73 73 56.6258 73 36.5C73 16.3742 56.6258 0 36.5 0ZM36.5 69.35C18.3869 69.35 3.65 54.6131 3.65 36.5C3.65 18.3869 18.3869 3.65 36.5 3.65C54.6131 3.65 69.35 18.3869 69.35 36.5C69.35 54.6131 54.6131 69.35 36.5 69.35Z" fill="black"/>
    <path d="M37.7193 34.458C32.2337 32.2484 28.903 30.6475 28.903 27.0468C28.903 22.2533 33.1295 20.0706 37.0565 20.0706C39.1666 20.0706 41.1871 20.7013 42.5996 21.8025C44.1163 22.9851 44.8852 24.6119 44.8852 26.6397C44.8852 27.646 45.6737 28.4611 46.6471 28.4611C47.6206 28.4611 48.4091 27.646 48.4091 26.6397C48.4091 20.4141 43.4825 16.9497 38.262 16.4861L38.2625 12.8214C38.2625 11.8152 37.4739 11 36.5005 11C35.5271 11 34.7385 11.8152 34.7385 12.8214V16.6218C32.6511 16.9695 30.7298 17.78 29.1826 18.9978C26.6941 20.9564 25.3789 23.7393 25.3789 27.0468C25.3789 33.3969 31.2552 35.7641 36.44 37.8524C42.0637 40.117 45.477 41.7677 45.477 45.5818C45.477 47.886 44.6251 49.7202 42.9432 51.0328C41.3774 52.2566 39.2059 52.9299 36.8299 52.9299C32.2052 52.9299 27.524 50.3004 27.524 45.2758C27.524 44.2695 26.7354 43.4543 25.762 43.4543C24.7886 43.4543 24 44.2695 24 45.2758C24 51.879 29.1168 55.6703 34.738 56.4249V60.1786C34.738 61.1848 35.5266 62 36.5 62C37.4734 62 38.262 61.1848 38.262 60.1786V56.5002C40.8498 56.2598 43.2289 55.3765 45.0675 53.9398C47.6401 51.9298 49 49.0396 49 45.5818C49.0005 39.002 43.0071 36.5879 37.7192 34.458H37.7193Z" fill="black"/>
</svg>
