<svg width="365" height="365" viewBox="0 0 365 365" fill="none" xmlns="http://www.w3.org/2000/svg">
<g clip-path="url(#clip0_419_17100)">
<path d="M307.969 267.477C307.969 336.484 252.078 336.484 182.5 336.484C112.922 336.484 57.0312 336.484 57.0312 267.477C57.0312 198.469 113.492 85.5469 182.5 85.5469C251.508 85.5469 307.969 197.898 307.969 267.477Z" fill="#DBB471"/>
<path opacity="0.5" d="M307.969 267.477C307.969 244.094 301.695 215.578 290.289 188.203C292.57 205.883 288.008 237.25 233.828 249.227C156.836 265.766 196.758 287.438 166.531 290.289C140.867 292.57 72.4297 282.305 58.7422 243.523C57.6016 252.078 56.4609 260.062 56.4609 268.047C57.0312 336.484 113.492 336.484 182.5 336.484C251.508 336.484 307.969 336.484 307.969 267.477Z" fill="#89664C"/>
<path d="M216.149 234.398C213.867 222.992 204.172 219.57 193.906 219V203.031C196.758 204.172 200.18 205.883 202.461 207.594C207.024 210.445 211.586 203.031 207.024 200.18C203.031 197.898 198.469 195.617 193.906 193.906V175.086C193.906 169.383 185.352 169.383 185.352 175.086V191.625C180.789 191.055 176.227 191.055 171.664 191.625C171.094 187.633 169.953 183.641 168.813 179.648C167.672 173.945 159.117 176.227 160.828 181.93C161.969 185.922 162.539 189.914 163.68 193.906C163.11 193.906 163.11 193.906 162.539 194.477C151.133 199.039 143.719 210.445 152.274 221.281C156.266 226.414 161.399 228.125 167.102 229.266C167.672 236.68 167.672 244.094 167.672 251.508C163.68 249.227 160.258 245.805 157.406 242.953C153.414 238.961 147.711 245.234 151.133 249.227C156.266 254.93 161.969 258.922 167.672 261.773C167.672 268.047 168.242 274.32 168.813 280.594C169.383 286.297 177.938 286.297 177.367 280.594C176.797 274.891 176.227 269.758 176.227 264.055C179.649 264.625 183.071 264.625 186.492 264.625C187.063 270.328 187.633 276.031 188.203 282.305C188.774 288.008 197.328 288.008 196.758 282.305C196.188 276.031 195.617 269.758 195.047 262.914C207.594 258.352 219 248.656 216.149 234.398ZM185.352 200.18V219C182.5 219 180.219 219.57 177.938 219.57H175.086L173.375 199.039C177.367 199.039 181.36 199.609 185.352 200.18ZM164.821 218.43C162.539 217.859 160.258 216.148 157.977 214.437C152.844 209.305 160.258 204.742 164.821 202.461C165.391 208.164 165.961 213.297 166.531 219C165.961 219 165.391 219 164.821 218.43ZM183.641 254.93C180.789 255.5 178.508 254.93 176.227 254.359C175.656 245.805 175.656 237.25 175.656 228.125C179.078 228.125 182.5 227.555 185.922 227.555C185.922 236.68 186.492 245.234 186.492 254.359C185.352 254.93 184.781 254.93 183.641 254.93ZM202.461 248.656C200.18 250.367 197.328 251.508 195.047 252.648C194.477 244.094 194.477 236.109 194.477 227.555H197.328C208.164 229.836 211.016 241.812 202.461 248.656Z" fill="#89664C"/>
<path d="M193.906 313.672H180.789V336.484L233.828 365L353.594 327.93V307.969L309.68 282.305L193.906 313.672Z" fill="#699635"/>
<path d="M182.5 300.555C182.5 300.555 196.188 322.797 234.969 342.188C234.969 342.188 295.422 339.336 353.594 300.555C353.594 300.555 319.945 284.016 310.25 262.344C310.25 262.344 287.438 294.281 182.5 300.555Z" fill="#83BF4F"/>
<path d="M156.836 313.102L169.383 312.531L171.094 333.633L121.477 365L2.28125 339.336L0.570312 320.516L41.0625 292.57L156.836 313.102Z" fill="#699635"/>
<path d="M166.531 299.984C166.531 299.984 154.555 322.227 118.625 343.328C118.625 343.328 59.8828 345.039 0 313.672C0 313.672 31.9375 295.422 39.3516 273.75C39.3516 273.75 64.4453 302.266 166.531 299.984Z" fill="#83BF4F"/>
<path d="M138.016 306.258C138.016 306.258 136.305 310.82 144.289 311.391L123.188 329.07C123.188 329.07 110.641 327.93 107.789 336.484C107.789 336.484 56.4609 330.781 23.3828 315.953C23.3828 315.953 30.2266 310.82 21.6719 307.398C21.6719 307.398 31.3672 300.555 33.6484 294.281C33.6484 294.281 42.7734 295.422 45.625 288.578C46.7656 288.008 80.9844 308.539 138.016 306.258V306.258Z" stroke="#699635" stroke-miterlimit="10"/>
<path d="M50.1875 314.242C56.172 314.242 61.0234 310.923 61.0234 306.828C61.0234 302.733 56.172 299.414 50.1875 299.414C44.203 299.414 39.3516 302.733 39.3516 306.828C39.3516 310.923 44.203 314.242 50.1875 314.242Z" fill="#699635"/>
<path d="M108.359 297.703C108.359 297.703 95.2422 314.812 66.7266 338.195L68.4375 353.594L48.4766 349.031L47.3359 332.492C47.3359 332.492 76.4219 305.687 82.6953 292.57C82.125 292.57 92.3906 295.992 108.359 297.703ZM240.102 293.711C240.102 293.711 245.234 307.398 284.016 332.492V349.031L306.258 342.187V325.078C306.258 325.078 279.453 306.258 263.484 287.438L240.102 293.711Z" fill="#F9F3D9"/>
<path d="M207.594 275.461L195.047 274.891L193.906 298.273L244.664 330.781L363.859 298.273L364.43 277.742L322.797 248.656L207.594 275.461Z" fill="#699635"/>
<path d="M197.328 261.203C197.328 261.203 209.875 285.156 246.945 306.828C246.945 306.828 306.258 306.828 365 270.328C365 270.328 332.492 251.508 324.508 228.125C324.508 228.125 299.984 260.062 197.328 261.203Z" fill="#83BF4F"/>
<path d="M222.992 267.477C222.992 267.477 225.844 272.039 216.719 273.75L240.672 292.57C240.672 292.57 254.359 289.148 258.922 297.133C258.922 297.133 315.953 286.867 342.188 273.18C342.188 273.18 333.633 269.188 342.188 264.055C342.188 264.055 331.922 255.5 327.93 249.797C327.93 249.797 318.234 252.648 313.102 245.805C313.102 246.375 292.57 264.625 222.992 267.477V267.477Z" stroke="#699635" stroke-miterlimit="10"/>
<path d="M266.905 281.734C264.624 284.585 257.21 285.726 250.937 284.015C244.663 282.304 241.812 278.312 244.093 275.46C246.374 272.609 253.788 271.468 260.062 273.179C266.335 274.89 269.187 278.312 266.905 281.734Z" fill="#699635"/>
<path d="M255.5 256.641C255.5 256.641 269.188 274.891 298.273 299.414L297.703 316.523L317.664 310.82L318.234 292.57C318.234 292.57 288.578 264.055 281.164 250.367C281.734 250.367 272.039 254.359 255.5 256.641Z" fill="#F9F3D9"/>
<path d="M262.344 11.4062C262.344 46.1953 217.289 102.656 182.5 102.656C147.711 102.656 102.656 51.8984 102.656 17.1094C102.656 -17.6797 107.789 17.1094 142.578 17.1094C147.711 17.1094 171.664 0 182.5 0C189.914 0 211.016 17.1094 222.422 17.1094C252.648 17.1094 262.344 -14.8281 262.344 11.4062Z" fill="#DBB471"/>
<path d="M172.235 75.8512C168.813 78.1325 152.274 76.4215 147.141 80.4137C140.297 85.5465 149.993 97.5231 143.149 104.937C129.461 118.625 118.626 134.023 122.047 142.578C127.751 157.406 138.586 115.203 148.282 131.172C157.977 147.14 156.266 120.336 171.094 134.023C185.922 147.711 173.376 109.5 187.633 126.039C201.891 142.578 202.461 161.398 212.727 161.398C224.704 161.398 200.18 116.343 216.149 127.179C232.118 138.015 249.797 134.023 233.829 117.484C228.696 112.351 221.852 103.226 213.868 95.2418C211.016 92.3903 213.297 77.5621 210.446 75.2809C207.024 72.4293 198.469 81.5543 195.047 79.8434C188.204 76.4215 190.485 82.695 180.219 84.4059C173.376 86.6871 179.079 71.2887 172.235 75.8512Z" fill="#89664C"/>
<path d="M106.65 109.499C128.892 88.3973 169.384 100.374 193.337 110.64C216.72 120.905 230.978 88.3973 216.15 71.8583C207.595 62.163 193.908 73.5692 188.775 80.413C183.072 87.2567 178.509 94.6708 172.236 101.515C163.111 111.78 140.869 103.225 147.712 88.9677C155.127 74.1395 186.494 91.2489 196.759 94.1005C216.72 99.8036 237.822 102.085 257.783 94.6708C264.627 92.3895 261.775 80.9833 254.931 83.8348C232.689 91.8192 210.447 86.6864 189.345 79.8427C178.509 76.4208 161.4 67.2958 149.994 72.4286C117.486 87.827 147.712 131.741 175.087 114.632C181.361 110.64 185.353 104.366 189.916 98.663C192.767 95.2411 207.025 73.5692 210.447 84.4052C212.158 90.1083 210.447 100.374 204.173 102.085C200.181 103.796 192.197 98.0927 188.205 96.952C180.791 94.1005 173.377 91.8192 165.392 90.1083C144.291 85.5458 115.775 86.6864 99.2359 102.085C93.5328 106.647 101.517 114.632 106.65 109.499Z" fill="#E8E8E8"/>
<path d="M255.5 2.85156C249.797 7.41406 239.531 17.1094 222.422 17.1094C211.016 17.1094 189.914 0 182.5 0C171.664 0 147.711 17.1094 142.578 17.1094C123.758 17.1094 113.492 7.41406 108.359 3.42188C108.359 3.42188 114.633 29.0859 134.023 42.2031C148.281 51.3281 146.57 40.4922 153.984 30.2266C161.398 19.9609 166.531 14.8281 179.648 40.4922C186.492 54.75 199.609 1.71094 209.875 18.8203C228.695 50.1875 235.539 33.0781 255.5 2.85156Z" fill="#89664C"/>
<path d="M298.845 298.844L298.275 315.953L318.236 310.25L318.806 292C318.806 292.57 306.829 297.133 298.845 298.844ZM284.017 333.063V349.602L306.259 342.758V325.648C305.689 325.078 299.986 328.5 284.017 333.063ZM66.7279 337.625L68.4388 353.594L48.4779 349.031L47.3373 332.492C46.767 332.492 54.7513 335.344 66.7279 337.625Z" fill="#DBB471"/>
</g>
<defs>
<clipPath id="clip0_419_17100">
<rect width="365" height="365" fill="white"/>
</clipPath>
</defs>
</svg>
