<svg width="138" height="72" viewBox="0 0 138 72" fill="none" xmlns="http://www.w3.org/2000/svg">
    <rect x="12" y="67.1758" width="24.7728" height="3.23701" rx="1.6185" transform="rotate(-16.8364 12 67.1758)"
          fill="#A3B5FF"/>
    <rect y="61.5918" width="24.7728" height="3.23701" rx="1.6185" transform="rotate(-16.8364 0 61.5918)"
          fill="#A3B5FF"/>
    <rect x="1" y="52.1758" width="24.7728" height="3.23701" rx="1.6185" transform="rotate(-16.8364 1 52.1758)"
          fill="#A3B5FF"/>
    <path d="M94 46.6546V64.5023C94 67.6634 96.5626 70.2261 99.7238 70.2261V70.2261C102.529 70.2261 104.92 68.1935 105.373 65.4253L109 43.2261"
          stroke="#41595F" stroke-width="3" stroke-linecap="round"/>
    <path opacity="0.99"
          d="M99.1982 22.7026L81.6493 6.5034C80.4199 5.36861 78.7026 4.92767 77.0786 5.32986V5.32986C73.5878 6.19439 72.1391 10.363 74.3415 13.2061L85.6856 27.8501"
          stroke="#41595F" stroke-width="3" stroke-linecap="round"/>
    <path d="M46.3918 48.2039L43.6686 43.1112C42.7294 41.3548 43.3119 39.1712 45.001 38.116C46.5047 37.1765 48.459 37.4068 49.7032 38.6699L51.5642 40.5591C53.564 42.5893 56.5845 43.2257 59.2334 42.175L115.939 19.6818C118.311 18.7407 120.95 18.6363 123.356 19.4861C130.148 21.8839 133.655 23.8633 135.128 26.0388C137.2 29.0992 133.33 32.3108 129.766 33.2924L92.8102 43.4731L57.8239 53.1112C53.3346 54.3479 48.5876 52.3102 46.3918 48.2039Z"
          stroke="#41595F" stroke-width="3" stroke-linecap="round"/>
</svg>
