<svg width="70" height="76" viewBox="0 0 70 76" fill="none" xmlns="http://www.w3.org/2000/svg">
    <path d="M53.4615 72.7069C38.9419 75.4641 30.6148 75.6134 16.0689 72.7245C17.9404 47.4698 17.1844 23.5955 13.1236 9.44096L25.1911 1.80608C26.7963 3.95674 28.2933 5.70202 29.7546 6.96411C31.3856 8.37269 33.054 9.25044 34.8522 9.33766C36.6615 9.42541 38.409 8.7042 40.1747 7.31922C41.7724 6.06596 43.4452 4.22325 45.2728 1.79492L57.7477 9.46363C53.538 25.7701 52.9129 38.9004 53.4615 72.7069Z"
          stroke="#626262" stroke-width="2"/>
    <path d="M58.0584 31.4327L68.5967 23.6941L58.6885 10.3876C57.8077 11.1536 57.0343 12.2995 56.3764 13.7135C55.5526 15.4841 54.9615 17.5633 54.5636 19.5517C54.1664 21.5368 53.9693 23.3926 53.9175 24.6972C53.8998 25.145 53.8999 25.5107 53.9118 25.7857C54.0043 25.8335 54.0836 25.8852 54.1476 25.9306C54.4323 26.1325 54.7106 26.428 54.9577 26.7216C55.4677 27.3274 56.0465 28.1722 56.5779 29.0001C57.1148 29.8365 57.6251 30.6902 58 31.3323C58.0198 31.3664 58.0393 31.3998 58.0584 31.4327Z"
          stroke="#626262" stroke-width="2"/>
    <path d="M11.9416 29.7254L1.48507 22.0469L12.0999 10.3255C12.9967 11.0657 13.741 12.1426 14.3424 13.4443C15.0814 15.0437 15.5655 16.8987 15.8569 18.6646C16.1479 20.428 16.2399 22.0609 16.2152 23.1952C16.2077 23.54 16.1897 23.8227 16.1668 24.0402C16.04 24.0976 15.9338 24.1655 15.8524 24.2233C15.5677 24.4252 15.2893 24.7207 15.0423 25.0143C14.5323 25.6201 13.9535 26.4649 13.4221 27.2928C12.8852 28.1292 12.3749 28.9829 12 29.625C11.9802 29.6591 11.9607 29.6925 11.9416 29.7254ZM16.0944 24.4729C16.0944 24.4729 16.0947 24.472 16.0953 24.4704C16.0948 24.4721 16.0945 24.4729 16.0944 24.4729Z"
          stroke="#626262" stroke-width="2"/>
</svg>
