<svg width="109" height="109" viewBox="0 0 109 109" fill="none" xmlns="http://www.w3.org/2000/svg">
    <path d="M98.7338 50.017L81.345 46.5675L80.3338 46.3921C79.7753 46.2445 78.0073 45.4579 75.575 44.4037L75.8153 44.193C76.3099 43.5464 76.1544 42.4078 75.3839 42.0214C74.7333 41.5297 73.5877 41.6843 73.1988 42.4501L72.5838 43.2022C71.2544 42.6684 70.0449 42.0288 68.6097 41.3751L68.8641 40.9392C69.3588 40.2926 69.2032 39.154 68.4327 38.7676C67.7821 38.276 66.6365 38.4305 66.2476 39.1963L65.7384 40.0676C64.5293 39.4283 63.214 38.6694 62.0046 38.0298L62.3793 37.4884C62.874 36.8418 62.7185 35.7032 61.948 35.3168C61.2974 34.8251 60.1517 34.9797 59.7629 35.7455L59.2682 36.392C59.162 36.2724 58.9358 36.2588 58.8296 36.1392C57.9529 35.6332 57.3023 35.1415 56.5455 34.5303L55.697 33.5748C54.3603 31.347 52.3729 28.6276 49.9903 28.5928C47.5015 28.4384 45.2668 31.4605 46.0944 34.5596L46.6602 36.4005C46.7664 36.5201 46.6461 36.6256 46.5262 36.7308C37.4539 41.9248 34.3925 41.8479 32.4475 42.066C29.3574 42.439 28.353 40.3444 27.5327 38.9394C26.4084 36.9508 25.4961 35.201 21.2252 34.4844C19.6554 34.1614 18.1068 35.3068 17.9017 36.7617C17.3789 41.4706 15.0249 55.4345 14.9196 58.9278C11.6108 64.5923 13.9233 69.3637 17.9681 70.0659C43.3543 74.5755 77.1899 72.9497 89.6491 69.8854C95.6592 68.2265 104.328 64.0234 104.83 57.8458C105.197 55.6115 104.228 51.1487 98.7339 50.0175L98.7338 50.017ZM21.2531 37.6477C23.6078 38.1324 24.0178 38.8351 24.9446 40.3602C25.7652 41.7656 27.5612 45.7151 32.8222 45.1386C37.4679 45.3138 44.4047 41.5679 48.2866 39.4383C49.7008 38.6227 50.3723 36.9716 49.8986 35.4746L49.3327 33.6337C49.0569 32.6007 49.5661 31.7293 50.0184 31.7574C50.4707 31.7855 51.7722 32.7691 53.0945 35.2216C53.5044 35.9243 54.035 36.5219 54.6856 37.0135C55.4424 37.6248 56.3191 38.1308 57.0759 38.742C57.1821 38.8616 57.1821 38.8616 57.4083 38.8753L55.5347 41.5807C55.04 42.2273 55.1955 43.3659 55.966 43.7523C56.6166 44.244 57.7623 44.0894 58.1511 43.3236L60.1451 40.5126C61.3542 41.1519 62.6695 41.9108 63.879 42.5505L62.0194 45.0316C61.5247 45.6782 61.6802 46.8167 62.4508 47.2032C63.1014 47.6948 64.247 47.5403 64.6359 46.7745L66.6299 43.9635C68.0655 44.6168 69.2746 45.2561 70.604 45.7906L68.9707 48.2838C68.476 48.9304 68.6315 50.069 69.4021 50.4554C70.0527 50.9471 71.1983 50.7925 71.5872 50.0267L73.7152 46.8854C76.8126 48.2065 79.1391 49.1407 79.3653 49.1551C79.4715 49.2747 79.5918 49.1692 79.6976 49.2884L98.3237 52.9276C101.131 53.4404 101.803 55.4009 101.838 56.6447C96.783 59.3788 86.1129 61.0871 83.8352 61.1722C48.5225 62.8186 30.0941 59.6434 18.2638 58.1199C18.4757 54.7467 19.9462 45.8073 21.2535 37.6485L21.2531 37.6477ZM88.8211 66.7867C76.9349 69.7743 44.6824 71.4983 18.4978 67.0515C16.0227 66.6723 16.3408 63.4186 17.3874 61.2257C27.7542 62.5462 46.9531 66.1078 83.8495 64.5586C86.3529 64.4883 94.3858 63.1805 99.7314 61.2541C96.8324 64.0094 91.2463 66.1459 88.8209 66.7861L88.8211 66.7867Z"
          fill="#41595F"/>
    <path d="M61.5625 42.9533C58.5626 47.1525 56.9792 49.3689 56.5626 49.9522" stroke="#6F88EA" stroke-width="3"
          stroke-linecap="round"/>
    <path d="M67.75 47.0002C65.05 50.7214 63.625 52.6856 63.25 53.2024" stroke="#6F88EA" stroke-width="3"
          stroke-linecap="round"/>
    <path d="M74.625 50.2502C71.925 53.9714 70.5 55.9356 70.125 56.4524" stroke="#6F88EA" stroke-width="3"
          stroke-linecap="round"/>
    <path d="M23.146 54.4717L28.6684 55.1529C29.5738 55.2091 30.4008 54.6957 30.4573 53.7967C30.5138 52.8969 29.9973 52.075 29.0927 52.0189L23.5703 51.3376C22.6649 51.2814 21.8379 51.7948 21.7814 52.6938C21.6187 53.474 22.3613 54.3104 23.146 54.4717Z"
          fill="#41595F"/>
</svg>
