<svg width="175" height="154" viewBox="0 0 175 154" fill="none" xmlns="http://www.w3.org/2000/svg">
<path d="M135.974 51.8283L117.663 48.1731L116.598 47.9873C116.01 47.8308 114.148 46.9974 111.586 45.8803L111.839 45.657C112.36 44.9719 112.197 43.7654 111.385 43.3559C110.7 42.835 109.494 42.9988 109.084 43.8102L108.436 44.6072C107.036 44.0416 105.763 43.3638 104.251 42.6711L104.519 42.2093C105.04 41.5241 104.876 40.3177 104.065 39.9082C103.38 39.3873 102.173 39.551 101.764 40.3625L101.228 41.2857C99.9545 40.6083 98.5694 39.8042 97.2957 39.1264L97.6904 38.5527C98.2113 37.8675 98.0475 36.6611 97.2361 36.2516C96.551 35.7307 95.3445 35.8944 94.935 36.7059L94.4141 37.391C94.3023 37.2643 94.0641 37.2498 93.9523 37.1231C93.029 36.5869 92.3439 36.0659 91.5469 35.4183L90.6534 34.4058C89.2457 32.0452 87.1528 29.1636 84.6438 29.1268C82.0228 28.9631 79.6696 32.1654 80.541 35.4493L81.1369 37.4C81.2488 37.5267 81.122 37.6385 80.9957 37.75C71.442 43.2536 68.218 43.1721 66.1697 43.4033C62.9156 43.7985 61.8579 41.5791 60.9941 40.0902C59.8101 37.9831 58.8494 36.129 54.3518 35.3696C52.6987 35.0274 51.0679 36.2411 50.8519 37.7827C50.3014 42.7723 47.8224 57.5688 47.7115 61.2703C44.2271 67.2726 46.6623 72.3285 50.9218 73.0726C77.6556 77.851 113.287 76.1282 126.408 72.8813C132.737 71.1234 141.866 66.6697 142.395 60.1239C142.781 57.7564 141.761 53.0275 135.975 51.8289L135.974 51.8283ZM54.3812 38.7215C56.8609 39.2351 57.2926 39.9797 58.2686 41.5957C59.1328 43.085 61.0241 47.2699 66.5644 46.659C71.4567 46.8447 78.7617 42.8754 82.8496 40.6188C84.3389 39.7547 85.046 38.0051 84.5472 36.4189L83.9513 34.4682C83.6608 33.3736 84.197 32.4503 84.6733 32.4801C85.1496 32.5098 86.5203 33.5521 87.9127 36.1508C88.3444 36.8954 88.9031 37.5286 89.5883 38.0496C90.3853 38.6972 91.3085 39.2334 92.1055 39.8811C92.2173 40.0078 92.2173 40.0078 92.4555 40.0223L90.4824 42.8891C89.9615 43.5742 90.1252 44.7807 90.9367 45.1901C91.6218 45.7111 92.8282 45.5473 93.2377 44.7359L95.3376 41.7573C96.6108 42.4347 97.9959 43.2388 99.2696 43.9166L97.3114 46.5457C96.7904 47.2308 96.9542 48.4372 97.7656 48.8467C98.4507 49.3677 99.6572 49.2039 100.067 48.3925L102.167 45.4138C103.678 46.1061 104.952 46.7835 106.352 47.3499L104.632 49.9918C104.111 50.6769 104.274 51.8834 105.086 52.2929C105.771 52.8138 106.977 52.65 107.387 51.8386L109.628 48.51C112.89 49.9098 115.34 50.8998 115.578 50.915C115.69 51.0418 115.816 50.9299 115.928 51.0562L135.543 54.9125C138.499 55.4558 139.206 57.5332 139.244 58.8511C133.92 61.7482 122.684 63.5584 120.285 63.6485C83.098 65.3931 63.6915 62.0286 51.2333 60.4143C51.4564 56.84 53.0049 47.3676 54.3816 38.7224L54.3812 38.7215ZM125.536 69.5978C113.019 72.7635 79.0541 74.5903 51.4796 69.8783C48.8732 69.4765 49.2081 66.0289 50.3104 63.7053C61.2273 65.1044 81.4453 68.8784 120.3 67.2369C122.936 67.1624 131.396 65.7766 137.025 63.7354C133.972 66.6549 128.09 68.9188 125.535 69.5972L125.536 69.5978Z" fill="#41595F"/>
<path d="M56.3766 56.5468L62.1921 57.2686C63.1455 57.3281 64.0165 56.7842 64.076 55.8316C64.1355 54.8782 63.5915 54.0072 62.6389 53.9477L56.8234 53.2259C55.87 53.1663 54.999 53.7103 54.9395 54.6629C54.7682 55.4896 55.5503 56.3758 56.3766 56.5468Z" fill="#41595F"/>
<line x1="7" y1="112.5" x2="165" y2="112.5" stroke="#41595F" stroke-width="3"/>
<circle cx="86" cy="112" r="10.5" fill="white" stroke="#41595F" stroke-width="3"/>
<path d="M78.24 140.36C76.68 140.36 75.34 140.84 74.5 141.82V141.8C74.5 138.62 76.16 136.98 78.8 136.98C79.78 136.98 80.7 137.16 81.46 137.66L82.42 135.7C81.48 135.1 80.14 134.8 78.74 134.8C74.68 134.8 71.88 137.44 71.88 142.24C71.88 146.74 74.12 149.2 77.94 149.2C80.8 149.2 83.06 147.44 83.06 144.66C83.06 142.04 81 140.36 78.24 140.36ZM77.8 147.16C75.94 147.16 74.9 146.12 74.9 144.8C74.9 143.42 76.06 142.4 77.74 142.4C79.44 142.4 80.54 143.32 80.54 144.78C80.54 146.24 79.42 147.16 77.8 147.16ZM85.7744 149.14C86.6744 149.14 87.4144 148.44 87.4144 147.48C87.4144 146.48 86.6744 145.82 85.7744 145.82C84.8744 145.82 84.1344 146.48 84.1344 147.48C84.1344 148.44 84.8744 149.14 85.7744 149.14ZM93.0772 140.42H91.7372L92.0372 137.18H98.0572V135H89.8372L89.1172 142.62H92.4972C95.3972 142.62 96.2572 143.46 96.2572 144.8C96.2572 146.12 95.1572 146.94 93.2972 146.94C91.7172 146.94 90.1972 146.4 89.1772 145.56L88.0772 147.58C89.3572 148.6 91.3572 149.2 93.3372 149.2C97.0972 149.2 98.8772 147.16 98.8772 144.7C98.8772 142.22 97.2172 140.42 93.0772 140.42Z" fill="black"/>
<path d="M155.392 139.2V142.406H157.086V140.74H160.936L157.254 149H159.2L163.008 140.418V139.2H155.392ZM164.248 149.098C164.878 149.098 165.396 148.608 165.396 147.936C165.396 147.236 164.878 146.774 164.248 146.774C163.618 146.774 163.1 147.236 163.1 147.936C163.1 148.608 163.618 149.098 164.248 149.098ZM170.218 149.14C172.556 149.14 174.32 147.32 174.32 144.1C174.32 140.88 172.556 139.06 170.218 139.06C167.894 139.06 166.13 140.88 166.13 144.1C166.13 147.32 167.894 149.14 170.218 149.14ZM170.218 147.558C168.888 147.558 167.964 146.466 167.964 144.1C167.964 141.734 168.888 140.642 170.218 140.642C171.562 140.642 172.486 141.734 172.486 144.1C172.486 146.466 171.562 147.558 170.218 147.558Z" fill="black"/>
<path d="M5.068 142.952C3.976 142.952 3.038 143.288 2.45 143.974V143.96C2.45 141.734 3.612 140.586 5.46 140.586C6.146 140.586 6.79 140.712 7.322 141.062L7.994 139.69C7.336 139.27 6.398 139.06 5.418 139.06C2.576 139.06 0.616 140.908 0.616 144.268C0.616 147.418 2.184 149.14 4.858 149.14C6.86 149.14 8.442 147.908 8.442 145.962C8.442 144.128 7 142.952 5.068 142.952ZM4.76 147.712C3.458 147.712 2.73 146.984 2.73 146.06C2.73 145.094 3.542 144.38 4.718 144.38C5.908 144.38 6.678 145.024 6.678 146.046C6.678 147.068 5.894 147.712 4.76 147.712ZM10.3421 149.098C10.9721 149.098 11.4901 148.608 11.4901 147.936C11.4901 147.236 10.9721 146.774 10.3421 146.774C9.71206 146.774 9.19406 147.236 9.19406 147.936C9.19406 148.608 9.71206 149.098 10.3421 149.098ZM16.312 149.14C18.65 149.14 20.414 147.32 20.414 144.1C20.414 140.88 18.65 139.06 16.312 139.06C13.988 139.06 12.224 140.88 12.224 144.1C12.224 147.32 13.988 149.14 16.312 149.14ZM16.312 147.558C14.982 147.558 14.058 146.466 14.058 144.1C14.058 141.734 14.982 140.642 16.312 140.642C17.656 140.642 18.58 141.734 18.58 144.1C18.58 146.466 17.656 147.558 16.312 147.558Z" fill="black"/>
</svg>
