<svg width="148" height="100" viewBox="0 0 148 100" fill="none" xmlns="http://www.w3.org/2000/svg">
<path d="M109.719 68.1283C110.065 72.4809 113.506 75.8709 119.674 76.2724V79.4844H122.412V76.2496C128.799 75.8024 132.531 72.3897 132.531 67.4348C132.531 62.9316 129.675 60.6093 124.57 59.4048L122.412 58.8938V50.1475C125.149 50.4578 126.892 51.9543 127.312 54.0256H132.111C131.765 49.8327 128.169 46.5522 122.412 46.1964V42.9844H119.674V46.2648C114.222 46.7986 110.503 50.0791 110.503 54.7191C110.503 58.8254 113.268 61.4351 117.863 62.5073L119.674 62.9544V72.2346C116.868 71.8103 115.011 70.2727 114.591 68.1283H109.719ZM119.651 58.2459C116.959 57.6209 115.499 56.3479 115.499 54.4317C115.499 52.2873 117.074 50.6813 119.674 50.2114V58.2414H119.651V58.2459ZM122.809 63.689C126.08 64.4464 127.59 65.6737 127.59 67.8409C127.59 70.3138 125.71 72.011 122.412 72.3213V63.5977L122.809 63.689Z" fill="#7C7C7C"/>
<path d="M77 20C77 23.7744 73.8623 27.999 66.9426 31.4589C60.2024 34.829 50.6809 37 40 37C29.3191 37 19.7976 34.829 13.0574 31.4589C6.13771 27.999 3 23.7744 3 20C3 16.2256 6.13771 12.001 13.0574 8.54115C19.7976 5.17104 29.3191 3 40 3C50.6809 3 60.2024 5.17104 66.9426 8.54115C73.8623 12.001 77 16.2256 77 20Z" stroke="#7C7C7C" stroke-width="6"/>
<path d="M3 33C3 58.0886 77 58.5769 77 33" stroke="#7C7C7C" stroke-width="6"/>
<path d="M3 49C3 75.409 77 75.9231 77 49" stroke="#7C7C7C" stroke-width="6"/>
<path d="M3 64C3 89.0886 77 89.5769 77 64" stroke="#7C7C7C" stroke-width="6"/>
<path d="M3 78C3 103.089 77 103.577 77 78" stroke="#7C7C7C" stroke-width="6"/>
<line x1="3" y1="19" x2="3" y2="78.5633" stroke="#7C7C7C" stroke-width="6"/>
<line x1="77" y1="19" x2="77" y2="78.5633" stroke="#7C7C7C" stroke-width="6"/>
<circle cx="120.5" cy="62.5" r="24.5" stroke="#7C7C7C" stroke-width="6"/>
</svg>
