<svg width="116" height="116" viewBox="0 0 116 116" fill="none" xmlns="http://www.w3.org/2000/svg">
<path d="M4.94975 71.871L51.383 25.4378L92.013 25.4377L92.013 62.974L43.8274 110.755C43.4364 111.142 42.8055 111.141 42.4162 110.752L4.94975 73.2852C4.55922 72.8947 4.55922 72.2615 4.94975 71.871Z" fill="white" stroke="#41595F" stroke-width="6"/>
<circle cx="72.247" cy="44.1455" r="7.87204" stroke="#A3B5FF" stroke-width="3"/>
<line x1="23.0548" y1="72.2617" x2="44.1335" y2="93.3404" stroke="#A3B5FF" stroke-width="2" stroke-linecap="round"/>
<path d="M41.4766 69.021C41.7202 72.0791 44.1371 74.4608 48.471 74.7428V76.9995H50.3943V74.7268C54.882 74.4127 57.5041 72.015 57.5041 68.5338C57.5041 65.3699 55.4974 63.7383 51.9105 62.8921L50.3943 62.5331V56.3881C52.3176 56.6061 53.5421 57.6575 53.837 59.1128H57.2092C56.9656 56.1669 54.4396 53.8622 50.3943 53.6121V51.3555H48.471V53.6602C44.6404 54.0353 42.0279 56.34 42.0279 59.6C42.0279 62.485 43.9704 64.3185 47.1984 65.0718L48.471 65.386V71.906C46.4996 71.6079 45.1949 70.5276 44.9 69.021H41.4766ZM48.4549 62.0779C46.5637 61.6387 45.5379 60.7444 45.5379 59.3981C45.5379 57.8915 46.6438 56.7632 48.471 56.433V62.0747H48.4549V62.0779ZM50.6732 65.9021C52.9715 66.4342 54.0325 67.2964 54.0325 68.8191C54.0325 70.5564 52.7119 71.7489 50.3943 71.9669V65.8379L50.6732 65.9021Z" fill="#41595F"/>
</svg>
