<svg width="19" height="19" viewBox="0 0 19 19" fill="none" xmlns="http://www.w3.org/2000/svg">
<path fill-rule="evenodd" clip-rule="evenodd" d="M8.85938 18C8.85938 18.5523 9.30709 19 9.85938 19C10.4117 19 10.8594 18.5523 10.8594 18V10.8262H18C18.5523 10.8262 19 10.3785 19 9.82617C19 9.27389 18.5523 8.82617 18 8.82617H10.8594V1C10.8594 0.447716 10.4117 0 9.85938 0C9.30709 0 8.85938 0.447716 8.85938 1V8.82617H1C0.447715 8.82617 0 9.27389 0 9.82617C0 10.3785 0.447715 10.8262 1 10.8262H8.85938V18Z" fill="white"/>
</svg>
