<svg width="65" height="66" viewBox="0 0 65 66" fill="none" xmlns="http://www.w3.org/2000/svg">
<g filter="url(#filter0_d_10198_325992)">
<rect x="4" y="0.335938" width="57" height="57" rx="28.5" fill="#6F88EA"/>
</g>
<path d="M29.46 25.1328C29.6742 25.1328 29.8797 25.2171 30.0312 25.3671C30.1826 25.5172 30.2677 25.7206 30.2677 25.9328V35.5328C30.2677 35.745 30.1826 35.9485 30.0312 36.0985C29.8797 36.2485 29.6742 36.3328 29.46 36.3328C29.2458 36.3328 29.0404 36.2485 28.8889 36.0985C28.7374 35.9485 28.6523 35.745 28.6523 35.5328V25.9328C28.6523 25.7206 28.7374 25.5172 28.8889 25.3671C29.0404 25.2171 29.2458 25.1328 29.46 25.1328ZM33.4985 25.1328C33.7127 25.1328 33.9182 25.2171 34.0696 25.3671C34.2211 25.5172 34.3062 25.7206 34.3062 25.9328V35.5328C34.3062 35.745 34.2211 35.9485 34.0696 36.0985C33.9182 36.2485 33.7127 36.3328 33.4985 36.3328C33.2843 36.3328 33.0788 36.2485 32.9274 36.0985C32.7759 35.9485 32.6908 35.745 32.6908 35.5328V25.9328C32.6908 25.7206 32.7759 25.5172 32.9274 25.3671C33.0788 25.2171 33.2843 25.1328 33.4985 25.1328ZM38.3447 25.9328C38.3447 25.7206 38.2596 25.5172 38.1081 25.3671C37.9566 25.2171 37.7512 25.1328 37.537 25.1328C37.3227 25.1328 37.1173 25.2171 36.9658 25.3671C36.8144 25.5172 36.7293 25.7206 36.7293 25.9328V35.5328C36.7293 35.745 36.8144 35.9485 36.9658 36.0985C37.1173 36.2485 37.3227 36.3328 37.537 36.3328C37.7512 36.3328 37.9566 36.2485 38.1081 36.0985C38.2596 35.9485 38.3447 35.745 38.3447 35.5328V25.9328Z" fill="white"/>
<path fill-rule="evenodd" clip-rule="evenodd" d="M44 21.1359C44 21.5603 43.8298 21.9673 43.5269 22.2673C43.2239 22.5674 42.813 22.7359 42.3846 22.7359H41.5769V37.1359C41.5769 37.9846 41.2365 38.7986 40.6307 39.3987C40.0248 39.9988 39.203 40.3359 38.3462 40.3359H28.6538C27.797 40.3359 26.9752 39.9988 26.3693 39.3987C25.7635 38.7986 25.4231 37.9846 25.4231 37.1359V22.7359H24.6154C24.187 22.7359 23.7761 22.5674 23.4731 22.2673C23.1702 21.9673 23 21.5603 23 21.1359V19.5359C23 19.1116 23.1702 18.7046 23.4731 18.4046C23.7761 18.1045 24.187 17.9359 24.6154 17.9359H30.2692C30.2692 17.5116 30.4394 17.1046 30.7424 16.8046C31.0453 16.5045 31.4562 16.3359 31.8846 16.3359H35.1154C35.5438 16.3359 35.9547 16.5045 36.2576 16.8046C36.5606 17.1046 36.7308 17.5116 36.7308 17.9359H42.3846C42.813 17.9359 43.2239 18.1045 43.5269 18.4046C43.8298 18.7046 44 19.1116 44 19.5359V21.1359ZM27.2291 22.7359L27.0385 22.8303V37.1359C27.0385 37.5603 27.2087 37.9673 27.5116 38.2673C27.8145 38.5674 28.2254 38.7359 28.6538 38.7359H38.3462C38.7746 38.7359 39.1855 38.5674 39.4884 38.2673C39.7913 37.9673 39.9615 37.5603 39.9615 37.1359V22.8303L39.7709 22.7359H27.2291ZM24.6154 21.1359V19.5359H42.3846V21.1359H24.6154Z" fill="white"/>
<defs>
<filter id="filter0_d_10198_325992" x="0" y="0.335938" width="65" height="65" filterUnits="userSpaceOnUse" color-interpolation-filters="sRGB">
<feFlood flood-opacity="0" result="BackgroundImageFix"/>
<feColorMatrix in="SourceAlpha" type="matrix" values="0 0 0 0 0 0 0 0 0 0 0 0 0 0 0 0 0 0 127 0" result="hardAlpha"/>
<feOffset dy="4"/>
<feGaussianBlur stdDeviation="2"/>
<feComposite in2="hardAlpha" operator="out"/>
<feColorMatrix type="matrix" values="0 0 0 0 0 0 0 0 0 0 0 0 0 0 0 0 0 0 0.25 0"/>
<feBlend mode="normal" in2="BackgroundImageFix" result="effect1_dropShadow_10198_325992"/>
<feBlend mode="normal" in="SourceGraphic" in2="effect1_dropShadow_10198_325992" result="shape"/>
</filter>
</defs>
</svg>
