<svg width="22" height="18" viewBox="0 0 22 18" fill="none" xmlns="http://www.w3.org/2000/svg">
<path d="M10.1065 16.5448C10.2059 16.6891 10.3389 16.8072 10.494 16.8887C10.6492 16.9702 10.8218 17.0128 10.997 17.0128C11.1723 17.0128 11.3449 16.9702 11.5 16.8887C11.6552 16.8072 11.7881 16.6891 11.8875 16.5448L21.6375 2.46147C21.7504 2.29903 21.8166 2.10877 21.8289 1.91136C21.8412 1.71395 21.7992 1.51694 21.7074 1.34173C21.6156 1.16652 21.4775 1.01982 21.3082 0.917565C21.1389 0.815309 20.9448 0.761409 20.747 0.76172L1.24703 0.76172C1.0497 0.762535 0.856315 0.817129 0.687686 0.91963C0.519057 1.02213 0.38156 1.16866 0.289982 1.34346C0.198403 1.51826 0.156208 1.71472 0.167934 1.91171C0.17966 2.1087 0.244864 2.29877 0.356533 2.46147L10.1065 16.5448Z" fill="#DE0100"/>
</svg>
