<svg width="22" height="17" viewBox="0 0 22 17" fill="none" xmlns="http://www.w3.org/2000/svg">
<path d="M11.8905 0.798943C11.7912 0.654599 11.6582 0.536578 11.503 0.455044C11.3479 0.373509 11.1753 0.330908 11 0.330908C10.8248 0.330908 10.6522 0.373509 10.497 0.455044C10.3419 0.536578 10.2089 0.654599 10.1095 0.798943L0.359541 14.8823C0.246685 15.0447 0.180504 15.235 0.168188 15.4324C0.155872 15.6298 0.197891 15.8268 0.289682 16.002C0.381473 16.1772 0.519524 16.3239 0.688835 16.4262C0.858149 16.5284 1.05225 16.5823 1.25004 16.582L20.75 16.582C20.9474 16.5812 21.1408 16.5266 21.3094 16.4241C21.478 16.3216 21.6155 16.1751 21.7071 16.0003C21.7987 15.8255 21.8409 15.629 21.8291 15.432C21.8174 15.235 21.7522 15.045 21.6405 14.8823L11.8905 0.798943Z" fill="#36A60F"/>
</svg>
