<svg width="54" height="54" viewBox="0 0 54 54" fill="none" xmlns="http://www.w3.org/2000/svg">
<circle cx="27" cy="27" r="26" fill="white" stroke="#626262" stroke-width="2"/>
<path d="M18 32.0029H21.8599C25.0239 32.0029 26.8843 30.04 26.8843 26.6929V26.6782C26.8843 23.3384 25.0093 21.4341 21.8599 21.4341H18V32.0029ZM19.8896 30.4062V23.0308H21.6621C23.7642 23.0308 24.958 24.3271 24.958 26.6855V26.7002C24.958 29.1099 23.7861 30.4062 21.6621 30.4062H19.8896ZM31.7915 33.0649H32.5825V31.8345C34.5601 31.7173 36.0322 30.6626 36.0322 28.8462V28.8315C36.0322 27.2642 35.0142 26.4512 33.0293 26.0044L32.5825 25.9092V23.0747C33.4907 23.1846 34.084 23.6826 34.1938 24.481L34.2012 24.5469H35.9077L35.9004 24.4297C35.7686 22.7891 34.4795 21.7344 32.5825 21.6025V20.3721H31.7915V21.6025C29.8359 21.7271 28.481 22.8403 28.481 24.5029V24.5176C28.481 26.0337 29.4771 26.9053 31.3813 27.3301L31.7915 27.418V30.3696C30.6563 30.2524 30.1436 29.6885 30.0117 28.9561L29.9971 28.8755H28.2905L28.2979 28.978C28.415 30.6699 29.8286 31.7173 31.7915 31.8345V33.0649ZM30.2461 24.3857V24.3784C30.2461 23.7485 30.7734 23.1772 31.7915 23.0674V25.7334C30.6709 25.4771 30.2461 25.0303 30.2461 24.3857ZM34.2744 28.9927V29.0073C34.2744 29.7324 33.7764 30.2891 32.5825 30.377V27.5938C33.8936 27.894 34.2744 28.3042 34.2744 28.9927Z" fill="#626262"/>
</svg>
