<svg width="21" height="17" viewBox="0 0 21 17" fill="none" xmlns="http://www.w3.org/2000/svg">
<path d="M18.5647 7.77435C18.971 8.30578 18.971 9.02321 18.5647 9.55378C17.285 11.2243 14.2147 14.6641 10.6302 14.6641C7.0456 14.6641 3.97531 11.2243 2.6956 9.55378C2.49793 9.29932 2.39063 8.98628 2.39062 8.66406C2.39063 8.34185 2.49793 8.02881 2.6956 7.77435C3.97531 6.10378 7.0456 2.66406 10.6302 2.66406C14.2147 2.66406 17.285 6.10378 18.5647 7.77435V7.77435Z" stroke="currentColor" stroke-width="1.5" stroke-linecap="round" stroke-linejoin="round"/>
<path d="M10.6261 11.2356C12.0463 11.2356 13.1975 10.0844 13.1975 8.6642C13.1975 7.24404 12.0463 6.09277 10.6261 6.09277C9.20596 6.09277 8.05469 7.24404 8.05469 8.6642C8.05469 10.0844 9.20596 11.2356 10.6261 11.2356Z" stroke="currentColor" stroke-linecap="round" stroke-linejoin="round"/>
</svg>
