<svg width="45" height="46" viewBox="0 0 45 46" fill="none" xmlns="http://www.w3.org/2000/svg">
<path d="M27.0784 2.75474C26.6063 2.07726 25.9913 1.51154 25.2769 1.09744C24.5624 0.683346 23.7658 0.430942 22.9433 0.35801C22.1207 0.285079 21.2922 0.393394 20.516 0.675326C19.7398 0.957258 19.0349 1.40595 18.4509 1.98979L11.7939 8.64842C11.1871 9.25548 10.7265 9.99286 10.4473 10.8046C10.1681 11.6163 10.0776 12.4809 10.1826 13.3328C10.2876 14.1848 10.5854 15.0015 11.0534 15.7211C11.5213 16.4407 12.1471 17.0442 12.8833 17.4857L17.6521 20.347L1.5994 36.1076C1.09565 36.6067 0.695125 37.2001 0.420708 37.854C0.146292 38.5079 0.0033553 39.2094 5.84409e-05 39.9186C-0.00659987 41.3507 0.555931 42.7268 1.5639 43.7442C2.57187 44.7616 3.94271 45.3369 5.37485 45.3436C6.80699 45.3502 8.18312 44.7877 9.20051 43.7797L25.0999 27.8803L27.9144 32.5717C28.3486 33.2954 28.9394 33.9126 29.6435 34.3779C30.3475 34.8432 31.1469 35.1449 31.9829 35.2607C32.8188 35.3764 33.6701 35.3035 34.4741 35.047C35.2781 34.7906 36.0145 34.3573 36.629 33.7789L43.2231 27.5721C43.8211 27.0092 44.2892 26.3227 44.5947 25.5603C44.9002 24.798 45.0358 23.9782 44.992 23.1581C44.9482 22.338 44.7261 21.5373 44.3412 20.8118C43.9562 20.0864 43.4177 19.4536 42.7632 18.9575L33.6612 12.0617C33.5261 11.9598 33.408 11.8372 33.311 11.6985L27.0784 2.75636V2.75474ZM20.7329 4.27174C20.9832 4.02155 21.2852 3.82927 21.6178 3.70845C21.9504 3.58763 22.3055 3.5412 22.658 3.57243C23.0105 3.60366 23.3519 3.7118 23.658 3.88923C23.9642 4.06665 24.2278 4.30905 24.4302 4.59934L25.5437 6.19541L16.0915 15.646L14.5423 14.7164C14.2269 14.527 13.9588 14.2682 13.7584 13.9597C13.5581 13.6512 13.4306 13.3011 13.3858 12.936C13.341 12.5708 13.38 12.2003 13.4999 11.8525C13.6197 11.5047 13.8173 11.1888 14.0775 10.9288L20.7329 4.27174ZM18.9448 17.3566L27.4173 8.88404L30.6627 13.5415C30.953 13.9579 31.307 14.3261 31.7117 14.6325L35.7963 17.7278L27.6562 25.8663L25.2032 21.7753C24.7938 21.0937 24.2229 20.5234 23.5409 20.1146L18.9448 17.3566ZM29.3685 28.7195L38.3929 19.695L40.8137 21.5283C41.0943 21.7409 41.3251 22.0122 41.4901 22.3232C41.6551 22.6341 41.7503 22.9773 41.769 23.3289C41.7878 23.6804 41.7296 24.0318 41.5986 24.3585C41.4676 24.6853 41.2669 24.9795 41.0106 25.2208L34.4165 31.4259C34.1532 31.6738 33.8377 31.8595 33.4932 31.9694C33.1487 32.0793 32.7839 32.1106 32.4258 32.0611C32.0676 32.0116 31.725 31.8824 31.4233 31.6831C31.1215 31.4838 30.8683 31.2195 30.6821 30.9095L29.3685 28.7195ZM23.3876 25.0255L6.91856 41.4962C6.71585 41.697 6.47557 41.8559 6.21145 41.9638C5.94732 42.0718 5.66452 42.1266 5.3792 42.1253C5.09387 42.1239 4.8116 42.0664 4.54851 41.956C4.28541 41.8455 4.04665 41.6844 3.84584 41.4816C3.64504 41.2789 3.48613 41.0387 3.37819 40.7745C3.27024 40.5104 3.21538 40.2276 3.21673 39.9423C3.21808 39.657 3.27561 39.3747 3.38605 39.1116C3.49648 38.8485 3.65766 38.6097 3.86037 38.4089L20.5118 22.0609L21.8803 22.884C22.1062 23.0195 22.2983 23.2083 22.4339 23.4359L23.3876 25.0255Z" fill="black"/>
<path d="M27.4352 38.8594C27.0072 38.8594 26.5967 39.0294 26.2941 39.3321C25.9914 39.6347 25.8214 40.0452 25.8214 40.4732C25.8214 40.9012 25.9914 41.3117 26.2941 41.6143C26.5967 41.917 27.0072 42.087 27.4352 42.087H24.2076C23.7796 42.087 23.3691 42.257 23.0664 42.5597C22.7638 42.8623 22.5938 43.2728 22.5938 43.7008C22.5938 44.1289 22.7638 44.5393 23.0664 44.842C23.3691 45.1446 23.7796 45.3147 24.2076 45.3147H42.497C42.925 45.3147 43.3355 45.1446 43.6382 44.842C43.9408 44.5393 44.1108 44.1289 44.1108 43.7008C44.1108 43.2728 43.9408 42.8623 43.6382 42.5597C43.3355 42.257 42.925 42.087 42.497 42.087H38.732C39.16 42.087 39.5705 41.917 39.8731 41.6143C40.1758 41.3117 40.3458 40.9012 40.3458 40.4732C40.3458 40.0452 40.1758 39.6347 39.8731 39.3321C39.5705 39.0294 39.16 38.8594 38.732 38.8594H27.4352Z" fill="black"/>
</svg>
