<svg width="82" height="84" viewBox="0 0 82 84" fill="none" xmlns="http://www.w3.org/2000/svg">
  <path d="M19.8816 18.074L19.8817 18.0739L34.4717 3.48391L34.6303 3.32524C35.4639 2.53476 36.4501 1.92145 37.5293 1.52343C38.678 1.09981 39.9048 0.930127 41.1254 1.02605C42.3459 1.12198 43.5311 1.48123 44.5995 2.07909C45.6678 2.67688 46.5938 3.49901 47.314 4.48891C47.3141 4.48904 47.3142 4.48916 47.3142 4.48929L48.1597 5.65441L22.0869 31.7272L21.1696 31.1165C20.1267 30.4207 19.2512 29.5022 18.6062 28.4273C17.9612 27.3523 17.5627 26.1476 17.4395 24.9C17.3163 23.6524 17.4714 22.3931 17.8937 21.2127C18.316 20.0323 18.9949 18.9603 19.8816 18.074Z" stroke="black" stroke-width="2"/>
  <path d="M29.1438 36.4302L53.1096 12.4644L59.2156 20.863C59.2159 20.8634 59.2161 20.8638 59.2164 20.8642C59.4711 21.2165 59.7795 21.5266 60.1304 21.7833L60.1329 21.7852L68.2391 27.6782L44.6376 51.2837L40.1112 44.175C40.1112 44.1749 40.1111 44.1749 40.1111 44.1748C39.8043 43.6928 39.4001 43.2696 38.9068 42.9439C38.9059 42.9433 38.905 42.9427 38.9041 42.9422L29.1438 36.4302Z" stroke="black" stroke-width="2"/>
  <path d="M49.2125 58.4731L75.051 32.6306L76.5071 33.6926L76.5082 33.6934C77.4982 34.4136 78.3205 35.3397 78.9184 36.4081C79.5162 37.4765 79.8755 38.6618 79.9714 39.8823C80.0673 41.1028 79.8976 42.3297 79.474 43.4783C79.0504 44.6269 78.383 45.6701 77.5176 46.5361C77.5176 46.5361 77.5175 46.5362 77.5175 46.5362L63.0498 61.0082L63.0497 61.0083C62.1524 61.9061 61.0648 62.5909 59.8674 63.0121C58.67 63.4332 57.3932 63.58 56.1314 63.4415C54.8697 63.303 53.6551 62.8829 52.5775 62.212L52.049 63.061L52.5775 62.212C51.573 61.5867 50.7115 60.7585 50.0474 59.7815L49.909 59.5646L49.2125 58.4731Z" stroke="black" stroke-width="2"/>
  <path d="M3.02963 68.96L3.03819 68.952L3.04655 68.9438L28.0384 44.4252L34.3371 48.6243L37.1193 52.9949L12.0647 78.0496L12.0565 78.0578L12.0484 78.0662C11.4567 78.6863 10.7467 79.1813 9.96028 79.5222L10.358 80.4397L9.96027 79.5222C9.17389 79.863 8.32715 80.0427 7.47013 80.0507C6.6131 80.0586 5.76317 79.8946 4.97062 79.5684C4.17807 79.2421 3.45897 78.7603 2.85586 78.1514C2.25275 77.5424 1.77787 76.8187 1.4593 76.023C1.14073 75.2274 0.984945 74.3759 1.00115 73.519C1.01735 72.6621 1.20521 71.8171 1.55363 71.034C1.90204 70.251 2.40394 69.5458 3.02963 68.96Z" stroke="black" stroke-width="2"/>
  <path d="M69.6367 77.6847V78.6847H78.0581C78.6304 78.6847 79.1793 78.912 79.584 79.3167C79.9887 79.7214 80.2161 80.2703 80.2161 80.8427C80.2161 81.415 79.9887 81.9639 79.584 82.3686C79.1793 82.7733 78.6304 83.0007 78.0581 83.0007H42.2674C41.695 83.0007 41.1461 82.7733 40.7414 82.3686C40.3367 81.9639 40.1094 81.415 40.1094 80.8427C40.1094 80.2703 40.3367 79.7214 40.7414 79.3167L40.0343 78.6096L40.7414 79.3167C41.1461 78.912 41.695 78.6847 42.2674 78.6847H50.6887V77.6847V76.6847C50.1164 76.6847 49.5675 76.4573 49.1628 76.0526C48.7581 75.6479 48.5307 75.099 48.5307 74.5267C48.5307 73.9543 48.7581 73.4054 49.1628 73.0007C49.5675 72.596 50.1164 72.3687 50.6887 72.3687H69.6367C70.2091 72.3687 70.758 72.596 71.1627 73.0007C71.5674 73.4054 71.7947 73.9543 71.7947 74.5267C71.7947 75.099 71.5674 75.6479 71.1627 76.0526C70.758 76.4573 70.2091 76.6847 69.6367 76.6847V77.6847Z" stroke="black" stroke-width="2"/>
</svg>
