<svg width="22" height="16" viewBox="0 0 22 16" fill="none" xmlns="http://www.w3.org/2000/svg">
<path d="M21 9.33594C21.5523 9.33594 22 8.88822 22 8.33594C22 7.78365 21.5523 7.33594 21 7.33594V9.33594ZM0.292892 7.62883C-0.0976315 8.01935 -0.0976315 8.65252 0.292892 9.04304L6.65685 15.407C7.04738 15.7975 7.68054 15.7975 8.07107 15.407C8.46159 15.0165 8.46159 14.3833 8.07107 13.9928L2.41421 8.33594L8.07107 2.67908C8.46159 2.28856 8.46159 1.65539 8.07107 1.26487C7.68054 0.874345 7.04738 0.874345 6.65685 1.26487L0.292892 7.62883ZM21 7.33594H1V9.33594H21V7.33594Z" fill="#999999"/>
</svg>
