<svg width="22" height="20" viewBox="0 0 22 20" fill="none" xmlns="http://www.w3.org/2000/svg">
<path d="M16 4V8.5C15.2979 8.49919 14.6035 8.64663 13.9623 8.93269C13.321 9.21875 12.7474 9.63697 12.279 10.16C11.4539 11.0766 10.9982 12.2667 11 13.5C11.0003 14.385 11.2353 15.2541 11.6809 16.0187C12.1266 16.7833 12.7671 17.4161 13.537 17.8525C12.206 18.255 10.439 18.5 8.5 18.5C4.358 18.5 1 17.3805 1 16V4" stroke="black" stroke-width="2" stroke-linecap="round" stroke-linejoin="round"/>
<path d="M21 13.5C21 16.2615 18.7615 18.5 16 18.5C15.105 18.5 14.264 18.265 13.537 17.8525C12.7671 17.4161 12.1266 16.7833 11.6809 16.0187C11.2353 15.2541 11.0003 14.385 11 13.5C11 12.216 11.484 11.045 12.279 10.16C12.7474 9.63698 13.321 9.21875 13.9623 8.9327C14.6035 8.64664 15.2979 8.49919 16 8.5C18.7615 8.5 21 10.7385 21 13.5Z" stroke="black" stroke-width="2" stroke-linecap="round" stroke-linejoin="round"/>
<path d="M16 4C16 5.3805 12.642 6.5 8.5 6.5C4.358 6.5 1 5.3805 1 4C1 2.6195 4.358 1.5 8.5 1.5C12.642 1.5 16 2.6195 16 4Z" stroke="black" stroke-width="2" stroke-linecap="round" stroke-linejoin="round"/>
<path d="M1 12C1 13.3805 4.358 14.5 8.5 14.5C9.4035 14.5 10.27 14.447 11.072 14.349" stroke="black" stroke-width="2" stroke-linecap="round" stroke-linejoin="round"/>
<path d="M1 8C1 9.3805 4.358 10.5 8.5 10.5C9.878 10.5 11.1695 10.376 12.279 10.16" stroke="black" stroke-width="2" stroke-linecap="round" stroke-linejoin="round"/>
<path d="M17.5 12L14.5 15" stroke="black" stroke-width="2" stroke-linecap="round" stroke-linejoin="round"/>
</svg>
