<svg width="18" height="20" viewBox="0 0 18 20" fill="none" xmlns="http://www.w3.org/2000/svg">
  <path d="M1 7.98437C1 7.43209 1.44772 6.98438 2 6.98438H16C16.5523 6.98438 17 7.43209 17 7.98438V15.9844C17 17.6412 15.6569 18.9844 14 18.9844H4C2.34315 18.9844 1 17.6412 1 15.9844V7.98437Z" fill="white"/>
  <path d="M15.048 18.9823H2.94833C1.87431 18.9823 1 18.0791 1 16.9699V4.47332C1 3.36407 1.87435 2.46094 2.94833 2.46094H15.048C16.1237 2.46094 16.9965 3.36411 16.9965 4.47332V16.9699C16.998 18.0807 16.1237 18.9823 15.048 18.9823ZM2.94833 3.28336C2.31318 3.28336 1.79596 3.81745 1.79596 4.4734V16.97C1.79596 17.626 2.31318 18.1599 2.94833 18.1599H15.048C15.6832 18.1599 16.2016 17.6259 16.2016 16.97V4.4734C16.2016 3.81741 15.6848 3.28336 15.048 3.28336H2.94833Z" fill="white" stroke="black" stroke-width="0.3"/>
  <path d="M5.61606 4.60062C5.39587 4.60062 5.21875 4.41601 5.21875 4.19013V1.39473C5.21875 1.16731 5.3975 0.984375 5.61606 0.984375C5.83475 0.984375 6.01513 1.16899 6.01513 1.39473V4.19013C6.01349 4.41599 5.83474 4.60062 5.61606 4.60062Z" fill="white" stroke="black" stroke-width="0.3"/>
  <path d="M12.3206 4.60067C12.1004 4.60067 11.9219 4.41605 11.9219 4.19032V1.39488C11.9219 1.16746 12.1004 0.984375 12.3206 0.984375C12.5407 0.984375 12.7178 1.169 12.7178 1.39488V4.19032C12.7194 4.41604 12.5407 4.60067 12.3206 4.60067Z" fill="white" stroke="black" stroke-width="0.3"/>
  <path d="M16.601 7.1099H1.39896C1.17877 7.1099 1 6.92528 1 6.69955C1 6.47369 1.17875 6.28906 1.39896 6.28906H16.601C16.8212 6.28906 17 6.47368 17 6.69955C17 6.92527 16.8212 7.1099 16.601 7.1099Z" fill="white" stroke="black" stroke-width="0.3"/>
</svg>
