<svg width="23" height="25" viewBox="0 0 23 25" fill="none" xmlns="http://www.w3.org/2000/svg">
<path d="M11.1279 1.5625C12.1639 1.5625 13.1575 1.97405 13.8901 2.70661C14.6226 3.43918 15.0342 4.43275 15.0342 5.46875V6.25H7.22168V5.46875C7.22168 4.43275 7.63323 3.43918 8.36579 2.70661C9.09836 1.97405 10.0919 1.5625 11.1279 1.5625ZM16.5967 6.25V5.46875C16.5967 4.01835 16.0205 2.62735 14.9949 1.60176C13.9693 0.57617 12.5783 0 11.1279 0C9.67753 0 8.28653 0.57617 7.26094 1.60176C6.23535 2.62735 5.65918 4.01835 5.65918 5.46875V6.25H0.19043V21.875C0.19043 22.7038 0.51967 23.4987 1.10572 24.0847C1.69177 24.6708 2.48663 25 3.31543 25H18.9404C19.7692 25 20.5641 24.6708 21.1501 24.0847C21.7362 23.4987 22.0654 22.7038 22.0654 21.875V6.25H16.5967Z" fill="black"/>
</svg>
