<svg width="21" height="21" viewBox="0 0 21 21" fill="none" xmlns="http://www.w3.org/2000/svg">
<rect width="21" height="21" rx="4" fill="#FF8181"/>
<path d="M7.14689 7.14689C7.19334 7.10033 7.24851 7.06339 7.30926 7.03818C7.37001 7.01297 7.43513 7 7.50089 7C7.56666 7 7.63178 7.01297 7.69253 7.03818C7.75327 7.06339 7.80845 7.10033 7.85489 7.14689L10.5009 9.79389L13.1469 7.14689C13.1934 7.10041 13.2486 7.06353 13.3093 7.03837C13.37 7.01321 13.4351 7.00026 13.5009 7.00026C13.5666 7.00026 13.6317 7.01321 13.6925 7.03837C13.7532 7.06353 13.8084 7.10041 13.8549 7.14689C13.9014 7.19338 13.9383 7.24857 13.9634 7.30931C13.9886 7.37005 14.0015 7.43515 14.0015 7.50089C14.0015 7.56664 13.9886 7.63174 13.9634 7.69248C13.9383 7.75322 13.9014 7.80841 13.8549 7.85489L11.2079 10.5009L13.8549 13.1469C13.9014 13.1934 13.9383 13.2486 13.9634 13.3093C13.9886 13.37 14.0015 13.4351 14.0015 13.5009C14.0015 13.5666 13.9886 13.6317 13.9634 13.6925C13.9383 13.7532 13.9014 13.8084 13.8549 13.8549C13.8084 13.9014 13.7532 13.9383 13.6925 13.9634C13.6317 13.9886 13.5666 14.0015 13.5009 14.0015C13.4351 14.0015 13.37 13.9886 13.3093 13.9634C13.2486 13.9383 13.1934 13.9014 13.1469 13.8549L10.5009 11.2079L7.85489 13.8549C7.80841 13.9014 7.75322 13.9383 7.69248 13.9634C7.63174 13.9886 7.56664 14.0015 7.50089 14.0015C7.43515 14.0015 7.37005 13.9886 7.30931 13.9634C7.24857 13.9383 7.19338 13.9014 7.14689 13.8549C7.10041 13.8084 7.06353 13.7532 7.03837 13.6925C7.01321 13.6317 7.00026 13.5666 7.00026 13.5009C7.00026 13.4351 7.01321 13.37 7.03837 13.3093C7.06353 13.2486 7.10041 13.1934 7.14689 13.1469L9.79389 10.5009L7.14689 7.85489C7.10033 7.80845 7.06339 7.75327 7.03818 7.69253C7.01297 7.63178 7 7.56666 7 7.50089C7 7.43513 7.01297 7.37001 7.03818 7.30926C7.06339 7.24851 7.10033 7.19334 7.14689 7.14689Z" fill="white"/>
</svg>
