<svg width="210" height="125" viewBox="0 0 210 125" fill="none" xmlns="http://www.w3.org/2000/svg">
  <path d="M49.8953 15.3247C49.8953 15.3247 48.0654 3.68642 43.698 1.24653C41.6485 0.124182 36.9639 3.10085 31.7425 4.80877C27.5981 6.07609 23.3538 6.99024 19.0551 7.54145C19.0551 7.54145 10.9547 46.7749 17.4448 48.5804C22.3246 50.0199 47.6506 50.3615 61.3628 50.4347C69.2433 50.3336 77.1086 49.7141 84.9077 48.5804C91.5686 47.4092 96.9364 46.0185 97.5707 43.7006C98.6687 39.8212 94.3257 32.0135 90.0559 31.6476C85.7861 31.2816 60.4356 23.9375 49.8953 15.3247Z" stroke="#231F20" stroke-miterlimit="10"/>
  <path d="M52.2378 25.8888C52.2378 25.8888 55.0681 21.741 56.3368 19.7891" stroke="#231F20" stroke-miterlimit="10" stroke-linecap="round"/>
  <path d="M57.752 28.8665C57.752 28.8665 60.1918 24.9627 61.4606 23.0352" stroke="#231F20" stroke-miterlimit="10" stroke-linecap="round"/>
  <path d="M63.8271 31.7943C63.8271 31.7943 66.267 27.9637 67.3406 26.085" stroke="#231F20" stroke-miterlimit="10" stroke-linecap="round"/>
  <path d="M70.2705 33.9417C70.2705 33.9417 72.7104 30.0867 73.8571 28.1836" stroke="#231F20" stroke-miterlimit="10" stroke-linecap="round"/>
  <path d="M14.9321 39.1875C14.9321 39.1875 55.3855 47.5319 97.1564 39.4071" stroke="#231F20" stroke-miterlimit="10"/>
  <path d="M35.9647 21.3027C35.9647 21.3027 34.1348 9.54241 29.6942 7.10253C27.6203 5.98018 22.9601 8.98124 17.7143 10.6648C13.6132 11.961 9.40971 12.9078 5.14888 13.495C5.14888 13.495 -2.97595 52.7285 3.51416 54.6316C8.39393 56.0467 33.72 56.3883 47.4322 56.4859C55.279 56.3572 63.11 55.7378 70.8795 54.6316C77.5404 53.436 82.9082 52.0453 83.5425 49.7518C84.6405 45.848 80.2975 38.0403 76.0277 37.6987C71.7579 37.3572 46.5294 29.8911 35.9647 21.3027Z" fill="white" stroke="#231F20" stroke-miterlimit="10"/>
  <path d="M38.3057 31.8429C38.3057 31.8429 41.1359 27.7683 42.4291 25.7676" stroke="#231F20" stroke-miterlimit="10" stroke-linecap="round"/>
  <path d="M43.8198 34.8187C43.8198 34.8187 46.3817 30.9148 47.5285 29.0117" stroke="#231F20" stroke-miterlimit="10" stroke-linecap="round"/>
  <path d="M49.8979 37.7474C49.8979 37.7474 52.3378 33.9412 53.4358 32.0381" stroke="#231F20" stroke-miterlimit="10" stroke-linecap="round"/>
  <path d="M56.3384 39.9437C56.3384 39.9437 58.7783 36.1131 59.925 34.21" stroke="#231F20" stroke-miterlimit="10" stroke-linecap="round"/>
  <path d="M1 45.1396C1 45.1396 41.4534 53.4841 83.2243 45.3592" stroke="#231F20" stroke-miterlimit="10"/>
  <path d="M161.153 15.3247C161.153 15.3247 159.323 3.68642 154.956 1.24653C152.906 0.124182 148.222 3.10085 143 4.80877C138.856 6.07609 134.612 6.99024 130.313 7.54145C130.313 7.54145 122.212 46.7749 128.703 48.5804C133.582 50.0199 158.908 50.3615 172.621 50.4347C180.501 50.3336 188.366 49.7141 196.166 48.5804C202.826 47.4092 208.194 46.0185 208.829 43.7006C209.926 39.8212 205.583 32.0135 201.314 31.6476C197.044 31.2816 171.693 23.9375 161.153 15.3247Z" stroke="#231F20" stroke-miterlimit="10"/>
  <path d="M163.496 25.8888C163.496 25.8888 166.326 21.741 167.595 19.7891" stroke="#231F20" stroke-miterlimit="10" stroke-linecap="round"/>
  <path d="M169.01 28.8665C169.01 28.8665 171.45 24.9627 172.718 23.0352" stroke="#231F20" stroke-miterlimit="10" stroke-linecap="round"/>
  <path d="M175.085 31.7943C175.085 31.7943 177.525 27.9637 178.598 26.085" stroke="#231F20" stroke-miterlimit="10" stroke-linecap="round"/>
  <path d="M181.528 33.9417C181.528 33.9417 183.968 30.0867 185.115 28.1836" stroke="#231F20" stroke-miterlimit="10" stroke-linecap="round"/>
  <path d="M126.19 39.1875C126.19 39.1875 166.643 47.5319 208.414 39.4071" stroke="#231F20" stroke-miterlimit="10"/>
  <path d="M147.222 21.3027C147.222 21.3027 145.393 9.54241 140.952 7.10253C138.878 5.98018 134.218 8.98124 128.972 10.6648C124.871 11.961 120.668 12.9078 116.407 13.495C116.407 13.495 108.282 52.7285 114.772 54.6316C119.652 56.0467 144.978 56.3883 158.69 56.4859C166.537 56.3572 174.368 55.7378 182.137 54.6316C188.798 53.436 194.166 52.0453 194.8 49.7518C195.898 45.848 191.555 38.0403 187.285 37.6987C183.016 37.3572 157.787 29.8911 147.222 21.3027Z" fill="white" stroke="#231F20" stroke-miterlimit="10"/>
  <path d="M149.563 31.8429C149.563 31.8429 152.394 27.7683 153.687 25.7676" stroke="#231F20" stroke-miterlimit="10" stroke-linecap="round"/>
  <path d="M155.078 34.8187C155.078 34.8187 157.64 30.9148 158.786 29.0117" stroke="#231F20" stroke-miterlimit="10" stroke-linecap="round"/>
  <path d="M161.156 37.7474C161.156 37.7474 163.596 33.9412 164.694 32.0381" stroke="#231F20" stroke-miterlimit="10" stroke-linecap="round"/>
  <path d="M167.596 39.9437C167.596 39.9437 170.036 36.1131 171.183 34.21" stroke="#231F20" stroke-miterlimit="10" stroke-linecap="round"/>
  <path d="M112.258 45.1396C112.258 45.1396 152.711 53.4841 194.482 45.3592" stroke="#231F20" stroke-miterlimit="10"/>
  <path d="M49.8953 83.0454C49.8953 83.0454 48.0654 71.4071 43.698 68.9672C41.6485 67.8449 36.9639 70.8215 31.7425 72.5295C27.5981 73.7968 23.3538 74.7109 19.0551 75.2621C19.0551 75.2621 10.9547 114.496 17.4448 116.301C22.3246 117.741 47.6506 118.082 61.3628 118.155C69.2433 118.054 77.1086 117.435 84.9077 116.301C91.5686 115.13 96.9364 113.739 97.5707 111.421C98.6687 107.542 94.3257 99.7342 90.0559 99.3683C85.7861 99.0023 60.4356 91.6582 49.8953 83.0454Z" stroke="#231F20" stroke-miterlimit="10"/>
  <path d="M52.2378 93.6095C52.2378 93.6095 55.0681 89.4617 56.3368 87.5098" stroke="#231F20" stroke-miterlimit="10" stroke-linecap="round"/>
  <path d="M57.752 96.5872C57.752 96.5872 60.1918 92.6834 61.4606 90.7559" stroke="#231F20" stroke-miterlimit="10" stroke-linecap="round"/>
  <path d="M63.8271 99.515C63.8271 99.515 66.267 95.6844 67.3406 93.8057" stroke="#231F20" stroke-miterlimit="10" stroke-linecap="round"/>
  <path d="M70.2705 101.662C70.2705 101.662 72.7104 97.8074 73.8571 95.9043" stroke="#231F20" stroke-miterlimit="10" stroke-linecap="round"/>
  <path d="M14.9321 106.908C14.9321 106.908 55.3855 115.253 97.1564 107.128" stroke="#231F20" stroke-miterlimit="10"/>
  <path d="M35.9647 89.0234C35.9647 89.0234 34.1348 77.2631 29.6942 74.8232C27.6203 73.7009 22.9601 76.7019 17.7143 78.3855C13.6132 79.6817 9.40971 80.6285 5.14888 81.2157C5.14888 81.2157 -2.97595 120.449 3.51416 122.352C8.39393 123.767 33.72 124.109 47.4322 124.207C55.279 124.078 63.11 123.459 70.8795 122.352C77.5404 121.157 82.9082 119.766 83.5425 117.472C84.6405 113.569 80.2975 105.761 76.0277 105.419C71.7579 105.078 46.5294 97.6118 35.9647 89.0234Z" fill="white" stroke="#231F20" stroke-miterlimit="10"/>
  <path d="M38.3057 99.5636C38.3057 99.5636 41.1359 95.489 42.4291 93.4883" stroke="#231F20" stroke-miterlimit="10" stroke-linecap="round"/>
  <path d="M43.8198 102.539C43.8198 102.539 46.3817 98.6355 47.5285 96.7324" stroke="#231F20" stroke-miterlimit="10" stroke-linecap="round"/>
  <path d="M49.8979 105.468C49.8979 105.468 52.3378 101.662 53.4358 99.7588" stroke="#231F20" stroke-miterlimit="10" stroke-linecap="round"/>
  <path d="M56.3384 107.664C56.3384 107.664 58.7783 103.834 59.925 101.931" stroke="#231F20" stroke-miterlimit="10" stroke-linecap="round"/>
  <path d="M1 112.86C1 112.86 41.4534 121.205 83.2243 113.08" stroke="#231F20" stroke-miterlimit="10"/>
  <path d="M161.153 83.0454C161.153 83.0454 159.323 71.4071 154.956 68.9672C152.906 67.8449 148.222 70.8215 143 72.5295C138.856 73.7968 134.612 74.7109 130.313 75.2621C130.313 75.2621 122.212 114.496 128.703 116.301C133.582 117.741 158.908 118.082 172.621 118.155C180.501 118.054 188.366 117.435 196.166 116.301C202.826 115.13 208.194 113.739 208.829 111.421C209.926 107.542 205.583 99.7342 201.314 99.3683C197.044 99.0023 171.693 91.6582 161.153 83.0454Z" stroke="#231F20" stroke-miterlimit="10"/>
  <path d="M163.496 93.6095C163.496 93.6095 166.326 89.4617 167.595 87.5098" stroke="#231F20" stroke-miterlimit="10" stroke-linecap="round"/>
  <path d="M169.01 96.5872C169.01 96.5872 171.45 92.6834 172.718 90.7559" stroke="#231F20" stroke-miterlimit="10" stroke-linecap="round"/>
  <path d="M175.085 99.515C175.085 99.515 177.525 95.6844 178.598 93.8057" stroke="#231F20" stroke-miterlimit="10" stroke-linecap="round"/>
  <path d="M181.528 101.662C181.528 101.662 183.968 97.8074 185.115 95.9043" stroke="#231F20" stroke-miterlimit="10" stroke-linecap="round"/>
  <path d="M126.19 106.908C126.19 106.908 166.643 115.253 208.414 107.128" stroke="#231F20" stroke-miterlimit="10"/>
  <path d="M147.222 89.0234C147.222 89.0234 145.393 77.2631 140.952 74.8232C138.878 73.7009 134.218 76.7019 128.972 78.3855C124.871 79.6817 120.668 80.6285 116.407 81.2157C116.407 81.2157 108.282 120.449 114.772 122.352C119.652 123.767 144.978 124.109 158.69 124.207C166.537 124.078 174.368 123.459 182.137 122.352C188.798 121.157 194.166 119.766 194.8 117.472C195.898 113.569 191.555 105.761 187.285 105.419C183.016 105.078 157.787 97.6118 147.222 89.0234Z" fill="white" stroke="#231F20" stroke-miterlimit="10"/>
  <path d="M149.563 99.5636C149.563 99.5636 152.394 95.489 153.687 93.4883" stroke="#231F20" stroke-miterlimit="10" stroke-linecap="round"/>
  <path d="M155.078 102.539C155.078 102.539 157.64 98.6355 158.786 96.7324" stroke="#231F20" stroke-miterlimit="10" stroke-linecap="round"/>
  <path d="M161.156 105.468C161.156 105.468 163.596 101.662 164.694 99.7588" stroke="#231F20" stroke-miterlimit="10" stroke-linecap="round"/>
  <path d="M167.596 107.664C167.596 107.664 170.036 103.834 171.183 101.931" stroke="#231F20" stroke-miterlimit="10" stroke-linecap="round"/>
  <path d="M112.258 112.86C112.258 112.86 152.711 121.205 194.482 113.08" stroke="#231F20" stroke-miterlimit="10"/>
</svg>
