<svg width="17" height="18" viewBox="0 0 17 18" fill="none" xmlns="http://www.w3.org/2000/svg">
<path d="M3.77778 6.60528e-07C1.68492 2.94601e-07 -2.95445e-07 1.68975 -6.6242e-07 3.7886L-2.98089e-06 17.0487L13.2222 17.0487C15.3151 17.0487 17 15.359 17 13.2601L17 3.78861C17 1.68975 15.3151 2.67777e-06 13.2222 2.31185e-06L3.77778 6.60528e-07ZM13.2522 4.24459C13.4818 4.24591 13.6984 4.32572 13.8602 4.48812C14.2301 4.85916 14.1706 5.51652 13.7267 5.96168L7.3156 12.3911C7.29096 12.4158 7.26553 12.4387 7.23957 12.461C7.22139 12.4828 7.20255 12.5045 7.18213 12.525C6.81214 12.896 6.2162 12.896 5.84624 12.525L3.17485 9.84594C2.80486 9.4749 2.80486 8.87738 3.17485 8.50633C3.54484 8.13529 4.14078 8.13529 4.51073 8.50633L6.51437 10.5153L12.3908 4.6217C12.6405 4.3713 12.9571 4.24287 13.2523 4.24433L13.2522 4.24459Z" fill="#626262"/>
<path d="M4.33333 1.00293C2.4867 1.00293 1 2.49389 0.999999 4.34581L0.999997 16.0459L12.6667 16.0459C14.5133 16.0459 16 14.555 16 12.703L16 4.34582C16 2.49389 14.5133 1.00293 12.6667 1.00293L4.33333 1.00293ZM12.6932 4.74816C12.8957 4.74932 13.0868 4.81974 13.2296 4.96303C13.556 5.29043 13.5035 5.87045 13.1118 6.26324L7.45494 11.9363C7.4332 11.9581 7.41076 11.9783 7.38786 11.998C7.37182 12.0172 7.35519 12.0363 7.33717 12.0544C7.01071 12.3818 6.48488 12.3818 6.15845 12.0544L3.80134 9.69053C3.47488 9.36313 3.47488 8.83591 3.80134 8.50852C4.1278 8.18112 4.65363 8.18112 4.98006 8.50852L6.74797 10.2812L11.9331 5.0809C12.1534 4.85996 12.4327 4.74687 12.6932 4.74816Z" fill="#F2F4FF"/>
<rect x="1.89062" y="2.77148" width="12.3529" height="10.6186" fill="#F2F4FF"/>
<path d="M13.021 5.55235C13.3139 5.25946 13.3146 4.78391 13.0225 4.49018C12.7305 4.19645 12.2563 4.19577 11.9634 4.48866L13.021 5.55235ZM3.24582 13.5169C3.24522 13.9317 3.58005 14.2684 3.99367 14.269L10.734 14.2787C11.1476 14.2793 11.4834 13.9435 11.484 13.5287C11.4846 13.1139 11.1498 12.7771 10.7361 12.7765L4.74474 12.768L4.75334 6.75938C4.75393 6.34458 4.41911 6.00783 4.00549 6.00724C3.59187 6.00665 3.25608 6.34243 3.25549 6.75724L3.24582 13.5169ZM11.9634 4.48866L3.46593 12.9861L4.52355 14.0498L13.021 5.55235L11.9634 4.48866Z" fill="#626262"/>
</svg>
