<svg width="30" height="27" viewBox="0 0 30 27" fill="none" xmlns="http://www.w3.org/2000/svg">
  <path d="M0.9375 17.5625C1.18614 17.5625 1.4246 17.6613 1.60041 17.8371C1.77623 18.0129 1.875 18.2514 1.875 18.5V23.1875C1.875 23.6848 2.07254 24.1617 2.42417 24.5133C2.77581 24.865 3.25272 25.0625 3.75 25.0625H26.25C26.7473 25.0625 27.2242 24.865 27.5758 24.5133C27.9275 24.1617 28.125 23.6848 28.125 23.1875V18.5C28.125 18.2514 28.2238 18.0129 28.3996 17.8371C28.5754 17.6613 28.8139 17.5625 29.0625 17.5625C29.3111 17.5625 29.5496 17.6613 29.7254 17.8371C29.9012 18.0129 30 18.2514 30 18.5V23.1875C30 24.1821 29.6049 25.1359 28.9016 25.8392C28.1984 26.5424 27.2446 26.9375 26.25 26.9375H3.75C2.75544 26.9375 1.80161 26.5424 1.09835 25.8392C0.395088 25.1359 0 24.1821 0 23.1875V18.5C0 18.2514 0.0987721 18.0129 0.274587 17.8371C0.450403 17.6613 0.68886 17.5625 0.9375 17.5625V17.5625Z" fill="#626262"/>
  <path d="M14.3365 1.14847C14.4235 1.06117 14.527 0.991899 14.6409 0.944637C14.7548 0.897375 14.8769 0.873047 15.0002 0.873047C15.1235 0.873047 15.2456 0.897375 15.3595 0.944637C15.4734 0.991899 15.5769 1.06117 15.664 1.14847L21.289 6.77347C21.465 6.94951 21.5639 7.18827 21.5639 7.43722C21.5639 7.68618 21.465 7.92494 21.289 8.10097C21.1129 8.27701 20.8742 8.37591 20.6252 8.37591C20.3763 8.37591 20.1375 8.27701 19.9615 8.10097L15.9377 4.07535V20.5622C15.9377 20.8109 15.8389 21.0493 15.6631 21.2251C15.4873 21.401 15.2488 21.4997 15.0002 21.4997C14.7516 21.4997 14.5131 21.401 14.3373 21.2251C14.1615 21.0493 14.0627 20.8109 14.0627 20.5622V4.07535L10.039 8.10097C9.95179 8.18814 9.84831 8.25728 9.73443 8.30445C9.62054 8.35163 9.49848 8.37591 9.37521 8.37591C9.25194 8.37591 9.12988 8.35163 9.01599 8.30445C8.9021 8.25728 8.79862 8.18814 8.71146 8.10097C8.62429 8.01381 8.55515 7.91033 8.50798 7.79644C8.4608 7.68256 8.43652 7.56049 8.43652 7.43722C8.43652 7.31395 8.4608 7.19189 8.50798 7.078C8.55515 6.96412 8.62429 6.86064 8.71146 6.77347L14.3365 1.14847Z" fill="#626262"/>
</svg>
