<svg width="54" height="55" viewBox="0 0 54 55" fill="none" xmlns="http://www.w3.org/2000/svg">
<g clip-path="url(#clip0_955_201168)">
<circle cx="27.0547" cy="27.75" r="26" fill="white" stroke="#626262" stroke-width="2"/>
<path d="M24.9727 31.9229H27.9307V31.2881C27.9307 30.0439 28.4004 29.3711 30.0635 28.4062C31.79 27.3779 32.7549 26.0195 32.7549 24.0898V24.0771C32.7549 21.2715 30.4189 19.2783 26.9531 19.2783C23.1826 19.2783 21.1641 21.4619 21.0244 24.3057L21.0117 24.4453H23.9951L24.0078 24.3311C24.1221 22.8838 25.1504 21.8682 26.7881 21.8682C28.375 21.8682 29.4541 22.833 29.4541 24.1914V24.2041C29.4541 25.4482 28.9209 26.1338 27.3467 27.0859C25.5947 28.1143 24.8838 29.2695 24.9727 31.0342V31.9229ZM26.4961 37.8896C27.5244 37.8896 28.3369 37.1025 28.3369 36.0996C28.3369 35.084 27.5244 34.3096 26.4961 34.3096C25.4678 34.3096 24.6426 35.084 24.6426 36.0996C24.6426 37.1025 25.4678 37.8896 26.4961 37.8896Z" fill="#626262"/>
</g>
<defs>
<clipPath id="clip0_955_201168">
<rect width="53.9456" height="53.9971" fill="white" transform="translate(0.0546875 0.75)"/>
</clipPath>
</defs>
</svg>
