<svg width="13" height="13" viewBox="0 0 13 13" fill="none" xmlns="http://www.w3.org/2000/svg">
<path d="M6.5 0.640625C3.26914 0.640625 0.640625 3.26914 0.640625 6.5C0.640625 9.73086 3.26914 12.3594 6.5 12.3594C9.73086 12.3594 12.3594 9.73086 12.3594 6.5C12.3594 3.26914 9.73086 0.640625 6.5 0.640625ZM6.5 3.04297C6.65065 3.04297 6.79792 3.08764 6.92319 3.17134C7.04845 3.25504 7.14608 3.374 7.20374 3.51319C7.26139 3.65238 7.27647 3.80553 7.24708 3.95329C7.21769 4.10105 7.14514 4.23678 7.03862 4.3433C6.93209 4.44983 6.79636 4.52238 6.6486 4.55177C6.50085 4.58116 6.34769 4.56608 6.2085 4.50842C6.06932 4.45077 5.95035 4.35314 5.86665 4.22788C5.78296 4.10261 5.73828 3.95534 5.73828 3.80469C5.73828 3.60267 5.81853 3.40892 5.96138 3.26607C6.10423 3.12322 6.29798 3.04297 6.5 3.04297ZM8.375 9.66406H4.85938V8.72656H6.14844V6.14844H5.21094V5.21094H7.08594V8.72656H8.375V9.66406Z" fill="black"/>
</svg>
