<svg width="54" height="45" viewBox="0 0 54 45" fill="none" xmlns="http://www.w3.org/2000/svg">
<mask id="path-1-inside-1_955_201131" fill="white">
<path fill-rule="evenodd" clip-rule="evenodd" d="M27 40.7239C41.9117 40.7239 54 31.6075 54 20.3619C54 9.11635 41.9117 0 27 0C12.0883 0 0 9.11635 0 20.3619C0 25.2873 2.31887 29.8042 6.17821 33.3256C6.60843 33.7182 6.8002 34.3141 6.64953 34.8767L4.71227 42.1102C4.38567 43.3296 5.61969 44.3825 6.77253 43.868L16.5206 39.5175C16.8488 39.371 17.2182 39.3485 17.5641 39.4458C20.5014 40.2722 23.6807 40.7239 27 40.7239Z"/>
</mask>
<path fill-rule="evenodd" clip-rule="evenodd" d="M27 40.7239C41.9117 40.7239 54 31.6075 54 20.3619C54 9.11635 41.9117 0 27 0C12.0883 0 0 9.11635 0 20.3619C0 25.2873 2.31887 29.8042 6.17821 33.3256C6.60843 33.7182 6.8002 34.3141 6.64953 34.8767L4.71227 42.1102C4.38567 43.3296 5.61969 44.3825 6.77253 43.868L16.5206 39.5175C16.8488 39.371 17.2182 39.3485 17.5641 39.4458C20.5014 40.2722 23.6807 40.7239 27 40.7239Z" fill="white"/>
<path d="M16.5206 39.5175L17.3357 41.3438L16.5206 39.5175ZM17.5641 39.4458L17.0224 41.3711L17.5641 39.4458ZM6.77253 43.868L5.95743 42.0416L6.77253 43.868ZM6.17821 33.3256L7.52626 31.8482L6.17821 33.3256ZM6.64953 34.8767L8.58144 35.3941L6.64953 34.8767ZM52 20.3619C52 25.2188 49.3943 29.7645 44.8876 33.1632C40.38 36.5626 34.0624 38.7239 27 38.7239V42.7239C34.8493 42.7239 42.0317 40.327 47.2961 36.3568C52.5615 32.3859 56 26.7507 56 20.3619H52ZM27 2C34.0624 2 40.38 4.16125 44.8876 7.56069C49.3943 10.9594 52 15.5051 52 20.3619H56C56 13.9732 52.5615 8.33794 47.2961 4.36706C42.0317 0.396925 34.8493 -2 27 -2V2ZM2 20.3619C2 15.5051 4.60568 10.9594 9.11235 7.56069C13.62 4.16125 19.9376 2 27 2V-2C19.1507 -2 11.9683 0.396925 6.70388 4.36706C1.43848 8.33794 -2 13.9732 -2 20.3619H2ZM7.52626 31.8482C3.99953 28.6303 2 24.6221 2 20.3619H-2C-2 25.9525 0.638215 30.9781 4.83015 34.8031L7.52626 31.8482ZM6.64418 42.6276L8.58144 35.3941L4.71761 34.3593L2.78035 41.5928L6.64418 42.6276ZM15.7055 37.6911L5.95743 42.0416L7.58763 45.6944L17.3357 41.3438L15.7055 37.6911ZM27 38.7239C23.8615 38.7239 20.8645 38.2967 18.1057 37.5206L17.0224 41.3711C20.1382 42.2477 23.4999 42.7239 27 42.7239V38.7239ZM17.3357 41.3438C17.221 41.395 17.1092 41.3955 17.0224 41.3711L18.1057 37.5206C17.3271 37.3016 16.4766 37.347 15.7055 37.6911L17.3357 41.3438ZM2.78035 41.5928C2.01829 44.4382 4.89767 46.8949 7.58763 45.6944L5.95743 42.0416C6.3417 41.8701 6.75305 42.2211 6.64418 42.6276L2.78035 41.5928ZM4.83015 34.8031C4.74299 34.7235 4.66315 34.5626 4.71761 34.3593L8.58144 35.3941C8.93725 34.0655 8.47387 32.7129 7.52626 31.8482L4.83015 34.8031Z" fill="#626262" mask="url(#path-1-inside-1_955_201131)"/>
<ellipse cx="16.0063" cy="21.1206" rx="2" ry="2.0112" fill="#626262"/>
<ellipse cx="27.0017" cy="21.1206" rx="2" ry="2.0112" fill="#626262"/>
<ellipse cx="38.005" cy="21.1206" rx="2" ry="2.0112" fill="#626262"/>
</svg>
