<svg width="25" height="25" viewBox="0 0 25 25" fill="none" xmlns="http://www.w3.org/2000/svg">
<path d="M2.0835 12.4987L7.29183 16.6654V13.5404H16.6668V11.457H7.29183V8.33203L2.0835 12.4987Z" fill="black"/>
<path d="M13.5427 3.12504C12.311 3.12162 11.0908 3.36265 9.95289 3.83416C8.81497 4.30568 7.78191 4.9983 6.91357 5.87191L8.38649 7.34483C9.76357 5.96774 11.5948 5.20837 13.5427 5.20837C15.4907 5.20837 17.3219 5.96774 18.699 7.34483C20.0761 8.72191 20.8355 10.5532 20.8355 12.5011C20.8355 14.449 20.0761 16.2802 18.699 17.6573C17.3219 19.0344 15.4907 19.7938 13.5427 19.7938C11.5948 19.7938 9.76357 19.0344 8.38649 17.6573L6.91357 19.1302C8.68337 20.9011 11.0375 21.8771 13.5427 21.8771C16.0479 21.8771 18.4021 20.9011 20.1719 19.1302C21.9427 17.3605 22.9188 15.0063 22.9188 12.5011C22.9188 9.99587 21.9427 7.6417 20.1719 5.87191C19.3036 4.9983 18.2705 4.30568 17.1326 3.83416C15.9947 3.36265 14.7745 3.12162 13.5427 3.12504Z" fill="black"/>
</svg>
