<svg width="24" height="25" viewBox="0 0 24 25" fill="none" xmlns="http://www.w3.org/2000/svg">
<path d="M21.6732 19.3262C21.0303 18.7292 20.4675 18.0448 19.9999 17.2914C19.4894 16.2516 19.1834 15.1159 19.0999 13.9512V10.5206C19.1043 8.69118 18.4672 6.92303 17.3084 5.54838C16.1495 4.17372 14.5486 3.28719 12.8065 3.05534V2.15951C12.8065 1.91363 12.7128 1.67782 12.5459 1.50396C12.379 1.3301 12.1526 1.23242 11.9165 1.23242C11.6805 1.23242 11.4541 1.3301 11.2872 1.50396C11.1203 1.67782 11.0265 1.91363 11.0265 2.15951V3.06923C9.30004 3.31779 7.71852 4.20968 6.57489 5.57972C5.43126 6.94975 4.80302 8.70509 4.80654 10.5206V13.9512C4.72304 15.1159 4.41705 16.2516 3.90654 17.2914C3.44712 18.0431 2.89333 18.7274 2.25987 19.3262C2.18876 19.3912 2.13176 19.4714 2.09268 19.5612C2.0536 19.651 2.03332 19.7484 2.0332 19.847V20.7914C2.0332 20.9756 2.10344 21.1523 2.22847 21.2825C2.35349 21.4127 2.52306 21.4859 2.69987 21.4859H21.2332C21.41 21.4859 21.5796 21.4127 21.7046 21.2825C21.8296 21.1523 21.8999 20.9756 21.8999 20.7914V19.847C21.8997 19.7484 21.8795 19.651 21.8404 19.5612C21.8013 19.4714 21.7443 19.3912 21.6732 19.3262ZM3.41987 20.097C4.04014 19.4728 4.58627 18.7734 5.04654 18.0137C5.68961 16.7578 6.06482 15.372 6.14654 13.9512V10.5206C6.1201 9.70675 6.25115 8.89567 6.5319 8.13566C6.81265 7.37566 7.23734 6.68227 7.7807 6.0968C8.32406 5.51132 8.97496 5.04573 9.69466 4.72775C10.4143 4.40977 11.1881 4.2459 11.9699 4.2459C12.7516 4.2459 13.5254 4.40977 14.2451 4.72775C14.9648 5.04573 15.6157 5.51132 16.159 6.0968C16.7024 6.68227 17.1271 7.37566 17.4078 8.13566C17.6886 8.89567 17.8196 9.70675 17.7932 10.5206V13.9512C17.8749 15.372 18.2501 16.7578 18.8932 18.0137C19.3535 18.7734 19.8996 19.4728 20.5199 20.097H3.41987Z" fill="black"/>
<path d="M12 23.806C12.42 23.7959 12.823 23.6315 13.1378 23.3417C13.4525 23.0519 13.6588 22.6556 13.72 22.2227H10.2134C10.2764 22.6673 10.4923 23.073 10.8209 23.3643C11.1496 23.6555 11.5686 23.8125 12 23.806Z" fill="black"/>
</svg>
