<svg width="12" height="12" viewBox="0 0 12 12" fill="none" xmlns="http://www.w3.org/2000/svg">
<path d="M10.7561 3.32628L9.04397 1.60544C8.93084 1.49288 8.77773 1.42969 8.61814 1.42969C8.45854 1.42969 8.30544 1.49288 8.19231 1.60544L2.12272 7.66628L1.56856 10.0579C1.54944 10.1454 1.55009 10.236 1.57047 10.3231C1.59085 10.4103 1.63044 10.4917 1.68635 10.5616C1.74226 10.6315 1.81307 10.688 1.89361 10.727C1.97415 10.766 2.0624 10.7866 2.15189 10.7871C2.19359 10.7913 2.23561 10.7913 2.27731 10.7871L4.69522 10.2329L10.7561 4.17794C10.8686 4.06481 10.9318 3.9117 10.9318 3.75211C10.9318 3.59251 10.8686 3.43941 10.7561 3.32628ZM4.40356 9.70794L2.13731 10.1834L2.65356 7.96086L7.19481 3.43711L8.94481 5.18711L4.40356 9.70794ZM9.33564 4.76419L7.58564 3.01419L8.60064 2.00503L10.3215 3.75503L9.33564 4.76419Z" fill="#1874EC"/>
</svg>
