<svg width="22" height="24" viewBox="0 0 22 24" fill="none" xmlns="http://www.w3.org/2000/svg">
<path d="M2.4102 4.638V13.5588C2.4102 18.4152 6.2562 22.3512 10.9998 22.3512C15.7434 22.3512 19.5894 18.4152 19.5894 13.5588V4.6428L10.9482 1.7352L2.4102 4.638ZM10.9458 0L21.1998 3.4488V13.5588C21.1998 19.3248 16.6326 24 10.9998 24C5.36701 24 0.799805 19.3248 0.799805 13.5588V3.4488L10.9458 0ZM16.2486 7.782C16.1703 7.71005 16.0783 7.65461 15.978 7.61899C15.8778 7.58337 15.7715 7.56831 15.6653 7.57469C15.5591 7.58108 15.4553 7.60878 15.3601 7.65615C15.2649 7.70352 15.1801 7.76958 15.111 7.8504L9.9318 13.8132L6.58621 10.1112C6.51547 10.032 6.42952 9.96775 6.33346 9.9224C6.2374 9.87706 6.13321 9.85149 6.02707 9.84724C5.92094 9.84299 5.81503 9.86013 5.71565 9.89764C5.61627 9.93515 5.52546 9.99227 5.44861 10.0656C5.29127 10.216 5.19864 10.4217 5.19036 10.6392C5.18207 10.8567 5.25877 11.0689 5.4042 11.2308L9.35221 15.5988C9.4274 15.6833 9.51983 15.7508 9.62328 15.7966C9.72674 15.8424 9.8388 15.8655 9.95193 15.8644C10.0651 15.8632 10.1766 15.8379 10.2792 15.79C10.3817 15.7421 10.4727 15.6728 10.5462 15.5868L16.3146 8.946C16.457 8.78142 16.5297 8.56789 16.5174 8.35063C16.505 8.13337 16.4087 7.92944 16.2486 7.782Z" fill="black"/>
</svg>
