<svg width="27" height="24" viewBox="0 0 27 24" fill="none" xmlns="http://www.w3.org/2000/svg">
<path d="M12.7059 6.76406L15.2498 7.43438C15.3362 7.45458 15.4135 7.50275 15.4697 7.57141C15.5259 7.64007 15.5579 7.72538 15.5606 7.81406C15.5606 8.02969 15.3689 8.20781 15.1331 8.20781H13.4644C13.2845 8.20729 13.1065 8.17228 12.9398 8.10469C12.6942 8.00156 12.4111 8.025 12.2227 8.19844L11.332 9.01875C11.2908 9.05481 11.2553 9.09684 11.2266 9.14344C11.1898 9.20375 11.1653 9.27075 11.1546 9.34056C11.1438 9.41037 11.147 9.48163 11.1639 9.55021C11.1808 9.6188 11.2111 9.68336 11.2531 9.74017C11.295 9.79699 11.3478 9.84494 11.4084 9.88125C11.9017 10.1773 12.4539 10.3613 13.0261 10.4203V11.25C13.0261 11.6625 13.3931 12 13.8403 12H14.6545C15.1022 12 15.4692 11.6625 15.4692 11.25V10.425C17.0128 10.2562 18.1805 8.97187 17.977 7.47187C17.8294 6.39375 16.9242 5.53594 15.7945 5.23594L13.2506 4.56563C13.1642 4.54542 13.0869 4.49725 13.0307 4.42859C12.9745 4.35993 12.9426 4.27462 12.9398 4.18594C12.9398 3.97031 13.1316 3.79219 13.3673 3.79219H15.0361C15.2166 3.79247 15.3953 3.82748 15.5625 3.89531C15.8077 3.99844 16.0912 3.975 16.2797 3.80156L17.1703 2.98125C17.2101 2.94596 17.2444 2.90487 17.272 2.85938C17.3091 2.79908 17.3339 2.73204 17.3449 2.66212C17.3559 2.59219 17.353 2.52078 17.3362 2.452C17.3195 2.38323 17.2893 2.31845 17.2474 2.26141C17.2055 2.20437 17.1527 2.1562 17.092 2.11969C16.5986 1.82369 16.0462 1.63967 15.4739 1.58063V0.75C15.4739 0.3375 15.1073 0 14.6597 0H13.8455C13.3978 0 13.0312 0.3375 13.0312 0.75V1.575C11.4895 1.74375 10.3195 3.02812 10.523 4.52812C10.6702 5.60625 11.5781 6.46406 12.7059 6.76406ZM26.497 15.3797C25.9439 14.8781 25.0814 14.9109 24.5002 15.3797L20.1689 18.8438C19.6372 19.2703 18.9755 19.5019 18.2939 19.5H12.75C12.5511 19.5 12.3603 19.421 12.2197 19.2803C12.079 19.1397 12 18.9489 12 18.75C12 18.5511 12.079 18.3603 12.2197 18.2197C12.3603 18.079 12.5511 18 12.75 18H16.4198C17.1652 18 17.8594 17.4891 17.9784 16.7531C17.9931 16.6686 18.0003 16.583 18 16.4972C17.9993 16.0998 17.8409 15.719 17.5597 15.4383C17.2784 15.1576 16.8973 15 16.5 15H9C7.73513 15.0003 6.50881 15.4354 5.52656 16.2323L3.34687 18H0.75C0.551088 18 0.360322 18.079 0.21967 18.2197C0.0790176 18.3603 0 18.5511 0 18.75L0 23.25C0 23.4489 0.0790176 23.6397 0.21967 23.7803C0.360322 23.921 0.551088 24 0.75 24H17.4736C18.155 24.0005 18.8163 23.7691 19.3486 23.3438L26.4375 17.6719C26.608 17.5355 26.7467 17.3635 26.8439 17.168C26.9411 16.9724 26.9944 16.758 27.0001 16.5397C27.0058 16.3214 26.9638 16.1045 26.877 15.9042C26.7902 15.7038 26.6607 15.5248 26.4975 15.3797H26.497Z" fill="currentColor"/>
</svg>
