<svg width="23" height="22" viewBox="0 0 23 22" fill="none" xmlns="http://www.w3.org/2000/svg">
<path d="M11.28 21.3713C5.3356 21.3713 0.5 16.5781 0.5 10.6857C0.5 4.79329 5.3356 0 11.28 0C17.2244 0 22.06 4.79329 22.06 10.6857C22.06 16.5781 17.2244 21.3713 11.28 21.3713ZM11.28 1.25611C6.0352 1.25611 1.7672 5.48677 1.7672 10.6857C1.7672 15.8846 6.0352 20.1131 11.28 20.1131C16.5248 20.1131 20.7906 15.8846 20.7906 10.6857C20.7906 5.48677 16.5248 1.25611 11.28 1.25611ZM17.3432 9.80029H5.2168C4.8472 9.80029 4.5436 9.49934 4.5436 9.13298C4.5436 8.76443 4.8472 8.46349 5.2168 8.46349H15.0398L13.4778 7.49305C13.1852 7.30987 13.0906 6.91734 13.2688 6.61639L13.3194 6.52916C13.4976 6.22822 13.8826 6.13227 14.1774 6.31545L17.7172 8.51583C17.9174 8.64013 18.0142 8.86257 18.0076 9.08718C18.0098 9.10463 18.0164 9.11771 18.0164 9.13516C18.0186 9.49934 17.715 9.80029 17.3432 9.80029ZM4.5502 12.6571C4.5502 12.6527 4.5524 12.6483 4.5524 12.644C4.5678 12.4368 4.6778 12.2602 4.8406 12.149C4.8494 12.1424 4.8582 12.1381 4.867 12.1315C4.9154 12.101 4.9616 12.077 5.0166 12.0595C5.0606 12.0443 5.1024 12.0377 5.1486 12.0334C5.1706 12.0312 5.1926 12.0203 5.2146 12.0203H17.3432C17.7128 12.0203 18.0164 12.3212 18.0164 12.692C18.0164 13.0627 17.7128 13.3636 17.3432 13.3636H7.5158L9.036 14.321C9.3264 14.5042 9.4188 14.9011 9.2428 15.202L9.1922 15.2892C9.0162 15.5902 8.6334 15.6883 8.3452 15.5051L4.8384 13.2938C4.647 13.1739 4.5524 12.9602 4.5524 12.7421C4.5502 12.7247 4.5414 12.7094 4.5414 12.6898C4.5436 12.6789 4.548 12.6702 4.5502 12.6571Z" fill="black"/>
</svg>
