<svg width="11" height="8" viewBox="0 0 11 8" fill="none" xmlns="http://www.w3.org/2000/svg">
<path d="M6.41012 0.215498C6.36425 0.148878 6.30287 0.0944066 6.23127 0.0567756C6.15967 0.0191445 6.08 -0.000517368 5.99912 -0.000517368C5.91823 -0.000517368 5.83856 0.0191445 5.76696 0.0567756C5.69536 0.0944066 5.63399 0.148878 5.58812 0.215498L1.08812 6.7155C1.03603 6.79047 1.00548 6.87828 0.999799 6.9694C0.994114 7.06051 1.01351 7.15144 1.05587 7.2323C1.09824 7.31317 1.16195 7.38088 1.2401 7.42807C1.31824 7.47527 1.40783 7.50014 1.49912 7.5L10.4991 7.5C10.5902 7.49962 10.6794 7.47443 10.7573 7.42712C10.8351 7.37981 10.8986 7.31218 10.9408 7.2315C10.9831 7.15083 11.0026 7.06015 10.9972 6.96923C10.9917 6.87832 10.9617 6.79059 10.9101 6.7155L6.41012 0.215498Z" fill="#626262"/>
</svg>
