<svg width="146" height="46" viewBox="0 0 146 46" fill="none" xmlns="http://www.w3.org/2000/svg">
  <g clip-path="url(#clip0_8839_38015)">
    <path d="M146 -25.6758H0V71.1814H146V-25.6758Z" fill="black" stroke="#231F20" stroke-miterlimit="10"/>
    <path d="M23.047 32.9285C22.1404 34.0205 21.2338 35.115 20.3273 36.212C17.2442 36.6866 14.1663 37.2001 11.0938 37.7522V34.1607L12.4103 33.9264V19.5069L11.0938 19.7412V16.1497C14.1637 15.5975 17.2416 15.0841 20.3273 14.6094C21.2352 15.4284 22.1417 16.2499 23.047 17.0738V32.9285ZM19.6483 32.7256V18.306C18.3626 18.5065 17.0782 18.7137 15.7951 18.9277V33.3454C17.0782 33.1339 18.3626 32.9273 19.6483 32.7256V32.7256Z" fill="white"/>
    <path d="M35.855 34.5749C32.4314 34.9994 29.0162 35.4869 25.6094 36.0374V32.4329L26.7383 32.2478V17.7838L25.6094 17.9689V14.357C29.0162 13.8054 32.4314 13.3179 35.855 12.8945C35.855 14.4718 35.855 16.0485 35.855 17.6246C34.8835 17.748 33.9132 17.8714 32.9439 17.9948V16.8692C31.8418 17.0173 30.7414 17.1722 29.6426 17.3339V22.8489C30.6777 22.7008 31.709 22.5551 32.7362 22.412V26.0183C31.7045 26.1577 30.6733 26.3027 29.6426 26.4533V31.8054C30.7414 31.6424 31.8418 31.4876 32.9439 31.3407V29.9578C33.9143 29.8282 34.8846 29.7048 35.855 29.5875C35.8539 31.25 35.8539 32.9124 35.855 34.5749Z" fill="white"/>
    <path d="M51.2215 33.225C49.3147 33.3476 47.409 33.4905 45.5046 33.6535V30.0729L46.8741 29.9607L46.4329 27.912C45.352 28.0003 44.2724 28.0928 43.1939 28.1897L42.7638 30.3138L44.1204 30.1924V33.7731C42.216 33.9386 40.3165 34.1225 38.4219 34.3248V30.7405L39.4733 30.632C40.7062 24.5201 41.9409 18.4163 43.1774 12.3204C44.2803 12.2211 45.379 12.1273 46.4734 12.0391C47.7111 17.9241 48.9489 23.8164 50.1866 29.7161L51.2289 29.6444L51.2215 33.225ZM45.7068 24.3975C45.4103 22.9925 45.1149 21.5881 44.8208 20.1843L43.9219 24.5502L45.7068 24.3975Z" fill="white"/>
    <path d="M64.8885 30.0778C64.0483 31.0743 63.2081 32.0709 62.3679 33.0674C59.5065 33.1621 56.6469 33.2947 53.7891 33.4654V29.8199L55.0151 29.7489V15.1447L53.7891 15.2157V11.5777C56.6469 11.4058 59.5065 11.2731 62.3679 11.1797C63.2081 12.1214 64.0483 13.0669 64.8885 14.0161V30.0778ZM61.7396 29.4444V14.8382C60.5465 14.8806 59.3547 14.9292 58.164 14.984V29.5882C59.3547 29.5347 60.5465 29.4867 61.7396 29.4444V29.4444Z" fill="white"/>
    <path d="M71.8051 34.322V32.4013H70.9184C70.0471 31.4739 69.1759 30.5501 68.3047 29.6299V27.6554C69.395 27.641 70.484 27.632 71.5718 27.6284V28.9029C72.8089 28.9029 74.0461 28.9029 75.2832 28.9029V23.5717C73.8283 23.5634 72.3733 23.5634 70.9184 23.5717C70.0471 22.6455 69.1759 21.7217 68.3047 20.8003V14.2072L70.9184 11.3873H71.8051V9.46484C72.8954 9.46484 73.9851 9.46484 75.0741 9.46484V11.3837H75.9366C76.8078 12.3219 77.6791 13.2643 78.5503 14.2108V16.1853C77.4625 16.1674 76.3735 16.1548 75.2832 16.1476V14.8732C74.0461 14.866 72.8089 14.866 71.5718 14.8732V20.0787C73.028 20.0787 74.4829 20.0823 75.9366 20.0894C76.8078 21.0288 77.6791 21.9712 78.5503 22.9166V29.655C77.6791 30.574 76.8078 31.4955 75.9366 32.4193H75.0741V34.322C73.9838 34.322 72.8942 34.322 71.8051 34.322Z" fill="white"/>
    <path d="M93.9164 16.6031C92.812 16.5356 91.7069 16.4731 90.6013 16.4157V15.1938L89.1743 15.1226V29.7736L90.1098 29.8205V33.4654C88.3817 33.3779 86.6517 33.3036 84.9198 33.2424V29.5862L85.8572 29.6199V14.9802L84.4283 14.9277V16.1496C83.3226 16.1121 82.2163 16.0796 81.1094 16.0521V11.1797C85.3815 11.2846 89.6506 11.4683 93.9164 11.7306V16.6031Z" fill="white"/>
    <path d="M105.876 31.6727C105.075 32.5536 104.278 33.4377 103.484 34.3248C101.953 34.1705 100.421 34.0268 98.8881 33.8937C98.0869 32.856 97.2856 31.822 96.4844 30.7918V14.7508C97.2856 13.8438 98.0869 12.9399 98.8881 12.0391C100.421 12.1635 101.953 12.3072 103.484 12.4702C104.286 13.5203 105.083 14.5735 105.876 15.6299V31.6727ZM102.887 30.6313V16.0442C101.754 15.9297 100.621 15.8233 99.4873 15.725V30.3122C100.621 30.4105 101.754 30.5169 102.887 30.6313V30.6313Z" fill="white"/>
    <path d="M119.532 32.6579C118.735 33.4956 117.938 34.3364 117.14 35.1802C115.608 34.9585 114.075 34.7491 112.541 34.552C111.736 33.49 110.936 32.4306 110.141 31.3736V15.4816C110.946 14.6192 111.746 13.7569 112.541 12.8945C114.076 13.0916 115.609 13.3011 117.14 13.5228C117.938 14.5983 118.735 15.6762 119.532 16.7566V20.3176C118.537 20.1648 117.54 20.017 116.542 19.8741V17.0523C115.409 16.8897 114.276 16.7345 113.14 16.5866V31.0317C114.274 31.1795 115.408 31.3341 116.542 31.4955V28.6553C117.539 28.797 118.536 28.9442 119.532 29.0969V32.6579Z" fill="white"/>
    <path d="M134.903 20.1907L133.808 19.9764C132.477 22.0715 131.139 24.1727 129.796 26.2799C131.136 28.8625 132.474 31.4541 133.81 34.0548L134.794 34.2457V37.7522C132.97 37.4004 131.143 37.0648 129.316 36.7455V33.2407L130.118 33.3812C129.403 31.9908 128.682 30.6029 127.954 29.2173L127.24 30.3339V32.8841L128.451 33.0894V36.596C126.621 36.2814 124.788 35.9812 122.953 35.6955V32.1925L124.155 32.3726V18.3032L122.953 18.1231V14.6094C124.787 14.8927 126.62 15.1929 128.451 15.5099V19.0164L127.24 18.8093V23.8701C128.201 22.3441 129.161 20.8234 130.121 19.3082L129.43 19.1857V15.6756C131.258 15.9961 133.083 16.3323 134.906 16.6841L134.903 20.1907Z" fill="white"/>
    <path d="M137.246 34.6514C137.401 34.2923 137.625 33.9697 137.905 33.7034C138.186 33.4435 138.512 33.2412 138.866 33.1072C139.598 32.8236 140.403 32.8236 141.135 33.1072C141.489 33.2416 141.815 33.4439 142.096 33.7034C142.387 33.9819 142.617 34.3205 142.773 34.6971C142.928 35.0737 143.006 35.48 143 35.8896C143.007 36.3013 142.93 36.7099 142.774 37.0889C142.618 37.4679 142.387 37.8089 142.096 38.0896C141.816 38.3512 141.49 38.5537 141.135 38.6858C140.403 38.9641 139.598 38.9641 138.866 38.6858C138.511 38.554 138.185 38.3514 137.905 38.0896C137.625 37.8215 137.401 37.4977 137.246 37.1377C137.084 36.7439 137 36.3204 137 35.8925C137 35.4647 137.084 35.0412 137.246 34.6474V34.6514ZM137.967 36.8376C138.075 37.1174 138.234 37.3731 138.436 37.5908C138.633 37.804 138.87 37.9731 139.133 38.0876C139.405 38.2044 139.697 38.2645 139.991 38.2645C140.285 38.2645 140.577 38.2044 140.848 38.0876C141.111 37.9721 141.348 37.8031 141.546 37.5908C141.748 37.3728 141.908 37.1172 142.017 36.8376C142.253 36.2284 142.253 35.5488 142.017 34.9396C141.908 34.6624 141.748 34.4095 141.546 34.1943C141.347 33.9838 141.11 33.8163 140.848 33.7014C140.577 33.5847 140.285 33.5246 139.991 33.5246C139.697 33.5246 139.405 33.5847 139.133 33.7014C138.871 33.8155 138.634 33.9831 138.436 34.1943C138.234 34.409 138.075 34.6621 137.967 34.9396C137.738 35.5502 137.738 36.2269 137.967 36.8376ZM140.064 34.1943C140.394 34.174 140.723 34.2519 141.012 34.4189C141.127 34.5075 141.218 34.6255 141.276 34.7613C141.334 34.8972 141.357 35.0462 141.342 35.194C141.346 35.3296 141.323 35.4646 141.277 35.5915C141.234 35.6952 141.168 35.7871 141.085 35.8598C141.005 35.9312 140.912 35.9859 140.812 36.0207C140.703 36.0599 140.59 36.0846 140.475 36.0943L141.35 37.5689H140.671L139.885 36.14H139.478V37.5828H138.83V34.2043L140.064 34.1943ZM140.064 35.6054C140.221 35.6108 140.377 35.5831 140.523 35.5239C140.645 35.4702 140.704 35.341 140.704 35.1363C140.708 35.0587 140.686 34.982 140.641 34.9197C140.598 34.8648 140.544 34.8218 140.481 34.7945C140.412 34.7637 140.339 34.743 140.264 34.7329C140.187 34.7229 140.11 34.7176 140.033 34.717H139.478V35.6054H140.064Z" fill="white"/>
    <rect x="0.5" y="0.539062" width="145" height="44.0042" stroke="black"/>
  </g>
  <defs>
    <clipPath id="clip0_8839_38015">
      <rect width="146" height="45" fill="white" transform="translate(0 0.894531)"/>
    </clipPath>
  </defs>
</svg>
