<svg width="22" height="23" viewBox="0 0 22 23" fill="none" xmlns="http://www.w3.org/2000/svg">
  <path d="M10.9972 22.8121C11.3821 22.8029 11.7515 22.6516 12.0401 22.385C12.3286 22.1184 12.5177 21.7537 12.5738 21.3555H9.35938C9.41711 21.7646 9.61502 22.1378 9.91628 22.4057C10.2175 22.6737 10.6017 22.8181 10.9972 22.8121Z" fill="black"/>
  <path d="M10.3679 2.63095L10.9022 3.15724C10.9165 3.14275 10.9334 3.13672 10.9487 3.13672C10.9639 3.13672 10.9808 3.14275 10.9951 3.15724C11.0097 3.17213 11.02 3.1947 11.02 3.22058V4.02633V4.68532L11.6735 4.7701C13.0967 4.95471 14.4071 5.66092 15.3571 6.7593C16.3073 7.85797 16.8312 9.2731 16.8276 10.7391V10.7409V13.8265V13.854L16.8296 13.8815C16.9139 15.0272 17.2227 16.1446 17.7383 17.1683L17.7552 17.2019L17.7754 17.2336C18.2336 17.9535 18.7837 18.609 19.4115 19.1829V19.8598H2.57812V19.1824C3.1983 18.6057 3.74095 17.949 4.19227 17.2293L4.21091 17.1996L4.2267 17.1683C4.74232 16.1446 5.05113 15.0272 5.13539 13.8815L5.13741 13.854V13.8265L5.13741 10.7409L5.13741 10.7394C5.13452 9.28462 5.65111 7.87973 6.58892 6.78472C7.52649 5.68999 8.82101 4.97947 10.2316 4.78154L10.8773 4.69093V4.03882V3.22058C10.8773 3.1947 10.8876 3.17213 10.9022 3.15725L10.3679 2.63095Z" stroke="black" stroke-width="1.5"/>
</svg>
