<svg width="111" height="113" viewBox="0 0 111 113" fill="none" xmlns="http://www.w3.org/2000/svg">
<circle cx="66" cy="46.0312" r="6" stroke="#A3B5FF" stroke-width="3"/>
<path d="M68.5 41.6484L86.0856 30.1704C87.4731 29.2648 89.332 29.6554 90.2376 31.0429C91.1432 32.4304 90.7525 34.2893 89.3651 35.1949L71.7794 46.6729L68.5 41.6484Z" fill="#A3B5FF"/>
<path d="M58.3906 45L49.0479 39.212C47.6395 38.3394 47.205 36.4903 48.0776 35.0818C48.9502 33.6733 50.7993 33.2389 52.2078 34.1115L61.5505 39.8995L58.3906 45Z" fill="#A3B5FF"/>
<circle cx="66" cy="45" r="41.5" stroke="#41595F" stroke-width="7"/>
<rect y="47" width="60" height="66" fill="#FAFAFA"/>
<path d="M7.11847 76.9033C7.11855 43.6417 52.3268 42.35 52.3268 78.1949" stroke="#41595F" stroke-width="9"/>
<rect y="76" width="14" height="21" rx="7" fill="#A3B5FF"/>
<rect x="46" y="76" width="14" height="21" rx="7" fill="#A3B5FF"/>
<path d="M53 96C53 107.762 50.4194 109 33 109" stroke="#41595F" stroke-width="3"/>
<rect x="20" y="105" width="16" height="8" rx="4" fill="#C4C4C4"/>
</svg>
