<svg width="158" height="156" viewBox="0 0 158 156" fill="none" xmlns="http://www.w3.org/2000/svg">
<path d="M25.9948 30.3346H129.995V99.668H138.661V28.168C138.661 26.4441 137.977 24.7908 136.758 23.5718C135.539 22.3528 133.885 21.668 132.161 21.668H23.8281C22.1042 21.668 20.4509 22.3528 19.2319 23.5718C18.0129 24.7908 17.3281 26.4441 17.3281 28.168V99.668H25.9948V30.3346Z" fill="#41595F"/>
<path d="M4.33594 108.332V123.065C4.33594 126.053 5.52296 128.919 7.63587 131.032C9.74878 133.145 12.6145 134.332 15.6026 134.332H140.143C143.131 134.332 145.996 133.145 148.109 131.032C150.222 128.919 151.409 126.053 151.409 123.065V108.332H4.33594ZM143.003 123.065C143.003 123.755 142.729 124.416 142.241 124.904C141.753 125.391 141.092 125.665 140.403 125.665H15.4293C14.7397 125.665 14.0784 125.391 13.5908 124.904C13.1032 124.416 12.8293 123.755 12.8293 123.065V114.962H55.9459C56.4877 116.24 57.392 117.332 58.5471 118.102C59.7022 118.872 61.0577 119.287 62.4459 119.295H93.3426C94.7309 119.287 96.0863 118.872 97.2414 118.102C98.3966 117.332 99.3008 116.24 99.8426 114.962H143.003V123.065Z" fill="#41595F"/>
<path d="M61.3333 98C61.3333 98 58 98 58 94.6667C58 91.3333 61.3333 81.3333 78 81.3333C94.6667 81.3333 98 91.3333 98 94.6667C98 98 94.6667 98 94.6667 98H61.3333ZM78 78C80.6522 78 83.1957 76.9464 85.0711 75.0711C86.9464 73.1957 88 70.6522 88 68C88 65.3478 86.9464 62.8043 85.0711 60.9289C83.1957 59.0536 80.6522 58 78 58C75.3478 58 72.8043 59.0536 70.9289 60.9289C69.0536 62.8043 68 65.3478 68 68C68 70.6522 69.0536 73.1957 70.9289 75.0711C72.8043 76.9464 75.3478 78 78 78Z" fill="#A3B5FF"/>
<path d="M154.906 37.283C154.906 50.287 141.902 60.8264 125.861 60.8264C119.921 60.8264 114.394 59.3827 109.794 56.8973C107.979 55.9177 96.2384 63.0487 94.7431 61.7752C93.1344 60.4036 101.797 50.6016 100.632 48.9516C98.2081 45.5123 96.8211 41.5266 96.8211 37.2778C96.8159 24.2789 109.82 13.7344 125.861 13.7344C141.902 13.7344 154.906 24.2789 154.906 37.283Z" fill="white" stroke="#C4C4C4" stroke-width="3" stroke-miterlimit="10" stroke-linecap="round" stroke-linejoin="round"/>
<circle cx="112" cy="38" r="4" fill="#C4C4C4"/>
<circle cx="125" cy="38" r="4" fill="#C4C4C4"/>
<circle cx="138" cy="38" r="4" fill="#C4C4C4"/>
</svg>
