<svg width="94" height="94" viewBox="0 0 94 94" fill="none" xmlns="http://www.w3.org/2000/svg">
<g clip-path="url(#clip0_19825_396174)">
<path d="M64.5623 46.9073L88.6538 25.9766V67.5991L64.5623 46.9073ZM33.5188 50.4519L41.9788 57.7956C43.3066 58.9236 45.0378 59.6051 46.9295 59.6051H46.9961H46.9922H47.047C48.9427 59.6051 50.6738 58.9197 52.0173 57.7839L52.0055 57.7917L60.4655 50.448L86.1823 72.534H7.81375L33.5188 50.4519ZM7.7785 21.0142H86.2293L48.5471 53.7419C48.1234 54.077 47.5989 54.2592 47.0588 54.2589H47.0039H47.0078H46.953C46.4109 54.2596 45.8847 54.0759 45.4608 53.738L45.4647 53.7419L7.7785 21.0142ZM5.34625 25.9727L29.4338 46.9034L5.34625 67.5834V25.9727ZM89.9463 16.4121C89.0063 15.9421 87.9017 15.668 86.7307 15.668H7.28108C6.14588 15.6682 5.02628 15.9324 4.01067 16.4396L4.05375 16.42C2.83791 17.0197 1.814 17.9474 1.09766 19.0984C0.381329 20.2493 0.00112545 21.5777 0 22.9334L0 70.6071C0.0020735 72.5364 0.769439 74.3862 2.13372 75.7505C3.49801 77.1148 5.34778 77.8821 7.27717 77.8842H86.7189C88.6483 77.8821 90.4981 77.1148 91.8624 75.7505C93.2266 74.3862 93.994 72.5364 93.9961 70.6071V22.9334C93.9961 20.086 92.355 17.6185 89.9658 16.4317L89.9228 16.4121H89.9463Z" fill="#41595F"/>
</g>
<defs>
<clipPath id="clip0_19825_396174">
<rect width="94" height="94" fill="white"/>
</clipPath>
</defs>
</svg>
