<svg width="131" height="103" viewBox="0 0 131 103" fill="none" xmlns="http://www.w3.org/2000/svg">
<rect x="9.21094" y="15" width="38.2649" height="7.08609" rx="3.54305" fill="#A3B5FF"/>
<rect x="9.21094" y="53.2656" width="38.2649" height="7.08609" rx="3.54305" fill="#A3B5FF"/>
<rect y="34.1328" width="40.3907" height="7.08609" rx="3.54305" fill="#A3B5FF"/>
<rect x="85" y="96" width="22" height="7" rx="3.5" fill="#41595F"/>
<rect x="80" y="84" width="33" height="7" rx="3.5" fill="#41595F"/>
<path d="M96.375 0C76.457 0.0625 62 16.2051 62 34.1992C62 42.8672 65.2109 50.7695 70.5078 56.8164C73.7363 60.4961 78.7773 68.1895 80.707 74.6777C80.7131 74.7266 80.7254 74.7787 80.7314 74.8305H112.021C112.027 74.7787 112.039 74.7297 112.045 74.6777C113.974 68.1895 119.016 60.4961 122.244 56.8164C127.547 50.9375 130.75 43.0469 130.75 34.1992C130.75 15.3906 115.359 0.00078125 96.375 0ZM115.203 50.8008C112.145 54.2871 108.359 59.8438 105.623 65.623H87.1445C84.4082 59.8438 80.623 54.2871 77.5664 50.8027C73.5703 46.25 71.375 40.2539 71.375 34.1992C71.375 22.1289 80.7695 9.42383 96.1992 9.375C110.164 9.375 121.375 20.5859 121.375 34.1992C121.375 40.2539 119.188 46.25 115.203 50.8008Z" fill="#41595F"/>
</svg>
