<svg width="133" height="133" viewBox="0 0 133 133" fill="none" xmlns="http://www.w3.org/2000/svg">
<g clip-path="url(#clip0_19_13516)">
<path d="M43.6673 55.0833H32.2507C29.2228 55.0833 26.3189 56.2862 24.1778 58.4272C22.0368 60.5682 20.834 63.4721 20.834 66.5V106.458C20.834 109.486 22.0368 112.39 24.1778 114.531C26.3189 116.672 29.2228 117.875 32.2507 117.875H100.751C103.779 117.875 106.682 116.672 108.823 114.531C110.964 112.39 112.167 109.486 112.167 106.458V66.5C112.167 63.4721 110.964 60.5682 108.823 58.4272C106.682 56.2862 103.779 55.0833 100.751 55.0833H89.334M43.6673 55.0833H89.334M43.6673 55.0833V37.9583C43.6673 31.9026 46.073 26.0948 50.355 21.8127C54.6371 17.5306 60.4449 15.125 66.5007 15.125C72.5564 15.125 78.3642 17.5306 82.6463 21.8127C86.9283 26.0948 89.334 31.9026 89.334 37.9583V55.0833" stroke="black" stroke-width="8" stroke-linecap="round" stroke-linejoin="round"/>
<path d="M66.5005 73.7329C64.5822 73.7329 62.7425 74.5014 61.3861 75.8692C60.0296 77.237 59.2676 79.0922 59.2676 81.0266C59.2676 83.7253 60.725 86.0337 62.884 87.2992V99.2609H70.117V87.2992C72.276 86.0337 73.7334 83.7253 73.7334 81.0266C73.7334 79.0922 72.9714 77.237 71.6149 75.8692C70.2585 74.5014 68.4188 73.7329 66.5005 73.7329Z" fill="black"/>
<path d="M66.5005 73.7329C64.5822 73.7329 62.7425 74.5014 61.3861 75.8692C60.0296 77.237 59.2676 79.0922 59.2676 81.0266C59.2676 83.7253 60.725 86.0337 62.884 87.2992V99.2609H70.117V87.2992C72.276 86.0337 73.7334 83.7253 73.7334 81.0266C73.7334 79.0922 72.9714 77.237 71.6149 75.8692C70.2585 74.5014 68.4188 73.7329 66.5005 73.7329Z" fill="black"/>
<path d="M103.5 118.243L115.833 112.714V105.036C115.833 109.643 113.058 113.636 108.742 115.786L103.5 118.243L98.2583 115.786C93.9417 113.943 91.1667 109.643 91.1667 105.036V112.714L103.5 118.243ZM122 82H85V105.036C85 111.793 89.0083 118.243 95.4833 121.314L103.5 125L111.517 121.314C117.992 118.243 122 112.1 122 105.036V82Z" fill="#667799"/>
<path d="M94 101.5L102.25 109L116 94" fill="#667799"/>
<path d="M94 101.5L102.25 109L116 94" stroke="white" stroke-width="5" stroke-linecap="round" stroke-linejoin="round"/>
</g>
<defs>
<clipPath id="clip0_19_13516">
<rect width="133" height="133" fill="white"/>
</clipPath>
</defs>
</svg>
