<svg width="130" height="134" viewBox="0 0 130 134" fill="none" xmlns="http://www.w3.org/2000/svg">
<path d="M119.816 50.0461C117.621 51.051 115.301 51.7556 112.918 52.1408C116.729 62.991 116.741 74.8141 112.952 85.6722C109.164 96.5303 101.799 105.779 92.0652 111.904C82.3314 118.028 70.8059 120.664 59.3777 119.38C47.9496 118.095 37.2966 112.967 29.1648 104.835C21.033 96.7034 15.9047 86.0504 14.6205 74.6223C13.3362 63.1941 15.9722 51.6686 22.0964 41.9348C28.2206 32.201 37.4697 24.8363 48.3278 21.0476C59.1859 17.259 71.009 17.2712 81.8592 21.0823C82.244 18.6992 82.9486 16.379 83.9539 14.1844C71.5532 9.89654 58.065 9.94013 45.6923 14.308C33.3196 18.676 22.7935 27.1101 15.8332 38.2329C8.87287 49.3557 5.88967 62.5099 7.3708 75.5471C8.85194 88.5843 14.7099 100.734 23.9879 110.012C33.2659 119.29 45.4157 125.148 58.4529 126.629C71.4901 128.11 84.6443 125.127 95.7671 118.167C106.89 111.207 115.324 100.68 119.692 88.3077C124.06 75.935 124.103 62.4468 119.816 50.0461Z" fill="#A3B5FF"/>
<path d="M73.1991 24.6184C79.5083 31.4912 84.2707 39.6706 87.1572 48.5918H67.8167V24H62.4344V48.6281H43.094C45.9863 39.6909 50.7614 31.4983 57.088 24.6184C53.9618 25.1921 50.9061 26.1069 47.9739 27.3468C43.3504 33.8026 39.8214 40.9951 37.5323 48.6281H25.44C24.4876 50.5429 23.6721 52.5245 23 54.5578H36.0252C35.0144 59.3408 34.4973 64.2176 34.4823 69.1091C34.4922 74.4596 35.094 79.792 36.2764 85.0065H23.5741C24.3164 87.0456 25.2039 89.0274 26.2294 90.9361H37.8193C40.016 97.9055 43.2727 104.484 47.4716 110.435C50.4784 111.742 53.6195 112.706 56.8368 113.309C50.9806 106.833 46.4768 99.2225 43.5963 90.9361H62.4703V114H67.8526V90.9361H86.6548C83.7646 99.2259 79.2484 106.836 73.3785 113.309C76.6109 112.686 79.7642 111.697 82.7796 110.362C86.9718 104.434 90.2283 97.8801 92.4319 90.9361H103.914C104.935 89.0626 105.822 87.1175 106.569 85.1156H93.8313C95.0137 79.9012 95.6155 74.5687 95.6254 69.2183C95.6104 64.3267 95.0933 59.45 94.0824 54.6669H107C106.785 54.0485 106.569 53.4665 106.318 52.8844C101.902 52.6038 97.6239 51.2164 93.8671 48.8464H92.5754C92.5754 48.4462 92.2883 48.0825 92.1807 47.6823C88.9729 45.3101 86.3241 42.2458 84.4254 38.7105C82.5267 35.1751 81.4254 31.2567 81.2008 27.2377C78.621 26.1107 75.9418 25.2337 73.1991 24.6184ZM62.4344 84.9701H41.8381C39.3119 74.9582 39.2011 64.4768 41.5152 54.4123H62.4344V84.9701ZM90.2431 69.1091C90.2253 74.4699 89.5625 79.8084 88.2695 85.0065H67.8167V54.5578H88.736C89.7668 59.3369 90.2722 64.2172 90.2431 69.1091Z" fill="#A3B5FF"/>
<g clip-path="url(#clip0_0_1)">
<path d="M91.3673 31.4979C91.8689 33.3136 92.2192 34.8917 92.7895 36.4122C92.9166 36.7515 93.8201 36.928 94.3834 36.9314C102.745 36.962 111.106 36.9518 119.461 36.9586C120.756 36.9586 122.415 36.6735 122.442 38.5774C122.47 40.4813 120.817 40.2506 119.516 40.2506C110.694 40.2506 101.877 40.2506 93.0643 40.2506C90.5635 40.2506 90.2303 39.9926 89.5947 37.6713C86.5992 26.7567 83.5831 15.849 80.6357 4.92428C80.2921 3.67196 79.7769 3.18663 78.4303 3.2613C76.3176 3.38008 74.1946 3.27827 72.0751 3.29863C70.8865 3.29863 69.983 2.93889 70.014 1.60172C70.014 0.376554 70.9277 -0.000164256 72.0133 -0.00355808C74.8782 -0.00355808 77.7398 -0.0307087 80.6013 -0.00355808C82.0269 0.013411 82.9064 0.753263 83.322 2.13794C83.7377 3.52262 83.9163 5.48086 84.9194 6.21053C85.9225 6.9402 87.7809 6.42434 89.2684 6.42774H125.507C128.877 6.42774 129.481 7.18795 128.684 10.4121C127.166 16.5639 125.638 22.7136 124.102 28.8609C123.524 31.1857 123.16 31.4504 120.666 31.4504H91.3673V31.4979ZM85.4141 9.81138C86.0668 12.2108 86.637 14.3795 87.2725 16.5345C87.3618 16.8366 87.7638 17.2608 88.0317 17.2676C90.2749 17.3253 92.525 17.3015 94.9193 17.3015C94.6136 14.6069 94.3422 12.2278 94.064 9.81138H85.4141ZM107.891 17.3253C109.773 17.3253 111.477 17.3728 113.174 17.2846C113.393 17.2322 113.596 17.1265 113.763 16.9772C113.931 16.8278 114.058 16.6395 114.133 16.4293C114.435 14.2776 114.62 12.109 114.854 9.88604H107.891V17.3253ZM125.41 9.75029C123.14 9.75029 121.092 9.70956 119.052 9.7944C118.837 9.8597 118.642 9.97716 118.485 10.136C118.327 10.2949 118.213 10.4902 118.152 10.704C117.856 12.8183 117.674 14.9462 117.43 17.3117C119.306 17.3117 121.061 17.3423 122.81 17.2846C122.989 17.2542 123.158 17.1811 123.302 17.0718C123.447 16.9624 123.562 16.8199 123.638 16.6567C124.266 14.4405 124.806 12.204 125.424 9.75029H125.41ZM104.377 17.3253V9.89961H97.4717C97.7053 12.1395 97.8771 14.22 98.1828 16.28C98.2412 16.6669 98.8115 17.254 99.1721 17.2778C100.869 17.3864 102.573 17.3253 104.377 17.3253ZM96.0976 28.1855C95.8434 25.7725 95.6545 23.6412 95.3556 21.5268C95.2862 21.3165 95.1642 21.1269 95.0009 20.9756C94.8375 20.8244 94.6381 20.7163 94.4212 20.6614C92.4941 20.58 90.5635 20.6207 88.3821 20.6207C89.0485 23.0473 89.6291 25.2702 90.299 27.466C90.3963 27.6475 90.5357 27.8037 90.7059 27.9217C90.8761 28.0397 91.0721 28.1161 91.278 28.1448C92.8032 28.2364 94.3353 28.1957 96.0976 28.1957V28.1855ZM113.7 20.6377C111.886 20.6377 110.354 20.5868 108.832 20.675C108.488 20.6954 107.877 21.1773 107.867 21.4658C107.784 23.6412 107.822 25.8234 107.822 28.2025C109.361 28.2025 110.715 28.25 112.058 28.1686C112.253 28.1249 112.433 28.0337 112.583 27.9033C112.733 27.7729 112.848 27.6074 112.916 27.4219C113.219 25.2431 113.428 23.0643 113.7 20.6377ZM99.4607 28.1041H104.37V20.7395H98.6706C98.9385 23.2407 99.1893 25.6232 99.4607 28.1041ZM117.052 20.7123C116.778 23.2102 116.513 25.6334 116.231 28.1787C117.678 28.1787 118.818 28.2296 119.948 28.1482C120.292 28.121 120.855 27.8088 120.938 27.5102C121.56 25.2974 122.092 23.0609 122.683 20.6954L117.052 20.7123Z" fill="#7C7C7C"/>
<path d="M116.812 48.9978C115.888 48.9838 115.005 48.6151 114.351 47.9696C113.697 47.3241 113.323 46.4526 113.308 45.5395C113.31 44.6151 113.684 43.7294 114.348 43.0774C114.676 42.7545 115.065 42.4987 115.494 42.3246C115.922 42.1504 116.381 42.0614 116.845 42.0625C117.308 42.0636 117.767 42.1549 118.194 42.3311C118.622 42.5073 119.01 42.7649 119.337 43.0894C119.664 43.4138 119.923 43.7987 120.099 44.222C120.275 44.6453 120.365 45.0987 120.364 45.5565C120.326 46.4687 119.937 47.3323 119.277 47.9716C118.618 48.6109 117.736 48.9779 116.812 48.9978Z" fill="#7C7C7C"/>
<path d="M91.2154 45.4338C91.2227 44.5211 91.5967 43.6487 92.2551 43.0084C92.9135 42.3681 93.8024 42.0124 94.7262 42.0196C95.6501 42.0268 96.5332 42.3963 97.1813 43.0468C97.8294 43.6973 98.1894 44.5754 98.1821 45.4881C98.1748 46.4008 97.8008 47.2733 97.1424 47.9136C96.484 48.5538 95.5951 48.9095 94.6713 48.9023C93.7474 48.8951 92.8643 48.5256 92.2162 47.8752C91.5682 47.2247 91.2082 46.3465 91.2154 45.4338Z" fill="#7C7C7C"/>
</g>
<defs>
<clipPath id="clip0_0_1">
<rect width="59" height="49" fill="white" transform="translate(70)"/>
</clipPath>
</defs>
</svg>
