<svg width="81" height="81" viewBox="0 0 81 81" fill="none" xmlns="http://www.w3.org/2000/svg">
<g clip-path="url(#clip0_1_3871)">
<path d="M56 52.5V7H7L6 70.5L56 71V63.5" stroke="black" stroke-width="2"/>
<path d="M66.4151 51.7608L62.2417 47.5861C62.0565 47.4003 61.8365 47.2529 61.5942 47.1523C61.3519 47.0518 61.0922 47 60.8299 47C60.5676 47 60.3079 47.0518 60.0657 47.1523C59.8234 47.2529 59.6034 47.4003 59.4181 47.5861L42.4396 64.6691L41.0402 70.6277C40.9878 70.8848 40.9866 71.1497 41.0367 71.4072C41.0868 71.6647 41.1872 71.9098 41.3322 72.1284C41.4771 72.3471 41.6638 72.535 41.8814 72.6814C42.0991 72.8277 42.3435 72.9297 42.6006 72.9814C42.7282 72.9943 42.8568 72.9943 42.9845 72.9814C43.1362 73.0062 43.291 73.0062 43.4427 72.9814L49.449 71.6559L66.4151 54.6472C66.6005 54.463 66.7476 54.244 66.848 54.0027C66.9483 53.7614 67 53.5026 67 53.2412C67 52.9798 66.9483 52.7211 66.848 52.4798C66.7476 52.2385 66.6005 52.0194 66.4151 51.8352V51.7608ZM48.1858 69.4013L43.6532 70.4047L44.7554 65.9079L57.4862 53.0368L60.9785 56.5302L48.1858 69.4013ZM62.3779 55.1304L58.8856 51.637L60.8547 49.6921L64.3718 53.2102L62.3779 55.1304Z" fill="black"/>
<circle cx="17" cy="19" r="3" fill="black"/>
<line x1="25" y1="19" x2="48" y2="19" stroke="black" stroke-width="2"/>
<circle cx="17" cy="32" r="3" fill="black"/>
<line x1="25" y1="32" x2="48" y2="32" stroke="black" stroke-width="2"/>
<circle cx="17" cy="44" r="3" fill="black"/>
<circle cx="17" cy="57" r="3" fill="black"/>
<line x1="25" y1="44" x2="44" y2="44" stroke="black" stroke-width="2"/>
<line x1="25" y1="56" x2="32" y2="56" stroke="black" stroke-width="2"/>
</g>
<defs>
<clipPath id="clip0_1_3871">
<rect width="81" height="81" fill="white"/>
</clipPath>
</defs>
</svg>
