<svg width="85" height="68" viewBox="0 0 85 68" fill="none" xmlns="http://www.w3.org/2000/svg">
<path d="M77.9255 22.3624H30.5009V20.5323C30.5034 18.8356 31.1792 17.2087 32.38 16.0096C33.5802 14.81 35.2078 14.136 36.9044 14.1347H57.8335C60.2801 14.1329 62.6266 13.1606 64.3578 11.4306C66.0883 9.70107 67.0626 7.35584 67.0667 4.90881V0H64.3511V4.90881C64.3481 6.6358 63.6601 8.29126 62.4387 9.51144C61.2166 10.7323 59.5605 11.4184 57.8335 11.4191H36.9044C34.4877 11.4209 32.1702 12.3817 30.4603 14.0899C28.7508 15.7987 27.7888 18.1154 27.7853 20.5323V22.3624H6.26182C4.60217 22.3642 3.01034 23.0243 1.83609 24.1984C0.661936 25.372 0.00186216 26.9638 0 28.6242V61.3097C0.00181855 62.97 0.661936 64.5618 1.83609 65.7355C3.01024 66.9096 4.60202 67.5697 6.26182 67.5715H77.9239C79.5836 67.5697 81.1754 66.9096 82.3496 65.7355C83.5232 64.5613 84.1833 62.9702 84.1851 61.3097V28.6242C84.1833 26.9639 83.5232 25.3727 82.349 24.1984C81.1755 23.0243 79.5837 22.3642 77.9239 22.3624H77.9255ZM81.471 61.3094C81.4698 62.2496 81.0958 63.1509 80.4314 63.8153C79.7665 64.4802 78.8657 64.8542 77.9256 64.8555H6.2635C5.32332 64.8542 4.42198 64.4802 3.75765 63.8159C3.09267 63.1509 2.71868 62.2495 2.71746 61.3094V28.6239C2.71868 27.6837 3.09269 26.7823 3.75765 26.1174C4.42201 25.453 5.32342 25.079 6.2635 25.0778H77.9256C78.8658 25.079 79.7665 25.453 80.4314 26.118C81.0958 26.7823 81.4698 27.6838 81.471 28.6238V61.3094Z" fill="black"/>
<path d="M14.3112 27.4849H8.93143C8.24705 27.4855 7.59179 27.7576 7.10806 28.2414C6.62434 28.7251 6.35217 29.381 6.35156 30.0647V35.4378C6.35217 36.1222 6.62434 36.7775 7.10806 37.2612C7.59179 37.7449 8.24767 38.0171 8.93143 38.0177H14.3112C14.995 38.0171 15.6508 37.7449 16.1346 37.2612C16.6183 36.7775 16.8905 36.1222 16.8911 35.4378V30.0647C16.8905 29.381 16.6183 28.7251 16.1346 28.2414C15.6508 27.7576 14.995 27.4855 14.3112 27.4849ZM14.1754 35.3014L9.06721 35.302V30.2005H14.1754V35.3014Z" fill="black"/>
<path d="M21.1267 38.0171H26.5065H26.5059C27.1897 38.0165 27.8455 37.7443 28.3293 37.2606C28.8124 36.7768 29.0846 36.1216 29.0852 35.4372V30.0647C29.0846 29.381 28.8124 28.7251 28.3293 28.2414C27.8455 27.7582 27.1897 27.4861 26.5059 27.4849H21.1268C20.4424 27.4855 19.7865 27.7576 19.3028 28.2414C18.819 28.7251 18.5475 29.381 18.5469 30.0647V35.4378C18.5475 36.1216 18.8196 36.7775 19.3028 37.2612C19.7865 37.7449 20.4424 38.0165 21.1268 38.0171L21.1267 38.0171ZM21.2625 30.2005H26.3695V35.3014H21.2625V30.2005Z" fill="black"/>
<path d="M33.3064 38.0166H38.6862C39.37 38.016 40.0258 37.7444 40.5096 37.2607C40.9933 36.777 41.2655 36.1211 41.2661 35.4367V30.0642C41.2655 29.3805 40.9933 28.7246 40.5096 28.2409C40.0258 27.7572 39.37 27.485 38.6862 27.4844H33.3064C32.6227 27.485 31.9668 27.7572 31.4831 28.2409C30.9993 28.7246 30.7272 29.3805 30.7266 30.0642V35.4373C30.7272 36.1211 30.9993 36.777 31.4831 37.2607C31.9668 37.7444 32.6227 38.016 33.3064 38.0166ZM33.4422 30.2H38.5498V35.301H33.4422V30.2Z" fill="black"/>
<path d="M45.5005 38.0171H50.8803C51.564 38.0165 52.2199 37.7443 52.7037 37.2606C53.1874 36.7775 53.4596 36.1216 53.4602 35.4372V30.0647C53.4596 29.381 53.1874 28.7251 52.7037 28.2414C52.2199 27.7576 51.564 27.4861 50.8803 27.4849H45.5005C44.8168 27.4861 44.1615 27.7582 43.6778 28.242C43.194 28.7257 42.9225 29.381 42.9219 30.0647V35.4378C42.9225 36.1216 43.1946 36.7775 43.6778 37.2606C44.1615 37.7443 44.8168 38.0165 45.5005 38.0171V38.0171ZM45.6369 30.2005H50.7445V35.3014H45.6375L45.6369 30.2005Z" fill="black"/>
<path d="M63.0678 27.4849H57.6886C57.0049 27.4861 56.349 27.7583 55.8653 28.242C55.3822 28.7257 55.11 29.381 55.1094 30.0647V35.4378C55.11 36.1216 55.3822 36.7775 55.8659 37.2612C56.349 37.7449 57.0049 38.0171 57.6886 38.0177H63.0684H63.0678C63.7522 38.0171 64.408 37.7449 64.8912 37.2612C65.3749 36.7775 65.6471 36.1216 65.6477 35.4378V30.0647C65.6471 29.381 65.3749 28.7251 64.8918 28.2414C64.408 27.7576 63.7522 27.4861 63.0678 27.4849L63.0678 27.4849ZM62.932 35.3014L57.825 35.3021V30.2005H62.9326L62.932 35.3014Z" fill="black"/>
<path d="M75.2565 27.4849H69.8767C69.193 27.4861 68.5371 27.7576 68.0534 28.2414C67.5697 28.7251 67.2981 29.381 67.2969 30.0647V35.4378C67.2981 36.1216 67.5697 36.7775 68.0534 37.2612C68.5371 37.7449 69.193 38.0171 69.8767 38.0177H75.2565C75.9403 38.0171 76.5962 37.7449 77.0793 37.2612C77.563 36.7775 77.8352 36.1216 77.8358 35.4378V30.0647C77.8352 29.381 77.563 28.7257 77.0793 28.242C76.5961 27.7583 75.9403 27.4861 75.2565 27.4849V27.4849ZM75.1201 35.3014L70.0138 35.302V30.2005H75.1201V35.3014Z" fill="black"/>
<path d="M14.3112 39.7007H8.93143C8.24767 39.7013 7.59179 39.9735 7.10806 40.4572C6.62434 40.9403 6.35217 41.5962 6.35156 42.2799V47.6537C6.35217 48.3374 6.62434 48.9933 7.10806 49.4764C7.59179 49.9601 8.24767 50.2323 8.93143 50.2329H14.3112C14.995 50.2323 15.6508 49.9601 16.1346 49.477C16.6177 48.9933 16.8899 48.3374 16.8911 47.6537V42.2799C16.8899 41.5962 16.6177 40.9403 16.1346 40.4572C15.6508 39.9735 14.995 39.7013 14.3112 39.7007V39.7007ZM14.1754 47.5166L9.06721 47.5173V42.4163H14.1754V47.5166Z" fill="black"/>
<path d="M21.1267 50.2324H26.5065H26.5059C27.1897 50.2312 27.8455 49.9596 28.3286 49.4759C28.8124 48.9928 29.0845 48.3369 29.0851 47.6532V42.2794C29.0845 41.5957 28.8124 40.9404 28.3286 40.4567C27.8455 39.973 27.1897 39.7014 26.5059 39.7002H21.1267C20.4424 39.7008 19.7865 39.973 19.3034 40.4567C18.8197 40.9398 18.5475 41.5957 18.5469 42.2794V47.6532C18.5475 48.3369 18.8197 48.9928 19.3034 49.4765C19.7871 49.9597 20.4424 50.2318 21.1267 50.2324L21.1267 50.2324ZM21.2625 42.4165L26.3695 42.4159V47.5162L21.2625 47.5168V42.4165Z" fill="black"/>
<path d="M33.3064 50.2324H38.6862C39.37 50.2318 40.0258 49.9596 40.5096 49.4759C40.9927 48.9928 41.2649 48.3369 41.2661 47.6532V42.2794C41.2649 41.5957 40.9927 40.9398 40.5096 40.4567C40.0258 39.973 39.37 39.7008 38.6862 39.7002H33.3064C32.6227 39.7008 31.9668 39.973 31.4831 40.4567C30.9993 40.9398 30.7272 41.5957 30.7266 42.2794V47.6532C30.7272 48.3369 30.9993 48.9928 31.4831 49.4765C31.9668 49.9597 32.6227 50.2318 33.3064 50.2324V50.2324ZM33.4422 42.4165H38.5498V47.5168H33.4422V42.4165Z" fill="black"/>
<path d="M45.5005 50.2324H50.8803C51.564 50.2312 52.2199 49.9596 52.7037 49.4759C53.1874 48.9928 53.4596 48.3369 53.4602 47.6532V42.2794C53.4596 41.5957 53.1874 40.9404 52.7037 40.4567C52.2199 39.973 51.564 39.7014 50.8803 39.7002H45.5005C44.8168 39.7014 44.1615 39.9736 43.6778 40.4567C43.1946 40.9404 42.9225 41.5957 42.9219 42.2794V47.6532C42.9225 48.3369 43.1946 48.9922 43.6778 49.4759C44.1615 49.959 44.8168 50.2312 45.5005 50.2324ZM45.6369 42.4165H50.7445V47.5168H45.6375L45.6369 42.4165Z" fill="black"/>
<path d="M63.0678 39.7007H57.6886C57.0049 39.7019 56.349 39.9741 55.8659 40.4572C55.3822 40.9409 55.1106 41.5962 55.1094 42.2799V47.6537C55.1106 48.3374 55.3822 48.9927 55.8659 49.4764C56.3496 49.9595 57.0049 50.2317 57.6886 50.2329H63.0684H63.0678C63.7522 50.2317 64.4074 49.9601 64.8912 49.4764C65.3749 48.9933 65.6471 48.3374 65.6477 47.6537V42.2799C65.6471 41.5962 65.3749 40.9409 64.8912 40.4572C64.4074 39.9735 63.7522 39.7019 63.0678 39.7007H63.0678ZM62.932 47.5166L57.825 47.5172V42.4163H62.9326L62.932 47.5166Z" fill="black"/>
<path d="M75.2565 39.7007H69.8767C69.193 39.7019 68.5377 39.9735 68.054 40.4572C67.5703 40.9403 67.2981 41.5962 67.2969 42.2799V47.6537C67.2981 48.3374 67.5703 48.9933 68.054 49.4764C68.5377 49.9601 69.193 50.2323 69.8767 50.2329H75.2565C75.9403 50.2317 76.5955 49.9595 77.0792 49.4764C77.5624 48.9927 77.8345 48.3374 77.8357 47.6537V42.2799C77.8345 41.5962 77.563 40.9409 77.0792 40.4572C76.5955 39.9741 75.9403 39.7019 75.2565 39.7007ZM75.1201 47.5166L70.0138 47.5172V42.4163H75.1201V47.5166Z" fill="black"/>
<path d="M14.3112 51.9165H8.93143C8.24767 51.9171 7.59179 52.1887 7.10806 52.6724C6.62434 53.1561 6.35217 53.812 6.35156 54.4964V59.8695C6.35217 60.5539 6.62434 61.2097 7.10806 61.6935C7.59179 62.1772 8.24767 62.4488 8.93143 62.4494H14.3112C14.995 62.4488 15.6508 62.1772 16.1346 61.6935C16.6183 61.2097 16.8905 60.5539 16.8911 59.8695V54.4958C16.8905 53.812 16.6183 53.1561 16.1346 52.6724C15.6508 52.1887 14.995 51.9171 14.3112 51.9165ZM14.1754 59.7331H9.06721V54.6322H14.1754V59.7331Z" fill="black"/>
<path d="M51.8213 51.9165H21.1268C20.4424 51.9171 19.7865 52.1893 19.3028 52.673C18.8197 53.1561 18.5475 53.812 18.5469 54.4964V59.8695C18.5475 60.5538 18.8197 61.2097 19.3028 61.6928C19.7865 62.1766 20.4424 62.4487 21.1268 62.4493H51.8213C52.5051 62.4487 53.161 62.1766 53.6441 61.6928C54.1278 61.2091 54.3994 60.5538 54.4006 59.8695V54.4957C54.3994 53.812 54.1278 53.1567 53.6441 52.673C53.1604 52.1893 52.5051 51.9171 51.8213 51.9165ZM51.685 59.7331H21.2619V54.6322H51.685V59.7331Z" fill="black"/>
<path d="M63.0678 51.9165H57.6886C57.0049 51.9171 56.349 52.1893 55.8659 52.673C55.3822 53.1567 55.11 53.812 55.1094 54.4964V59.8695C55.11 60.5538 55.3822 61.2091 55.8659 61.6928C56.349 62.1766 57.0049 62.4487 57.6886 62.4493H63.0684H63.0678C63.7522 62.4487 64.408 62.1766 64.8912 61.6928C65.3749 61.2097 65.6471 60.5538 65.6477 59.8695V54.4957C65.6471 53.812 65.3749 53.1561 64.8912 52.673C64.408 52.1893 63.7522 51.9171 63.0678 51.9165H63.0678ZM62.932 59.7331H57.825V54.6322H62.9326L62.932 59.7331Z" fill="black"/>
<path d="M75.2565 51.9165H69.8767C69.193 51.9171 68.5371 52.1893 68.0534 52.6724C67.5697 53.1561 67.2981 53.812 67.2969 54.4964V59.8695C67.2981 60.5539 67.5697 61.2097 68.0534 61.6935C68.5371 62.1766 69.193 62.4488 69.8767 62.4494H75.2565C75.9403 62.4488 76.5962 62.1766 77.0793 61.6929C77.563 61.2091 77.8352 60.5539 77.8358 59.8695V54.4958C77.8346 53.812 77.563 53.1568 77.0793 52.673C76.5961 52.1893 75.9403 51.9171 75.2565 51.9165V51.9165ZM75.1201 59.7331H70.0138V54.6322H75.1201V59.7331Z" fill="black"/>
</svg>
