<svg width="128" height="118" viewBox="0 0 128 118" fill="none" xmlns="http://www.w3.org/2000/svg">
<path d="M3.53553 72.4553L50.5546 25.4363L92.013 25.4362C93.1176 25.4362 94.013 26.3316 94.013 27.4362L94.013 65.8059L45.2356 114.173C44.0626 115.336 42.17 115.332 41.002 114.164L3.53554 76.698C2.36396 75.5264 2.36396 73.6269 3.53553 72.4553Z" fill="white" stroke="#313131" stroke-width="2"/>
<circle cx="72.247" cy="46.144" r="7.87204" stroke="#313131" stroke-width="3"/>
<line x1="23.0548" y1="74.2603" x2="44.1335" y2="95.3389" stroke="#313131" stroke-width="2" stroke-linecap="round"/>
<path d="M99.278 30.0673V29.0673H98.278H82.9661C80.7842 29.0673 79 27.28 79 25.0561C79 22.8322 80.7842 21.0448 82.9661 21.0448H98.1972H99.1972V20.0448V5.01125C99.1972 2.78734 100.981 1 103.163 1C105.345 1 107.129 2.78734 107.129 5.01125V19.615V20.615H108.129H123.034C125.216 20.615 127 22.4023 127 24.6262C127 26.8502 125.216 28.6375 123.034 28.6375H107.796H106.796V29.6375V45.1975C106.796 47.3061 105.105 49 103.037 49C100.97 49 99.278 47.3061 99.278 45.1975V30.0673Z" stroke="#313131" stroke-width="2"/>
</svg>
