<svg width="84" height="114" viewBox="0 0 84 114" fill="none" xmlns="http://www.w3.org/2000/svg">
<path d="M83.9964 91.4588C83.9964 95.0134 83.9964 98.5688 83.9964 102.125C83.9964 104.654 83.4263 105.385 81.0067 105.907C68.668 108.57 56.3278 111.224 43.9861 113.869C43.7715 113.942 43.5483 113.985 43.3225 113.998C40.8482 113.798 38.3944 113.593 35.9452 113.046C24.8418 110.565 13.7132 108.218 2.59153 105.813C0.872077 105.443 0.0830449 104.601 0.0283144 102.842C-0.0241357 101.506 0.0123514 100.168 0.0123514 98.8301C0.0123514 92.751 -0.0104542 86.6718 0.0397155 80.5926C0.0318668 79.7281 0.251401 78.8768 0.67596 78.1256C0.997502 77.6083 1.8025 77.2059 2.4433 77.1116C6.77614 76.4885 11.1409 75.962 15.492 75.401C20.3676 74.7641 25.2386 74.1042 30.1142 73.4581C33.8267 72.9661 37.5324 72.3844 41.261 72.0372C42.8116 71.8947 44.4171 72.1936 45.9837 72.3936C52.1751 73.1868 58.3597 74.0169 64.5488 74.8354C69.9489 75.5504 75.3512 76.254 80.7399 76.9967C83.4331 77.3668 83.9873 78.052 83.9896 80.7858C83.9972 84.345 83.9994 87.9027 83.9964 91.4588ZM81.5974 79.5166C81.0751 79.5879 80.7057 79.6155 80.3454 79.6937C68.3503 82.2826 56.3552 84.8677 44.3601 87.4489C43.4479 87.6444 43.1423 87.9985 43.1492 88.9618C43.1925 96.0642 43.1697 103.169 43.1765 110.271C43.1765 110.671 43.2267 111.069 43.2609 111.552C43.945 111.412 44.5015 111.31 45.0465 111.193C56.8569 108.641 68.665 106.073 80.4822 103.562C81.3944 103.367 81.6225 103.01 81.6225 102.139C81.5928 94.995 81.6065 87.8513 81.6065 80.7053L81.5974 79.5166ZM40.6749 111.556C40.7467 111.283 40.7962 111.005 40.8231 110.724C40.8231 103.353 40.8231 95.9814 40.8459 88.6078C40.8459 87.8352 40.4674 87.6306 39.8562 87.5041C38.155 87.1546 36.4568 86.7952 34.7617 86.4258C25.421 84.4071 16.0819 82.3876 6.74421 80.3673C5.3577 80.0684 3.96207 79.8063 2.51855 79.5166C2.47087 79.7574 2.43737 80.0007 2.41822 80.2455C2.41822 87.6582 2.41822 95.0709 2.39997 102.484C2.39997 103.173 2.68731 103.387 3.31215 103.518C15.7109 106.174 28.1119 108.85 40.6749 111.556ZM73.5132 78.6912L73.6135 78.5164C71.3719 78.2106 69.1302 77.8957 66.8885 77.5968C60.6629 76.7713 54.4373 75.9873 48.2163 75.1251C44.652 74.6376 41.1332 74.2537 37.5096 74.8561C32.0366 75.7758 26.4951 76.3782 20.9856 77.1162L10.5753 78.5164C10.8589 78.7281 11.1877 78.8699 11.5354 78.9303C20.2855 80.8226 29.0309 82.747 37.7947 84.568C39.7285 84.9704 41.5825 85.6831 43.7238 85.1911C53.6346 82.931 63.5819 80.8479 73.5132 78.6912Z" fill="black"/>
<path d="M41.9991 33.1078L50.3612 41.8255H45.1574H44.1574V42.8255V59H39.8244V42.8186V41.8186H38.8244H33.6378L41.9991 33.1078ZM32.6646 41.8186C32.6652 41.8186 32.6658 41.8186 32.6664 41.8186L32.6646 41.8186ZM32.5864 42.2036L32.4873 42.2624L32.5864 42.2036Z" stroke="black" stroke-width="2"/>
<path d="M24.5 51.5C17.8726 51.5 12 45.6274 12 39C12 32.3726 17.8726 27 24.5 27" stroke="black" stroke-width="2"/>
<path d="M59 27C65.6274 27 71.5 32.8726 71.5 39.5C71.5 46.1274 65.6274 51.5 59 51.5" stroke="black" stroke-width="2"/>
<path d="M59 28C59 18.6112 51.3888 10 42 10C32.6112 10 25 18.6112 25 28" stroke="black" stroke-width="2"/>
</svg>
