<svg width="108" height="117" viewBox="0 0 108 117" fill="none" xmlns="http://www.w3.org/2000/svg">
<path d="M82.4863 111.677C59.7413 116.025 46.867 116.262 24.0635 111.694C26.9667 72.5681 24.0329 34.1724 17.6955 12.512L38.6967 1.77806C41.2792 5.27617 43.6558 8.07519 45.9562 10.062C48.4081 12.1796 50.8555 13.4455 53.4473 13.5712C56.0503 13.6975 58.606 12.6651 61.2511 10.5903C63.7425 8.63601 66.3785 5.70705 69.2964 1.78333L89.8311 12.5174C83.2908 37.6837 81.636 59.2655 82.4863 111.677Z" fill="#A3B5FF" stroke="#7C7C7C" stroke-width="2"/>
<path d="M15.6685 49.3995L1.31699 37.1086L16.4472 13.9114C17.2788 15.569 18.0147 17.7323 18.6458 20.1651C19.4612 23.3087 20.0792 26.812 20.5126 30.0661C20.946 33.3198 21.1918 36.3023 21.2677 38.3983C21.3016 39.3339 21.3007 40.0679 21.272 40.5629C21.0841 40.6481 20.9304 40.7612 20.8175 40.8545C20.4827 41.1316 20.1446 41.5467 19.8297 41.983C19.1829 42.8793 18.4401 44.142 17.7489 45.3979C17.0528 46.6627 16.3902 47.9552 15.9026 48.9293C15.8193 49.0957 15.741 49.253 15.6685 49.3995Z" fill="#A3B5FF" stroke="#41595F" stroke-width="2"/>
<path d="M91.6284 49.3995L105.98 37.1086L90.8497 13.9114C90.0181 15.569 89.2821 17.7323 88.6511 20.1651C87.8357 23.3087 87.2176 26.812 86.7843 30.0661C86.3509 33.3198 86.1051 36.3023 86.0291 38.3983C85.9952 39.3339 85.9962 40.0679 86.0248 40.5629C86.2127 40.6481 86.3665 40.7612 86.4793 40.8545C86.8142 41.1316 87.1522 41.5467 87.4671 41.983C88.1139 42.8793 88.8568 44.142 89.548 45.3979C90.244 46.6627 90.9067 47.9552 91.3942 48.9293C91.4775 49.0957 91.5558 49.253 91.6284 49.3995Z" fill="#A3B5FF" stroke="#41595F" stroke-width="2"/>
</svg>
