<svg width="107" height="107" viewBox="0 0 107 107" fill="none" xmlns="http://www.w3.org/2000/svg">
<g clip-path="url(#clip0_1_2468)">
<path d="M70.0328 30.4702C70.0328 30.7036 69.8604 31.1457 69.006 31.7249C68.1855 32.281 66.9324 32.8212 65.2937 33.2906C62.0298 34.2256 57.4615 34.8169 52.3713 34.8169C47.2827 34.8169 42.7157 34.2256 39.4527 33.2907C37.8144 32.8213 36.5617 32.2811 35.7414 31.7249C34.8872 31.1458 34.7148 30.7037 34.7148 30.4702V5.34192C34.7148 5.11103 34.8861 4.67014 35.7409 4.09144C36.5612 3.53604 37.8141 2.9964 39.4525 2.52737C42.7157 1.5932 47.2828 1.00195 52.3713 1.00195C57.4615 1.00195 62.0299 1.5932 65.2939 2.52739C66.9327 2.99643 68.1859 3.53608 69.0065 4.0915C69.8616 4.67024 70.0328 5.11113 70.0328 5.34192V30.4702ZM70.0328 101.796C70.0328 102.027 69.8613 102.468 69.0065 103.047C68.1859 103.602 66.9328 104.142 65.294 104.611C62.03 105.545 57.4616 106.136 52.3713 106.136C47.2828 106.136 42.7157 105.544 39.4525 104.61C37.8141 104.141 36.5612 103.602 35.7409 103.046C34.8861 102.468 34.7148 102.027 34.7148 101.796V76.6674C34.7148 76.4341 34.8871 75.992 35.7413 75.413C36.5616 74.8571 37.8143 74.3171 39.4526 73.8479C42.7156 72.9133 47.2827 72.3225 52.3713 72.3225C57.4615 72.3225 62.0299 72.9137 65.2938 73.8485C66.9325 74.3178 68.1856 74.8579 69.0061 75.4138C69.8607 75.9929 70.0328 76.4347 70.0328 76.6674V101.796Z" stroke="black" stroke-width="2"/>
<path d="M85.683 51.161C85.683 69.2841 70.9956 83.9698 52.8708 83.9698C34.746 83.9698 20.0586 69.2824 20.0586 51.161C20.0586 33.0395 34.746 20.4219 52.8708 20.4219C70.9956 20.4219 85.683 33.0378 85.683 51.161Z" fill="black"/>
<path d="M84 51.0141C84 68.1298 70.1216 82 53 82C35.8784 82 22 68.1298 22 51.0141C22 33.9047 35.8784 22 53 22C70.1216 22 84 33.9047 84 51.0141Z" fill="white"/>
<path d="M55.9099 53.4924C55.9099 55.4819 54.33 57.092 52.3756 57.092C50.4228 57.092 48.8379 55.4819 48.8379 53.4924V36.5663C48.8379 34.5768 50.4212 32.9668 52.3756 32.9668C54.33 32.9668 55.9099 34.5751 55.9099 36.5663V53.4924Z" fill="black"/>
<path d="M52.5862 57.0948C50.5131 57.0948 48.8379 55.998 48.8379 54.6505C48.8379 53.2979 50.5098 52.2012 52.5862 52.2012H70.2312C72.3043 52.2012 73.9812 53.2979 73.9812 54.6505C73.9812 55.998 72.3093 57.0948 70.2312 57.0948H52.5862Z" fill="black"/>
</g>
<defs>
<clipPath id="clip0_1_2468">
<rect width="107" height="107" fill="white"/>
</clipPath>
</defs>
</svg>
