<svg width="127" height="113" viewBox="0 0 127 113" fill="none" xmlns="http://www.w3.org/2000/svg">
<path d="M47.7499 4.20972L48.4835 3.9758L48.5616 4.74175C49.5884 14.8074 56.446 20.7794 63.4898 20.8651H63.5206C70.5595 20.7804 77.4145 14.8096 78.4516 4.74988L78.5305 3.98495L79.2632 4.2185L89.9102 7.61246L47.7499 4.20972ZM47.7499 4.20972L37.1012 7.60551C31.0785 9.52002 28.2001 12.1855 23.8509 16.2131C23.5507 16.491 23.2436 16.7754 22.9279 17.0666L22.9278 17.0667L4.36175 34.1969L3.92906 34.5961L4.30173 35.0519L17.6126 51.3304L18.032 51.8432L18.5196 51.3947L27.1843 43.4242L27.3862 43.2385V42.9642V32.4971H27.3863L27.386 32.4838C27.3696 31.7129 27.9888 31.0809 28.7494 31.0757L28.7494 31.0758L28.7581 31.0756C29.5422 31.0591 30.182 31.6986 30.1662 32.4845H30.1661V32.4971V108.963V109.587L30.7909 109.588L96.2151 109.605L96.8403 109.605V108.98V32.4972V32.4813L96.8395 32.4655C96.8125 31.9325 96.9912 31.5867 97.2284 31.3674C97.4791 31.1357 97.8417 31.0039 98.2287 31.0039C98.6157 31.0039 98.9782 31.1357 99.2287 31.3674C99.4658 31.5866 99.6444 31.9323 99.6172 32.4653L99.6164 32.4812V32.4972V42.9643V43.2384L99.8181 43.4241L108.493 51.4101L108.981 51.8591L109.401 51.3457L122.71 35.0567L123.083 34.6009M47.7499 4.20972L123.083 34.6009M123.083 34.6009L122.65 34.2018M123.083 34.6009L122.65 34.2018M122.65 34.2018L104.075 17.0663M122.65 34.2018L104.075 17.0663M76.4296 0.86986L76.344 0.891726C72.0623 1.98614 68.036 2.3545 63.4464 2.34684C63.4462 2.34684 63.446 2.34684 63.4458 2.34684L63.4469 1.72184L76.4296 0.86986ZM76.4296 0.86986L76.5057 0.825152M76.4296 0.86986L76.5057 0.825152M76.5057 0.825152C76.7382 0.68866 76.9898 0.620365 77.2362 0.625245C77.5142 0.632017 77.7834 0.720734 78.0158 0.885198L78.095 0.941329M76.5057 0.825152L78.095 0.941329M78.095 0.941329L78.1876 0.97074M78.095 0.941329L78.1876 0.97074M78.1876 0.97074L90.7445 4.9594C90.7445 4.95941 90.7445 4.95942 90.7446 4.95943C97.3015 7.04309 100.766 10.2369 105.282 14.4005C105.506 14.6075 105.734 14.817 105.964 15.0288C105.964 15.0289 105.964 15.0289 105.964 15.029L125.924 33.4497C125.924 33.4497 125.925 33.4498 125.925 33.4498M78.1876 0.97074L125.925 33.4498M104.075 17.0663L104.075 17.066C103.774 16.7885 103.482 16.5171 103.195 16.2517C98.8289 12.2026 95.9502 9.53321 89.9107 7.61259L104.075 17.0663ZM125.925 33.4498C126.466 33.9498 126.526 34.7789 126.068 35.3496M125.925 33.4498L126.068 35.3496M126.068 35.3496C126.068 35.3502 126.067 35.3509 126.067 35.3515L126.068 35.3496ZM52.0721 3.94155L51.2319 3.76265L51.3202 4.61713C52.2361 13.4749 57.9567 18.0045 63.4945 18.0813L63.5031 18.0814L63.5118 18.0813C69.0491 18.0045 74.7682 13.4781 75.6831 4.63437L75.7714 3.78119L74.9322 3.95856C71.1459 4.75883 67.4554 5.13377 63.5231 5.10353V5.10347L63.5147 5.10352C59.5713 5.12619 55.8654 4.74927 52.0721 3.94155Z" fill="black" stroke="white" stroke-width="1.25"/>
</svg>
