<svg width="55" height="41" viewBox="0 0 55 41" fill="none" xmlns="http://www.w3.org/2000/svg">
<path d="M53.9978 20.5C53.9978 31.2728 45.296 40 34.5692 40C23.8424 40 15.1406 31.2728 15.1406 20.5C15.1406 9.72715 23.8424 1 34.5692 1C45.296 1 53.9978 9.72715 53.9978 20.5Z" stroke="#3E3E3E" stroke-width="2"/>
<path d="M36.9207 21.2778C37.3503 20.8482 37.3503 20.1518 36.9207 19.7222L29.9203 12.7218C29.4907 12.2922 28.7943 12.2922 28.3647 12.7218C27.9351 13.1514 27.9351 13.8479 28.3647 14.2775L34.5872 20.5L28.3647 26.7225C27.9351 27.1521 27.9351 27.8486 28.3647 28.2782C28.7943 28.7078 29.4907 28.7078 29.9203 28.2782L36.9207 21.2778ZM0 21.6H36.1429V19.4H0V21.6Z" fill="#3E3E3E"/>
</svg>
