<svg width="71" height="78" viewBox="0 0 71 78" fill="none" xmlns="http://www.w3.org/2000/svg">
<rect y="71" width="32" height="7" rx="3.5" fill="black"/>
<rect y="53" width="71" height="7" rx="3.5" fill="black"/>
<rect y="44" width="71" height="7" rx="3.5" fill="black"/>
<rect y="35" width="71" height="7" rx="3.5" fill="black"/>
<rect y="26" width="71" height="7" rx="3.5" fill="black"/>
<rect y="17" width="71" height="7" rx="3.5" fill="black"/>
<rect x="39" y="8" width="32" height="7" rx="3.5" fill="black"/>
<rect x="39" width="32" height="7" rx="3.5" fill="black"/>
<rect y="62" width="32" height="7" rx="3.5" fill="#050505"/>
<circle cx="35.5" cy="38.5" r="27.5" fill="white"/>
<circle cx="35.5" cy="39.5" r="20.5" fill="white" stroke="black" stroke-width="4"/>
<path d="M43.04 44.45C43.04 45.99 42.45 47.3 41.27 48.38C40.09 49.44 38.36 50.03 36.08 50.15V53.6H34.58V50.18C33.12 50.1 31.74 49.82 30.44 49.34C29.16 48.84 28.15 48.21 27.41 47.45L28.28 45.74C28.98 46.42 29.89 46.99 31.01 47.45C32.15 47.91 33.34 48.18 34.58 48.26V40.37C33.2 40.03 32.05 39.67 31.13 39.29C30.21 38.89 29.44 38.32 28.82 37.58C28.22 36.82 27.92 35.82 27.92 34.58C27.92 33.04 28.48 31.75 29.6 30.71C30.72 29.65 32.38 29.03 34.58 28.85V25.4H36.08V28.82C37.22 28.86 38.32 29.05 39.38 29.39C40.46 29.71 41.39 30.14 42.17 30.68L41.42 32.45C40.6 31.93 39.73 31.52 38.81 31.22C37.89 30.92 36.98 30.75 36.08 30.71V38.66C37.56 39.02 38.77 39.39 39.71 39.77C40.65 40.13 41.44 40.69 42.08 41.45C42.72 42.21 43.04 43.21 43.04 44.45ZM30.11 34.52C30.11 35.56 30.49 36.35 31.25 36.89C32.03 37.43 33.14 37.89 34.58 38.27V30.77C33.1 30.89 31.98 31.3 31.22 32C30.48 32.68 30.11 33.52 30.11 34.52ZM36.08 48.26C37.66 48.14 38.85 47.75 39.65 47.09C40.45 46.43 40.85 45.59 40.85 44.57C40.85 43.49 40.44 42.68 39.62 42.14C38.8 41.6 37.62 41.14 36.08 40.76V48.26Z" fill="black"/>
</svg>
