<svg width="65" height="71" viewBox="0 0 65 71" fill="none" xmlns="http://www.w3.org/2000/svg">
    <rect y="64.6279" width="29.2958" height="6.3718" rx="3.1859" fill="#41595F"/>
    <rect y="48.2432" width="65" height="6.37179" rx="3.1859" fill="#41595F"/>
    <rect y="40.0518" width="65" height="6.3718" rx="3.1859" fill="#41595F"/>
    <rect y="31.8594" width="65" height="6.3718" rx="3.1859" fill="#41595F"/>
    <rect y="23.667" width="65" height="6.3718" rx="3.1859" fill="#41595F"/>
    <rect y="15.4746" width="65" height="6.37179" rx="3.1859" fill="#41595F"/>
    <rect x="35.7042" y="7.28223" width="29.2958" height="6.37179" rx="3.1859" fill="#41595F"/>
    <rect x="35.7042" width="29.2958" height="6.37179" rx="3.1859" fill="#41595F"/>
    <rect y="56.4355" width="29.2958" height="6.3718" rx="3.1859" fill="#41595F"/>
    <ellipse cx="32.5" cy="35.0447" rx="25.1761" ry="25.0321" fill="white"/>
    <path d="M51.0986 35.9554C51.0986 46.1512 42.7826 54.4361 32.5 54.4361C22.2175 54.4361 13.9014 46.1512 13.9014 35.9554C13.9014 25.7595 22.2175 17.4746 32.5 17.4746C42.7826 17.4746 51.0986 25.7595 51.0986 35.9554Z"
          fill="white" stroke="#A3B5FF" stroke-width="4"/>
    <path d="M32.3828 50.5355V22.3355H33.8828V50.5355H32.3828ZM33.0128 47.1155C31.4528 47.1155 29.9528 46.8655 28.5128 46.3655C27.0928 45.8455 25.9928 45.1855 25.2128 44.3855L26.0828 42.6755C26.8228 43.3955 27.8128 44.0055 29.0528 44.5055C30.3128 44.9855 31.6328 45.2255 33.0128 45.2255C34.3328 45.2255 35.4028 45.0655 36.2228 44.7455C37.0628 44.4055 37.6728 43.9555 38.0528 43.3955C38.4528 42.8355 38.6528 42.2155 38.6528 41.5355C38.6528 40.7155 38.4128 40.0555 37.9328 39.5555C37.4728 39.0555 36.8628 38.6655 36.1028 38.3855C35.3428 38.0855 34.5028 37.8255 33.5828 37.6055C32.6628 37.3855 31.7428 37.1555 30.8228 36.9155C29.9028 36.6555 29.0528 36.3155 28.2728 35.8955C27.5128 35.4755 26.8928 34.9255 26.4128 34.2455C25.9528 33.5455 25.7228 32.6355 25.7228 31.5155C25.7228 30.4755 25.9928 29.5255 26.5328 28.6655C27.0928 27.7855 27.9428 27.0855 29.0828 26.5655C30.2228 26.0255 31.6828 25.7555 33.4628 25.7555C34.6428 25.7555 35.8128 25.9255 36.9728 26.2655C38.1328 26.5855 39.1328 27.0355 39.9728 27.6155L39.2228 29.3855C38.3228 28.7855 37.3628 28.3455 36.3428 28.0655C35.3428 27.7855 34.3728 27.6455 33.4328 27.6455C32.1728 27.6455 31.1328 27.8155 30.3128 28.1555C29.4928 28.4955 28.8828 28.9555 28.4828 29.5355C28.1028 30.0955 27.9128 30.7355 27.9128 31.4555C27.9128 32.2755 28.1428 32.9355 28.6028 33.4355C29.0828 33.9355 29.7028 34.3255 30.4628 34.6055C31.2428 34.8855 32.0928 35.1355 33.0128 35.3555C33.9328 35.5755 34.8428 35.8155 35.7428 36.0755C36.6628 36.3355 37.5028 36.6755 38.2628 37.0955C39.0428 37.4955 39.6628 38.0355 40.1228 38.7155C40.6028 39.3955 40.8428 40.2855 40.8428 41.3855C40.8428 42.4055 40.5628 43.3555 40.0028 44.2355C39.4428 45.0955 38.5828 45.7955 37.4228 46.3355C36.2828 46.8555 34.8128 47.1155 33.0128 47.1155Z"
          fill="#A3B5FF"/>
</svg>
