<svg width="34" height="27" viewBox="0 0 34 27" fill="none" xmlns="http://www.w3.org/2000/svg">
<rect width="21" height="3" rx="1.5" fill="black"/>
<rect x="13" y="12" width="21" height="3" rx="1.5" fill="black"/>
<rect y="8" width="21" height="3" rx="1.5" fill="black"/>
<rect x="13" y="20" width="21" height="3" rx="1.5" fill="black"/>
<rect y="4" width="21" height="3" rx="1.5" fill="black"/>
<rect x="13" y="16" width="21" height="3" rx="1.5" fill="black"/>
<rect y="12" width="21" height="3" rx="1.5" fill="black"/>
<rect x="13" y="24" width="21" height="3" rx="1.5" fill="black"/>
<circle cx="18" cy="13" r="10" fill="white"/>
<circle cx="18" cy="13" r="8" fill="black"/>
<path d="M21.728 14.36C21.728 15.032 21.484 15.62 20.996 16.124C20.516 16.62 19.828 16.948 18.932 17.108V18.44H17.24V17.168C16.64 17.136 16.064 17.044 15.512 16.892C14.968 16.74 14.516 16.552 14.156 16.328L15.068 14.264C15.468 14.496 15.916 14.684 16.412 14.828C16.908 14.964 17.384 15.032 17.84 15.032C18.232 15.032 18.512 14.996 18.68 14.924C18.848 14.844 18.932 14.728 18.932 14.576C18.932 14.4 18.82 14.268 18.596 14.18C18.38 14.092 18.02 13.996 17.516 13.892C16.868 13.756 16.328 13.612 15.896 13.46C15.464 13.3 15.088 13.044 14.768 12.692C14.448 12.332 14.288 11.848 14.288 11.24C14.288 10.536 14.54 9.932 15.044 9.428C15.556 8.924 16.288 8.604 17.24 8.468V7.16H18.932V8.444C19.892 8.532 20.704 8.764 21.368 9.14L20.516 11.192C19.692 10.776 18.912 10.568 18.176 10.568C17.448 10.568 17.084 10.744 17.084 11.096C17.084 11.264 17.192 11.392 17.408 11.48C17.624 11.56 17.98 11.648 18.476 11.744C19.116 11.864 19.656 12.004 20.096 12.164C20.536 12.316 20.916 12.568 21.236 12.92C21.564 13.272 21.728 13.752 21.728 14.36Z" fill="white"/>
</svg>
