<svg width="132" height="132" viewBox="0 0 132 132" fill="none" xmlns="http://www.w3.org/2000/svg">
<path d="M38.3745 49V70H33.5145V52.9H29.3145V49H38.3745ZM44.8125 64.42C45.6525 64.42 46.3425 64.69 46.8825 65.23C47.4225 65.75 47.6925 66.44 47.6925 67.3C47.6925 67.7 47.6425 68.1 47.5425 68.5C47.4425 68.9 47.2225 69.5 46.8825 70.3L45.1725 74.62H42.2025L43.5225 69.85C43.0225 69.65 42.6225 69.33 42.3225 68.89C42.0425 68.43 41.9025 67.9 41.9025 67.3C41.9025 66.44 42.1725 65.75 42.7125 65.23C43.2725 64.69 43.9725 64.42 44.8125 64.42ZM65.8571 66.04V70H49.9871V66.85L58.0871 59.2C58.9471 58.38 59.5271 57.68 59.8271 57.1C60.1271 56.5 60.2771 55.91 60.2771 55.33C60.2771 54.49 59.9871 53.85 59.4071 53.41C58.8471 52.95 58.0171 52.72 56.9171 52.72C55.9971 52.72 55.1671 52.9 54.4271 53.26C53.6871 53.6 53.0671 54.12 52.5671 54.82L49.0271 52.54C49.8471 51.32 50.9771 50.37 52.4171 49.69C53.8571 48.99 55.5071 48.64 57.3671 48.64C58.9271 48.64 60.2871 48.9 61.4471 49.42C62.6271 49.92 63.5371 50.64 64.1771 51.58C64.8371 52.5 65.1671 53.59 65.1671 54.85C65.1671 55.99 64.9271 57.06 64.4471 58.06C63.9671 59.06 63.0371 60.2 61.6571 61.48L56.8271 66.04H65.8571ZM75.0624 56.89C78.0224 56.89 80.2024 57.48 81.6024 58.66C83.0224 59.84 83.7324 61.42 83.7324 63.4C83.7324 64.68 83.4124 65.85 82.7724 66.91C82.1324 67.95 81.1524 68.79 79.8324 69.43C78.5324 70.05 76.9224 70.36 75.0024 70.36C73.5224 70.36 72.0624 70.17 70.6224 69.79C69.2024 69.39 67.9924 68.83 66.9924 68.11L68.9124 64.39C69.7124 64.99 70.6324 65.46 71.6724 65.8C72.7124 66.12 73.7824 66.28 74.8824 66.28C76.1024 66.28 77.0624 66.04 77.7624 65.56C78.4624 65.08 78.8124 64.41 78.8124 63.55C78.8124 62.65 78.4424 61.97 77.7024 61.51C76.9824 61.05 75.7224 60.82 73.9224 60.82H68.5524L69.6324 49H82.4424V52.9H73.6824L73.3524 56.89H75.0624ZM94.7042 70.36C92.9642 70.36 91.4142 69.93 90.0542 69.07C88.6942 68.21 87.6242 66.97 86.8442 65.35C86.0842 63.71 85.7042 61.76 85.7042 59.5C85.7042 57.24 86.0842 55.3 86.8442 53.68C87.6242 52.04 88.6942 50.79 90.0542 49.93C91.4142 49.07 92.9642 48.64 94.7042 48.64C96.4442 48.64 97.9942 49.07 99.3542 49.93C100.714 50.79 101.774 52.04 102.534 53.68C103.314 55.3 103.704 57.24 103.704 59.5C103.704 61.76 103.314 63.71 102.534 65.35C101.774 66.97 100.714 68.21 99.3542 69.07C97.9942 69.93 96.4442 70.36 94.7042 70.36ZM94.7042 66.25C95.9842 66.25 96.9842 65.7 97.7042 64.6C98.4442 63.5 98.8142 61.8 98.8142 59.5C98.8142 57.2 98.4442 55.5 97.7042 54.4C96.9842 53.3 95.9842 52.75 94.7042 52.75C93.4442 52.75 92.4442 53.3 91.7042 54.4C90.9842 55.5 90.6242 57.2 90.6242 59.5C90.6242 61.8 90.9842 63.5 91.7042 64.6C92.4442 65.7 93.4442 66.25 94.7042 66.25Z" fill="black"/>
<path d="M42.4198 84H45.5998C46.3598 84 47.0298 84.1467 47.6098 84.44C48.1965 84.7267 48.6498 85.1333 48.9698 85.66C49.2965 86.1867 49.4598 86.8 49.4598 87.5C49.4598 88.2 49.2965 88.8133 48.9698 89.34C48.6498 89.8667 48.1965 90.2767 47.6098 90.57C47.0298 90.8567 46.3598 91 45.5998 91H42.4198V84ZM45.5198 89.67C46.2198 89.67 46.7765 89.4767 47.1898 89.09C47.6098 88.6967 47.8198 88.1667 47.8198 87.5C47.8198 86.8333 47.6098 86.3067 47.1898 85.92C46.7765 85.5267 46.2198 85.33 45.5198 85.33H44.0398V89.67H45.5198ZM52.9816 91.12C52.4282 91.12 51.8916 91.0467 51.3716 90.9C50.8582 90.7467 50.4449 90.55 50.1316 90.31L50.6816 89.09C50.9816 89.31 51.3382 89.4867 51.7516 89.62C52.1649 89.7533 52.5782 89.82 52.9916 89.82C53.4516 89.82 53.7916 89.7533 54.0116 89.62C54.2316 89.48 54.3416 89.2967 54.3416 89.07C54.3416 88.9033 54.2749 88.7667 54.1416 88.66C54.0149 88.5467 53.8482 88.4567 53.6416 88.39C53.4416 88.3233 53.1682 88.25 52.8216 88.17C52.2882 88.0433 51.8516 87.9167 51.5116 87.79C51.1716 87.6633 50.8782 87.46 50.6316 87.18C50.3916 86.9 50.2716 86.5267 50.2716 86.06C50.2716 85.6533 50.3816 85.2867 50.6016 84.96C50.8216 84.6267 51.1516 84.3633 51.5916 84.17C52.0382 83.9767 52.5816 83.88 53.2216 83.88C53.6682 83.88 54.1049 83.9333 54.5316 84.04C54.9582 84.1467 55.3316 84.3 55.6516 84.5L55.1516 85.73C54.5049 85.3633 53.8582 85.18 53.2116 85.18C52.7582 85.18 52.4216 85.2533 52.2016 85.4C51.9882 85.5467 51.8816 85.74 51.8816 85.98C51.8816 86.22 52.0049 86.4 52.2516 86.52C52.5049 86.6333 52.8882 86.7467 53.4016 86.86C53.9349 86.9867 54.3716 87.1133 54.7116 87.24C55.0516 87.3667 55.3416 87.5667 55.5816 87.84C55.8282 88.1133 55.9516 88.4833 55.9516 88.95C55.9516 89.35 55.8382 89.7167 55.6116 90.05C55.3916 90.3767 55.0582 90.6367 54.6116 90.83C54.1649 91.0233 53.6216 91.12 52.9816 91.12ZM62.9205 84C63.5405 84 64.0772 84.1033 64.5305 84.31C64.9905 84.5167 65.3439 84.81 65.5905 85.19C65.8372 85.57 65.9605 86.02 65.9605 86.54C65.9605 87.0533 65.8372 87.5033 65.5905 87.89C65.3439 88.27 64.9905 88.5633 64.5305 88.77C64.0772 88.97 63.5405 89.07 62.9205 89.07H61.5105V91H59.8905V84H62.9205ZM62.8305 87.75C63.3172 87.75 63.6872 87.6467 63.9405 87.44C64.1939 87.2267 64.3205 86.9267 64.3205 86.54C64.3205 86.1467 64.1939 85.8467 63.9405 85.64C63.6872 85.4267 63.3172 85.32 62.8305 85.32H61.5105V87.75H62.8305ZM69.5573 91.08C68.9907 91.08 68.4807 90.9633 68.0273 90.73C67.5807 90.49 67.2307 90.16 66.9773 89.74C66.724 89.32 66.5973 88.8433 66.5973 88.31C66.5973 87.7767 66.724 87.3 66.9773 86.88C67.2307 86.46 67.5807 86.1333 68.0273 85.9C68.4807 85.66 68.9907 85.54 69.5573 85.54C70.124 85.54 70.6307 85.66 71.0773 85.9C71.524 86.1333 71.874 86.46 72.1273 86.88C72.3807 87.3 72.5073 87.7767 72.5073 88.31C72.5073 88.8433 72.3807 89.32 72.1273 89.74C71.874 90.16 71.524 90.49 71.0773 90.73C70.6307 90.9633 70.124 91.08 69.5573 91.08ZM69.5573 89.8C69.9573 89.8 70.284 89.6667 70.5373 89.4C70.7973 89.1267 70.9273 88.7633 70.9273 88.31C70.9273 87.8567 70.7973 87.4967 70.5373 87.23C70.284 86.9567 69.9573 86.82 69.5573 86.82C69.1573 86.82 68.8273 86.9567 68.5673 87.23C68.3073 87.4967 68.1773 87.8567 68.1773 88.31C68.1773 88.7633 68.3073 89.1267 68.5673 89.4C68.8273 89.6667 69.1573 89.8 69.5573 89.8ZM73.5501 85.62H75.1101V91H73.5501V85.62ZM74.3301 84.87C74.0434 84.87 73.8101 84.7867 73.6301 84.62C73.4501 84.4533 73.3601 84.2467 73.3601 84C73.3601 83.7533 73.4501 83.5467 73.6301 83.38C73.8101 83.2133 74.0434 83.13 74.3301 83.13C74.6167 83.13 74.8501 83.21 75.0301 83.37C75.2101 83.53 75.3001 83.73 75.3001 83.97C75.3001 84.23 75.2101 84.4467 75.0301 84.62C74.8501 84.7867 74.6167 84.87 74.3301 84.87ZM79.8279 85.54C80.4946 85.54 81.0312 85.74 81.4379 86.14C81.8512 86.54 82.0579 87.1333 82.0579 87.92V91H80.4979V88.16C80.4979 87.7333 80.4046 87.4167 80.2179 87.21C80.0312 86.9967 79.7612 86.89 79.4079 86.89C79.0146 86.89 78.7012 87.0133 78.4679 87.26C78.2346 87.5 78.1179 87.86 78.1179 88.34V91H76.5579V85.62H78.0479V86.25C78.2546 86.0233 78.5112 85.85 78.8179 85.73C79.1246 85.6033 79.4612 85.54 79.8279 85.54ZM86.942 90.74C86.7886 90.8533 86.5986 90.94 86.372 91C86.152 91.0533 85.9186 91.08 85.672 91.08C85.032 91.08 84.5353 90.9167 84.182 90.59C83.8353 90.2633 83.662 89.7833 83.662 89.15V86.94H82.832V85.74H83.662V84.43H85.222V85.74H86.562V86.94H85.222V89.13C85.222 89.3567 85.2786 89.5333 85.392 89.66C85.512 89.78 85.6786 89.84 85.892 89.84C86.1386 89.84 86.3486 89.7733 86.522 89.64L86.942 90.74ZM89.6277 91.08C89.181 91.08 88.7443 91.0267 88.3177 90.92C87.891 90.8067 87.551 90.6667 87.2977 90.5L87.8177 89.38C88.0577 89.5333 88.3477 89.66 88.6877 89.76C89.0277 89.8533 89.361 89.9 89.6877 89.9C90.3477 89.9 90.6777 89.7367 90.6777 89.41C90.6777 89.2567 90.5877 89.1467 90.4077 89.08C90.2277 89.0133 89.951 88.9567 89.5777 88.91C89.1377 88.8433 88.7743 88.7667 88.4877 88.68C88.201 88.5933 87.951 88.44 87.7377 88.22C87.531 88 87.4277 87.6867 87.4277 87.28C87.4277 86.94 87.5243 86.64 87.7177 86.38C87.9177 86.1133 88.2043 85.9067 88.5777 85.76C88.9577 85.6133 89.4043 85.54 89.9177 85.54C90.2977 85.54 90.6743 85.5833 91.0477 85.67C91.4277 85.75 91.741 85.8633 91.9877 86.01L91.4677 87.12C90.9943 86.8533 90.4777 86.72 89.9177 86.72C89.5843 86.72 89.3343 86.7667 89.1677 86.86C89.001 86.9533 88.9177 87.0733 88.9177 87.22C88.9177 87.3867 89.0077 87.5033 89.1877 87.57C89.3677 87.6367 89.6543 87.7 90.0477 87.76C90.4877 87.8333 90.8477 87.9133 91.1277 88C91.4077 88.08 91.651 88.23 91.8577 88.45C92.0643 88.67 92.1677 88.9767 92.1677 89.37C92.1677 89.7033 92.0677 90 91.8677 90.26C91.6677 90.52 91.3743 90.7233 90.9877 90.87C90.6077 91.01 90.1543 91.08 89.6277 91.08Z" fill="#999999"/>
<path d="M95.0016 125.287C108.368 118.748 119.133 107.885 125.549 94.4588C131.965 81.0331 133.656 65.8332 130.348 51.3256C127.04 36.818 118.926 23.854 107.323 14.5375C95.7207 5.2209 81.3103 0.0984722 66.4305 0.0014043C51.5508 -0.0956636 37.0748 4.83833 25.3517 14.0027C13.6286 23.1671 5.34637 36.0241 1.84895 50.4873C-1.64847 64.9506 -0.15582 80.1713 6.08469 93.6795C12.3252 107.188 22.9473 118.191 36.2274 124.903L40.628 116.197C29.3107 110.477 20.2586 101.1 14.9405 89.5883C9.62233 78.0767 8.3503 65.1057 11.3308 52.7802C14.3113 40.4547 21.3694 29.498 31.3597 21.6882C41.3501 13.8783 53.6864 9.6736 66.3669 9.75632C79.0474 9.83904 91.3278 14.2043 101.215 22.1439C111.103 30.0834 118.018 41.1312 120.837 53.4945C123.656 65.8579 122.215 78.8112 116.747 90.2525C111.28 101.694 102.106 110.952 90.715 116.524L95.0016 125.287Z" fill="#C4C4C4"/>
<path d="M123.158 33C118.012 24.088 110.854 16.5027 102.255 10.8498C93.6565 5.1969 83.8548 1.63306 73.6332 0.442894C63.4116 -0.747267 53.0533 0.469232 43.3856 3.99524C33.7179 7.52124 25.0087 13.259 17.9534 20.7504C10.8981 28.2418 5.69238 37.2791 2.75186 47.1407C-0.188658 57.0023 -0.782449 67.4148 1.01791 77.5468C2.81827 87.6787 6.96289 97.2493 13.1208 105.494C19.2786 113.739 27.2792 120.43 36.4833 125.032L40.8461 116.307C33.0023 112.385 26.1843 106.683 20.9366 99.6567C15.6889 92.6305 12.1568 84.4745 10.6226 75.8401C9.08832 67.2057 9.59435 58.3322 12.1002 49.9282C14.6061 41.5242 19.0425 33.8226 25.0549 27.4385C31.0674 21.0544 38.4894 16.1647 46.7282 13.1598C54.9669 10.155 63.7942 9.11831 72.505 10.1326C81.2158 11.1468 89.5687 14.1839 96.8967 19.0013C104.225 23.8186 110.325 30.2828 114.709 37.8776L123.158 33Z" fill="black"/>
<path d="M55.9354 127.416V129H49.5874V127.74L52.8274 124.68C53.1714 124.352 53.4034 124.072 53.5234 123.84C53.6434 123.6 53.7034 123.364 53.7034 123.132C53.7034 122.796 53.5874 122.54 53.3554 122.364C53.1314 122.18 52.7994 122.088 52.3594 122.088C51.9914 122.088 51.6594 122.16 51.3634 122.304C51.0674 122.44 50.8194 122.648 50.6194 122.928L49.2034 122.016C49.5314 121.528 49.9834 121.148 50.5594 120.876C51.1354 120.596 51.7954 120.456 52.5394 120.456C53.1634 120.456 53.7074 120.56 54.1714 120.768C54.6434 120.968 55.0074 121.256 55.2634 121.632C55.5274 122 55.6594 122.436 55.6594 122.94C55.6594 123.396 55.5634 123.824 55.3714 124.224C55.1794 124.624 54.8074 125.08 54.2554 125.592L52.3234 127.416H55.9354ZM57.9707 126.768C58.3067 126.768 58.5827 126.876 58.7987 127.092C59.0147 127.3 59.1227 127.576 59.1227 127.92C59.1227 128.08 59.1027 128.24 59.0627 128.4C59.0227 128.56 58.9347 128.8 58.7987 129.12L58.1147 130.848H56.9267L57.4547 128.94C57.2547 128.86 57.0947 128.732 56.9747 128.556C56.8627 128.372 56.8067 128.16 56.8067 127.92C56.8067 127.576 56.9147 127.3 57.1307 127.092C57.3547 126.876 57.6347 126.768 57.9707 126.768ZM63.443 129.144C62.747 129.144 62.127 128.972 61.583 128.628C61.039 128.284 60.611 127.788 60.299 127.14C59.995 126.484 59.843 125.704 59.843 124.8C59.843 123.896 59.995 123.12 60.299 122.472C60.611 121.816 61.039 121.316 61.583 120.972C62.127 120.628 62.747 120.456 63.443 120.456C64.139 120.456 64.759 120.628 65.303 120.972C65.847 121.316 66.271 121.816 66.575 122.472C66.887 123.12 67.043 123.896 67.043 124.8C67.043 125.704 66.887 126.484 66.575 127.14C66.271 127.788 65.847 128.284 65.303 128.628C64.759 128.972 64.139 129.144 63.443 129.144ZM63.443 127.5C63.955 127.5 64.355 127.28 64.643 126.84C64.939 126.4 65.087 125.72 65.087 124.8C65.087 123.88 64.939 123.2 64.643 122.76C64.355 122.32 63.955 122.1 63.443 122.1C62.939 122.1 62.539 122.32 62.243 122.76C61.955 123.2 61.811 123.88 61.811 124.8C61.811 125.72 61.955 126.4 62.243 126.84C62.539 127.28 62.939 127.5 63.443 127.5ZM71.5875 129.144C70.8915 129.144 70.2715 128.972 69.7275 128.628C69.1835 128.284 68.7555 127.788 68.4435 127.14C68.1395 126.484 67.9875 125.704 67.9875 124.8C67.9875 123.896 68.1395 123.12 68.4435 122.472C68.7555 121.816 69.1835 121.316 69.7275 120.972C70.2715 120.628 70.8915 120.456 71.5875 120.456C72.2835 120.456 72.9035 120.628 73.4475 120.972C73.9915 121.316 74.4155 121.816 74.7195 122.472C75.0315 123.12 75.1875 123.896 75.1875 124.8C75.1875 125.704 75.0315 126.484 74.7195 127.14C74.4155 127.788 73.9915 128.284 73.4475 128.628C72.9035 128.972 72.2835 129.144 71.5875 129.144ZM71.5875 127.5C72.0995 127.5 72.4995 127.28 72.7875 126.84C73.0835 126.4 73.2315 125.72 73.2315 124.8C73.2315 123.88 73.0835 123.2 72.7875 122.76C72.4995 122.32 72.0995 122.1 71.5875 122.1C71.0835 122.1 70.6835 122.32 70.3875 122.76C70.0995 123.2 69.9555 123.88 69.9555 124.8C69.9555 125.72 70.0995 126.4 70.3875 126.84C70.6835 127.28 71.0835 127.5 71.5875 127.5ZM79.7321 129.144C79.0361 129.144 78.4161 128.972 77.8721 128.628C77.3281 128.284 76.9001 127.788 76.5881 127.14C76.2841 126.484 76.1321 125.704 76.1321 124.8C76.1321 123.896 76.2841 123.12 76.5881 122.472C76.9001 121.816 77.3281 121.316 77.8721 120.972C78.4161 120.628 79.0361 120.456 79.7321 120.456C80.4281 120.456 81.0481 120.628 81.5921 120.972C82.1361 121.316 82.5601 121.816 82.8641 122.472C83.1761 123.12 83.3321 123.896 83.3321 124.8C83.3321 125.704 83.1761 126.484 82.8641 127.14C82.5601 127.788 82.1361 128.284 81.5921 128.628C81.0481 128.972 80.4281 129.144 79.7321 129.144ZM79.7321 127.5C80.2441 127.5 80.6441 127.28 80.9321 126.84C81.2281 126.4 81.3761 125.72 81.3761 124.8C81.3761 123.88 81.2281 123.2 80.9321 122.76C80.6441 122.32 80.2441 122.1 79.7321 122.1C79.2281 122.1 78.8281 122.32 78.5321 122.76C78.2441 123.2 78.1001 123.88 78.1001 124.8C78.1001 125.72 78.2441 126.4 78.5321 126.84C78.8281 127.28 79.2281 127.5 79.7321 127.5Z" fill="#C4C4C4"/>
</svg>
