<svg width="25" height="25" viewBox="0 0 25 25" fill="none" xmlns="http://www.w3.org/2000/svg">
    <path d="M17.1514 11.3071H16.517V9.36426C16.517 7.103 14.7143 5.2627 12.4992 5.2627C10.2841 5.2627 8.48132 7.103 8.48132 9.36426V11.3071H7.84692C7.14644 11.3071 6.57812 11.8873 6.57812 12.6023V17.7833C6.57812 18.4983 7.14644 19.0785 7.84692 19.0785H17.1514C17.8519 19.0785 18.4202 18.4983 18.4202 17.7833V12.6023C18.4202 11.8873 17.8519 11.3071 17.1514 11.3071ZM14.4024 11.3071H10.596V9.36426C10.596 8.29299 11.4498 7.42141 12.4992 7.42141C13.5486 7.42141 14.4024 8.29299 14.4024 9.36426V11.3071Z"
          fill="#999999"/>
    <circle cx="12.5" cy="12.5" r="12" stroke="#F2F0F0"/>
</svg>
