<svg width="20" height="20" viewBox="0 0 20 20" fill="none" xmlns="http://www.w3.org/2000/svg">
<path d="M12.1195 12.8358C13.8842 11.3158 16.4725 9.06902 16.4725 0.676457V0.015625H3.53125V0.676457C3.53125 9.06902 6.17831 11.3158 7.8842 12.8358C8.8842 13.6948 9.41361 14.1574 9.41361 15.2148V17.1972C8.47244 17.3294 7.53126 17.7259 7.17832 18.5189H5.8842C5.23714 18.5189 4.70772 19.1137 4.70772 19.8406H15.296C15.296 19.1137 14.7666 18.5189 14.1195 18.5189H12.8254C12.4724 17.7259 11.5901 17.3294 10.5901 17.1972V15.2148C10.5901 14.1574 11.0607 13.6948 12.1195 12.8358ZM10.0019 13.1662C9.64891 12.6375 9.1195 12.1749 8.64891 11.7784C7.06067 10.3907 4.88419 8.54035 4.76655 1.33729H15.3548C15.2372 8.47427 13.0607 10.3907 11.4724 11.7784C10.8842 12.241 10.3548 12.6375 10.0019 13.1662Z" fill="black"/>
<path d="M6.35295 11.2484C6.29413 11.2484 0 9.7285 0 1.99677V1.33594H4.11766V2.6576H1.17647C1.52941 8.73725 6.52943 9.92675 6.58825 9.92675L6.35295 11.2484Z" fill="black"/>
<path d="M13.6455 11.2484L13.4102 9.92675C13.6455 9.86067 18.469 8.67117 18.822 2.6576H15.8808V1.33594H19.9984V1.99677C19.9984 9.7285 13.7043 11.2484 13.6455 11.2484Z" fill="black"/>
</svg>
