<svg width="144" height="176" viewBox="0 0 144 176" fill="none" xmlns="http://www.w3.org/2000/svg">
    <line x1="73.3909" y1="44.8555" x2="73.3909" y2="71.0214" stroke="#F3B53E"/>
    <line x1="73.3909" y1="104.664" x2="73.3909" y2="130.83" stroke="#F3B53E"/>
    <line x1="110.438" y1="58.293" x2="91.9361" y2="76.7951" stroke="#F3B53E"/>
    <line y1="-0.5" x2="26.166" y2="-0.5" transform="matrix(0.707107 0.707107 0.707107 -0.707107 35.511 57.9395)"
          stroke="#F3B53E"/>
    <line y1="-0.5" x2="26.166" y2="-0.5" transform="matrix(-0.707107 -0.707107 -0.707107 0.707107 110.085 123.166)"
          stroke="#F3B53E"/>
    <line x1="35.1574" y1="122.812" x2="53.6596" y2="104.31" stroke="#F3B53E"/>
    <line x1="73.76" y1="14.9512" x2="73.76" y2="-0.000815392" stroke="#F3B53E" stroke-width="2"/>
    <line x1="74.26" y1="175.686" x2="74.26" y2="160.734" stroke="#F3B53E"/>
    <line x1="130.256" y1="43.9152" x2="143.426" y2="34.6934" stroke="#F3B53E" stroke-width="2"/>
    <line x1="143.268" y1="150.289" x2="130.124" y2="137.145" stroke="#F3B53E" stroke-width="2"/>
    <line y1="-1" x2="16.0777" y2="-1" transform="matrix(-0.819152 -0.573576 -0.573576 0.819152 15.0396 44.7344)"
          stroke="#F3B53E" stroke-width="2"/>
    <line y1="-1" x2="18.5888" y2="-1" transform="matrix(0.707107 -0.707107 -0.707107 -0.707107 1.89453 149.582)"
          stroke="#F3B53E" stroke-width="2"/>
    <line x1="4.09504e-05" y1="87.3438" x2="9.34503" y2="87.3445" stroke="#F3B53E"/>
    <line x1="39.649" y1="14.6512" x2="45.256" y2="22.128" stroke="#F3B53E"/>
    <line y1="-0.5" x2="9.3456" y2="-0.5" transform="matrix(-0.599961 0.800029 0.800029 0.599961 112.14 14.9512)"
          stroke="#F3B53E"/>
    <line y1="-0.5" x2="9.3456" y2="-0.5" transform="matrix(0.599961 -0.800029 -0.800029 -0.599961 39.249 164.473)"
          stroke="#F3B53E"/>
    <line x1="111.74" y1="164.773" x2="106.133" y2="157.296" stroke="#F3B53E"/>
    <line x1="130.83" y1="87.3438" x2="140.175" y2="87.3445" stroke="#F3B53E"/>
</svg>
