<svg width="107" height="112" viewBox="0 0 107 112" fill="none" xmlns="http://www.w3.org/2000/svg">
    <path d="M35 103C35 98.5817 38.5817 95 43 95H66C70.4183 95 74 98.5817 74 103V112H35V103Z" fill="#F3B53E"/>
    <rect x="47" y="69" width="14" height="26" fill="#F3B53E"/>
    <path d="M25.5 9H82.5V51C82.5 60.9411 74.4411 69 64.5 69H43.5C33.5589 69 25.5 60.9411 25.5 51V9Z" fill="#F3B53E"/>
    <path d="M25.5 9H82.5V51C82.5 60.9411 74.4411 69 64.5 69H43.5C33.5589 69 25.5 60.9411 25.5 51V9Z"/>
    <path d="M86 20H103.966C104.344 35.747 101.75 43 86 43" stroke="#F3B53E" stroke-width="6"/>
    <path d="M21 20H3.03379C2.65582 35.747 5.24969 43 21 43" stroke="#F3B53E" stroke-width="6"/>
    <rect x="24" width="59" height="9" rx="4.5" fill="#F7CB4F"/>
</svg>
