<svg width="21" height="38" viewBox="0 0 21 38" fill="none" xmlns="http://www.w3.org/2000/svg">
<rect width="21" height="38" rx="3" fill="black"/>
<rect x="1" y="1" width="19" height="36" rx="2" fill="white"/>
<path d="M7 1H14.8404C14.8404 1.69815 14.2744 2.26412 13.5763 2.26412H8.26412C7.56597 2.26412 7 1.69815 7 1Z" fill="black"/>
<line x1="6.20312" y1="33.7617" x2="15.0236" y2="33.7617" stroke="#FAFAFA" stroke-width="2"/>
<path d="M10.5052 13.1193V12.166H11.5052V13.1193V13.5144L11.8896 13.6058C13.52 13.9934 14.5052 15.4608 14.5052 17.3327V20.666V20.8731L14.6517 21.0196L15.7981 22.166H6.21232L7.35876 21.0196L7.50521 20.8731V20.666V17.3327C7.50521 15.4537 8.48406 13.9936 10.1205 13.6059L10.5052 13.5147V13.1193ZM11.6701 23.8327C11.5174 24.0346 11.2755 24.166 11.0052 24.166C10.7842 24.166 10.5722 24.0782 10.416 23.9219C10.3879 23.8939 10.3621 23.864 10.3385 23.8327H11.6701Z" stroke="black"/>
</svg>
