<svg width="90" height="90" viewBox="0 0 90 90" fill="none" xmlns="http://www.w3.org/2000/svg">
<circle cx="45" cy="45" r="44.5" fill="white" stroke="#F2F0F0"/>
<path d="M44.8008 24.9375C46.7485 24.9375 48.6164 25.7112 49.9936 27.0884C51.3708 28.4657 52.1445 30.3336 52.1445 32.2812V33.75H37.457V32.2812C37.457 30.3336 38.2307 28.4657 39.608 27.0884C40.9852 25.7112 42.8531 24.9375 44.8008 24.9375ZM55.082 33.75V32.2812C55.082 29.5545 53.9988 26.9394 52.0707 25.0113C50.1426 23.0832 47.5275 22 44.8008 22C42.074 22 39.4589 23.0832 37.5308 25.0113C35.6027 26.9394 34.5195 29.5545 34.5195 32.2812V33.75H24.2383V63.125C24.2383 64.6831 24.8573 66.1775 25.959 67.2793C27.0608 68.381 28.5551 69 30.1133 69H59.4883C61.0464 69 62.5408 68.381 63.6425 67.2793C64.7443 66.1775 65.3633 64.6831 65.3633 63.125V33.75H55.082Z" fill="black"/>
</svg>
