<svg width="90" height="90" viewBox="0 0 90 90" fill="none" xmlns="http://www.w3.org/2000/svg">
<circle cx="45" cy="45" r="44.5" fill="white" stroke="#F2F0F0"/>
<path d="M64.8125 24.1875H60.75V21.875C60.7489 20.6487 60.3206 19.4731 59.5589 18.606C58.7973 17.7389 57.7646 17.2512 56.6875 17.25H32.3125C31.2354 17.2512 30.2027 17.7389 29.4411 18.606C28.6794 19.4731 28.2511 20.6487 28.25 21.875V24.1875H24.1875C23.1104 24.1887 22.0777 24.6764 21.3161 25.5435C20.5544 26.4106 20.1261 27.5862 20.125 28.8125V35.75C20.1277 38.2023 20.9846 40.5533 22.5077 42.2874C24.0309 44.0214 26.0959 44.9969 28.25 45H28.9041C29.7505 48.5398 31.484 51.7224 33.8928 54.1592C36.3016 56.596 39.2815 58.1816 42.4688 58.7224V68.125H32.3125V72.75H56.6875V68.125H46.5312V58.7154C49.7598 58.261 52.7932 56.7093 55.2354 54.2626C57.6777 51.8159 59.4154 48.588 60.2219 45H60.75C62.9041 44.9969 64.9691 44.0214 66.4923 42.2874C68.0154 40.5533 68.8723 38.2023 68.875 35.75V28.8125C68.8739 27.5862 68.4456 26.4106 67.6839 25.5435C66.9223 24.6764 65.8896 24.1887 64.8125 24.1875ZM28.25 40.375C27.1729 40.3738 26.1402 39.8861 25.3786 39.019C24.6169 38.1519 24.1886 36.9762 24.1875 35.75V28.8125H28.25V40.375ZM64.8125 35.75C64.8114 36.9762 64.3831 38.1519 63.6214 39.019C62.8598 39.8861 61.8271 40.3738 60.75 40.375V28.8125H64.8125V35.75Z" fill="black"/>
<path d="M54.3213 32.0426L48.0259 31.1301L45.2117 25.4402C45.1348 25.2844 45.0083 25.1583 44.8521 25.0816C44.4604 24.8887 43.9843 25.0495 43.7884 25.4402L40.9742 31.1301L34.6788 32.0426C34.5053 32.0673 34.3466 32.1489 34.2251 32.2725C34.0782 32.4231 33.9973 32.6257 34.0001 32.8357C34.0029 33.0457 34.0891 33.2461 34.24 33.3927L38.7948 37.8215L37.7187 44.0753C37.6934 44.2207 37.7096 44.3703 37.7653 44.5071C37.821 44.6439 37.914 44.7624 38.0337 44.8492C38.1535 44.9359 38.2953 44.9875 38.4429 44.998C38.5906 45.0085 38.7383 44.9775 38.8692 44.9086L44.5001 41.9561L50.1309 44.9086C50.2847 44.9902 50.4632 45.0174 50.6343 44.9877C51.0657 44.9135 51.3558 44.5055 51.2814 44.0753L50.2053 37.8215L54.7601 33.3927C54.8841 33.2716 54.9659 33.1133 54.9907 32.9402C55.0577 32.5075 54.7552 32.1069 54.3213 32.0426Z" fill="white"/>
</svg>
