<svg width="20" height="20" viewBox="0 0 20 20" fill="none" xmlns="http://www.w3.org/2000/svg">
  <path d="M8.64554 0.000159194C7.68133 0.0102793 6.85429 0.718268 6.69448 1.66837C6.59914 2.23408 6.38539 3.55969 5.74949 5.78355C5.43593 6.8798 5.01394 8.0569 4.56213 9.06133C4.11017 10.0659 3.5985 10.9056 3.25217 11.2516L0.581497 13.9186C-0.193832 14.6942 -0.193832 15.9731 0.581497 16.7484L3.25217 19.4168C4.02826 20.1914 5.30825 20.1914 6.08446 19.4168L6.94856 18.5534L8.20117 19.8048C8.46169 20.0651 8.88414 20.0651 9.14466 19.8048L11.814 17.1378C12.0745 16.8775 12.0745 16.4554 11.814 16.195L11.0256 15.4072C12.0142 14.9684 13.1567 14.5587 14.2267 14.2533C16.4572 13.6166 17.5641 13.4391 18.3455 13.3092C19.9129 13.0486 20.5572 11.0407 19.4337 9.91813L10.0884 0.580956C9.70572 0.198775 9.18299 -0.00654641 8.64554 0.000159194ZM8.66505 1.32844C8.84693 1.32636 9.01748 1.39943 9.14351 1.52519L18.4889 10.8624C18.9016 11.2746 18.7046 11.8945 18.1291 11.9902C17.3492 12.12 16.1425 12.324 13.8631 12.9747C12.7053 13.3051 11.4721 13.741 10.3948 14.2248C9.58923 14.5865 8.87499 14.9577 8.31713 15.3708L4.63249 11.6867C5.04555 11.1297 5.41632 10.4165 5.77813 9.61223C6.26239 8.5359 6.69856 7.30375 7.02937 6.14691C7.68195 3.86491 7.92074 2.44348 8.01474 1.88467C8.06911 1.56216 8.33792 1.33248 8.66505 1.32844ZM3.72524 12.6674L7.3369 16.2759L5.13813 18.4714C4.87194 18.737 4.4632 18.737 4.19714 18.4714L1.52781 15.8044C1.26176 15.5386 1.26176 15.1302 1.52781 14.8642L3.72524 12.6674ZM9.77168 16.0401L10.3986 16.6665L8.67294 18.3907L7.89224 17.6107L8.75382 16.7485C8.9503 16.5522 9.31721 16.3019 9.77168 16.0401Z" fill="#999999"/>
</svg>
