<svg width="21" height="20" viewBox="0 0 21 20" fill="none" xmlns="http://www.w3.org/2000/svg">
  <path d="M2.595 17.805L5.766 16.7475L6.321 17.025C7.596 17.661 9.0135 18 10.5 18C15.465 18 19.5 14.091 19.5 9.75C19.5 5.409 15.465 1.5 10.5 1.5C5.535 1.5 1.5 5.409 1.5 9.75C1.5 11.37 2.085 13.014 3.1605 14.4195L3.678 15.0945L2.5935 17.8035L2.595 17.805ZM1.5345 19.74C1.39876 19.7855 1.25284 19.7912 1.11397 19.7564C0.97511 19.7216 0.849102 19.6478 0.750836 19.5437C0.652569 19.4396 0.586149 19.3095 0.559421 19.1689C0.532693 19.0282 0.546774 18.8829 0.6 18.75L1.968 15.33C0.72 13.695 0 11.739 0 9.75C0 4.779 4.5 0 10.5 0C16.5 0 21 4.779 21 9.75C21 14.721 16.5 19.5 10.5 19.5C8.81725 19.5047 7.15665 19.1164 5.6505 18.366L1.5345 19.7385V19.74Z" fill="#999999"/>
  <path d="M10.4998 10.9501C10.3422 10.9501 10.1862 10.919 10.0406 10.8587C9.89499 10.7984 9.7627 10.71 9.65127 10.5986C9.53984 10.4871 9.45145 10.3549 9.39115 10.2093C9.33084 10.0637 9.2998 9.90764 9.2998 9.75005C9.2998 9.59246 9.33084 9.43642 9.39115 9.29083C9.45145 9.14524 9.53984 9.01295 9.65127 8.90152C9.7627 8.79009 9.89499 8.7017 10.0406 8.64139C10.1862 8.58109 10.3422 8.55005 10.4998 8.55005C10.8181 8.55005 11.1233 8.67648 11.3483 8.90152C11.5734 9.12657 11.6998 9.43179 11.6998 9.75005C11.6998 10.0683 11.5734 10.3735 11.3483 10.5986C11.1233 10.8236 10.8181 10.9501 10.4998 10.9501ZM14.9998 10.9501C14.8422 10.9501 14.6862 10.919 14.5406 10.8587C14.395 10.7984 14.2627 10.71 14.1513 10.5986C14.0398 10.4871 13.9515 10.3549 13.8911 10.2093C13.8308 10.0637 13.7998 9.90764 13.7998 9.75005C13.7998 9.59246 13.8308 9.43642 13.8911 9.29083C13.9515 9.14524 14.0398 9.01295 14.1513 8.90152C14.2627 8.79009 14.395 8.7017 14.5406 8.64139C14.6862 8.58109 14.8422 8.55005 14.9998 8.55005C15.3181 8.55005 15.6233 8.67648 15.8483 8.90152C16.0734 9.12657 16.1998 9.43179 16.1998 9.75005C16.1998 10.0683 16.0734 10.3735 15.8483 10.5986C15.6233 10.8236 15.3181 10.9501 14.9998 10.9501ZM5.9998 10.9501C5.84222 10.9501 5.68618 10.919 5.54058 10.8587C5.39499 10.7984 5.26271 10.71 5.15128 10.5986C5.03985 10.4871 4.95145 10.3549 4.89115 10.2093C4.83084 10.0637 4.7998 9.90764 4.7998 9.75005C4.7998 9.59246 4.83084 9.43642 4.89115 9.29083C4.95145 9.14524 5.03985 9.01295 5.15128 8.90152C5.26271 8.79009 5.39499 8.7017 5.54058 8.64139C5.68618 8.58109 5.84222 8.55005 5.9998 8.55005C6.31806 8.55005 6.62329 8.67648 6.84833 8.90152C7.07338 9.12657 7.1998 9.43179 7.1998 9.75005C7.1998 10.0683 7.07338 10.3735 6.84833 10.5986C6.62329 10.8236 6.31806 10.9501 5.9998 10.9501Z" fill="#999999"/>
</svg>
