<svg width="122" height="71" viewBox="0 0 122 71" fill="none" xmlns="http://www.w3.org/2000/svg">
  <path stroke-width="4" d="M61.6506 18.7681C61.6506 18.7681 59.3808 4.33219 53.9635 1.30579C51.4213 -0.0863515 45.6106 3.60586 39.1341 5.72434C33.9934 7.2963 28.7289 8.43021 23.3968 9.11391C23.3968 9.11391 13.3492 57.7784 21.3994 60.018C27.4522 61.8036 58.8663 62.2273 75.8746 62.318C85.6495 62.1926 95.4055 61.4243 105.079 60.018C113.341 58.5653 120 56.8403 120.786 53.9652C122.148 49.1532 116.761 39.4687 111.465 39.0148C106.169 38.5608 74.7246 29.4513 61.6506 18.7681Z" stroke="#999999"/>
  <path stroke-width="4" d="M64.5557 31.8726C64.5557 31.8726 68.0663 26.7278 69.64 24.3066" stroke="#999999" stroke-linecap="round"/>
  <path stroke-width="4" d="M71.3945 35.5651C71.3945 35.5651 74.4209 30.7229 75.9947 28.332" stroke="#999999" stroke-linecap="round"/>
  <path stroke-width="4" d="M78.9312 39.197C78.9312 39.197 81.9576 34.4456 83.2892 32.1152" stroke="#999999" stroke-linecap="round"/>
  <path stroke-width="4" d="M86.9214 41.8591C86.9214 41.8591 89.9478 37.0774 91.3702 34.7168" stroke="#999999" stroke-linecap="round"/>
  <path stroke-width="4" d="M18.2822 48.3672C18.2822 48.3672 68.46 58.7175 120.272 48.6396" stroke="#999999"/>
  <path stroke-width="4" d="M44.3697 26.1833C44.3697 26.1833 42.0999 11.596 36.5918 8.56965C34.0194 7.1775 28.2389 10.9 21.7322 12.9882C16.6452 14.5961 11.4313 15.7705 6.14621 16.4988C6.14621 16.4988 -3.93171 65.1633 4.11852 67.5239C10.1713 69.2793 41.5854 69.7029 58.5937 69.824C68.3268 69.6643 78.0403 68.8961 87.6775 67.5239C95.9395 66.041 102.598 64.316 103.384 61.4711C104.746 56.6289 99.3594 46.9444 94.0632 46.5207C88.767 46.097 57.474 36.8362 44.3697 26.1833Z" stroke="#999999"/>
  <path stroke-width="4" d="M47.2754 39.2564C47.2754 39.2564 50.786 34.2024 52.39 31.7207" stroke="#999999" stroke-linecap="round"/>
  <path stroke-width="4" d="M54.1143 42.9489C54.1143 42.9489 57.292 38.1067 58.7144 35.7461" stroke="#999999" stroke-linecap="round"/>
  <path stroke-width="4" d="M61.6509 46.5798C61.6509 46.5798 64.6773 41.8586 66.0392 39.498" stroke="#999999" stroke-linecap="round"/>
  <path stroke-width="4" d="M69.6406 49.3054C69.6406 49.3054 72.667 44.554 74.0894 42.1934" stroke="#999999" stroke-linecap="round"/>
  <path stroke-width="4" d="M1.00146 55.75C1.00146 55.75 51.1792 66.1003 102.991 56.0224" stroke="#999999"/>
</svg>
