<svg width="24" height="23" viewBox="0 0 24 23" fill="none" xmlns="http://www.w3.org/2000/svg">
  <path d="M8.01 17.8871L7.76566 18.1917L8.00192 18.5025C8.31655 18.9165 8.5 19.4305 8.5 20C8.5 21.3839 7.38386 22.5 6 22.5C4.61614 22.5 3.5 21.3839 3.5 20C3.5 18.6161 4.61614 17.5 6 17.5C6.36968 17.5 6.7101 17.5752 7.02582 17.7164L7.3796 17.8747L7.62108 17.5715L9.03108 15.8015L9.29381 15.4717L9.01307 15.1571C8.61932 14.7158 8.3282 14.1928 8.16066 13.6256C7.99312 13.0584 7.9533 12.4612 8.04408 11.8767L8.10883 11.4599L7.70882 11.3259L5.67882 10.6459L5.30937 10.5221L5.09908 10.8501C4.80768 11.3047 4.3768 11.6525 3.87105 11.8415C3.36529 12.0305 2.8119 12.0504 2.29384 11.8984C1.77578 11.7464 1.32095 11.4305 0.99754 10.9982C0.674129 10.5658 0.49956 10.0403 0.500001 9.50041V9.5C0.500001 8.11614 1.61614 7 3 7C4.38386 7 5.5 8.11614 5.5 9.5C5.5 9.57574 5.49918 9.61024 5.49503 9.63929L5.4361 10.0518L5.83119 10.1841L7.86119 10.8641L8.26368 10.9989L8.46205 10.6237C8.74776 10.0831 9.15451 9.61593 9.65056 9.25853C10.1466 8.90113 10.7185 8.66319 11.3217 8.56328L11.74 8.49399V8.07V5.91V5.52591L11.3689 5.4269C10.8337 5.28411 10.3605 4.96884 10.0227 4.52991C9.68491 4.09112 9.50121 3.55322 9.5 2.99949C9.50028 1.61587 10.6163 0.5 12 0.5C13.3839 0.5 14.5 1.61614 14.5 3C14.5 4.16451 13.7013 5.14221 12.6226 5.42651L12.25 5.52471V5.91V8.07V8.49456L12.6689 8.56339C13.9108 8.76741 14.9593 9.54852 15.528 10.6238L15.7264 10.9989L16.1288 10.8641L18.1588 10.1841L18.5 10.0698V9.71V9.5C18.5 8.11614 19.6161 7 21 7C22.3839 7 23.5 8.11614 23.5 9.5C23.5 10.8839 22.3839 12 21 12C20.1193 12 19.3514 11.5441 18.8976 10.855L18.686 10.5337L18.3212 10.6559L16.2912 11.3359L15.8906 11.4701L15.956 11.8875C16.0477 12.4717 16.0083 13.0689 15.8408 13.636C15.6733 14.2031 15.3818 14.7259 14.9874 15.1666L14.7058 15.4812L14.9689 15.8115L16.3789 17.5815L16.6259 17.8915L16.984 17.7219C17.294 17.575 17.6305 17.5 18 17.5C19.3839 17.5 20.5 18.6161 20.5 20C20.5 21.3839 19.3839 22.5 18 22.5C16.6161 22.5 15.5 21.3839 15.5 20C15.5 19.4305 15.6834 18.9165 15.9981 18.5025L16.2335 18.1928L15.9911 17.8885L14.5811 16.1185L14.3173 15.7873L13.9472 15.9929C12.7466 16.6599 11.2708 16.668 10.0639 15.9935L9.69468 15.7872L9.43 16.1171L8.01 17.8871Z" stroke="#999999"/>
</svg>
