<svg width="13" height="14" viewBox="0 0 13 14" fill="none" xmlns="http://www.w3.org/2000/svg">
<path d="M8.31547 1.15625C8.78205 0.700409 9.41487 0.44432 10.0747 0.44432C10.7345 0.44432 11.3674 0.700409 11.8339 1.15625C12.3005 1.61209 12.5626 2.23034 12.5626 2.875C12.5626 3.51966 12.3005 4.13791 11.8339 4.59375L5.5007 10.7812C5.22076 11.0548 4.84107 11.2084 4.44516 11.2084C4.04926 11.2084 3.66957 11.0548 3.38962 10.7812C3.10968 10.5077 2.9524 10.1368 2.9524 9.75C2.9524 9.36321 3.10968 8.99225 3.38962 8.71875L8.31547 3.90625C8.40879 3.81508 8.53535 3.76386 8.66732 3.76386C8.79929 3.76386 8.92585 3.81508 9.01917 3.90625C9.11248 3.99742 9.16491 4.12107 9.16491 4.25C9.16491 4.37893 9.11248 4.50258 9.01917 4.59375L4.09332 9.40625C4 9.49742 3.94758 9.62107 3.94758 9.75C3.94758 9.87893 4 10.0026 4.09332 10.0937C4.18663 10.1849 4.31319 10.2361 4.44516 10.2361C4.57713 10.2361 4.70369 10.1849 4.79701 10.0937L11.1302 3.90625C11.2689 3.77082 11.3788 3.61005 11.4538 3.43311C11.5289 3.25617 11.5675 3.06652 11.5675 2.875C11.5675 2.68348 11.5289 2.49383 11.4538 2.31689C11.3788 2.13995 11.2689 1.97918 11.1302 1.84375C10.9916 1.70832 10.8271 1.6009 10.646 1.52761C10.4649 1.45432 10.2707 1.41659 10.0747 1.41659C9.87868 1.41659 9.68456 1.45431 9.50345 1.52761C9.32234 1.6009 9.15778 1.70832 9.01917 1.84375L2.68593 8.03125C2.21935 8.48709 1.95723 9.10534 1.95723 9.75C1.95723 10.3947 2.21935 11.0129 2.68593 11.4687C3.15251 11.9246 3.78532 12.1807 4.44516 12.1807C5.105 12.1807 5.73782 11.9246 6.2044 11.4687L11.1302 6.65625C11.2236 6.56508 11.3501 6.51386 11.4821 6.51386C11.6141 6.51386 11.7406 6.56508 11.8339 6.65625C11.9273 6.74742 11.9797 6.87107 11.9797 7C11.9797 7.12893 11.9273 7.25258 11.8339 7.34375L6.90809 12.1562C6.25488 12.7944 5.36894 13.153 4.44516 13.153C3.52139 13.153 2.63545 12.7944 1.98224 12.1562C1.32903 11.5181 0.96206 10.6525 0.96206 9.75C0.96206 8.84748 1.32903 7.98193 1.98224 7.34375L8.31547 1.15625Z" fill="black"/>
</svg>
