<svg width="39" height="42" viewBox="0 0 39 42" fill="none" xmlns="http://www.w3.org/2000/svg">
  <path d="M31.9105 21.9964C33.4319 22.1667 34.8654 22.7977 36.0198 23.8052C37.1742 24.8127 37.9948 26.1488 38.3722 27.6354C38.7496 29.1221 38.6659 30.6888 38.1322 32.1265C37.5985 33.5643 36.6401 34.8049 35.3849 35.6831C34.4265 36.3603 33.3196 36.7967 32.1576 36.9554C31.9477 36.9847 31.9105 37.0778 31.9052 37.2668C31.9127 37.6919 31.8824 38.1168 31.8149 38.5365C31.6553 39.3149 31.2379 40.0164 30.6303 40.5271C30.0227 41.0378 29.2608 41.3278 28.4681 41.35H3.92696C3.07925 41.372 2.25175 41.0887 1.59475 40.5514C0.937743 40.0142 0.494787 39.2587 0.346324 38.422C0.303805 38.1697 0.285139 37.914 0.290553 37.6581C0.290553 28.578 0.290553 19.4979 0.290553 10.4177C0.281706 10.2546 0.312343 10.0916 0.379867 9.94287C0.447392 9.79411 0.549791 9.66388 0.678355 9.56332C4.33867 6.46504 7.99632 3.36587 11.6513 0.26582C11.8387 0.115596 12.0702 0.0314134 12.3101 0.026272C17.6226 0.012076 22.9351 0.012076 28.2476 0.026272C30.3991 0.026272 31.9106 1.55145 31.9159 3.71546C31.9159 8.74084 31.9159 13.7653 31.9159 18.789V21.9964H31.9105ZM30.2531 21.9964C30.2531 21.9059 30.2531 21.8526 30.2531 21.7994C30.2531 15.7448 30.2531 9.68754 30.2531 3.62761C30.2531 2.45112 29.4296 1.67123 28.2396 1.67123H13.5452C13.1388 1.67123 13.1123 1.69785 13.1096 2.10776C13.1096 3.85387 13.1096 5.59732 13.1096 7.34343C13.1138 7.64173 13.0871 7.93965 13.0299 8.23244C12.8681 9.0473 12.4256 9.77926 11.7799 10.3004C11.1341 10.8214 10.3261 11.0985 9.49711 11.0832C7.10648 11.0832 4.73977 11.0832 2.35977 11.0832C1.93742 11.0832 1.93743 11.0832 1.93743 11.5091C1.93743 20.2396 1.93743 28.9693 1.93743 37.698C1.92164 37.9653 1.96245 38.2328 2.05718 38.4831C2.1519 38.7334 2.2984 38.9608 2.48705 39.1504C2.6757 39.3399 2.90224 39.4873 3.15178 39.5829C3.40131 39.6785 3.6682 39.7201 3.93492 39.705H28.221C29.4455 39.705 30.2398 38.9065 30.2531 37.6927C30.2531 37.0246 30.2531 37.0246 29.597 36.8942L29.5013 36.8756C28.0311 36.5599 26.689 35.8099 25.6483 34.7224C24.6075 33.635 23.9159 32.2599 23.6626 30.7747C23.4093 29.2896 23.6059 27.7624 24.2272 26.3903C24.8484 25.0182 25.8658 23.8641 27.1479 23.077C28.0935 22.4976 29.1526 22.129 30.2531 21.9964V21.9964ZM37.146 29.4839C37.1439 28.2854 36.7871 27.1144 36.1207 26.1191C35.4543 25.1239 34.5083 24.3491 33.4023 23.8927C32.2963 23.4364 31.0801 23.319 29.9076 23.5555C28.7351 23.792 27.6589 24.3716 26.8152 25.2212C25.9715 26.0707 25.3982 27.1519 25.1679 28.328C24.9376 29.5041 25.0606 30.7222 25.5213 31.8283C25.9821 32.9343 26.7599 33.8785 27.7563 34.5415C28.7527 35.2044 29.9229 35.5563 31.119 35.5527C32.7185 35.5435 34.2494 34.9004 35.3772 33.7637C36.505 32.6271 37.1381 31.0894 37.1381 29.4865L37.146 29.4839ZM3.71446 9.28917L3.76758 9.39031C3.8272 9.40221 3.88754 9.41021 3.9482 9.41426C5.87929 9.41426 7.8104 9.41426 9.7415 9.41426C9.9877 9.41428 10.2314 9.3653 10.4586 9.27017C10.6858 9.17504 10.8918 9.03565 11.0648 8.86009C11.2378 8.68453 11.3742 8.4763 11.4662 8.24747C11.5583 8.01864 11.604 7.77378 11.6009 7.52709C11.6009 6.02852 11.6009 4.52729 11.6009 3.02872C11.5899 2.9001 11.5722 2.77216 11.5477 2.64543C8.88618 4.89461 6.29899 7.09056 3.71446 9.28917Z" fill="#626262"/>
  <path d="M30.2511 21.9931C29.1565 22.1227 28.1022 22.4858 27.1592 23.0578C25.8771 23.8449 24.8598 24.999 24.2385 26.3711C23.6173 27.7432 23.4206 29.2703 23.6739 30.7555C23.9272 32.2407 24.6189 33.6157 25.6596 34.7032C26.7004 35.7907 28.0425 36.5406 29.5127 36.8563L29.6083 36.875C30.2724 36.9947 30.2724 36.9947 30.2644 37.6735C30.2644 38.8899 29.4675 39.6858 28.2324 39.6858H3.93832C3.67159 39.7009 3.40469 39.6593 3.15516 39.5637C2.90562 39.4681 2.6791 39.3207 2.49045 39.1312C2.30179 38.9416 2.15528 38.7142 2.06056 38.4639C1.96583 38.2136 1.92502 37.9461 1.94081 37.6788C1.94081 28.95 1.94081 20.2204 1.94081 11.4898C1.94081 11.0639 1.94082 11.064 2.36316 11.064C4.75379 11.064 7.12316 11.064 9.5005 11.064C10.3268 11.0794 11.1323 10.8043 11.7773 10.2864C12.4222 9.76853 12.8656 9.04064 13.0307 8.22918C13.0878 7.93639 13.1145 7.63847 13.1103 7.34016C13.1103 5.59405 13.1103 3.85061 13.1103 2.1045C13.1103 1.69459 13.1396 1.67063 13.546 1.66797H28.2403C29.4303 1.66797 30.2538 2.44786 30.2538 3.62435C30.2538 9.6825 30.2538 15.7398 30.2538 21.7961C30.2511 21.852 30.2511 21.9053 30.2511 21.9931ZM16.0853 21.1014H17.1691C20.5337 21.1014 23.8983 21.1014 27.2628 21.1014C27.4491 21.0965 27.6315 21.0462 27.7941 20.955C27.9595 20.8554 28.086 20.7021 28.1527 20.5206C28.2193 20.3391 28.2221 20.1402 28.1607 19.9569C28.0998 19.7682 27.978 19.6051 27.8145 19.4933C27.651 19.3815 27.4551 19.3274 27.2575 19.3394C25.6319 19.3394 24.0063 19.3394 22.3833 19.3394H5.46832C5.25582 19.3394 5.04331 19.3394 4.83081 19.3394C4.67589 19.3416 4.52456 19.3865 4.39338 19.4691C4.26221 19.5517 4.15624 19.6689 4.08706 19.8078C3.75238 20.444 4.2119 21.1067 4.99284 21.1067L16.0853 21.1014ZM16.0853 16.4513H27.1061C27.2229 16.458 27.34 16.458 27.4567 16.4513C27.653 16.4257 27.8348 16.3341 27.9723 16.1914C28.1099 16.0488 28.195 15.8636 28.2138 15.6661C28.2353 15.4741 28.1921 15.2805 28.091 15.116C27.9899 14.9515 27.8367 14.8256 27.656 14.7585C27.4828 14.7125 27.3037 14.6927 27.1247 14.6999H5.34347C5.16284 14.6999 4.97956 14.6999 4.81222 14.6999C4.59123 14.7156 4.38488 14.8164 4.23635 14.9811C4.08782 15.1458 4.00861 15.3617 4.01534 15.5836C4.01534 16.116 4.40316 16.454 5.01409 16.454L16.0853 16.4513ZM12.8022 33.2523H7.38612C6.54675 33.2523 5.70738 33.2523 4.868 33.2523C4.74798 33.2502 4.62882 33.2731 4.51806 33.3195C4.40729 33.3659 4.30731 33.4347 4.22445 33.5218C4.14158 33.6088 4.07763 33.7121 4.03661 33.8252C3.99559 33.9382 3.9784 34.0586 3.98613 34.1786C4.00738 34.711 4.4005 35.0197 5.01941 35.0197H20.2796C20.4389 35.0197 20.601 35.0197 20.7577 35.0197C20.9364 35.0162 21.1095 34.9565 21.2525 34.849C21.3955 34.7415 21.5011 34.5918 21.5546 34.4208C21.7671 33.806 21.3261 33.255 20.6169 33.2523H12.8022ZM12.7863 30.3776H20.4629C20.5796 30.3843 20.6967 30.3843 20.8135 30.3776C21.0209 30.3541 21.2133 30.2578 21.3567 30.1059C21.5001 29.9539 21.5852 29.756 21.5971 29.5472C21.6089 29.3324 21.5407 29.1209 21.4057 28.9537C21.2708 28.7865 21.0786 28.6755 20.8666 28.6422C20.6904 28.6204 20.5128 28.6115 20.3353 28.6156H5.41785C5.20535 28.6156 4.99284 28.6156 4.78034 28.6156C4.55957 28.6293 4.35284 28.7287 4.20405 28.8927C4.05526 29.0567 3.97613 29.2724 3.98347 29.4939C3.98347 30.0263 4.36331 30.3696 4.94237 30.3723L12.7863 30.3776ZM12.7863 25.7382C15.3655 25.7382 17.9447 25.7382 20.5266 25.7382C20.7472 25.7453 20.9667 25.7034 21.1694 25.6158C21.3403 25.5253 21.4745 25.3781 21.5491 25.1994C21.6237 25.0208 21.6341 24.8217 21.5785 24.6362C21.4563 24.205 21.1296 23.9814 20.6089 23.9814H5.01675C4.93175 23.9814 4.8441 23.9814 4.75113 23.9814C4.54307 24.0026 4.34976 24.0987 4.2071 24.252C4.06445 24.4052 3.98216 24.6051 3.97551 24.8146C3.96046 25.0292 4.02677 25.2416 4.1612 25.4094C4.29563 25.5771 4.48828 25.6879 4.70066 25.7196C4.84877 25.7365 4.9979 25.7427 5.14691 25.7382H12.7863ZM21.953 10.3H27.2416C27.455 10.3202 27.6686 10.2627 27.8432 10.1381C28.0178 10.0134 28.1418 9.83001 28.1925 9.62129C28.336 9.01441 27.903 8.52996 27.2124 8.5273H17.4852C17.1771 8.5273 16.8689 8.5273 16.5608 8.5273C16.3348 8.53345 16.1199 8.6269 15.961 8.78811C15.8021 8.94932 15.7115 9.16581 15.7082 9.39236C15.7082 9.92472 16.0986 10.292 16.6857 10.2947L21.953 10.3ZM21.953 6.37128C23.6928 6.37128 25.4327 6.37128 27.1752 6.37128C27.375 6.37757 27.574 6.34222 27.7596 6.26747C27.9377 6.18015 28.0794 6.03284 28.16 5.85133C28.2406 5.66981 28.255 5.46567 28.2005 5.27464C28.1516 5.0764 28.0345 4.90178 27.8698 4.78152C27.7051 4.66127 27.5033 4.60307 27.3 4.61718H16.675C16.5262 4.6073 16.3774 4.63647 16.2432 4.70182C16.109 4.76717 15.9942 4.86644 15.91 4.98983C15.8125 5.11796 15.7544 5.27175 15.7426 5.43244C15.7308 5.59313 15.7659 5.75379 15.8436 5.89483C15.9186 6.04952 16.0382 6.17811 16.1869 6.26399C16.3355 6.34988 16.5065 6.38911 16.6777 6.37661L21.953 6.37128Z" fill="white"/>
  <path d="M37.1381 29.4851C37.1402 30.682 36.7884 31.8526 36.1273 32.8493C35.4661 33.846 34.5252 34.6241 33.4231 35.0855C32.3211 35.5469 31.1074 35.6709 29.9351 35.4417C28.7629 35.2126 27.6846 34.6407 26.8364 33.7981C25.9881 32.9556 25.408 31.8801 25.1691 30.7075C24.9302 29.5348 25.0432 28.3176 25.494 27.2093C25.9447 26.101 26.713 25.1513 27.7018 24.48C28.6906 23.8088 29.8557 23.446 31.05 23.4376C31.8465 23.4324 32.6362 23.5848 33.3737 23.8862C34.1113 24.1876 34.7822 24.632 35.3478 25.1939C35.9135 25.7559 36.3629 26.4242 36.6701 27.1606C36.9773 27.897 37.1364 28.687 37.1381 29.4851ZM30.4019 25.6176C30.1046 25.6962 29.812 25.7913 29.5253 25.9024C29.2033 26.0328 28.922 26.2472 28.7105 26.5232C28.499 26.7992 28.3651 27.1269 28.3225 27.4723C28.28 27.8177 28.3304 28.1682 28.4686 28.4875C28.6067 28.8068 28.8276 29.0832 29.1083 29.2882C29.4501 29.4995 29.8112 29.6777 30.1867 29.8205C30.2664 29.8631 30.3859 29.9456 30.3886 30.0122C30.4045 30.6457 30.3886 31.2792 30.3886 31.9499C29.7883 31.705 29.6448 31.1833 29.4855 30.6696L28.0564 30.8107C28.1308 32.1416 28.7869 32.8523 30.3992 33.374V34.2044H31.7778C31.7778 34.0208 31.7911 33.8531 31.7778 33.688C31.7539 33.4458 31.8203 33.3393 32.0886 33.2994C32.4123 33.2666 32.7253 33.1648 33.0065 33.0009C33.2878 32.837 33.5309 32.6148 33.7195 32.3492C34.62 31.0423 34.0622 29.4665 32.5003 28.8889C32.2639 28.8037 31.9398 28.7718 31.823 28.6014C31.7061 28.4311 31.7831 28.109 31.7805 27.8535C31.7778 27.598 31.7805 27.3211 31.7805 27.055L31.8894 27.0283C32.014 27.1525 32.1269 27.288 32.2267 27.4329C32.3104 27.6043 32.3797 27.7824 32.4339 27.9653L33.8789 27.8961C33.9666 26.9991 33.3476 26.1393 32.3914 25.8172C32.2028 25.7534 31.9266 25.7613 31.8362 25.6336C31.7459 25.5058 31.807 25.2263 31.7778 25.0187C31.7778 24.9362 31.6848 24.8031 31.6317 24.8004C31.2306 24.7818 30.8348 24.8004 30.3992 24.8004L30.4019 25.6176Z" fill="white"/>
  <path d="M3.71094 9.28719C6.29547 7.08859 8.88265 4.89264 11.5389 2.63281C11.5634 2.75955 11.5811 2.88749 11.592 3.01611C11.592 4.51467 11.592 6.01589 11.592 7.51446C11.5952 7.76115 11.5494 8.00603 11.4574 8.23486C11.3654 8.46368 11.2289 8.67192 11.0559 8.84748C10.883 9.02304 10.6769 9.16243 10.4498 9.25756C10.2226 9.35269 9.97885 9.40167 9.73265 9.40165C7.80156 9.41762 5.87046 9.40165 3.93937 9.40165C3.87871 9.39759 3.81837 9.38958 3.75875 9.37768L3.71094 9.28719Z" fill="white"/>
  <path d="M16.0776 21.105H4.99302C4.21208 21.105 3.75256 20.4422 4.08724 19.806C4.15641 19.6671 4.26238 19.5499 4.39356 19.4673C4.52474 19.3847 4.67607 19.3398 4.83099 19.3376C5.04349 19.3376 5.256 19.3376 5.4685 19.3376H22.3888C24.0118 19.3376 25.6374 19.3376 27.263 19.3376C27.4606 19.3256 27.6565 19.3797 27.82 19.4915C27.9835 19.6033 28.1053 19.7664 28.1662 19.9551C28.2276 20.1384 28.2248 20.3373 28.1581 20.5188C28.0915 20.7003 27.965 20.8536 27.7996 20.9533C27.637 21.0445 27.4546 21.0947 27.2683 21.0997C23.9038 21.0997 20.5392 21.0997 17.1746 21.0997H16.0908L16.0776 21.105Z" fill="#626262"/>
  <path d="M16.068 16.4565H4.98352C4.37259 16.4565 3.99008 16.1185 3.98477 15.5861C3.97804 15.3642 4.05723 15.1483 4.20576 14.9836C4.3543 14.8189 4.56066 14.7181 4.78165 14.7024C4.95961 14.6864 5.1429 14.7024 5.3129 14.7024H27.0941C27.2731 14.6952 27.4522 14.715 27.6254 14.761C27.8062 14.8281 27.9593 14.954 28.0604 15.1185C28.1615 15.283 28.2047 15.4766 28.1832 15.6686C28.1644 15.8661 28.0793 16.0513 27.9417 16.1939C27.8042 16.3366 27.6224 16.4282 27.4262 16.4539C27.3094 16.4605 27.1923 16.4605 27.0755 16.4539L16.068 16.4565Z" fill="#626262"/>
  <path d="M12.7971 33.254H20.6012C21.3104 33.254 21.7513 33.8077 21.5388 34.4225C21.4854 34.5935 21.3797 34.7433 21.2367 34.8507C21.0937 34.9582 20.9207 35.0179 20.742 35.0214C20.5852 35.0214 20.4232 35.0214 20.2638 35.0214H5.01165C4.39274 35.0214 3.99961 34.6994 3.97836 34.1803C3.97064 34.0603 3.98783 33.9399 4.02885 33.8269C4.06987 33.7138 4.13382 33.6105 4.21669 33.5235C4.29955 33.4365 4.39953 33.3676 4.51029 33.3212C4.62106 33.2748 4.74021 33.2519 4.86024 33.254C5.69962 33.254 6.53899 33.254 7.37836 33.254H12.7971Z" fill="#626262"/>
  <path d="M12.7823 30.3783H4.94375C4.36468 30.3783 3.9875 30.0243 3.98484 29.4999C3.97751 29.2784 4.05664 29.0627 4.20543 28.8987C4.35422 28.7347 4.56095 28.6353 4.78172 28.6216C4.99422 28.6029 5.20672 28.6216 5.41922 28.6216H20.3287C20.5062 28.6175 20.6838 28.6264 20.86 28.6482C21.072 28.6815 21.2642 28.7925 21.3991 28.9597C21.5341 29.127 21.6023 29.3384 21.5905 29.5532C21.5786 29.762 21.4935 29.9599 21.3501 30.1119C21.2067 30.2638 21.0143 30.3601 20.8069 30.3836C20.6901 30.3903 20.573 30.3903 20.4563 30.3836L12.7823 30.3783Z" fill="#626262"/>
  <path d="M12.7707 25.7411H5.15787C5.00887 25.7456 4.85974 25.7394 4.71162 25.7225C4.49925 25.6909 4.3066 25.5801 4.17217 25.4123C4.03774 25.2446 3.97143 25.0321 3.98647 24.8175C3.99312 24.6081 4.07541 24.4082 4.21807 24.2549C4.36072 24.1017 4.55404 24.0055 4.76209 23.9844C4.84444 23.9844 4.93209 23.9844 5.02772 23.9844H20.604C21.1352 23.9844 21.4513 24.208 21.5735 24.6392C21.6291 24.8247 21.6188 25.0237 21.5441 25.2024C21.4695 25.3811 21.3353 25.5282 21.1644 25.6187C20.9618 25.7064 20.7423 25.7482 20.5216 25.7411C17.9398 25.7411 15.3605 25.7411 12.7813 25.7411H12.7707Z" fill="#626262"/>
  <path d="M21.935 10.3058H16.6809C16.0939 10.3058 15.6902 9.92512 15.7034 9.40342C15.7068 9.17686 15.7974 8.96035 15.9563 8.79915C16.1152 8.63794 16.3301 8.5445 16.5561 8.53835C16.8642 8.52238 17.1724 8.53835 17.4805 8.53835H27.1944C27.885 8.53835 28.318 9.02544 28.1745 9.63232C28.1238 9.84104 27.9998 10.0245 27.8252 10.1491C27.6506 10.2738 27.437 10.3312 27.2236 10.3111L21.935 10.3058Z" fill="#626262"/>
  <path d="M21.9264 6.37477H16.6405C16.4693 6.38727 16.2983 6.34804 16.1496 6.26215C16.001 6.17627 15.8814 6.04768 15.8064 5.89299C15.7287 5.75195 15.6936 5.59129 15.7054 5.4306C15.7171 5.26991 15.7753 5.11612 15.8728 4.98799C15.957 4.8646 16.0718 4.76533 16.206 4.69998C16.3401 4.63463 16.489 4.60547 16.6378 4.61536H27.2628C27.4661 4.60125 27.6679 4.65943 27.8326 4.77968C27.9973 4.89994 28.1144 5.07456 28.1633 5.2728C28.2178 5.46383 28.2034 5.66797 28.1228 5.84949C28.0422 6.031 27.9004 6.17831 27.7223 6.26563C27.5368 6.34038 27.3378 6.37573 27.138 6.36944C25.3955 6.36944 23.6556 6.36944 21.9158 6.36944L21.9264 6.37477Z" fill="#626262"/>
  <path d="M30.3975 25.6158V24.7773C30.8278 24.7773 31.2289 24.7773 31.63 24.7773C31.6831 24.7773 31.7628 24.9131 31.7761 24.9956C31.8053 25.2032 31.7309 25.4667 31.8345 25.6105C31.9381 25.7542 32.2011 25.7303 32.3897 25.7941C33.3406 26.1162 33.9648 26.976 33.8772 27.873L32.4322 27.9422C32.378 27.7592 32.3087 27.5812 32.225 27.4098C32.1252 27.2649 32.0123 27.1294 31.8877 27.0052L31.7788 27.0318C31.7788 27.298 31.7788 27.5642 31.7788 27.8304C31.7788 28.0965 31.7017 28.4 31.8212 28.5783C31.9408 28.7567 32.2622 28.7806 32.4986 28.8658C34.0605 29.4407 34.6236 31.0165 33.7178 32.3261C33.5292 32.5917 33.2861 32.8139 33.0048 32.9778C32.7235 33.1417 32.4106 33.2435 32.0869 33.2763C31.8212 33.3163 31.7522 33.4227 31.7761 33.6649C31.792 33.83 31.7761 33.9976 31.7761 34.1813H30.3975V33.3508C28.7852 32.8185 28.1291 32.1185 28.0547 30.7876L29.4838 30.6465C29.6431 31.1602 29.7866 31.6819 30.3869 31.9268C30.3869 31.2561 30.3869 30.6225 30.3869 29.989C30.3869 29.9225 30.2647 29.84 30.185 29.7974C29.8095 29.6546 29.4484 29.4763 29.1066 29.2651C28.8259 29.0601 28.605 28.7837 28.4669 28.4644C28.3287 28.1451 28.2783 27.7946 28.3208 27.4492C28.3634 27.1038 28.4973 26.7761 28.7088 26.5001C28.9203 26.224 29.2016 26.0097 29.5236 25.8793C29.8099 25.7754 30.1016 25.6875 30.3975 25.6158ZM31.8 31.9774C32.0273 31.9407 32.2342 31.8242 32.3837 31.6486C32.5331 31.473 32.6152 31.2499 32.6155 31.0191C32.5935 30.8197 32.4974 30.6358 32.3463 30.5041C32.1952 30.3724 32.0002 30.3026 31.8 30.3085V31.9774ZM30.3762 26.9972C29.9672 27.0798 29.752 27.3007 29.76 27.6148C29.768 27.9289 29.9991 28.1471 30.3762 28.2217V26.9972Z" fill="#626262"/>
  <path d="M31.8047 31.9779V30.3089C32.0049 30.303 32.1999 30.3729 32.351 30.5046C32.5021 30.6363 32.5982 30.8202 32.6201 31.0196C32.6199 31.2504 32.5377 31.4735 32.3883 31.6491C32.2389 31.8246 32.032 31.9412 31.8047 31.9779V31.9779Z" fill="white"/>
  <path d="M30.3743 27V28.2244C29.9971 28.1499 29.766 27.921 29.758 27.6175C29.7501 27.3141 29.9652 27.0825 30.3743 27Z" fill="white"/>
</svg>
