<svg width="25" height="46" viewBox="0 0 25 46" fill="none" xmlns="http://www.w3.org/2000/svg">
  <path d="M24.784 31.0241C24.784 32.5921 24.368 34.0321 23.536 35.3441C22.736 36.6241 21.504 37.6801 19.84 38.5121C18.176 39.3441 16.112 39.8081 13.648 39.9041V45.4241H11.872V39.9041C9.536 39.8081 7.328 39.3441 5.248 38.5121C3.2 37.6801 1.6 36.6241 0.448 35.3441L1.552 33.5201C2.672 34.6721 4.16 35.6481 6.016 36.4481C7.872 37.2161 9.824 37.6481 11.872 37.7441V23.8241C9.664 23.2801 7.84 22.7041 6.4 22.0961C4.96 21.4881 3.76 20.5921 2.8 19.4081C1.84 18.2241 1.36 16.6721 1.36 14.7521C1.36 12.3521 2.24 10.3201 4 8.65606C5.792 6.99206 8.416 6.06406 11.872 5.87206V0.30406H13.648V5.82406C15.472 5.88806 17.232 6.19206 18.928 6.73606C20.656 7.24806 22.144 7.95206 23.392 8.84806L22.48 10.8161C21.168 9.92006 19.744 9.24806 18.208 8.80006C16.672 8.32006 15.152 8.04806 13.648 7.98406V21.9041C16.08 22.5121 18.032 23.1041 19.504 23.6801C20.976 24.2561 22.224 25.1361 23.248 26.3201C24.272 27.4721 24.784 29.0401 24.784 31.0241ZM3.808 14.7041C3.808 16.6561 4.496 18.1121 5.872 19.0721C7.248 20.0001 9.248 20.8001 11.872 21.4721V8.03206C9.216 8.22406 7.2 8.94406 5.824 10.1921C4.48 11.4081 3.808 12.9121 3.808 14.7041ZM13.648 37.7441C16.528 37.6161 18.688 36.9441 20.128 35.7281C21.6 34.5121 22.336 32.9921 22.336 31.1681C22.336 29.7601 21.952 28.6241 21.184 27.7601C20.416 26.8641 19.44 26.1761 18.256 25.6961C17.072 25.2161 15.536 24.7361 13.648 24.2561V37.7441Z" fill="#626262"/>
</svg>
