<svg width="57" height="45" viewBox="0 0 57 45" fill="none" xmlns="http://www.w3.org/2000/svg">
  <path d="M41 6.2821L44.1167 15.8743L44.229 16.2198H44.5922H54.6781L46.5184 22.1481L46.2246 22.3616L46.3368 22.7071L49.4535 32.2993L41.2939 26.371L41 26.1575L40.7061 26.371L32.5465 32.2993L35.6632 22.7071L35.7754 22.3616L35.4816 22.1481L27.3219 16.2198H37.4078H37.771L37.8833 15.8743L41 6.2821Z" fill="white" stroke="#626262"/>
  <path d="M16 6.2821L19.1167 15.8743L19.229 16.2198H19.5922H29.6781L21.5184 22.1481L21.2246 22.3616L21.3368 22.7071L24.4535 32.2993L16.2939 26.371L16 26.1575L15.7061 26.371L7.54649 32.2993L10.6632 22.7071L10.7754 22.3616L10.4816 22.1481L2.32194 16.2198H12.4078H12.771L12.8833 15.8743L16 6.2821Z" fill="white" stroke="#626262"/>
  <path d="M29 2.2821L33.4638 16.0202L33.576 16.3657H33.9393H48.3844L36.6981 24.8563L36.4042 25.0698L36.5164 25.4153L40.9802 39.1534L29.2939 30.6628L29 30.4493L28.7061 30.6628L17.0198 39.1534L21.4836 25.4153L21.5958 25.0698L21.3019 24.8563L9.6156 16.3657H24.0607H24.424L24.5362 16.0202L29 2.2821Z" fill="white" stroke="#626262"/>
</svg>
